<?xml version="1.0" encoding="UTF-8"?>
<!DOCTYPE xmeml>
<xmeml version="5">
<sequence id="10 ">
	<uuid>BA91CE46-DC2B-4DF6-8AE5-51B3B6A2ED81</uuid>
	<updatebehavior>add</updatebehavior>
	<name>10</name>
	<duration>50072</duration>
	<rate>
		<ntsc>FALSE</ntsc>
		<timebase>24</timebase>
	</rate>
	<timecode>
		<rate>
			<ntsc>FALSE</ntsc>
			<timebase>24</timebase>
		</rate>
		<string>00:00:00:00</string>
		<frame>0</frame>
		<source>source</source>
		<displayformat>NDF</displayformat>
	</timecode>
	<in>-1</in>
	<out>-1</out>
	<media>
		<video>
			<format>
				<samplecharacteristics>
					<width>1920</width>
					<height>1080</height>
					<anamorphic>FALSE</anamorphic>
					<pixelaspectratio>Square</pixelaspectratio>
					<fielddominance>none</fielddominance>
					<rate>
						<ntsc>FALSE</ntsc>
						<timebase>24</timebase>
					</rate>
					<colordepth>24</colordepth>
					<codec>
						<name>Apple ProRes 422 (LT)</name>
						<appspecificdata>
							<appname>Final Cut Pro</appname>
							<appmanufacturer>Apple Inc.</appmanufacturer>
							<appversion>7.0</appversion>
							<data>
								<qtcodec>
									<codecname>Apple ProRes 422 (LT)</codecname>
									<codectypename>Apple ProRes 422 (LT)</codectypename>
									<codectypecode>apcs</codectypecode>
									<codecvendorcode>appl</codecvendorcode>
									<spatialquality>1024</spatialquality>
									<temporalquality>0</temporalquality>
									<keyframerate>0</keyframerate>
									<datarate>0</datarate>
								</qtcodec>
							</data>
						</appspecificdata>
					</codec>
				</samplecharacteristics>
				<appspecificdata>
					<appname>Final Cut Pro</appname>
					<appmanufacturer>Apple Inc.</appmanufacturer>
					<appversion>7.0</appversion>
					<data>
						<fcpimageprocessing>
							<useyuv>TRUE</useyuv>
							<usesuperwhite>FALSE</usesuperwhite>
							<rendermode>Float10BPP</rendermode>
						</fcpimageprocessing>
					</data>
				</appspecificdata>
			</format>
			<track>
				<clipitem id="010_01_01_A">
					<name>010_01_01_A</name>
					<duration>628</duration>
					<rate>
						<ntsc>FALSE</ntsc>
						<timebase>24</timebase>
					</rate>
					<in>0</in>
					<out>628</out>
					<start>0</start>
					<end>628</end>
					<pixelaspectratio>Square</pixelaspectratio>
					<enabled>TRUE</enabled>
					<anamorphic>FALSE</anamorphic>
					<alphatype>none</alphatype>
					<masterclipid>010_01_01_A1</masterclipid>
					<logginginfo>
						<scene/>
						<shottake/>
						<lognote/>
						<good>FALSE</good>
					</logginginfo>
					<labels>
						<label2/>
					</labels>
					<comments>
						<mastercomment1/>
						<mastercomment2/>
						<mastercomment3/>
						<mastercomment4/>
					</comments>
					<file id="A001C019_221211_R03K">
						<name>A001C019_221211_R03K.mov</name>
						<pathurl>file://localhost/Volumes/%E3%80%8A%E6%98%8F%E5%A4%B4%E8%BD%AC%E5%90%91%E3%80%8B%20Editing/%E6%98%8F%E5%A4%B4%E8%BD%AC%E5%90%91/%E8%BD%AC%E7%A0%81%E7%B4%A0%E6%9D%90/20221211/A001R03K/A001C019_221211_R03K.mov</pathurl>
						<rate>
							<timebase>24</timebase>
						</rate>
						<duration>628</duration>
						<timecode>
							<rate>
								<timebase>24</timebase>
							</rate>
							<string>10:09:38:22</string>
							<frame>877894</frame>
							<displayformat>NDF</displayformat>
							<source>source</source>
							<reel>
								<name>A001R03K</name>
							</reel>
						</timecode>
						<media>
							<video>
								<duration>628</duration>
								<samplecharacteristics>
									<width>1920</width>
									<height>1080</height>
								</samplecharacteristics>
							</video>
							<audio>
								<samplecharacteristics>
									<samplerate>48000</samplerate>
									<depth>24</depth>
								</samplecharacteristics>
								<channelcount>1</channelcount>
							</audio>
							<audio>
								<samplecharacteristics>
									<samplerate>48000</samplerate>
									<depth>24</depth>
								</samplecharacteristics>
								<channelcount>1</channelcount>
							</audio>
							<audio>
								<samplecharacteristics>
									<samplerate>48000</samplerate>
									<depth>24</depth>
								</samplecharacteristics>
								<channelcount>1</channelcount>
							</audio>
							<audio>
								<samplecharacteristics>
									<samplerate>48000</samplerate>
									<depth>24</depth>
								</samplecharacteristics>
								<channelcount>1</channelcount>
							</audio>
						</media>
					</file>
					<sourcetrack>
						<mediatype>video</mediatype>
					</sourcetrack>
					<link>
						<linkclipref>010_01_01_A</linkclipref>
						<mediatype>video</mediatype>
						<trackindex>1</trackindex>
						<clipindex>1</clipindex>
					</link>
					<link>
						<linkclipref>010_01_01_A2</linkclipref>
						<mediatype>audio</mediatype>
						<trackindex>1</trackindex>
						<clipindex>1</clipindex>
					</link>
					<link>
						<linkclipref>010_01_01_A3</linkclipref>
						<mediatype>audio</mediatype>
						<trackindex>2</trackindex>
						<clipindex>1</clipindex>
					</link>
					<link>
						<linkclipref>010_01_01_A4</linkclipref>
						<mediatype>audio</mediatype>
						<trackindex>3</trackindex>
						<clipindex>1</clipindex>
					</link>
					<link>
						<linkclipref>010_01_01_A5</linkclipref>
						<mediatype>audio</mediatype>
						<trackindex>4</trackindex>
						<clipindex>1</clipindex>
					</link>
					<fielddominance>none</fielddominance>
					<itemhistory>
						<uuid>0F2F1DCA-BB86-4185-A288-38AFAE0D9E4C</uuid>
					</itemhistory>
				</clipitem>
				<clipitem id="010_01_01_B">
					<name>010_01_01_B</name>
					<duration>676</duration>
					<rate>
						<ntsc>FALSE</ntsc>
						<timebase>24</timebase>
					</rate>
					<in>0</in>
					<out>676</out>
					<start>628</start>
					<end>1304</end>
					<pixelaspectratio>Square</pixelaspectratio>
					<enabled>TRUE</enabled>
					<anamorphic>FALSE</anamorphic>
					<alphatype>none</alphatype>
					<masterclipid>010_01_01_B1</masterclipid>
					<logginginfo>
						<scene/>
						<shottake/>
						<lognote/>
						<good>FALSE</good>
					</logginginfo>
					<labels>
						<label2/>
					</labels>
					<comments>
						<mastercomment1/>
						<mastercomment2/>
						<mastercomment3/>
						<mastercomment4/>
					</comments>
					<file id="B001C006_130101_R1WX">
						<name>B001C006_130101_R1WX.mov</name>
						<pathurl>file://localhost/Volumes/%E3%80%8A%E6%98%8F%E5%A4%B4%E8%BD%AC%E5%90%91%E3%80%8B%20Editing/%E6%98%8F%E5%A4%B4%E8%BD%AC%E5%90%91/%E8%BD%AC%E7%A0%81%E7%B4%A0%E6%9D%90/20221211/B001R1WX/B001C006_130101_R1WX.mov</pathurl>
						<rate>
							<timebase>24</timebase>
						</rate>
						<duration>676</duration>
						<timecode>
							<rate>
								<timebase>24</timebase>
							</rate>
							<string>10:09:38:19</string>
							<frame>877891</frame>
							<displayformat>NDF</displayformat>
							<source>source</source>
							<reel>
								<name>B001R1WX</name>
							</reel>
						</timecode>
						<media>
							<video>
								<duration>676</duration>
								<samplecharacteristics>
									<width>1920</width>
									<height>1080</height>
								</samplecharacteristics>
							</video>
							<audio>
								<samplecharacteristics>
									<samplerate>48000</samplerate>
									<depth>24</depth>
								</samplecharacteristics>
								<channelcount>1</channelcount>
							</audio>
							<audio>
								<samplecharacteristics>
									<samplerate>48000</samplerate>
									<depth>24</depth>
								</samplecharacteristics>
								<channelcount>1</channelcount>
							</audio>
							<audio>
								<samplecharacteristics>
									<samplerate>48000</samplerate>
									<depth>24</depth>
								</samplecharacteristics>
								<channelcount>1</channelcount>
							</audio>
							<audio>
								<samplecharacteristics>
									<samplerate>48000</samplerate>
									<depth>24</depth>
								</samplecharacteristics>
								<channelcount>1</channelcount>
							</audio>
						</media>
					</file>
					<sourcetrack>
						<mediatype>video</mediatype>
					</sourcetrack>
					<link>
						<linkclipref>010_01_01_B</linkclipref>
						<mediatype>video</mediatype>
						<trackindex>1</trackindex>
						<clipindex>2</clipindex>
					</link>
					<link>
						<linkclipref>010_01_01_B2</linkclipref>
						<mediatype>audio</mediatype>
						<trackindex>1</trackindex>
						<clipindex>2</clipindex>
					</link>
					<link>
						<linkclipref>010_01_01_B3</linkclipref>
						<mediatype>audio</mediatype>
						<trackindex>2</trackindex>
						<clipindex>2</clipindex>
					</link>
					<link>
						<linkclipref>010_01_01_B4</linkclipref>
						<mediatype>audio</mediatype>
						<trackindex>3</trackindex>
						<clipindex>2</clipindex>
					</link>
					<link>
						<linkclipref>010_01_01_B5</linkclipref>
						<mediatype>audio</mediatype>
						<trackindex>4</trackindex>
						<clipindex>2</clipindex>
					</link>
					<fielddominance>none</fielddominance>
					<itemhistory>
						<uuid>22E3E8FC-EB4B-4CD9-9FCF-62A9A9413E4A</uuid>
					</itemhistory>
				</clipitem>
				<clipitem id="010_01_02_A">
					<name>010_01_02_A</name>
					<duration>638</duration>
					<rate>
						<ntsc>FALSE</ntsc>
						<timebase>24</timebase>
					</rate>
					<in>0</in>
					<out>638</out>
					<start>1304</start>
					<end>1942</end>
					<pixelaspectratio>Square</pixelaspectratio>
					<enabled>TRUE</enabled>
					<anamorphic>FALSE</anamorphic>
					<alphatype>none</alphatype>
					<masterclipid>010_01_02_A1</masterclipid>
					<logginginfo>
						<scene/>
						<shottake/>
						<lognote/>
						<good>FALSE</good>
					</logginginfo>
					<labels>
						<label2/>
					</labels>
					<comments>
						<mastercomment1/>
						<mastercomment2/>
						<mastercomment3/>
						<mastercomment4/>
					</comments>
					<file id="A001C020_221211_R03K">
						<name>A001C020_221211_R03K.mov</name>
						<pathurl>file://localhost/Volumes/%E3%80%8A%E6%98%8F%E5%A4%B4%E8%BD%AC%E5%90%91%E3%80%8B%20Editing/%E6%98%8F%E5%A4%B4%E8%BD%AC%E5%90%91/%E8%BD%AC%E7%A0%81%E7%B4%A0%E6%9D%90/20221211/A001R03K/A001C020_221211_R03K.mov</pathurl>
						<rate>
							<timebase>24</timebase>
						</rate>
						<duration>638</duration>
						<timecode>
							<rate>
								<timebase>24</timebase>
							</rate>
							<string>10:11:57:04</string>
							<frame>881212</frame>
							<displayformat>NDF</displayformat>
							<source>source</source>
							<reel>
								<name>A001R03K</name>
							</reel>
						</timecode>
						<media>
							<video>
								<duration>638</duration>
								<samplecharacteristics>
									<width>1920</width>
									<height>1080</height>
								</samplecharacteristics>
							</video>
							<audio>
								<samplecharacteristics>
									<samplerate>48000</samplerate>
									<depth>24</depth>
								</samplecharacteristics>
								<channelcount>1</channelcount>
							</audio>
							<audio>
								<samplecharacteristics>
									<samplerate>48000</samplerate>
									<depth>24</depth>
								</samplecharacteristics>
								<channelcount>1</channelcount>
							</audio>
							<audio>
								<samplecharacteristics>
									<samplerate>48000</samplerate>
									<depth>24</depth>
								</samplecharacteristics>
								<channelcount>1</channelcount>
							</audio>
							<audio>
								<samplecharacteristics>
									<samplerate>48000</samplerate>
									<depth>24</depth>
								</samplecharacteristics>
								<channelcount>1</channelcount>
							</audio>
						</media>
					</file>
					<sourcetrack>
						<mediatype>video</mediatype>
					</sourcetrack>
					<link>
						<linkclipref>010_01_02_A</linkclipref>
						<mediatype>video</mediatype>
						<trackindex>1</trackindex>
						<clipindex>3</clipindex>
					</link>
					<link>
						<linkclipref>010_01_02_A2</linkclipref>
						<mediatype>audio</mediatype>
						<trackindex>1</trackindex>
						<clipindex>3</clipindex>
					</link>
					<link>
						<linkclipref>010_01_02_A3</linkclipref>
						<mediatype>audio</mediatype>
						<trackindex>2</trackindex>
						<clipindex>3</clipindex>
					</link>
					<link>
						<linkclipref>010_01_02_A4</linkclipref>
						<mediatype>audio</mediatype>
						<trackindex>3</trackindex>
						<clipindex>3</clipindex>
					</link>
					<link>
						<linkclipref>010_01_02_A5</linkclipref>
						<mediatype>audio</mediatype>
						<trackindex>4</trackindex>
						<clipindex>3</clipindex>
					</link>
					<fielddominance>none</fielddominance>
					<itemhistory>
						<uuid>38A511E8-2092-468E-A8E6-28CE895B122D</uuid>
					</itemhistory>
				</clipitem>
				<clipitem id="010_01_02_B">
					<name>010_01_02_B</name>
					<duration>691</duration>
					<rate>
						<ntsc>FALSE</ntsc>
						<timebase>24</timebase>
					</rate>
					<in>0</in>
					<out>691</out>
					<start>1942</start>
					<end>2633</end>
					<pixelaspectratio>Square</pixelaspectratio>
					<enabled>TRUE</enabled>
					<anamorphic>FALSE</anamorphic>
					<alphatype>none</alphatype>
					<masterclipid>010_01_02_B1</masterclipid>
					<logginginfo>
						<scene/>
						<shottake/>
						<lognote/>
						<good>FALSE</good>
					</logginginfo>
					<labels>
						<label2/>
					</labels>
					<comments>
						<mastercomment1/>
						<mastercomment2/>
						<mastercomment3/>
						<mastercomment4/>
					</comments>
					<file id="B001C007_130101_R1WX">
						<name>B001C007_130101_R1WX.mov</name>
						<pathurl>file://localhost/Volumes/%E3%80%8A%E6%98%8F%E5%A4%B4%E8%BD%AC%E5%90%91%E3%80%8B%20Editing/%E6%98%8F%E5%A4%B4%E8%BD%AC%E5%90%91/%E8%BD%AC%E7%A0%81%E7%B4%A0%E6%9D%90/20221211/B001R1WX/B001C007_130101_R1WX.mov</pathurl>
						<rate>
							<timebase>24</timebase>
						</rate>
						<duration>691</duration>
						<timecode>
							<rate>
								<timebase>24</timebase>
							</rate>
							<string>10:11:56:23</string>
							<frame>881207</frame>
							<displayformat>NDF</displayformat>
							<source>source</source>
							<reel>
								<name>B001R1WX</name>
							</reel>
						</timecode>
						<media>
							<video>
								<duration>691</duration>
								<samplecharacteristics>
									<width>1920</width>
									<height>1080</height>
								</samplecharacteristics>
							</video>
							<audio>
								<samplecharacteristics>
									<samplerate>48000</samplerate>
									<depth>24</depth>
								</samplecharacteristics>
								<channelcount>1</channelcount>
							</audio>
							<audio>
								<samplecharacteristics>
									<samplerate>48000</samplerate>
									<depth>24</depth>
								</samplecharacteristics>
								<channelcount>1</channelcount>
							</audio>
							<audio>
								<samplecharacteristics>
									<samplerate>48000</samplerate>
									<depth>24</depth>
								</samplecharacteristics>
								<channelcount>1</channelcount>
							</audio>
							<audio>
								<samplecharacteristics>
									<samplerate>48000</samplerate>
									<depth>24</depth>
								</samplecharacteristics>
								<channelcount>1</channelcount>
							</audio>
						</media>
					</file>
					<sourcetrack>
						<mediatype>video</mediatype>
					</sourcetrack>
					<link>
						<linkclipref>010_01_02_B</linkclipref>
						<mediatype>video</mediatype>
						<trackindex>1</trackindex>
						<clipindex>4</clipindex>
					</link>
					<link>
						<linkclipref>010_01_02_B2</linkclipref>
						<mediatype>audio</mediatype>
						<trackindex>1</trackindex>
						<clipindex>4</clipindex>
					</link>
					<link>
						<linkclipref>010_01_02_B3</linkclipref>
						<mediatype>audio</mediatype>
						<trackindex>2</trackindex>
						<clipindex>4</clipindex>
					</link>
					<link>
						<linkclipref>010_01_02_B4</linkclipref>
						<mediatype>audio</mediatype>
						<trackindex>3</trackindex>
						<clipindex>4</clipindex>
					</link>
					<link>
						<linkclipref>010_01_02_B5</linkclipref>
						<mediatype>audio</mediatype>
						<trackindex>4</trackindex>
						<clipindex>4</clipindex>
					</link>
					<fielddominance>none</fielddominance>
					<itemhistory>
						<uuid>419D3517-167D-46A3-8A61-D78D55A532F2</uuid>
					</itemhistory>
				</clipitem>
				<clipitem id="010_01_03_A">
					<name>010_01_03_A</name>
					<duration>213</duration>
					<rate>
						<ntsc>FALSE</ntsc>
						<timebase>24</timebase>
					</rate>
					<in>0</in>
					<out>213</out>
					<start>2633</start>
					<end>2846</end>
					<pixelaspectratio>Square</pixelaspectratio>
					<enabled>TRUE</enabled>
					<anamorphic>FALSE</anamorphic>
					<alphatype>none</alphatype>
					<masterclipid>010_01_03_A1</masterclipid>
					<logginginfo>
						<scene/>
						<shottake/>
						<lognote/>
						<good>FALSE</good>
					</logginginfo>
					<labels>
						<label2/>
					</labels>
					<comments>
						<mastercomment1/>
						<mastercomment2/>
						<mastercomment3/>
						<mastercomment4/>
					</comments>
					<file id="A001C021_221211_R03K">
						<name>A001C021_221211_R03K.mov</name>
						<pathurl>file://localhost/Volumes/%E3%80%8A%E6%98%8F%E5%A4%B4%E8%BD%AC%E5%90%91%E3%80%8B%20Editing/%E6%98%8F%E5%A4%B4%E8%BD%AC%E5%90%91/%E8%BD%AC%E7%A0%81%E7%B4%A0%E6%9D%90/20221211/A001R03K/A001C021_221211_R03K.mov</pathurl>
						<rate>
							<timebase>24</timebase>
						</rate>
						<duration>213</duration>
						<timecode>
							<rate>
								<timebase>24</timebase>
							</rate>
							<string>10:14:07:14</string>
							<frame>884342</frame>
							<displayformat>NDF</displayformat>
							<source>source</source>
							<reel>
								<name>A001R03K</name>
							</reel>
						</timecode>
						<media>
							<video>
								<duration>213</duration>
								<samplecharacteristics>
									<width>1920</width>
									<height>1080</height>
								</samplecharacteristics>
							</video>
							<audio>
								<samplecharacteristics>
									<samplerate>48000</samplerate>
									<depth>24</depth>
								</samplecharacteristics>
								<channelcount>1</channelcount>
							</audio>
							<audio>
								<samplecharacteristics>
									<samplerate>48000</samplerate>
									<depth>24</depth>
								</samplecharacteristics>
								<channelcount>1</channelcount>
							</audio>
							<audio>
								<samplecharacteristics>
									<samplerate>48000</samplerate>
									<depth>24</depth>
								</samplecharacteristics>
								<channelcount>1</channelcount>
							</audio>
						</media>
					</file>
					<sourcetrack>
						<mediatype>video</mediatype>
					</sourcetrack>
					<link>
						<linkclipref>010_01_03_A</linkclipref>
						<mediatype>video</mediatype>
						<trackindex>1</trackindex>
						<clipindex>5</clipindex>
					</link>
					<link>
						<linkclipref>010_01_03_A2</linkclipref>
						<mediatype>audio</mediatype>
						<trackindex>1</trackindex>
						<clipindex>5</clipindex>
					</link>
					<link>
						<linkclipref>010_01_03_A3</linkclipref>
						<mediatype>audio</mediatype>
						<trackindex>2</trackindex>
						<clipindex>5</clipindex>
					</link>
					<link>
						<linkclipref>010_01_03_A4</linkclipref>
						<mediatype>audio</mediatype>
						<trackindex>3</trackindex>
						<clipindex>5</clipindex>
					</link>
					<fielddominance>none</fielddominance>
					<itemhistory>
						<uuid>E7EB89F6-86F4-41F3-B1FD-25CFD710D404</uuid>
					</itemhistory>
				</clipitem>
				<clipitem id="010_01_03_B">
					<name>010_01_03_B</name>
					<duration>277</duration>
					<rate>
						<ntsc>FALSE</ntsc>
						<timebase>24</timebase>
					</rate>
					<in>0</in>
					<out>277</out>
					<start>2846</start>
					<end>3123</end>
					<pixelaspectratio>Square</pixelaspectratio>
					<enabled>TRUE</enabled>
					<anamorphic>FALSE</anamorphic>
					<alphatype>none</alphatype>
					<masterclipid>010_01_03_B1</masterclipid>
					<logginginfo>
						<scene/>
						<shottake/>
						<lognote/>
						<good>FALSE</good>
					</logginginfo>
					<labels>
						<label2/>
					</labels>
					<comments>
						<mastercomment1/>
						<mastercomment2/>
						<mastercomment3/>
						<mastercomment4/>
					</comments>
					<file id="B001C008_130101_R1WX">
						<name>B001C008_130101_R1WX.mov</name>
						<pathurl>file://localhost/Volumes/%E3%80%8A%E6%98%8F%E5%A4%B4%E8%BD%AC%E5%90%91%E3%80%8B%20Editing/%E6%98%8F%E5%A4%B4%E8%BD%AC%E5%90%91/%E8%BD%AC%E7%A0%81%E7%B4%A0%E6%9D%90/20221211/B001R1WX/B001C008_130101_R1WX.mov</pathurl>
						<rate>
							<timebase>24</timebase>
						</rate>
						<duration>277</duration>
						<timecode>
							<rate>
								<timebase>24</timebase>
							</rate>
							<string>10:14:07:06</string>
							<frame>884334</frame>
							<displayformat>NDF</displayformat>
							<source>source</source>
							<reel>
								<name>B001R1WX</name>
							</reel>
						</timecode>
						<media>
							<video>
								<duration>277</duration>
								<samplecharacteristics>
									<width>1920</width>
									<height>1080</height>
								</samplecharacteristics>
							</video>
							<audio>
								<samplecharacteristics>
									<samplerate>48000</samplerate>
									<depth>24</depth>
								</samplecharacteristics>
								<channelcount>1</channelcount>
							</audio>
							<audio>
								<samplecharacteristics>
									<samplerate>48000</samplerate>
									<depth>24</depth>
								</samplecharacteristics>
								<channelcount>1</channelcount>
							</audio>
							<audio>
								<samplecharacteristics>
									<samplerate>48000</samplerate>
									<depth>24</depth>
								</samplecharacteristics>
								<channelcount>1</channelcount>
							</audio>
						</media>
					</file>
					<sourcetrack>
						<mediatype>video</mediatype>
					</sourcetrack>
					<link>
						<linkclipref>010_01_03_B</linkclipref>
						<mediatype>video</mediatype>
						<trackindex>1</trackindex>
						<clipindex>6</clipindex>
					</link>
					<link>
						<linkclipref>010_01_03_B2</linkclipref>
						<mediatype>audio</mediatype>
						<trackindex>1</trackindex>
						<clipindex>6</clipindex>
					</link>
					<link>
						<linkclipref>010_01_03_B3</linkclipref>
						<mediatype>audio</mediatype>
						<trackindex>2</trackindex>
						<clipindex>6</clipindex>
					</link>
					<link>
						<linkclipref>010_01_03_B4</linkclipref>
						<mediatype>audio</mediatype>
						<trackindex>3</trackindex>
						<clipindex>6</clipindex>
					</link>
					<fielddominance>none</fielddominance>
					<itemhistory>
						<uuid>ECDB51D4-D819-4212-92F6-D70FF5BCC71C</uuid>
					</itemhistory>
				</clipitem>
				<clipitem id="010_01_04_A_归诚进OK">
					<name>010_01_04_A_归诚进OK</name>
					<duration>590</duration>
					<rate>
						<ntsc>FALSE</ntsc>
						<timebase>24</timebase>
					</rate>
					<in>139</in>
					<out>252</out>
					<start>3123</start>
					<end>3236</end>
					<pixelaspectratio>Square</pixelaspectratio>
					<enabled>TRUE</enabled>
					<anamorphic>FALSE</anamorphic>
					<alphatype>none</alphatype>
					<masterclipid>010_01_04_A_归诚进OK1</masterclipid>
					<logginginfo>
						<scene/>
						<shottake/>
						<lognote/>
						<good>FALSE</good>
					</logginginfo>
					<labels>
						<label2/>
					</labels>
					<comments>
						<mastercomment1/>
						<mastercomment2/>
						<mastercomment3/>
						<mastercomment4/>
					</comments>
					<file id="A001C022_221211_R03K">
						<name>A001C022_221211_R03K.mov</name>
						<pathurl>file://localhost/Volumes/%E3%80%8A%E6%98%8F%E5%A4%B4%E8%BD%AC%E5%90%91%E3%80%8B%20Editing/%E6%98%8F%E5%A4%B4%E8%BD%AC%E5%90%91/%E8%BD%AC%E7%A0%81%E7%B4%A0%E6%9D%90/20221211/A001R03K/A001C022_221211_R03K.mov</pathurl>
						<rate>
							<timebase>24</timebase>
						</rate>
						<duration>590</duration>
						<timecode>
							<rate>
								<timebase>24</timebase>
							</rate>
							<string>10:15:00:20</string>
							<frame>885620</frame>
							<displayformat>NDF</displayformat>
							<source>source</source>
							<reel>
								<name>A001R03K</name>
							</reel>
						</timecode>
						<media>
							<video>
								<duration>590</duration>
								<samplecharacteristics>
									<width>1920</width>
									<height>1080</height>
								</samplecharacteristics>
							</video>
							<audio>
								<samplecharacteristics>
									<samplerate>48000</samplerate>
									<depth>24</depth>
								</samplecharacteristics>
								<channelcount>1</channelcount>
							</audio>
							<audio>
								<samplecharacteristics>
									<samplerate>48000</samplerate>
									<depth>24</depth>
								</samplecharacteristics>
								<channelcount>1</channelcount>
							</audio>
							<audio>
								<samplecharacteristics>
									<samplerate>48000</samplerate>
									<depth>24</depth>
								</samplecharacteristics>
								<channelcount>1</channelcount>
							</audio>
						</media>
					</file>
					<sourcetrack>
						<mediatype>video</mediatype>
					</sourcetrack>
					<link>
						<linkclipref>010_01_04_A_归诚进OK</linkclipref>
						<mediatype>video</mediatype>
						<trackindex>1</trackindex>
						<clipindex>7</clipindex>
					</link>
					<link>
						<linkclipref>010_01_04_A_归诚进OK2</linkclipref>
						<mediatype>audio</mediatype>
						<trackindex>1</trackindex>
						<clipindex>7</clipindex>
					</link>
					<link>
						<linkclipref>010_01_04_A_归诚进OK3</linkclipref>
						<mediatype>audio</mediatype>
						<trackindex>2</trackindex>
						<clipindex>7</clipindex>
					</link>
					<link>
						<linkclipref>010_01_04_A_归诚进OK4</linkclipref>
						<mediatype>audio</mediatype>
						<trackindex>3</trackindex>
						<clipindex>7</clipindex>
					</link>
					<fielddominance>none</fielddominance>
					<itemhistory>
						<uuid>D0787965-73D4-4C52-BC6A-4D8084CF417F</uuid>
					</itemhistory>
				</clipitem>
				<clipitem id="010_01_04_B_归诚进OK">
					<name>010_01_04_B_归诚进OK</name>
					<duration>630</duration>
					<rate>
						<ntsc>FALSE</ntsc>
						<timebase>24</timebase>
					</rate>
					<in>241</in>
					<out>295</out>
					<start>3236</start>
					<end>3290</end>
					<pixelaspectratio>Square</pixelaspectratio>
					<enabled>TRUE</enabled>
					<anamorphic>FALSE</anamorphic>
					<alphatype>none</alphatype>
					<masterclipid>010_01_04_B_归诚进OK1</masterclipid>
					<logginginfo>
						<scene/>
						<shottake/>
						<lognote/>
						<good>FALSE</good>
					</logginginfo>
					<labels>
						<label2/>
					</labels>
					<comments>
						<mastercomment1/>
						<mastercomment2/>
						<mastercomment3/>
						<mastercomment4/>
					</comments>
					<file id="B001C009_130101_R1WX">
						<name>B001C009_130101_R1WX.mov</name>
						<pathurl>file://localhost/Volumes/%E3%80%8A%E6%98%8F%E5%A4%B4%E8%BD%AC%E5%90%91%E3%80%8B%20Editing/%E6%98%8F%E5%A4%B4%E8%BD%AC%E5%90%91/%E8%BD%AC%E7%A0%81%E7%B4%A0%E6%9D%90/20221211/B001R1WX/B001C009_130101_R1WX.mov</pathurl>
						<rate>
							<timebase>24</timebase>
						</rate>
						<duration>630</duration>
						<timecode>
							<rate>
								<timebase>24</timebase>
							</rate>
							<string>10:15:00:12</string>
							<frame>885612</frame>
							<displayformat>NDF</displayformat>
							<source>source</source>
							<reel>
								<name>B001R1WX</name>
							</reel>
						</timecode>
						<media>
							<video>
								<duration>630</duration>
								<samplecharacteristics>
									<width>1920</width>
									<height>1080</height>
								</samplecharacteristics>
							</video>
							<audio>
								<samplecharacteristics>
									<samplerate>48000</samplerate>
									<depth>24</depth>
								</samplecharacteristics>
								<channelcount>1</channelcount>
							</audio>
							<audio>
								<samplecharacteristics>
									<samplerate>48000</samplerate>
									<depth>24</depth>
								</samplecharacteristics>
								<channelcount>1</channelcount>
							</audio>
							<audio>
								<samplecharacteristics>
									<samplerate>48000</samplerate>
									<depth>24</depth>
								</samplecharacteristics>
								<channelcount>1</channelcount>
							</audio>
						</media>
					</file>
					<sourcetrack>
						<mediatype>video</mediatype>
					</sourcetrack>
					<link>
						<linkclipref>010_01_04_B_归诚进OK</linkclipref>
						<mediatype>video</mediatype>
						<trackindex>1</trackindex>
						<clipindex>8</clipindex>
					</link>
					<link>
						<linkclipref>010_01_04_B_归诚进OK2</linkclipref>
						<mediatype>audio</mediatype>
						<trackindex>1</trackindex>
						<clipindex>8</clipindex>
					</link>
					<link>
						<linkclipref>010_01_04_B_归诚进OK3</linkclipref>
						<mediatype>audio</mediatype>
						<trackindex>2</trackindex>
						<clipindex>8</clipindex>
					</link>
					<link>
						<linkclipref>010_01_04_B_归诚进OK4</linkclipref>
						<mediatype>audio</mediatype>
						<trackindex>3</trackindex>
						<clipindex>8</clipindex>
					</link>
					<fielddominance>none</fielddominance>
					<itemhistory>
						<uuid>74E49655-522F-4EC1-903B-6FEE51FB09A8</uuid>
					</itemhistory>
				</clipitem>
				<clipitem id="010_01_05_A_OK">
					<name>010_01_05_A_OK</name>
					<duration>625</duration>
					<rate>
						<ntsc>FALSE</ntsc>
						<timebase>24</timebase>
					</rate>
					<in>510</in>
					<out>550</out>
					<start>3290</start>
					<end>3330</end>
					<pixelaspectratio>Square</pixelaspectratio>
					<enabled>TRUE</enabled>
					<anamorphic>FALSE</anamorphic>
					<alphatype>none</alphatype>
					<masterclipid>010_01_05_A_OK1</masterclipid>
					<logginginfo>
						<scene/>
						<shottake/>
						<lognote/>
						<good>FALSE</good>
					</logginginfo>
					<labels>
						<label2/>
					</labels>
					<comments>
						<mastercomment1/>
						<mastercomment2/>
						<mastercomment3/>
						<mastercomment4/>
					</comments>
					<file id="A001C023_221211_R03K">
						<name>A001C023_221211_R03K.mov</name>
						<pathurl>file://localhost/Volumes/%E3%80%8A%E6%98%8F%E5%A4%B4%E8%BD%AC%E5%90%91%E3%80%8B%20Editing/%E6%98%8F%E5%A4%B4%E8%BD%AC%E5%90%91/%E8%BD%AC%E7%A0%81%E7%B4%A0%E6%9D%90/20221211/A001R03K/A001C023_221211_R03K.mov</pathurl>
						<rate>
							<timebase>24</timebase>
						</rate>
						<duration>625</duration>
						<timecode>
							<rate>
								<timebase>24</timebase>
							</rate>
							<string>10:16:33:02</string>
							<frame>887834</frame>
							<displayformat>NDF</displayformat>
							<source>source</source>
							<reel>
								<name>A001R03K</name>
							</reel>
						</timecode>
						<media>
							<video>
								<duration>625</duration>
								<samplecharacteristics>
									<width>1920</width>
									<height>1080</height>
								</samplecharacteristics>
							</video>
							<audio>
								<samplecharacteristics>
									<samplerate>48000</samplerate>
									<depth>24</depth>
								</samplecharacteristics>
								<channelcount>1</channelcount>
							</audio>
							<audio>
								<samplecharacteristics>
									<samplerate>48000</samplerate>
									<depth>24</depth>
								</samplecharacteristics>
								<channelcount>1</channelcount>
							</audio>
							<audio>
								<samplecharacteristics>
									<samplerate>48000</samplerate>
									<depth>24</depth>
								</samplecharacteristics>
								<channelcount>1</channelcount>
							</audio>
						</media>
					</file>
					<sourcetrack>
						<mediatype>video</mediatype>
					</sourcetrack>
					<link>
						<linkclipref>010_01_05_A_OK</linkclipref>
						<mediatype>video</mediatype>
						<trackindex>1</trackindex>
						<clipindex>9</clipindex>
					</link>
					<link>
						<linkclipref>010_01_05_A_OK2</linkclipref>
						<mediatype>audio</mediatype>
						<trackindex>1</trackindex>
						<clipindex>9</clipindex>
					</link>
					<link>
						<linkclipref>010_01_05_A_OK3</linkclipref>
						<mediatype>audio</mediatype>
						<trackindex>2</trackindex>
						<clipindex>9</clipindex>
					</link>
					<link>
						<linkclipref>010_01_05_A_OK4</linkclipref>
						<mediatype>audio</mediatype>
						<trackindex>3</trackindex>
						<clipindex>9</clipindex>
					</link>
					<fielddominance>none</fielddominance>
					<itemhistory>
						<uuid>A0502E8F-35E7-4B0B-8782-6CF6804FFAD1</uuid>
					</itemhistory>
				</clipitem>
				<clipitem id="010_01_05_B_OK">
					<name>010_01_05_B_OK</name>
					<duration>658</duration>
					<rate>
						<ntsc>FALSE</ntsc>
						<timebase>24</timebase>
					</rate>
					<in>502</in>
					<out>553</out>
					<start>3330</start>
					<end>3381</end>
					<pixelaspectratio>Square</pixelaspectratio>
					<enabled>TRUE</enabled>
					<anamorphic>FALSE</anamorphic>
					<alphatype>none</alphatype>
					<masterclipid>010_01_05_B_OK1</masterclipid>
					<logginginfo>
						<scene/>
						<shottake/>
						<lognote/>
						<good>FALSE</good>
					</logginginfo>
					<labels>
						<label2/>
					</labels>
					<comments>
						<mastercomment1/>
						<mastercomment2/>
						<mastercomment3/>
						<mastercomment4/>
					</comments>
					<file id="B001C010_130101_R1WX">
						<name>B001C010_130101_R1WX.mov</name>
						<pathurl>file://localhost/Volumes/%E3%80%8A%E6%98%8F%E5%A4%B4%E8%BD%AC%E5%90%91%E3%80%8B%20Editing/%E6%98%8F%E5%A4%B4%E8%BD%AC%E5%90%91/%E8%BD%AC%E7%A0%81%E7%B4%A0%E6%9D%90/20221211/B001R1WX/B001C010_130101_R1WX.mov</pathurl>
						<rate>
							<timebase>24</timebase>
						</rate>
						<duration>658</duration>
						<timecode>
							<rate>
								<timebase>24</timebase>
							</rate>
							<string>10:16:32:04</string>
							<frame>887812</frame>
							<displayformat>NDF</displayformat>
							<source>source</source>
							<reel>
								<name>B001R1WX</name>
							</reel>
						</timecode>
						<media>
							<video>
								<duration>658</duration>
								<samplecharacteristics>
									<width>1920</width>
									<height>1080</height>
								</samplecharacteristics>
							</video>
							<audio>
								<samplecharacteristics>
									<samplerate>48000</samplerate>
									<depth>24</depth>
								</samplecharacteristics>
								<channelcount>1</channelcount>
							</audio>
							<audio>
								<samplecharacteristics>
									<samplerate>48000</samplerate>
									<depth>24</depth>
								</samplecharacteristics>
								<channelcount>1</channelcount>
							</audio>
							<audio>
								<samplecharacteristics>
									<samplerate>48000</samplerate>
									<depth>24</depth>
								</samplecharacteristics>
								<channelcount>1</channelcount>
							</audio>
						</media>
					</file>
					<sourcetrack>
						<mediatype>video</mediatype>
					</sourcetrack>
					<link>
						<linkclipref>010_01_05_B_OK</linkclipref>
						<mediatype>video</mediatype>
						<trackindex>1</trackindex>
						<clipindex>10</clipindex>
					</link>
					<link>
						<linkclipref>010_01_05_B_OK2</linkclipref>
						<mediatype>audio</mediatype>
						<trackindex>1</trackindex>
						<clipindex>10</clipindex>
					</link>
					<link>
						<linkclipref>010_01_05_B_OK3</linkclipref>
						<mediatype>audio</mediatype>
						<trackindex>2</trackindex>
						<clipindex>10</clipindex>
					</link>
					<link>
						<linkclipref>010_01_05_B_OK4</linkclipref>
						<mediatype>audio</mediatype>
						<trackindex>3</trackindex>
						<clipindex>10</clipindex>
					</link>
					<fielddominance>none</fielddominance>
					<itemhistory>
						<uuid>05768625-4C81-4397-A65C-1A5C9A95D237</uuid>
					</itemhistory>
				</clipitem>
				<clipitem id="010_02_01_A">
					<name>010_02_01_A</name>
					<duration>488</duration>
					<rate>
						<ntsc>FALSE</ntsc>
						<timebase>24</timebase>
					</rate>
					<in>0</in>
					<out>488</out>
					<start>3381</start>
					<end>3869</end>
					<pixelaspectratio>Square</pixelaspectratio>
					<enabled>TRUE</enabled>
					<anamorphic>FALSE</anamorphic>
					<alphatype>none</alphatype>
					<masterclipid>010_02_01_A1</masterclipid>
					<logginginfo>
						<scene/>
						<shottake/>
						<lognote/>
						<good>FALSE</good>
					</logginginfo>
					<labels>
						<label2/>
					</labels>
					<comments>
						<mastercomment1/>
						<mastercomment2/>
						<mastercomment3/>
						<mastercomment4/>
					</comments>
					<file id="A001C024_221211_R03K">
						<name>A001C024_221211_R03K.mov</name>
						<pathurl>file://localhost/Volumes/%E3%80%8A%E6%98%8F%E5%A4%B4%E8%BD%AC%E5%90%91%E3%80%8B%20Editing/%E6%98%8F%E5%A4%B4%E8%BD%AC%E5%90%91/%E8%BD%AC%E7%A0%81%E7%B4%A0%E6%9D%90/20221211/A001R03K/A001C024_221211_R03K.mov</pathurl>
						<rate>
							<timebase>24</timebase>
						</rate>
						<duration>488</duration>
						<timecode>
							<rate>
								<timebase>24</timebase>
							</rate>
							<string>10:26:40:15</string>
							<frame>902415</frame>
							<displayformat>NDF</displayformat>
							<source>source</source>
							<reel>
								<name>A001R03K</name>
							</reel>
						</timecode>
						<media>
							<video>
								<duration>488</duration>
								<samplecharacteristics>
									<width>1920</width>
									<height>1080</height>
								</samplecharacteristics>
							</video>
							<audio>
								<samplecharacteristics>
									<samplerate>48000</samplerate>
									<depth>24</depth>
								</samplecharacteristics>
								<channelcount>1</channelcount>
							</audio>
							<audio>
								<samplecharacteristics>
									<samplerate>48000</samplerate>
									<depth>24</depth>
								</samplecharacteristics>
								<channelcount>1</channelcount>
							</audio>
							<audio>
								<samplecharacteristics>
									<samplerate>48000</samplerate>
									<depth>24</depth>
								</samplecharacteristics>
								<channelcount>1</channelcount>
							</audio>
							<audio>
								<samplecharacteristics>
									<samplerate>48000</samplerate>
									<depth>24</depth>
								</samplecharacteristics>
								<channelcount>1</channelcount>
							</audio>
						</media>
					</file>
					<sourcetrack>
						<mediatype>video</mediatype>
					</sourcetrack>
					<link>
						<linkclipref>010_02_01_A</linkclipref>
						<mediatype>video</mediatype>
						<trackindex>1</trackindex>
						<clipindex>11</clipindex>
					</link>
					<link>
						<linkclipref>010_02_01_A2</linkclipref>
						<mediatype>audio</mediatype>
						<trackindex>1</trackindex>
						<clipindex>11</clipindex>
					</link>
					<link>
						<linkclipref>010_02_01_A3</linkclipref>
						<mediatype>audio</mediatype>
						<trackindex>2</trackindex>
						<clipindex>11</clipindex>
					</link>
					<link>
						<linkclipref>010_02_01_A4</linkclipref>
						<mediatype>audio</mediatype>
						<trackindex>3</trackindex>
						<clipindex>11</clipindex>
					</link>
					<link>
						<linkclipref>010_02_01_A5</linkclipref>
						<mediatype>audio</mediatype>
						<trackindex>4</trackindex>
						<clipindex>5</clipindex>
					</link>
					<fielddominance>none</fielddominance>
					<itemhistory>
						<uuid>2399ED22-B3E9-400A-B943-6444EC8AF419</uuid>
					</itemhistory>
				</clipitem>
				<clipitem id="010_02_02_A_OK">
					<name>010_02_02_A_OK</name>
					<duration>459</duration>
					<rate>
						<ntsc>FALSE</ntsc>
						<timebase>24</timebase>
					</rate>
					<in>173</in>
					<out>251</out>
					<start>3869</start>
					<end>3947</end>
					<pixelaspectratio>Square</pixelaspectratio>
					<enabled>TRUE</enabled>
					<anamorphic>FALSE</anamorphic>
					<alphatype>none</alphatype>
					<masterclipid>010_02_02_A_OK1</masterclipid>
					<logginginfo>
						<scene/>
						<shottake/>
						<lognote/>
						<good>FALSE</good>
					</logginginfo>
					<labels>
						<label2/>
					</labels>
					<comments>
						<mastercomment1/>
						<mastercomment2/>
						<mastercomment3/>
						<mastercomment4/>
					</comments>
					<file id="A001C025_221211_R03K">
						<name>A001C025_221211_R03K.mov</name>
						<pathurl>file://localhost/Volumes/%E3%80%8A%E6%98%8F%E5%A4%B4%E8%BD%AC%E5%90%91%E3%80%8B%20Editing/%E6%98%8F%E5%A4%B4%E8%BD%AC%E5%90%91/%E8%BD%AC%E7%A0%81%E7%B4%A0%E6%9D%90/20221211/A001R03K/A001C025_221211_R03K.mov</pathurl>
						<rate>
							<timebase>24</timebase>
						</rate>
						<duration>459</duration>
						<timecode>
							<rate>
								<timebase>24</timebase>
							</rate>
							<string>10:29:19:08</string>
							<frame>906224</frame>
							<displayformat>NDF</displayformat>
							<source>source</source>
							<reel>
								<name>A001R03K</name>
							</reel>
						</timecode>
						<media>
							<video>
								<duration>459</duration>
								<samplecharacteristics>
									<width>1920</width>
									<height>1080</height>
								</samplecharacteristics>
							</video>
							<audio>
								<samplecharacteristics>
									<samplerate>48000</samplerate>
									<depth>24</depth>
								</samplecharacteristics>
								<channelcount>1</channelcount>
							</audio>
							<audio>
								<samplecharacteristics>
									<samplerate>48000</samplerate>
									<depth>24</depth>
								</samplecharacteristics>
								<channelcount>1</channelcount>
							</audio>
							<audio>
								<samplecharacteristics>
									<samplerate>48000</samplerate>
									<depth>24</depth>
								</samplecharacteristics>
								<channelcount>1</channelcount>
							</audio>
							<audio>
								<samplecharacteristics>
									<samplerate>48000</samplerate>
									<depth>24</depth>
								</samplecharacteristics>
								<channelcount>1</channelcount>
							</audio>
						</media>
					</file>
					<sourcetrack>
						<mediatype>video</mediatype>
					</sourcetrack>
					<link>
						<linkclipref>010_02_02_A_OK</linkclipref>
						<mediatype>video</mediatype>
						<trackindex>1</trackindex>
						<clipindex>12</clipindex>
					</link>
					<link>
						<linkclipref>010_02_02_A_OK2</linkclipref>
						<mediatype>audio</mediatype>
						<trackindex>1</trackindex>
						<clipindex>12</clipindex>
					</link>
					<link>
						<linkclipref>010_02_02_A_OK3</linkclipref>
						<mediatype>audio</mediatype>
						<trackindex>2</trackindex>
						<clipindex>12</clipindex>
					</link>
					<link>
						<linkclipref>010_02_02_A_OK4</linkclipref>
						<mediatype>audio</mediatype>
						<trackindex>3</trackindex>
						<clipindex>12</clipindex>
					</link>
					<link>
						<linkclipref>010_02_02_A_OK5</linkclipref>
						<mediatype>audio</mediatype>
						<trackindex>4</trackindex>
						<clipindex>6</clipindex>
					</link>
					<fielddominance>none</fielddominance>
					<itemhistory>
						<uuid>A58B4A46-CE61-48F7-A3AF-40D04E712889</uuid>
					</itemhistory>
				</clipitem>
				<clipitem id="010_03_01_B">
					<name>010_03_01_B</name>
					<duration>443</duration>
					<rate>
						<ntsc>FALSE</ntsc>
						<timebase>24</timebase>
					</rate>
					<in>0</in>
					<out>443</out>
					<start>3947</start>
					<end>4390</end>
					<pixelaspectratio>Square</pixelaspectratio>
					<enabled>TRUE</enabled>
					<anamorphic>FALSE</anamorphic>
					<alphatype>none</alphatype>
					<masterclipid>010_03_01_B1</masterclipid>
					<logginginfo>
						<scene/>
						<shottake/>
						<lognote/>
						<good>FALSE</good>
					</logginginfo>
					<labels>
						<label2/>
					</labels>
					<comments>
						<mastercomment1/>
						<mastercomment2/>
						<mastercomment3/>
						<mastercomment4/>
					</comments>
					<file id="B001C011_130101_R1WX">
						<name>B001C011_130101_R1WX.mov</name>
						<pathurl>file://localhost/Volumes/%E3%80%8A%E6%98%8F%E5%A4%B4%E8%BD%AC%E5%90%91%E3%80%8B%20Editing/%E6%98%8F%E5%A4%B4%E8%BD%AC%E5%90%91/%E8%BD%AC%E7%A0%81%E7%B4%A0%E6%9D%90/20221211/B001R1WX/B001C011_130101_R1WX.mov</pathurl>
						<rate>
							<timebase>24</timebase>
						</rate>
						<duration>443</duration>
						<timecode>
							<rate>
								<timebase>24</timebase>
							</rate>
							<string>10:39:10:16</string>
							<frame>920416</frame>
							<displayformat>NDF</displayformat>
							<source>source</source>
							<reel>
								<name>B001R1WX</name>
							</reel>
						</timecode>
						<media>
							<video>
								<duration>443</duration>
								<samplecharacteristics>
									<width>1920</width>
									<height>1080</height>
								</samplecharacteristics>
							</video>
							<audio>
								<samplecharacteristics>
									<samplerate>48000</samplerate>
									<depth>24</depth>
								</samplecharacteristics>
								<channelcount>1</channelcount>
							</audio>
							<audio>
								<samplecharacteristics>
									<samplerate>48000</samplerate>
									<depth>24</depth>
								</samplecharacteristics>
								<channelcount>1</channelcount>
							</audio>
							<audio>
								<samplecharacteristics>
									<samplerate>48000</samplerate>
									<depth>24</depth>
								</samplecharacteristics>
								<channelcount>1</channelcount>
							</audio>
						</media>
					</file>
					<sourcetrack>
						<mediatype>video</mediatype>
					</sourcetrack>
					<link>
						<linkclipref>010_03_01_B</linkclipref>
						<mediatype>video</mediatype>
						<trackindex>1</trackindex>
						<clipindex>13</clipindex>
					</link>
					<link>
						<linkclipref>010_03_01_B2</linkclipref>
						<mediatype>audio</mediatype>
						<trackindex>1</trackindex>
						<clipindex>13</clipindex>
					</link>
					<link>
						<linkclipref>010_03_01_B3</linkclipref>
						<mediatype>audio</mediatype>
						<trackindex>2</trackindex>
						<clipindex>13</clipindex>
					</link>
					<link>
						<linkclipref>010_03_01_B4</linkclipref>
						<mediatype>audio</mediatype>
						<trackindex>3</trackindex>
						<clipindex>13</clipindex>
					</link>
					<fielddominance>none</fielddominance>
					<itemhistory>
						<uuid>B273DD46-8392-41C0-9338-DD4273EBC097</uuid>
					</itemhistory>
				</clipitem>
				<clipitem id="010_03_02_B_KP">
					<name>010_03_02_B_KP</name>
					<duration>412</duration>
					<rate>
						<ntsc>FALSE</ntsc>
						<timebase>24</timebase>
					</rate>
					<in>0</in>
					<out>412</out>
					<start>4390</start>
					<end>4802</end>
					<pixelaspectratio>Square</pixelaspectratio>
					<enabled>TRUE</enabled>
					<anamorphic>FALSE</anamorphic>
					<alphatype>none</alphatype>
					<masterclipid>010_03_02_B_KP1</masterclipid>
					<logginginfo>
						<scene/>
						<shottake/>
						<lognote/>
						<good>FALSE</good>
					</logginginfo>
					<labels>
						<label2/>
					</labels>
					<comments>
						<mastercomment1/>
						<mastercomment2/>
						<mastercomment3/>
						<mastercomment4/>
					</comments>
					<file id="B001C012_130101_R1WX">
						<name>B001C012_130101_R1WX.mov</name>
						<pathurl>file://localhost/Volumes/%E3%80%8A%E6%98%8F%E5%A4%B4%E8%BD%AC%E5%90%91%E3%80%8B%20Editing/%E6%98%8F%E5%A4%B4%E8%BD%AC%E5%90%91/%E8%BD%AC%E7%A0%81%E7%B4%A0%E6%9D%90/20221211/B001R1WX/B001C012_130101_R1WX.mov</pathurl>
						<rate>
							<timebase>24</timebase>
						</rate>
						<duration>412</duration>
						<timecode>
							<rate>
								<timebase>24</timebase>
							</rate>
							<string>10:40:05:05</string>
							<frame>921725</frame>
							<displayformat>NDF</displayformat>
							<source>source</source>
							<reel>
								<name>B001R1WX</name>
							</reel>
						</timecode>
						<media>
							<video>
								<duration>412</duration>
								<samplecharacteristics>
									<width>1920</width>
									<height>1080</height>
								</samplecharacteristics>
							</video>
							<audio>
								<samplecharacteristics>
									<samplerate>48000</samplerate>
									<depth>24</depth>
								</samplecharacteristics>
								<channelcount>1</channelcount>
							</audio>
							<audio>
								<samplecharacteristics>
									<samplerate>48000</samplerate>
									<depth>24</depth>
								</samplecharacteristics>
								<channelcount>1</channelcount>
							</audio>
							<audio>
								<samplecharacteristics>
									<samplerate>48000</samplerate>
									<depth>24</depth>
								</samplecharacteristics>
								<channelcount>1</channelcount>
							</audio>
						</media>
					</file>
					<sourcetrack>
						<mediatype>video</mediatype>
					</sourcetrack>
					<link>
						<linkclipref>010_03_02_B_KP</linkclipref>
						<mediatype>video</mediatype>
						<trackindex>1</trackindex>
						<clipindex>14</clipindex>
					</link>
					<link>
						<linkclipref>010_03_02_B_KP2</linkclipref>
						<mediatype>audio</mediatype>
						<trackindex>1</trackindex>
						<clipindex>14</clipindex>
					</link>
					<link>
						<linkclipref>010_03_02_B_KP3</linkclipref>
						<mediatype>audio</mediatype>
						<trackindex>2</trackindex>
						<clipindex>14</clipindex>
					</link>
					<link>
						<linkclipref>010_03_02_B_KP4</linkclipref>
						<mediatype>audio</mediatype>
						<trackindex>3</trackindex>
						<clipindex>14</clipindex>
					</link>
					<fielddominance>none</fielddominance>
					<itemhistory>
						<uuid>FEF1C235-6E51-4D02-A39B-3B8148BC6432</uuid>
					</itemhistory>
				</clipitem>
				<clipitem id="010_03_03_B_KP">
					<name>010_03_03_B_KP</name>
					<duration>397</duration>
					<rate>
						<ntsc>FALSE</ntsc>
						<timebase>24</timebase>
					</rate>
					<in>0</in>
					<out>397</out>
					<start>4802</start>
					<end>5199</end>
					<pixelaspectratio>Square</pixelaspectratio>
					<enabled>TRUE</enabled>
					<anamorphic>FALSE</anamorphic>
					<alphatype>none</alphatype>
					<masterclipid>010_03_03_B_KP1</masterclipid>
					<logginginfo>
						<scene/>
						<shottake/>
						<lognote/>
						<good>FALSE</good>
					</logginginfo>
					<labels>
						<label2/>
					</labels>
					<comments>
						<mastercomment1/>
						<mastercomment2/>
						<mastercomment3/>
						<mastercomment4/>
					</comments>
					<file id="B001C013_130101_R1WX">
						<name>B001C013_130101_R1WX.mov</name>
						<pathurl>file://localhost/Volumes/%E3%80%8A%E6%98%8F%E5%A4%B4%E8%BD%AC%E5%90%91%E3%80%8B%20Editing/%E6%98%8F%E5%A4%B4%E8%BD%AC%E5%90%91/%E8%BD%AC%E7%A0%81%E7%B4%A0%E6%9D%90/20221211/B001R1WX/B001C013_130101_R1WX.mov</pathurl>
						<rate>
							<timebase>24</timebase>
						</rate>
						<duration>397</duration>
						<timecode>
							<rate>
								<timebase>24</timebase>
							</rate>
							<string>10:42:28:06</string>
							<frame>925158</frame>
							<displayformat>NDF</displayformat>
							<source>source</source>
							<reel>
								<name>B001R1WX</name>
							</reel>
						</timecode>
						<media>
							<video>
								<duration>397</duration>
								<samplecharacteristics>
									<width>1920</width>
									<height>1080</height>
								</samplecharacteristics>
							</video>
							<audio>
								<samplecharacteristics>
									<samplerate>48000</samplerate>
									<depth>24</depth>
								</samplecharacteristics>
								<channelcount>1</channelcount>
							</audio>
							<audio>
								<samplecharacteristics>
									<samplerate>48000</samplerate>
									<depth>24</depth>
								</samplecharacteristics>
								<channelcount>1</channelcount>
							</audio>
							<audio>
								<samplecharacteristics>
									<samplerate>48000</samplerate>
									<depth>24</depth>
								</samplecharacteristics>
								<channelcount>1</channelcount>
							</audio>
						</media>
					</file>
					<sourcetrack>
						<mediatype>video</mediatype>
					</sourcetrack>
					<link>
						<linkclipref>010_03_03_B_KP</linkclipref>
						<mediatype>video</mediatype>
						<trackindex>1</trackindex>
						<clipindex>15</clipindex>
					</link>
					<link>
						<linkclipref>010_03_03_B_KP2</linkclipref>
						<mediatype>audio</mediatype>
						<trackindex>1</trackindex>
						<clipindex>15</clipindex>
					</link>
					<link>
						<linkclipref>010_03_03_B_KP3</linkclipref>
						<mediatype>audio</mediatype>
						<trackindex>2</trackindex>
						<clipindex>15</clipindex>
					</link>
					<link>
						<linkclipref>010_03_03_B_KP4</linkclipref>
						<mediatype>audio</mediatype>
						<trackindex>3</trackindex>
						<clipindex>15</clipindex>
					</link>
					<fielddominance>none</fielddominance>
					<itemhistory>
						<uuid>977148CF-6369-4CBA-836E-366235CB0949</uuid>
					</itemhistory>
				</clipitem>
				<clipitem id="010_03_04_B_KP">
					<name>010_03_04_B_KP</name>
					<duration>442</duration>
					<rate>
						<ntsc>FALSE</ntsc>
						<timebase>24</timebase>
					</rate>
					<in>172</in>
					<out>210</out>
					<start>5199</start>
					<end>5237</end>
					<pixelaspectratio>Square</pixelaspectratio>
					<enabled>TRUE</enabled>
					<anamorphic>FALSE</anamorphic>
					<alphatype>none</alphatype>
					<masterclipid>010_03_04_B_KP1</masterclipid>
					<logginginfo>
						<scene/>
						<shottake/>
						<lognote/>
						<good>FALSE</good>
					</logginginfo>
					<labels>
						<label2/>
					</labels>
					<comments>
						<mastercomment1/>
						<mastercomment2/>
						<mastercomment3/>
						<mastercomment4/>
					</comments>
					<file id="B001C014_130101_R1WX">
						<name>B001C014_130101_R1WX.mov</name>
						<pathurl>file://localhost/Volumes/%E3%80%8A%E6%98%8F%E5%A4%B4%E8%BD%AC%E5%90%91%E3%80%8B%20Editing/%E6%98%8F%E5%A4%B4%E8%BD%AC%E5%90%91/%E8%BD%AC%E7%A0%81%E7%B4%A0%E6%9D%90/20221211/B001R1WX/B001C014_130101_R1WX.mov</pathurl>
						<rate>
							<timebase>24</timebase>
						</rate>
						<duration>442</duration>
						<timecode>
							<rate>
								<timebase>24</timebase>
							</rate>
							<string>10:43:21:02</string>
							<frame>926426</frame>
							<displayformat>NDF</displayformat>
							<source>source</source>
							<reel>
								<name>B001R1WX</name>
							</reel>
						</timecode>
						<media>
							<video>
								<duration>442</duration>
								<samplecharacteristics>
									<width>1920</width>
									<height>1080</height>
								</samplecharacteristics>
							</video>
							<audio>
								<samplecharacteristics>
									<samplerate>48000</samplerate>
									<depth>24</depth>
								</samplecharacteristics>
								<channelcount>1</channelcount>
							</audio>
							<audio>
								<samplecharacteristics>
									<samplerate>48000</samplerate>
									<depth>24</depth>
								</samplecharacteristics>
								<channelcount>1</channelcount>
							</audio>
							<audio>
								<samplecharacteristics>
									<samplerate>48000</samplerate>
									<depth>24</depth>
								</samplecharacteristics>
								<channelcount>1</channelcount>
							</audio>
						</media>
					</file>
					<sourcetrack>
						<mediatype>video</mediatype>
					</sourcetrack>
					<link>
						<linkclipref>010_03_04_B_KP</linkclipref>
						<mediatype>video</mediatype>
						<trackindex>1</trackindex>
						<clipindex>16</clipindex>
					</link>
					<link>
						<linkclipref>010_03_04_B_KP2</linkclipref>
						<mediatype>audio</mediatype>
						<trackindex>1</trackindex>
						<clipindex>16</clipindex>
					</link>
					<link>
						<linkclipref>010_03_04_B_KP3</linkclipref>
						<mediatype>audio</mediatype>
						<trackindex>2</trackindex>
						<clipindex>16</clipindex>
					</link>
					<link>
						<linkclipref>010_03_04_B_KP4</linkclipref>
						<mediatype>audio</mediatype>
						<trackindex>3</trackindex>
						<clipindex>16</clipindex>
					</link>
					<fielddominance>none</fielddominance>
					<itemhistory>
						<uuid>71DEA769-B84D-40E6-8C9D-D236479ACC1A</uuid>
					</itemhistory>
				</clipitem>
				<clipitem id="010_04_01_B">
					<name>010_04_01_B</name>
					<duration>271</duration>
					<rate>
						<ntsc>FALSE</ntsc>
						<timebase>24</timebase>
					</rate>
					<in>0</in>
					<out>271</out>
					<start>5237</start>
					<end>5508</end>
					<pixelaspectratio>Square</pixelaspectratio>
					<enabled>TRUE</enabled>
					<anamorphic>FALSE</anamorphic>
					<alphatype>none</alphatype>
					<masterclipid>010_04_01_B1</masterclipid>
					<logginginfo>
						<scene/>
						<shottake/>
						<lognote/>
						<good>FALSE</good>
					</logginginfo>
					<labels>
						<label2/>
					</labels>
					<comments>
						<mastercomment1/>
						<mastercomment2/>
						<mastercomment3/>
						<mastercomment4/>
					</comments>
					<file id="B001C015_130101_R1WX">
						<name>B001C015_130101_R1WX.mov</name>
						<pathurl>file://localhost/Volumes/%E3%80%8A%E6%98%8F%E5%A4%B4%E8%BD%AC%E5%90%91%E3%80%8B%20Editing/%E6%98%8F%E5%A4%B4%E8%BD%AC%E5%90%91/%E8%BD%AC%E7%A0%81%E7%B4%A0%E6%9D%90/20221211/B001R1WX/B001C015_130101_R1WX.mov</pathurl>
						<rate>
							<timebase>24</timebase>
						</rate>
						<duration>271</duration>
						<timecode>
							<rate>
								<timebase>24</timebase>
							</rate>
							<string>10:51:07:01</string>
							<frame>937609</frame>
							<displayformat>NDF</displayformat>
							<source>source</source>
							<reel>
								<name>B001R1WX</name>
							</reel>
						</timecode>
						<media>
							<video>
								<duration>271</duration>
								<samplecharacteristics>
									<width>1920</width>
									<height>1080</height>
								</samplecharacteristics>
							</video>
							<audio>
								<samplecharacteristics>
									<samplerate>48000</samplerate>
									<depth>24</depth>
								</samplecharacteristics>
								<channelcount>2</channelcount>
							</audio>
						</media>
					</file>
					<sourcetrack>
						<mediatype>video</mediatype>
					</sourcetrack>
					<link>
						<linkclipref>010_04_01_B</linkclipref>
						<mediatype>video</mediatype>
						<trackindex>1</trackindex>
						<clipindex>17</clipindex>
					</link>
					<link>
						<linkclipref>010_04_01_B2</linkclipref>
						<mediatype>audio</mediatype>
						<trackindex>1</trackindex>
						<clipindex>17</clipindex>
						<groupindex>1</groupindex>
					</link>
					<link>
						<linkclipref>010_04_01_B3</linkclipref>
						<mediatype>audio</mediatype>
						<trackindex>2</trackindex>
						<clipindex>17</clipindex>
						<groupindex>1</groupindex>
					</link>
					<fielddominance>none</fielddominance>
					<itemhistory>
						<uuid>CA3AADA9-6ED3-458E-AF45-F30D8C8B1C09</uuid>
					</itemhistory>
				</clipitem>
				<clipitem id="010_04_02_B_OK">
					<name>010_04_02_B_OK</name>
					<duration>296</duration>
					<rate>
						<ntsc>FALSE</ntsc>
						<timebase>24</timebase>
					</rate>
					<in>89</in>
					<out>159</out>
					<start>5508</start>
					<end>5578</end>
					<pixelaspectratio>Square</pixelaspectratio>
					<enabled>TRUE</enabled>
					<anamorphic>FALSE</anamorphic>
					<alphatype>none</alphatype>
					<masterclipid>010_04_02_B_OK1</masterclipid>
					<logginginfo>
						<scene/>
						<shottake/>
						<lognote/>
						<good>FALSE</good>
					</logginginfo>
					<labels>
						<label2/>
					</labels>
					<comments>
						<mastercomment1/>
						<mastercomment2/>
						<mastercomment3/>
						<mastercomment4/>
					</comments>
					<file id="B001C016_130101_R1WX">
						<name>B001C016_130101_R1WX.mov</name>
						<pathurl>file://localhost/Volumes/%E3%80%8A%E6%98%8F%E5%A4%B4%E8%BD%AC%E5%90%91%E3%80%8B%20Editing/%E6%98%8F%E5%A4%B4%E8%BD%AC%E5%90%91/%E8%BD%AC%E7%A0%81%E7%B4%A0%E6%9D%90/20221211/B001R1WX/B001C016_130101_R1WX.mov</pathurl>
						<rate>
							<timebase>24</timebase>
						</rate>
						<duration>296</duration>
						<timecode>
							<rate>
								<timebase>24</timebase>
							</rate>
							<string>10:51:43:11</string>
							<frame>938483</frame>
							<displayformat>NDF</displayformat>
							<source>source</source>
							<reel>
								<name>B001R1WX</name>
							</reel>
						</timecode>
						<media>
							<video>
								<duration>296</duration>
								<samplecharacteristics>
									<width>1920</width>
									<height>1080</height>
								</samplecharacteristics>
							</video>
							<audio>
								<samplecharacteristics>
									<samplerate>48000</samplerate>
									<depth>24</depth>
								</samplecharacteristics>
								<channelcount>2</channelcount>
							</audio>
						</media>
					</file>
					<sourcetrack>
						<mediatype>video</mediatype>
					</sourcetrack>
					<link>
						<linkclipref>010_04_02_B_OK</linkclipref>
						<mediatype>video</mediatype>
						<trackindex>1</trackindex>
						<clipindex>18</clipindex>
					</link>
					<link>
						<linkclipref>010_04_02_B_OK2</linkclipref>
						<mediatype>audio</mediatype>
						<trackindex>1</trackindex>
						<clipindex>18</clipindex>
						<groupindex>1</groupindex>
					</link>
					<link>
						<linkclipref>010_04_02_B_OK3</linkclipref>
						<mediatype>audio</mediatype>
						<trackindex>2</trackindex>
						<clipindex>18</clipindex>
						<groupindex>1</groupindex>
					</link>
					<fielddominance>none</fielddominance>
					<itemhistory>
						<uuid>B9FF7CAC-DB1A-42A5-BC21-3629D0D6CCCA</uuid>
					</itemhistory>
				</clipitem>
				<clipitem id="010_05_01_A">
					<name>010_05_01_A</name>
					<duration>1054</duration>
					<rate>
						<ntsc>FALSE</ntsc>
						<timebase>24</timebase>
					</rate>
					<in>0</in>
					<out>1054</out>
					<start>5578</start>
					<end>6632</end>
					<pixelaspectratio>Square</pixelaspectratio>
					<enabled>TRUE</enabled>
					<anamorphic>FALSE</anamorphic>
					<alphatype>none</alphatype>
					<masterclipid>010_05_01_A1</masterclipid>
					<logginginfo>
						<scene/>
						<shottake/>
						<lognote/>
						<good>FALSE</good>
					</logginginfo>
					<labels>
						<label2/>
					</labels>
					<comments>
						<mastercomment1/>
						<mastercomment2/>
						<mastercomment3/>
						<mastercomment4/>
					</comments>
					<file id="A001C026_221211_R03K">
						<name>A001C026_221211_R03K.mov</name>
						<pathurl>file://localhost/Volumes/%E3%80%8A%E6%98%8F%E5%A4%B4%E8%BD%AC%E5%90%91%E3%80%8B%20Editing/%E6%98%8F%E5%A4%B4%E8%BD%AC%E5%90%91/%E8%BD%AC%E7%A0%81%E7%B4%A0%E6%9D%90/20221211/A001R03K/A001C026_221211_R03K.mov</pathurl>
						<rate>
							<timebase>24</timebase>
						</rate>
						<duration>1054</duration>
						<timecode>
							<rate>
								<timebase>24</timebase>
							</rate>
							<string>11:13:23:09</string>
							<frame>969681</frame>
							<displayformat>NDF</displayformat>
							<source>source</source>
							<reel>
								<name>A001R03K</name>
							</reel>
						</timecode>
						<media>
							<video>
								<duration>1054</duration>
								<samplecharacteristics>
									<width>1920</width>
									<height>1080</height>
								</samplecharacteristics>
							</video>
							<audio>
								<samplecharacteristics>
									<samplerate>48000</samplerate>
									<depth>24</depth>
								</samplecharacteristics>
								<channelcount>1</channelcount>
							</audio>
							<audio>
								<samplecharacteristics>
									<samplerate>48000</samplerate>
									<depth>24</depth>
								</samplecharacteristics>
								<channelcount>1</channelcount>
							</audio>
							<audio>
								<samplecharacteristics>
									<samplerate>48000</samplerate>
									<depth>24</depth>
								</samplecharacteristics>
								<channelcount>1</channelcount>
							</audio>
							<audio>
								<samplecharacteristics>
									<samplerate>48000</samplerate>
									<depth>24</depth>
								</samplecharacteristics>
								<channelcount>1</channelcount>
							</audio>
						</media>
					</file>
					<sourcetrack>
						<mediatype>video</mediatype>
					</sourcetrack>
					<link>
						<linkclipref>010_05_01_A</linkclipref>
						<mediatype>video</mediatype>
						<trackindex>1</trackindex>
						<clipindex>19</clipindex>
					</link>
					<link>
						<linkclipref>010_05_01_A2</linkclipref>
						<mediatype>audio</mediatype>
						<trackindex>1</trackindex>
						<clipindex>19</clipindex>
					</link>
					<link>
						<linkclipref>010_05_01_A3</linkclipref>
						<mediatype>audio</mediatype>
						<trackindex>2</trackindex>
						<clipindex>19</clipindex>
					</link>
					<link>
						<linkclipref>010_05_01_A4</linkclipref>
						<mediatype>audio</mediatype>
						<trackindex>3</trackindex>
						<clipindex>17</clipindex>
					</link>
					<link>
						<linkclipref>010_05_01_A5</linkclipref>
						<mediatype>audio</mediatype>
						<trackindex>4</trackindex>
						<clipindex>7</clipindex>
					</link>
					<fielddominance>none</fielddominance>
					<itemhistory>
						<uuid>390B5898-71B6-4333-A4A8-02C1D12C76CA</uuid>
					</itemhistory>
				</clipitem>
				<clipitem id="010_05_01_B">
					<name>010_05_01_B</name>
					<duration>1017</duration>
					<rate>
						<ntsc>FALSE</ntsc>
						<timebase>24</timebase>
					</rate>
					<in>0</in>
					<out>1017</out>
					<start>6632</start>
					<end>7649</end>
					<pixelaspectratio>Square</pixelaspectratio>
					<enabled>TRUE</enabled>
					<anamorphic>FALSE</anamorphic>
					<alphatype>none</alphatype>
					<masterclipid>010_05_01_B1</masterclipid>
					<logginginfo>
						<scene/>
						<shottake/>
						<lognote/>
						<good>FALSE</good>
					</logginginfo>
					<labels>
						<label2/>
					</labels>
					<comments>
						<mastercomment1/>
						<mastercomment2/>
						<mastercomment3/>
						<mastercomment4/>
					</comments>
					<file id="B001C017_130101_R1WX">
						<name>B001C017_130101_R1WX.mov</name>
						<pathurl>file://localhost/Volumes/%E3%80%8A%E6%98%8F%E5%A4%B4%E8%BD%AC%E5%90%91%E3%80%8B%20Editing/%E6%98%8F%E5%A4%B4%E8%BD%AC%E5%90%91/%E8%BD%AC%E7%A0%81%E7%B4%A0%E6%9D%90/20221211/B001R1WX/B001C017_130101_R1WX.mov</pathurl>
						<rate>
							<timebase>24</timebase>
						</rate>
						<duration>1017</duration>
						<timecode>
							<rate>
								<timebase>24</timebase>
							</rate>
							<string>11:13:23:09</string>
							<frame>969681</frame>
							<displayformat>NDF</displayformat>
							<source>source</source>
							<reel>
								<name>B001R1WX</name>
							</reel>
						</timecode>
						<media>
							<video>
								<duration>1017</duration>
								<samplecharacteristics>
									<width>1920</width>
									<height>1080</height>
								</samplecharacteristics>
							</video>
							<audio>
								<samplecharacteristics>
									<samplerate>48000</samplerate>
									<depth>24</depth>
								</samplecharacteristics>
								<channelcount>1</channelcount>
							</audio>
							<audio>
								<samplecharacteristics>
									<samplerate>48000</samplerate>
									<depth>24</depth>
								</samplecharacteristics>
								<channelcount>1</channelcount>
							</audio>
							<audio>
								<samplecharacteristics>
									<samplerate>48000</samplerate>
									<depth>24</depth>
								</samplecharacteristics>
								<channelcount>1</channelcount>
							</audio>
							<audio>
								<samplecharacteristics>
									<samplerate>48000</samplerate>
									<depth>24</depth>
								</samplecharacteristics>
								<channelcount>1</channelcount>
							</audio>
						</media>
					</file>
					<sourcetrack>
						<mediatype>video</mediatype>
					</sourcetrack>
					<link>
						<linkclipref>010_05_01_B</linkclipref>
						<mediatype>video</mediatype>
						<trackindex>1</trackindex>
						<clipindex>20</clipindex>
					</link>
					<link>
						<linkclipref>010_05_01_B2</linkclipref>
						<mediatype>audio</mediatype>
						<trackindex>1</trackindex>
						<clipindex>20</clipindex>
					</link>
					<link>
						<linkclipref>010_05_01_B3</linkclipref>
						<mediatype>audio</mediatype>
						<trackindex>2</trackindex>
						<clipindex>20</clipindex>
					</link>
					<link>
						<linkclipref>010_05_01_B4</linkclipref>
						<mediatype>audio</mediatype>
						<trackindex>3</trackindex>
						<clipindex>18</clipindex>
					</link>
					<link>
						<linkclipref>010_05_01_B5</linkclipref>
						<mediatype>audio</mediatype>
						<trackindex>4</trackindex>
						<clipindex>8</clipindex>
					</link>
					<fielddominance>none</fielddominance>
					<itemhistory>
						<uuid>EA40B17F-C60A-4C15-9F08-80462BD11EFC</uuid>
					</itemhistory>
				</clipitem>
				<clipitem id="010_05_02_A">
					<name>010_05_02_A</name>
					<duration>949</duration>
					<rate>
						<ntsc>FALSE</ntsc>
						<timebase>24</timebase>
					</rate>
					<in>0</in>
					<out>949</out>
					<start>7649</start>
					<end>8598</end>
					<pixelaspectratio>Square</pixelaspectratio>
					<enabled>TRUE</enabled>
					<anamorphic>FALSE</anamorphic>
					<alphatype>none</alphatype>
					<masterclipid>010_05_02_A1</masterclipid>
					<logginginfo>
						<scene/>
						<shottake/>
						<lognote/>
						<good>FALSE</good>
					</logginginfo>
					<labels>
						<label2/>
					</labels>
					<comments>
						<mastercomment1/>
						<mastercomment2/>
						<mastercomment3/>
						<mastercomment4/>
					</comments>
					<file id="A001C027_221211_R03K">
						<name>A001C027_221211_R03K.mov</name>
						<pathurl>file://localhost/Volumes/%E3%80%8A%E6%98%8F%E5%A4%B4%E8%BD%AC%E5%90%91%E3%80%8B%20Editing/%E6%98%8F%E5%A4%B4%E8%BD%AC%E5%90%91/%E8%BD%AC%E7%A0%81%E7%B4%A0%E6%9D%90/20221211/A001R03K/A001C027_221211_R03K.mov</pathurl>
						<rate>
							<timebase>24</timebase>
						</rate>
						<duration>949</duration>
						<timecode>
							<rate>
								<timebase>24</timebase>
							</rate>
							<string>11:16:42:13</string>
							<frame>974461</frame>
							<displayformat>NDF</displayformat>
							<source>source</source>
							<reel>
								<name>A001R03K</name>
							</reel>
						</timecode>
						<media>
							<video>
								<duration>949</duration>
								<samplecharacteristics>
									<width>1920</width>
									<height>1080</height>
								</samplecharacteristics>
							</video>
							<audio>
								<samplecharacteristics>
									<samplerate>48000</samplerate>
									<depth>24</depth>
								</samplecharacteristics>
								<channelcount>1</channelcount>
							</audio>
							<audio>
								<samplecharacteristics>
									<samplerate>48000</samplerate>
									<depth>24</depth>
								</samplecharacteristics>
								<channelcount>1</channelcount>
							</audio>
							<audio>
								<samplecharacteristics>
									<samplerate>48000</samplerate>
									<depth>24</depth>
								</samplecharacteristics>
								<channelcount>1</channelcount>
							</audio>
							<audio>
								<samplecharacteristics>
									<samplerate>48000</samplerate>
									<depth>24</depth>
								</samplecharacteristics>
								<channelcount>1</channelcount>
							</audio>
						</media>
					</file>
					<sourcetrack>
						<mediatype>video</mediatype>
					</sourcetrack>
					<link>
						<linkclipref>010_05_02_A</linkclipref>
						<mediatype>video</mediatype>
						<trackindex>1</trackindex>
						<clipindex>21</clipindex>
					</link>
					<link>
						<linkclipref>010_05_02_A2</linkclipref>
						<mediatype>audio</mediatype>
						<trackindex>1</trackindex>
						<clipindex>21</clipindex>
					</link>
					<link>
						<linkclipref>010_05_02_A3</linkclipref>
						<mediatype>audio</mediatype>
						<trackindex>2</trackindex>
						<clipindex>21</clipindex>
					</link>
					<link>
						<linkclipref>010_05_02_A4</linkclipref>
						<mediatype>audio</mediatype>
						<trackindex>3</trackindex>
						<clipindex>19</clipindex>
					</link>
					<link>
						<linkclipref>010_05_02_A5</linkclipref>
						<mediatype>audio</mediatype>
						<trackindex>4</trackindex>
						<clipindex>9</clipindex>
					</link>
					<fielddominance>none</fielddominance>
					<itemhistory>
						<uuid>7E6A9607-7355-4C86-8DB9-379CF4FB1234</uuid>
					</itemhistory>
				</clipitem>
				<clipitem id="010_05_02_B">
					<name>010_05_02_B</name>
					<duration>954</duration>
					<rate>
						<ntsc>FALSE</ntsc>
						<timebase>24</timebase>
					</rate>
					<in>0</in>
					<out>954</out>
					<start>8598</start>
					<end>9552</end>
					<pixelaspectratio>Square</pixelaspectratio>
					<enabled>TRUE</enabled>
					<anamorphic>FALSE</anamorphic>
					<alphatype>none</alphatype>
					<masterclipid>010_05_02_B1</masterclipid>
					<logginginfo>
						<scene/>
						<shottake/>
						<lognote/>
						<good>FALSE</good>
					</logginginfo>
					<labels>
						<label2/>
					</labels>
					<comments>
						<mastercomment1/>
						<mastercomment2/>
						<mastercomment3/>
						<mastercomment4/>
					</comments>
					<file id="B001C018_130101_R1WX">
						<name>B001C018_130101_R1WX.mov</name>
						<pathurl>file://localhost/Volumes/%E3%80%8A%E6%98%8F%E5%A4%B4%E8%BD%AC%E5%90%91%E3%80%8B%20Editing/%E6%98%8F%E5%A4%B4%E8%BD%AC%E5%90%91/%E8%BD%AC%E7%A0%81%E7%B4%A0%E6%9D%90/20221211/B001R1WX/B001C018_130101_R1WX.mov</pathurl>
						<rate>
							<timebase>24</timebase>
						</rate>
						<duration>954</duration>
						<timecode>
							<rate>
								<timebase>24</timebase>
							</rate>
							<string>11:16:42:23</string>
							<frame>974471</frame>
							<displayformat>NDF</displayformat>
							<source>source</source>
							<reel>
								<name>B001R1WX</name>
							</reel>
						</timecode>
						<media>
							<video>
								<duration>954</duration>
								<samplecharacteristics>
									<width>1920</width>
									<height>1080</height>
								</samplecharacteristics>
							</video>
							<audio>
								<samplecharacteristics>
									<samplerate>48000</samplerate>
									<depth>24</depth>
								</samplecharacteristics>
								<channelcount>1</channelcount>
							</audio>
							<audio>
								<samplecharacteristics>
									<samplerate>48000</samplerate>
									<depth>24</depth>
								</samplecharacteristics>
								<channelcount>1</channelcount>
							</audio>
							<audio>
								<samplecharacteristics>
									<samplerate>48000</samplerate>
									<depth>24</depth>
								</samplecharacteristics>
								<channelcount>1</channelcount>
							</audio>
							<audio>
								<samplecharacteristics>
									<samplerate>48000</samplerate>
									<depth>24</depth>
								</samplecharacteristics>
								<channelcount>1</channelcount>
							</audio>
						</media>
					</file>
					<sourcetrack>
						<mediatype>video</mediatype>
					</sourcetrack>
					<link>
						<linkclipref>010_05_02_B</linkclipref>
						<mediatype>video</mediatype>
						<trackindex>1</trackindex>
						<clipindex>22</clipindex>
					</link>
					<link>
						<linkclipref>010_05_02_B2</linkclipref>
						<mediatype>audio</mediatype>
						<trackindex>1</trackindex>
						<clipindex>22</clipindex>
					</link>
					<link>
						<linkclipref>010_05_02_B3</linkclipref>
						<mediatype>audio</mediatype>
						<trackindex>2</trackindex>
						<clipindex>22</clipindex>
					</link>
					<link>
						<linkclipref>010_05_02_B4</linkclipref>
						<mediatype>audio</mediatype>
						<trackindex>3</trackindex>
						<clipindex>20</clipindex>
					</link>
					<link>
						<linkclipref>010_05_02_B5</linkclipref>
						<mediatype>audio</mediatype>
						<trackindex>4</trackindex>
						<clipindex>10</clipindex>
					</link>
					<fielddominance>none</fielddominance>
					<itemhistory>
						<uuid>AE1928C7-5363-43C3-91DC-E1CB1279F10E</uuid>
					</itemhistory>
				</clipitem>
				<clipitem id="010_05_03_A">
					<name>010_05_03_A</name>
					<duration>1163</duration>
					<rate>
						<ntsc>FALSE</ntsc>
						<timebase>24</timebase>
					</rate>
					<in>0</in>
					<out>1163</out>
					<start>9552</start>
					<end>10715</end>
					<pixelaspectratio>Square</pixelaspectratio>
					<enabled>TRUE</enabled>
					<anamorphic>FALSE</anamorphic>
					<alphatype>none</alphatype>
					<masterclipid>010_05_03_A1</masterclipid>
					<logginginfo>
						<scene/>
						<shottake/>
						<lognote/>
						<good>FALSE</good>
					</logginginfo>
					<labels>
						<label2/>
					</labels>
					<comments>
						<mastercomment1/>
						<mastercomment2/>
						<mastercomment3/>
						<mastercomment4/>
					</comments>
					<file id="A001C028_221211_R03K">
						<name>A001C028_221211_R03K.mov</name>
						<pathurl>file://localhost/Volumes/%E3%80%8A%E6%98%8F%E5%A4%B4%E8%BD%AC%E5%90%91%E3%80%8B%20Editing/%E6%98%8F%E5%A4%B4%E8%BD%AC%E5%90%91/%E8%BD%AC%E7%A0%81%E7%B4%A0%E6%9D%90/20221211/A001R03K/A001C028_221211_R03K.mov</pathurl>
						<rate>
							<timebase>24</timebase>
						</rate>
						<duration>1163</duration>
						<timecode>
							<rate>
								<timebase>24</timebase>
							</rate>
							<string>11:21:02:21</string>
							<frame>980709</frame>
							<displayformat>NDF</displayformat>
							<source>source</source>
							<reel>
								<name>A001R03K</name>
							</reel>
						</timecode>
						<media>
							<video>
								<duration>1163</duration>
								<samplecharacteristics>
									<width>1920</width>
									<height>1080</height>
								</samplecharacteristics>
							</video>
							<audio>
								<samplecharacteristics>
									<samplerate>48000</samplerate>
									<depth>24</depth>
								</samplecharacteristics>
								<channelcount>1</channelcount>
							</audio>
							<audio>
								<samplecharacteristics>
									<samplerate>48000</samplerate>
									<depth>24</depth>
								</samplecharacteristics>
								<channelcount>1</channelcount>
							</audio>
							<audio>
								<samplecharacteristics>
									<samplerate>48000</samplerate>
									<depth>24</depth>
								</samplecharacteristics>
								<channelcount>1</channelcount>
							</audio>
							<audio>
								<samplecharacteristics>
									<samplerate>48000</samplerate>
									<depth>24</depth>
								</samplecharacteristics>
								<channelcount>1</channelcount>
							</audio>
						</media>
					</file>
					<sourcetrack>
						<mediatype>video</mediatype>
					</sourcetrack>
					<link>
						<linkclipref>010_05_03_A</linkclipref>
						<mediatype>video</mediatype>
						<trackindex>1</trackindex>
						<clipindex>23</clipindex>
					</link>
					<link>
						<linkclipref>010_05_03_A2</linkclipref>
						<mediatype>audio</mediatype>
						<trackindex>1</trackindex>
						<clipindex>23</clipindex>
					</link>
					<link>
						<linkclipref>010_05_03_A3</linkclipref>
						<mediatype>audio</mediatype>
						<trackindex>2</trackindex>
						<clipindex>23</clipindex>
					</link>
					<link>
						<linkclipref>010_05_03_A4</linkclipref>
						<mediatype>audio</mediatype>
						<trackindex>3</trackindex>
						<clipindex>21</clipindex>
					</link>
					<link>
						<linkclipref>010_05_03_A5</linkclipref>
						<mediatype>audio</mediatype>
						<trackindex>4</trackindex>
						<clipindex>11</clipindex>
					</link>
					<fielddominance>none</fielddominance>
					<itemhistory>
						<uuid>8AC35F0A-52D3-4BAB-A3FC-44551B4E4A2C</uuid>
					</itemhistory>
				</clipitem>
				<clipitem id="010_05_03_B">
					<name>010_05_03_B</name>
					<duration>1160</duration>
					<rate>
						<ntsc>FALSE</ntsc>
						<timebase>24</timebase>
					</rate>
					<in>0</in>
					<out>1160</out>
					<start>10715</start>
					<end>11875</end>
					<pixelaspectratio>Square</pixelaspectratio>
					<enabled>TRUE</enabled>
					<anamorphic>FALSE</anamorphic>
					<alphatype>none</alphatype>
					<masterclipid>010_05_03_B1</masterclipid>
					<logginginfo>
						<scene/>
						<shottake/>
						<lognote/>
						<good>FALSE</good>
					</logginginfo>
					<labels>
						<label2/>
					</labels>
					<comments>
						<mastercomment1/>
						<mastercomment2/>
						<mastercomment3/>
						<mastercomment4/>
					</comments>
					<file id="B001C019_130101_R1WX">
						<name>B001C019_130101_R1WX.mov</name>
						<pathurl>file://localhost/Volumes/%E3%80%8A%E6%98%8F%E5%A4%B4%E8%BD%AC%E5%90%91%E3%80%8B%20Editing/%E6%98%8F%E5%A4%B4%E8%BD%AC%E5%90%91/%E8%BD%AC%E7%A0%81%E7%B4%A0%E6%9D%90/20221211/B001R1WX/B001C019_130101_R1WX.mov</pathurl>
						<rate>
							<timebase>24</timebase>
						</rate>
						<duration>1160</duration>
						<timecode>
							<rate>
								<timebase>24</timebase>
							</rate>
							<string>11:21:02:18</string>
							<frame>980706</frame>
							<displayformat>NDF</displayformat>
							<source>source</source>
							<reel>
								<name>B001R1WX</name>
							</reel>
						</timecode>
						<media>
							<video>
								<duration>1160</duration>
								<samplecharacteristics>
									<width>1920</width>
									<height>1080</height>
								</samplecharacteristics>
							</video>
							<audio>
								<samplecharacteristics>
									<samplerate>48000</samplerate>
									<depth>24</depth>
								</samplecharacteristics>
								<channelcount>1</channelcount>
							</audio>
							<audio>
								<samplecharacteristics>
									<samplerate>48000</samplerate>
									<depth>24</depth>
								</samplecharacteristics>
								<channelcount>1</channelcount>
							</audio>
							<audio>
								<samplecharacteristics>
									<samplerate>48000</samplerate>
									<depth>24</depth>
								</samplecharacteristics>
								<channelcount>1</channelcount>
							</audio>
							<audio>
								<samplecharacteristics>
									<samplerate>48000</samplerate>
									<depth>24</depth>
								</samplecharacteristics>
								<channelcount>1</channelcount>
							</audio>
						</media>
					</file>
					<sourcetrack>
						<mediatype>video</mediatype>
					</sourcetrack>
					<link>
						<linkclipref>010_05_03_B</linkclipref>
						<mediatype>video</mediatype>
						<trackindex>1</trackindex>
						<clipindex>24</clipindex>
					</link>
					<link>
						<linkclipref>010_05_03_B2</linkclipref>
						<mediatype>audio</mediatype>
						<trackindex>1</trackindex>
						<clipindex>24</clipindex>
					</link>
					<link>
						<linkclipref>010_05_03_B3</linkclipref>
						<mediatype>audio</mediatype>
						<trackindex>2</trackindex>
						<clipindex>24</clipindex>
					</link>
					<link>
						<linkclipref>010_05_03_B4</linkclipref>
						<mediatype>audio</mediatype>
						<trackindex>3</trackindex>
						<clipindex>22</clipindex>
					</link>
					<link>
						<linkclipref>010_05_03_B5</linkclipref>
						<mediatype>audio</mediatype>
						<trackindex>4</trackindex>
						<clipindex>12</clipindex>
					</link>
					<fielddominance>none</fielddominance>
					<itemhistory>
						<uuid>973C6FD8-96BA-486A-9D6A-F70DF3A4448B</uuid>
					</itemhistory>
				</clipitem>
				<clipitem id="010_05_04_A_OK_混剪">
					<name>010_05_04_A_OK_混剪</name>
					<duration>1108</duration>
					<rate>
						<ntsc>FALSE</ntsc>
						<timebase>24</timebase>
					</rate>
					<in>156</in>
					<out>207</out>
					<start>11875</start>
					<end>11926</end>
					<pixelaspectratio>Square</pixelaspectratio>
					<enabled>TRUE</enabled>
					<anamorphic>FALSE</anamorphic>
					<alphatype>none</alphatype>
					<masterclipid>010_05_04_A_OK_混剪1</masterclipid>
					<logginginfo>
						<scene/>
						<shottake/>
						<lognote/>
						<good>FALSE</good>
					</logginginfo>
					<labels>
						<label2/>
					</labels>
					<comments>
						<mastercomment1/>
						<mastercomment2/>
						<mastercomment3/>
						<mastercomment4/>
					</comments>
					<file id="A001C029_221211_R03K">
						<name>A001C029_221211_R03K.mov</name>
						<pathurl>file://localhost/Volumes/%E3%80%8A%E6%98%8F%E5%A4%B4%E8%BD%AC%E5%90%91%E3%80%8B%20Editing/%E6%98%8F%E5%A4%B4%E8%BD%AC%E5%90%91/%E8%BD%AC%E7%A0%81%E7%B4%A0%E6%9D%90/20221211/A001R03K/A001C029_221211_R03K.mov</pathurl>
						<rate>
							<timebase>24</timebase>
						</rate>
						<duration>1108</duration>
						<timecode>
							<rate>
								<timebase>24</timebase>
							</rate>
							<string>11:23:28:06</string>
							<frame>984198</frame>
							<displayformat>NDF</displayformat>
							<source>source</source>
							<reel>
								<name>A001R03K</name>
							</reel>
						</timecode>
						<media>
							<video>
								<duration>1108</duration>
								<samplecharacteristics>
									<width>1920</width>
									<height>1080</height>
								</samplecharacteristics>
							</video>
							<audio>
								<samplecharacteristics>
									<samplerate>48000</samplerate>
									<depth>24</depth>
								</samplecharacteristics>
								<channelcount>1</channelcount>
							</audio>
							<audio>
								<samplecharacteristics>
									<samplerate>48000</samplerate>
									<depth>24</depth>
								</samplecharacteristics>
								<channelcount>1</channelcount>
							</audio>
							<audio>
								<samplecharacteristics>
									<samplerate>48000</samplerate>
									<depth>24</depth>
								</samplecharacteristics>
								<channelcount>1</channelcount>
							</audio>
							<audio>
								<samplecharacteristics>
									<samplerate>48000</samplerate>
									<depth>24</depth>
								</samplecharacteristics>
								<channelcount>1</channelcount>
							</audio>
						</media>
					</file>
					<sourcetrack>
						<mediatype>video</mediatype>
					</sourcetrack>
					<link>
						<linkclipref>010_05_04_A_OK_混剪</linkclipref>
						<mediatype>video</mediatype>
						<trackindex>1</trackindex>
						<clipindex>25</clipindex>
					</link>
					<link>
						<linkclipref>010_05_04_A_OK_混剪2</linkclipref>
						<mediatype>audio</mediatype>
						<trackindex>1</trackindex>
						<clipindex>25</clipindex>
					</link>
					<link>
						<linkclipref>010_05_04_A_OK_混剪3</linkclipref>
						<mediatype>audio</mediatype>
						<trackindex>2</trackindex>
						<clipindex>25</clipindex>
					</link>
					<link>
						<linkclipref>010_05_04_A_OK_混剪4</linkclipref>
						<mediatype>audio</mediatype>
						<trackindex>3</trackindex>
						<clipindex>23</clipindex>
					</link>
					<link>
						<linkclipref>010_05_04_A_OK_混剪5</linkclipref>
						<mediatype>audio</mediatype>
						<trackindex>4</trackindex>
						<clipindex>13</clipindex>
					</link>
					<fielddominance>none</fielddominance>
					<itemhistory>
						<uuid>B518E77C-B681-4337-94F0-6F62BF0ACE17</uuid>
					</itemhistory>
				</clipitem>
				<clipitem id="010_05_04_B_OK_混剪">
					<name>010_05_04_B_OK_混剪</name>
					<duration>1099</duration>
					<rate>
						<ntsc>FALSE</ntsc>
						<timebase>24</timebase>
					</rate>
					<in>109</in>
					<out>1099</out>
					<start>11926</start>
					<end>12916</end>
					<pixelaspectratio>Square</pixelaspectratio>
					<enabled>TRUE</enabled>
					<anamorphic>FALSE</anamorphic>
					<alphatype>none</alphatype>
					<masterclipid>010_05_04_B_OK_混剪1</masterclipid>
					<logginginfo>
						<scene/>
						<shottake/>
						<lognote/>
						<good>FALSE</good>
					</logginginfo>
					<labels>
						<label2/>
					</labels>
					<comments>
						<mastercomment1/>
						<mastercomment2/>
						<mastercomment3/>
						<mastercomment4/>
					</comments>
					<file id="B001C020_130101_R1WX">
						<name>B001C020_130101_R1WX.mov</name>
						<pathurl>file://localhost/Volumes/%E3%80%8A%E6%98%8F%E5%A4%B4%E8%BD%AC%E5%90%91%E3%80%8B%20Editing/%E6%98%8F%E5%A4%B4%E8%BD%AC%E5%90%91/%E8%BD%AC%E7%A0%81%E7%B4%A0%E6%9D%90/20221211/B001R1WX/B001C020_130101_R1WX.mov</pathurl>
						<rate>
							<timebase>24</timebase>
						</rate>
						<duration>1099</duration>
						<timecode>
							<rate>
								<timebase>24</timebase>
							</rate>
							<string>11:23:28:03</string>
							<frame>984195</frame>
							<displayformat>NDF</displayformat>
							<source>source</source>
							<reel>
								<name>B001R1WX</name>
							</reel>
						</timecode>
						<media>
							<video>
								<duration>1099</duration>
								<samplecharacteristics>
									<width>1920</width>
									<height>1080</height>
								</samplecharacteristics>
							</video>
							<audio>
								<samplecharacteristics>
									<samplerate>48000</samplerate>
									<depth>24</depth>
								</samplecharacteristics>
								<channelcount>1</channelcount>
							</audio>
							<audio>
								<samplecharacteristics>
									<samplerate>48000</samplerate>
									<depth>24</depth>
								</samplecharacteristics>
								<channelcount>1</channelcount>
							</audio>
							<audio>
								<samplecharacteristics>
									<samplerate>48000</samplerate>
									<depth>24</depth>
								</samplecharacteristics>
								<channelcount>1</channelcount>
							</audio>
							<audio>
								<samplecharacteristics>
									<samplerate>48000</samplerate>
									<depth>24</depth>
								</samplecharacteristics>
								<channelcount>1</channelcount>
							</audio>
						</media>
					</file>
					<sourcetrack>
						<mediatype>video</mediatype>
					</sourcetrack>
					<link>
						<linkclipref>010_05_04_B_OK_混剪</linkclipref>
						<mediatype>video</mediatype>
						<trackindex>1</trackindex>
						<clipindex>26</clipindex>
					</link>
					<link>
						<linkclipref>010_05_04_B_OK_混剪2</linkclipref>
						<mediatype>audio</mediatype>
						<trackindex>1</trackindex>
						<clipindex>26</clipindex>
					</link>
					<link>
						<linkclipref>010_05_04_B_OK_混剪3</linkclipref>
						<mediatype>audio</mediatype>
						<trackindex>2</trackindex>
						<clipindex>26</clipindex>
					</link>
					<link>
						<linkclipref>010_05_04_B_OK_混剪4</linkclipref>
						<mediatype>audio</mediatype>
						<trackindex>3</trackindex>
						<clipindex>24</clipindex>
					</link>
					<link>
						<linkclipref>010_05_04_B_OK_混剪5</linkclipref>
						<mediatype>audio</mediatype>
						<trackindex>4</trackindex>
						<clipindex>14</clipindex>
					</link>
					<fielddominance>none</fielddominance>
					<itemhistory>
						<uuid>413B80B2-7FD3-4853-90F3-5CA6F0B77681</uuid>
					</itemhistory>
				</clipitem>
				<clipitem id="010_05_05_A_OK_混剪">
					<name>010_05_05_A_OK_混剪</name>
					<duration>2307</duration>
					<rate>
						<ntsc>FALSE</ntsc>
						<timebase>24</timebase>
					</rate>
					<in>154</in>
					<out>257</out>
					<start>12916</start>
					<end>13019</end>
					<pixelaspectratio>Square</pixelaspectratio>
					<enabled>TRUE</enabled>
					<anamorphic>FALSE</anamorphic>
					<alphatype>none</alphatype>
					<masterclipid>010_05_05_A_OK_混剪1</masterclipid>
					<logginginfo>
						<scene/>
						<shottake/>
						<lognote/>
						<good>FALSE</good>
					</logginginfo>
					<labels>
						<label2/>
					</labels>
					<comments>
						<mastercomment1/>
						<mastercomment2/>
						<mastercomment3/>
						<mastercomment4/>
					</comments>
					<file id="A001C030_221211_R03K">
						<name>A001C030_221211_R03K.mov</name>
						<pathurl>file://localhost/Volumes/%E3%80%8A%E6%98%8F%E5%A4%B4%E8%BD%AC%E5%90%91%E3%80%8B%20Editing/%E6%98%8F%E5%A4%B4%E8%BD%AC%E5%90%91/%E8%BD%AC%E7%A0%81%E7%B4%A0%E6%9D%90/20221211/A001R03K/A001C030_221211_R03K.mov</pathurl>
						<rate>
							<timebase>24</timebase>
						</rate>
						<duration>2307</duration>
						<timecode>
							<rate>
								<timebase>24</timebase>
							</rate>
							<string>11:28:53:10</string>
							<frame>992002</frame>
							<displayformat>NDF</displayformat>
							<source>source</source>
							<reel>
								<name>A001R03K</name>
							</reel>
						</timecode>
						<media>
							<video>
								<duration>2307</duration>
								<samplecharacteristics>
									<width>1920</width>
									<height>1080</height>
								</samplecharacteristics>
							</video>
							<audio>
								<samplecharacteristics>
									<samplerate>48000</samplerate>
									<depth>24</depth>
								</samplecharacteristics>
								<channelcount>1</channelcount>
							</audio>
							<audio>
								<samplecharacteristics>
									<samplerate>48000</samplerate>
									<depth>24</depth>
								</samplecharacteristics>
								<channelcount>1</channelcount>
							</audio>
							<audio>
								<samplecharacteristics>
									<samplerate>48000</samplerate>
									<depth>24</depth>
								</samplecharacteristics>
								<channelcount>1</channelcount>
							</audio>
							<audio>
								<samplecharacteristics>
									<samplerate>48000</samplerate>
									<depth>24</depth>
								</samplecharacteristics>
								<channelcount>1</channelcount>
							</audio>
						</media>
					</file>
					<sourcetrack>
						<mediatype>video</mediatype>
					</sourcetrack>
					<link>
						<linkclipref>010_05_05_A_OK_混剪</linkclipref>
						<mediatype>video</mediatype>
						<trackindex>1</trackindex>
						<clipindex>27</clipindex>
					</link>
					<link>
						<linkclipref>010_05_05_A_OK_混剪2</linkclipref>
						<mediatype>audio</mediatype>
						<trackindex>1</trackindex>
						<clipindex>27</clipindex>
					</link>
					<link>
						<linkclipref>010_05_05_A_OK_混剪3</linkclipref>
						<mediatype>audio</mediatype>
						<trackindex>2</trackindex>
						<clipindex>27</clipindex>
					</link>
					<link>
						<linkclipref>010_05_05_A_OK_混剪4</linkclipref>
						<mediatype>audio</mediatype>
						<trackindex>3</trackindex>
						<clipindex>25</clipindex>
					</link>
					<link>
						<linkclipref>010_05_05_A_OK_混剪5</linkclipref>
						<mediatype>audio</mediatype>
						<trackindex>4</trackindex>
						<clipindex>15</clipindex>
					</link>
					<fielddominance>none</fielddominance>
					<itemhistory>
						<uuid>79D22A5B-8D73-4BC9-948D-8DDA966A15AE</uuid>
					</itemhistory>
				</clipitem>
				<clipitem id="010_05_05_B_OK_混剪">
					<name>010_05_05_B_OK_混剪</name>
					<duration>2318</duration>
					<rate>
						<ntsc>FALSE</ntsc>
						<timebase>24</timebase>
					</rate>
					<in>0</in>
					<out>2318</out>
					<start>13019</start>
					<end>15337</end>
					<pixelaspectratio>Square</pixelaspectratio>
					<enabled>TRUE</enabled>
					<anamorphic>FALSE</anamorphic>
					<alphatype>none</alphatype>
					<masterclipid>010_05_05_B_OK_混剪1</masterclipid>
					<logginginfo>
						<scene/>
						<shottake/>
						<lognote/>
						<good>FALSE</good>
					</logginginfo>
					<labels>
						<label2/>
					</labels>
					<comments>
						<mastercomment1/>
						<mastercomment2/>
						<mastercomment3/>
						<mastercomment4/>
					</comments>
					<file id="B001C021_130101_R1WX">
						<name>B001C021_130101_R1WX.mov</name>
						<pathurl>file://localhost/Volumes/%E3%80%8A%E6%98%8F%E5%A4%B4%E8%BD%AC%E5%90%91%E3%80%8B%20Editing/%E6%98%8F%E5%A4%B4%E8%BD%AC%E5%90%91/%E8%BD%AC%E7%A0%81%E7%B4%A0%E6%9D%90/20221211/B001R1WX/B001C021_130101_R1WX.mov</pathurl>
						<rate>
							<timebase>24</timebase>
						</rate>
						<duration>2318</duration>
						<timecode>
							<rate>
								<timebase>24</timebase>
							</rate>
							<string>11:28:53:09</string>
							<frame>992001</frame>
							<displayformat>NDF</displayformat>
							<source>source</source>
							<reel>
								<name>B001R1WX</name>
							</reel>
						</timecode>
						<media>
							<video>
								<duration>2318</duration>
								<samplecharacteristics>
									<width>1920</width>
									<height>1080</height>
								</samplecharacteristics>
							</video>
							<audio>
								<samplecharacteristics>
									<samplerate>48000</samplerate>
									<depth>24</depth>
								</samplecharacteristics>
								<channelcount>1</channelcount>
							</audio>
							<audio>
								<samplecharacteristics>
									<samplerate>48000</samplerate>
									<depth>24</depth>
								</samplecharacteristics>
								<channelcount>1</channelcount>
							</audio>
							<audio>
								<samplecharacteristics>
									<samplerate>48000</samplerate>
									<depth>24</depth>
								</samplecharacteristics>
								<channelcount>1</channelcount>
							</audio>
							<audio>
								<samplecharacteristics>
									<samplerate>48000</samplerate>
									<depth>24</depth>
								</samplecharacteristics>
								<channelcount>1</channelcount>
							</audio>
						</media>
					</file>
					<sourcetrack>
						<mediatype>video</mediatype>
					</sourcetrack>
					<link>
						<linkclipref>010_05_05_B_OK_混剪</linkclipref>
						<mediatype>video</mediatype>
						<trackindex>1</trackindex>
						<clipindex>28</clipindex>
					</link>
					<link>
						<linkclipref>010_05_05_B_OK_混剪2</linkclipref>
						<mediatype>audio</mediatype>
						<trackindex>1</trackindex>
						<clipindex>28</clipindex>
					</link>
					<link>
						<linkclipref>010_05_05_B_OK_混剪3</linkclipref>
						<mediatype>audio</mediatype>
						<trackindex>2</trackindex>
						<clipindex>28</clipindex>
					</link>
					<link>
						<linkclipref>010_05_05_B_OK_混剪4</linkclipref>
						<mediatype>audio</mediatype>
						<trackindex>3</trackindex>
						<clipindex>26</clipindex>
					</link>
					<link>
						<linkclipref>010_05_05_B_OK_混剪5</linkclipref>
						<mediatype>audio</mediatype>
						<trackindex>4</trackindex>
						<clipindex>16</clipindex>
					</link>
					<fielddominance>none</fielddominance>
					<itemhistory>
						<uuid>1D4EE4EC-7106-4E00-9254-4F6665DD6EB8</uuid>
					</itemhistory>
				</clipitem>
				<clipitem id="010_05_06_A_OK_混剪">
					<name>010_05_06_A_OK_混剪</name>
					<duration>2146</duration>
					<rate>
						<ntsc>FALSE</ntsc>
						<timebase>24</timebase>
					</rate>
					<in>131</in>
					<out>189</out>
					<start>15337</start>
					<end>15395</end>
					<pixelaspectratio>Square</pixelaspectratio>
					<enabled>TRUE</enabled>
					<anamorphic>FALSE</anamorphic>
					<alphatype>none</alphatype>
					<masterclipid>010_05_06_A_OK_混剪1</masterclipid>
					<logginginfo>
						<scene/>
						<shottake/>
						<lognote/>
						<good>FALSE</good>
					</logginginfo>
					<labels>
						<label2/>
					</labels>
					<comments>
						<mastercomment1/>
						<mastercomment2/>
						<mastercomment3/>
						<mastercomment4/>
					</comments>
					<file id="A001C031_221211_R03K">
						<name>A001C031_221211_R03K.mov</name>
						<pathurl>file://localhost/Volumes/%E3%80%8A%E6%98%8F%E5%A4%B4%E8%BD%AC%E5%90%91%E3%80%8B%20Editing/%E6%98%8F%E5%A4%B4%E8%BD%AC%E5%90%91/%E8%BD%AC%E7%A0%81%E7%B4%A0%E6%9D%90/20221211/A001R03K/A001C031_221211_R03K.mov</pathurl>
						<rate>
							<timebase>24</timebase>
						</rate>
						<duration>2146</duration>
						<timecode>
							<rate>
								<timebase>24</timebase>
							</rate>
							<string>11:33:10:16</string>
							<frame>998176</frame>
							<displayformat>NDF</displayformat>
							<source>source</source>
							<reel>
								<name>A001R03K</name>
							</reel>
						</timecode>
						<media>
							<video>
								<duration>2146</duration>
								<samplecharacteristics>
									<width>1920</width>
									<height>1080</height>
								</samplecharacteristics>
							</video>
							<audio>
								<samplecharacteristics>
									<samplerate>48000</samplerate>
									<depth>24</depth>
								</samplecharacteristics>
								<channelcount>1</channelcount>
							</audio>
							<audio>
								<samplecharacteristics>
									<samplerate>48000</samplerate>
									<depth>24</depth>
								</samplecharacteristics>
								<channelcount>1</channelcount>
							</audio>
							<audio>
								<samplecharacteristics>
									<samplerate>48000</samplerate>
									<depth>24</depth>
								</samplecharacteristics>
								<channelcount>1</channelcount>
							</audio>
							<audio>
								<samplecharacteristics>
									<samplerate>48000</samplerate>
									<depth>24</depth>
								</samplecharacteristics>
								<channelcount>1</channelcount>
							</audio>
						</media>
					</file>
					<sourcetrack>
						<mediatype>video</mediatype>
					</sourcetrack>
					<link>
						<linkclipref>010_05_06_A_OK_混剪</linkclipref>
						<mediatype>video</mediatype>
						<trackindex>1</trackindex>
						<clipindex>29</clipindex>
					</link>
					<link>
						<linkclipref>010_05_06_A_OK_混剪2</linkclipref>
						<mediatype>audio</mediatype>
						<trackindex>1</trackindex>
						<clipindex>29</clipindex>
					</link>
					<link>
						<linkclipref>010_05_06_A_OK_混剪3</linkclipref>
						<mediatype>audio</mediatype>
						<trackindex>2</trackindex>
						<clipindex>29</clipindex>
					</link>
					<link>
						<linkclipref>010_05_06_A_OK_混剪4</linkclipref>
						<mediatype>audio</mediatype>
						<trackindex>3</trackindex>
						<clipindex>27</clipindex>
					</link>
					<link>
						<linkclipref>010_05_06_A_OK_混剪5</linkclipref>
						<mediatype>audio</mediatype>
						<trackindex>4</trackindex>
						<clipindex>17</clipindex>
					</link>
					<fielddominance>none</fielddominance>
					<itemhistory>
						<uuid>3C83FDC9-DF5C-4E7D-BA2A-5228D6FD3BB5</uuid>
					</itemhistory>
				</clipitem>
				<clipitem id="010_05_06_B_OK_混剪">
					<name>010_05_06_B_OK_混剪</name>
					<duration>2154</duration>
					<rate>
						<ntsc>FALSE</ntsc>
						<timebase>24</timebase>
					</rate>
					<in>384</in>
					<out>473</out>
					<start>15395</start>
					<end>15484</end>
					<pixelaspectratio>Square</pixelaspectratio>
					<enabled>TRUE</enabled>
					<anamorphic>FALSE</anamorphic>
					<alphatype>none</alphatype>
					<masterclipid>010_05_06_B_OK_混剪1</masterclipid>
					<logginginfo>
						<scene/>
						<shottake/>
						<lognote/>
						<good>FALSE</good>
					</logginginfo>
					<labels>
						<label2/>
					</labels>
					<comments>
						<mastercomment1/>
						<mastercomment2/>
						<mastercomment3/>
						<mastercomment4/>
					</comments>
					<file id="B001C022_130101_R1WX">
						<name>B001C022_130101_R1WX.mov</name>
						<pathurl>file://localhost/Volumes/%E3%80%8A%E6%98%8F%E5%A4%B4%E8%BD%AC%E5%90%91%E3%80%8B%20Editing/%E6%98%8F%E5%A4%B4%E8%BD%AC%E5%90%91/%E8%BD%AC%E7%A0%81%E7%B4%A0%E6%9D%90/20221211/B001R1WX/B001C022_130101_R1WX.mov</pathurl>
						<rate>
							<timebase>24</timebase>
						</rate>
						<duration>2154</duration>
						<timecode>
							<rate>
								<timebase>24</timebase>
							</rate>
							<string>11:33:10:06</string>
							<frame>998166</frame>
							<displayformat>NDF</displayformat>
							<source>source</source>
							<reel>
								<name>B001R1WX</name>
							</reel>
						</timecode>
						<media>
							<video>
								<duration>2154</duration>
								<samplecharacteristics>
									<width>1920</width>
									<height>1080</height>
								</samplecharacteristics>
							</video>
							<audio>
								<samplecharacteristics>
									<samplerate>48000</samplerate>
									<depth>24</depth>
								</samplecharacteristics>
								<channelcount>1</channelcount>
							</audio>
							<audio>
								<samplecharacteristics>
									<samplerate>48000</samplerate>
									<depth>24</depth>
								</samplecharacteristics>
								<channelcount>1</channelcount>
							</audio>
							<audio>
								<samplecharacteristics>
									<samplerate>48000</samplerate>
									<depth>24</depth>
								</samplecharacteristics>
								<channelcount>1</channelcount>
							</audio>
							<audio>
								<samplecharacteristics>
									<samplerate>48000</samplerate>
									<depth>24</depth>
								</samplecharacteristics>
								<channelcount>1</channelcount>
							</audio>
						</media>
					</file>
					<sourcetrack>
						<mediatype>video</mediatype>
					</sourcetrack>
					<link>
						<linkclipref>010_05_06_B_OK_混剪</linkclipref>
						<mediatype>video</mediatype>
						<trackindex>1</trackindex>
						<clipindex>30</clipindex>
					</link>
					<link>
						<linkclipref>010_05_06_B_OK_混剪2</linkclipref>
						<mediatype>audio</mediatype>
						<trackindex>1</trackindex>
						<clipindex>30</clipindex>
					</link>
					<link>
						<linkclipref>010_05_06_B_OK_混剪3</linkclipref>
						<mediatype>audio</mediatype>
						<trackindex>2</trackindex>
						<clipindex>30</clipindex>
					</link>
					<link>
						<linkclipref>010_05_06_B_OK_混剪4</linkclipref>
						<mediatype>audio</mediatype>
						<trackindex>3</trackindex>
						<clipindex>28</clipindex>
					</link>
					<link>
						<linkclipref>010_05_06_B_OK_混剪5</linkclipref>
						<mediatype>audio</mediatype>
						<trackindex>4</trackindex>
						<clipindex>18</clipindex>
					</link>
					<fielddominance>none</fielddominance>
					<itemhistory>
						<uuid>92A19C1D-75DA-4970-B5D5-93B1CC49813E</uuid>
					</itemhistory>
				</clipitem>
				<clipitem id="010_06_01_A">
					<name>010_06_01_A</name>
					<duration>2114</duration>
					<rate>
						<ntsc>FALSE</ntsc>
						<timebase>24</timebase>
					</rate>
					<in>0</in>
					<out>2114</out>
					<start>15484</start>
					<end>17598</end>
					<pixelaspectratio>Square</pixelaspectratio>
					<enabled>TRUE</enabled>
					<anamorphic>FALSE</anamorphic>
					<alphatype>none</alphatype>
					<masterclipid>010_06_01_A1</masterclipid>
					<logginginfo>
						<scene/>
						<shottake/>
						<lognote/>
						<good>FALSE</good>
					</logginginfo>
					<labels>
						<label2/>
					</labels>
					<comments>
						<mastercomment1/>
						<mastercomment2/>
						<mastercomment3/>
						<mastercomment4/>
					</comments>
					<file id="A002C001_221211_R03K">
						<name>A002C001_221211_R03K.mov</name>
						<pathurl>file://localhost/Volumes/%E3%80%8A%E6%98%8F%E5%A4%B4%E8%BD%AC%E5%90%91%E3%80%8B%20Editing/%E6%98%8F%E5%A4%B4%E8%BD%AC%E5%90%91/%E8%BD%AC%E7%A0%81%E7%B4%A0%E6%9D%90/20221211/A002R03K/A002C001_221211_R03K.mov</pathurl>
						<rate>
							<timebase>24</timebase>
						</rate>
						<duration>2114</duration>
						<timecode>
							<rate>
								<timebase>24</timebase>
							</rate>
							<string>11:46:34:18</string>
							<frame>1017474</frame>
							<displayformat>NDF</displayformat>
							<source>source</source>
							<reel>
								<name>A002R03K</name>
							</reel>
						</timecode>
						<media>
							<video>
								<duration>2114</duration>
								<samplecharacteristics>
									<width>1920</width>
									<height>1080</height>
								</samplecharacteristics>
							</video>
							<audio>
								<samplecharacteristics>
									<samplerate>48000</samplerate>
									<depth>24</depth>
								</samplecharacteristics>
								<channelcount>1</channelcount>
							</audio>
							<audio>
								<samplecharacteristics>
									<samplerate>48000</samplerate>
									<depth>24</depth>
								</samplecharacteristics>
								<channelcount>1</channelcount>
							</audio>
							<audio>
								<samplecharacteristics>
									<samplerate>48000</samplerate>
									<depth>24</depth>
								</samplecharacteristics>
								<channelcount>1</channelcount>
							</audio>
							<audio>
								<samplecharacteristics>
									<samplerate>48000</samplerate>
									<depth>24</depth>
								</samplecharacteristics>
								<channelcount>1</channelcount>
							</audio>
							<audio>
								<samplecharacteristics>
									<samplerate>48000</samplerate>
									<depth>24</depth>
								</samplecharacteristics>
								<channelcount>1</channelcount>
							</audio>
						</media>
					</file>
					<sourcetrack>
						<mediatype>video</mediatype>
					</sourcetrack>
					<link>
						<linkclipref>010_06_01_A</linkclipref>
						<mediatype>video</mediatype>
						<trackindex>1</trackindex>
						<clipindex>31</clipindex>
					</link>
					<link>
						<linkclipref>010_06_01_A2</linkclipref>
						<mediatype>audio</mediatype>
						<trackindex>1</trackindex>
						<clipindex>31</clipindex>
					</link>
					<link>
						<linkclipref>010_06_01_A3</linkclipref>
						<mediatype>audio</mediatype>
						<trackindex>2</trackindex>
						<clipindex>31</clipindex>
					</link>
					<link>
						<linkclipref>010_06_01_A4</linkclipref>
						<mediatype>audio</mediatype>
						<trackindex>3</trackindex>
						<clipindex>29</clipindex>
					</link>
					<link>
						<linkclipref>010_06_01_A5</linkclipref>
						<mediatype>audio</mediatype>
						<trackindex>4</trackindex>
						<clipindex>19</clipindex>
					</link>
					<link>
						<linkclipref>010_06_01_A6</linkclipref>
						<mediatype>audio</mediatype>
						<trackindex>5</trackindex>
						<clipindex>1</clipindex>
					</link>
					<fielddominance>none</fielddominance>
					<itemhistory>
						<uuid>D4E3AC61-E5C6-4450-BF72-D57A10CCC912</uuid>
					</itemhistory>
				</clipitem>
				<clipitem id="010_06_01_B">
					<name>010_06_01_B</name>
					<duration>2106</duration>
					<rate>
						<ntsc>FALSE</ntsc>
						<timebase>24</timebase>
					</rate>
					<in>0</in>
					<out>2106</out>
					<start>17598</start>
					<end>19704</end>
					<pixelaspectratio>Square</pixelaspectratio>
					<enabled>TRUE</enabled>
					<anamorphic>FALSE</anamorphic>
					<alphatype>none</alphatype>
					<masterclipid>010_06_01_B1</masterclipid>
					<logginginfo>
						<scene/>
						<shottake/>
						<lognote/>
						<good>FALSE</good>
					</logginginfo>
					<labels>
						<label2/>
					</labels>
					<comments>
						<mastercomment1/>
						<mastercomment2/>
						<mastercomment3/>
						<mastercomment4/>
					</comments>
					<file id="B002C001_130101_R1WX">
						<name>B002C001_130101_R1WX.mov</name>
						<pathurl>file://localhost/Volumes/%E3%80%8A%E6%98%8F%E5%A4%B4%E8%BD%AC%E5%90%91%E3%80%8B%20Editing/%E6%98%8F%E5%A4%B4%E8%BD%AC%E5%90%91/%E8%BD%AC%E7%A0%81%E7%B4%A0%E6%9D%90/20221211/B002R1WX/B002C001_130101_R1WX.mov</pathurl>
						<rate>
							<timebase>24</timebase>
						</rate>
						<duration>2106</duration>
						<timecode>
							<rate>
								<timebase>24</timebase>
							</rate>
							<string>11:46:34:23</string>
							<frame>1017479</frame>
							<displayformat>NDF</displayformat>
							<source>source</source>
							<reel>
								<name>B002R1WX</name>
							</reel>
						</timecode>
						<media>
							<video>
								<duration>2106</duration>
								<samplecharacteristics>
									<width>1920</width>
									<height>1080</height>
								</samplecharacteristics>
							</video>
							<audio>
								<samplecharacteristics>
									<samplerate>48000</samplerate>
									<depth>24</depth>
								</samplecharacteristics>
								<channelcount>1</channelcount>
							</audio>
							<audio>
								<samplecharacteristics>
									<samplerate>48000</samplerate>
									<depth>24</depth>
								</samplecharacteristics>
								<channelcount>1</channelcount>
							</audio>
							<audio>
								<samplecharacteristics>
									<samplerate>48000</samplerate>
									<depth>24</depth>
								</samplecharacteristics>
								<channelcount>1</channelcount>
							</audio>
							<audio>
								<samplecharacteristics>
									<samplerate>48000</samplerate>
									<depth>24</depth>
								</samplecharacteristics>
								<channelcount>1</channelcount>
							</audio>
							<audio>
								<samplecharacteristics>
									<samplerate>48000</samplerate>
									<depth>24</depth>
								</samplecharacteristics>
								<channelcount>1</channelcount>
							</audio>
						</media>
					</file>
					<sourcetrack>
						<mediatype>video</mediatype>
					</sourcetrack>
					<link>
						<linkclipref>010_06_01_B</linkclipref>
						<mediatype>video</mediatype>
						<trackindex>1</trackindex>
						<clipindex>32</clipindex>
					</link>
					<link>
						<linkclipref>010_06_01_B2</linkclipref>
						<mediatype>audio</mediatype>
						<trackindex>1</trackindex>
						<clipindex>32</clipindex>
					</link>
					<link>
						<linkclipref>010_06_01_B3</linkclipref>
						<mediatype>audio</mediatype>
						<trackindex>2</trackindex>
						<clipindex>32</clipindex>
					</link>
					<link>
						<linkclipref>010_06_01_B4</linkclipref>
						<mediatype>audio</mediatype>
						<trackindex>3</trackindex>
						<clipindex>30</clipindex>
					</link>
					<link>
						<linkclipref>010_06_01_B5</linkclipref>
						<mediatype>audio</mediatype>
						<trackindex>4</trackindex>
						<clipindex>20</clipindex>
					</link>
					<link>
						<linkclipref>010_06_01_B6</linkclipref>
						<mediatype>audio</mediatype>
						<trackindex>5</trackindex>
						<clipindex>2</clipindex>
					</link>
					<fielddominance>none</fielddominance>
					<itemhistory>
						<uuid>897FCD87-BD9A-40F4-96E3-30672838965E</uuid>
					</itemhistory>
				</clipitem>
				<clipitem id="010_06_02_A">
					<name>010_06_02_A</name>
					<duration>649</duration>
					<rate>
						<ntsc>FALSE</ntsc>
						<timebase>24</timebase>
					</rate>
					<in>0</in>
					<out>649</out>
					<start>19704</start>
					<end>20353</end>
					<pixelaspectratio>Square</pixelaspectratio>
					<enabled>TRUE</enabled>
					<anamorphic>FALSE</anamorphic>
					<alphatype>none</alphatype>
					<masterclipid>010_06_02_A1</masterclipid>
					<logginginfo>
						<scene/>
						<shottake/>
						<lognote/>
						<good>FALSE</good>
					</logginginfo>
					<labels>
						<label2/>
					</labels>
					<comments>
						<mastercomment1/>
						<mastercomment2/>
						<mastercomment3/>
						<mastercomment4/>
					</comments>
					<file id="A002C002_221211_R03K">
						<name>A002C002_221211_R03K.mov</name>
						<pathurl>file://localhost/Volumes/%E3%80%8A%E6%98%8F%E5%A4%B4%E8%BD%AC%E5%90%91%E3%80%8B%20Editing/%E6%98%8F%E5%A4%B4%E8%BD%AC%E5%90%91/%E8%BD%AC%E7%A0%81%E7%B4%A0%E6%9D%90/20221211/A002R03K/A002C002_221211_R03K.mov</pathurl>
						<rate>
							<timebase>24</timebase>
						</rate>
						<duration>649</duration>
						<timecode>
							<rate>
								<timebase>24</timebase>
							</rate>
							<string>11:50:34:11</string>
							<frame>1023227</frame>
							<displayformat>NDF</displayformat>
							<source>source</source>
							<reel>
								<name>A002R03K</name>
							</reel>
						</timecode>
						<media>
							<video>
								<duration>649</duration>
								<samplecharacteristics>
									<width>1920</width>
									<height>1080</height>
								</samplecharacteristics>
							</video>
							<audio>
								<samplecharacteristics>
									<samplerate>48000</samplerate>
									<depth>24</depth>
								</samplecharacteristics>
								<channelcount>1</channelcount>
							</audio>
							<audio>
								<samplecharacteristics>
									<samplerate>48000</samplerate>
									<depth>24</depth>
								</samplecharacteristics>
								<channelcount>1</channelcount>
							</audio>
							<audio>
								<samplecharacteristics>
									<samplerate>48000</samplerate>
									<depth>24</depth>
								</samplecharacteristics>
								<channelcount>1</channelcount>
							</audio>
							<audio>
								<samplecharacteristics>
									<samplerate>48000</samplerate>
									<depth>24</depth>
								</samplecharacteristics>
								<channelcount>1</channelcount>
							</audio>
							<audio>
								<samplecharacteristics>
									<samplerate>48000</samplerate>
									<depth>24</depth>
								</samplecharacteristics>
								<channelcount>1</channelcount>
							</audio>
						</media>
					</file>
					<sourcetrack>
						<mediatype>video</mediatype>
					</sourcetrack>
					<link>
						<linkclipref>010_06_02_A</linkclipref>
						<mediatype>video</mediatype>
						<trackindex>1</trackindex>
						<clipindex>33</clipindex>
					</link>
					<link>
						<linkclipref>010_06_02_A2</linkclipref>
						<mediatype>audio</mediatype>
						<trackindex>1</trackindex>
						<clipindex>33</clipindex>
					</link>
					<link>
						<linkclipref>010_06_02_A3</linkclipref>
						<mediatype>audio</mediatype>
						<trackindex>2</trackindex>
						<clipindex>33</clipindex>
					</link>
					<link>
						<linkclipref>010_06_02_A4</linkclipref>
						<mediatype>audio</mediatype>
						<trackindex>3</trackindex>
						<clipindex>31</clipindex>
					</link>
					<link>
						<linkclipref>010_06_02_A5</linkclipref>
						<mediatype>audio</mediatype>
						<trackindex>4</trackindex>
						<clipindex>21</clipindex>
					</link>
					<link>
						<linkclipref>010_06_02_A6</linkclipref>
						<mediatype>audio</mediatype>
						<trackindex>5</trackindex>
						<clipindex>3</clipindex>
					</link>
					<fielddominance>none</fielddominance>
					<itemhistory>
						<uuid>FB977284-7AEB-4398-A702-D22CC590AB9C</uuid>
					</itemhistory>
				</clipitem>
				<clipitem id="010_06_02_B">
					<name>010_06_02_B</name>
					<duration>668</duration>
					<rate>
						<ntsc>FALSE</ntsc>
						<timebase>24</timebase>
					</rate>
					<in>0</in>
					<out>668</out>
					<start>20353</start>
					<end>21021</end>
					<pixelaspectratio>Square</pixelaspectratio>
					<enabled>TRUE</enabled>
					<anamorphic>FALSE</anamorphic>
					<alphatype>none</alphatype>
					<masterclipid>010_06_02_B1</masterclipid>
					<logginginfo>
						<scene/>
						<shottake/>
						<lognote/>
						<good>FALSE</good>
					</logginginfo>
					<labels>
						<label2/>
					</labels>
					<comments>
						<mastercomment1/>
						<mastercomment2/>
						<mastercomment3/>
						<mastercomment4/>
					</comments>
					<file id="B002C002_130101_R1WX">
						<name>B002C002_130101_R1WX.mov</name>
						<pathurl>file://localhost/Volumes/%E3%80%8A%E6%98%8F%E5%A4%B4%E8%BD%AC%E5%90%91%E3%80%8B%20Editing/%E6%98%8F%E5%A4%B4%E8%BD%AC%E5%90%91/%E8%BD%AC%E7%A0%81%E7%B4%A0%E6%9D%90/20221211/B002R1WX/B002C002_130101_R1WX.mov</pathurl>
						<rate>
							<timebase>24</timebase>
						</rate>
						<duration>668</duration>
						<timecode>
							<rate>
								<timebase>24</timebase>
							</rate>
							<string>11:50:34:18</string>
							<frame>1023234</frame>
							<displayformat>NDF</displayformat>
							<source>source</source>
							<reel>
								<name>B002R1WX</name>
							</reel>
						</timecode>
						<media>
							<video>
								<duration>668</duration>
								<samplecharacteristics>
									<width>1920</width>
									<height>1080</height>
								</samplecharacteristics>
							</video>
							<audio>
								<samplecharacteristics>
									<samplerate>48000</samplerate>
									<depth>24</depth>
								</samplecharacteristics>
								<channelcount>1</channelcount>
							</audio>
							<audio>
								<samplecharacteristics>
									<samplerate>48000</samplerate>
									<depth>24</depth>
								</samplecharacteristics>
								<channelcount>1</channelcount>
							</audio>
							<audio>
								<samplecharacteristics>
									<samplerate>48000</samplerate>
									<depth>24</depth>
								</samplecharacteristics>
								<channelcount>1</channelcount>
							</audio>
							<audio>
								<samplecharacteristics>
									<samplerate>48000</samplerate>
									<depth>24</depth>
								</samplecharacteristics>
								<channelcount>1</channelcount>
							</audio>
							<audio>
								<samplecharacteristics>
									<samplerate>48000</samplerate>
									<depth>24</depth>
								</samplecharacteristics>
								<channelcount>1</channelcount>
							</audio>
						</media>
					</file>
					<sourcetrack>
						<mediatype>video</mediatype>
					</sourcetrack>
					<link>
						<linkclipref>010_06_02_B</linkclipref>
						<mediatype>video</mediatype>
						<trackindex>1</trackindex>
						<clipindex>34</clipindex>
					</link>
					<link>
						<linkclipref>010_06_02_B2</linkclipref>
						<mediatype>audio</mediatype>
						<trackindex>1</trackindex>
						<clipindex>34</clipindex>
					</link>
					<link>
						<linkclipref>010_06_02_B3</linkclipref>
						<mediatype>audio</mediatype>
						<trackindex>2</trackindex>
						<clipindex>34</clipindex>
					</link>
					<link>
						<linkclipref>010_06_02_B4</linkclipref>
						<mediatype>audio</mediatype>
						<trackindex>3</trackindex>
						<clipindex>32</clipindex>
					</link>
					<link>
						<linkclipref>010_06_02_B5</linkclipref>
						<mediatype>audio</mediatype>
						<trackindex>4</trackindex>
						<clipindex>22</clipindex>
					</link>
					<link>
						<linkclipref>010_06_02_B6</linkclipref>
						<mediatype>audio</mediatype>
						<trackindex>5</trackindex>
						<clipindex>4</clipindex>
					</link>
					<fielddominance>none</fielddominance>
					<itemhistory>
						<uuid>74281AB6-71CF-476A-BB37-B74BA66D664E</uuid>
					</itemhistory>
				</clipitem>
				<clipitem id="010_06_03_A_后面OK">
					<name>010_06_03_A_后面OK</name>
					<duration>2177</duration>
					<rate>
						<ntsc>FALSE</ntsc>
						<timebase>24</timebase>
					</rate>
					<in>0</in>
					<out>2177</out>
					<start>21021</start>
					<end>23198</end>
					<pixelaspectratio>Square</pixelaspectratio>
					<enabled>TRUE</enabled>
					<anamorphic>FALSE</anamorphic>
					<alphatype>none</alphatype>
					<masterclipid>010_06_03_A_后面OK1</masterclipid>
					<logginginfo>
						<scene/>
						<shottake/>
						<lognote/>
						<good>FALSE</good>
					</logginginfo>
					<labels>
						<label2/>
					</labels>
					<comments>
						<mastercomment1/>
						<mastercomment2/>
						<mastercomment3/>
						<mastercomment4/>
					</comments>
					<file id="A002C003_221211_R03K">
						<name>A002C003_221211_R03K.mov</name>
						<pathurl>file://localhost/Volumes/%E3%80%8A%E6%98%8F%E5%A4%B4%E8%BD%AC%E5%90%91%E3%80%8B%20Editing/%E6%98%8F%E5%A4%B4%E8%BD%AC%E5%90%91/%E8%BD%AC%E7%A0%81%E7%B4%A0%E6%9D%90/20221211/A002R03K/A002C003_221211_R03K.mov</pathurl>
						<rate>
							<timebase>24</timebase>
						</rate>
						<duration>2177</duration>
						<timecode>
							<rate>
								<timebase>24</timebase>
							</rate>
							<string>11:51:41:02</string>
							<frame>1024826</frame>
							<displayformat>NDF</displayformat>
							<source>source</source>
							<reel>
								<name>A002R03K</name>
							</reel>
						</timecode>
						<media>
							<video>
								<duration>2177</duration>
								<samplecharacteristics>
									<width>1920</width>
									<height>1080</height>
								</samplecharacteristics>
							</video>
							<audio>
								<samplecharacteristics>
									<samplerate>48000</samplerate>
									<depth>24</depth>
								</samplecharacteristics>
								<channelcount>1</channelcount>
							</audio>
							<audio>
								<samplecharacteristics>
									<samplerate>48000</samplerate>
									<depth>24</depth>
								</samplecharacteristics>
								<channelcount>1</channelcount>
							</audio>
							<audio>
								<samplecharacteristics>
									<samplerate>48000</samplerate>
									<depth>24</depth>
								</samplecharacteristics>
								<channelcount>1</channelcount>
							</audio>
							<audio>
								<samplecharacteristics>
									<samplerate>48000</samplerate>
									<depth>24</depth>
								</samplecharacteristics>
								<channelcount>1</channelcount>
							</audio>
							<audio>
								<samplecharacteristics>
									<samplerate>48000</samplerate>
									<depth>24</depth>
								</samplecharacteristics>
								<channelcount>1</channelcount>
							</audio>
						</media>
					</file>
					<sourcetrack>
						<mediatype>video</mediatype>
					</sourcetrack>
					<link>
						<linkclipref>010_06_03_A_后面OK</linkclipref>
						<mediatype>video</mediatype>
						<trackindex>1</trackindex>
						<clipindex>35</clipindex>
					</link>
					<link>
						<linkclipref>010_06_03_A_后面OK2</linkclipref>
						<mediatype>audio</mediatype>
						<trackindex>1</trackindex>
						<clipindex>35</clipindex>
					</link>
					<link>
						<linkclipref>010_06_03_A_后面OK3</linkclipref>
						<mediatype>audio</mediatype>
						<trackindex>2</trackindex>
						<clipindex>35</clipindex>
					</link>
					<link>
						<linkclipref>010_06_03_A_后面OK4</linkclipref>
						<mediatype>audio</mediatype>
						<trackindex>3</trackindex>
						<clipindex>33</clipindex>
					</link>
					<link>
						<linkclipref>010_06_03_A_后面OK5</linkclipref>
						<mediatype>audio</mediatype>
						<trackindex>4</trackindex>
						<clipindex>23</clipindex>
					</link>
					<link>
						<linkclipref>010_06_03_A_后面OK6</linkclipref>
						<mediatype>audio</mediatype>
						<trackindex>5</trackindex>
						<clipindex>5</clipindex>
					</link>
					<fielddominance>none</fielddominance>
					<itemhistory>
						<uuid>9712413F-BDD2-4917-AEB7-F6017695DB7B</uuid>
					</itemhistory>
				</clipitem>
				<clipitem id="010_06_03_B_后面OK">
					<name>010_06_03_B_后面OK</name>
					<duration>2160</duration>
					<rate>
						<ntsc>FALSE</ntsc>
						<timebase>24</timebase>
					</rate>
					<in>425</in>
					<out>495</out>
					<start>23198</start>
					<end>23268</end>
					<pixelaspectratio>Square</pixelaspectratio>
					<enabled>TRUE</enabled>
					<anamorphic>FALSE</anamorphic>
					<alphatype>none</alphatype>
					<masterclipid>010_06_03_B_后面OK1</masterclipid>
					<logginginfo>
						<scene/>
						<shottake/>
						<lognote/>
						<good>FALSE</good>
					</logginginfo>
					<labels>
						<label2/>
					</labels>
					<comments>
						<mastercomment1/>
						<mastercomment2/>
						<mastercomment3/>
						<mastercomment4/>
					</comments>
					<file id="B002C003_130101_R1WX">
						<name>B002C003_130101_R1WX.mov</name>
						<pathurl>file://localhost/Volumes/%E3%80%8A%E6%98%8F%E5%A4%B4%E8%BD%AC%E5%90%91%E3%80%8B%20Editing/%E6%98%8F%E5%A4%B4%E8%BD%AC%E5%90%91/%E8%BD%AC%E7%A0%81%E7%B4%A0%E6%9D%90/20221211/B002R1WX/B002C003_130101_R1WX.mov</pathurl>
						<rate>
							<timebase>24</timebase>
						</rate>
						<duration>2160</duration>
						<timecode>
							<rate>
								<timebase>24</timebase>
							</rate>
							<string>11:51:41:20</string>
							<frame>1024844</frame>
							<displayformat>NDF</displayformat>
							<source>source</source>
							<reel>
								<name>B002R1WX</name>
							</reel>
						</timecode>
						<media>
							<video>
								<duration>2160</duration>
								<samplecharacteristics>
									<width>1920</width>
									<height>1080</height>
								</samplecharacteristics>
							</video>
							<audio>
								<samplecharacteristics>
									<samplerate>48000</samplerate>
									<depth>24</depth>
								</samplecharacteristics>
								<channelcount>1</channelcount>
							</audio>
							<audio>
								<samplecharacteristics>
									<samplerate>48000</samplerate>
									<depth>24</depth>
								</samplecharacteristics>
								<channelcount>1</channelcount>
							</audio>
							<audio>
								<samplecharacteristics>
									<samplerate>48000</samplerate>
									<depth>24</depth>
								</samplecharacteristics>
								<channelcount>1</channelcount>
							</audio>
							<audio>
								<samplecharacteristics>
									<samplerate>48000</samplerate>
									<depth>24</depth>
								</samplecharacteristics>
								<channelcount>1</channelcount>
							</audio>
							<audio>
								<samplecharacteristics>
									<samplerate>48000</samplerate>
									<depth>24</depth>
								</samplecharacteristics>
								<channelcount>1</channelcount>
							</audio>
						</media>
					</file>
					<sourcetrack>
						<mediatype>video</mediatype>
					</sourcetrack>
					<link>
						<linkclipref>010_06_03_B_后面OK</linkclipref>
						<mediatype>video</mediatype>
						<trackindex>1</trackindex>
						<clipindex>36</clipindex>
					</link>
					<link>
						<linkclipref>010_06_03_B_后面OK2</linkclipref>
						<mediatype>audio</mediatype>
						<trackindex>1</trackindex>
						<clipindex>36</clipindex>
					</link>
					<link>
						<linkclipref>010_06_03_B_后面OK3</linkclipref>
						<mediatype>audio</mediatype>
						<trackindex>2</trackindex>
						<clipindex>36</clipindex>
					</link>
					<link>
						<linkclipref>010_06_03_B_后面OK4</linkclipref>
						<mediatype>audio</mediatype>
						<trackindex>3</trackindex>
						<clipindex>34</clipindex>
					</link>
					<link>
						<linkclipref>010_06_03_B_后面OK5</linkclipref>
						<mediatype>audio</mediatype>
						<trackindex>4</trackindex>
						<clipindex>24</clipindex>
					</link>
					<link>
						<linkclipref>010_06_03_B_后面OK6</linkclipref>
						<mediatype>audio</mediatype>
						<trackindex>5</trackindex>
						<clipindex>6</clipindex>
					</link>
					<fielddominance>none</fielddominance>
					<itemhistory>
						<uuid>B82A4158-D545-4AAF-8E7B-49520809B4F2</uuid>
					</itemhistory>
				</clipitem>
				<clipitem id="010_06_04_A_前面OK">
					<name>010_06_04_A_前面OK</name>
					<duration>877</duration>
					<rate>
						<ntsc>FALSE</ntsc>
						<timebase>24</timebase>
					</rate>
					<in>582</in>
					<out>777</out>
					<start>23268</start>
					<end>23463</end>
					<pixelaspectratio>Square</pixelaspectratio>
					<enabled>TRUE</enabled>
					<anamorphic>FALSE</anamorphic>
					<alphatype>none</alphatype>
					<masterclipid>010_06_04_A_前面OK1</masterclipid>
					<logginginfo>
						<scene/>
						<shottake/>
						<lognote/>
						<good>FALSE</good>
					</logginginfo>
					<labels>
						<label2/>
					</labels>
					<comments>
						<mastercomment1/>
						<mastercomment2/>
						<mastercomment3/>
						<mastercomment4/>
					</comments>
					<file id="A002C004_221211_R03K">
						<name>A002C004_221211_R03K.mov</name>
						<pathurl>file://localhost/Volumes/%E3%80%8A%E6%98%8F%E5%A4%B4%E8%BD%AC%E5%90%91%E3%80%8B%20Editing/%E6%98%8F%E5%A4%B4%E8%BD%AC%E5%90%91/%E8%BD%AC%E7%A0%81%E7%B4%A0%E6%9D%90/20221211/A002R03K/A002C004_221211_R03K.mov</pathurl>
						<rate>
							<timebase>24</timebase>
						</rate>
						<duration>877</duration>
						<timecode>
							<rate>
								<timebase>24</timebase>
							</rate>
							<string>11:54:55:22</string>
							<frame>1029502</frame>
							<displayformat>NDF</displayformat>
							<source>source</source>
							<reel>
								<name>A002R03K</name>
							</reel>
						</timecode>
						<media>
							<video>
								<duration>877</duration>
								<samplecharacteristics>
									<width>1920</width>
									<height>1080</height>
								</samplecharacteristics>
							</video>
							<audio>
								<samplecharacteristics>
									<samplerate>48000</samplerate>
									<depth>24</depth>
								</samplecharacteristics>
								<channelcount>1</channelcount>
							</audio>
							<audio>
								<samplecharacteristics>
									<samplerate>48000</samplerate>
									<depth>24</depth>
								</samplecharacteristics>
								<channelcount>1</channelcount>
							</audio>
							<audio>
								<samplecharacteristics>
									<samplerate>48000</samplerate>
									<depth>24</depth>
								</samplecharacteristics>
								<channelcount>1</channelcount>
							</audio>
							<audio>
								<samplecharacteristics>
									<samplerate>48000</samplerate>
									<depth>24</depth>
								</samplecharacteristics>
								<channelcount>1</channelcount>
							</audio>
							<audio>
								<samplecharacteristics>
									<samplerate>48000</samplerate>
									<depth>24</depth>
								</samplecharacteristics>
								<channelcount>1</channelcount>
							</audio>
						</media>
					</file>
					<sourcetrack>
						<mediatype>video</mediatype>
					</sourcetrack>
					<link>
						<linkclipref>010_06_04_A_前面OK</linkclipref>
						<mediatype>video</mediatype>
						<trackindex>1</trackindex>
						<clipindex>37</clipindex>
					</link>
					<link>
						<linkclipref>010_06_04_A_前面OK2</linkclipref>
						<mediatype>audio</mediatype>
						<trackindex>1</trackindex>
						<clipindex>37</clipindex>
					</link>
					<link>
						<linkclipref>010_06_04_A_前面OK3</linkclipref>
						<mediatype>audio</mediatype>
						<trackindex>2</trackindex>
						<clipindex>37</clipindex>
					</link>
					<link>
						<linkclipref>010_06_04_A_前面OK4</linkclipref>
						<mediatype>audio</mediatype>
						<trackindex>3</trackindex>
						<clipindex>35</clipindex>
					</link>
					<link>
						<linkclipref>010_06_04_A_前面OK5</linkclipref>
						<mediatype>audio</mediatype>
						<trackindex>4</trackindex>
						<clipindex>25</clipindex>
					</link>
					<link>
						<linkclipref>010_06_04_A_前面OK6</linkclipref>
						<mediatype>audio</mediatype>
						<trackindex>5</trackindex>
						<clipindex>7</clipindex>
					</link>
					<fielddominance>none</fielddominance>
					<itemhistory>
						<uuid>750F723F-B28E-484D-A834-90E23B31721F</uuid>
					</itemhistory>
				</clipitem>
				<clipitem id="010_06_04_B_后面OK">
					<name>010_06_04_B_后面OK</name>
					<duration>839</duration>
					<rate>
						<ntsc>FALSE</ntsc>
						<timebase>24</timebase>
					</rate>
					<in>399</in>
					<out>487</out>
					<start>23463</start>
					<end>23551</end>
					<pixelaspectratio>Square</pixelaspectratio>
					<enabled>TRUE</enabled>
					<anamorphic>FALSE</anamorphic>
					<alphatype>none</alphatype>
					<masterclipid>010_06_04_B_后面OK1</masterclipid>
					<logginginfo>
						<scene/>
						<shottake/>
						<lognote/>
						<good>FALSE</good>
					</logginginfo>
					<labels>
						<label2/>
					</labels>
					<comments>
						<mastercomment1/>
						<mastercomment2/>
						<mastercomment3/>
						<mastercomment4/>
					</comments>
					<file id="B002C004_130101_R1WX">
						<name>B002C004_130101_R1WX.mov</name>
						<pathurl>file://localhost/Volumes/%E3%80%8A%E6%98%8F%E5%A4%B4%E8%BD%AC%E5%90%91%E3%80%8B%20Editing/%E6%98%8F%E5%A4%B4%E8%BD%AC%E5%90%91/%E8%BD%AC%E7%A0%81%E7%B4%A0%E6%9D%90/20221211/B002R1WX/B002C004_130101_R1WX.mov</pathurl>
						<rate>
							<timebase>24</timebase>
						</rate>
						<duration>839</duration>
						<timecode>
							<rate>
								<timebase>24</timebase>
							</rate>
							<string>11:54:56:23</string>
							<frame>1029527</frame>
							<displayformat>NDF</displayformat>
							<source>source</source>
							<reel>
								<name>B002R1WX</name>
							</reel>
						</timecode>
						<media>
							<video>
								<duration>839</duration>
								<samplecharacteristics>
									<width>1920</width>
									<height>1080</height>
								</samplecharacteristics>
							</video>
							<audio>
								<samplecharacteristics>
									<samplerate>48000</samplerate>
									<depth>24</depth>
								</samplecharacteristics>
								<channelcount>1</channelcount>
							</audio>
							<audio>
								<samplecharacteristics>
									<samplerate>48000</samplerate>
									<depth>24</depth>
								</samplecharacteristics>
								<channelcount>1</channelcount>
							</audio>
							<audio>
								<samplecharacteristics>
									<samplerate>48000</samplerate>
									<depth>24</depth>
								</samplecharacteristics>
								<channelcount>1</channelcount>
							</audio>
							<audio>
								<samplecharacteristics>
									<samplerate>48000</samplerate>
									<depth>24</depth>
								</samplecharacteristics>
								<channelcount>1</channelcount>
							</audio>
							<audio>
								<samplecharacteristics>
									<samplerate>48000</samplerate>
									<depth>24</depth>
								</samplecharacteristics>
								<channelcount>1</channelcount>
							</audio>
						</media>
					</file>
					<sourcetrack>
						<mediatype>video</mediatype>
					</sourcetrack>
					<link>
						<linkclipref>010_06_04_B_后面OK</linkclipref>
						<mediatype>video</mediatype>
						<trackindex>1</trackindex>
						<clipindex>38</clipindex>
					</link>
					<link>
						<linkclipref>010_06_04_B_后面OK2</linkclipref>
						<mediatype>audio</mediatype>
						<trackindex>1</trackindex>
						<clipindex>38</clipindex>
					</link>
					<link>
						<linkclipref>010_06_04_B_后面OK3</linkclipref>
						<mediatype>audio</mediatype>
						<trackindex>2</trackindex>
						<clipindex>38</clipindex>
					</link>
					<link>
						<linkclipref>010_06_04_B_后面OK4</linkclipref>
						<mediatype>audio</mediatype>
						<trackindex>3</trackindex>
						<clipindex>36</clipindex>
					</link>
					<link>
						<linkclipref>010_06_04_B_后面OK5</linkclipref>
						<mediatype>audio</mediatype>
						<trackindex>4</trackindex>
						<clipindex>26</clipindex>
					</link>
					<link>
						<linkclipref>010_06_04_B_后面OK6</linkclipref>
						<mediatype>audio</mediatype>
						<trackindex>5</trackindex>
						<clipindex>8</clipindex>
					</link>
					<fielddominance>none</fielddominance>
					<itemhistory>
						<uuid>3CEB9355-94EB-47D0-86CB-CA66A66A938B</uuid>
					</itemhistory>
				</clipitem>
				<clipitem id="010_07_01_A">
					<name>010_07_01_A</name>
					<duration>1967</duration>
					<rate>
						<ntsc>FALSE</ntsc>
						<timebase>24</timebase>
					</rate>
					<in>0</in>
					<out>1967</out>
					<start>23551</start>
					<end>25518</end>
					<pixelaspectratio>Square</pixelaspectratio>
					<enabled>TRUE</enabled>
					<anamorphic>FALSE</anamorphic>
					<alphatype>none</alphatype>
					<masterclipid>010_07_01_A1</masterclipid>
					<logginginfo>
						<scene/>
						<shottake/>
						<lognote/>
						<good>FALSE</good>
					</logginginfo>
					<labels>
						<label2/>
					</labels>
					<comments>
						<mastercomment1/>
						<mastercomment2/>
						<mastercomment3/>
						<mastercomment4/>
					</comments>
					<file id="A002C005_221211_R03K">
						<name>A002C005_221211_R03K.mov</name>
						<pathurl>file://localhost/Volumes/%E3%80%8A%E6%98%8F%E5%A4%B4%E8%BD%AC%E5%90%91%E3%80%8B%20Editing/%E6%98%8F%E5%A4%B4%E8%BD%AC%E5%90%91/%E8%BD%AC%E7%A0%81%E7%B4%A0%E6%9D%90/20221211/A002R03K/A002C005_221211_R03K.mov</pathurl>
						<rate>
							<timebase>24</timebase>
						</rate>
						<duration>1967</duration>
						<timecode>
							<rate>
								<timebase>24</timebase>
							</rate>
							<string>12:05:02:21</string>
							<frame>1044069</frame>
							<displayformat>NDF</displayformat>
							<source>source</source>
							<reel>
								<name>A002R03K</name>
							</reel>
						</timecode>
						<media>
							<video>
								<duration>1967</duration>
								<samplecharacteristics>
									<width>1920</width>
									<height>1080</height>
								</samplecharacteristics>
							</video>
							<audio>
								<samplecharacteristics>
									<samplerate>48000</samplerate>
									<depth>24</depth>
								</samplecharacteristics>
								<channelcount>1</channelcount>
							</audio>
							<audio>
								<samplecharacteristics>
									<samplerate>48000</samplerate>
									<depth>24</depth>
								</samplecharacteristics>
								<channelcount>1</channelcount>
							</audio>
							<audio>
								<samplecharacteristics>
									<samplerate>48000</samplerate>
									<depth>24</depth>
								</samplecharacteristics>
								<channelcount>1</channelcount>
							</audio>
						</media>
					</file>
					<sourcetrack>
						<mediatype>video</mediatype>
					</sourcetrack>
					<link>
						<linkclipref>010_07_01_A</linkclipref>
						<mediatype>video</mediatype>
						<trackindex>1</trackindex>
						<clipindex>39</clipindex>
					</link>
					<link>
						<linkclipref>010_07_01_A2</linkclipref>
						<mediatype>audio</mediatype>
						<trackindex>1</trackindex>
						<clipindex>39</clipindex>
					</link>
					<link>
						<linkclipref>010_07_01_A3</linkclipref>
						<mediatype>audio</mediatype>
						<trackindex>2</trackindex>
						<clipindex>39</clipindex>
					</link>
					<link>
						<linkclipref>010_07_01_A4</linkclipref>
						<mediatype>audio</mediatype>
						<trackindex>3</trackindex>
						<clipindex>37</clipindex>
					</link>
					<fielddominance>none</fielddominance>
					<itemhistory>
						<uuid>CC9AAF4E-54A7-45F5-BD4F-093F8EE9CCEB</uuid>
					</itemhistory>
				</clipitem>
				<clipitem id="010_07_01_B_KP">
					<name>010_07_01_B_KP</name>
					<duration>430</duration>
					<rate>
						<ntsc>FALSE</ntsc>
						<timebase>24</timebase>
					</rate>
					<in>204</in>
					<out>287</out>
					<start>25518</start>
					<end>25601</end>
					<pixelaspectratio>Square</pixelaspectratio>
					<enabled>TRUE</enabled>
					<anamorphic>FALSE</anamorphic>
					<alphatype>none</alphatype>
					<masterclipid>010_07_01_B_KP1</masterclipid>
					<logginginfo>
						<scene/>
						<shottake/>
						<lognote/>
						<good>FALSE</good>
					</logginginfo>
					<labels>
						<label2/>
					</labels>
					<comments>
						<mastercomment1/>
						<mastercomment2/>
						<mastercomment3/>
						<mastercomment4/>
					</comments>
					<file id="B002C005_130101_R1WX">
						<name>B002C005_130101_R1WX.mov</name>
						<pathurl>file://localhost/Volumes/%E3%80%8A%E6%98%8F%E5%A4%B4%E8%BD%AC%E5%90%91%E3%80%8B%20Editing/%E6%98%8F%E5%A4%B4%E8%BD%AC%E5%90%91/%E8%BD%AC%E7%A0%81%E7%B4%A0%E6%9D%90/20221211/B002R1WX/B002C005_130101_R1WX.mov</pathurl>
						<rate>
							<timebase>24</timebase>
						</rate>
						<duration>430</duration>
						<timecode>
							<rate>
								<timebase>24</timebase>
							</rate>
							<string>12:59:06:07</string>
							<frame>1121911</frame>
							<displayformat>NDF</displayformat>
							<source>source</source>
							<reel>
								<name>B002R1WX</name>
							</reel>
						</timecode>
						<media>
							<video>
								<duration>430</duration>
								<samplecharacteristics>
									<width>1920</width>
									<height>1080</height>
								</samplecharacteristics>
							</video>
							<audio>
								<samplecharacteristics>
									<samplerate>48000</samplerate>
									<depth>24</depth>
								</samplecharacteristics>
								<channelcount>1</channelcount>
							</audio>
							<audio>
								<samplecharacteristics>
									<samplerate>48000</samplerate>
									<depth>24</depth>
								</samplecharacteristics>
								<channelcount>1</channelcount>
							</audio>
							<audio>
								<samplecharacteristics>
									<samplerate>48000</samplerate>
									<depth>24</depth>
								</samplecharacteristics>
								<channelcount>1</channelcount>
							</audio>
							<audio>
								<samplecharacteristics>
									<samplerate>48000</samplerate>
									<depth>24</depth>
								</samplecharacteristics>
								<channelcount>1</channelcount>
							</audio>
						</media>
					</file>
					<sourcetrack>
						<mediatype>video</mediatype>
					</sourcetrack>
					<link>
						<linkclipref>010_07_01_B_KP</linkclipref>
						<mediatype>video</mediatype>
						<trackindex>1</trackindex>
						<clipindex>40</clipindex>
					</link>
					<link>
						<linkclipref>010_07_01_B_KP2</linkclipref>
						<mediatype>audio</mediatype>
						<trackindex>1</trackindex>
						<clipindex>40</clipindex>
					</link>
					<link>
						<linkclipref>010_07_01_B_KP3</linkclipref>
						<mediatype>audio</mediatype>
						<trackindex>2</trackindex>
						<clipindex>40</clipindex>
					</link>
					<link>
						<linkclipref>010_07_01_B_KP4</linkclipref>
						<mediatype>audio</mediatype>
						<trackindex>3</trackindex>
						<clipindex>38</clipindex>
					</link>
					<link>
						<linkclipref>010_07_01_B_KP5</linkclipref>
						<mediatype>audio</mediatype>
						<trackindex>4</trackindex>
						<clipindex>27</clipindex>
					</link>
					<fielddominance>none</fielddominance>
					<itemhistory>
						<uuid>99E5E0A7-12B6-44C0-935D-40D71A29D16B</uuid>
					</itemhistory>
				</clipitem>
				<clipitem id="010_07_02_A">
					<name>010_07_02_A</name>
					<duration>317</duration>
					<rate>
						<ntsc>FALSE</ntsc>
						<timebase>24</timebase>
					</rate>
					<in>0</in>
					<out>317</out>
					<start>25601</start>
					<end>25918</end>
					<pixelaspectratio>Square</pixelaspectratio>
					<enabled>TRUE</enabled>
					<anamorphic>FALSE</anamorphic>
					<alphatype>none</alphatype>
					<masterclipid>010_07_02_A1</masterclipid>
					<logginginfo>
						<scene/>
						<shottake/>
						<lognote/>
						<good>FALSE</good>
					</logginginfo>
					<labels>
						<label2/>
					</labels>
					<comments>
						<mastercomment1/>
						<mastercomment2/>
						<mastercomment3/>
						<mastercomment4/>
					</comments>
					<file id="A002C006_221211_R03K">
						<name>A002C006_221211_R03K.mov</name>
						<pathurl>file://localhost/Volumes/%E3%80%8A%E6%98%8F%E5%A4%B4%E8%BD%AC%E5%90%91%E3%80%8B%20Editing/%E6%98%8F%E5%A4%B4%E8%BD%AC%E5%90%91/%E8%BD%AC%E7%A0%81%E7%B4%A0%E6%9D%90/20221211/A002R03K/A002C006_221211_R03K.mov</pathurl>
						<rate>
							<timebase>24</timebase>
						</rate>
						<duration>317</duration>
						<timecode>
							<rate>
								<timebase>24</timebase>
							</rate>
							<string>12:07:40:16</string>
							<frame>1047856</frame>
							<displayformat>NDF</displayformat>
							<source>source</source>
							<reel>
								<name>A002R03K</name>
							</reel>
						</timecode>
						<media>
							<video>
								<duration>317</duration>
								<samplecharacteristics>
									<width>1920</width>
									<height>1080</height>
								</samplecharacteristics>
							</video>
							<audio>
								<samplecharacteristics>
									<samplerate>48000</samplerate>
									<depth>24</depth>
								</samplecharacteristics>
								<channelcount>1</channelcount>
							</audio>
							<audio>
								<samplecharacteristics>
									<samplerate>48000</samplerate>
									<depth>24</depth>
								</samplecharacteristics>
								<channelcount>1</channelcount>
							</audio>
							<audio>
								<samplecharacteristics>
									<samplerate>48000</samplerate>
									<depth>24</depth>
								</samplecharacteristics>
								<channelcount>1</channelcount>
							</audio>
						</media>
					</file>
					<sourcetrack>
						<mediatype>video</mediatype>
					</sourcetrack>
					<link>
						<linkclipref>010_07_02_A</linkclipref>
						<mediatype>video</mediatype>
						<trackindex>1</trackindex>
						<clipindex>41</clipindex>
					</link>
					<link>
						<linkclipref>010_07_02_A2</linkclipref>
						<mediatype>audio</mediatype>
						<trackindex>1</trackindex>
						<clipindex>41</clipindex>
					</link>
					<link>
						<linkclipref>010_07_02_A3</linkclipref>
						<mediatype>audio</mediatype>
						<trackindex>2</trackindex>
						<clipindex>41</clipindex>
					</link>
					<link>
						<linkclipref>010_07_02_A4</linkclipref>
						<mediatype>audio</mediatype>
						<trackindex>3</trackindex>
						<clipindex>39</clipindex>
					</link>
					<fielddominance>none</fielddominance>
					<itemhistory>
						<uuid>0230078B-16B3-440D-B67A-540BFD3C108B</uuid>
					</itemhistory>
				</clipitem>
				<clipitem id="010_07_02_B_KP">
					<name>010_07_02_B_KP</name>
					<duration>474</duration>
					<rate>
						<ntsc>FALSE</ntsc>
						<timebase>24</timebase>
					</rate>
					<in>270</in>
					<out>320</out>
					<start>25918</start>
					<end>25968</end>
					<pixelaspectratio>Square</pixelaspectratio>
					<enabled>TRUE</enabled>
					<anamorphic>FALSE</anamorphic>
					<alphatype>none</alphatype>
					<masterclipid>010_07_02_B_KP1</masterclipid>
					<logginginfo>
						<scene/>
						<shottake/>
						<lognote/>
						<good>FALSE</good>
					</logginginfo>
					<labels>
						<label2/>
					</labels>
					<comments>
						<mastercomment1/>
						<mastercomment2/>
						<mastercomment3/>
						<mastercomment4/>
					</comments>
					<file id="B002C006_130101_R1WX">
						<name>B002C006_130101_R1WX.mov</name>
						<pathurl>file://localhost/Volumes/%E3%80%8A%E6%98%8F%E5%A4%B4%E8%BD%AC%E5%90%91%E3%80%8B%20Editing/%E6%98%8F%E5%A4%B4%E8%BD%AC%E5%90%91/%E8%BD%AC%E7%A0%81%E7%B4%A0%E6%9D%90/20221211/B002R1WX/B002C006_130101_R1WX.mov</pathurl>
						<rate>
							<timebase>24</timebase>
						</rate>
						<duration>474</duration>
						<timecode>
							<rate>
								<timebase>24</timebase>
							</rate>
							<string>12:59:44:12</string>
							<frame>1122828</frame>
							<displayformat>NDF</displayformat>
							<source>source</source>
							<reel>
								<name>B002R1WX</name>
							</reel>
						</timecode>
						<media>
							<video>
								<duration>474</duration>
								<samplecharacteristics>
									<width>1920</width>
									<height>1080</height>
								</samplecharacteristics>
							</video>
							<audio>
								<samplecharacteristics>
									<samplerate>48000</samplerate>
									<depth>24</depth>
								</samplecharacteristics>
								<channelcount>1</channelcount>
							</audio>
							<audio>
								<samplecharacteristics>
									<samplerate>48000</samplerate>
									<depth>24</depth>
								</samplecharacteristics>
								<channelcount>1</channelcount>
							</audio>
							<audio>
								<samplecharacteristics>
									<samplerate>48000</samplerate>
									<depth>24</depth>
								</samplecharacteristics>
								<channelcount>1</channelcount>
							</audio>
							<audio>
								<samplecharacteristics>
									<samplerate>48000</samplerate>
									<depth>24</depth>
								</samplecharacteristics>
								<channelcount>1</channelcount>
							</audio>
						</media>
					</file>
					<sourcetrack>
						<mediatype>video</mediatype>
					</sourcetrack>
					<link>
						<linkclipref>010_07_02_B_KP</linkclipref>
						<mediatype>video</mediatype>
						<trackindex>1</trackindex>
						<clipindex>42</clipindex>
					</link>
					<link>
						<linkclipref>010_07_02_B_KP2</linkclipref>
						<mediatype>audio</mediatype>
						<trackindex>1</trackindex>
						<clipindex>42</clipindex>
					</link>
					<link>
						<linkclipref>010_07_02_B_KP3</linkclipref>
						<mediatype>audio</mediatype>
						<trackindex>2</trackindex>
						<clipindex>42</clipindex>
					</link>
					<link>
						<linkclipref>010_07_02_B_KP4</linkclipref>
						<mediatype>audio</mediatype>
						<trackindex>3</trackindex>
						<clipindex>40</clipindex>
					</link>
					<link>
						<linkclipref>010_07_02_B_KP5</linkclipref>
						<mediatype>audio</mediatype>
						<trackindex>4</trackindex>
						<clipindex>28</clipindex>
					</link>
					<fielddominance>none</fielddominance>
					<itemhistory>
						<uuid>C0AB8FFE-B84A-40D0-AC6B-310751DD617D</uuid>
					</itemhistory>
				</clipitem>
				<clipitem id="010_07_03_A">
					<name>010_07_03_A</name>
					<duration>727</duration>
					<rate>
						<ntsc>FALSE</ntsc>
						<timebase>24</timebase>
					</rate>
					<in>0</in>
					<out>727</out>
					<start>25968</start>
					<end>26695</end>
					<pixelaspectratio>Square</pixelaspectratio>
					<enabled>TRUE</enabled>
					<anamorphic>FALSE</anamorphic>
					<alphatype>none</alphatype>
					<masterclipid>010_07_03_A1</masterclipid>
					<logginginfo>
						<scene/>
						<shottake/>
						<lognote/>
						<good>FALSE</good>
					</logginginfo>
					<labels>
						<label2/>
					</labels>
					<comments>
						<mastercomment1/>
						<mastercomment2/>
						<mastercomment3/>
						<mastercomment4/>
					</comments>
					<file id="A002C007_221211_R03K">
						<name>A002C007_221211_R03K.mov</name>
						<pathurl>file://localhost/Volumes/%E3%80%8A%E6%98%8F%E5%A4%B4%E8%BD%AC%E5%90%91%E3%80%8B%20Editing/%E6%98%8F%E5%A4%B4%E8%BD%AC%E5%90%91/%E8%BD%AC%E7%A0%81%E7%B4%A0%E6%9D%90/20221211/A002R03K/A002C007_221211_R03K.mov</pathurl>
						<rate>
							<timebase>24</timebase>
						</rate>
						<duration>727</duration>
						<timecode>
							<rate>
								<timebase>24</timebase>
							</rate>
							<string>12:07:58:19</string>
							<frame>1048291</frame>
							<displayformat>NDF</displayformat>
							<source>source</source>
							<reel>
								<name>A002R03K</name>
							</reel>
						</timecode>
						<media>
							<video>
								<duration>727</duration>
								<samplecharacteristics>
									<width>1920</width>
									<height>1080</height>
								</samplecharacteristics>
							</video>
							<audio>
								<samplecharacteristics>
									<samplerate>48000</samplerate>
									<depth>24</depth>
								</samplecharacteristics>
								<channelcount>1</channelcount>
							</audio>
							<audio>
								<samplecharacteristics>
									<samplerate>48000</samplerate>
									<depth>24</depth>
								</samplecharacteristics>
								<channelcount>1</channelcount>
							</audio>
							<audio>
								<samplecharacteristics>
									<samplerate>48000</samplerate>
									<depth>24</depth>
								</samplecharacteristics>
								<channelcount>1</channelcount>
							</audio>
						</media>
					</file>
					<sourcetrack>
						<mediatype>video</mediatype>
					</sourcetrack>
					<link>
						<linkclipref>010_07_03_A</linkclipref>
						<mediatype>video</mediatype>
						<trackindex>1</trackindex>
						<clipindex>43</clipindex>
					</link>
					<link>
						<linkclipref>010_07_03_A2</linkclipref>
						<mediatype>audio</mediatype>
						<trackindex>1</trackindex>
						<clipindex>43</clipindex>
					</link>
					<link>
						<linkclipref>010_07_03_A3</linkclipref>
						<mediatype>audio</mediatype>
						<trackindex>2</trackindex>
						<clipindex>43</clipindex>
					</link>
					<link>
						<linkclipref>010_07_03_A4</linkclipref>
						<mediatype>audio</mediatype>
						<trackindex>3</trackindex>
						<clipindex>41</clipindex>
					</link>
					<fielddominance>none</fielddominance>
					<itemhistory>
						<uuid>87725631-9945-4EEB-8D32-0A8FBA3FB624</uuid>
					</itemhistory>
				</clipitem>
				<clipitem id="010_07_04_A">
					<name>010_07_04_A</name>
					<duration>554</duration>
					<rate>
						<ntsc>FALSE</ntsc>
						<timebase>24</timebase>
					</rate>
					<in>0</in>
					<out>554</out>
					<start>26695</start>
					<end>27249</end>
					<pixelaspectratio>Square</pixelaspectratio>
					<enabled>TRUE</enabled>
					<anamorphic>FALSE</anamorphic>
					<alphatype>none</alphatype>
					<masterclipid>010_07_04_A1</masterclipid>
					<logginginfo>
						<scene/>
						<shottake/>
						<lognote/>
						<good>FALSE</good>
					</logginginfo>
					<labels>
						<label2/>
					</labels>
					<comments>
						<mastercomment1/>
						<mastercomment2/>
						<mastercomment3/>
						<mastercomment4/>
					</comments>
					<file id="A002C008_221211_R03K">
						<name>A002C008_221211_R03K.mov</name>
						<pathurl>file://localhost/Volumes/%E3%80%8A%E6%98%8F%E5%A4%B4%E8%BD%AC%E5%90%91%E3%80%8B%20Editing/%E6%98%8F%E5%A4%B4%E8%BD%AC%E5%90%91/%E8%BD%AC%E7%A0%81%E7%B4%A0%E6%9D%90/20221211/A002R03K/A002C008_221211_R03K.mov</pathurl>
						<rate>
							<timebase>24</timebase>
						</rate>
						<duration>554</duration>
						<timecode>
							<rate>
								<timebase>24</timebase>
							</rate>
							<string>12:09:16:13</string>
							<frame>1050157</frame>
							<displayformat>NDF</displayformat>
							<source>source</source>
							<reel>
								<name>A002R03K</name>
							</reel>
						</timecode>
						<media>
							<video>
								<duration>554</duration>
								<samplecharacteristics>
									<width>1920</width>
									<height>1080</height>
								</samplecharacteristics>
							</video>
							<audio>
								<samplecharacteristics>
									<samplerate>48000</samplerate>
									<depth>24</depth>
								</samplecharacteristics>
								<channelcount>1</channelcount>
							</audio>
							<audio>
								<samplecharacteristics>
									<samplerate>48000</samplerate>
									<depth>24</depth>
								</samplecharacteristics>
								<channelcount>1</channelcount>
							</audio>
							<audio>
								<samplecharacteristics>
									<samplerate>48000</samplerate>
									<depth>24</depth>
								</samplecharacteristics>
								<channelcount>1</channelcount>
							</audio>
						</media>
					</file>
					<sourcetrack>
						<mediatype>video</mediatype>
					</sourcetrack>
					<link>
						<linkclipref>010_07_04_A</linkclipref>
						<mediatype>video</mediatype>
						<trackindex>1</trackindex>
						<clipindex>44</clipindex>
					</link>
					<link>
						<linkclipref>010_07_04_A2</linkclipref>
						<mediatype>audio</mediatype>
						<trackindex>1</trackindex>
						<clipindex>44</clipindex>
					</link>
					<link>
						<linkclipref>010_07_04_A3</linkclipref>
						<mediatype>audio</mediatype>
						<trackindex>2</trackindex>
						<clipindex>44</clipindex>
					</link>
					<link>
						<linkclipref>010_07_04_A4</linkclipref>
						<mediatype>audio</mediatype>
						<trackindex>3</trackindex>
						<clipindex>42</clipindex>
					</link>
					<fielddominance>none</fielddominance>
					<itemhistory>
						<uuid>5179B78D-2D06-49D6-820D-9F028A4CBC6C</uuid>
					</itemhistory>
				</clipitem>
				<clipitem id="010_07_05_A">
					<name>010_07_05_A</name>
					<duration>594</duration>
					<rate>
						<ntsc>FALSE</ntsc>
						<timebase>24</timebase>
					</rate>
					<in>0</in>
					<out>594</out>
					<start>27249</start>
					<end>27843</end>
					<pixelaspectratio>Square</pixelaspectratio>
					<enabled>TRUE</enabled>
					<anamorphic>FALSE</anamorphic>
					<alphatype>none</alphatype>
					<masterclipid>010_07_05_A1</masterclipid>
					<logginginfo>
						<scene/>
						<shottake/>
						<lognote/>
						<good>FALSE</good>
					</logginginfo>
					<labels>
						<label2/>
					</labels>
					<comments>
						<mastercomment1/>
						<mastercomment2/>
						<mastercomment3/>
						<mastercomment4/>
					</comments>
					<file id="A002C009_221211_R03K">
						<name>A002C009_221211_R03K.mov</name>
						<pathurl>file://localhost/Volumes/%E3%80%8A%E6%98%8F%E5%A4%B4%E8%BD%AC%E5%90%91%E3%80%8B%20Editing/%E6%98%8F%E5%A4%B4%E8%BD%AC%E5%90%91/%E8%BD%AC%E7%A0%81%E7%B4%A0%E6%9D%90/20221211/A002R03K/A002C009_221211_R03K.mov</pathurl>
						<rate>
							<timebase>24</timebase>
						</rate>
						<duration>594</duration>
						<timecode>
							<rate>
								<timebase>24</timebase>
							</rate>
							<string>12:10:22:00</string>
							<frame>1051728</frame>
							<displayformat>NDF</displayformat>
							<source>source</source>
							<reel>
								<name>A002R03K</name>
							</reel>
						</timecode>
						<media>
							<video>
								<duration>594</duration>
								<samplecharacteristics>
									<width>1920</width>
									<height>1080</height>
								</samplecharacteristics>
							</video>
							<audio>
								<samplecharacteristics>
									<samplerate>48000</samplerate>
									<depth>24</depth>
								</samplecharacteristics>
								<channelcount>1</channelcount>
							</audio>
							<audio>
								<samplecharacteristics>
									<samplerate>48000</samplerate>
									<depth>24</depth>
								</samplecharacteristics>
								<channelcount>1</channelcount>
							</audio>
							<audio>
								<samplecharacteristics>
									<samplerate>48000</samplerate>
									<depth>24</depth>
								</samplecharacteristics>
								<channelcount>1</channelcount>
							</audio>
						</media>
					</file>
					<sourcetrack>
						<mediatype>video</mediatype>
					</sourcetrack>
					<link>
						<linkclipref>010_07_05_A</linkclipref>
						<mediatype>video</mediatype>
						<trackindex>1</trackindex>
						<clipindex>45</clipindex>
					</link>
					<link>
						<linkclipref>010_07_05_A2</linkclipref>
						<mediatype>audio</mediatype>
						<trackindex>1</trackindex>
						<clipindex>45</clipindex>
					</link>
					<link>
						<linkclipref>010_07_05_A3</linkclipref>
						<mediatype>audio</mediatype>
						<trackindex>2</trackindex>
						<clipindex>45</clipindex>
					</link>
					<link>
						<linkclipref>010_07_05_A4</linkclipref>
						<mediatype>audio</mediatype>
						<trackindex>3</trackindex>
						<clipindex>43</clipindex>
					</link>
					<fielddominance>none</fielddominance>
					<itemhistory>
						<uuid>415B197A-6D14-41CC-97D5-1149FA6A56E6</uuid>
					</itemhistory>
				</clipitem>
				<clipitem id="010_07_06_A">
					<name>010_07_06_A</name>
					<duration>559</duration>
					<rate>
						<ntsc>FALSE</ntsc>
						<timebase>24</timebase>
					</rate>
					<in>0</in>
					<out>559</out>
					<start>27843</start>
					<end>28402</end>
					<pixelaspectratio>Square</pixelaspectratio>
					<enabled>TRUE</enabled>
					<anamorphic>FALSE</anamorphic>
					<alphatype>none</alphatype>
					<masterclipid>010_07_06_A1</masterclipid>
					<logginginfo>
						<scene/>
						<shottake/>
						<lognote/>
						<good>FALSE</good>
					</logginginfo>
					<labels>
						<label2/>
					</labels>
					<comments>
						<mastercomment1/>
						<mastercomment2/>
						<mastercomment3/>
						<mastercomment4/>
					</comments>
					<file id="A002C010_221211_R03K">
						<name>A002C010_221211_R03K.mov</name>
						<pathurl>file://localhost/Volumes/%E3%80%8A%E6%98%8F%E5%A4%B4%E8%BD%AC%E5%90%91%E3%80%8B%20Editing/%E6%98%8F%E5%A4%B4%E8%BD%AC%E5%90%91/%E8%BD%AC%E7%A0%81%E7%B4%A0%E6%9D%90/20221211/A002R03K/A002C010_221211_R03K.mov</pathurl>
						<rate>
							<timebase>24</timebase>
						</rate>
						<duration>559</duration>
						<timecode>
							<rate>
								<timebase>24</timebase>
							</rate>
							<string>12:11:13:08</string>
							<frame>1052960</frame>
							<displayformat>NDF</displayformat>
							<source>source</source>
							<reel>
								<name>A002R03K</name>
							</reel>
						</timecode>
						<media>
							<video>
								<duration>559</duration>
								<samplecharacteristics>
									<width>1920</width>
									<height>1080</height>
								</samplecharacteristics>
							</video>
							<audio>
								<samplecharacteristics>
									<samplerate>48000</samplerate>
									<depth>24</depth>
								</samplecharacteristics>
								<channelcount>1</channelcount>
							</audio>
							<audio>
								<samplecharacteristics>
									<samplerate>48000</samplerate>
									<depth>24</depth>
								</samplecharacteristics>
								<channelcount>1</channelcount>
							</audio>
							<audio>
								<samplecharacteristics>
									<samplerate>48000</samplerate>
									<depth>24</depth>
								</samplecharacteristics>
								<channelcount>1</channelcount>
							</audio>
						</media>
					</file>
					<sourcetrack>
						<mediatype>video</mediatype>
					</sourcetrack>
					<link>
						<linkclipref>010_07_06_A</linkclipref>
						<mediatype>video</mediatype>
						<trackindex>1</trackindex>
						<clipindex>46</clipindex>
					</link>
					<link>
						<linkclipref>010_07_06_A2</linkclipref>
						<mediatype>audio</mediatype>
						<trackindex>1</trackindex>
						<clipindex>46</clipindex>
					</link>
					<link>
						<linkclipref>010_07_06_A3</linkclipref>
						<mediatype>audio</mediatype>
						<trackindex>2</trackindex>
						<clipindex>46</clipindex>
					</link>
					<link>
						<linkclipref>010_07_06_A4</linkclipref>
						<mediatype>audio</mediatype>
						<trackindex>3</trackindex>
						<clipindex>44</clipindex>
					</link>
					<fielddominance>none</fielddominance>
					<itemhistory>
						<uuid>6F3D75F1-4C66-4892-9F62-FC297F8AA733</uuid>
					</itemhistory>
				</clipitem>
				<clipitem id="010_07_07_A">
					<name>010_07_07_A</name>
					<duration>309</duration>
					<rate>
						<ntsc>FALSE</ntsc>
						<timebase>24</timebase>
					</rate>
					<in>0</in>
					<out>309</out>
					<start>28402</start>
					<end>28711</end>
					<pixelaspectratio>Square</pixelaspectratio>
					<enabled>TRUE</enabled>
					<anamorphic>FALSE</anamorphic>
					<alphatype>none</alphatype>
					<masterclipid>010_07_07_A1</masterclipid>
					<logginginfo>
						<scene/>
						<shottake/>
						<lognote/>
						<good>FALSE</good>
					</logginginfo>
					<labels>
						<label2/>
					</labels>
					<comments>
						<mastercomment1/>
						<mastercomment2/>
						<mastercomment3/>
						<mastercomment4/>
					</comments>
					<file id="A002C011_221211_R03K">
						<name>A002C011_221211_R03K.mov</name>
						<pathurl>file://localhost/Volumes/%E3%80%8A%E6%98%8F%E5%A4%B4%E8%BD%AC%E5%90%91%E3%80%8B%20Editing/%E6%98%8F%E5%A4%B4%E8%BD%AC%E5%90%91/%E8%BD%AC%E7%A0%81%E7%B4%A0%E6%9D%90/20221211/A002R03K/A002C011_221211_R03K.mov</pathurl>
						<rate>
							<timebase>24</timebase>
						</rate>
						<duration>309</duration>
						<timecode>
							<rate>
								<timebase>24</timebase>
							</rate>
							<string>12:12:08:03</string>
							<frame>1054275</frame>
							<displayformat>NDF</displayformat>
							<source>source</source>
							<reel>
								<name>A002R03K</name>
							</reel>
						</timecode>
						<media>
							<video>
								<duration>309</duration>
								<samplecharacteristics>
									<width>1920</width>
									<height>1080</height>
								</samplecharacteristics>
							</video>
							<audio>
								<samplecharacteristics>
									<samplerate>48000</samplerate>
									<depth>24</depth>
								</samplecharacteristics>
								<channelcount>1</channelcount>
							</audio>
							<audio>
								<samplecharacteristics>
									<samplerate>48000</samplerate>
									<depth>24</depth>
								</samplecharacteristics>
								<channelcount>1</channelcount>
							</audio>
							<audio>
								<samplecharacteristics>
									<samplerate>48000</samplerate>
									<depth>24</depth>
								</samplecharacteristics>
								<channelcount>1</channelcount>
							</audio>
						</media>
					</file>
					<sourcetrack>
						<mediatype>video</mediatype>
					</sourcetrack>
					<link>
						<linkclipref>010_07_07_A</linkclipref>
						<mediatype>video</mediatype>
						<trackindex>1</trackindex>
						<clipindex>47</clipindex>
					</link>
					<link>
						<linkclipref>010_07_07_A2</linkclipref>
						<mediatype>audio</mediatype>
						<trackindex>1</trackindex>
						<clipindex>47</clipindex>
					</link>
					<link>
						<linkclipref>010_07_07_A3</linkclipref>
						<mediatype>audio</mediatype>
						<trackindex>2</trackindex>
						<clipindex>47</clipindex>
					</link>
					<link>
						<linkclipref>010_07_07_A4</linkclipref>
						<mediatype>audio</mediatype>
						<trackindex>3</trackindex>
						<clipindex>45</clipindex>
					</link>
					<fielddominance>none</fielddominance>
					<itemhistory>
						<uuid>A1E99AD0-CEC9-4980-BDCF-CCAC9F435D94</uuid>
					</itemhistory>
				</clipitem>
				<clipitem id="010_07_08_A_OK">
					<name>010_07_08_A_OK</name>
					<duration>678</duration>
					<rate>
						<ntsc>FALSE</ntsc>
						<timebase>24</timebase>
					</rate>
					<in>356</in>
					<out>456</out>
					<start>28711</start>
					<end>28811</end>
					<pixelaspectratio>Square</pixelaspectratio>
					<enabled>TRUE</enabled>
					<anamorphic>FALSE</anamorphic>
					<alphatype>none</alphatype>
					<masterclipid>010_07_08_A_OK1</masterclipid>
					<logginginfo>
						<scene/>
						<shottake/>
						<lognote/>
						<good>FALSE</good>
					</logginginfo>
					<labels>
						<label2/>
					</labels>
					<comments>
						<mastercomment1/>
						<mastercomment2/>
						<mastercomment3/>
						<mastercomment4/>
					</comments>
					<file id="A002C012_221211_R03K">
						<name>A002C012_221211_R03K.mov</name>
						<pathurl>file://localhost/Volumes/%E3%80%8A%E6%98%8F%E5%A4%B4%E8%BD%AC%E5%90%91%E3%80%8B%20Editing/%E6%98%8F%E5%A4%B4%E8%BD%AC%E5%90%91/%E8%BD%AC%E7%A0%81%E7%B4%A0%E6%9D%90/20221211/A002R03K/A002C012_221211_R03K.mov</pathurl>
						<rate>
							<timebase>24</timebase>
						</rate>
						<duration>678</duration>
						<timecode>
							<rate>
								<timebase>24</timebase>
							</rate>
							<string>12:12:32:02</string>
							<frame>1054850</frame>
							<displayformat>NDF</displayformat>
							<source>source</source>
							<reel>
								<name>A002R03K</name>
							</reel>
						</timecode>
						<media>
							<video>
								<duration>678</duration>
								<samplecharacteristics>
									<width>1920</width>
									<height>1080</height>
								</samplecharacteristics>
							</video>
							<audio>
								<samplecharacteristics>
									<samplerate>48000</samplerate>
									<depth>24</depth>
								</samplecharacteristics>
								<channelcount>1</channelcount>
							</audio>
							<audio>
								<samplecharacteristics>
									<samplerate>48000</samplerate>
									<depth>24</depth>
								</samplecharacteristics>
								<channelcount>1</channelcount>
							</audio>
							<audio>
								<samplecharacteristics>
									<samplerate>48000</samplerate>
									<depth>24</depth>
								</samplecharacteristics>
								<channelcount>1</channelcount>
							</audio>
						</media>
					</file>
					<sourcetrack>
						<mediatype>video</mediatype>
					</sourcetrack>
					<link>
						<linkclipref>010_07_08_A_OK</linkclipref>
						<mediatype>video</mediatype>
						<trackindex>1</trackindex>
						<clipindex>48</clipindex>
					</link>
					<link>
						<linkclipref>010_07_08_A_OK2</linkclipref>
						<mediatype>audio</mediatype>
						<trackindex>1</trackindex>
						<clipindex>48</clipindex>
					</link>
					<link>
						<linkclipref>010_07_08_A_OK3</linkclipref>
						<mediatype>audio</mediatype>
						<trackindex>2</trackindex>
						<clipindex>48</clipindex>
					</link>
					<link>
						<linkclipref>010_07_08_A_OK4</linkclipref>
						<mediatype>audio</mediatype>
						<trackindex>3</trackindex>
						<clipindex>46</clipindex>
					</link>
					<fielddominance>none</fielddominance>
					<itemhistory>
						<uuid>A21598F6-89E8-460C-ADEB-8883679005C6</uuid>
					</itemhistory>
				</clipitem>
				<clipitem id="010_07_09_A">
					<name>010_07_09_A</name>
					<duration>735</duration>
					<rate>
						<ntsc>FALSE</ntsc>
						<timebase>24</timebase>
					</rate>
					<in>0</in>
					<out>735</out>
					<start>28811</start>
					<end>29546</end>
					<pixelaspectratio>Square</pixelaspectratio>
					<enabled>TRUE</enabled>
					<anamorphic>FALSE</anamorphic>
					<alphatype>none</alphatype>
					<masterclipid>010_07_09_A1</masterclipid>
					<logginginfo>
						<scene/>
						<shottake/>
						<lognote/>
						<good>FALSE</good>
					</logginginfo>
					<labels>
						<label2/>
					</labels>
					<comments>
						<mastercomment1/>
						<mastercomment2/>
						<mastercomment3/>
						<mastercomment4/>
					</comments>
					<file id="A002C013_221211_R03K">
						<name>A002C013_221211_R03K.mov</name>
						<pathurl>file://localhost/Volumes/%E3%80%8A%E6%98%8F%E5%A4%B4%E8%BD%AC%E5%90%91%E3%80%8B%20Editing/%E6%98%8F%E5%A4%B4%E8%BD%AC%E5%90%91/%E8%BD%AC%E7%A0%81%E7%B4%A0%E6%9D%90/20221211/A002R03K/A002C013_221211_R03K.mov</pathurl>
						<rate>
							<timebase>24</timebase>
						</rate>
						<duration>735</duration>
						<timecode>
							<rate>
								<timebase>24</timebase>
							</rate>
							<string>12:13:31:13</string>
							<frame>1056277</frame>
							<displayformat>NDF</displayformat>
							<source>source</source>
							<reel>
								<name>A002R03K</name>
							</reel>
						</timecode>
						<media>
							<video>
								<duration>735</duration>
								<samplecharacteristics>
									<width>1920</width>
									<height>1080</height>
								</samplecharacteristics>
							</video>
							<audio>
								<samplecharacteristics>
									<samplerate>48000</samplerate>
									<depth>24</depth>
								</samplecharacteristics>
								<channelcount>1</channelcount>
							</audio>
							<audio>
								<samplecharacteristics>
									<samplerate>48000</samplerate>
									<depth>24</depth>
								</samplecharacteristics>
								<channelcount>1</channelcount>
							</audio>
							<audio>
								<samplecharacteristics>
									<samplerate>48000</samplerate>
									<depth>24</depth>
								</samplecharacteristics>
								<channelcount>1</channelcount>
							</audio>
						</media>
					</file>
					<sourcetrack>
						<mediatype>video</mediatype>
					</sourcetrack>
					<link>
						<linkclipref>010_07_09_A</linkclipref>
						<mediatype>video</mediatype>
						<trackindex>1</trackindex>
						<clipindex>49</clipindex>
					</link>
					<link>
						<linkclipref>010_07_09_A2</linkclipref>
						<mediatype>audio</mediatype>
						<trackindex>1</trackindex>
						<clipindex>49</clipindex>
					</link>
					<link>
						<linkclipref>010_07_09_A3</linkclipref>
						<mediatype>audio</mediatype>
						<trackindex>2</trackindex>
						<clipindex>49</clipindex>
					</link>
					<link>
						<linkclipref>010_07_09_A4</linkclipref>
						<mediatype>audio</mediatype>
						<trackindex>3</trackindex>
						<clipindex>47</clipindex>
					</link>
					<fielddominance>none</fielddominance>
					<itemhistory>
						<uuid>034B5731-0619-434F-A7B4-922563D97965</uuid>
					</itemhistory>
				</clipitem>
				<clipitem id="010_07_10_A">
					<name>010_07_10_A</name>
					<duration>686</duration>
					<rate>
						<ntsc>FALSE</ntsc>
						<timebase>24</timebase>
					</rate>
					<in>0</in>
					<out>686</out>
					<start>29546</start>
					<end>30232</end>
					<pixelaspectratio>Square</pixelaspectratio>
					<enabled>TRUE</enabled>
					<anamorphic>FALSE</anamorphic>
					<alphatype>none</alphatype>
					<masterclipid>010_07_10_A1</masterclipid>
					<logginginfo>
						<scene/>
						<shottake/>
						<lognote/>
						<good>FALSE</good>
					</logginginfo>
					<labels>
						<label2/>
					</labels>
					<comments>
						<mastercomment1/>
						<mastercomment2/>
						<mastercomment3/>
						<mastercomment4/>
					</comments>
					<file id="A002C014_221211_R03K">
						<name>A002C014_221211_R03K.mov</name>
						<pathurl>file://localhost/Volumes/%E3%80%8A%E6%98%8F%E5%A4%B4%E8%BD%AC%E5%90%91%E3%80%8B%20Editing/%E6%98%8F%E5%A4%B4%E8%BD%AC%E5%90%91/%E8%BD%AC%E7%A0%81%E7%B4%A0%E6%9D%90/20221211/A002R03K/A002C014_221211_R03K.mov</pathurl>
						<rate>
							<timebase>24</timebase>
						</rate>
						<duration>686</duration>
						<timecode>
							<rate>
								<timebase>24</timebase>
							</rate>
							<string>12:15:05:16</string>
							<frame>1058536</frame>
							<displayformat>NDF</displayformat>
							<source>source</source>
							<reel>
								<name>A002R03K</name>
							</reel>
						</timecode>
						<media>
							<video>
								<duration>686</duration>
								<samplecharacteristics>
									<width>1920</width>
									<height>1080</height>
								</samplecharacteristics>
							</video>
							<audio>
								<samplecharacteristics>
									<samplerate>48000</samplerate>
									<depth>24</depth>
								</samplecharacteristics>
								<channelcount>1</channelcount>
							</audio>
							<audio>
								<samplecharacteristics>
									<samplerate>48000</samplerate>
									<depth>24</depth>
								</samplecharacteristics>
								<channelcount>1</channelcount>
							</audio>
							<audio>
								<samplecharacteristics>
									<samplerate>48000</samplerate>
									<depth>24</depth>
								</samplecharacteristics>
								<channelcount>1</channelcount>
							</audio>
						</media>
					</file>
					<sourcetrack>
						<mediatype>video</mediatype>
					</sourcetrack>
					<link>
						<linkclipref>010_07_10_A</linkclipref>
						<mediatype>video</mediatype>
						<trackindex>1</trackindex>
						<clipindex>50</clipindex>
					</link>
					<link>
						<linkclipref>010_07_10_A2</linkclipref>
						<mediatype>audio</mediatype>
						<trackindex>1</trackindex>
						<clipindex>50</clipindex>
					</link>
					<link>
						<linkclipref>010_07_10_A3</linkclipref>
						<mediatype>audio</mediatype>
						<trackindex>2</trackindex>
						<clipindex>50</clipindex>
					</link>
					<link>
						<linkclipref>010_07_10_A4</linkclipref>
						<mediatype>audio</mediatype>
						<trackindex>3</trackindex>
						<clipindex>48</clipindex>
					</link>
					<fielddominance>none</fielddominance>
					<itemhistory>
						<uuid>D9CC6385-F2E9-4893-B2E5-4320F71B75A6</uuid>
					</itemhistory>
				</clipitem>
				<clipitem id="010_07_11_A">
					<name>010_07_11_A</name>
					<duration>434</duration>
					<rate>
						<ntsc>FALSE</ntsc>
						<timebase>24</timebase>
					</rate>
					<in>0</in>
					<out>434</out>
					<start>30232</start>
					<end>30666</end>
					<pixelaspectratio>Square</pixelaspectratio>
					<enabled>TRUE</enabled>
					<anamorphic>FALSE</anamorphic>
					<alphatype>none</alphatype>
					<masterclipid>010_07_11_A1</masterclipid>
					<logginginfo>
						<scene/>
						<shottake/>
						<lognote/>
						<good>FALSE</good>
					</logginginfo>
					<labels>
						<label2/>
					</labels>
					<comments>
						<mastercomment1/>
						<mastercomment2/>
						<mastercomment3/>
						<mastercomment4/>
					</comments>
					<file id="A002C015_221211_R03K">
						<name>A002C015_221211_R03K.mov</name>
						<pathurl>file://localhost/Volumes/%E3%80%8A%E6%98%8F%E5%A4%B4%E8%BD%AC%E5%90%91%E3%80%8B%20Editing/%E6%98%8F%E5%A4%B4%E8%BD%AC%E5%90%91/%E8%BD%AC%E7%A0%81%E7%B4%A0%E6%9D%90/20221211/A002R03K/A002C015_221211_R03K.mov</pathurl>
						<rate>
							<timebase>24</timebase>
						</rate>
						<duration>434</duration>
						<timecode>
							<rate>
								<timebase>24</timebase>
							</rate>
							<string>12:16:07:01</string>
							<frame>1060009</frame>
							<displayformat>NDF</displayformat>
							<source>source</source>
							<reel>
								<name>A002R03K</name>
							</reel>
						</timecode>
						<media>
							<video>
								<duration>434</duration>
								<samplecharacteristics>
									<width>1920</width>
									<height>1080</height>
								</samplecharacteristics>
							</video>
							<audio>
								<samplecharacteristics>
									<samplerate>48000</samplerate>
									<depth>24</depth>
								</samplecharacteristics>
								<channelcount>1</channelcount>
							</audio>
							<audio>
								<samplecharacteristics>
									<samplerate>48000</samplerate>
									<depth>24</depth>
								</samplecharacteristics>
								<channelcount>1</channelcount>
							</audio>
							<audio>
								<samplecharacteristics>
									<samplerate>48000</samplerate>
									<depth>24</depth>
								</samplecharacteristics>
								<channelcount>1</channelcount>
							</audio>
						</media>
					</file>
					<sourcetrack>
						<mediatype>video</mediatype>
					</sourcetrack>
					<link>
						<linkclipref>010_07_11_A</linkclipref>
						<mediatype>video</mediatype>
						<trackindex>1</trackindex>
						<clipindex>51</clipindex>
					</link>
					<link>
						<linkclipref>010_07_11_A2</linkclipref>
						<mediatype>audio</mediatype>
						<trackindex>1</trackindex>
						<clipindex>51</clipindex>
					</link>
					<link>
						<linkclipref>010_07_11_A3</linkclipref>
						<mediatype>audio</mediatype>
						<trackindex>2</trackindex>
						<clipindex>51</clipindex>
					</link>
					<link>
						<linkclipref>010_07_11_A4</linkclipref>
						<mediatype>audio</mediatype>
						<trackindex>3</trackindex>
						<clipindex>49</clipindex>
					</link>
					<fielddominance>none</fielddominance>
					<itemhistory>
						<uuid>0E725511-A108-45DA-8D2C-4E09F6F8644A</uuid>
					</itemhistory>
				</clipitem>
				<clipitem id="010_07_12_A">
					<name>010_07_12_A</name>
					<duration>416</duration>
					<rate>
						<ntsc>FALSE</ntsc>
						<timebase>24</timebase>
					</rate>
					<in>0</in>
					<out>416</out>
					<start>30666</start>
					<end>31082</end>
					<pixelaspectratio>Square</pixelaspectratio>
					<enabled>TRUE</enabled>
					<anamorphic>FALSE</anamorphic>
					<alphatype>none</alphatype>
					<masterclipid>010_07_12_A1</masterclipid>
					<logginginfo>
						<scene/>
						<shottake/>
						<lognote/>
						<good>FALSE</good>
					</logginginfo>
					<labels>
						<label2/>
					</labels>
					<comments>
						<mastercomment1/>
						<mastercomment2/>
						<mastercomment3/>
						<mastercomment4/>
					</comments>
					<file id="A002C016_221211_R03K">
						<name>A002C016_221211_R03K.mov</name>
						<pathurl>file://localhost/Volumes/%E3%80%8A%E6%98%8F%E5%A4%B4%E8%BD%AC%E5%90%91%E3%80%8B%20Editing/%E6%98%8F%E5%A4%B4%E8%BD%AC%E5%90%91/%E8%BD%AC%E7%A0%81%E7%B4%A0%E6%9D%90/20221211/A002R03K/A002C016_221211_R03K.mov</pathurl>
						<rate>
							<timebase>24</timebase>
						</rate>
						<duration>416</duration>
						<timecode>
							<rate>
								<timebase>24</timebase>
							</rate>
							<string>12:18:28:13</string>
							<frame>1063405</frame>
							<displayformat>NDF</displayformat>
							<source>source</source>
							<reel>
								<name>A002R03K</name>
							</reel>
						</timecode>
						<media>
							<video>
								<duration>416</duration>
								<samplecharacteristics>
									<width>1920</width>
									<height>1080</height>
								</samplecharacteristics>
							</video>
							<audio>
								<samplecharacteristics>
									<samplerate>48000</samplerate>
									<depth>24</depth>
								</samplecharacteristics>
								<channelcount>1</channelcount>
							</audio>
							<audio>
								<samplecharacteristics>
									<samplerate>48000</samplerate>
									<depth>24</depth>
								</samplecharacteristics>
								<channelcount>1</channelcount>
							</audio>
							<audio>
								<samplecharacteristics>
									<samplerate>48000</samplerate>
									<depth>24</depth>
								</samplecharacteristics>
								<channelcount>1</channelcount>
							</audio>
						</media>
					</file>
					<sourcetrack>
						<mediatype>video</mediatype>
					</sourcetrack>
					<link>
						<linkclipref>010_07_12_A</linkclipref>
						<mediatype>video</mediatype>
						<trackindex>1</trackindex>
						<clipindex>52</clipindex>
					</link>
					<link>
						<linkclipref>010_07_12_A2</linkclipref>
						<mediatype>audio</mediatype>
						<trackindex>1</trackindex>
						<clipindex>52</clipindex>
					</link>
					<link>
						<linkclipref>010_07_12_A3</linkclipref>
						<mediatype>audio</mediatype>
						<trackindex>2</trackindex>
						<clipindex>52</clipindex>
					</link>
					<link>
						<linkclipref>010_07_12_A4</linkclipref>
						<mediatype>audio</mediatype>
						<trackindex>3</trackindex>
						<clipindex>50</clipindex>
					</link>
					<fielddominance>none</fielddominance>
					<itemhistory>
						<uuid>694E963C-E2FF-46A9-9AE4-883E3C631F96</uuid>
					</itemhistory>
				</clipitem>
				<clipitem id="010_07_13_A">
					<name>010_07_13_A</name>
					<duration>394</duration>
					<rate>
						<ntsc>FALSE</ntsc>
						<timebase>24</timebase>
					</rate>
					<in>0</in>
					<out>394</out>
					<start>31082</start>
					<end>31476</end>
					<pixelaspectratio>Square</pixelaspectratio>
					<enabled>TRUE</enabled>
					<anamorphic>FALSE</anamorphic>
					<alphatype>none</alphatype>
					<masterclipid>010_07_13_A1</masterclipid>
					<logginginfo>
						<scene/>
						<shottake/>
						<lognote/>
						<good>FALSE</good>
					</logginginfo>
					<labels>
						<label2/>
					</labels>
					<comments>
						<mastercomment1/>
						<mastercomment2/>
						<mastercomment3/>
						<mastercomment4/>
					</comments>
					<file id="A002C017_221211_R03K">
						<name>A002C017_221211_R03K.mov</name>
						<pathurl>file://localhost/Volumes/%E3%80%8A%E6%98%8F%E5%A4%B4%E8%BD%AC%E5%90%91%E3%80%8B%20Editing/%E6%98%8F%E5%A4%B4%E8%BD%AC%E5%90%91/%E8%BD%AC%E7%A0%81%E7%B4%A0%E6%9D%90/20221211/A002R03K/A002C017_221211_R03K.mov</pathurl>
						<rate>
							<timebase>24</timebase>
						</rate>
						<duration>394</duration>
						<timecode>
							<rate>
								<timebase>24</timebase>
							</rate>
							<string>12:19:16:04</string>
							<frame>1064548</frame>
							<displayformat>NDF</displayformat>
							<source>source</source>
							<reel>
								<name>A002R03K</name>
							</reel>
						</timecode>
						<media>
							<video>
								<duration>394</duration>
								<samplecharacteristics>
									<width>1920</width>
									<height>1080</height>
								</samplecharacteristics>
							</video>
							<audio>
								<samplecharacteristics>
									<samplerate>48000</samplerate>
									<depth>24</depth>
								</samplecharacteristics>
								<channelcount>1</channelcount>
							</audio>
							<audio>
								<samplecharacteristics>
									<samplerate>48000</samplerate>
									<depth>24</depth>
								</samplecharacteristics>
								<channelcount>1</channelcount>
							</audio>
							<audio>
								<samplecharacteristics>
									<samplerate>48000</samplerate>
									<depth>24</depth>
								</samplecharacteristics>
								<channelcount>1</channelcount>
							</audio>
						</media>
					</file>
					<sourcetrack>
						<mediatype>video</mediatype>
					</sourcetrack>
					<link>
						<linkclipref>010_07_13_A</linkclipref>
						<mediatype>video</mediatype>
						<trackindex>1</trackindex>
						<clipindex>53</clipindex>
					</link>
					<link>
						<linkclipref>010_07_13_A2</linkclipref>
						<mediatype>audio</mediatype>
						<trackindex>1</trackindex>
						<clipindex>53</clipindex>
					</link>
					<link>
						<linkclipref>010_07_13_A3</linkclipref>
						<mediatype>audio</mediatype>
						<trackindex>2</trackindex>
						<clipindex>53</clipindex>
					</link>
					<link>
						<linkclipref>010_07_13_A4</linkclipref>
						<mediatype>audio</mediatype>
						<trackindex>3</trackindex>
						<clipindex>51</clipindex>
					</link>
					<fielddominance>none</fielddominance>
					<itemhistory>
						<uuid>BA8835C2-8736-4EEA-8571-AA1EA47D9060</uuid>
					</itemhistory>
				</clipitem>
				<clipitem id="010_07_14_A_OK">
					<name>010_07_14_A_OK</name>
					<duration>635</duration>
					<rate>
						<ntsc>FALSE</ntsc>
						<timebase>24</timebase>
					</rate>
					<in>167</in>
					<out>270</out>
					<start>31476</start>
					<end>31579</end>
					<pixelaspectratio>Square</pixelaspectratio>
					<enabled>TRUE</enabled>
					<anamorphic>FALSE</anamorphic>
					<alphatype>none</alphatype>
					<masterclipid>010_07_14_A_OK1</masterclipid>
					<logginginfo>
						<scene/>
						<shottake/>
						<lognote/>
						<good>FALSE</good>
					</logginginfo>
					<labels>
						<label2/>
					</labels>
					<comments>
						<mastercomment1/>
						<mastercomment2/>
						<mastercomment3/>
						<mastercomment4/>
					</comments>
					<file id="A002C018_221211_R03K">
						<name>A002C018_221211_R03K.mov</name>
						<pathurl>file://localhost/Volumes/%E3%80%8A%E6%98%8F%E5%A4%B4%E8%BD%AC%E5%90%91%E3%80%8B%20Editing/%E6%98%8F%E5%A4%B4%E8%BD%AC%E5%90%91/%E8%BD%AC%E7%A0%81%E7%B4%A0%E6%9D%90/20221211/A002R03K/A002C018_221211_R03K.mov</pathurl>
						<rate>
							<timebase>24</timebase>
						</rate>
						<duration>635</duration>
						<timecode>
							<rate>
								<timebase>24</timebase>
							</rate>
							<string>12:19:39:08</string>
							<frame>1065104</frame>
							<displayformat>NDF</displayformat>
							<source>source</source>
							<reel>
								<name>A002R03K</name>
							</reel>
						</timecode>
						<media>
							<video>
								<duration>635</duration>
								<samplecharacteristics>
									<width>1920</width>
									<height>1080</height>
								</samplecharacteristics>
							</video>
							<audio>
								<samplecharacteristics>
									<samplerate>48000</samplerate>
									<depth>24</depth>
								</samplecharacteristics>
								<channelcount>1</channelcount>
							</audio>
							<audio>
								<samplecharacteristics>
									<samplerate>48000</samplerate>
									<depth>24</depth>
								</samplecharacteristics>
								<channelcount>1</channelcount>
							</audio>
							<audio>
								<samplecharacteristics>
									<samplerate>48000</samplerate>
									<depth>24</depth>
								</samplecharacteristics>
								<channelcount>1</channelcount>
							</audio>
						</media>
					</file>
					<sourcetrack>
						<mediatype>video</mediatype>
					</sourcetrack>
					<link>
						<linkclipref>010_07_14_A_OK</linkclipref>
						<mediatype>video</mediatype>
						<trackindex>1</trackindex>
						<clipindex>54</clipindex>
					</link>
					<link>
						<linkclipref>010_07_14_A_OK2</linkclipref>
						<mediatype>audio</mediatype>
						<trackindex>1</trackindex>
						<clipindex>54</clipindex>
					</link>
					<link>
						<linkclipref>010_07_14_A_OK3</linkclipref>
						<mediatype>audio</mediatype>
						<trackindex>2</trackindex>
						<clipindex>54</clipindex>
					</link>
					<link>
						<linkclipref>010_07_14_A_OK4</linkclipref>
						<mediatype>audio</mediatype>
						<trackindex>3</trackindex>
						<clipindex>52</clipindex>
					</link>
					<fielddominance>none</fielddominance>
					<itemhistory>
						<uuid>2BABDAFF-F0FF-4701-AF23-452A16168615</uuid>
					</itemhistory>
				</clipitem>
				<clipitem id="010_08_01_B">
					<name>010_08_01_B</name>
					<duration>466</duration>
					<rate>
						<ntsc>FALSE</ntsc>
						<timebase>24</timebase>
					</rate>
					<in>0</in>
					<out>466</out>
					<start>31579</start>
					<end>32045</end>
					<pixelaspectratio>Square</pixelaspectratio>
					<enabled>TRUE</enabled>
					<anamorphic>FALSE</anamorphic>
					<alphatype>none</alphatype>
					<masterclipid>010_08_01_B1</masterclipid>
					<logginginfo>
						<scene/>
						<shottake/>
						<lognote/>
						<good>FALSE</good>
					</logginginfo>
					<labels>
						<label2/>
					</labels>
					<comments>
						<mastercomment1/>
						<mastercomment2/>
						<mastercomment3/>
						<mastercomment4/>
					</comments>
					<file id="B002C007_130101_R1WX">
						<name>B002C007_130101_R1WX.mov</name>
						<pathurl>file://localhost/Volumes/%E3%80%8A%E6%98%8F%E5%A4%B4%E8%BD%AC%E5%90%91%E3%80%8B%20Editing/%E6%98%8F%E5%A4%B4%E8%BD%AC%E5%90%91/%E8%BD%AC%E7%A0%81%E7%B4%A0%E6%9D%90/20221211/B002R1WX/B002C007_130101_R1WX.mov</pathurl>
						<rate>
							<timebase>24</timebase>
						</rate>
						<duration>466</duration>
						<timecode>
							<rate>
								<timebase>24</timebase>
							</rate>
							<string>13:01:12:10</string>
							<frame>1124938</frame>
							<displayformat>NDF</displayformat>
							<source>source</source>
							<reel>
								<name>B002R1WX</name>
							</reel>
						</timecode>
						<media>
							<video>
								<duration>466</duration>
								<samplecharacteristics>
									<width>1920</width>
									<height>1080</height>
								</samplecharacteristics>
							</video>
							<audio>
								<samplecharacteristics>
									<samplerate>48000</samplerate>
									<depth>24</depth>
								</samplecharacteristics>
								<channelcount>1</channelcount>
							</audio>
							<audio>
								<samplecharacteristics>
									<samplerate>48000</samplerate>
									<depth>24</depth>
								</samplecharacteristics>
								<channelcount>1</channelcount>
							</audio>
							<audio>
								<samplecharacteristics>
									<samplerate>48000</samplerate>
									<depth>24</depth>
								</samplecharacteristics>
								<channelcount>1</channelcount>
							</audio>
							<audio>
								<samplecharacteristics>
									<samplerate>48000</samplerate>
									<depth>24</depth>
								</samplecharacteristics>
								<channelcount>1</channelcount>
							</audio>
						</media>
					</file>
					<sourcetrack>
						<mediatype>video</mediatype>
					</sourcetrack>
					<link>
						<linkclipref>010_08_01_B</linkclipref>
						<mediatype>video</mediatype>
						<trackindex>1</trackindex>
						<clipindex>55</clipindex>
					</link>
					<link>
						<linkclipref>010_08_01_B2</linkclipref>
						<mediatype>audio</mediatype>
						<trackindex>1</trackindex>
						<clipindex>55</clipindex>
					</link>
					<link>
						<linkclipref>010_08_01_B3</linkclipref>
						<mediatype>audio</mediatype>
						<trackindex>2</trackindex>
						<clipindex>55</clipindex>
					</link>
					<link>
						<linkclipref>010_08_01_B4</linkclipref>
						<mediatype>audio</mediatype>
						<trackindex>3</trackindex>
						<clipindex>53</clipindex>
					</link>
					<link>
						<linkclipref>010_08_01_B5</linkclipref>
						<mediatype>audio</mediatype>
						<trackindex>4</trackindex>
						<clipindex>29</clipindex>
					</link>
					<fielddominance>none</fielddominance>
					<itemhistory>
						<uuid>44E24955-0287-4569-BF7C-36AA49BEDB3B</uuid>
					</itemhistory>
				</clipitem>
				<clipitem id="010_08_02_B">
					<name>010_08_02_B</name>
					<duration>495</duration>
					<rate>
						<ntsc>FALSE</ntsc>
						<timebase>24</timebase>
					</rate>
					<in>0</in>
					<out>495</out>
					<start>32045</start>
					<end>32540</end>
					<pixelaspectratio>Square</pixelaspectratio>
					<enabled>TRUE</enabled>
					<anamorphic>FALSE</anamorphic>
					<alphatype>none</alphatype>
					<masterclipid>010_08_02_B1</masterclipid>
					<logginginfo>
						<scene/>
						<shottake/>
						<lognote/>
						<good>FALSE</good>
					</logginginfo>
					<labels>
						<label2/>
					</labels>
					<comments>
						<mastercomment1/>
						<mastercomment2/>
						<mastercomment3/>
						<mastercomment4/>
					</comments>
					<file id="B002C008_130101_R1WX">
						<name>B002C008_130101_R1WX.mov</name>
						<pathurl>file://localhost/Volumes/%E3%80%8A%E6%98%8F%E5%A4%B4%E8%BD%AC%E5%90%91%E3%80%8B%20Editing/%E6%98%8F%E5%A4%B4%E8%BD%AC%E5%90%91/%E8%BD%AC%E7%A0%81%E7%B4%A0%E6%9D%90/20221211/B002R1WX/B002C008_130101_R1WX.mov</pathurl>
						<rate>
							<timebase>24</timebase>
						</rate>
						<duration>495</duration>
						<timecode>
							<rate>
								<timebase>24</timebase>
							</rate>
							<string>13:02:09:17</string>
							<frame>1126313</frame>
							<displayformat>NDF</displayformat>
							<source>source</source>
							<reel>
								<name>B002R1WX</name>
							</reel>
						</timecode>
						<media>
							<video>
								<duration>495</duration>
								<samplecharacteristics>
									<width>1920</width>
									<height>1080</height>
								</samplecharacteristics>
							</video>
							<audio>
								<samplecharacteristics>
									<samplerate>48000</samplerate>
									<depth>24</depth>
								</samplecharacteristics>
								<channelcount>1</channelcount>
							</audio>
							<audio>
								<samplecharacteristics>
									<samplerate>48000</samplerate>
									<depth>24</depth>
								</samplecharacteristics>
								<channelcount>1</channelcount>
							</audio>
							<audio>
								<samplecharacteristics>
									<samplerate>48000</samplerate>
									<depth>24</depth>
								</samplecharacteristics>
								<channelcount>1</channelcount>
							</audio>
							<audio>
								<samplecharacteristics>
									<samplerate>48000</samplerate>
									<depth>24</depth>
								</samplecharacteristics>
								<channelcount>1</channelcount>
							</audio>
						</media>
					</file>
					<sourcetrack>
						<mediatype>video</mediatype>
					</sourcetrack>
					<link>
						<linkclipref>010_08_02_B</linkclipref>
						<mediatype>video</mediatype>
						<trackindex>1</trackindex>
						<clipindex>56</clipindex>
					</link>
					<link>
						<linkclipref>010_08_02_B2</linkclipref>
						<mediatype>audio</mediatype>
						<trackindex>1</trackindex>
						<clipindex>56</clipindex>
					</link>
					<link>
						<linkclipref>010_08_02_B3</linkclipref>
						<mediatype>audio</mediatype>
						<trackindex>2</trackindex>
						<clipindex>56</clipindex>
					</link>
					<link>
						<linkclipref>010_08_02_B4</linkclipref>
						<mediatype>audio</mediatype>
						<trackindex>3</trackindex>
						<clipindex>54</clipindex>
					</link>
					<link>
						<linkclipref>010_08_02_B5</linkclipref>
						<mediatype>audio</mediatype>
						<trackindex>4</trackindex>
						<clipindex>30</clipindex>
					</link>
					<fielddominance>none</fielddominance>
					<itemhistory>
						<uuid>04F6024A-CB44-4BBB-8FE7-CC5450AB3FBC</uuid>
					</itemhistory>
				</clipitem>
				<clipitem id="010_08_03_B_OK">
					<name>010_08_03_B_OK</name>
					<duration>483</duration>
					<rate>
						<ntsc>FALSE</ntsc>
						<timebase>24</timebase>
					</rate>
					<in>0</in>
					<out>483</out>
					<start>32540</start>
					<end>33023</end>
					<pixelaspectratio>Square</pixelaspectratio>
					<enabled>TRUE</enabled>
					<anamorphic>FALSE</anamorphic>
					<alphatype>none</alphatype>
					<masterclipid>010_08_03_B_OK1</masterclipid>
					<logginginfo>
						<scene/>
						<shottake/>
						<lognote/>
						<good>FALSE</good>
					</logginginfo>
					<labels>
						<label2/>
					</labels>
					<comments>
						<mastercomment1/>
						<mastercomment2/>
						<mastercomment3/>
						<mastercomment4/>
					</comments>
					<file id="B002C009_130101_R1WX">
						<name>B002C009_130101_R1WX.mov</name>
						<pathurl>file://localhost/Volumes/%E3%80%8A%E6%98%8F%E5%A4%B4%E8%BD%AC%E5%90%91%E3%80%8B%20Editing/%E6%98%8F%E5%A4%B4%E8%BD%AC%E5%90%91/%E8%BD%AC%E7%A0%81%E7%B4%A0%E6%9D%90/20221211/B002R1WX/B002C009_130101_R1WX.mov</pathurl>
						<rate>
							<timebase>24</timebase>
						</rate>
						<duration>483</duration>
						<timecode>
							<rate>
								<timebase>24</timebase>
							</rate>
							<string>13:03:50:14</string>
							<frame>1128734</frame>
							<displayformat>NDF</displayformat>
							<source>source</source>
							<reel>
								<name>B002R1WX</name>
							</reel>
						</timecode>
						<media>
							<video>
								<duration>483</duration>
								<samplecharacteristics>
									<width>1920</width>
									<height>1080</height>
								</samplecharacteristics>
							</video>
							<audio>
								<samplecharacteristics>
									<samplerate>48000</samplerate>
									<depth>24</depth>
								</samplecharacteristics>
								<channelcount>1</channelcount>
							</audio>
							<audio>
								<samplecharacteristics>
									<samplerate>48000</samplerate>
									<depth>24</depth>
								</samplecharacteristics>
								<channelcount>1</channelcount>
							</audio>
							<audio>
								<samplecharacteristics>
									<samplerate>48000</samplerate>
									<depth>24</depth>
								</samplecharacteristics>
								<channelcount>1</channelcount>
							</audio>
							<audio>
								<samplecharacteristics>
									<samplerate>48000</samplerate>
									<depth>24</depth>
								</samplecharacteristics>
								<channelcount>1</channelcount>
							</audio>
						</media>
					</file>
					<sourcetrack>
						<mediatype>video</mediatype>
					</sourcetrack>
					<link>
						<linkclipref>010_08_03_B_OK</linkclipref>
						<mediatype>video</mediatype>
						<trackindex>1</trackindex>
						<clipindex>57</clipindex>
					</link>
					<link>
						<linkclipref>010_08_03_B_OK2</linkclipref>
						<mediatype>audio</mediatype>
						<trackindex>1</trackindex>
						<clipindex>57</clipindex>
					</link>
					<link>
						<linkclipref>010_08_03_B_OK3</linkclipref>
						<mediatype>audio</mediatype>
						<trackindex>2</trackindex>
						<clipindex>57</clipindex>
					</link>
					<link>
						<linkclipref>010_08_03_B_OK4</linkclipref>
						<mediatype>audio</mediatype>
						<trackindex>3</trackindex>
						<clipindex>55</clipindex>
					</link>
					<link>
						<linkclipref>010_08_03_B_OK5</linkclipref>
						<mediatype>audio</mediatype>
						<trackindex>4</trackindex>
						<clipindex>31</clipindex>
					</link>
					<fielddominance>none</fielddominance>
					<itemhistory>
						<uuid>00764F1E-90E0-46B3-8713-E41C779C70AF</uuid>
					</itemhistory>
				</clipitem>
				<clipitem id="010_08_04_B_OK">
					<name>010_08_04_B_OK</name>
					<duration>433</duration>
					<rate>
						<ntsc>FALSE</ntsc>
						<timebase>24</timebase>
					</rate>
					<in>77</in>
					<out>433</out>
					<start>33023</start>
					<end>33379</end>
					<pixelaspectratio>Square</pixelaspectratio>
					<enabled>TRUE</enabled>
					<anamorphic>FALSE</anamorphic>
					<alphatype>none</alphatype>
					<masterclipid>010_08_04_B_OK1</masterclipid>
					<logginginfo>
						<scene/>
						<shottake/>
						<lognote/>
						<good>FALSE</good>
					</logginginfo>
					<labels>
						<label2/>
					</labels>
					<comments>
						<mastercomment1/>
						<mastercomment2/>
						<mastercomment3/>
						<mastercomment4/>
					</comments>
					<file id="B002C010_130101_R1WX">
						<name>B002C010_130101_R1WX.mov</name>
						<pathurl>file://localhost/Volumes/%E3%80%8A%E6%98%8F%E5%A4%B4%E8%BD%AC%E5%90%91%E3%80%8B%20Editing/%E6%98%8F%E5%A4%B4%E8%BD%AC%E5%90%91/%E8%BD%AC%E7%A0%81%E7%B4%A0%E6%9D%90/20221211/B002R1WX/B002C010_130101_R1WX.mov</pathurl>
						<rate>
							<timebase>24</timebase>
						</rate>
						<duration>433</duration>
						<timecode>
							<rate>
								<timebase>24</timebase>
							</rate>
							<string>13:05:07:05</string>
							<frame>1130573</frame>
							<displayformat>NDF</displayformat>
							<source>source</source>
							<reel>
								<name>B002R1WX</name>
							</reel>
						</timecode>
						<media>
							<video>
								<duration>433</duration>
								<samplecharacteristics>
									<width>1920</width>
									<height>1080</height>
								</samplecharacteristics>
							</video>
							<audio>
								<samplecharacteristics>
									<samplerate>48000</samplerate>
									<depth>24</depth>
								</samplecharacteristics>
								<channelcount>1</channelcount>
							</audio>
							<audio>
								<samplecharacteristics>
									<samplerate>48000</samplerate>
									<depth>24</depth>
								</samplecharacteristics>
								<channelcount>1</channelcount>
							</audio>
							<audio>
								<samplecharacteristics>
									<samplerate>48000</samplerate>
									<depth>24</depth>
								</samplecharacteristics>
								<channelcount>1</channelcount>
							</audio>
							<audio>
								<samplecharacteristics>
									<samplerate>48000</samplerate>
									<depth>24</depth>
								</samplecharacteristics>
								<channelcount>1</channelcount>
							</audio>
						</media>
					</file>
					<sourcetrack>
						<mediatype>video</mediatype>
					</sourcetrack>
					<link>
						<linkclipref>010_08_04_B_OK</linkclipref>
						<mediatype>video</mediatype>
						<trackindex>1</trackindex>
						<clipindex>58</clipindex>
					</link>
					<link>
						<linkclipref>010_08_04_B_OK2</linkclipref>
						<mediatype>audio</mediatype>
						<trackindex>1</trackindex>
						<clipindex>58</clipindex>
					</link>
					<link>
						<linkclipref>010_08_04_B_OK3</linkclipref>
						<mediatype>audio</mediatype>
						<trackindex>2</trackindex>
						<clipindex>58</clipindex>
					</link>
					<link>
						<linkclipref>010_08_04_B_OK4</linkclipref>
						<mediatype>audio</mediatype>
						<trackindex>3</trackindex>
						<clipindex>56</clipindex>
					</link>
					<link>
						<linkclipref>010_08_04_B_OK5</linkclipref>
						<mediatype>audio</mediatype>
						<trackindex>4</trackindex>
						<clipindex>32</clipindex>
					</link>
					<fielddominance>none</fielddominance>
					<itemhistory>
						<uuid>369E3E1C-4057-4181-95F2-91BEBBB5FBC8</uuid>
					</itemhistory>
				</clipitem>
				<clipitem id="010_09_01_A">
					<name>010_09_01_A</name>
					<duration>422</duration>
					<rate>
						<ntsc>FALSE</ntsc>
						<timebase>24</timebase>
					</rate>
					<in>0</in>
					<out>422</out>
					<start>33379</start>
					<end>33801</end>
					<pixelaspectratio>Square</pixelaspectratio>
					<enabled>TRUE</enabled>
					<anamorphic>FALSE</anamorphic>
					<alphatype>none</alphatype>
					<masterclipid>010_09_01_A1</masterclipid>
					<logginginfo>
						<scene/>
						<shottake/>
						<lognote/>
						<good>FALSE</good>
					</logginginfo>
					<labels>
						<label2/>
					</labels>
					<comments>
						<mastercomment1/>
						<mastercomment2/>
						<mastercomment3/>
						<mastercomment4/>
					</comments>
					<file id="A002C019_221211_R03K">
						<name>A002C019_221211_R03K.mov</name>
						<pathurl>file://localhost/Volumes/%E3%80%8A%E6%98%8F%E5%A4%B4%E8%BD%AC%E5%90%91%E3%80%8B%20Editing/%E6%98%8F%E5%A4%B4%E8%BD%AC%E5%90%91/%E8%BD%AC%E7%A0%81%E7%B4%A0%E6%9D%90/20221211/A002R03K/A002C019_221211_R03K.mov</pathurl>
						<rate>
							<timebase>24</timebase>
						</rate>
						<duration>422</duration>
						<timecode>
							<rate>
								<timebase>24</timebase>
							</rate>
							<string>13:08:01:03</string>
							<frame>1134747</frame>
							<displayformat>NDF</displayformat>
							<source>source</source>
							<reel>
								<name>A002R03K</name>
							</reel>
						</timecode>
						<media>
							<video>
								<duration>422</duration>
								<samplecharacteristics>
									<width>1920</width>
									<height>1080</height>
								</samplecharacteristics>
							</video>
							<audio>
								<samplecharacteristics>
									<samplerate>48000</samplerate>
									<depth>24</depth>
								</samplecharacteristics>
								<channelcount>1</channelcount>
							</audio>
							<audio>
								<samplecharacteristics>
									<samplerate>48000</samplerate>
									<depth>24</depth>
								</samplecharacteristics>
								<channelcount>1</channelcount>
							</audio>
							<audio>
								<samplecharacteristics>
									<samplerate>48000</samplerate>
									<depth>24</depth>
								</samplecharacteristics>
								<channelcount>1</channelcount>
							</audio>
							<audio>
								<samplecharacteristics>
									<samplerate>48000</samplerate>
									<depth>24</depth>
								</samplecharacteristics>
								<channelcount>1</channelcount>
							</audio>
						</media>
					</file>
					<sourcetrack>
						<mediatype>video</mediatype>
					</sourcetrack>
					<link>
						<linkclipref>010_09_01_A</linkclipref>
						<mediatype>video</mediatype>
						<trackindex>1</trackindex>
						<clipindex>59</clipindex>
					</link>
					<link>
						<linkclipref>010_09_01_A2</linkclipref>
						<mediatype>audio</mediatype>
						<trackindex>1</trackindex>
						<clipindex>59</clipindex>
					</link>
					<link>
						<linkclipref>010_09_01_A3</linkclipref>
						<mediatype>audio</mediatype>
						<trackindex>2</trackindex>
						<clipindex>59</clipindex>
					</link>
					<link>
						<linkclipref>010_09_01_A4</linkclipref>
						<mediatype>audio</mediatype>
						<trackindex>3</trackindex>
						<clipindex>57</clipindex>
					</link>
					<link>
						<linkclipref>010_09_01_A5</linkclipref>
						<mediatype>audio</mediatype>
						<trackindex>4</trackindex>
						<clipindex>33</clipindex>
					</link>
					<fielddominance>none</fielddominance>
					<itemhistory>
						<uuid>156BF518-FEFC-4539-AA26-C8E12195725C</uuid>
					</itemhistory>
				</clipitem>
				<clipitem id="010_09_02_A">
					<name>010_09_02_A</name>
					<duration>289</duration>
					<rate>
						<ntsc>FALSE</ntsc>
						<timebase>24</timebase>
					</rate>
					<in>0</in>
					<out>289</out>
					<start>33801</start>
					<end>34090</end>
					<pixelaspectratio>Square</pixelaspectratio>
					<enabled>TRUE</enabled>
					<anamorphic>FALSE</anamorphic>
					<alphatype>none</alphatype>
					<masterclipid>010_09_02_A1</masterclipid>
					<logginginfo>
						<scene/>
						<shottake/>
						<lognote/>
						<good>FALSE</good>
					</logginginfo>
					<labels>
						<label2/>
					</labels>
					<comments>
						<mastercomment1/>
						<mastercomment2/>
						<mastercomment3/>
						<mastercomment4/>
					</comments>
					<file id="A002C020_221211_R03K">
						<name>A002C020_221211_R03K.mov</name>
						<pathurl>file://localhost/Volumes/%E3%80%8A%E6%98%8F%E5%A4%B4%E8%BD%AC%E5%90%91%E3%80%8B%20Editing/%E6%98%8F%E5%A4%B4%E8%BD%AC%E5%90%91/%E8%BD%AC%E7%A0%81%E7%B4%A0%E6%9D%90/20221211/A002R03K/A002C020_221211_R03K.mov</pathurl>
						<rate>
							<timebase>24</timebase>
						</rate>
						<duration>289</duration>
						<timecode>
							<rate>
								<timebase>24</timebase>
							</rate>
							<string>13:08:50:10</string>
							<frame>1135930</frame>
							<displayformat>NDF</displayformat>
							<source>source</source>
							<reel>
								<name>A002R03K</name>
							</reel>
						</timecode>
						<media>
							<video>
								<duration>289</duration>
								<samplecharacteristics>
									<width>1920</width>
									<height>1080</height>
								</samplecharacteristics>
							</video>
							<audio>
								<samplecharacteristics>
									<samplerate>48000</samplerate>
									<depth>24</depth>
								</samplecharacteristics>
								<channelcount>1</channelcount>
							</audio>
							<audio>
								<samplecharacteristics>
									<samplerate>48000</samplerate>
									<depth>24</depth>
								</samplecharacteristics>
								<channelcount>1</channelcount>
							</audio>
							<audio>
								<samplecharacteristics>
									<samplerate>48000</samplerate>
									<depth>24</depth>
								</samplecharacteristics>
								<channelcount>1</channelcount>
							</audio>
							<audio>
								<samplecharacteristics>
									<samplerate>48000</samplerate>
									<depth>24</depth>
								</samplecharacteristics>
								<channelcount>1</channelcount>
							</audio>
						</media>
					</file>
					<sourcetrack>
						<mediatype>video</mediatype>
					</sourcetrack>
					<link>
						<linkclipref>010_09_02_A</linkclipref>
						<mediatype>video</mediatype>
						<trackindex>1</trackindex>
						<clipindex>60</clipindex>
					</link>
					<link>
						<linkclipref>010_09_02_A2</linkclipref>
						<mediatype>audio</mediatype>
						<trackindex>1</trackindex>
						<clipindex>60</clipindex>
					</link>
					<link>
						<linkclipref>010_09_02_A3</linkclipref>
						<mediatype>audio</mediatype>
						<trackindex>2</trackindex>
						<clipindex>60</clipindex>
					</link>
					<link>
						<linkclipref>010_09_02_A4</linkclipref>
						<mediatype>audio</mediatype>
						<trackindex>3</trackindex>
						<clipindex>58</clipindex>
					</link>
					<link>
						<linkclipref>010_09_02_A5</linkclipref>
						<mediatype>audio</mediatype>
						<trackindex>4</trackindex>
						<clipindex>34</clipindex>
					</link>
					<fielddominance>none</fielddominance>
					<itemhistory>
						<uuid>97B86391-CBDE-4532-9DA9-1FB004CAB680</uuid>
					</itemhistory>
				</clipitem>
				<clipitem id="010_09_03_A">
					<name>010_09_03_A</name>
					<duration>221</duration>
					<rate>
						<ntsc>FALSE</ntsc>
						<timebase>24</timebase>
					</rate>
					<in>0</in>
					<out>221</out>
					<start>34090</start>
					<end>34311</end>
					<pixelaspectratio>Square</pixelaspectratio>
					<enabled>TRUE</enabled>
					<anamorphic>FALSE</anamorphic>
					<alphatype>none</alphatype>
					<masterclipid>010_09_03_A1</masterclipid>
					<logginginfo>
						<scene/>
						<shottake/>
						<lognote/>
						<good>FALSE</good>
					</logginginfo>
					<labels>
						<label2/>
					</labels>
					<comments>
						<mastercomment1/>
						<mastercomment2/>
						<mastercomment3/>
						<mastercomment4/>
					</comments>
					<file id="A002C021_221211_R03K">
						<name>A002C021_221211_R03K.mov</name>
						<pathurl>file://localhost/Volumes/%E3%80%8A%E6%98%8F%E5%A4%B4%E8%BD%AC%E5%90%91%E3%80%8B%20Editing/%E6%98%8F%E5%A4%B4%E8%BD%AC%E5%90%91/%E8%BD%AC%E7%A0%81%E7%B4%A0%E6%9D%90/20221211/A002R03K/A002C021_221211_R03K.mov</pathurl>
						<rate>
							<timebase>24</timebase>
						</rate>
						<duration>221</duration>
						<timecode>
							<rate>
								<timebase>24</timebase>
							</rate>
							<string>13:10:07:19</string>
							<frame>1137787</frame>
							<displayformat>NDF</displayformat>
							<source>source</source>
							<reel>
								<name>A002R03K</name>
							</reel>
						</timecode>
						<media>
							<video>
								<duration>221</duration>
								<samplecharacteristics>
									<width>1920</width>
									<height>1080</height>
								</samplecharacteristics>
							</video>
							<audio>
								<samplecharacteristics>
									<samplerate>48000</samplerate>
									<depth>24</depth>
								</samplecharacteristics>
								<channelcount>1</channelcount>
							</audio>
							<audio>
								<samplecharacteristics>
									<samplerate>48000</samplerate>
									<depth>24</depth>
								</samplecharacteristics>
								<channelcount>1</channelcount>
							</audio>
							<audio>
								<samplecharacteristics>
									<samplerate>48000</samplerate>
									<depth>24</depth>
								</samplecharacteristics>
								<channelcount>1</channelcount>
							</audio>
							<audio>
								<samplecharacteristics>
									<samplerate>48000</samplerate>
									<depth>24</depth>
								</samplecharacteristics>
								<channelcount>1</channelcount>
							</audio>
						</media>
					</file>
					<sourcetrack>
						<mediatype>video</mediatype>
					</sourcetrack>
					<link>
						<linkclipref>010_09_03_A</linkclipref>
						<mediatype>video</mediatype>
						<trackindex>1</trackindex>
						<clipindex>61</clipindex>
					</link>
					<link>
						<linkclipref>010_09_03_A2</linkclipref>
						<mediatype>audio</mediatype>
						<trackindex>1</trackindex>
						<clipindex>61</clipindex>
					</link>
					<link>
						<linkclipref>010_09_03_A3</linkclipref>
						<mediatype>audio</mediatype>
						<trackindex>2</trackindex>
						<clipindex>61</clipindex>
					</link>
					<link>
						<linkclipref>010_09_03_A4</linkclipref>
						<mediatype>audio</mediatype>
						<trackindex>3</trackindex>
						<clipindex>59</clipindex>
					</link>
					<link>
						<linkclipref>010_09_03_A5</linkclipref>
						<mediatype>audio</mediatype>
						<trackindex>4</trackindex>
						<clipindex>35</clipindex>
					</link>
					<fielddominance>none</fielddominance>
					<itemhistory>
						<uuid>DEE15309-57DA-4C9B-93A5-F67734F3C7B5</uuid>
					</itemhistory>
				</clipitem>
				<clipitem id="010_09_04_A_OK">
					<name>010_09_04_A_OK</name>
					<duration>313</duration>
					<rate>
						<ntsc>FALSE</ntsc>
						<timebase>24</timebase>
					</rate>
					<in>89</in>
					<out>197</out>
					<start>34311</start>
					<end>34419</end>
					<pixelaspectratio>Square</pixelaspectratio>
					<enabled>TRUE</enabled>
					<anamorphic>FALSE</anamorphic>
					<alphatype>none</alphatype>
					<masterclipid>010_09_04_A_OK1</masterclipid>
					<logginginfo>
						<scene/>
						<shottake/>
						<lognote/>
						<good>FALSE</good>
					</logginginfo>
					<labels>
						<label2/>
					</labels>
					<comments>
						<mastercomment1/>
						<mastercomment2/>
						<mastercomment3/>
						<mastercomment4/>
					</comments>
					<file id="A002C022_221211_R03K">
						<name>A002C022_221211_R03K.mov</name>
						<pathurl>file://localhost/Volumes/%E3%80%8A%E6%98%8F%E5%A4%B4%E8%BD%AC%E5%90%91%E3%80%8B%20Editing/%E6%98%8F%E5%A4%B4%E8%BD%AC%E5%90%91/%E8%BD%AC%E7%A0%81%E7%B4%A0%E6%9D%90/20221211/A002R03K/A002C022_221211_R03K.mov</pathurl>
						<rate>
							<timebase>24</timebase>
						</rate>
						<duration>313</duration>
						<timecode>
							<rate>
								<timebase>24</timebase>
							</rate>
							<string>13:10:33:05</string>
							<frame>1138397</frame>
							<displayformat>NDF</displayformat>
							<source>source</source>
							<reel>
								<name>A002R03K</name>
							</reel>
						</timecode>
						<media>
							<video>
								<duration>313</duration>
								<samplecharacteristics>
									<width>1920</width>
									<height>1080</height>
								</samplecharacteristics>
							</video>
							<audio>
								<samplecharacteristics>
									<samplerate>48000</samplerate>
									<depth>24</depth>
								</samplecharacteristics>
								<channelcount>1</channelcount>
							</audio>
							<audio>
								<samplecharacteristics>
									<samplerate>48000</samplerate>
									<depth>24</depth>
								</samplecharacteristics>
								<channelcount>1</channelcount>
							</audio>
							<audio>
								<samplecharacteristics>
									<samplerate>48000</samplerate>
									<depth>24</depth>
								</samplecharacteristics>
								<channelcount>1</channelcount>
							</audio>
							<audio>
								<samplecharacteristics>
									<samplerate>48000</samplerate>
									<depth>24</depth>
								</samplecharacteristics>
								<channelcount>1</channelcount>
							</audio>
						</media>
					</file>
					<sourcetrack>
						<mediatype>video</mediatype>
					</sourcetrack>
					<link>
						<linkclipref>010_09_04_A_OK</linkclipref>
						<mediatype>video</mediatype>
						<trackindex>1</trackindex>
						<clipindex>62</clipindex>
					</link>
					<link>
						<linkclipref>010_09_04_A_OK2</linkclipref>
						<mediatype>audio</mediatype>
						<trackindex>1</trackindex>
						<clipindex>62</clipindex>
					</link>
					<link>
						<linkclipref>010_09_04_A_OK3</linkclipref>
						<mediatype>audio</mediatype>
						<trackindex>2</trackindex>
						<clipindex>62</clipindex>
					</link>
					<link>
						<linkclipref>010_09_04_A_OK4</linkclipref>
						<mediatype>audio</mediatype>
						<trackindex>3</trackindex>
						<clipindex>60</clipindex>
					</link>
					<link>
						<linkclipref>010_09_04_A_OK5</linkclipref>
						<mediatype>audio</mediatype>
						<trackindex>4</trackindex>
						<clipindex>36</clipindex>
					</link>
					<fielddominance>none</fielddominance>
					<itemhistory>
						<uuid>80E95E09-E63B-475B-A47E-653D1D8BB89B</uuid>
					</itemhistory>
				</clipitem>
				<clipitem id="010_10_01_A">
					<name>010_10_01_A</name>
					<duration>438</duration>
					<rate>
						<ntsc>FALSE</ntsc>
						<timebase>24</timebase>
					</rate>
					<in>0</in>
					<out>438</out>
					<start>34419</start>
					<end>34857</end>
					<pixelaspectratio>Square</pixelaspectratio>
					<enabled>TRUE</enabled>
					<anamorphic>FALSE</anamorphic>
					<alphatype>none</alphatype>
					<masterclipid>010_10_01_A1</masterclipid>
					<logginginfo>
						<scene/>
						<shottake/>
						<lognote/>
						<good>FALSE</good>
					</logginginfo>
					<labels>
						<label2/>
					</labels>
					<comments>
						<mastercomment1/>
						<mastercomment2/>
						<mastercomment3/>
						<mastercomment4/>
					</comments>
					<file id="A002C023_221211_R03K">
						<name>A002C023_221211_R03K.mov</name>
						<pathurl>file://localhost/Volumes/%E3%80%8A%E6%98%8F%E5%A4%B4%E8%BD%AC%E5%90%91%E3%80%8B%20Editing/%E6%98%8F%E5%A4%B4%E8%BD%AC%E5%90%91/%E8%BD%AC%E7%A0%81%E7%B4%A0%E6%9D%90/20221211/A002R03K/A002C023_221211_R03K.mov</pathurl>
						<rate>
							<timebase>24</timebase>
						</rate>
						<duration>438</duration>
						<timecode>
							<rate>
								<timebase>24</timebase>
							</rate>
							<string>13:11:22:15</string>
							<frame>1139583</frame>
							<displayformat>NDF</displayformat>
							<source>source</source>
							<reel>
								<name>A002R03K</name>
							</reel>
						</timecode>
						<media>
							<video>
								<duration>438</duration>
								<samplecharacteristics>
									<width>1920</width>
									<height>1080</height>
								</samplecharacteristics>
							</video>
							<audio>
								<samplecharacteristics>
									<samplerate>48000</samplerate>
									<depth>24</depth>
								</samplecharacteristics>
								<channelcount>1</channelcount>
							</audio>
							<audio>
								<samplecharacteristics>
									<samplerate>48000</samplerate>
									<depth>24</depth>
								</samplecharacteristics>
								<channelcount>1</channelcount>
							</audio>
							<audio>
								<samplecharacteristics>
									<samplerate>48000</samplerate>
									<depth>24</depth>
								</samplecharacteristics>
								<channelcount>1</channelcount>
							</audio>
							<audio>
								<samplecharacteristics>
									<samplerate>48000</samplerate>
									<depth>24</depth>
								</samplecharacteristics>
								<channelcount>1</channelcount>
							</audio>
						</media>
					</file>
					<sourcetrack>
						<mediatype>video</mediatype>
					</sourcetrack>
					<link>
						<linkclipref>010_10_01_A</linkclipref>
						<mediatype>video</mediatype>
						<trackindex>1</trackindex>
						<clipindex>63</clipindex>
					</link>
					<link>
						<linkclipref>010_10_01_A2</linkclipref>
						<mediatype>audio</mediatype>
						<trackindex>1</trackindex>
						<clipindex>63</clipindex>
					</link>
					<link>
						<linkclipref>010_10_01_A3</linkclipref>
						<mediatype>audio</mediatype>
						<trackindex>2</trackindex>
						<clipindex>63</clipindex>
					</link>
					<link>
						<linkclipref>010_10_01_A4</linkclipref>
						<mediatype>audio</mediatype>
						<trackindex>3</trackindex>
						<clipindex>61</clipindex>
					</link>
					<link>
						<linkclipref>010_10_01_A5</linkclipref>
						<mediatype>audio</mediatype>
						<trackindex>4</trackindex>
						<clipindex>37</clipindex>
					</link>
					<fielddominance>none</fielddominance>
					<itemhistory>
						<uuid>7717704A-8618-423C-9B7E-1A7C09058FCD</uuid>
					</itemhistory>
				</clipitem>
				<clipitem id="010_10_02_A">
					<name>010_10_02_A</name>
					<duration>428</duration>
					<rate>
						<ntsc>FALSE</ntsc>
						<timebase>24</timebase>
					</rate>
					<in>0</in>
					<out>428</out>
					<start>34857</start>
					<end>35285</end>
					<pixelaspectratio>Square</pixelaspectratio>
					<enabled>TRUE</enabled>
					<anamorphic>FALSE</anamorphic>
					<alphatype>none</alphatype>
					<masterclipid>010_10_02_A1</masterclipid>
					<logginginfo>
						<scene/>
						<shottake/>
						<lognote/>
						<good>FALSE</good>
					</logginginfo>
					<labels>
						<label2/>
					</labels>
					<comments>
						<mastercomment1/>
						<mastercomment2/>
						<mastercomment3/>
						<mastercomment4/>
					</comments>
					<file id="A002C024_221211_R03K">
						<name>A002C024_221211_R03K.mov</name>
						<pathurl>file://localhost/Volumes/%E3%80%8A%E6%98%8F%E5%A4%B4%E8%BD%AC%E5%90%91%E3%80%8B%20Editing/%E6%98%8F%E5%A4%B4%E8%BD%AC%E5%90%91/%E8%BD%AC%E7%A0%81%E7%B4%A0%E6%9D%90/20221211/A002R03K/A002C024_221211_R03K.mov</pathurl>
						<rate>
							<timebase>24</timebase>
						</rate>
						<duration>428</duration>
						<timecode>
							<rate>
								<timebase>24</timebase>
							</rate>
							<string>13:16:30:14</string>
							<frame>1146974</frame>
							<displayformat>NDF</displayformat>
							<source>source</source>
							<reel>
								<name>A002R03K</name>
							</reel>
						</timecode>
						<media>
							<video>
								<duration>428</duration>
								<samplecharacteristics>
									<width>1920</width>
									<height>1080</height>
								</samplecharacteristics>
							</video>
							<audio>
								<samplecharacteristics>
									<samplerate>48000</samplerate>
									<depth>24</depth>
								</samplecharacteristics>
								<channelcount>1</channelcount>
							</audio>
							<audio>
								<samplecharacteristics>
									<samplerate>48000</samplerate>
									<depth>24</depth>
								</samplecharacteristics>
								<channelcount>1</channelcount>
							</audio>
							<audio>
								<samplecharacteristics>
									<samplerate>48000</samplerate>
									<depth>24</depth>
								</samplecharacteristics>
								<channelcount>1</channelcount>
							</audio>
							<audio>
								<samplecharacteristics>
									<samplerate>48000</samplerate>
									<depth>24</depth>
								</samplecharacteristics>
								<channelcount>1</channelcount>
							</audio>
						</media>
					</file>
					<sourcetrack>
						<mediatype>video</mediatype>
					</sourcetrack>
					<link>
						<linkclipref>010_10_02_A</linkclipref>
						<mediatype>video</mediatype>
						<trackindex>1</trackindex>
						<clipindex>64</clipindex>
					</link>
					<link>
						<linkclipref>010_10_02_A2</linkclipref>
						<mediatype>audio</mediatype>
						<trackindex>1</trackindex>
						<clipindex>64</clipindex>
					</link>
					<link>
						<linkclipref>010_10_02_A3</linkclipref>
						<mediatype>audio</mediatype>
						<trackindex>2</trackindex>
						<clipindex>64</clipindex>
					</link>
					<link>
						<linkclipref>010_10_02_A4</linkclipref>
						<mediatype>audio</mediatype>
						<trackindex>3</trackindex>
						<clipindex>62</clipindex>
					</link>
					<link>
						<linkclipref>010_10_02_A5</linkclipref>
						<mediatype>audio</mediatype>
						<trackindex>4</trackindex>
						<clipindex>38</clipindex>
					</link>
					<fielddominance>none</fielddominance>
					<itemhistory>
						<uuid>3AEB1147-DE59-48DB-9851-80475CC2A69A</uuid>
					</itemhistory>
				</clipitem>
				<clipitem id="010_10_03_A_OK">
					<name>010_10_03_A_OK</name>
					<duration>223</duration>
					<rate>
						<ntsc>FALSE</ntsc>
						<timebase>24</timebase>
					</rate>
					<in>68</in>
					<out>106</out>
					<start>35285</start>
					<end>35323</end>
					<pixelaspectratio>Square</pixelaspectratio>
					<enabled>TRUE</enabled>
					<anamorphic>FALSE</anamorphic>
					<alphatype>none</alphatype>
					<masterclipid>010_10_03_A_OK1</masterclipid>
					<logginginfo>
						<scene/>
						<shottake/>
						<lognote/>
						<good>FALSE</good>
					</logginginfo>
					<labels>
						<label2/>
					</labels>
					<comments>
						<mastercomment1/>
						<mastercomment2/>
						<mastercomment3/>
						<mastercomment4/>
					</comments>
					<file id="A002C025_221211_R03K">
						<name>A002C025_221211_R03K.mov</name>
						<pathurl>file://localhost/Volumes/%E3%80%8A%E6%98%8F%E5%A4%B4%E8%BD%AC%E5%90%91%E3%80%8B%20Editing/%E6%98%8F%E5%A4%B4%E8%BD%AC%E5%90%91/%E8%BD%AC%E7%A0%81%E7%B4%A0%E6%9D%90/20221211/A002R03K/A002C025_221211_R03K.mov</pathurl>
						<rate>
							<timebase>24</timebase>
						</rate>
						<duration>223</duration>
						<timecode>
							<rate>
								<timebase>24</timebase>
							</rate>
							<string>13:16:49:07</string>
							<frame>1147423</frame>
							<displayformat>NDF</displayformat>
							<source>source</source>
							<reel>
								<name>A002R03K</name>
							</reel>
						</timecode>
						<media>
							<video>
								<duration>223</duration>
								<samplecharacteristics>
									<width>1920</width>
									<height>1080</height>
								</samplecharacteristics>
							</video>
							<audio>
								<samplecharacteristics>
									<samplerate>48000</samplerate>
									<depth>24</depth>
								</samplecharacteristics>
								<channelcount>1</channelcount>
							</audio>
							<audio>
								<samplecharacteristics>
									<samplerate>48000</samplerate>
									<depth>24</depth>
								</samplecharacteristics>
								<channelcount>1</channelcount>
							</audio>
							<audio>
								<samplecharacteristics>
									<samplerate>48000</samplerate>
									<depth>24</depth>
								</samplecharacteristics>
								<channelcount>1</channelcount>
							</audio>
							<audio>
								<samplecharacteristics>
									<samplerate>48000</samplerate>
									<depth>24</depth>
								</samplecharacteristics>
								<channelcount>1</channelcount>
							</audio>
						</media>
					</file>
					<sourcetrack>
						<mediatype>video</mediatype>
					</sourcetrack>
					<link>
						<linkclipref>010_10_03_A_OK</linkclipref>
						<mediatype>video</mediatype>
						<trackindex>1</trackindex>
						<clipindex>65</clipindex>
					</link>
					<link>
						<linkclipref>010_10_03_A_OK2</linkclipref>
						<mediatype>audio</mediatype>
						<trackindex>1</trackindex>
						<clipindex>65</clipindex>
					</link>
					<link>
						<linkclipref>010_10_03_A_OK3</linkclipref>
						<mediatype>audio</mediatype>
						<trackindex>2</trackindex>
						<clipindex>65</clipindex>
					</link>
					<link>
						<linkclipref>010_10_03_A_OK4</linkclipref>
						<mediatype>audio</mediatype>
						<trackindex>3</trackindex>
						<clipindex>63</clipindex>
					</link>
					<link>
						<linkclipref>010_10_03_A_OK5</linkclipref>
						<mediatype>audio</mediatype>
						<trackindex>4</trackindex>
						<clipindex>39</clipindex>
					</link>
					<fielddominance>none</fielddominance>
					<itemhistory>
						<uuid>EC32C9BF-33DE-4648-BC5F-1ADEC1DFA9D0</uuid>
					</itemhistory>
				</clipitem>
				<clipitem id="010_11_01_A">
					<name>010_11_01_A</name>
					<duration>358</duration>
					<rate>
						<ntsc>FALSE</ntsc>
						<timebase>24</timebase>
					</rate>
					<in>0</in>
					<out>358</out>
					<start>35323</start>
					<end>35681</end>
					<pixelaspectratio>Square</pixelaspectratio>
					<enabled>TRUE</enabled>
					<anamorphic>FALSE</anamorphic>
					<alphatype>none</alphatype>
					<masterclipid>010_11_01_A1</masterclipid>
					<logginginfo>
						<scene/>
						<shottake/>
						<lognote/>
						<good>FALSE</good>
					</logginginfo>
					<labels>
						<label2/>
					</labels>
					<comments>
						<mastercomment1/>
						<mastercomment2/>
						<mastercomment3/>
						<mastercomment4/>
					</comments>
					<file id="A002C026_221211_R03K">
						<name>A002C026_221211_R03K.mov</name>
						<pathurl>file://localhost/Volumes/%E3%80%8A%E6%98%8F%E5%A4%B4%E8%BD%AC%E5%90%91%E3%80%8B%20Editing/%E6%98%8F%E5%A4%B4%E8%BD%AC%E5%90%91/%E8%BD%AC%E7%A0%81%E7%B4%A0%E6%9D%90/20221211/A002R03K/A002C026_221211_R03K.mov</pathurl>
						<rate>
							<timebase>24</timebase>
						</rate>
						<duration>358</duration>
						<timecode>
							<rate>
								<timebase>24</timebase>
							</rate>
							<string>13:20:49:03</string>
							<frame>1153179</frame>
							<displayformat>NDF</displayformat>
							<source>source</source>
							<reel>
								<name>A002R03K</name>
							</reel>
						</timecode>
						<media>
							<video>
								<duration>358</duration>
								<samplecharacteristics>
									<width>1920</width>
									<height>1080</height>
								</samplecharacteristics>
							</video>
							<audio>
								<samplecharacteristics>
									<samplerate>48000</samplerate>
									<depth>24</depth>
								</samplecharacteristics>
								<channelcount>1</channelcount>
							</audio>
							<audio>
								<samplecharacteristics>
									<samplerate>48000</samplerate>
									<depth>24</depth>
								</samplecharacteristics>
								<channelcount>1</channelcount>
							</audio>
							<audio>
								<samplecharacteristics>
									<samplerate>48000</samplerate>
									<depth>24</depth>
								</samplecharacteristics>
								<channelcount>1</channelcount>
							</audio>
							<audio>
								<samplecharacteristics>
									<samplerate>48000</samplerate>
									<depth>24</depth>
								</samplecharacteristics>
								<channelcount>1</channelcount>
							</audio>
						</media>
					</file>
					<sourcetrack>
						<mediatype>video</mediatype>
					</sourcetrack>
					<link>
						<linkclipref>010_11_01_A</linkclipref>
						<mediatype>video</mediatype>
						<trackindex>1</trackindex>
						<clipindex>66</clipindex>
					</link>
					<link>
						<linkclipref>010_11_01_A2</linkclipref>
						<mediatype>audio</mediatype>
						<trackindex>1</trackindex>
						<clipindex>66</clipindex>
					</link>
					<link>
						<linkclipref>010_11_01_A3</linkclipref>
						<mediatype>audio</mediatype>
						<trackindex>2</trackindex>
						<clipindex>66</clipindex>
					</link>
					<link>
						<linkclipref>010_11_01_A4</linkclipref>
						<mediatype>audio</mediatype>
						<trackindex>3</trackindex>
						<clipindex>64</clipindex>
					</link>
					<link>
						<linkclipref>010_11_01_A5</linkclipref>
						<mediatype>audio</mediatype>
						<trackindex>4</trackindex>
						<clipindex>40</clipindex>
					</link>
					<fielddominance>none</fielddominance>
					<itemhistory>
						<uuid>E00DB5B7-776F-4569-9375-0EE60F378B51</uuid>
					</itemhistory>
				</clipitem>
				<clipitem id="010_11_02_A_OK">
					<name>010_11_02_A_OK</name>
					<duration>415</duration>
					<rate>
						<ntsc>FALSE</ntsc>
						<timebase>24</timebase>
					</rate>
					<in>146</in>
					<out>242</out>
					<start>35681</start>
					<end>35777</end>
					<pixelaspectratio>Square</pixelaspectratio>
					<enabled>TRUE</enabled>
					<anamorphic>FALSE</anamorphic>
					<alphatype>none</alphatype>
					<masterclipid>010_11_02_A_OK1</masterclipid>
					<logginginfo>
						<scene/>
						<shottake/>
						<lognote/>
						<good>FALSE</good>
					</logginginfo>
					<labels>
						<label2/>
					</labels>
					<comments>
						<mastercomment1/>
						<mastercomment2/>
						<mastercomment3/>
						<mastercomment4/>
					</comments>
					<file id="A002C027_221211_R03K">
						<name>A002C027_221211_R03K.mov</name>
						<pathurl>file://localhost/Volumes/%E3%80%8A%E6%98%8F%E5%A4%B4%E8%BD%AC%E5%90%91%E3%80%8B%20Editing/%E6%98%8F%E5%A4%B4%E8%BD%AC%E5%90%91/%E8%BD%AC%E7%A0%81%E7%B4%A0%E6%9D%90/20221211/A002R03K/A002C027_221211_R03K.mov</pathurl>
						<rate>
							<timebase>24</timebase>
						</rate>
						<duration>415</duration>
						<timecode>
							<rate>
								<timebase>24</timebase>
							</rate>
							<string>13:21:13:15</string>
							<frame>1153767</frame>
							<displayformat>NDF</displayformat>
							<source>source</source>
							<reel>
								<name>A002R03K</name>
							</reel>
						</timecode>
						<media>
							<video>
								<duration>415</duration>
								<samplecharacteristics>
									<width>1920</width>
									<height>1080</height>
								</samplecharacteristics>
							</video>
							<audio>
								<samplecharacteristics>
									<samplerate>48000</samplerate>
									<depth>24</depth>
								</samplecharacteristics>
								<channelcount>1</channelcount>
							</audio>
							<audio>
								<samplecharacteristics>
									<samplerate>48000</samplerate>
									<depth>24</depth>
								</samplecharacteristics>
								<channelcount>1</channelcount>
							</audio>
							<audio>
								<samplecharacteristics>
									<samplerate>48000</samplerate>
									<depth>24</depth>
								</samplecharacteristics>
								<channelcount>1</channelcount>
							</audio>
							<audio>
								<samplecharacteristics>
									<samplerate>48000</samplerate>
									<depth>24</depth>
								</samplecharacteristics>
								<channelcount>1</channelcount>
							</audio>
						</media>
					</file>
					<sourcetrack>
						<mediatype>video</mediatype>
					</sourcetrack>
					<link>
						<linkclipref>010_11_02_A_OK</linkclipref>
						<mediatype>video</mediatype>
						<trackindex>1</trackindex>
						<clipindex>67</clipindex>
					</link>
					<link>
						<linkclipref>010_11_02_A_OK2</linkclipref>
						<mediatype>audio</mediatype>
						<trackindex>1</trackindex>
						<clipindex>67</clipindex>
					</link>
					<link>
						<linkclipref>010_11_02_A_OK3</linkclipref>
						<mediatype>audio</mediatype>
						<trackindex>2</trackindex>
						<clipindex>67</clipindex>
					</link>
					<link>
						<linkclipref>010_11_02_A_OK4</linkclipref>
						<mediatype>audio</mediatype>
						<trackindex>3</trackindex>
						<clipindex>65</clipindex>
					</link>
					<link>
						<linkclipref>010_11_02_A_OK5</linkclipref>
						<mediatype>audio</mediatype>
						<trackindex>4</trackindex>
						<clipindex>41</clipindex>
					</link>
					<fielddominance>none</fielddominance>
					<itemhistory>
						<uuid>382C8B23-3BC4-4F38-A0F1-F8540443143A</uuid>
					</itemhistory>
				</clipitem>
				<clipitem id="010_12_01_A_OK">
					<name>010_12_01_A_OK</name>
					<duration>853</duration>
					<rate>
						<ntsc>FALSE</ntsc>
						<timebase>24</timebase>
					</rate>
					<in>616</in>
					<out>853</out>
					<start>35777</start>
					<end>36014</end>
					<pixelaspectratio>Square</pixelaspectratio>
					<enabled>TRUE</enabled>
					<anamorphic>FALSE</anamorphic>
					<alphatype>none</alphatype>
					<masterclipid>010_12_01_A_OK1</masterclipid>
					<logginginfo>
						<scene/>
						<shottake/>
						<lognote/>
						<good>FALSE</good>
					</logginginfo>
					<labels>
						<label2/>
					</labels>
					<comments>
						<mastercomment1/>
						<mastercomment2/>
						<mastercomment3/>
						<mastercomment4/>
					</comments>
					<file id="A002C028_221211_R03K">
						<name>A002C028_221211_R03K.mov</name>
						<pathurl>file://localhost/Volumes/%E3%80%8A%E6%98%8F%E5%A4%B4%E8%BD%AC%E5%90%91%E3%80%8B%20Editing/%E6%98%8F%E5%A4%B4%E8%BD%AC%E5%90%91/%E8%BD%AC%E7%A0%81%E7%B4%A0%E6%9D%90/20221211/A002R03K/A002C028_221211_R03K.mov</pathurl>
						<rate>
							<timebase>24</timebase>
						</rate>
						<duration>853</duration>
						<timecode>
							<rate>
								<timebase>24</timebase>
							</rate>
							<string>13:36:57:00</string>
							<frame>1176408</frame>
							<displayformat>NDF</displayformat>
							<source>source</source>
							<reel>
								<name>A002R03K</name>
							</reel>
						</timecode>
						<media>
							<video>
								<duration>853</duration>
								<samplecharacteristics>
									<width>1920</width>
									<height>1080</height>
								</samplecharacteristics>
							</video>
							<audio>
								<samplecharacteristics>
									<samplerate>48000</samplerate>
									<depth>24</depth>
								</samplecharacteristics>
								<channelcount>1</channelcount>
							</audio>
							<audio>
								<samplecharacteristics>
									<samplerate>48000</samplerate>
									<depth>24</depth>
								</samplecharacteristics>
								<channelcount>1</channelcount>
							</audio>
							<audio>
								<samplecharacteristics>
									<samplerate>48000</samplerate>
									<depth>24</depth>
								</samplecharacteristics>
								<channelcount>1</channelcount>
							</audio>
							<audio>
								<samplecharacteristics>
									<samplerate>48000</samplerate>
									<depth>24</depth>
								</samplecharacteristics>
								<channelcount>1</channelcount>
							</audio>
						</media>
					</file>
					<sourcetrack>
						<mediatype>video</mediatype>
					</sourcetrack>
					<link>
						<linkclipref>010_12_01_A_OK</linkclipref>
						<mediatype>video</mediatype>
						<trackindex>1</trackindex>
						<clipindex>68</clipindex>
					</link>
					<link>
						<linkclipref>010_12_01_A_OK2</linkclipref>
						<mediatype>audio</mediatype>
						<trackindex>1</trackindex>
						<clipindex>68</clipindex>
					</link>
					<link>
						<linkclipref>010_12_01_A_OK3</linkclipref>
						<mediatype>audio</mediatype>
						<trackindex>2</trackindex>
						<clipindex>68</clipindex>
					</link>
					<link>
						<linkclipref>010_12_01_A_OK4</linkclipref>
						<mediatype>audio</mediatype>
						<trackindex>3</trackindex>
						<clipindex>66</clipindex>
					</link>
					<link>
						<linkclipref>010_12_01_A_OK5</linkclipref>
						<mediatype>audio</mediatype>
						<trackindex>4</trackindex>
						<clipindex>42</clipindex>
					</link>
					<fielddominance>none</fielddominance>
					<itemhistory>
						<uuid>A5B4C700-494D-47D8-B055-AAFA747C3726</uuid>
					</itemhistory>
				</clipitem>
				<clipitem id="010_12_01_B_OK">
					<name>010_12_01_B_OK</name>
					<duration>816</duration>
					<rate>
						<ntsc>FALSE</ntsc>
						<timebase>24</timebase>
					</rate>
					<in>0</in>
					<out>816</out>
					<start>36014</start>
					<end>36830</end>
					<pixelaspectratio>Square</pixelaspectratio>
					<enabled>TRUE</enabled>
					<anamorphic>FALSE</anamorphic>
					<alphatype>none</alphatype>
					<masterclipid>010_12_01_B_OK1</masterclipid>
					<logginginfo>
						<scene/>
						<shottake/>
						<lognote/>
						<good>FALSE</good>
					</logginginfo>
					<labels>
						<label2/>
					</labels>
					<comments>
						<mastercomment1/>
						<mastercomment2/>
						<mastercomment3/>
						<mastercomment4/>
					</comments>
					<file id="B002C011_130101_R1WX">
						<name>B002C011_130101_R1WX.mov</name>
						<pathurl>file://localhost/Volumes/%E3%80%8A%E6%98%8F%E5%A4%B4%E8%BD%AC%E5%90%91%E3%80%8B%20Editing/%E6%98%8F%E5%A4%B4%E8%BD%AC%E5%90%91/%E8%BD%AC%E7%A0%81%E7%B4%A0%E6%9D%90/20221211/B002R1WX/B002C011_130101_R1WX.mov</pathurl>
						<rate>
							<timebase>24</timebase>
						</rate>
						<duration>816</duration>
						<timecode>
							<rate>
								<timebase>24</timebase>
							</rate>
							<string>13:36:58:03</string>
							<frame>1176435</frame>
							<displayformat>NDF</displayformat>
							<source>source</source>
							<reel>
								<name>B002R1WX</name>
							</reel>
						</timecode>
						<media>
							<video>
								<duration>816</duration>
								<samplecharacteristics>
									<width>1920</width>
									<height>1080</height>
								</samplecharacteristics>
							</video>
							<audio>
								<samplecharacteristics>
									<samplerate>48000</samplerate>
									<depth>24</depth>
								</samplecharacteristics>
								<channelcount>1</channelcount>
							</audio>
							<audio>
								<samplecharacteristics>
									<samplerate>48000</samplerate>
									<depth>24</depth>
								</samplecharacteristics>
								<channelcount>1</channelcount>
							</audio>
							<audio>
								<samplecharacteristics>
									<samplerate>48000</samplerate>
									<depth>24</depth>
								</samplecharacteristics>
								<channelcount>1</channelcount>
							</audio>
							<audio>
								<samplecharacteristics>
									<samplerate>48000</samplerate>
									<depth>24</depth>
								</samplecharacteristics>
								<channelcount>1</channelcount>
							</audio>
						</media>
					</file>
					<sourcetrack>
						<mediatype>video</mediatype>
					</sourcetrack>
					<link>
						<linkclipref>010_12_01_B_OK</linkclipref>
						<mediatype>video</mediatype>
						<trackindex>1</trackindex>
						<clipindex>69</clipindex>
					</link>
					<link>
						<linkclipref>010_12_01_B_OK2</linkclipref>
						<mediatype>audio</mediatype>
						<trackindex>1</trackindex>
						<clipindex>69</clipindex>
					</link>
					<link>
						<linkclipref>010_12_01_B_OK3</linkclipref>
						<mediatype>audio</mediatype>
						<trackindex>2</trackindex>
						<clipindex>69</clipindex>
					</link>
					<link>
						<linkclipref>010_12_01_B_OK4</linkclipref>
						<mediatype>audio</mediatype>
						<trackindex>3</trackindex>
						<clipindex>67</clipindex>
					</link>
					<link>
						<linkclipref>010_12_01_B_OK5</linkclipref>
						<mediatype>audio</mediatype>
						<trackindex>4</trackindex>
						<clipindex>43</clipindex>
					</link>
					<fielddominance>none</fielddominance>
					<itemhistory>
						<uuid>ABB1D7C8-BC31-47B8-8CCD-C61632615685</uuid>
					</itemhistory>
				</clipitem>
				<clipitem id="010_12_02_A_OK">
					<name>010_12_02_A_OK</name>
					<duration>689</duration>
					<rate>
						<ntsc>FALSE</ntsc>
						<timebase>24</timebase>
					</rate>
					<in>128</in>
					<out>186</out>
					<start>36830</start>
					<end>36888</end>
					<pixelaspectratio>Square</pixelaspectratio>
					<enabled>TRUE</enabled>
					<anamorphic>FALSE</anamorphic>
					<alphatype>none</alphatype>
					<masterclipid>010_12_02_A_OK1</masterclipid>
					<logginginfo>
						<scene/>
						<shottake/>
						<lognote/>
						<good>FALSE</good>
					</logginginfo>
					<labels>
						<label2/>
					</labels>
					<comments>
						<mastercomment1/>
						<mastercomment2/>
						<mastercomment3/>
						<mastercomment4/>
					</comments>
					<file id="A003C001_221211_R03K">
						<name>A003C001_221211_R03K.mov</name>
						<pathurl>file://localhost/Volumes/%E3%80%8A%E6%98%8F%E5%A4%B4%E8%BD%AC%E5%90%91%E3%80%8B%20Editing/%E6%98%8F%E5%A4%B4%E8%BD%AC%E5%90%91/%E8%BD%AC%E7%A0%81%E7%B4%A0%E6%9D%90/20221211/A003R03K/A003C001_221211_R03K.mov</pathurl>
						<rate>
							<timebase>24</timebase>
						</rate>
						<duration>689</duration>
						<timecode>
							<rate>
								<timebase>24</timebase>
							</rate>
							<string>13:39:30:12</string>
							<frame>1180092</frame>
							<displayformat>NDF</displayformat>
							<source>source</source>
							<reel>
								<name>A003R03K</name>
							</reel>
						</timecode>
						<media>
							<video>
								<duration>689</duration>
								<samplecharacteristics>
									<width>1920</width>
									<height>1080</height>
								</samplecharacteristics>
							</video>
							<audio>
								<samplecharacteristics>
									<samplerate>48000</samplerate>
									<depth>24</depth>
								</samplecharacteristics>
								<channelcount>1</channelcount>
							</audio>
							<audio>
								<samplecharacteristics>
									<samplerate>48000</samplerate>
									<depth>24</depth>
								</samplecharacteristics>
								<channelcount>1</channelcount>
							</audio>
							<audio>
								<samplecharacteristics>
									<samplerate>48000</samplerate>
									<depth>24</depth>
								</samplecharacteristics>
								<channelcount>1</channelcount>
							</audio>
							<audio>
								<samplecharacteristics>
									<samplerate>48000</samplerate>
									<depth>24</depth>
								</samplecharacteristics>
								<channelcount>1</channelcount>
							</audio>
						</media>
					</file>
					<sourcetrack>
						<mediatype>video</mediatype>
					</sourcetrack>
					<link>
						<linkclipref>010_12_02_A_OK</linkclipref>
						<mediatype>video</mediatype>
						<trackindex>1</trackindex>
						<clipindex>70</clipindex>
					</link>
					<link>
						<linkclipref>010_12_02_A_OK2</linkclipref>
						<mediatype>audio</mediatype>
						<trackindex>1</trackindex>
						<clipindex>70</clipindex>
					</link>
					<link>
						<linkclipref>010_12_02_A_OK3</linkclipref>
						<mediatype>audio</mediatype>
						<trackindex>2</trackindex>
						<clipindex>70</clipindex>
					</link>
					<link>
						<linkclipref>010_12_02_A_OK4</linkclipref>
						<mediatype>audio</mediatype>
						<trackindex>3</trackindex>
						<clipindex>68</clipindex>
					</link>
					<link>
						<linkclipref>010_12_02_A_OK5</linkclipref>
						<mediatype>audio</mediatype>
						<trackindex>4</trackindex>
						<clipindex>44</clipindex>
					</link>
					<fielddominance>none</fielddominance>
					<itemhistory>
						<uuid>313C89AA-E904-4CE8-AA27-01BC9AB963D7</uuid>
					</itemhistory>
				</clipitem>
				<clipitem id="010_12_02_B_OK">
					<name>010_12_02_B_OK</name>
					<duration>679</duration>
					<rate>
						<ntsc>FALSE</ntsc>
						<timebase>24</timebase>
					</rate>
					<in>508</in>
					<out>565</out>
					<start>36888</start>
					<end>36945</end>
					<pixelaspectratio>Square</pixelaspectratio>
					<enabled>TRUE</enabled>
					<anamorphic>FALSE</anamorphic>
					<alphatype>none</alphatype>
					<masterclipid>010_12_02_B_OK1</masterclipid>
					<logginginfo>
						<scene/>
						<shottake/>
						<lognote/>
						<good>FALSE</good>
					</logginginfo>
					<labels>
						<label2/>
					</labels>
					<comments>
						<mastercomment1/>
						<mastercomment2/>
						<mastercomment3/>
						<mastercomment4/>
					</comments>
					<file id="B002C012_130101_R1WX">
						<name>B002C012_130101_R1WX.mov</name>
						<pathurl>file://localhost/Volumes/%E3%80%8A%E6%98%8F%E5%A4%B4%E8%BD%AC%E5%90%91%E3%80%8B%20Editing/%E6%98%8F%E5%A4%B4%E8%BD%AC%E5%90%91/%E8%BD%AC%E7%A0%81%E7%B4%A0%E6%9D%90/20221211/B002R1WX/B002C012_130101_R1WX.mov</pathurl>
						<rate>
							<timebase>24</timebase>
						</rate>
						<duration>679</duration>
						<timecode>
							<rate>
								<timebase>24</timebase>
							</rate>
							<string>13:39:30:12</string>
							<frame>1180092</frame>
							<displayformat>NDF</displayformat>
							<source>source</source>
							<reel>
								<name>B002R1WX</name>
							</reel>
						</timecode>
						<media>
							<video>
								<duration>679</duration>
								<samplecharacteristics>
									<width>1920</width>
									<height>1080</height>
								</samplecharacteristics>
							</video>
							<audio>
								<samplecharacteristics>
									<samplerate>48000</samplerate>
									<depth>24</depth>
								</samplecharacteristics>
								<channelcount>1</channelcount>
							</audio>
							<audio>
								<samplecharacteristics>
									<samplerate>48000</samplerate>
									<depth>24</depth>
								</samplecharacteristics>
								<channelcount>1</channelcount>
							</audio>
							<audio>
								<samplecharacteristics>
									<samplerate>48000</samplerate>
									<depth>24</depth>
								</samplecharacteristics>
								<channelcount>1</channelcount>
							</audio>
							<audio>
								<samplecharacteristics>
									<samplerate>48000</samplerate>
									<depth>24</depth>
								</samplecharacteristics>
								<channelcount>1</channelcount>
							</audio>
						</media>
					</file>
					<sourcetrack>
						<mediatype>video</mediatype>
					</sourcetrack>
					<link>
						<linkclipref>010_12_02_B_OK</linkclipref>
						<mediatype>video</mediatype>
						<trackindex>1</trackindex>
						<clipindex>71</clipindex>
					</link>
					<link>
						<linkclipref>010_12_02_B_OK2</linkclipref>
						<mediatype>audio</mediatype>
						<trackindex>1</trackindex>
						<clipindex>71</clipindex>
					</link>
					<link>
						<linkclipref>010_12_02_B_OK3</linkclipref>
						<mediatype>audio</mediatype>
						<trackindex>2</trackindex>
						<clipindex>71</clipindex>
					</link>
					<link>
						<linkclipref>010_12_02_B_OK4</linkclipref>
						<mediatype>audio</mediatype>
						<trackindex>3</trackindex>
						<clipindex>69</clipindex>
					</link>
					<link>
						<linkclipref>010_12_02_B_OK5</linkclipref>
						<mediatype>audio</mediatype>
						<trackindex>4</trackindex>
						<clipindex>45</clipindex>
					</link>
					<fielddominance>none</fielddominance>
					<itemhistory>
						<uuid>D05CF8F4-5AF0-4735-A24C-9A2F85A55B74</uuid>
					</itemhistory>
				</clipitem>
				<clipitem id="010_12_03_A">
					<name>010_12_03_A</name>
					<duration>1553</duration>
					<rate>
						<ntsc>FALSE</ntsc>
						<timebase>24</timebase>
					</rate>
					<in>0</in>
					<out>1553</out>
					<start>36945</start>
					<end>38498</end>
					<pixelaspectratio>Square</pixelaspectratio>
					<enabled>TRUE</enabled>
					<anamorphic>FALSE</anamorphic>
					<alphatype>none</alphatype>
					<masterclipid>010_12_03_A1</masterclipid>
					<logginginfo>
						<scene/>
						<shottake/>
						<lognote/>
						<good>FALSE</good>
					</logginginfo>
					<labels>
						<label2/>
					</labels>
					<comments>
						<mastercomment1/>
						<mastercomment2/>
						<mastercomment3/>
						<mastercomment4/>
					</comments>
					<file id="A003C002_221211_R03K">
						<name>A003C002_221211_R03K.mov</name>
						<pathurl>file://localhost/Volumes/%E3%80%8A%E6%98%8F%E5%A4%B4%E8%BD%AC%E5%90%91%E3%80%8B%20Editing/%E6%98%8F%E5%A4%B4%E8%BD%AC%E5%90%91/%E8%BD%AC%E7%A0%81%E7%B4%A0%E6%9D%90/20221211/A003R03K/A003C002_221211_R03K.mov</pathurl>
						<rate>
							<timebase>24</timebase>
						</rate>
						<duration>1553</duration>
						<timecode>
							<rate>
								<timebase>24</timebase>
							</rate>
							<string>13:40:55:22</string>
							<frame>1182142</frame>
							<displayformat>NDF</displayformat>
							<source>source</source>
							<reel>
								<name>A003R03K</name>
							</reel>
						</timecode>
						<media>
							<video>
								<duration>1553</duration>
								<samplecharacteristics>
									<width>1920</width>
									<height>1080</height>
								</samplecharacteristics>
							</video>
							<audio>
								<samplecharacteristics>
									<samplerate>48000</samplerate>
									<depth>24</depth>
								</samplecharacteristics>
								<channelcount>1</channelcount>
							</audio>
							<audio>
								<samplecharacteristics>
									<samplerate>48000</samplerate>
									<depth>24</depth>
								</samplecharacteristics>
								<channelcount>1</channelcount>
							</audio>
							<audio>
								<samplecharacteristics>
									<samplerate>48000</samplerate>
									<depth>24</depth>
								</samplecharacteristics>
								<channelcount>1</channelcount>
							</audio>
						</media>
					</file>
					<sourcetrack>
						<mediatype>video</mediatype>
					</sourcetrack>
					<link>
						<linkclipref>010_12_03_A</linkclipref>
						<mediatype>video</mediatype>
						<trackindex>1</trackindex>
						<clipindex>72</clipindex>
					</link>
					<link>
						<linkclipref>010_12_03_A2</linkclipref>
						<mediatype>audio</mediatype>
						<trackindex>1</trackindex>
						<clipindex>72</clipindex>
					</link>
					<link>
						<linkclipref>010_12_03_A3</linkclipref>
						<mediatype>audio</mediatype>
						<trackindex>2</trackindex>
						<clipindex>72</clipindex>
					</link>
					<link>
						<linkclipref>010_12_03_A4</linkclipref>
						<mediatype>audio</mediatype>
						<trackindex>3</trackindex>
						<clipindex>70</clipindex>
					</link>
					<fielddominance>none</fielddominance>
					<itemhistory>
						<uuid>0CFBC488-FD76-49F3-A498-31F4D2CFB23D</uuid>
					</itemhistory>
				</clipitem>
				<clipitem id="010_12_03_B">
					<name>010_12_03_B</name>
					<duration>1552</duration>
					<rate>
						<ntsc>FALSE</ntsc>
						<timebase>24</timebase>
					</rate>
					<in>0</in>
					<out>1552</out>
					<start>38498</start>
					<end>40050</end>
					<pixelaspectratio>Square</pixelaspectratio>
					<enabled>TRUE</enabled>
					<anamorphic>FALSE</anamorphic>
					<alphatype>none</alphatype>
					<masterclipid>010_12_03_B1</masterclipid>
					<logginginfo>
						<scene/>
						<shottake/>
						<lognote/>
						<good>FALSE</good>
					</logginginfo>
					<labels>
						<label2/>
					</labels>
					<comments>
						<mastercomment1/>
						<mastercomment2/>
						<mastercomment3/>
						<mastercomment4/>
					</comments>
					<file id="B002C013_130101_R1WX">
						<name>B002C013_130101_R1WX.mov</name>
						<pathurl>file://localhost/Volumes/%E3%80%8A%E6%98%8F%E5%A4%B4%E8%BD%AC%E5%90%91%E3%80%8B%20Editing/%E6%98%8F%E5%A4%B4%E8%BD%AC%E5%90%91/%E8%BD%AC%E7%A0%81%E7%B4%A0%E6%9D%90/20221211/B002R1WX/B002C013_130101_R1WX.mov</pathurl>
						<rate>
							<timebase>24</timebase>
						</rate>
						<duration>1552</duration>
						<timecode>
							<rate>
								<timebase>24</timebase>
							</rate>
							<string>13:40:55:17</string>
							<frame>1182137</frame>
							<displayformat>NDF</displayformat>
							<source>source</source>
							<reel>
								<name>B002R1WX</name>
							</reel>
						</timecode>
						<media>
							<video>
								<duration>1552</duration>
								<samplecharacteristics>
									<width>1920</width>
									<height>1080</height>
								</samplecharacteristics>
							</video>
							<audio>
								<samplecharacteristics>
									<samplerate>48000</samplerate>
									<depth>24</depth>
								</samplecharacteristics>
								<channelcount>1</channelcount>
							</audio>
							<audio>
								<samplecharacteristics>
									<samplerate>48000</samplerate>
									<depth>24</depth>
								</samplecharacteristics>
								<channelcount>1</channelcount>
							</audio>
							<audio>
								<samplecharacteristics>
									<samplerate>48000</samplerate>
									<depth>24</depth>
								</samplecharacteristics>
								<channelcount>1</channelcount>
							</audio>
						</media>
					</file>
					<sourcetrack>
						<mediatype>video</mediatype>
					</sourcetrack>
					<link>
						<linkclipref>010_12_03_B</linkclipref>
						<mediatype>video</mediatype>
						<trackindex>1</trackindex>
						<clipindex>73</clipindex>
					</link>
					<link>
						<linkclipref>010_12_03_B2</linkclipref>
						<mediatype>audio</mediatype>
						<trackindex>1</trackindex>
						<clipindex>73</clipindex>
					</link>
					<link>
						<linkclipref>010_12_03_B3</linkclipref>
						<mediatype>audio</mediatype>
						<trackindex>2</trackindex>
						<clipindex>73</clipindex>
					</link>
					<link>
						<linkclipref>010_12_03_B4</linkclipref>
						<mediatype>audio</mediatype>
						<trackindex>3</trackindex>
						<clipindex>71</clipindex>
					</link>
					<fielddominance>none</fielddominance>
					<itemhistory>
						<uuid>E005B658-351D-48D8-B579-BDAE9167BF35</uuid>
					</itemhistory>
				</clipitem>
				<clipitem id="010_13_01_A_OK">
					<name>010_13_01_A_OK</name>
					<duration>1518</duration>
					<rate>
						<ntsc>FALSE</ntsc>
						<timebase>24</timebase>
					</rate>
					<in>228</in>
					<out>305</out>
					<start>40050</start>
					<end>40127</end>
					<pixelaspectratio>Square</pixelaspectratio>
					<enabled>TRUE</enabled>
					<anamorphic>FALSE</anamorphic>
					<alphatype>none</alphatype>
					<masterclipid>010_13_01_A_OK1</masterclipid>
					<logginginfo>
						<scene/>
						<shottake/>
						<lognote/>
						<good>FALSE</good>
					</logginginfo>
					<labels>
						<label2/>
					</labels>
					<comments>
						<mastercomment1/>
						<mastercomment2/>
						<mastercomment3/>
						<mastercomment4/>
					</comments>
					<file id="A003C003_221211_R03K">
						<name>A003C003_221211_R03K.mov</name>
						<pathurl>file://localhost/Volumes/%E3%80%8A%E6%98%8F%E5%A4%B4%E8%BD%AC%E5%90%91%E3%80%8B%20Editing/%E6%98%8F%E5%A4%B4%E8%BD%AC%E5%90%91/%E8%BD%AC%E7%A0%81%E7%B4%A0%E6%9D%90/20221211/A003R03K/A003C003_221211_R03K.mov</pathurl>
						<rate>
							<timebase>24</timebase>
						</rate>
						<duration>1518</duration>
						<timecode>
							<rate>
								<timebase>24</timebase>
							</rate>
							<string>13:44:30:08</string>
							<frame>1187288</frame>
							<displayformat>NDF</displayformat>
							<source>source</source>
							<reel>
								<name>A003R03K</name>
							</reel>
						</timecode>
						<media>
							<video>
								<duration>1518</duration>
								<samplecharacteristics>
									<width>1920</width>
									<height>1080</height>
								</samplecharacteristics>
							</video>
							<audio>
								<samplecharacteristics>
									<samplerate>48000</samplerate>
									<depth>24</depth>
								</samplecharacteristics>
								<channelcount>1</channelcount>
							</audio>
							<audio>
								<samplecharacteristics>
									<samplerate>48000</samplerate>
									<depth>24</depth>
								</samplecharacteristics>
								<channelcount>1</channelcount>
							</audio>
							<audio>
								<samplecharacteristics>
									<samplerate>48000</samplerate>
									<depth>24</depth>
								</samplecharacteristics>
								<channelcount>1</channelcount>
							</audio>
						</media>
					</file>
					<sourcetrack>
						<mediatype>video</mediatype>
					</sourcetrack>
					<link>
						<linkclipref>010_13_01_A_OK</linkclipref>
						<mediatype>video</mediatype>
						<trackindex>1</trackindex>
						<clipindex>74</clipindex>
					</link>
					<link>
						<linkclipref>010_13_01_A_OK2</linkclipref>
						<mediatype>audio</mediatype>
						<trackindex>1</trackindex>
						<clipindex>74</clipindex>
					</link>
					<link>
						<linkclipref>010_13_01_A_OK3</linkclipref>
						<mediatype>audio</mediatype>
						<trackindex>2</trackindex>
						<clipindex>74</clipindex>
					</link>
					<link>
						<linkclipref>010_13_01_A_OK4</linkclipref>
						<mediatype>audio</mediatype>
						<trackindex>3</trackindex>
						<clipindex>72</clipindex>
					</link>
					<fielddominance>none</fielddominance>
					<itemhistory>
						<uuid>CC623306-97F8-4F03-BF47-1BB027E4896E</uuid>
					</itemhistory>
				</clipitem>
				<clipitem id="010_13_01_B_OK">
					<name>010_13_01_B_OK</name>
					<duration>1503</duration>
					<rate>
						<ntsc>FALSE</ntsc>
						<timebase>24</timebase>
					</rate>
					<in>155</in>
					<out>1503</out>
					<start>40127</start>
					<end>41475</end>
					<pixelaspectratio>Square</pixelaspectratio>
					<enabled>TRUE</enabled>
					<anamorphic>FALSE</anamorphic>
					<alphatype>none</alphatype>
					<masterclipid>010_13_01_B_OK1</masterclipid>
					<logginginfo>
						<scene/>
						<shottake/>
						<lognote/>
						<good>FALSE</good>
					</logginginfo>
					<labels>
						<label2/>
					</labels>
					<comments>
						<mastercomment1/>
						<mastercomment2/>
						<mastercomment3/>
						<mastercomment4/>
					</comments>
					<file id="B002C014_130101_R1WX">
						<name>B002C014_130101_R1WX.mov</name>
						<pathurl>file://localhost/Volumes/%E3%80%8A%E6%98%8F%E5%A4%B4%E8%BD%AC%E5%90%91%E3%80%8B%20Editing/%E6%98%8F%E5%A4%B4%E8%BD%AC%E5%90%91/%E8%BD%AC%E7%A0%81%E7%B4%A0%E6%9D%90/20221211/B002R1WX/B002C014_130101_R1WX.mov</pathurl>
						<rate>
							<timebase>24</timebase>
						</rate>
						<duration>1503</duration>
						<timecode>
							<rate>
								<timebase>24</timebase>
							</rate>
							<string>13:44:30:21</string>
							<frame>1187301</frame>
							<displayformat>NDF</displayformat>
							<source>source</source>
							<reel>
								<name>B002R1WX</name>
							</reel>
						</timecode>
						<media>
							<video>
								<duration>1503</duration>
								<samplecharacteristics>
									<width>1920</width>
									<height>1080</height>
								</samplecharacteristics>
							</video>
							<audio>
								<samplecharacteristics>
									<samplerate>48000</samplerate>
									<depth>24</depth>
								</samplecharacteristics>
								<channelcount>1</channelcount>
							</audio>
							<audio>
								<samplecharacteristics>
									<samplerate>48000</samplerate>
									<depth>24</depth>
								</samplecharacteristics>
								<channelcount>1</channelcount>
							</audio>
							<audio>
								<samplecharacteristics>
									<samplerate>48000</samplerate>
									<depth>24</depth>
								</samplecharacteristics>
								<channelcount>1</channelcount>
							</audio>
						</media>
					</file>
					<sourcetrack>
						<mediatype>video</mediatype>
					</sourcetrack>
					<link>
						<linkclipref>010_13_01_B_OK</linkclipref>
						<mediatype>video</mediatype>
						<trackindex>1</trackindex>
						<clipindex>75</clipindex>
					</link>
					<link>
						<linkclipref>010_13_01_B_OK2</linkclipref>
						<mediatype>audio</mediatype>
						<trackindex>1</trackindex>
						<clipindex>75</clipindex>
					</link>
					<link>
						<linkclipref>010_13_01_B_OK3</linkclipref>
						<mediatype>audio</mediatype>
						<trackindex>2</trackindex>
						<clipindex>75</clipindex>
					</link>
					<link>
						<linkclipref>010_13_01_B_OK4</linkclipref>
						<mediatype>audio</mediatype>
						<trackindex>3</trackindex>
						<clipindex>73</clipindex>
					</link>
					<fielddominance>none</fielddominance>
					<itemhistory>
						<uuid>19A71965-5F69-417E-A39F-72FAF4B3E803</uuid>
					</itemhistory>
				</clipitem>
				<clipitem id="010_14_01_A">
					<name>010_14_01_A</name>
					<duration>330</duration>
					<rate>
						<ntsc>FALSE</ntsc>
						<timebase>24</timebase>
					</rate>
					<in>0</in>
					<out>330</out>
					<start>41475</start>
					<end>41805</end>
					<pixelaspectratio>Square</pixelaspectratio>
					<enabled>TRUE</enabled>
					<anamorphic>FALSE</anamorphic>
					<alphatype>none</alphatype>
					<masterclipid>010_14_01_A1</masterclipid>
					<logginginfo>
						<scene/>
						<shottake/>
						<lognote/>
						<good>FALSE</good>
					</logginginfo>
					<labels>
						<label2/>
					</labels>
					<comments>
						<mastercomment1/>
						<mastercomment2/>
						<mastercomment3/>
						<mastercomment4/>
					</comments>
					<file id="A003C004_221211_R03K">
						<name>A003C004_221211_R03K.mov</name>
						<pathurl>file://localhost/Volumes/%E3%80%8A%E6%98%8F%E5%A4%B4%E8%BD%AC%E5%90%91%E3%80%8B%20Editing/%E6%98%8F%E5%A4%B4%E8%BD%AC%E5%90%91/%E8%BD%AC%E7%A0%81%E7%B4%A0%E6%9D%90/20221211/A003R03K/A003C004_221211_R03K.mov</pathurl>
						<rate>
							<timebase>24</timebase>
						</rate>
						<duration>330</duration>
						<timecode>
							<rate>
								<timebase>24</timebase>
							</rate>
							<string>13:50:29:04</string>
							<frame>1195900</frame>
							<displayformat>NDF</displayformat>
							<source>source</source>
							<reel>
								<name>A003R03K</name>
							</reel>
						</timecode>
						<media>
							<video>
								<duration>330</duration>
								<samplecharacteristics>
									<width>1920</width>
									<height>1080</height>
								</samplecharacteristics>
							</video>
							<audio>
								<samplecharacteristics>
									<samplerate>48000</samplerate>
									<depth>24</depth>
								</samplecharacteristics>
								<channelcount>1</channelcount>
							</audio>
							<audio>
								<samplecharacteristics>
									<samplerate>48000</samplerate>
									<depth>24</depth>
								</samplecharacteristics>
								<channelcount>1</channelcount>
							</audio>
							<audio>
								<samplecharacteristics>
									<samplerate>48000</samplerate>
									<depth>24</depth>
								</samplecharacteristics>
								<channelcount>1</channelcount>
							</audio>
						</media>
					</file>
					<sourcetrack>
						<mediatype>video</mediatype>
					</sourcetrack>
					<link>
						<linkclipref>010_14_01_A</linkclipref>
						<mediatype>video</mediatype>
						<trackindex>1</trackindex>
						<clipindex>76</clipindex>
					</link>
					<link>
						<linkclipref>010_14_01_A2</linkclipref>
						<mediatype>audio</mediatype>
						<trackindex>1</trackindex>
						<clipindex>76</clipindex>
					</link>
					<link>
						<linkclipref>010_14_01_A3</linkclipref>
						<mediatype>audio</mediatype>
						<trackindex>2</trackindex>
						<clipindex>76</clipindex>
					</link>
					<link>
						<linkclipref>010_14_01_A4</linkclipref>
						<mediatype>audio</mediatype>
						<trackindex>3</trackindex>
						<clipindex>74</clipindex>
					</link>
					<fielddominance>none</fielddominance>
					<itemhistory>
						<uuid>30766123-F9B4-4D6F-8814-33C6A8D0616A</uuid>
					</itemhistory>
				</clipitem>
				<clipitem id="010_14_02_A">
					<name>010_14_02_A</name>
					<duration>279</duration>
					<rate>
						<ntsc>FALSE</ntsc>
						<timebase>24</timebase>
					</rate>
					<in>0</in>
					<out>279</out>
					<start>41805</start>
					<end>42084</end>
					<pixelaspectratio>Square</pixelaspectratio>
					<enabled>TRUE</enabled>
					<anamorphic>FALSE</anamorphic>
					<alphatype>none</alphatype>
					<masterclipid>010_14_02_A1</masterclipid>
					<logginginfo>
						<scene/>
						<shottake/>
						<lognote/>
						<good>FALSE</good>
					</logginginfo>
					<labels>
						<label2/>
					</labels>
					<comments>
						<mastercomment1/>
						<mastercomment2/>
						<mastercomment3/>
						<mastercomment4/>
					</comments>
					<file id="A003C005_221211_R03K">
						<name>A003C005_221211_R03K.mov</name>
						<pathurl>file://localhost/Volumes/%E3%80%8A%E6%98%8F%E5%A4%B4%E8%BD%AC%E5%90%91%E3%80%8B%20Editing/%E6%98%8F%E5%A4%B4%E8%BD%AC%E5%90%91/%E8%BD%AC%E7%A0%81%E7%B4%A0%E6%9D%90/20221211/A003R03K/A003C005_221211_R03K.mov</pathurl>
						<rate>
							<timebase>24</timebase>
						</rate>
						<duration>279</duration>
						<timecode>
							<rate>
								<timebase>24</timebase>
							</rate>
							<string>13:50:57:07</string>
							<frame>1196575</frame>
							<displayformat>NDF</displayformat>
							<source>source</source>
							<reel>
								<name>A003R03K</name>
							</reel>
						</timecode>
						<media>
							<video>
								<duration>279</duration>
								<samplecharacteristics>
									<width>1920</width>
									<height>1080</height>
								</samplecharacteristics>
							</video>
							<audio>
								<samplecharacteristics>
									<samplerate>48000</samplerate>
									<depth>24</depth>
								</samplecharacteristics>
								<channelcount>1</channelcount>
							</audio>
							<audio>
								<samplecharacteristics>
									<samplerate>48000</samplerate>
									<depth>24</depth>
								</samplecharacteristics>
								<channelcount>1</channelcount>
							</audio>
							<audio>
								<samplecharacteristics>
									<samplerate>48000</samplerate>
									<depth>24</depth>
								</samplecharacteristics>
								<channelcount>1</channelcount>
							</audio>
						</media>
					</file>
					<sourcetrack>
						<mediatype>video</mediatype>
					</sourcetrack>
					<link>
						<linkclipref>010_14_02_A</linkclipref>
						<mediatype>video</mediatype>
						<trackindex>1</trackindex>
						<clipindex>77</clipindex>
					</link>
					<link>
						<linkclipref>010_14_02_A2</linkclipref>
						<mediatype>audio</mediatype>
						<trackindex>1</trackindex>
						<clipindex>77</clipindex>
					</link>
					<link>
						<linkclipref>010_14_02_A3</linkclipref>
						<mediatype>audio</mediatype>
						<trackindex>2</trackindex>
						<clipindex>77</clipindex>
					</link>
					<link>
						<linkclipref>010_14_02_A4</linkclipref>
						<mediatype>audio</mediatype>
						<trackindex>3</trackindex>
						<clipindex>75</clipindex>
					</link>
					<fielddominance>none</fielddominance>
					<itemhistory>
						<uuid>7342EA3E-2EDA-4FDC-B9AB-0277A1485CEF</uuid>
					</itemhistory>
				</clipitem>
				<clipitem id="010_14_03_A_OK">
					<name>010_14_03_A_OK</name>
					<duration>354</duration>
					<rate>
						<ntsc>FALSE</ntsc>
						<timebase>24</timebase>
					</rate>
					<in>67</in>
					<out>152</out>
					<start>42084</start>
					<end>42169</end>
					<pixelaspectratio>Square</pixelaspectratio>
					<enabled>TRUE</enabled>
					<anamorphic>FALSE</anamorphic>
					<alphatype>none</alphatype>
					<masterclipid>010_14_03_A_OK1</masterclipid>
					<logginginfo>
						<scene/>
						<shottake/>
						<lognote/>
						<good>FALSE</good>
					</logginginfo>
					<labels>
						<label2/>
					</labels>
					<comments>
						<mastercomment1/>
						<mastercomment2/>
						<mastercomment3/>
						<mastercomment4/>
					</comments>
					<file id="A003C006_221211_R03K">
						<name>A003C006_221211_R03K.mov</name>
						<pathurl>file://localhost/Volumes/%E3%80%8A%E6%98%8F%E5%A4%B4%E8%BD%AC%E5%90%91%E3%80%8B%20Editing/%E6%98%8F%E5%A4%B4%E8%BD%AC%E5%90%91/%E8%BD%AC%E7%A0%81%E7%B4%A0%E6%9D%90/20221211/A003R03K/A003C006_221211_R03K.mov</pathurl>
						<rate>
							<timebase>24</timebase>
						</rate>
						<duration>354</duration>
						<timecode>
							<rate>
								<timebase>24</timebase>
							</rate>
							<string>13:51:19:22</string>
							<frame>1197118</frame>
							<displayformat>NDF</displayformat>
							<source>source</source>
							<reel>
								<name>A003R03K</name>
							</reel>
						</timecode>
						<media>
							<video>
								<duration>354</duration>
								<samplecharacteristics>
									<width>1920</width>
									<height>1080</height>
								</samplecharacteristics>
							</video>
							<audio>
								<samplecharacteristics>
									<samplerate>48000</samplerate>
									<depth>24</depth>
								</samplecharacteristics>
								<channelcount>1</channelcount>
							</audio>
							<audio>
								<samplecharacteristics>
									<samplerate>48000</samplerate>
									<depth>24</depth>
								</samplecharacteristics>
								<channelcount>1</channelcount>
							</audio>
							<audio>
								<samplecharacteristics>
									<samplerate>48000</samplerate>
									<depth>24</depth>
								</samplecharacteristics>
								<channelcount>1</channelcount>
							</audio>
						</media>
					</file>
					<sourcetrack>
						<mediatype>video</mediatype>
					</sourcetrack>
					<link>
						<linkclipref>010_14_03_A_OK</linkclipref>
						<mediatype>video</mediatype>
						<trackindex>1</trackindex>
						<clipindex>78</clipindex>
					</link>
					<link>
						<linkclipref>010_14_03_A_OK2</linkclipref>
						<mediatype>audio</mediatype>
						<trackindex>1</trackindex>
						<clipindex>78</clipindex>
					</link>
					<link>
						<linkclipref>010_14_03_A_OK3</linkclipref>
						<mediatype>audio</mediatype>
						<trackindex>2</trackindex>
						<clipindex>78</clipindex>
					</link>
					<link>
						<linkclipref>010_14_03_A_OK4</linkclipref>
						<mediatype>audio</mediatype>
						<trackindex>3</trackindex>
						<clipindex>76</clipindex>
					</link>
					<fielddominance>none</fielddominance>
					<itemhistory>
						<uuid>DE2B5E33-66C4-4E06-840F-9C9E87A7E2BC</uuid>
					</itemhistory>
				</clipitem>
				<clipitem id="010_15_01_A">
					<name>010_15_01_A</name>
					<duration>1316</duration>
					<rate>
						<ntsc>FALSE</ntsc>
						<timebase>24</timebase>
					</rate>
					<in>0</in>
					<out>1316</out>
					<start>42169</start>
					<end>43485</end>
					<pixelaspectratio>Square</pixelaspectratio>
					<enabled>TRUE</enabled>
					<anamorphic>FALSE</anamorphic>
					<alphatype>none</alphatype>
					<masterclipid>010_15_01_A1</masterclipid>
					<logginginfo>
						<scene/>
						<shottake/>
						<lognote/>
						<good>FALSE</good>
					</logginginfo>
					<labels>
						<label2/>
					</labels>
					<comments>
						<mastercomment1/>
						<mastercomment2/>
						<mastercomment3/>
						<mastercomment4/>
					</comments>
					<file id="A003C007_221211_R03K">
						<name>A003C007_221211_R03K.mov</name>
						<pathurl>file://localhost/Volumes/%E3%80%8A%E6%98%8F%E5%A4%B4%E8%BD%AC%E5%90%91%E3%80%8B%20Editing/%E6%98%8F%E5%A4%B4%E8%BD%AC%E5%90%91/%E8%BD%AC%E7%A0%81%E7%B4%A0%E6%9D%90/20221211/A003R03K/A003C007_221211_R03K.mov</pathurl>
						<rate>
							<timebase>24</timebase>
						</rate>
						<duration>1316</duration>
						<timecode>
							<rate>
								<timebase>24</timebase>
							</rate>
							<string>13:54:26:15</string>
							<frame>1201599</frame>
							<displayformat>NDF</displayformat>
							<source>source</source>
							<reel>
								<name>A003R03K</name>
							</reel>
						</timecode>
						<media>
							<video>
								<duration>1316</duration>
								<samplecharacteristics>
									<width>1920</width>
									<height>1080</height>
								</samplecharacteristics>
							</video>
							<audio>
								<samplecharacteristics>
									<samplerate>48000</samplerate>
									<depth>24</depth>
								</samplecharacteristics>
								<channelcount>1</channelcount>
							</audio>
							<audio>
								<samplecharacteristics>
									<samplerate>48000</samplerate>
									<depth>24</depth>
								</samplecharacteristics>
								<channelcount>1</channelcount>
							</audio>
							<audio>
								<samplecharacteristics>
									<samplerate>48000</samplerate>
									<depth>24</depth>
								</samplecharacteristics>
								<channelcount>1</channelcount>
							</audio>
						</media>
					</file>
					<sourcetrack>
						<mediatype>video</mediatype>
					</sourcetrack>
					<link>
						<linkclipref>010_15_01_A</linkclipref>
						<mediatype>video</mediatype>
						<trackindex>1</trackindex>
						<clipindex>79</clipindex>
					</link>
					<link>
						<linkclipref>010_15_01_A2</linkclipref>
						<mediatype>audio</mediatype>
						<trackindex>1</trackindex>
						<clipindex>79</clipindex>
					</link>
					<link>
						<linkclipref>010_15_01_A3</linkclipref>
						<mediatype>audio</mediatype>
						<trackindex>2</trackindex>
						<clipindex>79</clipindex>
					</link>
					<link>
						<linkclipref>010_15_01_A4</linkclipref>
						<mediatype>audio</mediatype>
						<trackindex>3</trackindex>
						<clipindex>77</clipindex>
					</link>
					<fielddominance>none</fielddominance>
					<itemhistory>
						<uuid>A2CD6FFD-30D2-4579-9993-42E903377CC2</uuid>
					</itemhistory>
				</clipitem>
				<clipitem id="010_15_02_A_OK">
					<name>010_15_02_A_OK</name>
					<duration>1300</duration>
					<rate>
						<ntsc>FALSE</ntsc>
						<timebase>24</timebase>
					</rate>
					<in>327</in>
					<out>411</out>
					<start>43485</start>
					<end>43569</end>
					<pixelaspectratio>Square</pixelaspectratio>
					<enabled>TRUE</enabled>
					<anamorphic>FALSE</anamorphic>
					<alphatype>none</alphatype>
					<masterclipid>010_15_02_A_OK1</masterclipid>
					<logginginfo>
						<scene/>
						<shottake/>
						<lognote/>
						<good>FALSE</good>
					</logginginfo>
					<labels>
						<label2/>
					</labels>
					<comments>
						<mastercomment1/>
						<mastercomment2/>
						<mastercomment3/>
						<mastercomment4/>
					</comments>
					<file id="A003C008_221211_R03K">
						<name>A003C008_221211_R03K.mov</name>
						<pathurl>file://localhost/Volumes/%E3%80%8A%E6%98%8F%E5%A4%B4%E8%BD%AC%E5%90%91%E3%80%8B%20Editing/%E6%98%8F%E5%A4%B4%E8%BD%AC%E5%90%91/%E8%BD%AC%E7%A0%81%E7%B4%A0%E6%9D%90/20221211/A003R03K/A003C008_221211_R03K.mov</pathurl>
						<rate>
							<timebase>24</timebase>
						</rate>
						<duration>1300</duration>
						<timecode>
							<rate>
								<timebase>24</timebase>
							</rate>
							<string>13:56:27:14</string>
							<frame>1204502</frame>
							<displayformat>NDF</displayformat>
							<source>source</source>
							<reel>
								<name>A003R03K</name>
							</reel>
						</timecode>
						<media>
							<video>
								<duration>1300</duration>
								<samplecharacteristics>
									<width>1920</width>
									<height>1080</height>
								</samplecharacteristics>
							</video>
							<audio>
								<samplecharacteristics>
									<samplerate>48000</samplerate>
									<depth>24</depth>
								</samplecharacteristics>
								<channelcount>1</channelcount>
							</audio>
							<audio>
								<samplecharacteristics>
									<samplerate>48000</samplerate>
									<depth>24</depth>
								</samplecharacteristics>
								<channelcount>1</channelcount>
							</audio>
							<audio>
								<samplecharacteristics>
									<samplerate>48000</samplerate>
									<depth>24</depth>
								</samplecharacteristics>
								<channelcount>1</channelcount>
							</audio>
						</media>
					</file>
					<sourcetrack>
						<mediatype>video</mediatype>
					</sourcetrack>
					<link>
						<linkclipref>010_15_02_A_OK</linkclipref>
						<mediatype>video</mediatype>
						<trackindex>1</trackindex>
						<clipindex>80</clipindex>
					</link>
					<link>
						<linkclipref>010_15_02_A_OK2</linkclipref>
						<mediatype>audio</mediatype>
						<trackindex>1</trackindex>
						<clipindex>80</clipindex>
					</link>
					<link>
						<linkclipref>010_15_02_A_OK3</linkclipref>
						<mediatype>audio</mediatype>
						<trackindex>2</trackindex>
						<clipindex>80</clipindex>
					</link>
					<link>
						<linkclipref>010_15_02_A_OK4</linkclipref>
						<mediatype>audio</mediatype>
						<trackindex>3</trackindex>
						<clipindex>78</clipindex>
					</link>
					<fielddominance>none</fielddominance>
					<itemhistory>
						<uuid>811D9C47-19B3-4E3F-97FE-5855738179CB</uuid>
					</itemhistory>
				</clipitem>
				<clipitem id="010_16_01_A">
					<name>010_16_01_A</name>
					<duration>268</duration>
					<rate>
						<ntsc>FALSE</ntsc>
						<timebase>24</timebase>
					</rate>
					<in>0</in>
					<out>268</out>
					<start>43569</start>
					<end>43837</end>
					<pixelaspectratio>Square</pixelaspectratio>
					<enabled>TRUE</enabled>
					<anamorphic>FALSE</anamorphic>
					<alphatype>none</alphatype>
					<masterclipid>010_16_01_A1</masterclipid>
					<logginginfo>
						<scene/>
						<shottake/>
						<lognote/>
						<good>FALSE</good>
					</logginginfo>
					<labels>
						<label2/>
					</labels>
					<comments>
						<mastercomment1/>
						<mastercomment2/>
						<mastercomment3/>
						<mastercomment4/>
					</comments>
					<file id="A003C009_221211_R03K">
						<name>A003C009_221211_R03K.mov</name>
						<pathurl>file://localhost/Volumes/%E3%80%8A%E6%98%8F%E5%A4%B4%E8%BD%AC%E5%90%91%E3%80%8B%20Editing/%E6%98%8F%E5%A4%B4%E8%BD%AC%E5%90%91/%E8%BD%AC%E7%A0%81%E7%B4%A0%E6%9D%90/20221211/A003R03K/A003C009_221211_R03K.mov</pathurl>
						<rate>
							<timebase>24</timebase>
						</rate>
						<duration>268</duration>
						<timecode>
							<rate>
								<timebase>24</timebase>
							</rate>
							<string>14:02:54:13</string>
							<frame>1213789</frame>
							<displayformat>NDF</displayformat>
							<source>source</source>
							<reel>
								<name>A003R03K</name>
							</reel>
						</timecode>
						<media>
							<video>
								<duration>268</duration>
								<samplecharacteristics>
									<width>1920</width>
									<height>1080</height>
								</samplecharacteristics>
							</video>
							<audio>
								<samplecharacteristics>
									<samplerate>48000</samplerate>
									<depth>24</depth>
								</samplecharacteristics>
								<channelcount>1</channelcount>
							</audio>
							<audio>
								<samplecharacteristics>
									<samplerate>48000</samplerate>
									<depth>24</depth>
								</samplecharacteristics>
								<channelcount>1</channelcount>
							</audio>
							<audio>
								<samplecharacteristics>
									<samplerate>48000</samplerate>
									<depth>24</depth>
								</samplecharacteristics>
								<channelcount>1</channelcount>
							</audio>
							<audio>
								<samplecharacteristics>
									<samplerate>48000</samplerate>
									<depth>24</depth>
								</samplecharacteristics>
								<channelcount>1</channelcount>
							</audio>
						</media>
					</file>
					<sourcetrack>
						<mediatype>video</mediatype>
					</sourcetrack>
					<link>
						<linkclipref>010_16_01_A</linkclipref>
						<mediatype>video</mediatype>
						<trackindex>1</trackindex>
						<clipindex>81</clipindex>
					</link>
					<link>
						<linkclipref>010_16_01_A2</linkclipref>
						<mediatype>audio</mediatype>
						<trackindex>1</trackindex>
						<clipindex>81</clipindex>
					</link>
					<link>
						<linkclipref>010_16_01_A3</linkclipref>
						<mediatype>audio</mediatype>
						<trackindex>2</trackindex>
						<clipindex>81</clipindex>
					</link>
					<link>
						<linkclipref>010_16_01_A4</linkclipref>
						<mediatype>audio</mediatype>
						<trackindex>3</trackindex>
						<clipindex>79</clipindex>
					</link>
					<link>
						<linkclipref>010_16_01_A5</linkclipref>
						<mediatype>audio</mediatype>
						<trackindex>4</trackindex>
						<clipindex>46</clipindex>
					</link>
					<fielddominance>none</fielddominance>
					<itemhistory>
						<uuid>471CBE29-8383-4AB2-A7B1-10DAC0DB3003</uuid>
					</itemhistory>
				</clipitem>
				<clipitem id="010_16_02_A_OK">
					<name>010_16_02_A_OK</name>
					<duration>284</duration>
					<rate>
						<ntsc>FALSE</ntsc>
						<timebase>24</timebase>
					</rate>
					<in>87</in>
					<out>117</out>
					<start>43837</start>
					<end>43867</end>
					<pixelaspectratio>Square</pixelaspectratio>
					<enabled>TRUE</enabled>
					<anamorphic>FALSE</anamorphic>
					<alphatype>none</alphatype>
					<masterclipid>010_16_02_A_OK1</masterclipid>
					<logginginfo>
						<scene/>
						<shottake/>
						<lognote/>
						<good>FALSE</good>
					</logginginfo>
					<labels>
						<label2/>
					</labels>
					<comments>
						<mastercomment1/>
						<mastercomment2/>
						<mastercomment3/>
						<mastercomment4/>
					</comments>
					<file id="A003C010_221211_R03K">
						<name>A003C010_221211_R03K.mov</name>
						<pathurl>file://localhost/Volumes/%E3%80%8A%E6%98%8F%E5%A4%B4%E8%BD%AC%E5%90%91%E3%80%8B%20Editing/%E6%98%8F%E5%A4%B4%E8%BD%AC%E5%90%91/%E8%BD%AC%E7%A0%81%E7%B4%A0%E6%9D%90/20221211/A003R03K/A003C010_221211_R03K.mov</pathurl>
						<rate>
							<timebase>24</timebase>
						</rate>
						<duration>284</duration>
						<timecode>
							<rate>
								<timebase>24</timebase>
							</rate>
							<string>14:03:32:17</string>
							<frame>1214705</frame>
							<displayformat>NDF</displayformat>
							<source>source</source>
							<reel>
								<name>A003R03K</name>
							</reel>
						</timecode>
						<media>
							<video>
								<duration>284</duration>
								<samplecharacteristics>
									<width>1920</width>
									<height>1080</height>
								</samplecharacteristics>
							</video>
							<audio>
								<samplecharacteristics>
									<samplerate>48000</samplerate>
									<depth>24</depth>
								</samplecharacteristics>
								<channelcount>1</channelcount>
							</audio>
							<audio>
								<samplecharacteristics>
									<samplerate>48000</samplerate>
									<depth>24</depth>
								</samplecharacteristics>
								<channelcount>1</channelcount>
							</audio>
							<audio>
								<samplecharacteristics>
									<samplerate>48000</samplerate>
									<depth>24</depth>
								</samplecharacteristics>
								<channelcount>1</channelcount>
							</audio>
							<audio>
								<samplecharacteristics>
									<samplerate>48000</samplerate>
									<depth>24</depth>
								</samplecharacteristics>
								<channelcount>1</channelcount>
							</audio>
						</media>
					</file>
					<sourcetrack>
						<mediatype>video</mediatype>
					</sourcetrack>
					<link>
						<linkclipref>010_16_02_A_OK</linkclipref>
						<mediatype>video</mediatype>
						<trackindex>1</trackindex>
						<clipindex>82</clipindex>
					</link>
					<link>
						<linkclipref>010_16_02_A_OK2</linkclipref>
						<mediatype>audio</mediatype>
						<trackindex>1</trackindex>
						<clipindex>82</clipindex>
					</link>
					<link>
						<linkclipref>010_16_02_A_OK3</linkclipref>
						<mediatype>audio</mediatype>
						<trackindex>2</trackindex>
						<clipindex>82</clipindex>
					</link>
					<link>
						<linkclipref>010_16_02_A_OK4</linkclipref>
						<mediatype>audio</mediatype>
						<trackindex>3</trackindex>
						<clipindex>80</clipindex>
					</link>
					<link>
						<linkclipref>010_16_02_A_OK5</linkclipref>
						<mediatype>audio</mediatype>
						<trackindex>4</trackindex>
						<clipindex>47</clipindex>
					</link>
					<fielddominance>none</fielddominance>
					<itemhistory>
						<uuid>8799D76A-AA45-4C25-9BC7-590F0CB9BC93</uuid>
					</itemhistory>
				</clipitem>
				<clipitem id="010_17_01_B">
					<name>010_17_01_B</name>
					<duration>709</duration>
					<rate>
						<ntsc>FALSE</ntsc>
						<timebase>24</timebase>
					</rate>
					<in>0</in>
					<out>709</out>
					<start>43867</start>
					<end>44576</end>
					<pixelaspectratio>Square</pixelaspectratio>
					<enabled>TRUE</enabled>
					<anamorphic>FALSE</anamorphic>
					<alphatype>none</alphatype>
					<masterclipid>010_17_01_B1</masterclipid>
					<logginginfo>
						<scene/>
						<shottake/>
						<lognote/>
						<good>FALSE</good>
					</logginginfo>
					<labels>
						<label2/>
					</labels>
					<comments>
						<mastercomment1/>
						<mastercomment2/>
						<mastercomment3/>
						<mastercomment4/>
					</comments>
					<file id="B002C015_130101_R1WX">
						<name>B002C015_130101_R1WX.mov</name>
						<pathurl>file://localhost/Volumes/%E3%80%8A%E6%98%8F%E5%A4%B4%E8%BD%AC%E5%90%91%E3%80%8B%20Editing/%E6%98%8F%E5%A4%B4%E8%BD%AC%E5%90%91/%E8%BD%AC%E7%A0%81%E7%B4%A0%E6%9D%90/20221211/B002R1WX/B002C015_130101_R1WX.mov</pathurl>
						<rate>
							<timebase>24</timebase>
						</rate>
						<duration>709</duration>
						<timecode>
							<rate>
								<timebase>24</timebase>
							</rate>
							<string>14:13:18:04</string>
							<frame>1228756</frame>
							<displayformat>NDF</displayformat>
							<source>source</source>
							<reel>
								<name>B002R1WX</name>
							</reel>
						</timecode>
						<media>
							<video>
								<duration>709</duration>
								<samplecharacteristics>
									<width>1920</width>
									<height>1080</height>
								</samplecharacteristics>
							</video>
							<audio>
								<samplecharacteristics>
									<samplerate>48000</samplerate>
									<depth>24</depth>
								</samplecharacteristics>
								<channelcount>1</channelcount>
							</audio>
							<audio>
								<samplecharacteristics>
									<samplerate>48000</samplerate>
									<depth>24</depth>
								</samplecharacteristics>
								<channelcount>1</channelcount>
							</audio>
							<audio>
								<samplecharacteristics>
									<samplerate>48000</samplerate>
									<depth>24</depth>
								</samplecharacteristics>
								<channelcount>1</channelcount>
							</audio>
							<audio>
								<samplecharacteristics>
									<samplerate>48000</samplerate>
									<depth>24</depth>
								</samplecharacteristics>
								<channelcount>1</channelcount>
							</audio>
						</media>
					</file>
					<sourcetrack>
						<mediatype>video</mediatype>
					</sourcetrack>
					<link>
						<linkclipref>010_17_01_B</linkclipref>
						<mediatype>video</mediatype>
						<trackindex>1</trackindex>
						<clipindex>83</clipindex>
					</link>
					<link>
						<linkclipref>010_17_01_B2</linkclipref>
						<mediatype>audio</mediatype>
						<trackindex>1</trackindex>
						<clipindex>83</clipindex>
					</link>
					<link>
						<linkclipref>010_17_01_B3</linkclipref>
						<mediatype>audio</mediatype>
						<trackindex>2</trackindex>
						<clipindex>83</clipindex>
					</link>
					<link>
						<linkclipref>010_17_01_B4</linkclipref>
						<mediatype>audio</mediatype>
						<trackindex>3</trackindex>
						<clipindex>81</clipindex>
					</link>
					<link>
						<linkclipref>010_17_01_B5</linkclipref>
						<mediatype>audio</mediatype>
						<trackindex>4</trackindex>
						<clipindex>48</clipindex>
					</link>
					<fielddominance>none</fielddominance>
					<itemhistory>
						<uuid>3828D743-C39E-4FAA-86AB-89E75D4DF6FC</uuid>
					</itemhistory>
				</clipitem>
				<clipitem id="010_17_02_B_OK">
					<name>010_17_02_B_OK</name>
					<duration>2132</duration>
					<rate>
						<ntsc>FALSE</ntsc>
						<timebase>24</timebase>
					</rate>
					<in>804</in>
					<out>886</out>
					<start>44576</start>
					<end>44658</end>
					<pixelaspectratio>Square</pixelaspectratio>
					<enabled>TRUE</enabled>
					<anamorphic>FALSE</anamorphic>
					<alphatype>none</alphatype>
					<masterclipid>010_17_02_B_OK1</masterclipid>
					<logginginfo>
						<scene/>
						<shottake/>
						<lognote/>
						<good>FALSE</good>
					</logginginfo>
					<labels>
						<label2/>
					</labels>
					<comments>
						<mastercomment1/>
						<mastercomment2/>
						<mastercomment3/>
						<mastercomment4/>
					</comments>
					<file id="B002C016_130101_R1WX">
						<name>B002C016_130101_R1WX.mov</name>
						<pathurl>file://localhost/Volumes/%E3%80%8A%E6%98%8F%E5%A4%B4%E8%BD%AC%E5%90%91%E3%80%8B%20Editing/%E6%98%8F%E5%A4%B4%E8%BD%AC%E5%90%91/%E8%BD%AC%E7%A0%81%E7%B4%A0%E6%9D%90/20221211/B002R1WX/B002C016_130101_R1WX.mov</pathurl>
						<rate>
							<timebase>24</timebase>
						</rate>
						<duration>2132</duration>
						<timecode>
							<rate>
								<timebase>24</timebase>
							</rate>
							<string>14:14:51:21</string>
							<frame>1231005</frame>
							<displayformat>NDF</displayformat>
							<source>source</source>
							<reel>
								<name>B002R1WX</name>
							</reel>
						</timecode>
						<media>
							<video>
								<duration>2132</duration>
								<samplecharacteristics>
									<width>1920</width>
									<height>1080</height>
								</samplecharacteristics>
							</video>
							<audio>
								<samplecharacteristics>
									<samplerate>48000</samplerate>
									<depth>24</depth>
								</samplecharacteristics>
								<channelcount>1</channelcount>
							</audio>
							<audio>
								<samplecharacteristics>
									<samplerate>48000</samplerate>
									<depth>24</depth>
								</samplecharacteristics>
								<channelcount>1</channelcount>
							</audio>
							<audio>
								<samplecharacteristics>
									<samplerate>48000</samplerate>
									<depth>24</depth>
								</samplecharacteristics>
								<channelcount>1</channelcount>
							</audio>
							<audio>
								<samplecharacteristics>
									<samplerate>48000</samplerate>
									<depth>24</depth>
								</samplecharacteristics>
								<channelcount>1</channelcount>
							</audio>
						</media>
					</file>
					<sourcetrack>
						<mediatype>video</mediatype>
					</sourcetrack>
					<link>
						<linkclipref>010_17_02_B_OK</linkclipref>
						<mediatype>video</mediatype>
						<trackindex>1</trackindex>
						<clipindex>84</clipindex>
					</link>
					<link>
						<linkclipref>010_17_02_B_OK2</linkclipref>
						<mediatype>audio</mediatype>
						<trackindex>1</trackindex>
						<clipindex>84</clipindex>
					</link>
					<link>
						<linkclipref>010_17_02_B_OK3</linkclipref>
						<mediatype>audio</mediatype>
						<trackindex>2</trackindex>
						<clipindex>84</clipindex>
					</link>
					<link>
						<linkclipref>010_17_02_B_OK4</linkclipref>
						<mediatype>audio</mediatype>
						<trackindex>3</trackindex>
						<clipindex>82</clipindex>
					</link>
					<link>
						<linkclipref>010_17_02_B_OK5</linkclipref>
						<mediatype>audio</mediatype>
						<trackindex>4</trackindex>
						<clipindex>49</clipindex>
					</link>
					<fielddominance>none</fielddominance>
					<itemhistory>
						<uuid>F638AC74-84B1-4C98-ABDA-F75BC9382771</uuid>
					</itemhistory>
				</clipitem>
				<clipitem id="010_18_01_A_KP">
					<name>010_18_01_A_KP</name>
					<duration>1008</duration>
					<rate>
						<ntsc>FALSE</ntsc>
						<timebase>24</timebase>
					</rate>
					<in>531</in>
					<out>1008</out>
					<start>44658</start>
					<end>45135</end>
					<pixelaspectratio>Square</pixelaspectratio>
					<enabled>TRUE</enabled>
					<anamorphic>FALSE</anamorphic>
					<alphatype>none</alphatype>
					<masterclipid>010_18_01_A_KP1</masterclipid>
					<logginginfo>
						<scene/>
						<shottake/>
						<lognote/>
						<good>FALSE</good>
					</logginginfo>
					<labels>
						<label2/>
					</labels>
					<comments>
						<mastercomment1/>
						<mastercomment2/>
						<mastercomment3/>
						<mastercomment4/>
					</comments>
					<file id="A003C011_221211_R03K">
						<name>A003C011_221211_R03K.mov</name>
						<pathurl>file://localhost/Volumes/%E3%80%8A%E6%98%8F%E5%A4%B4%E8%BD%AC%E5%90%91%E3%80%8B%20Editing/%E6%98%8F%E5%A4%B4%E8%BD%AC%E5%90%91/%E8%BD%AC%E7%A0%81%E7%B4%A0%E6%9D%90/20221211/A003R03K/A003C011_221211_R03K.mov</pathurl>
						<rate>
							<timebase>24</timebase>
						</rate>
						<duration>1008</duration>
						<timecode>
							<rate>
								<timebase>24</timebase>
							</rate>
							<string>14:23:57:10</string>
							<frame>1244098</frame>
							<displayformat>NDF</displayformat>
							<source>source</source>
							<reel>
								<name>A003R03K</name>
							</reel>
						</timecode>
						<media>
							<video>
								<duration>1008</duration>
								<samplecharacteristics>
									<width>1920</width>
									<height>1080</height>
								</samplecharacteristics>
							</video>
							<audio>
								<samplecharacteristics>
									<samplerate>48000</samplerate>
									<depth>24</depth>
								</samplecharacteristics>
								<channelcount>1</channelcount>
							</audio>
							<audio>
								<samplecharacteristics>
									<samplerate>48000</samplerate>
									<depth>24</depth>
								</samplecharacteristics>
								<channelcount>1</channelcount>
							</audio>
							<audio>
								<samplecharacteristics>
									<samplerate>48000</samplerate>
									<depth>24</depth>
								</samplecharacteristics>
								<channelcount>1</channelcount>
							</audio>
							<audio>
								<samplecharacteristics>
									<samplerate>48000</samplerate>
									<depth>24</depth>
								</samplecharacteristics>
								<channelcount>1</channelcount>
							</audio>
						</media>
					</file>
					<sourcetrack>
						<mediatype>video</mediatype>
					</sourcetrack>
					<link>
						<linkclipref>010_18_01_A_KP</linkclipref>
						<mediatype>video</mediatype>
						<trackindex>1</trackindex>
						<clipindex>85</clipindex>
					</link>
					<link>
						<linkclipref>010_18_01_A_KP2</linkclipref>
						<mediatype>audio</mediatype>
						<trackindex>1</trackindex>
						<clipindex>85</clipindex>
					</link>
					<link>
						<linkclipref>010_18_01_A_KP3</linkclipref>
						<mediatype>audio</mediatype>
						<trackindex>2</trackindex>
						<clipindex>85</clipindex>
					</link>
					<link>
						<linkclipref>010_18_01_A_KP4</linkclipref>
						<mediatype>audio</mediatype>
						<trackindex>3</trackindex>
						<clipindex>83</clipindex>
					</link>
					<link>
						<linkclipref>010_18_01_A_KP5</linkclipref>
						<mediatype>audio</mediatype>
						<trackindex>4</trackindex>
						<clipindex>50</clipindex>
					</link>
					<fielddominance>none</fielddominance>
					<itemhistory>
						<uuid>F8CF38A3-94C1-467A-85E5-CB9A72D3CF81</uuid>
					</itemhistory>
				</clipitem>
				<clipitem id="010_18_02_A">
					<name>010_18_02_A</name>
					<duration>461</duration>
					<rate>
						<ntsc>FALSE</ntsc>
						<timebase>24</timebase>
					</rate>
					<in>0</in>
					<out>461</out>
					<start>45135</start>
					<end>45596</end>
					<pixelaspectratio>Square</pixelaspectratio>
					<enabled>TRUE</enabled>
					<anamorphic>FALSE</anamorphic>
					<alphatype>none</alphatype>
					<masterclipid>010_18_02_A1</masterclipid>
					<logginginfo>
						<scene/>
						<shottake/>
						<lognote/>
						<good>FALSE</good>
					</logginginfo>
					<labels>
						<label2/>
					</labels>
					<comments>
						<mastercomment1/>
						<mastercomment2/>
						<mastercomment3/>
						<mastercomment4/>
					</comments>
					<file id="A003C012_221211_R03K">
						<name>A003C012_221211_R03K.mov</name>
						<pathurl>file://localhost/Volumes/%E3%80%8A%E6%98%8F%E5%A4%B4%E8%BD%AC%E5%90%91%E3%80%8B%20Editing/%E6%98%8F%E5%A4%B4%E8%BD%AC%E5%90%91/%E8%BD%AC%E7%A0%81%E7%B4%A0%E6%9D%90/20221211/A003R03K/A003C012_221211_R03K.mov</pathurl>
						<rate>
							<timebase>24</timebase>
						</rate>
						<duration>461</duration>
						<timecode>
							<rate>
								<timebase>24</timebase>
							</rate>
							<string>14:25:45:03</string>
							<frame>1246683</frame>
							<displayformat>NDF</displayformat>
							<source>source</source>
							<reel>
								<name>A003R03K</name>
							</reel>
						</timecode>
						<media>
							<video>
								<duration>461</duration>
								<samplecharacteristics>
									<width>1920</width>
									<height>1080</height>
								</samplecharacteristics>
							</video>
							<audio>
								<samplecharacteristics>
									<samplerate>48000</samplerate>
									<depth>24</depth>
								</samplecharacteristics>
								<channelcount>1</channelcount>
							</audio>
							<audio>
								<samplecharacteristics>
									<samplerate>48000</samplerate>
									<depth>24</depth>
								</samplecharacteristics>
								<channelcount>1</channelcount>
							</audio>
							<audio>
								<samplecharacteristics>
									<samplerate>48000</samplerate>
									<depth>24</depth>
								</samplecharacteristics>
								<channelcount>1</channelcount>
							</audio>
							<audio>
								<samplecharacteristics>
									<samplerate>48000</samplerate>
									<depth>24</depth>
								</samplecharacteristics>
								<channelcount>1</channelcount>
							</audio>
						</media>
					</file>
					<sourcetrack>
						<mediatype>video</mediatype>
					</sourcetrack>
					<link>
						<linkclipref>010_18_02_A</linkclipref>
						<mediatype>video</mediatype>
						<trackindex>1</trackindex>
						<clipindex>86</clipindex>
					</link>
					<link>
						<linkclipref>010_18_02_A2</linkclipref>
						<mediatype>audio</mediatype>
						<trackindex>1</trackindex>
						<clipindex>86</clipindex>
					</link>
					<link>
						<linkclipref>010_18_02_A3</linkclipref>
						<mediatype>audio</mediatype>
						<trackindex>2</trackindex>
						<clipindex>86</clipindex>
					</link>
					<link>
						<linkclipref>010_18_02_A4</linkclipref>
						<mediatype>audio</mediatype>
						<trackindex>3</trackindex>
						<clipindex>84</clipindex>
					</link>
					<link>
						<linkclipref>010_18_02_A5</linkclipref>
						<mediatype>audio</mediatype>
						<trackindex>4</trackindex>
						<clipindex>51</clipindex>
					</link>
					<fielddominance>none</fielddominance>
					<itemhistory>
						<uuid>1440A5A6-331A-411E-8FD2-CC8DDCAC582D</uuid>
					</itemhistory>
				</clipitem>
				<clipitem id="010_18_03_A">
					<name>010_18_03_A</name>
					<duration>298</duration>
					<rate>
						<ntsc>FALSE</ntsc>
						<timebase>24</timebase>
					</rate>
					<in>0</in>
					<out>298</out>
					<start>45596</start>
					<end>45894</end>
					<pixelaspectratio>Square</pixelaspectratio>
					<enabled>TRUE</enabled>
					<anamorphic>FALSE</anamorphic>
					<alphatype>none</alphatype>
					<masterclipid>010_18_03_A1</masterclipid>
					<logginginfo>
						<scene/>
						<shottake/>
						<lognote/>
						<good>FALSE</good>
					</logginginfo>
					<labels>
						<label2/>
					</labels>
					<comments>
						<mastercomment1/>
						<mastercomment2/>
						<mastercomment3/>
						<mastercomment4/>
					</comments>
					<file id="A003C013_221211_R03K">
						<name>A003C013_221211_R03K.mov</name>
						<pathurl>file://localhost/Volumes/%E3%80%8A%E6%98%8F%E5%A4%B4%E8%BD%AC%E5%90%91%E3%80%8B%20Editing/%E6%98%8F%E5%A4%B4%E8%BD%AC%E5%90%91/%E8%BD%AC%E7%A0%81%E7%B4%A0%E6%9D%90/20221211/A003R03K/A003C013_221211_R03K.mov</pathurl>
						<rate>
							<timebase>24</timebase>
						</rate>
						<duration>298</duration>
						<timecode>
							<rate>
								<timebase>24</timebase>
							</rate>
							<string>14:26:30:13</string>
							<frame>1247773</frame>
							<displayformat>NDF</displayformat>
							<source>source</source>
							<reel>
								<name>A003R03K</name>
							</reel>
						</timecode>
						<media>
							<video>
								<duration>298</duration>
								<samplecharacteristics>
									<width>1920</width>
									<height>1080</height>
								</samplecharacteristics>
							</video>
							<audio>
								<samplecharacteristics>
									<samplerate>48000</samplerate>
									<depth>24</depth>
								</samplecharacteristics>
								<channelcount>1</channelcount>
							</audio>
							<audio>
								<samplecharacteristics>
									<samplerate>48000</samplerate>
									<depth>24</depth>
								</samplecharacteristics>
								<channelcount>1</channelcount>
							</audio>
							<audio>
								<samplecharacteristics>
									<samplerate>48000</samplerate>
									<depth>24</depth>
								</samplecharacteristics>
								<channelcount>1</channelcount>
							</audio>
							<audio>
								<samplecharacteristics>
									<samplerate>48000</samplerate>
									<depth>24</depth>
								</samplecharacteristics>
								<channelcount>1</channelcount>
							</audio>
						</media>
					</file>
					<sourcetrack>
						<mediatype>video</mediatype>
					</sourcetrack>
					<link>
						<linkclipref>010_18_03_A</linkclipref>
						<mediatype>video</mediatype>
						<trackindex>1</trackindex>
						<clipindex>87</clipindex>
					</link>
					<link>
						<linkclipref>010_18_03_A2</linkclipref>
						<mediatype>audio</mediatype>
						<trackindex>1</trackindex>
						<clipindex>87</clipindex>
					</link>
					<link>
						<linkclipref>010_18_03_A3</linkclipref>
						<mediatype>audio</mediatype>
						<trackindex>2</trackindex>
						<clipindex>87</clipindex>
					</link>
					<link>
						<linkclipref>010_18_03_A4</linkclipref>
						<mediatype>audio</mediatype>
						<trackindex>3</trackindex>
						<clipindex>85</clipindex>
					</link>
					<link>
						<linkclipref>010_18_03_A5</linkclipref>
						<mediatype>audio</mediatype>
						<trackindex>4</trackindex>
						<clipindex>52</clipindex>
					</link>
					<fielddominance>none</fielddominance>
					<itemhistory>
						<uuid>FAD8D045-2542-49C4-81B0-9774B00CECCE</uuid>
					</itemhistory>
				</clipitem>
				<clipitem id="010_18_04_A_OK">
					<name>010_18_04_A_OK</name>
					<duration>519</duration>
					<rate>
						<ntsc>FALSE</ntsc>
						<timebase>24</timebase>
					</rate>
					<in>259</in>
					<out>303</out>
					<start>45894</start>
					<end>45938</end>
					<pixelaspectratio>Square</pixelaspectratio>
					<enabled>TRUE</enabled>
					<anamorphic>FALSE</anamorphic>
					<alphatype>none</alphatype>
					<masterclipid>010_18_04_A_OK1</masterclipid>
					<logginginfo>
						<scene/>
						<shottake/>
						<lognote/>
						<good>FALSE</good>
					</logginginfo>
					<labels>
						<label2/>
					</labels>
					<comments>
						<mastercomment1/>
						<mastercomment2/>
						<mastercomment3/>
						<mastercomment4/>
					</comments>
					<file id="A003C014_221211_R03K">
						<name>A003C014_221211_R03K.mov</name>
						<pathurl>file://localhost/Volumes/%E3%80%8A%E6%98%8F%E5%A4%B4%E8%BD%AC%E5%90%91%E3%80%8B%20Editing/%E6%98%8F%E5%A4%B4%E8%BD%AC%E5%90%91/%E8%BD%AC%E7%A0%81%E7%B4%A0%E6%9D%90/20221211/A003R03K/A003C014_221211_R03K.mov</pathurl>
						<rate>
							<timebase>24</timebase>
						</rate>
						<duration>519</duration>
						<timecode>
							<rate>
								<timebase>24</timebase>
							</rate>
							<string>14:26:50:17</string>
							<frame>1248257</frame>
							<displayformat>NDF</displayformat>
							<source>source</source>
							<reel>
								<name>A003R03K</name>
							</reel>
						</timecode>
						<media>
							<video>
								<duration>519</duration>
								<samplecharacteristics>
									<width>1920</width>
									<height>1080</height>
								</samplecharacteristics>
							</video>
							<audio>
								<samplecharacteristics>
									<samplerate>48000</samplerate>
									<depth>24</depth>
								</samplecharacteristics>
								<channelcount>1</channelcount>
							</audio>
							<audio>
								<samplecharacteristics>
									<samplerate>48000</samplerate>
									<depth>24</depth>
								</samplecharacteristics>
								<channelcount>1</channelcount>
							</audio>
							<audio>
								<samplecharacteristics>
									<samplerate>48000</samplerate>
									<depth>24</depth>
								</samplecharacteristics>
								<channelcount>1</channelcount>
							</audio>
							<audio>
								<samplecharacteristics>
									<samplerate>48000</samplerate>
									<depth>24</depth>
								</samplecharacteristics>
								<channelcount>1</channelcount>
							</audio>
						</media>
					</file>
					<sourcetrack>
						<mediatype>video</mediatype>
					</sourcetrack>
					<link>
						<linkclipref>010_18_04_A_OK</linkclipref>
						<mediatype>video</mediatype>
						<trackindex>1</trackindex>
						<clipindex>88</clipindex>
					</link>
					<link>
						<linkclipref>010_18_04_A_OK2</linkclipref>
						<mediatype>audio</mediatype>
						<trackindex>1</trackindex>
						<clipindex>88</clipindex>
					</link>
					<link>
						<linkclipref>010_18_04_A_OK3</linkclipref>
						<mediatype>audio</mediatype>
						<trackindex>2</trackindex>
						<clipindex>88</clipindex>
					</link>
					<link>
						<linkclipref>010_18_04_A_OK4</linkclipref>
						<mediatype>audio</mediatype>
						<trackindex>3</trackindex>
						<clipindex>86</clipindex>
					</link>
					<link>
						<linkclipref>010_18_04_A_OK5</linkclipref>
						<mediatype>audio</mediatype>
						<trackindex>4</trackindex>
						<clipindex>53</clipindex>
					</link>
					<fielddominance>none</fielddominance>
					<itemhistory>
						<uuid>89260139-DAB0-49CF-8ECF-20C89B864075</uuid>
					</itemhistory>
				</clipitem>
				<clipitem id="010_19_01_A">
					<name>010_19_01_A</name>
					<duration>745</duration>
					<rate>
						<ntsc>FALSE</ntsc>
						<timebase>24</timebase>
					</rate>
					<in>0</in>
					<out>745</out>
					<start>45938</start>
					<end>46683</end>
					<pixelaspectratio>Square</pixelaspectratio>
					<enabled>TRUE</enabled>
					<anamorphic>FALSE</anamorphic>
					<alphatype>none</alphatype>
					<masterclipid>010_19_01_A1</masterclipid>
					<logginginfo>
						<scene/>
						<shottake/>
						<lognote/>
						<good>FALSE</good>
					</logginginfo>
					<labels>
						<label2/>
					</labels>
					<comments>
						<mastercomment1/>
						<mastercomment2/>
						<mastercomment3/>
						<mastercomment4/>
					</comments>
					<file id="A003C015_221211_R03K">
						<name>A003C015_221211_R03K.mov</name>
						<pathurl>file://localhost/Volumes/%E3%80%8A%E6%98%8F%E5%A4%B4%E8%BD%AC%E5%90%91%E3%80%8B%20Editing/%E6%98%8F%E5%A4%B4%E8%BD%AC%E5%90%91/%E8%BD%AC%E7%A0%81%E7%B4%A0%E6%9D%90/20221211/A003R03K/A003C015_221211_R03K.mov</pathurl>
						<rate>
							<timebase>24</timebase>
						</rate>
						<duration>745</duration>
						<timecode>
							<rate>
								<timebase>24</timebase>
							</rate>
							<string>14:37:05:22</string>
							<frame>1263022</frame>
							<displayformat>NDF</displayformat>
							<source>source</source>
							<reel>
								<name>A003R03K</name>
							</reel>
						</timecode>
						<media>
							<video>
								<duration>745</duration>
								<samplecharacteristics>
									<width>1920</width>
									<height>1080</height>
								</samplecharacteristics>
							</video>
							<audio>
								<samplecharacteristics>
									<samplerate>48000</samplerate>
									<depth>24</depth>
								</samplecharacteristics>
								<channelcount>1</channelcount>
							</audio>
							<audio>
								<samplecharacteristics>
									<samplerate>48000</samplerate>
									<depth>24</depth>
								</samplecharacteristics>
								<channelcount>1</channelcount>
							</audio>
							<audio>
								<samplecharacteristics>
									<samplerate>48000</samplerate>
									<depth>24</depth>
								</samplecharacteristics>
								<channelcount>1</channelcount>
							</audio>
						</media>
					</file>
					<sourcetrack>
						<mediatype>video</mediatype>
					</sourcetrack>
					<link>
						<linkclipref>010_19_01_A</linkclipref>
						<mediatype>video</mediatype>
						<trackindex>1</trackindex>
						<clipindex>89</clipindex>
					</link>
					<link>
						<linkclipref>010_19_01_A2</linkclipref>
						<mediatype>audio</mediatype>
						<trackindex>1</trackindex>
						<clipindex>89</clipindex>
					</link>
					<link>
						<linkclipref>010_19_01_A3</linkclipref>
						<mediatype>audio</mediatype>
						<trackindex>2</trackindex>
						<clipindex>89</clipindex>
					</link>
					<link>
						<linkclipref>010_19_01_A4</linkclipref>
						<mediatype>audio</mediatype>
						<trackindex>3</trackindex>
						<clipindex>87</clipindex>
					</link>
					<fielddominance>none</fielddominance>
					<itemhistory>
						<uuid>6F386B74-449B-437A-8C9C-75D251208127</uuid>
					</itemhistory>
				</clipitem>
				<clipitem id="010_19_02_A_OK">
					<name>010_19_02_A_OK</name>
					<duration>706</duration>
					<rate>
						<ntsc>FALSE</ntsc>
						<timebase>24</timebase>
					</rate>
					<in>147</in>
					<out>251</out>
					<start>46683</start>
					<end>46787</end>
					<pixelaspectratio>Square</pixelaspectratio>
					<enabled>TRUE</enabled>
					<anamorphic>FALSE</anamorphic>
					<alphatype>none</alphatype>
					<masterclipid>010_19_02_A_OK1</masterclipid>
					<logginginfo>
						<scene/>
						<shottake/>
						<lognote/>
						<good>FALSE</good>
					</logginginfo>
					<labels>
						<label2/>
					</labels>
					<comments>
						<mastercomment1/>
						<mastercomment2/>
						<mastercomment3/>
						<mastercomment4/>
					</comments>
					<file id="A003C016_221211_R03K">
						<name>A003C016_221211_R03K.mov</name>
						<pathurl>file://localhost/Volumes/%E3%80%8A%E6%98%8F%E5%A4%B4%E8%BD%AC%E5%90%91%E3%80%8B%20Editing/%E6%98%8F%E5%A4%B4%E8%BD%AC%E5%90%91/%E8%BD%AC%E7%A0%81%E7%B4%A0%E6%9D%90/20221211/A003R03K/A003C016_221211_R03K.mov</pathurl>
						<rate>
							<timebase>24</timebase>
						</rate>
						<duration>706</duration>
						<timecode>
							<rate>
								<timebase>24</timebase>
							</rate>
							<string>14:38:15:04</string>
							<frame>1264684</frame>
							<displayformat>NDF</displayformat>
							<source>source</source>
							<reel>
								<name>A003R03K</name>
							</reel>
						</timecode>
						<media>
							<video>
								<duration>706</duration>
								<samplecharacteristics>
									<width>1920</width>
									<height>1080</height>
								</samplecharacteristics>
							</video>
							<audio>
								<samplecharacteristics>
									<samplerate>48000</samplerate>
									<depth>24</depth>
								</samplecharacteristics>
								<channelcount>1</channelcount>
							</audio>
							<audio>
								<samplecharacteristics>
									<samplerate>48000</samplerate>
									<depth>24</depth>
								</samplecharacteristics>
								<channelcount>1</channelcount>
							</audio>
							<audio>
								<samplecharacteristics>
									<samplerate>48000</samplerate>
									<depth>24</depth>
								</samplecharacteristics>
								<channelcount>1</channelcount>
							</audio>
						</media>
					</file>
					<sourcetrack>
						<mediatype>video</mediatype>
					</sourcetrack>
					<link>
						<linkclipref>010_19_02_A_OK</linkclipref>
						<mediatype>video</mediatype>
						<trackindex>1</trackindex>
						<clipindex>90</clipindex>
					</link>
					<link>
						<linkclipref>010_19_02_A_OK2</linkclipref>
						<mediatype>audio</mediatype>
						<trackindex>1</trackindex>
						<clipindex>90</clipindex>
					</link>
					<link>
						<linkclipref>010_19_02_A_OK3</linkclipref>
						<mediatype>audio</mediatype>
						<trackindex>2</trackindex>
						<clipindex>90</clipindex>
					</link>
					<link>
						<linkclipref>010_19_02_A_OK4</linkclipref>
						<mediatype>audio</mediatype>
						<trackindex>3</trackindex>
						<clipindex>88</clipindex>
					</link>
					<fielddominance>none</fielddominance>
					<itemhistory>
						<uuid>B4239C7C-949B-4503-A9C9-0E9746115409</uuid>
					</itemhistory>
				</clipitem>
				<clipitem id="010_20_01_A">
					<name>010_20_01_A</name>
					<duration>302</duration>
					<rate>
						<ntsc>FALSE</ntsc>
						<timebase>24</timebase>
					</rate>
					<in>0</in>
					<out>302</out>
					<start>46787</start>
					<end>47089</end>
					<pixelaspectratio>Square</pixelaspectratio>
					<enabled>TRUE</enabled>
					<anamorphic>FALSE</anamorphic>
					<alphatype>none</alphatype>
					<masterclipid>010_20_01_A1</masterclipid>
					<logginginfo>
						<scene/>
						<shottake/>
						<lognote/>
						<good>FALSE</good>
					</logginginfo>
					<labels>
						<label2/>
					</labels>
					<comments>
						<mastercomment1/>
						<mastercomment2/>
						<mastercomment3/>
						<mastercomment4/>
					</comments>
					<file id="A003C017_221211_R03K">
						<name>A003C017_221211_R03K.mov</name>
						<pathurl>file://localhost/Volumes/%E3%80%8A%E6%98%8F%E5%A4%B4%E8%BD%AC%E5%90%91%E3%80%8B%20Editing/%E6%98%8F%E5%A4%B4%E8%BD%AC%E5%90%91/%E8%BD%AC%E7%A0%81%E7%B4%A0%E6%9D%90/20221211/A003R03K/A003C017_221211_R03K.mov</pathurl>
						<rate>
							<timebase>24</timebase>
						</rate>
						<duration>302</duration>
						<timecode>
							<rate>
								<timebase>24</timebase>
							</rate>
							<string>14:47:30:09</string>
							<frame>1278009</frame>
							<displayformat>NDF</displayformat>
							<source>source</source>
							<reel>
								<name>A003R03K</name>
							</reel>
						</timecode>
						<media>
							<video>
								<duration>302</duration>
								<samplecharacteristics>
									<width>1920</width>
									<height>1080</height>
								</samplecharacteristics>
							</video>
							<audio>
								<samplecharacteristics>
									<samplerate>48000</samplerate>
									<depth>24</depth>
								</samplecharacteristics>
								<channelcount>1</channelcount>
							</audio>
							<audio>
								<samplecharacteristics>
									<samplerate>48000</samplerate>
									<depth>24</depth>
								</samplecharacteristics>
								<channelcount>1</channelcount>
							</audio>
							<audio>
								<samplecharacteristics>
									<samplerate>48000</samplerate>
									<depth>24</depth>
								</samplecharacteristics>
								<channelcount>1</channelcount>
							</audio>
						</media>
					</file>
					<sourcetrack>
						<mediatype>video</mediatype>
					</sourcetrack>
					<link>
						<linkclipref>010_20_01_A</linkclipref>
						<mediatype>video</mediatype>
						<trackindex>1</trackindex>
						<clipindex>91</clipindex>
					</link>
					<link>
						<linkclipref>010_20_01_A2</linkclipref>
						<mediatype>audio</mediatype>
						<trackindex>1</trackindex>
						<clipindex>91</clipindex>
					</link>
					<link>
						<linkclipref>010_20_01_A3</linkclipref>
						<mediatype>audio</mediatype>
						<trackindex>2</trackindex>
						<clipindex>91</clipindex>
					</link>
					<link>
						<linkclipref>010_20_01_A4</linkclipref>
						<mediatype>audio</mediatype>
						<trackindex>3</trackindex>
						<clipindex>89</clipindex>
					</link>
					<fielddominance>none</fielddominance>
					<itemhistory>
						<uuid>C2526EE5-5414-4BC1-89A1-D7E40CB78121</uuid>
					</itemhistory>
				</clipitem>
				<clipitem id="010_20_02_A">
					<name>010_20_02_A</name>
					<duration>399</duration>
					<rate>
						<ntsc>FALSE</ntsc>
						<timebase>24</timebase>
					</rate>
					<in>0</in>
					<out>399</out>
					<start>47089</start>
					<end>47488</end>
					<pixelaspectratio>Square</pixelaspectratio>
					<enabled>TRUE</enabled>
					<anamorphic>FALSE</anamorphic>
					<alphatype>none</alphatype>
					<masterclipid>010_20_02_A1</masterclipid>
					<logginginfo>
						<scene/>
						<shottake/>
						<lognote/>
						<good>FALSE</good>
					</logginginfo>
					<labels>
						<label2/>
					</labels>
					<comments>
						<mastercomment1/>
						<mastercomment2/>
						<mastercomment3/>
						<mastercomment4/>
					</comments>
					<file id="A003C018_221211_R03K">
						<name>A003C018_221211_R03K.mov</name>
						<pathurl>file://localhost/Volumes/%E3%80%8A%E6%98%8F%E5%A4%B4%E8%BD%AC%E5%90%91%E3%80%8B%20Editing/%E6%98%8F%E5%A4%B4%E8%BD%AC%E5%90%91/%E8%BD%AC%E7%A0%81%E7%B4%A0%E6%9D%90/20221211/A003R03K/A003C018_221211_R03K.mov</pathurl>
						<rate>
							<timebase>24</timebase>
						</rate>
						<duration>399</duration>
						<timecode>
							<rate>
								<timebase>24</timebase>
							</rate>
							<string>14:48:33:21</string>
							<frame>1279533</frame>
							<displayformat>NDF</displayformat>
							<source>source</source>
							<reel>
								<name>A003R03K</name>
							</reel>
						</timecode>
						<media>
							<video>
								<duration>399</duration>
								<samplecharacteristics>
									<width>1920</width>
									<height>1080</height>
								</samplecharacteristics>
							</video>
							<audio>
								<samplecharacteristics>
									<samplerate>48000</samplerate>
									<depth>24</depth>
								</samplecharacteristics>
								<channelcount>1</channelcount>
							</audio>
							<audio>
								<samplecharacteristics>
									<samplerate>48000</samplerate>
									<depth>24</depth>
								</samplecharacteristics>
								<channelcount>1</channelcount>
							</audio>
							<audio>
								<samplecharacteristics>
									<samplerate>48000</samplerate>
									<depth>24</depth>
								</samplecharacteristics>
								<channelcount>1</channelcount>
							</audio>
						</media>
					</file>
					<sourcetrack>
						<mediatype>video</mediatype>
					</sourcetrack>
					<link>
						<linkclipref>010_20_02_A</linkclipref>
						<mediatype>video</mediatype>
						<trackindex>1</trackindex>
						<clipindex>92</clipindex>
					</link>
					<link>
						<linkclipref>010_20_02_A2</linkclipref>
						<mediatype>audio</mediatype>
						<trackindex>1</trackindex>
						<clipindex>92</clipindex>
					</link>
					<link>
						<linkclipref>010_20_02_A3</linkclipref>
						<mediatype>audio</mediatype>
						<trackindex>2</trackindex>
						<clipindex>92</clipindex>
					</link>
					<link>
						<linkclipref>010_20_02_A4</linkclipref>
						<mediatype>audio</mediatype>
						<trackindex>3</trackindex>
						<clipindex>90</clipindex>
					</link>
					<fielddominance>none</fielddominance>
					<itemhistory>
						<uuid>932CC1BB-19C4-4B54-84E8-5E2E097B2A09</uuid>
					</itemhistory>
				</clipitem>
				<clipitem id="010_20_03_A_OK">
					<name>010_20_03_A_OK</name>
					<duration>424</duration>
					<rate>
						<ntsc>FALSE</ntsc>
						<timebase>24</timebase>
					</rate>
					<in>127</in>
					<out>224</out>
					<start>47488</start>
					<end>47585</end>
					<pixelaspectratio>Square</pixelaspectratio>
					<enabled>TRUE</enabled>
					<anamorphic>FALSE</anamorphic>
					<alphatype>none</alphatype>
					<masterclipid>010_20_03_A_OK1</masterclipid>
					<logginginfo>
						<scene/>
						<shottake/>
						<lognote/>
						<good>FALSE</good>
					</logginginfo>
					<labels>
						<label2/>
					</labels>
					<comments>
						<mastercomment1/>
						<mastercomment2/>
						<mastercomment3/>
						<mastercomment4/>
					</comments>
					<file id="A003C019_221211_R03K">
						<name>A003C019_221211_R03K.mov</name>
						<pathurl>file://localhost/Volumes/%E3%80%8A%E6%98%8F%E5%A4%B4%E8%BD%AC%E5%90%91%E3%80%8B%20Editing/%E6%98%8F%E5%A4%B4%E8%BD%AC%E5%90%91/%E8%BD%AC%E7%A0%81%E7%B4%A0%E6%9D%90/20221211/A003R03K/A003C019_221211_R03K.mov</pathurl>
						<rate>
							<timebase>24</timebase>
						</rate>
						<duration>424</duration>
						<timecode>
							<rate>
								<timebase>24</timebase>
							</rate>
							<string>14:49:08:12</string>
							<frame>1280364</frame>
							<displayformat>NDF</displayformat>
							<source>source</source>
							<reel>
								<name>A003R03K</name>
							</reel>
						</timecode>
						<media>
							<video>
								<duration>424</duration>
								<samplecharacteristics>
									<width>1920</width>
									<height>1080</height>
								</samplecharacteristics>
							</video>
							<audio>
								<samplecharacteristics>
									<samplerate>48000</samplerate>
									<depth>24</depth>
								</samplecharacteristics>
								<channelcount>1</channelcount>
							</audio>
							<audio>
								<samplecharacteristics>
									<samplerate>48000</samplerate>
									<depth>24</depth>
								</samplecharacteristics>
								<channelcount>1</channelcount>
							</audio>
							<audio>
								<samplecharacteristics>
									<samplerate>48000</samplerate>
									<depth>24</depth>
								</samplecharacteristics>
								<channelcount>1</channelcount>
							</audio>
						</media>
					</file>
					<sourcetrack>
						<mediatype>video</mediatype>
					</sourcetrack>
					<link>
						<linkclipref>010_20_03_A_OK</linkclipref>
						<mediatype>video</mediatype>
						<trackindex>1</trackindex>
						<clipindex>93</clipindex>
					</link>
					<link>
						<linkclipref>010_20_03_A_OK2</linkclipref>
						<mediatype>audio</mediatype>
						<trackindex>1</trackindex>
						<clipindex>93</clipindex>
					</link>
					<link>
						<linkclipref>010_20_03_A_OK3</linkclipref>
						<mediatype>audio</mediatype>
						<trackindex>2</trackindex>
						<clipindex>93</clipindex>
					</link>
					<link>
						<linkclipref>010_20_03_A_OK4</linkclipref>
						<mediatype>audio</mediatype>
						<trackindex>3</trackindex>
						<clipindex>91</clipindex>
					</link>
					<fielddominance>none</fielddominance>
					<itemhistory>
						<uuid>B2D21256-97EB-4E58-B8D6-CD2E28F2D8B1</uuid>
					</itemhistory>
				</clipitem>
				<clipitem id="010_21_01_A">
					<name>010_21_01_A</name>
					<duration>543</duration>
					<rate>
						<ntsc>FALSE</ntsc>
						<timebase>24</timebase>
					</rate>
					<in>277</in>
					<out>327</out>
					<start>47585</start>
					<end>47635</end>
					<pixelaspectratio>Square</pixelaspectratio>
					<enabled>TRUE</enabled>
					<anamorphic>FALSE</anamorphic>
					<alphatype>none</alphatype>
					<masterclipid>010_21_01_A1</masterclipid>
					<logginginfo>
						<scene/>
						<shottake/>
						<lognote/>
						<good>FALSE</good>
					</logginginfo>
					<labels>
						<label2/>
					</labels>
					<comments>
						<mastercomment1/>
						<mastercomment2/>
						<mastercomment3/>
						<mastercomment4/>
					</comments>
					<file id="A003C020_221211_R03K">
						<name>A003C020_221211_R03K.mov</name>
						<pathurl>file://localhost/Volumes/%E3%80%8A%E6%98%8F%E5%A4%B4%E8%BD%AC%E5%90%91%E3%80%8B%20Editing/%E6%98%8F%E5%A4%B4%E8%BD%AC%E5%90%91/%E8%BD%AC%E7%A0%81%E7%B4%A0%E6%9D%90/20221211/A003R03K/A003C020_221211_R03K.mov</pathurl>
						<rate>
							<timebase>24</timebase>
						</rate>
						<duration>543</duration>
						<timecode>
							<rate>
								<timebase>24</timebase>
							</rate>
							<string>14:59:14:12</string>
							<frame>1294908</frame>
							<displayformat>NDF</displayformat>
							<source>source</source>
							<reel>
								<name>A003R03K</name>
							</reel>
						</timecode>
						<media>
							<video>
								<duration>543</duration>
								<samplecharacteristics>
									<width>1920</width>
									<height>1080</height>
								</samplecharacteristics>
							</video>
							<audio>
								<samplecharacteristics>
									<samplerate>48000</samplerate>
									<depth>24</depth>
								</samplecharacteristics>
								<channelcount>1</channelcount>
							</audio>
							<audio>
								<samplecharacteristics>
									<samplerate>48000</samplerate>
									<depth>24</depth>
								</samplecharacteristics>
								<channelcount>1</channelcount>
							</audio>
							<audio>
								<samplecharacteristics>
									<samplerate>48000</samplerate>
									<depth>24</depth>
								</samplecharacteristics>
								<channelcount>1</channelcount>
							</audio>
						</media>
					</file>
					<sourcetrack>
						<mediatype>video</mediatype>
					</sourcetrack>
					<link>
						<linkclipref>010_21_01_A</linkclipref>
						<mediatype>video</mediatype>
						<trackindex>1</trackindex>
						<clipindex>94</clipindex>
					</link>
					<link>
						<linkclipref>010_21_01_A2</linkclipref>
						<mediatype>audio</mediatype>
						<trackindex>1</trackindex>
						<clipindex>94</clipindex>
					</link>
					<link>
						<linkclipref>010_21_01_A3</linkclipref>
						<mediatype>audio</mediatype>
						<trackindex>2</trackindex>
						<clipindex>94</clipindex>
					</link>
					<link>
						<linkclipref>010_21_01_A4</linkclipref>
						<mediatype>audio</mediatype>
						<trackindex>3</trackindex>
						<clipindex>92</clipindex>
					</link>
					<fielddominance>none</fielddominance>
					<itemhistory>
						<uuid>C4F389C8-9FB4-4F33-8445-A69F72353AA6</uuid>
					</itemhistory>
				</clipitem>
				<clipitem id="010_21_02_A">
					<name>010_21_02_A</name>
					<duration>773</duration>
					<rate>
						<ntsc>FALSE</ntsc>
						<timebase>24</timebase>
					</rate>
					<in>534</in>
					<out>602</out>
					<start>47635</start>
					<end>47703</end>
					<pixelaspectratio>Square</pixelaspectratio>
					<enabled>TRUE</enabled>
					<anamorphic>FALSE</anamorphic>
					<alphatype>none</alphatype>
					<masterclipid>010_21_02_A1</masterclipid>
					<logginginfo>
						<scene/>
						<shottake/>
						<lognote/>
						<good>FALSE</good>
					</logginginfo>
					<labels>
						<label2/>
					</labels>
					<comments>
						<mastercomment1/>
						<mastercomment2/>
						<mastercomment3/>
						<mastercomment4/>
					</comments>
					<file id="A003C021_221211_R03K">
						<name>A003C021_221211_R03K.mov</name>
						<pathurl>file://localhost/Volumes/%E3%80%8A%E6%98%8F%E5%A4%B4%E8%BD%AC%E5%90%91%E3%80%8B%20Editing/%E6%98%8F%E5%A4%B4%E8%BD%AC%E5%90%91/%E8%BD%AC%E7%A0%81%E7%B4%A0%E6%9D%90/20221211/A003R03K/A003C021_221211_R03K.mov</pathurl>
						<rate>
							<timebase>24</timebase>
						</rate>
						<duration>773</duration>
						<timecode>
							<rate>
								<timebase>24</timebase>
							</rate>
							<string>15:00:52:02</string>
							<frame>1297250</frame>
							<displayformat>NDF</displayformat>
							<source>source</source>
							<reel>
								<name>A003R03K</name>
							</reel>
						</timecode>
						<media>
							<video>
								<duration>773</duration>
								<samplecharacteristics>
									<width>1920</width>
									<height>1080</height>
								</samplecharacteristics>
							</video>
							<audio>
								<samplecharacteristics>
									<samplerate>48000</samplerate>
									<depth>24</depth>
								</samplecharacteristics>
								<channelcount>1</channelcount>
							</audio>
							<audio>
								<samplecharacteristics>
									<samplerate>48000</samplerate>
									<depth>24</depth>
								</samplecharacteristics>
								<channelcount>1</channelcount>
							</audio>
							<audio>
								<samplecharacteristics>
									<samplerate>48000</samplerate>
									<depth>24</depth>
								</samplecharacteristics>
								<channelcount>1</channelcount>
							</audio>
						</media>
					</file>
					<sourcetrack>
						<mediatype>video</mediatype>
					</sourcetrack>
					<link>
						<linkclipref>010_21_02_A</linkclipref>
						<mediatype>video</mediatype>
						<trackindex>1</trackindex>
						<clipindex>95</clipindex>
					</link>
					<link>
						<linkclipref>010_21_02_A2</linkclipref>
						<mediatype>audio</mediatype>
						<trackindex>1</trackindex>
						<clipindex>95</clipindex>
					</link>
					<link>
						<linkclipref>010_21_02_A3</linkclipref>
						<mediatype>audio</mediatype>
						<trackindex>2</trackindex>
						<clipindex>95</clipindex>
					</link>
					<link>
						<linkclipref>010_21_02_A4</linkclipref>
						<mediatype>audio</mediatype>
						<trackindex>3</trackindex>
						<clipindex>93</clipindex>
					</link>
					<fielddominance>none</fielddominance>
					<itemhistory>
						<uuid>A6254B02-EF94-4ABB-9BEF-056DE4B1ECE5</uuid>
					</itemhistory>
				</clipitem>
				<clipitem id="010_21_03_A">
					<name>010_21_03_A</name>
					<duration>605</duration>
					<rate>
						<ntsc>FALSE</ntsc>
						<timebase>24</timebase>
					</rate>
					<in>0</in>
					<out>605</out>
					<start>47703</start>
					<end>48308</end>
					<pixelaspectratio>Square</pixelaspectratio>
					<enabled>TRUE</enabled>
					<anamorphic>FALSE</anamorphic>
					<alphatype>none</alphatype>
					<masterclipid>010_21_03_A1</masterclipid>
					<logginginfo>
						<scene/>
						<shottake/>
						<lognote/>
						<good>FALSE</good>
					</logginginfo>
					<labels>
						<label2/>
					</labels>
					<comments>
						<mastercomment1/>
						<mastercomment2/>
						<mastercomment3/>
						<mastercomment4/>
					</comments>
					<file id="A003C022_221211_R03K">
						<name>A003C022_221211_R03K.mov</name>
						<pathurl>file://localhost/Volumes/%E3%80%8A%E6%98%8F%E5%A4%B4%E8%BD%AC%E5%90%91%E3%80%8B%20Editing/%E6%98%8F%E5%A4%B4%E8%BD%AC%E5%90%91/%E8%BD%AC%E7%A0%81%E7%B4%A0%E6%9D%90/20221211/A003R03K/A003C022_221211_R03K.mov</pathurl>
						<rate>
							<timebase>24</timebase>
						</rate>
						<duration>605</duration>
						<timecode>
							<rate>
								<timebase>24</timebase>
							</rate>
							<string>15:01:54:05</string>
							<frame>1298741</frame>
							<displayformat>NDF</displayformat>
							<source>source</source>
							<reel>
								<name>A003R03K</name>
							</reel>
						</timecode>
						<media>
							<video>
								<duration>605</duration>
								<samplecharacteristics>
									<width>1920</width>
									<height>1080</height>
								</samplecharacteristics>
							</video>
							<audio>
								<samplecharacteristics>
									<samplerate>48000</samplerate>
									<depth>24</depth>
								</samplecharacteristics>
								<channelcount>1</channelcount>
							</audio>
							<audio>
								<samplecharacteristics>
									<samplerate>48000</samplerate>
									<depth>24</depth>
								</samplecharacteristics>
								<channelcount>1</channelcount>
							</audio>
							<audio>
								<samplecharacteristics>
									<samplerate>48000</samplerate>
									<depth>24</depth>
								</samplecharacteristics>
								<channelcount>1</channelcount>
							</audio>
						</media>
					</file>
					<sourcetrack>
						<mediatype>video</mediatype>
					</sourcetrack>
					<link>
						<linkclipref>010_21_03_A</linkclipref>
						<mediatype>video</mediatype>
						<trackindex>1</trackindex>
						<clipindex>96</clipindex>
					</link>
					<link>
						<linkclipref>010_21_03_A2</linkclipref>
						<mediatype>audio</mediatype>
						<trackindex>1</trackindex>
						<clipindex>96</clipindex>
					</link>
					<link>
						<linkclipref>010_21_03_A3</linkclipref>
						<mediatype>audio</mediatype>
						<trackindex>2</trackindex>
						<clipindex>96</clipindex>
					</link>
					<link>
						<linkclipref>010_21_03_A4</linkclipref>
						<mediatype>audio</mediatype>
						<trackindex>3</trackindex>
						<clipindex>94</clipindex>
					</link>
					<fielddominance>none</fielddominance>
					<itemhistory>
						<uuid>78F1984E-9F52-409E-876C-0B31B805E82E</uuid>
					</itemhistory>
				</clipitem>
				<clipitem id="010_21_04_A">
					<name>010_21_04_A</name>
					<duration>542</duration>
					<rate>
						<ntsc>FALSE</ntsc>
						<timebase>24</timebase>
					</rate>
					<in>0</in>
					<out>542</out>
					<start>48308</start>
					<end>48850</end>
					<pixelaspectratio>Square</pixelaspectratio>
					<enabled>TRUE</enabled>
					<anamorphic>FALSE</anamorphic>
					<alphatype>none</alphatype>
					<masterclipid>010_21_04_A1</masterclipid>
					<logginginfo>
						<scene/>
						<shottake/>
						<lognote/>
						<good>FALSE</good>
					</logginginfo>
					<labels>
						<label2/>
					</labels>
					<comments>
						<mastercomment1/>
						<mastercomment2/>
						<mastercomment3/>
						<mastercomment4/>
					</comments>
					<file id="A003C023_221211_R03K">
						<name>A003C023_221211_R03K.mov</name>
						<pathurl>file://localhost/Volumes/%E3%80%8A%E6%98%8F%E5%A4%B4%E8%BD%AC%E5%90%91%E3%80%8B%20Editing/%E6%98%8F%E5%A4%B4%E8%BD%AC%E5%90%91/%E8%BD%AC%E7%A0%81%E7%B4%A0%E6%9D%90/20221211/A003R03K/A003C023_221211_R03K.mov</pathurl>
						<rate>
							<timebase>24</timebase>
						</rate>
						<duration>542</duration>
						<timecode>
							<rate>
								<timebase>24</timebase>
							</rate>
							<string>15:03:01:15</string>
							<frame>1300359</frame>
							<displayformat>NDF</displayformat>
							<source>source</source>
							<reel>
								<name>A003R03K</name>
							</reel>
						</timecode>
						<media>
							<video>
								<duration>542</duration>
								<samplecharacteristics>
									<width>1920</width>
									<height>1080</height>
								</samplecharacteristics>
							</video>
							<audio>
								<samplecharacteristics>
									<samplerate>48000</samplerate>
									<depth>24</depth>
								</samplecharacteristics>
								<channelcount>1</channelcount>
							</audio>
							<audio>
								<samplecharacteristics>
									<samplerate>48000</samplerate>
									<depth>24</depth>
								</samplecharacteristics>
								<channelcount>1</channelcount>
							</audio>
							<audio>
								<samplecharacteristics>
									<samplerate>48000</samplerate>
									<depth>24</depth>
								</samplecharacteristics>
								<channelcount>1</channelcount>
							</audio>
						</media>
					</file>
					<sourcetrack>
						<mediatype>video</mediatype>
					</sourcetrack>
					<link>
						<linkclipref>010_21_04_A</linkclipref>
						<mediatype>video</mediatype>
						<trackindex>1</trackindex>
						<clipindex>97</clipindex>
					</link>
					<link>
						<linkclipref>010_21_04_A2</linkclipref>
						<mediatype>audio</mediatype>
						<trackindex>1</trackindex>
						<clipindex>97</clipindex>
					</link>
					<link>
						<linkclipref>010_21_04_A3</linkclipref>
						<mediatype>audio</mediatype>
						<trackindex>2</trackindex>
						<clipindex>97</clipindex>
					</link>
					<link>
						<linkclipref>010_21_04_A4</linkclipref>
						<mediatype>audio</mediatype>
						<trackindex>3</trackindex>
						<clipindex>95</clipindex>
					</link>
					<fielddominance>none</fielddominance>
					<itemhistory>
						<uuid>E75B2BDA-4F19-485E-BFB1-4313A848FC2F</uuid>
					</itemhistory>
				</clipitem>
				<clipitem id="010_21_05_A_OK">
					<name>010_21_05_A_OK</name>
					<duration>511</duration>
					<rate>
						<ntsc>FALSE</ntsc>
						<timebase>24</timebase>
					</rate>
					<in>230</in>
					<out>287</out>
					<start>48850</start>
					<end>48907</end>
					<pixelaspectratio>Square</pixelaspectratio>
					<enabled>TRUE</enabled>
					<anamorphic>FALSE</anamorphic>
					<alphatype>none</alphatype>
					<masterclipid>010_21_05_A_OK1</masterclipid>
					<logginginfo>
						<scene/>
						<shottake/>
						<lognote/>
						<good>FALSE</good>
					</logginginfo>
					<labels>
						<label2/>
					</labels>
					<comments>
						<mastercomment1/>
						<mastercomment2/>
						<mastercomment3/>
						<mastercomment4/>
					</comments>
					<file id="A003C024_221211_R03K">
						<name>A003C024_221211_R03K.mov</name>
						<pathurl>file://localhost/Volumes/%E3%80%8A%E6%98%8F%E5%A4%B4%E8%BD%AC%E5%90%91%E3%80%8B%20Editing/%E6%98%8F%E5%A4%B4%E8%BD%AC%E5%90%91/%E8%BD%AC%E7%A0%81%E7%B4%A0%E6%9D%90/20221211/A003R03K/A003C024_221211_R03K.mov</pathurl>
						<rate>
							<timebase>24</timebase>
						</rate>
						<duration>511</duration>
						<timecode>
							<rate>
								<timebase>24</timebase>
							</rate>
							<string>15:04:29:19</string>
							<frame>1302475</frame>
							<displayformat>NDF</displayformat>
							<source>source</source>
							<reel>
								<name>A003R03K</name>
							</reel>
						</timecode>
						<media>
							<video>
								<duration>511</duration>
								<samplecharacteristics>
									<width>1920</width>
									<height>1080</height>
								</samplecharacteristics>
							</video>
							<audio>
								<samplecharacteristics>
									<samplerate>48000</samplerate>
									<depth>24</depth>
								</samplecharacteristics>
								<channelcount>1</channelcount>
							</audio>
							<audio>
								<samplecharacteristics>
									<samplerate>48000</samplerate>
									<depth>24</depth>
								</samplecharacteristics>
								<channelcount>1</channelcount>
							</audio>
							<audio>
								<samplecharacteristics>
									<samplerate>48000</samplerate>
									<depth>24</depth>
								</samplecharacteristics>
								<channelcount>1</channelcount>
							</audio>
						</media>
					</file>
					<sourcetrack>
						<mediatype>video</mediatype>
					</sourcetrack>
					<link>
						<linkclipref>010_21_05_A_OK</linkclipref>
						<mediatype>video</mediatype>
						<trackindex>1</trackindex>
						<clipindex>98</clipindex>
					</link>
					<link>
						<linkclipref>010_21_05_A_OK2</linkclipref>
						<mediatype>audio</mediatype>
						<trackindex>1</trackindex>
						<clipindex>98</clipindex>
					</link>
					<link>
						<linkclipref>010_21_05_A_OK3</linkclipref>
						<mediatype>audio</mediatype>
						<trackindex>2</trackindex>
						<clipindex>98</clipindex>
					</link>
					<link>
						<linkclipref>010_21_05_A_OK4</linkclipref>
						<mediatype>audio</mediatype>
						<trackindex>3</trackindex>
						<clipindex>96</clipindex>
					</link>
					<fielddominance>none</fielddominance>
					<itemhistory>
						<uuid>C1939BAB-0DE2-4059-A2E7-D4DB704624BC</uuid>
					</itemhistory>
				</clipitem>
				<clipitem id="010_22_01_A">
					<name>010_22_01_A</name>
					<duration>232</duration>
					<rate>
						<ntsc>FALSE</ntsc>
						<timebase>24</timebase>
					</rate>
					<in>0</in>
					<out>232</out>
					<start>48907</start>
					<end>49139</end>
					<pixelaspectratio>Square</pixelaspectratio>
					<enabled>TRUE</enabled>
					<anamorphic>FALSE</anamorphic>
					<alphatype>none</alphatype>
					<masterclipid>010_22_01_A1</masterclipid>
					<logginginfo>
						<scene/>
						<shottake/>
						<lognote/>
						<good>FALSE</good>
					</logginginfo>
					<labels>
						<label2/>
					</labels>
					<comments>
						<mastercomment1/>
						<mastercomment2/>
						<mastercomment3/>
						<mastercomment4/>
					</comments>
					<file id="A003C025_221211_R03K">
						<name>A003C025_221211_R03K.mov</name>
						<pathurl>file://localhost/Volumes/%E3%80%8A%E6%98%8F%E5%A4%B4%E8%BD%AC%E5%90%91%E3%80%8B%20Editing/%E6%98%8F%E5%A4%B4%E8%BD%AC%E5%90%91/%E8%BD%AC%E7%A0%81%E7%B4%A0%E6%9D%90/20221211/A003R03K/A003C025_221211_R03K.mov</pathurl>
						<rate>
							<timebase>24</timebase>
						</rate>
						<duration>232</duration>
						<timecode>
							<rate>
								<timebase>24</timebase>
							</rate>
							<string>15:11:14:11</string>
							<frame>1312187</frame>
							<displayformat>NDF</displayformat>
							<source>source</source>
							<reel>
								<name>A003R03K</name>
							</reel>
						</timecode>
						<media>
							<video>
								<duration>232</duration>
								<samplecharacteristics>
									<width>1920</width>
									<height>1080</height>
								</samplecharacteristics>
							</video>
							<audio>
								<samplecharacteristics>
									<samplerate>48000</samplerate>
									<depth>24</depth>
								</samplecharacteristics>
								<channelcount>1</channelcount>
							</audio>
							<audio>
								<samplecharacteristics>
									<samplerate>48000</samplerate>
									<depth>24</depth>
								</samplecharacteristics>
								<channelcount>1</channelcount>
							</audio>
							<audio>
								<samplecharacteristics>
									<samplerate>48000</samplerate>
									<depth>24</depth>
								</samplecharacteristics>
								<channelcount>1</channelcount>
							</audio>
						</media>
					</file>
					<sourcetrack>
						<mediatype>video</mediatype>
					</sourcetrack>
					<link>
						<linkclipref>010_22_01_A</linkclipref>
						<mediatype>video</mediatype>
						<trackindex>1</trackindex>
						<clipindex>99</clipindex>
					</link>
					<link>
						<linkclipref>010_22_01_A2</linkclipref>
						<mediatype>audio</mediatype>
						<trackindex>1</trackindex>
						<clipindex>99</clipindex>
					</link>
					<link>
						<linkclipref>010_22_01_A3</linkclipref>
						<mediatype>audio</mediatype>
						<trackindex>2</trackindex>
						<clipindex>99</clipindex>
					</link>
					<link>
						<linkclipref>010_22_01_A4</linkclipref>
						<mediatype>audio</mediatype>
						<trackindex>3</trackindex>
						<clipindex>97</clipindex>
					</link>
					<fielddominance>none</fielddominance>
					<itemhistory>
						<uuid>9CBD66FE-23EA-4393-9276-B8A7CA204E53</uuid>
					</itemhistory>
				</clipitem>
				<clipitem id="010_22_02_A">
					<name>010_22_02_A</name>
					<duration>327</duration>
					<rate>
						<ntsc>FALSE</ntsc>
						<timebase>24</timebase>
					</rate>
					<in>0</in>
					<out>327</out>
					<start>49139</start>
					<end>49466</end>
					<pixelaspectratio>Square</pixelaspectratio>
					<enabled>TRUE</enabled>
					<anamorphic>FALSE</anamorphic>
					<alphatype>none</alphatype>
					<masterclipid>010_22_02_A1</masterclipid>
					<logginginfo>
						<scene/>
						<shottake/>
						<lognote/>
						<good>FALSE</good>
					</logginginfo>
					<labels>
						<label2/>
					</labels>
					<comments>
						<mastercomment1/>
						<mastercomment2/>
						<mastercomment3/>
						<mastercomment4/>
					</comments>
					<file id="A003C026_221211_R03K">
						<name>A003C026_221211_R03K.mov</name>
						<pathurl>file://localhost/Volumes/%E3%80%8A%E6%98%8F%E5%A4%B4%E8%BD%AC%E5%90%91%E3%80%8B%20Editing/%E6%98%8F%E5%A4%B4%E8%BD%AC%E5%90%91/%E8%BD%AC%E7%A0%81%E7%B4%A0%E6%9D%90/20221211/A003R03K/A003C026_221211_R03K.mov</pathurl>
						<rate>
							<timebase>24</timebase>
						</rate>
						<duration>327</duration>
						<timecode>
							<rate>
								<timebase>24</timebase>
							</rate>
							<string>15:13:55:18</string>
							<frame>1316058</frame>
							<displayformat>NDF</displayformat>
							<source>source</source>
							<reel>
								<name>A003R03K</name>
							</reel>
						</timecode>
						<media>
							<video>
								<duration>327</duration>
								<samplecharacteristics>
									<width>1920</width>
									<height>1080</height>
								</samplecharacteristics>
							</video>
							<audio>
								<samplecharacteristics>
									<samplerate>48000</samplerate>
									<depth>24</depth>
								</samplecharacteristics>
								<channelcount>1</channelcount>
							</audio>
							<audio>
								<samplecharacteristics>
									<samplerate>48000</samplerate>
									<depth>24</depth>
								</samplecharacteristics>
								<channelcount>1</channelcount>
							</audio>
							<audio>
								<samplecharacteristics>
									<samplerate>48000</samplerate>
									<depth>24</depth>
								</samplecharacteristics>
								<channelcount>1</channelcount>
							</audio>
						</media>
					</file>
					<sourcetrack>
						<mediatype>video</mediatype>
					</sourcetrack>
					<link>
						<linkclipref>010_22_02_A</linkclipref>
						<mediatype>video</mediatype>
						<trackindex>1</trackindex>
						<clipindex>100</clipindex>
					</link>
					<link>
						<linkclipref>010_22_02_A2</linkclipref>
						<mediatype>audio</mediatype>
						<trackindex>1</trackindex>
						<clipindex>100</clipindex>
					</link>
					<link>
						<linkclipref>010_22_02_A3</linkclipref>
						<mediatype>audio</mediatype>
						<trackindex>2</trackindex>
						<clipindex>100</clipindex>
					</link>
					<link>
						<linkclipref>010_22_02_A4</linkclipref>
						<mediatype>audio</mediatype>
						<trackindex>3</trackindex>
						<clipindex>98</clipindex>
					</link>
					<fielddominance>none</fielddominance>
					<itemhistory>
						<uuid>3188D1A2-B361-459C-A9F3-6A949FED28DF</uuid>
					</itemhistory>
				</clipitem>
				<clipitem id="010_22_03_A_OK">
					<name>010_22_03_A_OK</name>
					<duration>374</duration>
					<rate>
						<ntsc>FALSE</ntsc>
						<timebase>24</timebase>
					</rate>
					<in>101</in>
					<out>186</out>
					<start>49466</start>
					<end>49551</end>
					<pixelaspectratio>Square</pixelaspectratio>
					<enabled>TRUE</enabled>
					<anamorphic>FALSE</anamorphic>
					<alphatype>none</alphatype>
					<masterclipid>010_22_03_A_OK1</masterclipid>
					<logginginfo>
						<scene/>
						<shottake/>
						<lognote/>
						<good>FALSE</good>
					</logginginfo>
					<labels>
						<label2/>
					</labels>
					<comments>
						<mastercomment1/>
						<mastercomment2/>
						<mastercomment3/>
						<mastercomment4/>
					</comments>
					<file id="A003C027_221211_R03K">
						<name>A003C027_221211_R03K.mov</name>
						<pathurl>file://localhost/Volumes/%E3%80%8A%E6%98%8F%E5%A4%B4%E8%BD%AC%E5%90%91%E3%80%8B%20Editing/%E6%98%8F%E5%A4%B4%E8%BD%AC%E5%90%91/%E8%BD%AC%E7%A0%81%E7%B4%A0%E6%9D%90/20221211/A003R03K/A003C027_221211_R03K.mov</pathurl>
						<rate>
							<timebase>24</timebase>
						</rate>
						<duration>374</duration>
						<timecode>
							<rate>
								<timebase>24</timebase>
							</rate>
							<string>15:14:22:16</string>
							<frame>1316704</frame>
							<displayformat>NDF</displayformat>
							<source>source</source>
							<reel>
								<name>A003R03K</name>
							</reel>
						</timecode>
						<media>
							<video>
								<duration>374</duration>
								<samplecharacteristics>
									<width>1920</width>
									<height>1080</height>
								</samplecharacteristics>
							</video>
							<audio>
								<samplecharacteristics>
									<samplerate>48000</samplerate>
									<depth>24</depth>
								</samplecharacteristics>
								<channelcount>1</channelcount>
							</audio>
							<audio>
								<samplecharacteristics>
									<samplerate>48000</samplerate>
									<depth>24</depth>
								</samplecharacteristics>
								<channelcount>1</channelcount>
							</audio>
							<audio>
								<samplecharacteristics>
									<samplerate>48000</samplerate>
									<depth>24</depth>
								</samplecharacteristics>
								<channelcount>1</channelcount>
							</audio>
						</media>
					</file>
					<sourcetrack>
						<mediatype>video</mediatype>
					</sourcetrack>
					<link>
						<linkclipref>010_22_03_A_OK</linkclipref>
						<mediatype>video</mediatype>
						<trackindex>1</trackindex>
						<clipindex>101</clipindex>
					</link>
					<link>
						<linkclipref>010_22_03_A_OK2</linkclipref>
						<mediatype>audio</mediatype>
						<trackindex>1</trackindex>
						<clipindex>101</clipindex>
					</link>
					<link>
						<linkclipref>010_22_03_A_OK3</linkclipref>
						<mediatype>audio</mediatype>
						<trackindex>2</trackindex>
						<clipindex>101</clipindex>
					</link>
					<link>
						<linkclipref>010_22_03_A_OK4</linkclipref>
						<mediatype>audio</mediatype>
						<trackindex>3</trackindex>
						<clipindex>99</clipindex>
					</link>
					<fielddominance>none</fielddominance>
					<itemhistory>
						<uuid>3776B9C7-C16A-431C-B4C0-EDCFCAC10B78</uuid>
					</itemhistory>
				</clipitem>
				<clipitem id="010_23_01_A">
					<name>010_23_01_A</name>
					<duration>210</duration>
					<rate>
						<ntsc>FALSE</ntsc>
						<timebase>24</timebase>
					</rate>
					<in>0</in>
					<out>210</out>
					<start>49551</start>
					<end>49761</end>
					<pixelaspectratio>Square</pixelaspectratio>
					<enabled>TRUE</enabled>
					<anamorphic>FALSE</anamorphic>
					<alphatype>none</alphatype>
					<masterclipid>010_23_01_A1</masterclipid>
					<logginginfo>
						<scene/>
						<shottake/>
						<lognote/>
						<good>FALSE</good>
					</logginginfo>
					<labels>
						<label2/>
					</labels>
					<comments>
						<mastercomment1/>
						<mastercomment2/>
						<mastercomment3/>
						<mastercomment4/>
					</comments>
					<file id="A003C028_221211_R03K">
						<name>A003C028_221211_R03K.mov</name>
						<pathurl>file://localhost/Volumes/%E3%80%8A%E6%98%8F%E5%A4%B4%E8%BD%AC%E5%90%91%E3%80%8B%20Editing/%E6%98%8F%E5%A4%B4%E8%BD%AC%E5%90%91/%E8%BD%AC%E7%A0%81%E7%B4%A0%E6%9D%90/20221211/A003R03K/A003C028_221211_R03K.mov</pathurl>
						<rate>
							<timebase>24</timebase>
						</rate>
						<duration>210</duration>
						<timecode>
							<rate>
								<timebase>24</timebase>
							</rate>
							<string>15:20:10:22</string>
							<frame>1325062</frame>
							<displayformat>NDF</displayformat>
							<source>source</source>
							<reel>
								<name>A003R03K</name>
							</reel>
						</timecode>
						<media>
							<video>
								<duration>210</duration>
								<samplecharacteristics>
									<width>1920</width>
									<height>1080</height>
								</samplecharacteristics>
							</video>
							<audio>
								<samplecharacteristics>
									<samplerate>48000</samplerate>
									<depth>24</depth>
								</samplecharacteristics>
								<channelcount>2</channelcount>
							</audio>
						</media>
					</file>
					<sourcetrack>
						<mediatype>video</mediatype>
					</sourcetrack>
					<link>
						<linkclipref>010_23_01_A</linkclipref>
						<mediatype>video</mediatype>
						<trackindex>1</trackindex>
						<clipindex>102</clipindex>
					</link>
					<link>
						<linkclipref>010_23_01_A2</linkclipref>
						<mediatype>audio</mediatype>
						<trackindex>1</trackindex>
						<clipindex>102</clipindex>
						<groupindex>1</groupindex>
					</link>
					<link>
						<linkclipref>010_23_01_A3</linkclipref>
						<mediatype>audio</mediatype>
						<trackindex>2</trackindex>
						<clipindex>102</clipindex>
						<groupindex>1</groupindex>
					</link>
					<fielddominance>none</fielddominance>
					<itemhistory>
						<uuid>149274E0-E9F1-4B33-BA5F-8BFA72153F5F</uuid>
					</itemhistory>
				</clipitem>
				<clipitem id="010_23_02_A">
					<name>010_23_02_A</name>
					<duration>240</duration>
					<rate>
						<ntsc>FALSE</ntsc>
						<timebase>24</timebase>
					</rate>
					<in>0</in>
					<out>240</out>
					<start>49761</start>
					<end>50001</end>
					<pixelaspectratio>Square</pixelaspectratio>
					<enabled>TRUE</enabled>
					<anamorphic>FALSE</anamorphic>
					<alphatype>none</alphatype>
					<masterclipid>010_23_02_A1</masterclipid>
					<logginginfo>
						<scene/>
						<shottake/>
						<lognote/>
						<good>FALSE</good>
					</logginginfo>
					<labels>
						<label2/>
					</labels>
					<comments>
						<mastercomment1/>
						<mastercomment2/>
						<mastercomment3/>
						<mastercomment4/>
					</comments>
					<file id="A003C029_221211_R03K">
						<name>A003C029_221211_R03K.mov</name>
						<pathurl>file://localhost/Volumes/%E3%80%8A%E6%98%8F%E5%A4%B4%E8%BD%AC%E5%90%91%E3%80%8B%20Editing/%E6%98%8F%E5%A4%B4%E8%BD%AC%E5%90%91/%E8%BD%AC%E7%A0%81%E7%B4%A0%E6%9D%90/20221211/A003R03K/A003C029_221211_R03K.mov</pathurl>
						<rate>
							<timebase>24</timebase>
						</rate>
						<duration>240</duration>
						<timecode>
							<rate>
								<timebase>24</timebase>
							</rate>
							<string>15:20:32:10</string>
							<frame>1325578</frame>
							<displayformat>NDF</displayformat>
							<source>source</source>
							<reel>
								<name>A003R03K</name>
							</reel>
						</timecode>
						<media>
							<video>
								<duration>240</duration>
								<samplecharacteristics>
									<width>1920</width>
									<height>1080</height>
								</samplecharacteristics>
							</video>
							<audio>
								<samplecharacteristics>
									<samplerate>48000</samplerate>
									<depth>24</depth>
								</samplecharacteristics>
								<channelcount>2</channelcount>
							</audio>
						</media>
					</file>
					<sourcetrack>
						<mediatype>video</mediatype>
					</sourcetrack>
					<link>
						<linkclipref>010_23_02_A</linkclipref>
						<mediatype>video</mediatype>
						<trackindex>1</trackindex>
						<clipindex>103</clipindex>
					</link>
					<link>
						<linkclipref>010_23_02_A2</linkclipref>
						<mediatype>audio</mediatype>
						<trackindex>1</trackindex>
						<clipindex>103</clipindex>
						<groupindex>1</groupindex>
					</link>
					<link>
						<linkclipref>010_23_02_A3</linkclipref>
						<mediatype>audio</mediatype>
						<trackindex>2</trackindex>
						<clipindex>103</clipindex>
						<groupindex>1</groupindex>
					</link>
					<fielddominance>none</fielddominance>
					<itemhistory>
						<uuid>194EB452-91EF-4B4E-8B15-DBD74326038D</uuid>
					</itemhistory>
				</clipitem>
				<clipitem id="010_23_03_A_OK">
					<name>010_23_03_A_OK</name>
					<duration>231</duration>
					<rate>
						<ntsc>FALSE</ntsc>
						<timebase>24</timebase>
					</rate>
					<in>87</in>
					<out>158</out>
					<start>50001</start>
					<end>50072</end>
					<pixelaspectratio>Square</pixelaspectratio>
					<enabled>TRUE</enabled>
					<anamorphic>FALSE</anamorphic>
					<alphatype>none</alphatype>
					<masterclipid>010_23_03_A_OK1</masterclipid>
					<logginginfo>
						<scene/>
						<shottake/>
						<lognote/>
						<good>FALSE</good>
					</logginginfo>
					<labels>
						<label2/>
					</labels>
					<comments>
						<mastercomment1/>
						<mastercomment2/>
						<mastercomment3/>
						<mastercomment4/>
					</comments>
					<file id="A003C030_221211_R03K">
						<name>A003C030_221211_R03K.mov</name>
						<pathurl>file://localhost/Volumes/%E3%80%8A%E6%98%8F%E5%A4%B4%E8%BD%AC%E5%90%91%E3%80%8B%20Editing/%E6%98%8F%E5%A4%B4%E8%BD%AC%E5%90%91/%E8%BD%AC%E7%A0%81%E7%B4%A0%E6%9D%90/20221211/A003R03K/A003C030_221211_R03K.mov</pathurl>
						<rate>
							<timebase>24</timebase>
						</rate>
						<duration>231</duration>
						<timecode>
							<rate>
								<timebase>24</timebase>
							</rate>
							<string>15:21:23:13</string>
							<frame>1326805</frame>
							<displayformat>NDF</displayformat>
							<source>source</source>
							<reel>
								<name>A003R03K</name>
							</reel>
						</timecode>
						<media>
							<video>
								<duration>231</duration>
								<samplecharacteristics>
									<width>1920</width>
									<height>1080</height>
								</samplecharacteristics>
							</video>
							<audio>
								<samplecharacteristics>
									<samplerate>48000</samplerate>
									<depth>24</depth>
								</samplecharacteristics>
								<channelcount>2</channelcount>
							</audio>
						</media>
					</file>
					<sourcetrack>
						<mediatype>video</mediatype>
					</sourcetrack>
					<link>
						<linkclipref>010_23_03_A_OK</linkclipref>
						<mediatype>video</mediatype>
						<trackindex>1</trackindex>
						<clipindex>104</clipindex>
					</link>
					<link>
						<linkclipref>010_23_03_A_OK2</linkclipref>
						<mediatype>audio</mediatype>
						<trackindex>1</trackindex>
						<clipindex>104</clipindex>
						<groupindex>1</groupindex>
					</link>
					<link>
						<linkclipref>010_23_03_A_OK3</linkclipref>
						<mediatype>audio</mediatype>
						<trackindex>2</trackindex>
						<clipindex>104</clipindex>
						<groupindex>1</groupindex>
					</link>
					<fielddominance>none</fielddominance>
					<itemhistory>
						<uuid>B082F516-83F5-47D3-9274-E851441722D3</uuid>
					</itemhistory>
				</clipitem>
				<enabled>TRUE</enabled>
				<locked>FALSE</locked>
			</track>
		</video>
		<audio>
			<format>
				<samplecharacteristics>
					<depth>24</depth>
					<samplerate>48000</samplerate>
				</samplecharacteristics>
			</format>
			<outputs>
				<group>
					<index>1</index>
					<numchannels>2</numchannels>
					<downmix>0</downmix>
					<channel>
						<index>1</index>
					</channel>
					<channel>
						<index>2</index>
					</channel>
				</group>
			</outputs>
			<in>-1</in>
			<out>-1</out>
			<track>
				<clipitem id="010_01_01_A2">
					<name>010_01_01_A</name>
					<duration>628</duration>
					<rate>
						<ntsc>FALSE</ntsc>
						<timebase>24</timebase>
					</rate>
					<in>0</in>
					<out>628</out>
					<start>0</start>
					<end>628</end>
					<subframeoffset>0</subframeoffset>
					<enabled>TRUE</enabled>
					<masterclipid>010_01_01_A1</masterclipid>
					<logginginfo>
						<scene/>
						<shottake/>
						<lognote/>
						<good>FALSE</good>
					</logginginfo>
					<labels>
						<label2/>
					</labels>
					<comments>
						<mastercomment1/>
						<mastercomment2/>
						<mastercomment3/>
						<mastercomment4/>
					</comments>
					<file id="A001C019_221211_R03K"/>
					<filter>
						<effect>
							<name>Audio Levels</name>
							<effectid>audiolevels</effectid>
							<effectcategory>audiolevels</effectcategory>
							<effecttype>audiolevels</effecttype>
							<mediatype>audio</mediatype>
							<parameter>
								<name>Level</name>
								<parameterid>level</parameterid>
								<valuemin>0</valuemin>
								<valuemax>3.98109</valuemax>
								<value>1</value>
							</parameter>
						</effect>
					</filter>
					<filter>
						<effect>
							<name>Audio Pan</name>
							<effectid>audiopan</effectid>
							<effectcategory>audiopan</effectcategory>
							<effecttype>audiopan</effecttype>
							<mediatype>audio</mediatype>
							<parameter>
								<name>Pan</name>
								<parameterid>pan</parameterid>
								<valuemin>-1</valuemin>
								<valuemax>1</valuemax>
								<value>0</value>
							</parameter>
						</effect>
					</filter>
					<sourcetrack>
						<mediatype>audio</mediatype>
						<trackindex>1</trackindex>
					</sourcetrack>
					<link>
						<linkclipref>010_01_01_A</linkclipref>
						<mediatype>video</mediatype>
						<trackindex>1</trackindex>
						<clipindex>1</clipindex>
					</link>
					<link>
						<linkclipref>010_01_01_A2</linkclipref>
						<mediatype>audio</mediatype>
						<trackindex>1</trackindex>
						<clipindex>1</clipindex>
					</link>
					<link>
						<linkclipref>010_01_01_A3</linkclipref>
						<mediatype>audio</mediatype>
						<trackindex>2</trackindex>
						<clipindex>1</clipindex>
					</link>
					<link>
						<linkclipref>010_01_01_A4</linkclipref>
						<mediatype>audio</mediatype>
						<trackindex>3</trackindex>
						<clipindex>1</clipindex>
					</link>
					<link>
						<linkclipref>010_01_01_A5</linkclipref>
						<mediatype>audio</mediatype>
						<trackindex>4</trackindex>
						<clipindex>1</clipindex>
					</link>
					<itemhistory>
						<uuid>BB7AF7C7-AABC-454F-98B0-989B181C76CE</uuid>
					</itemhistory>
				</clipitem>
				<clipitem id="010_01_01_B2">
					<name>010_01_01_B</name>
					<duration>676</duration>
					<rate>
						<ntsc>FALSE</ntsc>
						<timebase>24</timebase>
					</rate>
					<in>0</in>
					<out>676</out>
					<start>628</start>
					<end>1304</end>
					<subframeoffset>0</subframeoffset>
					<enabled>TRUE</enabled>
					<masterclipid>010_01_01_B1</masterclipid>
					<logginginfo>
						<scene/>
						<shottake/>
						<lognote/>
						<good>FALSE</good>
					</logginginfo>
					<labels>
						<label2/>
					</labels>
					<comments>
						<mastercomment1/>
						<mastercomment2/>
						<mastercomment3/>
						<mastercomment4/>
					</comments>
					<file id="B001C006_130101_R1WX"/>
					<filter>
						<effect>
							<name>Audio Levels</name>
							<effectid>audiolevels</effectid>
							<effectcategory>audiolevels</effectcategory>
							<effecttype>audiolevels</effecttype>
							<mediatype>audio</mediatype>
							<parameter>
								<name>Level</name>
								<parameterid>level</parameterid>
								<valuemin>0</valuemin>
								<valuemax>3.98109</valuemax>
								<value>1</value>
							</parameter>
						</effect>
					</filter>
					<filter>
						<effect>
							<name>Audio Pan</name>
							<effectid>audiopan</effectid>
							<effectcategory>audiopan</effectcategory>
							<effecttype>audiopan</effecttype>
							<mediatype>audio</mediatype>
							<parameter>
								<name>Pan</name>
								<parameterid>pan</parameterid>
								<valuemin>-1</valuemin>
								<valuemax>1</valuemax>
								<value>0</value>
							</parameter>
						</effect>
					</filter>
					<sourcetrack>
						<mediatype>audio</mediatype>
						<trackindex>1</trackindex>
					</sourcetrack>
					<link>
						<linkclipref>010_01_01_B</linkclipref>
						<mediatype>video</mediatype>
						<trackindex>1</trackindex>
						<clipindex>2</clipindex>
					</link>
					<link>
						<linkclipref>010_01_01_B2</linkclipref>
						<mediatype>audio</mediatype>
						<trackindex>1</trackindex>
						<clipindex>2</clipindex>
					</link>
					<link>
						<linkclipref>010_01_01_B3</linkclipref>
						<mediatype>audio</mediatype>
						<trackindex>2</trackindex>
						<clipindex>2</clipindex>
					</link>
					<link>
						<linkclipref>010_01_01_B4</linkclipref>
						<mediatype>audio</mediatype>
						<trackindex>3</trackindex>
						<clipindex>2</clipindex>
					</link>
					<link>
						<linkclipref>010_01_01_B5</linkclipref>
						<mediatype>audio</mediatype>
						<trackindex>4</trackindex>
						<clipindex>2</clipindex>
					</link>
					<itemhistory>
						<uuid>82A6365D-F9C7-4AA5-8DEB-E1056AB70C7D</uuid>
					</itemhistory>
				</clipitem>
				<clipitem id="010_01_02_A2">
					<name>010_01_02_A</name>
					<duration>638</duration>
					<rate>
						<ntsc>FALSE</ntsc>
						<timebase>24</timebase>
					</rate>
					<in>0</in>
					<out>638</out>
					<start>1304</start>
					<end>1942</end>
					<subframeoffset>0</subframeoffset>
					<enabled>TRUE</enabled>
					<masterclipid>010_01_02_A1</masterclipid>
					<logginginfo>
						<scene/>
						<shottake/>
						<lognote/>
						<good>FALSE</good>
					</logginginfo>
					<labels>
						<label2/>
					</labels>
					<comments>
						<mastercomment1/>
						<mastercomment2/>
						<mastercomment3/>
						<mastercomment4/>
					</comments>
					<file id="A001C020_221211_R03K"/>
					<filter>
						<effect>
							<name>Audio Levels</name>
							<effectid>audiolevels</effectid>
							<effectcategory>audiolevels</effectcategory>
							<effecttype>audiolevels</effecttype>
							<mediatype>audio</mediatype>
							<parameter>
								<name>Level</name>
								<parameterid>level</parameterid>
								<valuemin>0</valuemin>
								<valuemax>3.98109</valuemax>
								<value>1</value>
							</parameter>
						</effect>
					</filter>
					<filter>
						<effect>
							<name>Audio Pan</name>
							<effectid>audiopan</effectid>
							<effectcategory>audiopan</effectcategory>
							<effecttype>audiopan</effecttype>
							<mediatype>audio</mediatype>
							<parameter>
								<name>Pan</name>
								<parameterid>pan</parameterid>
								<valuemin>-1</valuemin>
								<valuemax>1</valuemax>
								<value>0</value>
							</parameter>
						</effect>
					</filter>
					<sourcetrack>
						<mediatype>audio</mediatype>
						<trackindex>1</trackindex>
					</sourcetrack>
					<link>
						<linkclipref>010_01_02_A</linkclipref>
						<mediatype>video</mediatype>
						<trackindex>1</trackindex>
						<clipindex>3</clipindex>
					</link>
					<link>
						<linkclipref>010_01_02_A2</linkclipref>
						<mediatype>audio</mediatype>
						<trackindex>1</trackindex>
						<clipindex>3</clipindex>
					</link>
					<link>
						<linkclipref>010_01_02_A3</linkclipref>
						<mediatype>audio</mediatype>
						<trackindex>2</trackindex>
						<clipindex>3</clipindex>
					</link>
					<link>
						<linkclipref>010_01_02_A4</linkclipref>
						<mediatype>audio</mediatype>
						<trackindex>3</trackindex>
						<clipindex>3</clipindex>
					</link>
					<link>
						<linkclipref>010_01_02_A5</linkclipref>
						<mediatype>audio</mediatype>
						<trackindex>4</trackindex>
						<clipindex>3</clipindex>
					</link>
					<itemhistory>
						<uuid>4771017F-2E4A-4883-BBC2-50625A51F4EE</uuid>
					</itemhistory>
				</clipitem>
				<clipitem id="010_01_02_B2">
					<name>010_01_02_B</name>
					<duration>691</duration>
					<rate>
						<ntsc>FALSE</ntsc>
						<timebase>24</timebase>
					</rate>
					<in>0</in>
					<out>691</out>
					<start>1942</start>
					<end>2633</end>
					<subframeoffset>0</subframeoffset>
					<enabled>TRUE</enabled>
					<masterclipid>010_01_02_B1</masterclipid>
					<logginginfo>
						<scene/>
						<shottake/>
						<lognote/>
						<good>FALSE</good>
					</logginginfo>
					<labels>
						<label2/>
					</labels>
					<comments>
						<mastercomment1/>
						<mastercomment2/>
						<mastercomment3/>
						<mastercomment4/>
					</comments>
					<file id="B001C007_130101_R1WX"/>
					<filter>
						<effect>
							<name>Audio Levels</name>
							<effectid>audiolevels</effectid>
							<effectcategory>audiolevels</effectcategory>
							<effecttype>audiolevels</effecttype>
							<mediatype>audio</mediatype>
							<parameter>
								<name>Level</name>
								<parameterid>level</parameterid>
								<valuemin>0</valuemin>
								<valuemax>3.98109</valuemax>
								<value>1</value>
							</parameter>
						</effect>
					</filter>
					<filter>
						<effect>
							<name>Audio Pan</name>
							<effectid>audiopan</effectid>
							<effectcategory>audiopan</effectcategory>
							<effecttype>audiopan</effecttype>
							<mediatype>audio</mediatype>
							<parameter>
								<name>Pan</name>
								<parameterid>pan</parameterid>
								<valuemin>-1</valuemin>
								<valuemax>1</valuemax>
								<value>0</value>
							</parameter>
						</effect>
					</filter>
					<sourcetrack>
						<mediatype>audio</mediatype>
						<trackindex>1</trackindex>
					</sourcetrack>
					<link>
						<linkclipref>010_01_02_B</linkclipref>
						<mediatype>video</mediatype>
						<trackindex>1</trackindex>
						<clipindex>4</clipindex>
					</link>
					<link>
						<linkclipref>010_01_02_B2</linkclipref>
						<mediatype>audio</mediatype>
						<trackindex>1</trackindex>
						<clipindex>4</clipindex>
					</link>
					<link>
						<linkclipref>010_01_02_B3</linkclipref>
						<mediatype>audio</mediatype>
						<trackindex>2</trackindex>
						<clipindex>4</clipindex>
					</link>
					<link>
						<linkclipref>010_01_02_B4</linkclipref>
						<mediatype>audio</mediatype>
						<trackindex>3</trackindex>
						<clipindex>4</clipindex>
					</link>
					<link>
						<linkclipref>010_01_02_B5</linkclipref>
						<mediatype>audio</mediatype>
						<trackindex>4</trackindex>
						<clipindex>4</clipindex>
					</link>
					<itemhistory>
						<uuid>72CC2992-B2BA-47B1-B8F8-8DBFFB0FDF18</uuid>
					</itemhistory>
				</clipitem>
				<clipitem id="010_01_03_A2">
					<name>010_01_03_A</name>
					<duration>213</duration>
					<rate>
						<ntsc>FALSE</ntsc>
						<timebase>24</timebase>
					</rate>
					<in>0</in>
					<out>213</out>
					<start>2633</start>
					<end>2846</end>
					<subframeoffset>0</subframeoffset>
					<enabled>TRUE</enabled>
					<masterclipid>010_01_03_A1</masterclipid>
					<logginginfo>
						<scene/>
						<shottake/>
						<lognote/>
						<good>FALSE</good>
					</logginginfo>
					<labels>
						<label2/>
					</labels>
					<comments>
						<mastercomment1/>
						<mastercomment2/>
						<mastercomment3/>
						<mastercomment4/>
					</comments>
					<file id="A001C021_221211_R03K"/>
					<filter>
						<effect>
							<name>Audio Levels</name>
							<effectid>audiolevels</effectid>
							<effectcategory>audiolevels</effectcategory>
							<effecttype>audiolevels</effecttype>
							<mediatype>audio</mediatype>
							<parameter>
								<name>Level</name>
								<parameterid>level</parameterid>
								<valuemin>0</valuemin>
								<valuemax>3.98109</valuemax>
								<value>1</value>
							</parameter>
						</effect>
					</filter>
					<filter>
						<effect>
							<name>Audio Pan</name>
							<effectid>audiopan</effectid>
							<effectcategory>audiopan</effectcategory>
							<effecttype>audiopan</effecttype>
							<mediatype>audio</mediatype>
							<parameter>
								<name>Pan</name>
								<parameterid>pan</parameterid>
								<valuemin>-1</valuemin>
								<valuemax>1</valuemax>
								<value>0</value>
							</parameter>
						</effect>
					</filter>
					<sourcetrack>
						<mediatype>audio</mediatype>
						<trackindex>1</trackindex>
					</sourcetrack>
					<link>
						<linkclipref>010_01_03_A</linkclipref>
						<mediatype>video</mediatype>
						<trackindex>1</trackindex>
						<clipindex>5</clipindex>
					</link>
					<link>
						<linkclipref>010_01_03_A2</linkclipref>
						<mediatype>audio</mediatype>
						<trackindex>1</trackindex>
						<clipindex>5</clipindex>
					</link>
					<link>
						<linkclipref>010_01_03_A3</linkclipref>
						<mediatype>audio</mediatype>
						<trackindex>2</trackindex>
						<clipindex>5</clipindex>
					</link>
					<link>
						<linkclipref>010_01_03_A4</linkclipref>
						<mediatype>audio</mediatype>
						<trackindex>3</trackindex>
						<clipindex>5</clipindex>
					</link>
					<itemhistory>
						<uuid>F9E01ABD-3FE9-4020-A5BF-1E67C18BC828</uuid>
					</itemhistory>
				</clipitem>
				<clipitem id="010_01_03_B2">
					<name>010_01_03_B</name>
					<duration>277</duration>
					<rate>
						<ntsc>FALSE</ntsc>
						<timebase>24</timebase>
					</rate>
					<in>0</in>
					<out>277</out>
					<start>2846</start>
					<end>3123</end>
					<subframeoffset>0</subframeoffset>
					<enabled>TRUE</enabled>
					<masterclipid>010_01_03_B1</masterclipid>
					<logginginfo>
						<scene/>
						<shottake/>
						<lognote/>
						<good>FALSE</good>
					</logginginfo>
					<labels>
						<label2/>
					</labels>
					<comments>
						<mastercomment1/>
						<mastercomment2/>
						<mastercomment3/>
						<mastercomment4/>
					</comments>
					<file id="B001C008_130101_R1WX"/>
					<filter>
						<effect>
							<name>Audio Levels</name>
							<effectid>audiolevels</effectid>
							<effectcategory>audiolevels</effectcategory>
							<effecttype>audiolevels</effecttype>
							<mediatype>audio</mediatype>
							<parameter>
								<name>Level</name>
								<parameterid>level</parameterid>
								<valuemin>0</valuemin>
								<valuemax>3.98109</valuemax>
								<value>1</value>
							</parameter>
						</effect>
					</filter>
					<filter>
						<effect>
							<name>Audio Pan</name>
							<effectid>audiopan</effectid>
							<effectcategory>audiopan</effectcategory>
							<effecttype>audiopan</effecttype>
							<mediatype>audio</mediatype>
							<parameter>
								<name>Pan</name>
								<parameterid>pan</parameterid>
								<valuemin>-1</valuemin>
								<valuemax>1</valuemax>
								<value>0</value>
							</parameter>
						</effect>
					</filter>
					<sourcetrack>
						<mediatype>audio</mediatype>
						<trackindex>1</trackindex>
					</sourcetrack>
					<link>
						<linkclipref>010_01_03_B</linkclipref>
						<mediatype>video</mediatype>
						<trackindex>1</trackindex>
						<clipindex>6</clipindex>
					</link>
					<link>
						<linkclipref>010_01_03_B2</linkclipref>
						<mediatype>audio</mediatype>
						<trackindex>1</trackindex>
						<clipindex>6</clipindex>
					</link>
					<link>
						<linkclipref>010_01_03_B3</linkclipref>
						<mediatype>audio</mediatype>
						<trackindex>2</trackindex>
						<clipindex>6</clipindex>
					</link>
					<link>
						<linkclipref>010_01_03_B4</linkclipref>
						<mediatype>audio</mediatype>
						<trackindex>3</trackindex>
						<clipindex>6</clipindex>
					</link>
					<itemhistory>
						<uuid>24C71694-6F5A-43A7-BE1D-D27286D5AC6B</uuid>
					</itemhistory>
				</clipitem>
				<clipitem id="010_01_04_A_归诚进OK2">
					<name>010_01_04_A_归诚进OK</name>
					<duration>590</duration>
					<rate>
						<ntsc>FALSE</ntsc>
						<timebase>24</timebase>
					</rate>
					<in>139</in>
					<out>252</out>
					<start>3123</start>
					<end>3236</end>
					<subframeoffset>0</subframeoffset>
					<enabled>TRUE</enabled>
					<masterclipid>010_01_04_A_归诚进OK1</masterclipid>
					<logginginfo>
						<scene/>
						<shottake/>
						<lognote/>
						<good>FALSE</good>
					</logginginfo>
					<labels>
						<label2/>
					</labels>
					<comments>
						<mastercomment1/>
						<mastercomment2/>
						<mastercomment3/>
						<mastercomment4/>
					</comments>
					<file id="A001C022_221211_R03K"/>
					<filter>
						<effect>
							<name>Audio Levels</name>
							<effectid>audiolevels</effectid>
							<effectcategory>audiolevels</effectcategory>
							<effecttype>audiolevels</effecttype>
							<mediatype>audio</mediatype>
							<parameter>
								<name>Level</name>
								<parameterid>level</parameterid>
								<valuemin>0</valuemin>
								<valuemax>3.98109</valuemax>
								<value>1</value>
							</parameter>
						</effect>
					</filter>
					<filter>
						<effect>
							<name>Audio Pan</name>
							<effectid>audiopan</effectid>
							<effectcategory>audiopan</effectcategory>
							<effecttype>audiopan</effecttype>
							<mediatype>audio</mediatype>
							<parameter>
								<name>Pan</name>
								<parameterid>pan</parameterid>
								<valuemin>-1</valuemin>
								<valuemax>1</valuemax>
								<value>0</value>
							</parameter>
						</effect>
					</filter>
					<sourcetrack>
						<mediatype>audio</mediatype>
						<trackindex>1</trackindex>
					</sourcetrack>
					<link>
						<linkclipref>010_01_04_A_归诚进OK</linkclipref>
						<mediatype>video</mediatype>
						<trackindex>1</trackindex>
						<clipindex>7</clipindex>
					</link>
					<link>
						<linkclipref>010_01_04_A_归诚进OK2</linkclipref>
						<mediatype>audio</mediatype>
						<trackindex>1</trackindex>
						<clipindex>7</clipindex>
					</link>
					<link>
						<linkclipref>010_01_04_A_归诚进OK3</linkclipref>
						<mediatype>audio</mediatype>
						<trackindex>2</trackindex>
						<clipindex>7</clipindex>
					</link>
					<link>
						<linkclipref>010_01_04_A_归诚进OK4</linkclipref>
						<mediatype>audio</mediatype>
						<trackindex>3</trackindex>
						<clipindex>7</clipindex>
					</link>
					<itemhistory>
						<uuid>12C23D8B-5994-4782-AC30-062238FDBF5D</uuid>
					</itemhistory>
				</clipitem>
				<clipitem id="010_01_04_B_归诚进OK2">
					<name>010_01_04_B_归诚进OK</name>
					<duration>630</duration>
					<rate>
						<ntsc>FALSE</ntsc>
						<timebase>24</timebase>
					</rate>
					<in>241</in>
					<out>295</out>
					<start>3236</start>
					<end>3290</end>
					<subframeoffset>0</subframeoffset>
					<enabled>TRUE</enabled>
					<masterclipid>010_01_04_B_归诚进OK1</masterclipid>
					<logginginfo>
						<scene/>
						<shottake/>
						<lognote/>
						<good>FALSE</good>
					</logginginfo>
					<labels>
						<label2/>
					</labels>
					<comments>
						<mastercomment1/>
						<mastercomment2/>
						<mastercomment3/>
						<mastercomment4/>
					</comments>
					<file id="B001C009_130101_R1WX"/>
					<filter>
						<effect>
							<name>Audio Levels</name>
							<effectid>audiolevels</effectid>
							<effectcategory>audiolevels</effectcategory>
							<effecttype>audiolevels</effecttype>
							<mediatype>audio</mediatype>
							<parameter>
								<name>Level</name>
								<parameterid>level</parameterid>
								<valuemin>0</valuemin>
								<valuemax>3.98109</valuemax>
								<value>1</value>
							</parameter>
						</effect>
					</filter>
					<filter>
						<effect>
							<name>Audio Pan</name>
							<effectid>audiopan</effectid>
							<effectcategory>audiopan</effectcategory>
							<effecttype>audiopan</effecttype>
							<mediatype>audio</mediatype>
							<parameter>
								<name>Pan</name>
								<parameterid>pan</parameterid>
								<valuemin>-1</valuemin>
								<valuemax>1</valuemax>
								<value>0</value>
							</parameter>
						</effect>
					</filter>
					<sourcetrack>
						<mediatype>audio</mediatype>
						<trackindex>1</trackindex>
					</sourcetrack>
					<link>
						<linkclipref>010_01_04_B_归诚进OK</linkclipref>
						<mediatype>video</mediatype>
						<trackindex>1</trackindex>
						<clipindex>8</clipindex>
					</link>
					<link>
						<linkclipref>010_01_04_B_归诚进OK2</linkclipref>
						<mediatype>audio</mediatype>
						<trackindex>1</trackindex>
						<clipindex>8</clipindex>
					</link>
					<link>
						<linkclipref>010_01_04_B_归诚进OK3</linkclipref>
						<mediatype>audio</mediatype>
						<trackindex>2</trackindex>
						<clipindex>8</clipindex>
					</link>
					<link>
						<linkclipref>010_01_04_B_归诚进OK4</linkclipref>
						<mediatype>audio</mediatype>
						<trackindex>3</trackindex>
						<clipindex>8</clipindex>
					</link>
					<itemhistory>
						<uuid>FBF7C512-F83A-46CC-B00D-5D655D7DDB8D</uuid>
					</itemhistory>
				</clipitem>
				<clipitem id="010_01_05_A_OK2">
					<name>010_01_05_A_OK</name>
					<duration>625</duration>
					<rate>
						<ntsc>FALSE</ntsc>
						<timebase>24</timebase>
					</rate>
					<in>510</in>
					<out>550</out>
					<start>3290</start>
					<end>3330</end>
					<subframeoffset>0</subframeoffset>
					<enabled>TRUE</enabled>
					<masterclipid>010_01_05_A_OK1</masterclipid>
					<logginginfo>
						<scene/>
						<shottake/>
						<lognote/>
						<good>FALSE</good>
					</logginginfo>
					<labels>
						<label2/>
					</labels>
					<comments>
						<mastercomment1/>
						<mastercomment2/>
						<mastercomment3/>
						<mastercomment4/>
					</comments>
					<file id="A001C023_221211_R03K"/>
					<filter>
						<effect>
							<name>Audio Levels</name>
							<effectid>audiolevels</effectid>
							<effectcategory>audiolevels</effectcategory>
							<effecttype>audiolevels</effecttype>
							<mediatype>audio</mediatype>
							<parameter>
								<name>Level</name>
								<parameterid>level</parameterid>
								<valuemin>0</valuemin>
								<valuemax>3.98109</valuemax>
								<value>1</value>
							</parameter>
						</effect>
					</filter>
					<filter>
						<effect>
							<name>Audio Pan</name>
							<effectid>audiopan</effectid>
							<effectcategory>audiopan</effectcategory>
							<effecttype>audiopan</effecttype>
							<mediatype>audio</mediatype>
							<parameter>
								<name>Pan</name>
								<parameterid>pan</parameterid>
								<valuemin>-1</valuemin>
								<valuemax>1</valuemax>
								<value>0</value>
							</parameter>
						</effect>
					</filter>
					<sourcetrack>
						<mediatype>audio</mediatype>
						<trackindex>1</trackindex>
					</sourcetrack>
					<link>
						<linkclipref>010_01_05_A_OK</linkclipref>
						<mediatype>video</mediatype>
						<trackindex>1</trackindex>
						<clipindex>9</clipindex>
					</link>
					<link>
						<linkclipref>010_01_05_A_OK2</linkclipref>
						<mediatype>audio</mediatype>
						<trackindex>1</trackindex>
						<clipindex>9</clipindex>
					</link>
					<link>
						<linkclipref>010_01_05_A_OK3</linkclipref>
						<mediatype>audio</mediatype>
						<trackindex>2</trackindex>
						<clipindex>9</clipindex>
					</link>
					<link>
						<linkclipref>010_01_05_A_OK4</linkclipref>
						<mediatype>audio</mediatype>
						<trackindex>3</trackindex>
						<clipindex>9</clipindex>
					</link>
					<itemhistory>
						<uuid>D4B3A042-36A4-4E3C-9828-94C814786F67</uuid>
					</itemhistory>
				</clipitem>
				<clipitem id="010_01_05_B_OK2">
					<name>010_01_05_B_OK</name>
					<duration>658</duration>
					<rate>
						<ntsc>FALSE</ntsc>
						<timebase>24</timebase>
					</rate>
					<in>502</in>
					<out>553</out>
					<start>3330</start>
					<end>3381</end>
					<subframeoffset>0</subframeoffset>
					<enabled>TRUE</enabled>
					<masterclipid>010_01_05_B_OK1</masterclipid>
					<logginginfo>
						<scene/>
						<shottake/>
						<lognote/>
						<good>FALSE</good>
					</logginginfo>
					<labels>
						<label2/>
					</labels>
					<comments>
						<mastercomment1/>
						<mastercomment2/>
						<mastercomment3/>
						<mastercomment4/>
					</comments>
					<file id="B001C010_130101_R1WX"/>
					<filter>
						<effect>
							<name>Audio Levels</name>
							<effectid>audiolevels</effectid>
							<effectcategory>audiolevels</effectcategory>
							<effecttype>audiolevels</effecttype>
							<mediatype>audio</mediatype>
							<parameter>
								<name>Level</name>
								<parameterid>level</parameterid>
								<valuemin>0</valuemin>
								<valuemax>3.98109</valuemax>
								<value>1</value>
							</parameter>
						</effect>
					</filter>
					<filter>
						<effect>
							<name>Audio Pan</name>
							<effectid>audiopan</effectid>
							<effectcategory>audiopan</effectcategory>
							<effecttype>audiopan</effecttype>
							<mediatype>audio</mediatype>
							<parameter>
								<name>Pan</name>
								<parameterid>pan</parameterid>
								<valuemin>-1</valuemin>
								<valuemax>1</valuemax>
								<value>0</value>
							</parameter>
						</effect>
					</filter>
					<sourcetrack>
						<mediatype>audio</mediatype>
						<trackindex>1</trackindex>
					</sourcetrack>
					<link>
						<linkclipref>010_01_05_B_OK</linkclipref>
						<mediatype>video</mediatype>
						<trackindex>1</trackindex>
						<clipindex>10</clipindex>
					</link>
					<link>
						<linkclipref>010_01_05_B_OK2</linkclipref>
						<mediatype>audio</mediatype>
						<trackindex>1</trackindex>
						<clipindex>10</clipindex>
					</link>
					<link>
						<linkclipref>010_01_05_B_OK3</linkclipref>
						<mediatype>audio</mediatype>
						<trackindex>2</trackindex>
						<clipindex>10</clipindex>
					</link>
					<link>
						<linkclipref>010_01_05_B_OK4</linkclipref>
						<mediatype>audio</mediatype>
						<trackindex>3</trackindex>
						<clipindex>10</clipindex>
					</link>
					<itemhistory>
						<uuid>65E3B1FF-8816-467D-8CFB-679900F5BD06</uuid>
					</itemhistory>
				</clipitem>
				<clipitem id="010_02_01_A2">
					<name>010_02_01_A</name>
					<duration>488</duration>
					<rate>
						<ntsc>FALSE</ntsc>
						<timebase>24</timebase>
					</rate>
					<in>0</in>
					<out>488</out>
					<start>3381</start>
					<end>3869</end>
					<subframeoffset>0</subframeoffset>
					<enabled>TRUE</enabled>
					<masterclipid>010_02_01_A1</masterclipid>
					<logginginfo>
						<scene/>
						<shottake/>
						<lognote/>
						<good>FALSE</good>
					</logginginfo>
					<labels>
						<label2/>
					</labels>
					<comments>
						<mastercomment1/>
						<mastercomment2/>
						<mastercomment3/>
						<mastercomment4/>
					</comments>
					<file id="A001C024_221211_R03K"/>
					<filter>
						<effect>
							<name>Audio Levels</name>
							<effectid>audiolevels</effectid>
							<effectcategory>audiolevels</effectcategory>
							<effecttype>audiolevels</effecttype>
							<mediatype>audio</mediatype>
							<parameter>
								<name>Level</name>
								<parameterid>level</parameterid>
								<valuemin>0</valuemin>
								<valuemax>3.98109</valuemax>
								<value>1</value>
							</parameter>
						</effect>
					</filter>
					<filter>
						<effect>
							<name>Audio Pan</name>
							<effectid>audiopan</effectid>
							<effectcategory>audiopan</effectcategory>
							<effecttype>audiopan</effecttype>
							<mediatype>audio</mediatype>
							<parameter>
								<name>Pan</name>
								<parameterid>pan</parameterid>
								<valuemin>-1</valuemin>
								<valuemax>1</valuemax>
								<value>0</value>
							</parameter>
						</effect>
					</filter>
					<sourcetrack>
						<mediatype>audio</mediatype>
						<trackindex>1</trackindex>
					</sourcetrack>
					<link>
						<linkclipref>010_02_01_A</linkclipref>
						<mediatype>video</mediatype>
						<trackindex>1</trackindex>
						<clipindex>11</clipindex>
					</link>
					<link>
						<linkclipref>010_02_01_A2</linkclipref>
						<mediatype>audio</mediatype>
						<trackindex>1</trackindex>
						<clipindex>11</clipindex>
					</link>
					<link>
						<linkclipref>010_02_01_A3</linkclipref>
						<mediatype>audio</mediatype>
						<trackindex>2</trackindex>
						<clipindex>11</clipindex>
					</link>
					<link>
						<linkclipref>010_02_01_A4</linkclipref>
						<mediatype>audio</mediatype>
						<trackindex>3</trackindex>
						<clipindex>11</clipindex>
					</link>
					<link>
						<linkclipref>010_02_01_A5</linkclipref>
						<mediatype>audio</mediatype>
						<trackindex>4</trackindex>
						<clipindex>5</clipindex>
					</link>
					<itemhistory>
						<uuid>59D20FBF-D8BF-488E-A322-A4417B912F84</uuid>
					</itemhistory>
				</clipitem>
				<clipitem id="010_02_02_A_OK2">
					<name>010_02_02_A_OK</name>
					<duration>459</duration>
					<rate>
						<ntsc>FALSE</ntsc>
						<timebase>24</timebase>
					</rate>
					<in>173</in>
					<out>251</out>
					<start>3869</start>
					<end>3947</end>
					<subframeoffset>0</subframeoffset>
					<enabled>TRUE</enabled>
					<masterclipid>010_02_02_A_OK1</masterclipid>
					<logginginfo>
						<scene/>
						<shottake/>
						<lognote/>
						<good>FALSE</good>
					</logginginfo>
					<labels>
						<label2/>
					</labels>
					<comments>
						<mastercomment1/>
						<mastercomment2/>
						<mastercomment3/>
						<mastercomment4/>
					</comments>
					<file id="A001C025_221211_R03K"/>
					<filter>
						<effect>
							<name>Audio Levels</name>
							<effectid>audiolevels</effectid>
							<effectcategory>audiolevels</effectcategory>
							<effecttype>audiolevels</effecttype>
							<mediatype>audio</mediatype>
							<parameter>
								<name>Level</name>
								<parameterid>level</parameterid>
								<valuemin>0</valuemin>
								<valuemax>3.98109</valuemax>
								<value>1</value>
							</parameter>
						</effect>
					</filter>
					<filter>
						<effect>
							<name>Audio Pan</name>
							<effectid>audiopan</effectid>
							<effectcategory>audiopan</effectcategory>
							<effecttype>audiopan</effecttype>
							<mediatype>audio</mediatype>
							<parameter>
								<name>Pan</name>
								<parameterid>pan</parameterid>
								<valuemin>-1</valuemin>
								<valuemax>1</valuemax>
								<value>0</value>
							</parameter>
						</effect>
					</filter>
					<sourcetrack>
						<mediatype>audio</mediatype>
						<trackindex>1</trackindex>
					</sourcetrack>
					<link>
						<linkclipref>010_02_02_A_OK</linkclipref>
						<mediatype>video</mediatype>
						<trackindex>1</trackindex>
						<clipindex>12</clipindex>
					</link>
					<link>
						<linkclipref>010_02_02_A_OK2</linkclipref>
						<mediatype>audio</mediatype>
						<trackindex>1</trackindex>
						<clipindex>12</clipindex>
					</link>
					<link>
						<linkclipref>010_02_02_A_OK3</linkclipref>
						<mediatype>audio</mediatype>
						<trackindex>2</trackindex>
						<clipindex>12</clipindex>
					</link>
					<link>
						<linkclipref>010_02_02_A_OK4</linkclipref>
						<mediatype>audio</mediatype>
						<trackindex>3</trackindex>
						<clipindex>12</clipindex>
					</link>
					<link>
						<linkclipref>010_02_02_A_OK5</linkclipref>
						<mediatype>audio</mediatype>
						<trackindex>4</trackindex>
						<clipindex>6</clipindex>
					</link>
					<itemhistory>
						<uuid>84295109-6867-46D7-904D-6538384F6968</uuid>
					</itemhistory>
				</clipitem>
				<clipitem id="010_03_01_B2">
					<name>010_03_01_B</name>
					<duration>443</duration>
					<rate>
						<ntsc>FALSE</ntsc>
						<timebase>24</timebase>
					</rate>
					<in>0</in>
					<out>443</out>
					<start>3947</start>
					<end>4390</end>
					<subframeoffset>0</subframeoffset>
					<enabled>TRUE</enabled>
					<masterclipid>010_03_01_B1</masterclipid>
					<logginginfo>
						<scene/>
						<shottake/>
						<lognote/>
						<good>FALSE</good>
					</logginginfo>
					<labels>
						<label2/>
					</labels>
					<comments>
						<mastercomment1/>
						<mastercomment2/>
						<mastercomment3/>
						<mastercomment4/>
					</comments>
					<file id="B001C011_130101_R1WX"/>
					<filter>
						<effect>
							<name>Audio Levels</name>
							<effectid>audiolevels</effectid>
							<effectcategory>audiolevels</effectcategory>
							<effecttype>audiolevels</effecttype>
							<mediatype>audio</mediatype>
							<parameter>
								<name>Level</name>
								<parameterid>level</parameterid>
								<valuemin>0</valuemin>
								<valuemax>3.98109</valuemax>
								<value>1</value>
							</parameter>
						</effect>
					</filter>
					<filter>
						<effect>
							<name>Audio Pan</name>
							<effectid>audiopan</effectid>
							<effectcategory>audiopan</effectcategory>
							<effecttype>audiopan</effecttype>
							<mediatype>audio</mediatype>
							<parameter>
								<name>Pan</name>
								<parameterid>pan</parameterid>
								<valuemin>-1</valuemin>
								<valuemax>1</valuemax>
								<value>0</value>
							</parameter>
						</effect>
					</filter>
					<sourcetrack>
						<mediatype>audio</mediatype>
						<trackindex>1</trackindex>
					</sourcetrack>
					<link>
						<linkclipref>010_03_01_B</linkclipref>
						<mediatype>video</mediatype>
						<trackindex>1</trackindex>
						<clipindex>13</clipindex>
					</link>
					<link>
						<linkclipref>010_03_01_B2</linkclipref>
						<mediatype>audio</mediatype>
						<trackindex>1</trackindex>
						<clipindex>13</clipindex>
					</link>
					<link>
						<linkclipref>010_03_01_B3</linkclipref>
						<mediatype>audio</mediatype>
						<trackindex>2</trackindex>
						<clipindex>13</clipindex>
					</link>
					<link>
						<linkclipref>010_03_01_B4</linkclipref>
						<mediatype>audio</mediatype>
						<trackindex>3</trackindex>
						<clipindex>13</clipindex>
					</link>
					<itemhistory>
						<uuid>2463E00C-93BD-45F0-86E9-9606733B0B71</uuid>
					</itemhistory>
				</clipitem>
				<clipitem id="010_03_02_B_KP2">
					<name>010_03_02_B_KP</name>
					<duration>412</duration>
					<rate>
						<ntsc>FALSE</ntsc>
						<timebase>24</timebase>
					</rate>
					<in>0</in>
					<out>412</out>
					<start>4390</start>
					<end>4802</end>
					<subframeoffset>0</subframeoffset>
					<enabled>TRUE</enabled>
					<masterclipid>010_03_02_B_KP1</masterclipid>
					<logginginfo>
						<scene/>
						<shottake/>
						<lognote/>
						<good>FALSE</good>
					</logginginfo>
					<labels>
						<label2/>
					</labels>
					<comments>
						<mastercomment1/>
						<mastercomment2/>
						<mastercomment3/>
						<mastercomment4/>
					</comments>
					<file id="B001C012_130101_R1WX"/>
					<filter>
						<effect>
							<name>Audio Levels</name>
							<effectid>audiolevels</effectid>
							<effectcategory>audiolevels</effectcategory>
							<effecttype>audiolevels</effecttype>
							<mediatype>audio</mediatype>
							<parameter>
								<name>Level</name>
								<parameterid>level</parameterid>
								<valuemin>0</valuemin>
								<valuemax>3.98109</valuemax>
								<value>1</value>
							</parameter>
						</effect>
					</filter>
					<filter>
						<effect>
							<name>Audio Pan</name>
							<effectid>audiopan</effectid>
							<effectcategory>audiopan</effectcategory>
							<effecttype>audiopan</effecttype>
							<mediatype>audio</mediatype>
							<parameter>
								<name>Pan</name>
								<parameterid>pan</parameterid>
								<valuemin>-1</valuemin>
								<valuemax>1</valuemax>
								<value>0</value>
							</parameter>
						</effect>
					</filter>
					<sourcetrack>
						<mediatype>audio</mediatype>
						<trackindex>1</trackindex>
					</sourcetrack>
					<link>
						<linkclipref>010_03_02_B_KP</linkclipref>
						<mediatype>video</mediatype>
						<trackindex>1</trackindex>
						<clipindex>14</clipindex>
					</link>
					<link>
						<linkclipref>010_03_02_B_KP2</linkclipref>
						<mediatype>audio</mediatype>
						<trackindex>1</trackindex>
						<clipindex>14</clipindex>
					</link>
					<link>
						<linkclipref>010_03_02_B_KP3</linkclipref>
						<mediatype>audio</mediatype>
						<trackindex>2</trackindex>
						<clipindex>14</clipindex>
					</link>
					<link>
						<linkclipref>010_03_02_B_KP4</linkclipref>
						<mediatype>audio</mediatype>
						<trackindex>3</trackindex>
						<clipindex>14</clipindex>
					</link>
					<itemhistory>
						<uuid>70216D4D-BAF8-4892-9A5A-0FF64AD2C578</uuid>
					</itemhistory>
				</clipitem>
				<clipitem id="010_03_03_B_KP2">
					<name>010_03_03_B_KP</name>
					<duration>397</duration>
					<rate>
						<ntsc>FALSE</ntsc>
						<timebase>24</timebase>
					</rate>
					<in>0</in>
					<out>397</out>
					<start>4802</start>
					<end>5199</end>
					<subframeoffset>0</subframeoffset>
					<enabled>TRUE</enabled>
					<masterclipid>010_03_03_B_KP1</masterclipid>
					<logginginfo>
						<scene/>
						<shottake/>
						<lognote/>
						<good>FALSE</good>
					</logginginfo>
					<labels>
						<label2/>
					</labels>
					<comments>
						<mastercomment1/>
						<mastercomment2/>
						<mastercomment3/>
						<mastercomment4/>
					</comments>
					<file id="B001C013_130101_R1WX"/>
					<filter>
						<effect>
							<name>Audio Levels</name>
							<effectid>audiolevels</effectid>
							<effectcategory>audiolevels</effectcategory>
							<effecttype>audiolevels</effecttype>
							<mediatype>audio</mediatype>
							<parameter>
								<name>Level</name>
								<parameterid>level</parameterid>
								<valuemin>0</valuemin>
								<valuemax>3.98109</valuemax>
								<value>1</value>
							</parameter>
						</effect>
					</filter>
					<filter>
						<effect>
							<name>Audio Pan</name>
							<effectid>audiopan</effectid>
							<effectcategory>audiopan</effectcategory>
							<effecttype>audiopan</effecttype>
							<mediatype>audio</mediatype>
							<parameter>
								<name>Pan</name>
								<parameterid>pan</parameterid>
								<valuemin>-1</valuemin>
								<valuemax>1</valuemax>
								<value>0</value>
							</parameter>
						</effect>
					</filter>
					<sourcetrack>
						<mediatype>audio</mediatype>
						<trackindex>1</trackindex>
					</sourcetrack>
					<link>
						<linkclipref>010_03_03_B_KP</linkclipref>
						<mediatype>video</mediatype>
						<trackindex>1</trackindex>
						<clipindex>15</clipindex>
					</link>
					<link>
						<linkclipref>010_03_03_B_KP2</linkclipref>
						<mediatype>audio</mediatype>
						<trackindex>1</trackindex>
						<clipindex>15</clipindex>
					</link>
					<link>
						<linkclipref>010_03_03_B_KP3</linkclipref>
						<mediatype>audio</mediatype>
						<trackindex>2</trackindex>
						<clipindex>15</clipindex>
					</link>
					<link>
						<linkclipref>010_03_03_B_KP4</linkclipref>
						<mediatype>audio</mediatype>
						<trackindex>3</trackindex>
						<clipindex>15</clipindex>
					</link>
					<itemhistory>
						<uuid>39E6D348-5169-4F44-841F-8FF13C77FACB</uuid>
					</itemhistory>
				</clipitem>
				<clipitem id="010_03_04_B_KP2">
					<name>010_03_04_B_KP</name>
					<duration>442</duration>
					<rate>
						<ntsc>FALSE</ntsc>
						<timebase>24</timebase>
					</rate>
					<in>172</in>
					<out>210</out>
					<start>5199</start>
					<end>5237</end>
					<subframeoffset>0</subframeoffset>
					<enabled>TRUE</enabled>
					<masterclipid>010_03_04_B_KP1</masterclipid>
					<logginginfo>
						<scene/>
						<shottake/>
						<lognote/>
						<good>FALSE</good>
					</logginginfo>
					<labels>
						<label2/>
					</labels>
					<comments>
						<mastercomment1/>
						<mastercomment2/>
						<mastercomment3/>
						<mastercomment4/>
					</comments>
					<file id="B001C014_130101_R1WX"/>
					<filter>
						<effect>
							<name>Audio Levels</name>
							<effectid>audiolevels</effectid>
							<effectcategory>audiolevels</effectcategory>
							<effecttype>audiolevels</effecttype>
							<mediatype>audio</mediatype>
							<parameter>
								<name>Level</name>
								<parameterid>level</parameterid>
								<valuemin>0</valuemin>
								<valuemax>3.98109</valuemax>
								<value>1</value>
							</parameter>
						</effect>
					</filter>
					<filter>
						<effect>
							<name>Audio Pan</name>
							<effectid>audiopan</effectid>
							<effectcategory>audiopan</effectcategory>
							<effecttype>audiopan</effecttype>
							<mediatype>audio</mediatype>
							<parameter>
								<name>Pan</name>
								<parameterid>pan</parameterid>
								<valuemin>-1</valuemin>
								<valuemax>1</valuemax>
								<value>0</value>
							</parameter>
						</effect>
					</filter>
					<sourcetrack>
						<mediatype>audio</mediatype>
						<trackindex>1</trackindex>
					</sourcetrack>
					<link>
						<linkclipref>010_03_04_B_KP</linkclipref>
						<mediatype>video</mediatype>
						<trackindex>1</trackindex>
						<clipindex>16</clipindex>
					</link>
					<link>
						<linkclipref>010_03_04_B_KP2</linkclipref>
						<mediatype>audio</mediatype>
						<trackindex>1</trackindex>
						<clipindex>16</clipindex>
					</link>
					<link>
						<linkclipref>010_03_04_B_KP3</linkclipref>
						<mediatype>audio</mediatype>
						<trackindex>2</trackindex>
						<clipindex>16</clipindex>
					</link>
					<link>
						<linkclipref>010_03_04_B_KP4</linkclipref>
						<mediatype>audio</mediatype>
						<trackindex>3</trackindex>
						<clipindex>16</clipindex>
					</link>
					<itemhistory>
						<uuid>DFFEC39A-6335-411C-87E0-CC9BD3E970D6</uuid>
					</itemhistory>
				</clipitem>
				<clipitem id="010_04_01_B2">
					<name>010_04_01_B</name>
					<duration>271</duration>
					<rate>
						<ntsc>FALSE</ntsc>
						<timebase>24</timebase>
					</rate>
					<in>0</in>
					<out>271</out>
					<start>5237</start>
					<end>5508</end>
					<subframeoffset>0</subframeoffset>
					<enabled>TRUE</enabled>
					<masterclipid>010_04_01_B1</masterclipid>
					<logginginfo>
						<scene/>
						<shottake/>
						<lognote/>
						<good>FALSE</good>
					</logginginfo>
					<labels>
						<label2/>
					</labels>
					<comments>
						<mastercomment1/>
						<mastercomment2/>
						<mastercomment3/>
						<mastercomment4/>
					</comments>
					<file id="B001C015_130101_R1WX"/>
					<filter>
						<effect>
							<name>Audio Levels</name>
							<effectid>audiolevels</effectid>
							<effectcategory>audiolevels</effectcategory>
							<effecttype>audiolevels</effecttype>
							<mediatype>audio</mediatype>
							<parameter>
								<name>Level</name>
								<parameterid>level</parameterid>
								<valuemin>0</valuemin>
								<valuemax>3.98109</valuemax>
								<value>1</value>
							</parameter>
						</effect>
					</filter>
					<filter>
						<effect>
							<name>Audio Pan</name>
							<effectid>audiopan</effectid>
							<effectcategory>audiopan</effectcategory>
							<effecttype>audiopan</effecttype>
							<mediatype>audio</mediatype>
							<parameter>
								<name>Pan</name>
								<parameterid>pan</parameterid>
								<valuemin>-1</valuemin>
								<valuemax>1</valuemax>
								<value>-1</value>
							</parameter>
						</effect>
					</filter>
					<sourcetrack>
						<mediatype>audio</mediatype>
						<trackindex>1</trackindex>
					</sourcetrack>
					<link>
						<linkclipref>010_04_01_B</linkclipref>
						<mediatype>video</mediatype>
						<trackindex>1</trackindex>
						<clipindex>17</clipindex>
					</link>
					<link>
						<linkclipref>010_04_01_B2</linkclipref>
						<mediatype>audio</mediatype>
						<trackindex>1</trackindex>
						<clipindex>17</clipindex>
						<groupindex>1</groupindex>
					</link>
					<link>
						<linkclipref>010_04_01_B3</linkclipref>
						<mediatype>audio</mediatype>
						<trackindex>2</trackindex>
						<clipindex>17</clipindex>
						<groupindex>1</groupindex>
					</link>
					<itemhistory>
						<uuid>9AB2070E-E1A5-489D-B830-D8FE9752B5C4</uuid>
					</itemhistory>
				</clipitem>
				<clipitem id="010_04_02_B_OK2">
					<name>010_04_02_B_OK</name>
					<duration>296</duration>
					<rate>
						<ntsc>FALSE</ntsc>
						<timebase>24</timebase>
					</rate>
					<in>89</in>
					<out>159</out>
					<start>5508</start>
					<end>5578</end>
					<subframeoffset>0</subframeoffset>
					<enabled>TRUE</enabled>
					<masterclipid>010_04_02_B_OK1</masterclipid>
					<logginginfo>
						<scene/>
						<shottake/>
						<lognote/>
						<good>FALSE</good>
					</logginginfo>
					<labels>
						<label2/>
					</labels>
					<comments>
						<mastercomment1/>
						<mastercomment2/>
						<mastercomment3/>
						<mastercomment4/>
					</comments>
					<file id="B001C016_130101_R1WX"/>
					<filter>
						<effect>
							<name>Audio Levels</name>
							<effectid>audiolevels</effectid>
							<effectcategory>audiolevels</effectcategory>
							<effecttype>audiolevels</effecttype>
							<mediatype>audio</mediatype>
							<parameter>
								<name>Level</name>
								<parameterid>level</parameterid>
								<valuemin>0</valuemin>
								<valuemax>3.98109</valuemax>
								<value>1</value>
							</parameter>
						</effect>
					</filter>
					<filter>
						<effect>
							<name>Audio Pan</name>
							<effectid>audiopan</effectid>
							<effectcategory>audiopan</effectcategory>
							<effecttype>audiopan</effecttype>
							<mediatype>audio</mediatype>
							<parameter>
								<name>Pan</name>
								<parameterid>pan</parameterid>
								<valuemin>-1</valuemin>
								<valuemax>1</valuemax>
								<value>-1</value>
							</parameter>
						</effect>
					</filter>
					<sourcetrack>
						<mediatype>audio</mediatype>
						<trackindex>1</trackindex>
					</sourcetrack>
					<link>
						<linkclipref>010_04_02_B_OK</linkclipref>
						<mediatype>video</mediatype>
						<trackindex>1</trackindex>
						<clipindex>18</clipindex>
					</link>
					<link>
						<linkclipref>010_04_02_B_OK2</linkclipref>
						<mediatype>audio</mediatype>
						<trackindex>1</trackindex>
						<clipindex>18</clipindex>
						<groupindex>1</groupindex>
					</link>
					<link>
						<linkclipref>010_04_02_B_OK3</linkclipref>
						<mediatype>audio</mediatype>
						<trackindex>2</trackindex>
						<clipindex>18</clipindex>
						<groupindex>1</groupindex>
					</link>
					<itemhistory>
						<uuid>F9AE07D7-B23A-4EAA-AF20-6B75B50D0459</uuid>
					</itemhistory>
				</clipitem>
				<clipitem id="010_05_01_A2">
					<name>010_05_01_A</name>
					<duration>1054</duration>
					<rate>
						<ntsc>FALSE</ntsc>
						<timebase>24</timebase>
					</rate>
					<in>0</in>
					<out>1054</out>
					<start>5578</start>
					<end>6632</end>
					<subframeoffset>0</subframeoffset>
					<enabled>TRUE</enabled>
					<masterclipid>010_05_01_A1</masterclipid>
					<logginginfo>
						<scene/>
						<shottake/>
						<lognote/>
						<good>FALSE</good>
					</logginginfo>
					<labels>
						<label2/>
					</labels>
					<comments>
						<mastercomment1/>
						<mastercomment2/>
						<mastercomment3/>
						<mastercomment4/>
					</comments>
					<file id="A001C026_221211_R03K"/>
					<filter>
						<effect>
							<name>Audio Levels</name>
							<effectid>audiolevels</effectid>
							<effectcategory>audiolevels</effectcategory>
							<effecttype>audiolevels</effecttype>
							<mediatype>audio</mediatype>
							<parameter>
								<name>Level</name>
								<parameterid>level</parameterid>
								<valuemin>0</valuemin>
								<valuemax>3.98109</valuemax>
								<value>1</value>
							</parameter>
						</effect>
					</filter>
					<filter>
						<effect>
							<name>Audio Pan</name>
							<effectid>audiopan</effectid>
							<effectcategory>audiopan</effectcategory>
							<effecttype>audiopan</effecttype>
							<mediatype>audio</mediatype>
							<parameter>
								<name>Pan</name>
								<parameterid>pan</parameterid>
								<valuemin>-1</valuemin>
								<valuemax>1</valuemax>
								<value>0</value>
							</parameter>
						</effect>
					</filter>
					<sourcetrack>
						<mediatype>audio</mediatype>
						<trackindex>1</trackindex>
					</sourcetrack>
					<link>
						<linkclipref>010_05_01_A</linkclipref>
						<mediatype>video</mediatype>
						<trackindex>1</trackindex>
						<clipindex>19</clipindex>
					</link>
					<link>
						<linkclipref>010_05_01_A2</linkclipref>
						<mediatype>audio</mediatype>
						<trackindex>1</trackindex>
						<clipindex>19</clipindex>
					</link>
					<link>
						<linkclipref>010_05_01_A3</linkclipref>
						<mediatype>audio</mediatype>
						<trackindex>2</trackindex>
						<clipindex>19</clipindex>
					</link>
					<link>
						<linkclipref>010_05_01_A4</linkclipref>
						<mediatype>audio</mediatype>
						<trackindex>3</trackindex>
						<clipindex>17</clipindex>
					</link>
					<link>
						<linkclipref>010_05_01_A5</linkclipref>
						<mediatype>audio</mediatype>
						<trackindex>4</trackindex>
						<clipindex>7</clipindex>
					</link>
					<itemhistory>
						<uuid>654FF0B9-BC48-45AF-8D17-9CA75504BAFE</uuid>
					</itemhistory>
				</clipitem>
				<clipitem id="010_05_01_B2">
					<name>010_05_01_B</name>
					<duration>1017</duration>
					<rate>
						<ntsc>FALSE</ntsc>
						<timebase>24</timebase>
					</rate>
					<in>0</in>
					<out>1017</out>
					<start>6632</start>
					<end>7649</end>
					<subframeoffset>0</subframeoffset>
					<enabled>TRUE</enabled>
					<masterclipid>010_05_01_B1</masterclipid>
					<logginginfo>
						<scene/>
						<shottake/>
						<lognote/>
						<good>FALSE</good>
					</logginginfo>
					<labels>
						<label2/>
					</labels>
					<comments>
						<mastercomment1/>
						<mastercomment2/>
						<mastercomment3/>
						<mastercomment4/>
					</comments>
					<file id="B001C017_130101_R1WX"/>
					<filter>
						<effect>
							<name>Audio Levels</name>
							<effectid>audiolevels</effectid>
							<effectcategory>audiolevels</effectcategory>
							<effecttype>audiolevels</effecttype>
							<mediatype>audio</mediatype>
							<parameter>
								<name>Level</name>
								<parameterid>level</parameterid>
								<valuemin>0</valuemin>
								<valuemax>3.98109</valuemax>
								<value>1</value>
							</parameter>
						</effect>
					</filter>
					<filter>
						<effect>
							<name>Audio Pan</name>
							<effectid>audiopan</effectid>
							<effectcategory>audiopan</effectcategory>
							<effecttype>audiopan</effecttype>
							<mediatype>audio</mediatype>
							<parameter>
								<name>Pan</name>
								<parameterid>pan</parameterid>
								<valuemin>-1</valuemin>
								<valuemax>1</valuemax>
								<value>0</value>
							</parameter>
						</effect>
					</filter>
					<sourcetrack>
						<mediatype>audio</mediatype>
						<trackindex>1</trackindex>
					</sourcetrack>
					<link>
						<linkclipref>010_05_01_B</linkclipref>
						<mediatype>video</mediatype>
						<trackindex>1</trackindex>
						<clipindex>20</clipindex>
					</link>
					<link>
						<linkclipref>010_05_01_B2</linkclipref>
						<mediatype>audio</mediatype>
						<trackindex>1</trackindex>
						<clipindex>20</clipindex>
					</link>
					<link>
						<linkclipref>010_05_01_B3</linkclipref>
						<mediatype>audio</mediatype>
						<trackindex>2</trackindex>
						<clipindex>20</clipindex>
					</link>
					<link>
						<linkclipref>010_05_01_B4</linkclipref>
						<mediatype>audio</mediatype>
						<trackindex>3</trackindex>
						<clipindex>18</clipindex>
					</link>
					<link>
						<linkclipref>010_05_01_B5</linkclipref>
						<mediatype>audio</mediatype>
						<trackindex>4</trackindex>
						<clipindex>8</clipindex>
					</link>
					<itemhistory>
						<uuid>F4BB9168-8375-4C38-A68E-8A1F0A88AA3F</uuid>
					</itemhistory>
				</clipitem>
				<clipitem id="010_05_02_A2">
					<name>010_05_02_A</name>
					<duration>949</duration>
					<rate>
						<ntsc>FALSE</ntsc>
						<timebase>24</timebase>
					</rate>
					<in>0</in>
					<out>949</out>
					<start>7649</start>
					<end>8598</end>
					<subframeoffset>0</subframeoffset>
					<enabled>TRUE</enabled>
					<masterclipid>010_05_02_A1</masterclipid>
					<logginginfo>
						<scene/>
						<shottake/>
						<lognote/>
						<good>FALSE</good>
					</logginginfo>
					<labels>
						<label2/>
					</labels>
					<comments>
						<mastercomment1/>
						<mastercomment2/>
						<mastercomment3/>
						<mastercomment4/>
					</comments>
					<file id="A001C027_221211_R03K"/>
					<filter>
						<effect>
							<name>Audio Levels</name>
							<effectid>audiolevels</effectid>
							<effectcategory>audiolevels</effectcategory>
							<effecttype>audiolevels</effecttype>
							<mediatype>audio</mediatype>
							<parameter>
								<name>Level</name>
								<parameterid>level</parameterid>
								<valuemin>0</valuemin>
								<valuemax>3.98109</valuemax>
								<value>1</value>
							</parameter>
						</effect>
					</filter>
					<filter>
						<effect>
							<name>Audio Pan</name>
							<effectid>audiopan</effectid>
							<effectcategory>audiopan</effectcategory>
							<effecttype>audiopan</effecttype>
							<mediatype>audio</mediatype>
							<parameter>
								<name>Pan</name>
								<parameterid>pan</parameterid>
								<valuemin>-1</valuemin>
								<valuemax>1</valuemax>
								<value>0</value>
							</parameter>
						</effect>
					</filter>
					<sourcetrack>
						<mediatype>audio</mediatype>
						<trackindex>1</trackindex>
					</sourcetrack>
					<link>
						<linkclipref>010_05_02_A</linkclipref>
						<mediatype>video</mediatype>
						<trackindex>1</trackindex>
						<clipindex>21</clipindex>
					</link>
					<link>
						<linkclipref>010_05_02_A2</linkclipref>
						<mediatype>audio</mediatype>
						<trackindex>1</trackindex>
						<clipindex>21</clipindex>
					</link>
					<link>
						<linkclipref>010_05_02_A3</linkclipref>
						<mediatype>audio</mediatype>
						<trackindex>2</trackindex>
						<clipindex>21</clipindex>
					</link>
					<link>
						<linkclipref>010_05_02_A4</linkclipref>
						<mediatype>audio</mediatype>
						<trackindex>3</trackindex>
						<clipindex>19</clipindex>
					</link>
					<link>
						<linkclipref>010_05_02_A5</linkclipref>
						<mediatype>audio</mediatype>
						<trackindex>4</trackindex>
						<clipindex>9</clipindex>
					</link>
					<itemhistory>
						<uuid>2B4463A0-10A1-4FE0-A6EA-6948983598A8</uuid>
					</itemhistory>
				</clipitem>
				<clipitem id="010_05_02_B2">
					<name>010_05_02_B</name>
					<duration>954</duration>
					<rate>
						<ntsc>FALSE</ntsc>
						<timebase>24</timebase>
					</rate>
					<in>0</in>
					<out>954</out>
					<start>8598</start>
					<end>9552</end>
					<subframeoffset>0</subframeoffset>
					<enabled>TRUE</enabled>
					<masterclipid>010_05_02_B1</masterclipid>
					<logginginfo>
						<scene/>
						<shottake/>
						<lognote/>
						<good>FALSE</good>
					</logginginfo>
					<labels>
						<label2/>
					</labels>
					<comments>
						<mastercomment1/>
						<mastercomment2/>
						<mastercomment3/>
						<mastercomment4/>
					</comments>
					<file id="B001C018_130101_R1WX"/>
					<filter>
						<effect>
							<name>Audio Levels</name>
							<effectid>audiolevels</effectid>
							<effectcategory>audiolevels</effectcategory>
							<effecttype>audiolevels</effecttype>
							<mediatype>audio</mediatype>
							<parameter>
								<name>Level</name>
								<parameterid>level</parameterid>
								<valuemin>0</valuemin>
								<valuemax>3.98109</valuemax>
								<value>1</value>
							</parameter>
						</effect>
					</filter>
					<filter>
						<effect>
							<name>Audio Pan</name>
							<effectid>audiopan</effectid>
							<effectcategory>audiopan</effectcategory>
							<effecttype>audiopan</effecttype>
							<mediatype>audio</mediatype>
							<parameter>
								<name>Pan</name>
								<parameterid>pan</parameterid>
								<valuemin>-1</valuemin>
								<valuemax>1</valuemax>
								<value>0</value>
							</parameter>
						</effect>
					</filter>
					<sourcetrack>
						<mediatype>audio</mediatype>
						<trackindex>1</trackindex>
					</sourcetrack>
					<link>
						<linkclipref>010_05_02_B</linkclipref>
						<mediatype>video</mediatype>
						<trackindex>1</trackindex>
						<clipindex>22</clipindex>
					</link>
					<link>
						<linkclipref>010_05_02_B2</linkclipref>
						<mediatype>audio</mediatype>
						<trackindex>1</trackindex>
						<clipindex>22</clipindex>
					</link>
					<link>
						<linkclipref>010_05_02_B3</linkclipref>
						<mediatype>audio</mediatype>
						<trackindex>2</trackindex>
						<clipindex>22</clipindex>
					</link>
					<link>
						<linkclipref>010_05_02_B4</linkclipref>
						<mediatype>audio</mediatype>
						<trackindex>3</trackindex>
						<clipindex>20</clipindex>
					</link>
					<link>
						<linkclipref>010_05_02_B5</linkclipref>
						<mediatype>audio</mediatype>
						<trackindex>4</trackindex>
						<clipindex>10</clipindex>
					</link>
					<itemhistory>
						<uuid>8DF3178F-1EAE-4307-949B-40EC7EC26C44</uuid>
					</itemhistory>
				</clipitem>
				<clipitem id="010_05_03_A2">
					<name>010_05_03_A</name>
					<duration>1163</duration>
					<rate>
						<ntsc>FALSE</ntsc>
						<timebase>24</timebase>
					</rate>
					<in>0</in>
					<out>1163</out>
					<start>9552</start>
					<end>10715</end>
					<subframeoffset>0</subframeoffset>
					<enabled>TRUE</enabled>
					<masterclipid>010_05_03_A1</masterclipid>
					<logginginfo>
						<scene/>
						<shottake/>
						<lognote/>
						<good>FALSE</good>
					</logginginfo>
					<labels>
						<label2/>
					</labels>
					<comments>
						<mastercomment1/>
						<mastercomment2/>
						<mastercomment3/>
						<mastercomment4/>
					</comments>
					<file id="A001C028_221211_R03K"/>
					<filter>
						<effect>
							<name>Audio Levels</name>
							<effectid>audiolevels</effectid>
							<effectcategory>audiolevels</effectcategory>
							<effecttype>audiolevels</effecttype>
							<mediatype>audio</mediatype>
							<parameter>
								<name>Level</name>
								<parameterid>level</parameterid>
								<valuemin>0</valuemin>
								<valuemax>3.98109</valuemax>
								<value>1</value>
							</parameter>
						</effect>
					</filter>
					<filter>
						<effect>
							<name>Audio Pan</name>
							<effectid>audiopan</effectid>
							<effectcategory>audiopan</effectcategory>
							<effecttype>audiopan</effecttype>
							<mediatype>audio</mediatype>
							<parameter>
								<name>Pan</name>
								<parameterid>pan</parameterid>
								<valuemin>-1</valuemin>
								<valuemax>1</valuemax>
								<value>0</value>
							</parameter>
						</effect>
					</filter>
					<sourcetrack>
						<mediatype>audio</mediatype>
						<trackindex>1</trackindex>
					</sourcetrack>
					<link>
						<linkclipref>010_05_03_A</linkclipref>
						<mediatype>video</mediatype>
						<trackindex>1</trackindex>
						<clipindex>23</clipindex>
					</link>
					<link>
						<linkclipref>010_05_03_A2</linkclipref>
						<mediatype>audio</mediatype>
						<trackindex>1</trackindex>
						<clipindex>23</clipindex>
					</link>
					<link>
						<linkclipref>010_05_03_A3</linkclipref>
						<mediatype>audio</mediatype>
						<trackindex>2</trackindex>
						<clipindex>23</clipindex>
					</link>
					<link>
						<linkclipref>010_05_03_A4</linkclipref>
						<mediatype>audio</mediatype>
						<trackindex>3</trackindex>
						<clipindex>21</clipindex>
					</link>
					<link>
						<linkclipref>010_05_03_A5</linkclipref>
						<mediatype>audio</mediatype>
						<trackindex>4</trackindex>
						<clipindex>11</clipindex>
					</link>
					<itemhistory>
						<uuid>AA28DE31-31A9-4D0A-806D-C032FAF62118</uuid>
					</itemhistory>
				</clipitem>
				<clipitem id="010_05_03_B2">
					<name>010_05_03_B</name>
					<duration>1160</duration>
					<rate>
						<ntsc>FALSE</ntsc>
						<timebase>24</timebase>
					</rate>
					<in>0</in>
					<out>1160</out>
					<start>10715</start>
					<end>11875</end>
					<subframeoffset>0</subframeoffset>
					<enabled>TRUE</enabled>
					<masterclipid>010_05_03_B1</masterclipid>
					<logginginfo>
						<scene/>
						<shottake/>
						<lognote/>
						<good>FALSE</good>
					</logginginfo>
					<labels>
						<label2/>
					</labels>
					<comments>
						<mastercomment1/>
						<mastercomment2/>
						<mastercomment3/>
						<mastercomment4/>
					</comments>
					<file id="B001C019_130101_R1WX"/>
					<filter>
						<effect>
							<name>Audio Levels</name>
							<effectid>audiolevels</effectid>
							<effectcategory>audiolevels</effectcategory>
							<effecttype>audiolevels</effecttype>
							<mediatype>audio</mediatype>
							<parameter>
								<name>Level</name>
								<parameterid>level</parameterid>
								<valuemin>0</valuemin>
								<valuemax>3.98109</valuemax>
								<value>1</value>
							</parameter>
						</effect>
					</filter>
					<filter>
						<effect>
							<name>Audio Pan</name>
							<effectid>audiopan</effectid>
							<effectcategory>audiopan</effectcategory>
							<effecttype>audiopan</effecttype>
							<mediatype>audio</mediatype>
							<parameter>
								<name>Pan</name>
								<parameterid>pan</parameterid>
								<valuemin>-1</valuemin>
								<valuemax>1</valuemax>
								<value>0</value>
							</parameter>
						</effect>
					</filter>
					<sourcetrack>
						<mediatype>audio</mediatype>
						<trackindex>1</trackindex>
					</sourcetrack>
					<link>
						<linkclipref>010_05_03_B</linkclipref>
						<mediatype>video</mediatype>
						<trackindex>1</trackindex>
						<clipindex>24</clipindex>
					</link>
					<link>
						<linkclipref>010_05_03_B2</linkclipref>
						<mediatype>audio</mediatype>
						<trackindex>1</trackindex>
						<clipindex>24</clipindex>
					</link>
					<link>
						<linkclipref>010_05_03_B3</linkclipref>
						<mediatype>audio</mediatype>
						<trackindex>2</trackindex>
						<clipindex>24</clipindex>
					</link>
					<link>
						<linkclipref>010_05_03_B4</linkclipref>
						<mediatype>audio</mediatype>
						<trackindex>3</trackindex>
						<clipindex>22</clipindex>
					</link>
					<link>
						<linkclipref>010_05_03_B5</linkclipref>
						<mediatype>audio</mediatype>
						<trackindex>4</trackindex>
						<clipindex>12</clipindex>
					</link>
					<itemhistory>
						<uuid>F6BE5CA6-7B3A-46C4-AA2A-5DE8E96ABB41</uuid>
					</itemhistory>
				</clipitem>
				<clipitem id="010_05_04_A_OK_混剪2">
					<name>010_05_04_A_OK_混剪</name>
					<duration>1108</duration>
					<rate>
						<ntsc>FALSE</ntsc>
						<timebase>24</timebase>
					</rate>
					<in>156</in>
					<out>207</out>
					<start>11875</start>
					<end>11926</end>
					<subframeoffset>0</subframeoffset>
					<enabled>TRUE</enabled>
					<masterclipid>010_05_04_A_OK_混剪1</masterclipid>
					<logginginfo>
						<scene/>
						<shottake/>
						<lognote/>
						<good>FALSE</good>
					</logginginfo>
					<labels>
						<label2/>
					</labels>
					<comments>
						<mastercomment1/>
						<mastercomment2/>
						<mastercomment3/>
						<mastercomment4/>
					</comments>
					<file id="A001C029_221211_R03K"/>
					<filter>
						<effect>
							<name>Audio Levels</name>
							<effectid>audiolevels</effectid>
							<effectcategory>audiolevels</effectcategory>
							<effecttype>audiolevels</effecttype>
							<mediatype>audio</mediatype>
							<parameter>
								<name>Level</name>
								<parameterid>level</parameterid>
								<valuemin>0</valuemin>
								<valuemax>3.98109</valuemax>
								<value>1</value>
							</parameter>
						</effect>
					</filter>
					<filter>
						<effect>
							<name>Audio Pan</name>
							<effectid>audiopan</effectid>
							<effectcategory>audiopan</effectcategory>
							<effecttype>audiopan</effecttype>
							<mediatype>audio</mediatype>
							<parameter>
								<name>Pan</name>
								<parameterid>pan</parameterid>
								<valuemin>-1</valuemin>
								<valuemax>1</valuemax>
								<value>0</value>
							</parameter>
						</effect>
					</filter>
					<sourcetrack>
						<mediatype>audio</mediatype>
						<trackindex>1</trackindex>
					</sourcetrack>
					<link>
						<linkclipref>010_05_04_A_OK_混剪</linkclipref>
						<mediatype>video</mediatype>
						<trackindex>1</trackindex>
						<clipindex>25</clipindex>
					</link>
					<link>
						<linkclipref>010_05_04_A_OK_混剪2</linkclipref>
						<mediatype>audio</mediatype>
						<trackindex>1</trackindex>
						<clipindex>25</clipindex>
					</link>
					<link>
						<linkclipref>010_05_04_A_OK_混剪3</linkclipref>
						<mediatype>audio</mediatype>
						<trackindex>2</trackindex>
						<clipindex>25</clipindex>
					</link>
					<link>
						<linkclipref>010_05_04_A_OK_混剪4</linkclipref>
						<mediatype>audio</mediatype>
						<trackindex>3</trackindex>
						<clipindex>23</clipindex>
					</link>
					<link>
						<linkclipref>010_05_04_A_OK_混剪5</linkclipref>
						<mediatype>audio</mediatype>
						<trackindex>4</trackindex>
						<clipindex>13</clipindex>
					</link>
					<itemhistory>
						<uuid>B3762674-9005-4898-8E8D-BED2BC9FE784</uuid>
					</itemhistory>
				</clipitem>
				<clipitem id="010_05_04_B_OK_混剪2">
					<name>010_05_04_B_OK_混剪</name>
					<duration>1099</duration>
					<rate>
						<ntsc>FALSE</ntsc>
						<timebase>24</timebase>
					</rate>
					<in>109</in>
					<out>1099</out>
					<start>11926</start>
					<end>12916</end>
					<subframeoffset>0</subframeoffset>
					<enabled>TRUE</enabled>
					<masterclipid>010_05_04_B_OK_混剪1</masterclipid>
					<logginginfo>
						<scene/>
						<shottake/>
						<lognote/>
						<good>FALSE</good>
					</logginginfo>
					<labels>
						<label2/>
					</labels>
					<comments>
						<mastercomment1/>
						<mastercomment2/>
						<mastercomment3/>
						<mastercomment4/>
					</comments>
					<file id="B001C020_130101_R1WX"/>
					<filter>
						<effect>
							<name>Audio Levels</name>
							<effectid>audiolevels</effectid>
							<effectcategory>audiolevels</effectcategory>
							<effecttype>audiolevels</effecttype>
							<mediatype>audio</mediatype>
							<parameter>
								<name>Level</name>
								<parameterid>level</parameterid>
								<valuemin>0</valuemin>
								<valuemax>3.98109</valuemax>
								<value>1</value>
							</parameter>
						</effect>
					</filter>
					<filter>
						<effect>
							<name>Audio Pan</name>
							<effectid>audiopan</effectid>
							<effectcategory>audiopan</effectcategory>
							<effecttype>audiopan</effecttype>
							<mediatype>audio</mediatype>
							<parameter>
								<name>Pan</name>
								<parameterid>pan</parameterid>
								<valuemin>-1</valuemin>
								<valuemax>1</valuemax>
								<value>0</value>
							</parameter>
						</effect>
					</filter>
					<sourcetrack>
						<mediatype>audio</mediatype>
						<trackindex>1</trackindex>
					</sourcetrack>
					<link>
						<linkclipref>010_05_04_B_OK_混剪</linkclipref>
						<mediatype>video</mediatype>
						<trackindex>1</trackindex>
						<clipindex>26</clipindex>
					</link>
					<link>
						<linkclipref>010_05_04_B_OK_混剪2</linkclipref>
						<mediatype>audio</mediatype>
						<trackindex>1</trackindex>
						<clipindex>26</clipindex>
					</link>
					<link>
						<linkclipref>010_05_04_B_OK_混剪3</linkclipref>
						<mediatype>audio</mediatype>
						<trackindex>2</trackindex>
						<clipindex>26</clipindex>
					</link>
					<link>
						<linkclipref>010_05_04_B_OK_混剪4</linkclipref>
						<mediatype>audio</mediatype>
						<trackindex>3</trackindex>
						<clipindex>24</clipindex>
					</link>
					<link>
						<linkclipref>010_05_04_B_OK_混剪5</linkclipref>
						<mediatype>audio</mediatype>
						<trackindex>4</trackindex>
						<clipindex>14</clipindex>
					</link>
					<itemhistory>
						<uuid>5DE157A2-56FB-4A4A-8E1B-4ADD064EE1AC</uuid>
					</itemhistory>
				</clipitem>
				<clipitem id="010_05_05_A_OK_混剪2">
					<name>010_05_05_A_OK_混剪</name>
					<duration>2307</duration>
					<rate>
						<ntsc>FALSE</ntsc>
						<timebase>24</timebase>
					</rate>
					<in>154</in>
					<out>257</out>
					<start>12916</start>
					<end>13019</end>
					<subframeoffset>0</subframeoffset>
					<enabled>TRUE</enabled>
					<masterclipid>010_05_05_A_OK_混剪1</masterclipid>
					<logginginfo>
						<scene/>
						<shottake/>
						<lognote/>
						<good>FALSE</good>
					</logginginfo>
					<labels>
						<label2/>
					</labels>
					<comments>
						<mastercomment1/>
						<mastercomment2/>
						<mastercomment3/>
						<mastercomment4/>
					</comments>
					<file id="A001C030_221211_R03K"/>
					<filter>
						<effect>
							<name>Audio Levels</name>
							<effectid>audiolevels</effectid>
							<effectcategory>audiolevels</effectcategory>
							<effecttype>audiolevels</effecttype>
							<mediatype>audio</mediatype>
							<parameter>
								<name>Level</name>
								<parameterid>level</parameterid>
								<valuemin>0</valuemin>
								<valuemax>3.98109</valuemax>
								<value>1</value>
							</parameter>
						</effect>
					</filter>
					<filter>
						<effect>
							<name>Audio Pan</name>
							<effectid>audiopan</effectid>
							<effectcategory>audiopan</effectcategory>
							<effecttype>audiopan</effecttype>
							<mediatype>audio</mediatype>
							<parameter>
								<name>Pan</name>
								<parameterid>pan</parameterid>
								<valuemin>-1</valuemin>
								<valuemax>1</valuemax>
								<value>0</value>
							</parameter>
						</effect>
					</filter>
					<sourcetrack>
						<mediatype>audio</mediatype>
						<trackindex>1</trackindex>
					</sourcetrack>
					<link>
						<linkclipref>010_05_05_A_OK_混剪</linkclipref>
						<mediatype>video</mediatype>
						<trackindex>1</trackindex>
						<clipindex>27</clipindex>
					</link>
					<link>
						<linkclipref>010_05_05_A_OK_混剪2</linkclipref>
						<mediatype>audio</mediatype>
						<trackindex>1</trackindex>
						<clipindex>27</clipindex>
					</link>
					<link>
						<linkclipref>010_05_05_A_OK_混剪3</linkclipref>
						<mediatype>audio</mediatype>
						<trackindex>2</trackindex>
						<clipindex>27</clipindex>
					</link>
					<link>
						<linkclipref>010_05_05_A_OK_混剪4</linkclipref>
						<mediatype>audio</mediatype>
						<trackindex>3</trackindex>
						<clipindex>25</clipindex>
					</link>
					<link>
						<linkclipref>010_05_05_A_OK_混剪5</linkclipref>
						<mediatype>audio</mediatype>
						<trackindex>4</trackindex>
						<clipindex>15</clipindex>
					</link>
					<itemhistory>
						<uuid>ACAEB19A-CA2F-4AA2-B6AE-8AD28D1E83CA</uuid>
					</itemhistory>
				</clipitem>
				<clipitem id="010_05_05_B_OK_混剪2">
					<name>010_05_05_B_OK_混剪</name>
					<duration>2318</duration>
					<rate>
						<ntsc>FALSE</ntsc>
						<timebase>24</timebase>
					</rate>
					<in>0</in>
					<out>2318</out>
					<start>13019</start>
					<end>15337</end>
					<subframeoffset>0</subframeoffset>
					<enabled>TRUE</enabled>
					<masterclipid>010_05_05_B_OK_混剪1</masterclipid>
					<logginginfo>
						<scene/>
						<shottake/>
						<lognote/>
						<good>FALSE</good>
					</logginginfo>
					<labels>
						<label2/>
					</labels>
					<comments>
						<mastercomment1/>
						<mastercomment2/>
						<mastercomment3/>
						<mastercomment4/>
					</comments>
					<file id="B001C021_130101_R1WX"/>
					<filter>
						<effect>
							<name>Audio Levels</name>
							<effectid>audiolevels</effectid>
							<effectcategory>audiolevels</effectcategory>
							<effecttype>audiolevels</effecttype>
							<mediatype>audio</mediatype>
							<parameter>
								<name>Level</name>
								<parameterid>level</parameterid>
								<valuemin>0</valuemin>
								<valuemax>3.98109</valuemax>
								<value>1</value>
							</parameter>
						</effect>
					</filter>
					<filter>
						<effect>
							<name>Audio Pan</name>
							<effectid>audiopan</effectid>
							<effectcategory>audiopan</effectcategory>
							<effecttype>audiopan</effecttype>
							<mediatype>audio</mediatype>
							<parameter>
								<name>Pan</name>
								<parameterid>pan</parameterid>
								<valuemin>-1</valuemin>
								<valuemax>1</valuemax>
								<value>0</value>
							</parameter>
						</effect>
					</filter>
					<sourcetrack>
						<mediatype>audio</mediatype>
						<trackindex>1</trackindex>
					</sourcetrack>
					<link>
						<linkclipref>010_05_05_B_OK_混剪</linkclipref>
						<mediatype>video</mediatype>
						<trackindex>1</trackindex>
						<clipindex>28</clipindex>
					</link>
					<link>
						<linkclipref>010_05_05_B_OK_混剪2</linkclipref>
						<mediatype>audio</mediatype>
						<trackindex>1</trackindex>
						<clipindex>28</clipindex>
					</link>
					<link>
						<linkclipref>010_05_05_B_OK_混剪3</linkclipref>
						<mediatype>audio</mediatype>
						<trackindex>2</trackindex>
						<clipindex>28</clipindex>
					</link>
					<link>
						<linkclipref>010_05_05_B_OK_混剪4</linkclipref>
						<mediatype>audio</mediatype>
						<trackindex>3</trackindex>
						<clipindex>26</clipindex>
					</link>
					<link>
						<linkclipref>010_05_05_B_OK_混剪5</linkclipref>
						<mediatype>audio</mediatype>
						<trackindex>4</trackindex>
						<clipindex>16</clipindex>
					</link>
					<itemhistory>
						<uuid>085375C8-03C3-4DC5-9B51-77B6C5E2EAD3</uuid>
					</itemhistory>
				</clipitem>
				<clipitem id="010_05_06_A_OK_混剪2">
					<name>010_05_06_A_OK_混剪</name>
					<duration>2146</duration>
					<rate>
						<ntsc>FALSE</ntsc>
						<timebase>24</timebase>
					</rate>
					<in>131</in>
					<out>189</out>
					<start>15337</start>
					<end>15395</end>
					<subframeoffset>0</subframeoffset>
					<enabled>TRUE</enabled>
					<masterclipid>010_05_06_A_OK_混剪1</masterclipid>
					<logginginfo>
						<scene/>
						<shottake/>
						<lognote/>
						<good>FALSE</good>
					</logginginfo>
					<labels>
						<label2/>
					</labels>
					<comments>
						<mastercomment1/>
						<mastercomment2/>
						<mastercomment3/>
						<mastercomment4/>
					</comments>
					<file id="A001C031_221211_R03K"/>
					<filter>
						<effect>
							<name>Audio Levels</name>
							<effectid>audiolevels</effectid>
							<effectcategory>audiolevels</effectcategory>
							<effecttype>audiolevels</effecttype>
							<mediatype>audio</mediatype>
							<parameter>
								<name>Level</name>
								<parameterid>level</parameterid>
								<valuemin>0</valuemin>
								<valuemax>3.98109</valuemax>
								<value>1</value>
							</parameter>
						</effect>
					</filter>
					<filter>
						<effect>
							<name>Audio Pan</name>
							<effectid>audiopan</effectid>
							<effectcategory>audiopan</effectcategory>
							<effecttype>audiopan</effecttype>
							<mediatype>audio</mediatype>
							<parameter>
								<name>Pan</name>
								<parameterid>pan</parameterid>
								<valuemin>-1</valuemin>
								<valuemax>1</valuemax>
								<value>0</value>
							</parameter>
						</effect>
					</filter>
					<sourcetrack>
						<mediatype>audio</mediatype>
						<trackindex>1</trackindex>
					</sourcetrack>
					<link>
						<linkclipref>010_05_06_A_OK_混剪</linkclipref>
						<mediatype>video</mediatype>
						<trackindex>1</trackindex>
						<clipindex>29</clipindex>
					</link>
					<link>
						<linkclipref>010_05_06_A_OK_混剪2</linkclipref>
						<mediatype>audio</mediatype>
						<trackindex>1</trackindex>
						<clipindex>29</clipindex>
					</link>
					<link>
						<linkclipref>010_05_06_A_OK_混剪3</linkclipref>
						<mediatype>audio</mediatype>
						<trackindex>2</trackindex>
						<clipindex>29</clipindex>
					</link>
					<link>
						<linkclipref>010_05_06_A_OK_混剪4</linkclipref>
						<mediatype>audio</mediatype>
						<trackindex>3</trackindex>
						<clipindex>27</clipindex>
					</link>
					<link>
						<linkclipref>010_05_06_A_OK_混剪5</linkclipref>
						<mediatype>audio</mediatype>
						<trackindex>4</trackindex>
						<clipindex>17</clipindex>
					</link>
					<itemhistory>
						<uuid>8A432CAD-8287-4FC2-83E1-8D9217A52798</uuid>
					</itemhistory>
				</clipitem>
				<clipitem id="010_05_06_B_OK_混剪2">
					<name>010_05_06_B_OK_混剪</name>
					<duration>2154</duration>
					<rate>
						<ntsc>FALSE</ntsc>
						<timebase>24</timebase>
					</rate>
					<in>384</in>
					<out>473</out>
					<start>15395</start>
					<end>15484</end>
					<subframeoffset>0</subframeoffset>
					<enabled>TRUE</enabled>
					<masterclipid>010_05_06_B_OK_混剪1</masterclipid>
					<logginginfo>
						<scene/>
						<shottake/>
						<lognote/>
						<good>FALSE</good>
					</logginginfo>
					<labels>
						<label2/>
					</labels>
					<comments>
						<mastercomment1/>
						<mastercomment2/>
						<mastercomment3/>
						<mastercomment4/>
					</comments>
					<file id="B001C022_130101_R1WX"/>
					<filter>
						<effect>
							<name>Audio Levels</name>
							<effectid>audiolevels</effectid>
							<effectcategory>audiolevels</effectcategory>
							<effecttype>audiolevels</effecttype>
							<mediatype>audio</mediatype>
							<parameter>
								<name>Level</name>
								<parameterid>level</parameterid>
								<valuemin>0</valuemin>
								<valuemax>3.98109</valuemax>
								<value>1</value>
							</parameter>
						</effect>
					</filter>
					<filter>
						<effect>
							<name>Audio Pan</name>
							<effectid>audiopan</effectid>
							<effectcategory>audiopan</effectcategory>
							<effecttype>audiopan</effecttype>
							<mediatype>audio</mediatype>
							<parameter>
								<name>Pan</name>
								<parameterid>pan</parameterid>
								<valuemin>-1</valuemin>
								<valuemax>1</valuemax>
								<value>0</value>
							</parameter>
						</effect>
					</filter>
					<sourcetrack>
						<mediatype>audio</mediatype>
						<trackindex>1</trackindex>
					</sourcetrack>
					<link>
						<linkclipref>010_05_06_B_OK_混剪</linkclipref>
						<mediatype>video</mediatype>
						<trackindex>1</trackindex>
						<clipindex>30</clipindex>
					</link>
					<link>
						<linkclipref>010_05_06_B_OK_混剪2</linkclipref>
						<mediatype>audio</mediatype>
						<trackindex>1</trackindex>
						<clipindex>30</clipindex>
					</link>
					<link>
						<linkclipref>010_05_06_B_OK_混剪3</linkclipref>
						<mediatype>audio</mediatype>
						<trackindex>2</trackindex>
						<clipindex>30</clipindex>
					</link>
					<link>
						<linkclipref>010_05_06_B_OK_混剪4</linkclipref>
						<mediatype>audio</mediatype>
						<trackindex>3</trackindex>
						<clipindex>28</clipindex>
					</link>
					<link>
						<linkclipref>010_05_06_B_OK_混剪5</linkclipref>
						<mediatype>audio</mediatype>
						<trackindex>4</trackindex>
						<clipindex>18</clipindex>
					</link>
					<itemhistory>
						<uuid>1F3A9951-5737-478C-B9B6-F79677EA499F</uuid>
					</itemhistory>
				</clipitem>
				<clipitem id="010_06_01_A2">
					<name>010_06_01_A</name>
					<duration>2114</duration>
					<rate>
						<ntsc>FALSE</ntsc>
						<timebase>24</timebase>
					</rate>
					<in>0</in>
					<out>2114</out>
					<start>15484</start>
					<end>17598</end>
					<subframeoffset>0</subframeoffset>
					<enabled>TRUE</enabled>
					<masterclipid>010_06_01_A1</masterclipid>
					<logginginfo>
						<scene/>
						<shottake/>
						<lognote/>
						<good>FALSE</good>
					</logginginfo>
					<labels>
						<label2/>
					</labels>
					<comments>
						<mastercomment1/>
						<mastercomment2/>
						<mastercomment3/>
						<mastercomment4/>
					</comments>
					<file id="A002C001_221211_R03K"/>
					<filter>
						<effect>
							<name>Audio Levels</name>
							<effectid>audiolevels</effectid>
							<effectcategory>audiolevels</effectcategory>
							<effecttype>audiolevels</effecttype>
							<mediatype>audio</mediatype>
							<parameter>
								<name>Level</name>
								<parameterid>level</parameterid>
								<valuemin>0</valuemin>
								<valuemax>3.98109</valuemax>
								<value>1</value>
							</parameter>
						</effect>
					</filter>
					<filter>
						<effect>
							<name>Audio Pan</name>
							<effectid>audiopan</effectid>
							<effectcategory>audiopan</effectcategory>
							<effecttype>audiopan</effecttype>
							<mediatype>audio</mediatype>
							<parameter>
								<name>Pan</name>
								<parameterid>pan</parameterid>
								<valuemin>-1</valuemin>
								<valuemax>1</valuemax>
								<value>0</value>
							</parameter>
						</effect>
					</filter>
					<sourcetrack>
						<mediatype>audio</mediatype>
						<trackindex>1</trackindex>
					</sourcetrack>
					<link>
						<linkclipref>010_06_01_A</linkclipref>
						<mediatype>video</mediatype>
						<trackindex>1</trackindex>
						<clipindex>31</clipindex>
					</link>
					<link>
						<linkclipref>010_06_01_A2</linkclipref>
						<mediatype>audio</mediatype>
						<trackindex>1</trackindex>
						<clipindex>31</clipindex>
					</link>
					<link>
						<linkclipref>010_06_01_A3</linkclipref>
						<mediatype>audio</mediatype>
						<trackindex>2</trackindex>
						<clipindex>31</clipindex>
					</link>
					<link>
						<linkclipref>010_06_01_A4</linkclipref>
						<mediatype>audio</mediatype>
						<trackindex>3</trackindex>
						<clipindex>29</clipindex>
					</link>
					<link>
						<linkclipref>010_06_01_A5</linkclipref>
						<mediatype>audio</mediatype>
						<trackindex>4</trackindex>
						<clipindex>19</clipindex>
					</link>
					<link>
						<linkclipref>010_06_01_A6</linkclipref>
						<mediatype>audio</mediatype>
						<trackindex>5</trackindex>
						<clipindex>1</clipindex>
					</link>
					<itemhistory>
						<uuid>EEC6DB85-0FE2-4FB2-8A9A-7C2F7D12167F</uuid>
					</itemhistory>
				</clipitem>
				<clipitem id="010_06_01_B2">
					<name>010_06_01_B</name>
					<duration>2106</duration>
					<rate>
						<ntsc>FALSE</ntsc>
						<timebase>24</timebase>
					</rate>
					<in>0</in>
					<out>2106</out>
					<start>17598</start>
					<end>19704</end>
					<subframeoffset>0</subframeoffset>
					<enabled>TRUE</enabled>
					<masterclipid>010_06_01_B1</masterclipid>
					<logginginfo>
						<scene/>
						<shottake/>
						<lognote/>
						<good>FALSE</good>
					</logginginfo>
					<labels>
						<label2/>
					</labels>
					<comments>
						<mastercomment1/>
						<mastercomment2/>
						<mastercomment3/>
						<mastercomment4/>
					</comments>
					<file id="B002C001_130101_R1WX"/>
					<filter>
						<effect>
							<name>Audio Levels</name>
							<effectid>audiolevels</effectid>
							<effectcategory>audiolevels</effectcategory>
							<effecttype>audiolevels</effecttype>
							<mediatype>audio</mediatype>
							<parameter>
								<name>Level</name>
								<parameterid>level</parameterid>
								<valuemin>0</valuemin>
								<valuemax>3.98109</valuemax>
								<value>1</value>
							</parameter>
						</effect>
					</filter>
					<filter>
						<effect>
							<name>Audio Pan</name>
							<effectid>audiopan</effectid>
							<effectcategory>audiopan</effectcategory>
							<effecttype>audiopan</effecttype>
							<mediatype>audio</mediatype>
							<parameter>
								<name>Pan</name>
								<parameterid>pan</parameterid>
								<valuemin>-1</valuemin>
								<valuemax>1</valuemax>
								<value>0</value>
							</parameter>
						</effect>
					</filter>
					<sourcetrack>
						<mediatype>audio</mediatype>
						<trackindex>1</trackindex>
					</sourcetrack>
					<link>
						<linkclipref>010_06_01_B</linkclipref>
						<mediatype>video</mediatype>
						<trackindex>1</trackindex>
						<clipindex>32</clipindex>
					</link>
					<link>
						<linkclipref>010_06_01_B2</linkclipref>
						<mediatype>audio</mediatype>
						<trackindex>1</trackindex>
						<clipindex>32</clipindex>
					</link>
					<link>
						<linkclipref>010_06_01_B3</linkclipref>
						<mediatype>audio</mediatype>
						<trackindex>2</trackindex>
						<clipindex>32</clipindex>
					</link>
					<link>
						<linkclipref>010_06_01_B4</linkclipref>
						<mediatype>audio</mediatype>
						<trackindex>3</trackindex>
						<clipindex>30</clipindex>
					</link>
					<link>
						<linkclipref>010_06_01_B5</linkclipref>
						<mediatype>audio</mediatype>
						<trackindex>4</trackindex>
						<clipindex>20</clipindex>
					</link>
					<link>
						<linkclipref>010_06_01_B6</linkclipref>
						<mediatype>audio</mediatype>
						<trackindex>5</trackindex>
						<clipindex>2</clipindex>
					</link>
					<itemhistory>
						<uuid>87BFCBDB-D05E-487C-9221-ABB37B89CE6D</uuid>
					</itemhistory>
				</clipitem>
				<clipitem id="010_06_02_A2">
					<name>010_06_02_A</name>
					<duration>649</duration>
					<rate>
						<ntsc>FALSE</ntsc>
						<timebase>24</timebase>
					</rate>
					<in>0</in>
					<out>649</out>
					<start>19704</start>
					<end>20353</end>
					<subframeoffset>0</subframeoffset>
					<enabled>TRUE</enabled>
					<masterclipid>010_06_02_A1</masterclipid>
					<logginginfo>
						<scene/>
						<shottake/>
						<lognote/>
						<good>FALSE</good>
					</logginginfo>
					<labels>
						<label2/>
					</labels>
					<comments>
						<mastercomment1/>
						<mastercomment2/>
						<mastercomment3/>
						<mastercomment4/>
					</comments>
					<file id="A002C002_221211_R03K"/>
					<filter>
						<effect>
							<name>Audio Levels</name>
							<effectid>audiolevels</effectid>
							<effectcategory>audiolevels</effectcategory>
							<effecttype>audiolevels</effecttype>
							<mediatype>audio</mediatype>
							<parameter>
								<name>Level</name>
								<parameterid>level</parameterid>
								<valuemin>0</valuemin>
								<valuemax>3.98109</valuemax>
								<value>1</value>
							</parameter>
						</effect>
					</filter>
					<filter>
						<effect>
							<name>Audio Pan</name>
							<effectid>audiopan</effectid>
							<effectcategory>audiopan</effectcategory>
							<effecttype>audiopan</effecttype>
							<mediatype>audio</mediatype>
							<parameter>
								<name>Pan</name>
								<parameterid>pan</parameterid>
								<valuemin>-1</valuemin>
								<valuemax>1</valuemax>
								<value>0</value>
							</parameter>
						</effect>
					</filter>
					<sourcetrack>
						<mediatype>audio</mediatype>
						<trackindex>1</trackindex>
					</sourcetrack>
					<link>
						<linkclipref>010_06_02_A</linkclipref>
						<mediatype>video</mediatype>
						<trackindex>1</trackindex>
						<clipindex>33</clipindex>
					</link>
					<link>
						<linkclipref>010_06_02_A2</linkclipref>
						<mediatype>audio</mediatype>
						<trackindex>1</trackindex>
						<clipindex>33</clipindex>
					</link>
					<link>
						<linkclipref>010_06_02_A3</linkclipref>
						<mediatype>audio</mediatype>
						<trackindex>2</trackindex>
						<clipindex>33</clipindex>
					</link>
					<link>
						<linkclipref>010_06_02_A4</linkclipref>
						<mediatype>audio</mediatype>
						<trackindex>3</trackindex>
						<clipindex>31</clipindex>
					</link>
					<link>
						<linkclipref>010_06_02_A5</linkclipref>
						<mediatype>audio</mediatype>
						<trackindex>4</trackindex>
						<clipindex>21</clipindex>
					</link>
					<link>
						<linkclipref>010_06_02_A6</linkclipref>
						<mediatype>audio</mediatype>
						<trackindex>5</trackindex>
						<clipindex>3</clipindex>
					</link>
					<itemhistory>
						<uuid>4062180B-F20D-402D-B2C8-760E51D20A49</uuid>
					</itemhistory>
				</clipitem>
				<clipitem id="010_06_02_B2">
					<name>010_06_02_B</name>
					<duration>668</duration>
					<rate>
						<ntsc>FALSE</ntsc>
						<timebase>24</timebase>
					</rate>
					<in>0</in>
					<out>668</out>
					<start>20353</start>
					<end>21021</end>
					<subframeoffset>0</subframeoffset>
					<enabled>TRUE</enabled>
					<masterclipid>010_06_02_B1</masterclipid>
					<logginginfo>
						<scene/>
						<shottake/>
						<lognote/>
						<good>FALSE</good>
					</logginginfo>
					<labels>
						<label2/>
					</labels>
					<comments>
						<mastercomment1/>
						<mastercomment2/>
						<mastercomment3/>
						<mastercomment4/>
					</comments>
					<file id="B002C002_130101_R1WX"/>
					<filter>
						<effect>
							<name>Audio Levels</name>
							<effectid>audiolevels</effectid>
							<effectcategory>audiolevels</effectcategory>
							<effecttype>audiolevels</effecttype>
							<mediatype>audio</mediatype>
							<parameter>
								<name>Level</name>
								<parameterid>level</parameterid>
								<valuemin>0</valuemin>
								<valuemax>3.98109</valuemax>
								<value>1</value>
							</parameter>
						</effect>
					</filter>
					<filter>
						<effect>
							<name>Audio Pan</name>
							<effectid>audiopan</effectid>
							<effectcategory>audiopan</effectcategory>
							<effecttype>audiopan</effecttype>
							<mediatype>audio</mediatype>
							<parameter>
								<name>Pan</name>
								<parameterid>pan</parameterid>
								<valuemin>-1</valuemin>
								<valuemax>1</valuemax>
								<value>0</value>
							</parameter>
						</effect>
					</filter>
					<sourcetrack>
						<mediatype>audio</mediatype>
						<trackindex>1</trackindex>
					</sourcetrack>
					<link>
						<linkclipref>010_06_02_B</linkclipref>
						<mediatype>video</mediatype>
						<trackindex>1</trackindex>
						<clipindex>34</clipindex>
					</link>
					<link>
						<linkclipref>010_06_02_B2</linkclipref>
						<mediatype>audio</mediatype>
						<trackindex>1</trackindex>
						<clipindex>34</clipindex>
					</link>
					<link>
						<linkclipref>010_06_02_B3</linkclipref>
						<mediatype>audio</mediatype>
						<trackindex>2</trackindex>
						<clipindex>34</clipindex>
					</link>
					<link>
						<linkclipref>010_06_02_B4</linkclipref>
						<mediatype>audio</mediatype>
						<trackindex>3</trackindex>
						<clipindex>32</clipindex>
					</link>
					<link>
						<linkclipref>010_06_02_B5</linkclipref>
						<mediatype>audio</mediatype>
						<trackindex>4</trackindex>
						<clipindex>22</clipindex>
					</link>
					<link>
						<linkclipref>010_06_02_B6</linkclipref>
						<mediatype>audio</mediatype>
						<trackindex>5</trackindex>
						<clipindex>4</clipindex>
					</link>
					<itemhistory>
						<uuid>39CB02CE-DEAE-4D19-BEF2-25E9E4820D5B</uuid>
					</itemhistory>
				</clipitem>
				<clipitem id="010_06_03_A_后面OK2">
					<name>010_06_03_A_后面OK</name>
					<duration>2177</duration>
					<rate>
						<ntsc>FALSE</ntsc>
						<timebase>24</timebase>
					</rate>
					<in>0</in>
					<out>2177</out>
					<start>21021</start>
					<end>23198</end>
					<subframeoffset>0</subframeoffset>
					<enabled>TRUE</enabled>
					<masterclipid>010_06_03_A_后面OK1</masterclipid>
					<logginginfo>
						<scene/>
						<shottake/>
						<lognote/>
						<good>FALSE</good>
					</logginginfo>
					<labels>
						<label2/>
					</labels>
					<comments>
						<mastercomment1/>
						<mastercomment2/>
						<mastercomment3/>
						<mastercomment4/>
					</comments>
					<file id="A002C003_221211_R03K"/>
					<filter>
						<effect>
							<name>Audio Levels</name>
							<effectid>audiolevels</effectid>
							<effectcategory>audiolevels</effectcategory>
							<effecttype>audiolevels</effecttype>
							<mediatype>audio</mediatype>
							<parameter>
								<name>Level</name>
								<parameterid>level</parameterid>
								<valuemin>0</valuemin>
								<valuemax>3.98109</valuemax>
								<value>1</value>
							</parameter>
						</effect>
					</filter>
					<filter>
						<effect>
							<name>Audio Pan</name>
							<effectid>audiopan</effectid>
							<effectcategory>audiopan</effectcategory>
							<effecttype>audiopan</effecttype>
							<mediatype>audio</mediatype>
							<parameter>
								<name>Pan</name>
								<parameterid>pan</parameterid>
								<valuemin>-1</valuemin>
								<valuemax>1</valuemax>
								<value>0</value>
							</parameter>
						</effect>
					</filter>
					<sourcetrack>
						<mediatype>audio</mediatype>
						<trackindex>1</trackindex>
					</sourcetrack>
					<link>
						<linkclipref>010_06_03_A_后面OK</linkclipref>
						<mediatype>video</mediatype>
						<trackindex>1</trackindex>
						<clipindex>35</clipindex>
					</link>
					<link>
						<linkclipref>010_06_03_A_后面OK2</linkclipref>
						<mediatype>audio</mediatype>
						<trackindex>1</trackindex>
						<clipindex>35</clipindex>
					</link>
					<link>
						<linkclipref>010_06_03_A_后面OK3</linkclipref>
						<mediatype>audio</mediatype>
						<trackindex>2</trackindex>
						<clipindex>35</clipindex>
					</link>
					<link>
						<linkclipref>010_06_03_A_后面OK4</linkclipref>
						<mediatype>audio</mediatype>
						<trackindex>3</trackindex>
						<clipindex>33</clipindex>
					</link>
					<link>
						<linkclipref>010_06_03_A_后面OK5</linkclipref>
						<mediatype>audio</mediatype>
						<trackindex>4</trackindex>
						<clipindex>23</clipindex>
					</link>
					<link>
						<linkclipref>010_06_03_A_后面OK6</linkclipref>
						<mediatype>audio</mediatype>
						<trackindex>5</trackindex>
						<clipindex>5</clipindex>
					</link>
					<itemhistory>
						<uuid>29FA4C5D-4CD4-472D-B05F-BFBFF5FDBBCB</uuid>
					</itemhistory>
				</clipitem>
				<clipitem id="010_06_03_B_后面OK2">
					<name>010_06_03_B_后面OK</name>
					<duration>2160</duration>
					<rate>
						<ntsc>FALSE</ntsc>
						<timebase>24</timebase>
					</rate>
					<in>425</in>
					<out>495</out>
					<start>23198</start>
					<end>23268</end>
					<subframeoffset>0</subframeoffset>
					<enabled>TRUE</enabled>
					<masterclipid>010_06_03_B_后面OK1</masterclipid>
					<logginginfo>
						<scene/>
						<shottake/>
						<lognote/>
						<good>FALSE</good>
					</logginginfo>
					<labels>
						<label2/>
					</labels>
					<comments>
						<mastercomment1/>
						<mastercomment2/>
						<mastercomment3/>
						<mastercomment4/>
					</comments>
					<file id="B002C003_130101_R1WX"/>
					<filter>
						<effect>
							<name>Audio Levels</name>
							<effectid>audiolevels</effectid>
							<effectcategory>audiolevels</effectcategory>
							<effecttype>audiolevels</effecttype>
							<mediatype>audio</mediatype>
							<parameter>
								<name>Level</name>
								<parameterid>level</parameterid>
								<valuemin>0</valuemin>
								<valuemax>3.98109</valuemax>
								<value>1</value>
							</parameter>
						</effect>
					</filter>
					<filter>
						<effect>
							<name>Audio Pan</name>
							<effectid>audiopan</effectid>
							<effectcategory>audiopan</effectcategory>
							<effecttype>audiopan</effecttype>
							<mediatype>audio</mediatype>
							<parameter>
								<name>Pan</name>
								<parameterid>pan</parameterid>
								<valuemin>-1</valuemin>
								<valuemax>1</valuemax>
								<value>0</value>
							</parameter>
						</effect>
					</filter>
					<sourcetrack>
						<mediatype>audio</mediatype>
						<trackindex>1</trackindex>
					</sourcetrack>
					<link>
						<linkclipref>010_06_03_B_后面OK</linkclipref>
						<mediatype>video</mediatype>
						<trackindex>1</trackindex>
						<clipindex>36</clipindex>
					</link>
					<link>
						<linkclipref>010_06_03_B_后面OK2</linkclipref>
						<mediatype>audio</mediatype>
						<trackindex>1</trackindex>
						<clipindex>36</clipindex>
					</link>
					<link>
						<linkclipref>010_06_03_B_后面OK3</linkclipref>
						<mediatype>audio</mediatype>
						<trackindex>2</trackindex>
						<clipindex>36</clipindex>
					</link>
					<link>
						<linkclipref>010_06_03_B_后面OK4</linkclipref>
						<mediatype>audio</mediatype>
						<trackindex>3</trackindex>
						<clipindex>34</clipindex>
					</link>
					<link>
						<linkclipref>010_06_03_B_后面OK5</linkclipref>
						<mediatype>audio</mediatype>
						<trackindex>4</trackindex>
						<clipindex>24</clipindex>
					</link>
					<link>
						<linkclipref>010_06_03_B_后面OK6</linkclipref>
						<mediatype>audio</mediatype>
						<trackindex>5</trackindex>
						<clipindex>6</clipindex>
					</link>
					<itemhistory>
						<uuid>AAD861CE-3898-4C35-87AF-C8B610113830</uuid>
					</itemhistory>
				</clipitem>
				<clipitem id="010_06_04_A_前面OK2">
					<name>010_06_04_A_前面OK</name>
					<duration>877</duration>
					<rate>
						<ntsc>FALSE</ntsc>
						<timebase>24</timebase>
					</rate>
					<in>582</in>
					<out>777</out>
					<start>23268</start>
					<end>23463</end>
					<subframeoffset>0</subframeoffset>
					<enabled>TRUE</enabled>
					<masterclipid>010_06_04_A_前面OK1</masterclipid>
					<logginginfo>
						<scene/>
						<shottake/>
						<lognote/>
						<good>FALSE</good>
					</logginginfo>
					<labels>
						<label2/>
					</labels>
					<comments>
						<mastercomment1/>
						<mastercomment2/>
						<mastercomment3/>
						<mastercomment4/>
					</comments>
					<file id="A002C004_221211_R03K"/>
					<filter>
						<effect>
							<name>Audio Levels</name>
							<effectid>audiolevels</effectid>
							<effectcategory>audiolevels</effectcategory>
							<effecttype>audiolevels</effecttype>
							<mediatype>audio</mediatype>
							<parameter>
								<name>Level</name>
								<parameterid>level</parameterid>
								<valuemin>0</valuemin>
								<valuemax>3.98109</valuemax>
								<value>1</value>
							</parameter>
						</effect>
					</filter>
					<filter>
						<effect>
							<name>Audio Pan</name>
							<effectid>audiopan</effectid>
							<effectcategory>audiopan</effectcategory>
							<effecttype>audiopan</effecttype>
							<mediatype>audio</mediatype>
							<parameter>
								<name>Pan</name>
								<parameterid>pan</parameterid>
								<valuemin>-1</valuemin>
								<valuemax>1</valuemax>
								<value>0</value>
							</parameter>
						</effect>
					</filter>
					<sourcetrack>
						<mediatype>audio</mediatype>
						<trackindex>1</trackindex>
					</sourcetrack>
					<link>
						<linkclipref>010_06_04_A_前面OK</linkclipref>
						<mediatype>video</mediatype>
						<trackindex>1</trackindex>
						<clipindex>37</clipindex>
					</link>
					<link>
						<linkclipref>010_06_04_A_前面OK2</linkclipref>
						<mediatype>audio</mediatype>
						<trackindex>1</trackindex>
						<clipindex>37</clipindex>
					</link>
					<link>
						<linkclipref>010_06_04_A_前面OK3</linkclipref>
						<mediatype>audio</mediatype>
						<trackindex>2</trackindex>
						<clipindex>37</clipindex>
					</link>
					<link>
						<linkclipref>010_06_04_A_前面OK4</linkclipref>
						<mediatype>audio</mediatype>
						<trackindex>3</trackindex>
						<clipindex>35</clipindex>
					</link>
					<link>
						<linkclipref>010_06_04_A_前面OK5</linkclipref>
						<mediatype>audio</mediatype>
						<trackindex>4</trackindex>
						<clipindex>25</clipindex>
					</link>
					<link>
						<linkclipref>010_06_04_A_前面OK6</linkclipref>
						<mediatype>audio</mediatype>
						<trackindex>5</trackindex>
						<clipindex>7</clipindex>
					</link>
					<itemhistory>
						<uuid>903F8F2B-C8AD-412F-A9A4-7F799AE65EE3</uuid>
					</itemhistory>
				</clipitem>
				<clipitem id="010_06_04_B_后面OK2">
					<name>010_06_04_B_后面OK</name>
					<duration>839</duration>
					<rate>
						<ntsc>FALSE</ntsc>
						<timebase>24</timebase>
					</rate>
					<in>399</in>
					<out>487</out>
					<start>23463</start>
					<end>23551</end>
					<subframeoffset>0</subframeoffset>
					<enabled>TRUE</enabled>
					<masterclipid>010_06_04_B_后面OK1</masterclipid>
					<logginginfo>
						<scene/>
						<shottake/>
						<lognote/>
						<good>FALSE</good>
					</logginginfo>
					<labels>
						<label2/>
					</labels>
					<comments>
						<mastercomment1/>
						<mastercomment2/>
						<mastercomment3/>
						<mastercomment4/>
					</comments>
					<file id="B002C004_130101_R1WX"/>
					<filter>
						<effect>
							<name>Audio Levels</name>
							<effectid>audiolevels</effectid>
							<effectcategory>audiolevels</effectcategory>
							<effecttype>audiolevels</effecttype>
							<mediatype>audio</mediatype>
							<parameter>
								<name>Level</name>
								<parameterid>level</parameterid>
								<valuemin>0</valuemin>
								<valuemax>3.98109</valuemax>
								<value>1</value>
							</parameter>
						</effect>
					</filter>
					<filter>
						<effect>
							<name>Audio Pan</name>
							<effectid>audiopan</effectid>
							<effectcategory>audiopan</effectcategory>
							<effecttype>audiopan</effecttype>
							<mediatype>audio</mediatype>
							<parameter>
								<name>Pan</name>
								<parameterid>pan</parameterid>
								<valuemin>-1</valuemin>
								<valuemax>1</valuemax>
								<value>0</value>
							</parameter>
						</effect>
					</filter>
					<sourcetrack>
						<mediatype>audio</mediatype>
						<trackindex>1</trackindex>
					</sourcetrack>
					<link>
						<linkclipref>010_06_04_B_后面OK</linkclipref>
						<mediatype>video</mediatype>
						<trackindex>1</trackindex>
						<clipindex>38</clipindex>
					</link>
					<link>
						<linkclipref>010_06_04_B_后面OK2</linkclipref>
						<mediatype>audio</mediatype>
						<trackindex>1</trackindex>
						<clipindex>38</clipindex>
					</link>
					<link>
						<linkclipref>010_06_04_B_后面OK3</linkclipref>
						<mediatype>audio</mediatype>
						<trackindex>2</trackindex>
						<clipindex>38</clipindex>
					</link>
					<link>
						<linkclipref>010_06_04_B_后面OK4</linkclipref>
						<mediatype>audio</mediatype>
						<trackindex>3</trackindex>
						<clipindex>36</clipindex>
					</link>
					<link>
						<linkclipref>010_06_04_B_后面OK5</linkclipref>
						<mediatype>audio</mediatype>
						<trackindex>4</trackindex>
						<clipindex>26</clipindex>
					</link>
					<link>
						<linkclipref>010_06_04_B_后面OK6</linkclipref>
						<mediatype>audio</mediatype>
						<trackindex>5</trackindex>
						<clipindex>8</clipindex>
					</link>
					<itemhistory>
						<uuid>B0063815-252A-4F8E-A209-52F89F0032E5</uuid>
					</itemhistory>
				</clipitem>
				<clipitem id="010_07_01_A2">
					<name>010_07_01_A</name>
					<duration>1967</duration>
					<rate>
						<ntsc>FALSE</ntsc>
						<timebase>24</timebase>
					</rate>
					<in>0</in>
					<out>1967</out>
					<start>23551</start>
					<end>25518</end>
					<subframeoffset>0</subframeoffset>
					<enabled>TRUE</enabled>
					<masterclipid>010_07_01_A1</masterclipid>
					<logginginfo>
						<scene/>
						<shottake/>
						<lognote/>
						<good>FALSE</good>
					</logginginfo>
					<labels>
						<label2/>
					</labels>
					<comments>
						<mastercomment1/>
						<mastercomment2/>
						<mastercomment3/>
						<mastercomment4/>
					</comments>
					<file id="A002C005_221211_R03K"/>
					<filter>
						<effect>
							<name>Audio Levels</name>
							<effectid>audiolevels</effectid>
							<effectcategory>audiolevels</effectcategory>
							<effecttype>audiolevels</effecttype>
							<mediatype>audio</mediatype>
							<parameter>
								<name>Level</name>
								<parameterid>level</parameterid>
								<valuemin>0</valuemin>
								<valuemax>3.98109</valuemax>
								<value>1</value>
							</parameter>
						</effect>
					</filter>
					<filter>
						<effect>
							<name>Audio Pan</name>
							<effectid>audiopan</effectid>
							<effectcategory>audiopan</effectcategory>
							<effecttype>audiopan</effecttype>
							<mediatype>audio</mediatype>
							<parameter>
								<name>Pan</name>
								<parameterid>pan</parameterid>
								<valuemin>-1</valuemin>
								<valuemax>1</valuemax>
								<value>0</value>
							</parameter>
						</effect>
					</filter>
					<sourcetrack>
						<mediatype>audio</mediatype>
						<trackindex>1</trackindex>
					</sourcetrack>
					<link>
						<linkclipref>010_07_01_A</linkclipref>
						<mediatype>video</mediatype>
						<trackindex>1</trackindex>
						<clipindex>39</clipindex>
					</link>
					<link>
						<linkclipref>010_07_01_A2</linkclipref>
						<mediatype>audio</mediatype>
						<trackindex>1</trackindex>
						<clipindex>39</clipindex>
					</link>
					<link>
						<linkclipref>010_07_01_A3</linkclipref>
						<mediatype>audio</mediatype>
						<trackindex>2</trackindex>
						<clipindex>39</clipindex>
					</link>
					<link>
						<linkclipref>010_07_01_A4</linkclipref>
						<mediatype>audio</mediatype>
						<trackindex>3</trackindex>
						<clipindex>37</clipindex>
					</link>
					<itemhistory>
						<uuid>BF1086FE-0A8E-479B-9611-3A90B489E7E0</uuid>
					</itemhistory>
				</clipitem>
				<clipitem id="010_07_01_B_KP2">
					<name>010_07_01_B_KP</name>
					<duration>430</duration>
					<rate>
						<ntsc>FALSE</ntsc>
						<timebase>24</timebase>
					</rate>
					<in>204</in>
					<out>287</out>
					<start>25518</start>
					<end>25601</end>
					<subframeoffset>0</subframeoffset>
					<enabled>TRUE</enabled>
					<masterclipid>010_07_01_B_KP1</masterclipid>
					<logginginfo>
						<scene/>
						<shottake/>
						<lognote/>
						<good>FALSE</good>
					</logginginfo>
					<labels>
						<label2/>
					</labels>
					<comments>
						<mastercomment1/>
						<mastercomment2/>
						<mastercomment3/>
						<mastercomment4/>
					</comments>
					<file id="B002C005_130101_R1WX"/>
					<filter>
						<effect>
							<name>Audio Levels</name>
							<effectid>audiolevels</effectid>
							<effectcategory>audiolevels</effectcategory>
							<effecttype>audiolevels</effecttype>
							<mediatype>audio</mediatype>
							<parameter>
								<name>Level</name>
								<parameterid>level</parameterid>
								<valuemin>0</valuemin>
								<valuemax>3.98109</valuemax>
								<value>1</value>
							</parameter>
						</effect>
					</filter>
					<filter>
						<effect>
							<name>Audio Pan</name>
							<effectid>audiopan</effectid>
							<effectcategory>audiopan</effectcategory>
							<effecttype>audiopan</effecttype>
							<mediatype>audio</mediatype>
							<parameter>
								<name>Pan</name>
								<parameterid>pan</parameterid>
								<valuemin>-1</valuemin>
								<valuemax>1</valuemax>
								<value>0</value>
							</parameter>
						</effect>
					</filter>
					<sourcetrack>
						<mediatype>audio</mediatype>
						<trackindex>1</trackindex>
					</sourcetrack>
					<link>
						<linkclipref>010_07_01_B_KP</linkclipref>
						<mediatype>video</mediatype>
						<trackindex>1</trackindex>
						<clipindex>40</clipindex>
					</link>
					<link>
						<linkclipref>010_07_01_B_KP2</linkclipref>
						<mediatype>audio</mediatype>
						<trackindex>1</trackindex>
						<clipindex>40</clipindex>
					</link>
					<link>
						<linkclipref>010_07_01_B_KP3</linkclipref>
						<mediatype>audio</mediatype>
						<trackindex>2</trackindex>
						<clipindex>40</clipindex>
					</link>
					<link>
						<linkclipref>010_07_01_B_KP4</linkclipref>
						<mediatype>audio</mediatype>
						<trackindex>3</trackindex>
						<clipindex>38</clipindex>
					</link>
					<link>
						<linkclipref>010_07_01_B_KP5</linkclipref>
						<mediatype>audio</mediatype>
						<trackindex>4</trackindex>
						<clipindex>27</clipindex>
					</link>
					<itemhistory>
						<uuid>F0D3BDFB-E455-487D-B928-9D5ECE25C087</uuid>
					</itemhistory>
				</clipitem>
				<clipitem id="010_07_02_A2">
					<name>010_07_02_A</name>
					<duration>317</duration>
					<rate>
						<ntsc>FALSE</ntsc>
						<timebase>24</timebase>
					</rate>
					<in>0</in>
					<out>317</out>
					<start>25601</start>
					<end>25918</end>
					<subframeoffset>0</subframeoffset>
					<enabled>TRUE</enabled>
					<masterclipid>010_07_02_A1</masterclipid>
					<logginginfo>
						<scene/>
						<shottake/>
						<lognote/>
						<good>FALSE</good>
					</logginginfo>
					<labels>
						<label2/>
					</labels>
					<comments>
						<mastercomment1/>
						<mastercomment2/>
						<mastercomment3/>
						<mastercomment4/>
					</comments>
					<file id="A002C006_221211_R03K"/>
					<filter>
						<effect>
							<name>Audio Levels</name>
							<effectid>audiolevels</effectid>
							<effectcategory>audiolevels</effectcategory>
							<effecttype>audiolevels</effecttype>
							<mediatype>audio</mediatype>
							<parameter>
								<name>Level</name>
								<parameterid>level</parameterid>
								<valuemin>0</valuemin>
								<valuemax>3.98109</valuemax>
								<value>1</value>
							</parameter>
						</effect>
					</filter>
					<filter>
						<effect>
							<name>Audio Pan</name>
							<effectid>audiopan</effectid>
							<effectcategory>audiopan</effectcategory>
							<effecttype>audiopan</effecttype>
							<mediatype>audio</mediatype>
							<parameter>
								<name>Pan</name>
								<parameterid>pan</parameterid>
								<valuemin>-1</valuemin>
								<valuemax>1</valuemax>
								<value>0</value>
							</parameter>
						</effect>
					</filter>
					<sourcetrack>
						<mediatype>audio</mediatype>
						<trackindex>1</trackindex>
					</sourcetrack>
					<link>
						<linkclipref>010_07_02_A</linkclipref>
						<mediatype>video</mediatype>
						<trackindex>1</trackindex>
						<clipindex>41</clipindex>
					</link>
					<link>
						<linkclipref>010_07_02_A2</linkclipref>
						<mediatype>audio</mediatype>
						<trackindex>1</trackindex>
						<clipindex>41</clipindex>
					</link>
					<link>
						<linkclipref>010_07_02_A3</linkclipref>
						<mediatype>audio</mediatype>
						<trackindex>2</trackindex>
						<clipindex>41</clipindex>
					</link>
					<link>
						<linkclipref>010_07_02_A4</linkclipref>
						<mediatype>audio</mediatype>
						<trackindex>3</trackindex>
						<clipindex>39</clipindex>
					</link>
					<itemhistory>
						<uuid>8AC1AA9F-24F7-4AFB-9835-4060FA525D3E</uuid>
					</itemhistory>
				</clipitem>
				<clipitem id="010_07_02_B_KP2">
					<name>010_07_02_B_KP</name>
					<duration>474</duration>
					<rate>
						<ntsc>FALSE</ntsc>
						<timebase>24</timebase>
					</rate>
					<in>270</in>
					<out>320</out>
					<start>25918</start>
					<end>25968</end>
					<subframeoffset>0</subframeoffset>
					<enabled>TRUE</enabled>
					<masterclipid>010_07_02_B_KP1</masterclipid>
					<logginginfo>
						<scene/>
						<shottake/>
						<lognote/>
						<good>FALSE</good>
					</logginginfo>
					<labels>
						<label2/>
					</labels>
					<comments>
						<mastercomment1/>
						<mastercomment2/>
						<mastercomment3/>
						<mastercomment4/>
					</comments>
					<file id="B002C006_130101_R1WX"/>
					<filter>
						<effect>
							<name>Audio Levels</name>
							<effectid>audiolevels</effectid>
							<effectcategory>audiolevels</effectcategory>
							<effecttype>audiolevels</effecttype>
							<mediatype>audio</mediatype>
							<parameter>
								<name>Level</name>
								<parameterid>level</parameterid>
								<valuemin>0</valuemin>
								<valuemax>3.98109</valuemax>
								<value>1</value>
							</parameter>
						</effect>
					</filter>
					<filter>
						<effect>
							<name>Audio Pan</name>
							<effectid>audiopan</effectid>
							<effectcategory>audiopan</effectcategory>
							<effecttype>audiopan</effecttype>
							<mediatype>audio</mediatype>
							<parameter>
								<name>Pan</name>
								<parameterid>pan</parameterid>
								<valuemin>-1</valuemin>
								<valuemax>1</valuemax>
								<value>0</value>
							</parameter>
						</effect>
					</filter>
					<sourcetrack>
						<mediatype>audio</mediatype>
						<trackindex>1</trackindex>
					</sourcetrack>
					<link>
						<linkclipref>010_07_02_B_KP</linkclipref>
						<mediatype>video</mediatype>
						<trackindex>1</trackindex>
						<clipindex>42</clipindex>
					</link>
					<link>
						<linkclipref>010_07_02_B_KP2</linkclipref>
						<mediatype>audio</mediatype>
						<trackindex>1</trackindex>
						<clipindex>42</clipindex>
					</link>
					<link>
						<linkclipref>010_07_02_B_KP3</linkclipref>
						<mediatype>audio</mediatype>
						<trackindex>2</trackindex>
						<clipindex>42</clipindex>
					</link>
					<link>
						<linkclipref>010_07_02_B_KP4</linkclipref>
						<mediatype>audio</mediatype>
						<trackindex>3</trackindex>
						<clipindex>40</clipindex>
					</link>
					<link>
						<linkclipref>010_07_02_B_KP5</linkclipref>
						<mediatype>audio</mediatype>
						<trackindex>4</trackindex>
						<clipindex>28</clipindex>
					</link>
					<itemhistory>
						<uuid>9715D06A-8B17-4275-A944-F367A76670F4</uuid>
					</itemhistory>
				</clipitem>
				<clipitem id="010_07_03_A2">
					<name>010_07_03_A</name>
					<duration>727</duration>
					<rate>
						<ntsc>FALSE</ntsc>
						<timebase>24</timebase>
					</rate>
					<in>0</in>
					<out>727</out>
					<start>25968</start>
					<end>26695</end>
					<subframeoffset>0</subframeoffset>
					<enabled>TRUE</enabled>
					<masterclipid>010_07_03_A1</masterclipid>
					<logginginfo>
						<scene/>
						<shottake/>
						<lognote/>
						<good>FALSE</good>
					</logginginfo>
					<labels>
						<label2/>
					</labels>
					<comments>
						<mastercomment1/>
						<mastercomment2/>
						<mastercomment3/>
						<mastercomment4/>
					</comments>
					<file id="A002C007_221211_R03K"/>
					<filter>
						<effect>
							<name>Audio Levels</name>
							<effectid>audiolevels</effectid>
							<effectcategory>audiolevels</effectcategory>
							<effecttype>audiolevels</effecttype>
							<mediatype>audio</mediatype>
							<parameter>
								<name>Level</name>
								<parameterid>level</parameterid>
								<valuemin>0</valuemin>
								<valuemax>3.98109</valuemax>
								<value>1</value>
							</parameter>
						</effect>
					</filter>
					<filter>
						<effect>
							<name>Audio Pan</name>
							<effectid>audiopan</effectid>
							<effectcategory>audiopan</effectcategory>
							<effecttype>audiopan</effecttype>
							<mediatype>audio</mediatype>
							<parameter>
								<name>Pan</name>
								<parameterid>pan</parameterid>
								<valuemin>-1</valuemin>
								<valuemax>1</valuemax>
								<value>0</value>
							</parameter>
						</effect>
					</filter>
					<sourcetrack>
						<mediatype>audio</mediatype>
						<trackindex>1</trackindex>
					</sourcetrack>
					<link>
						<linkclipref>010_07_03_A</linkclipref>
						<mediatype>video</mediatype>
						<trackindex>1</trackindex>
						<clipindex>43</clipindex>
					</link>
					<link>
						<linkclipref>010_07_03_A2</linkclipref>
						<mediatype>audio</mediatype>
						<trackindex>1</trackindex>
						<clipindex>43</clipindex>
					</link>
					<link>
						<linkclipref>010_07_03_A3</linkclipref>
						<mediatype>audio</mediatype>
						<trackindex>2</trackindex>
						<clipindex>43</clipindex>
					</link>
					<link>
						<linkclipref>010_07_03_A4</linkclipref>
						<mediatype>audio</mediatype>
						<trackindex>3</trackindex>
						<clipindex>41</clipindex>
					</link>
					<itemhistory>
						<uuid>9A6B7253-A15D-48AF-90B9-9C520EB9AE1C</uuid>
					</itemhistory>
				</clipitem>
				<clipitem id="010_07_04_A2">
					<name>010_07_04_A</name>
					<duration>554</duration>
					<rate>
						<ntsc>FALSE</ntsc>
						<timebase>24</timebase>
					</rate>
					<in>0</in>
					<out>554</out>
					<start>26695</start>
					<end>27249</end>
					<subframeoffset>0</subframeoffset>
					<enabled>TRUE</enabled>
					<masterclipid>010_07_04_A1</masterclipid>
					<logginginfo>
						<scene/>
						<shottake/>
						<lognote/>
						<good>FALSE</good>
					</logginginfo>
					<labels>
						<label2/>
					</labels>
					<comments>
						<mastercomment1/>
						<mastercomment2/>
						<mastercomment3/>
						<mastercomment4/>
					</comments>
					<file id="A002C008_221211_R03K"/>
					<filter>
						<effect>
							<name>Audio Levels</name>
							<effectid>audiolevels</effectid>
							<effectcategory>audiolevels</effectcategory>
							<effecttype>audiolevels</effecttype>
							<mediatype>audio</mediatype>
							<parameter>
								<name>Level</name>
								<parameterid>level</parameterid>
								<valuemin>0</valuemin>
								<valuemax>3.98109</valuemax>
								<value>1</value>
							</parameter>
						</effect>
					</filter>
					<filter>
						<effect>
							<name>Audio Pan</name>
							<effectid>audiopan</effectid>
							<effectcategory>audiopan</effectcategory>
							<effecttype>audiopan</effecttype>
							<mediatype>audio</mediatype>
							<parameter>
								<name>Pan</name>
								<parameterid>pan</parameterid>
								<valuemin>-1</valuemin>
								<valuemax>1</valuemax>
								<value>0</value>
							</parameter>
						</effect>
					</filter>
					<sourcetrack>
						<mediatype>audio</mediatype>
						<trackindex>1</trackindex>
					</sourcetrack>
					<link>
						<linkclipref>010_07_04_A</linkclipref>
						<mediatype>video</mediatype>
						<trackindex>1</trackindex>
						<clipindex>44</clipindex>
					</link>
					<link>
						<linkclipref>010_07_04_A2</linkclipref>
						<mediatype>audio</mediatype>
						<trackindex>1</trackindex>
						<clipindex>44</clipindex>
					</link>
					<link>
						<linkclipref>010_07_04_A3</linkclipref>
						<mediatype>audio</mediatype>
						<trackindex>2</trackindex>
						<clipindex>44</clipindex>
					</link>
					<link>
						<linkclipref>010_07_04_A4</linkclipref>
						<mediatype>audio</mediatype>
						<trackindex>3</trackindex>
						<clipindex>42</clipindex>
					</link>
					<itemhistory>
						<uuid>3B4608F5-36E0-4919-AA4C-D1DE57A53926</uuid>
					</itemhistory>
				</clipitem>
				<clipitem id="010_07_05_A2">
					<name>010_07_05_A</name>
					<duration>594</duration>
					<rate>
						<ntsc>FALSE</ntsc>
						<timebase>24</timebase>
					</rate>
					<in>0</in>
					<out>594</out>
					<start>27249</start>
					<end>27843</end>
					<subframeoffset>0</subframeoffset>
					<enabled>TRUE</enabled>
					<masterclipid>010_07_05_A1</masterclipid>
					<logginginfo>
						<scene/>
						<shottake/>
						<lognote/>
						<good>FALSE</good>
					</logginginfo>
					<labels>
						<label2/>
					</labels>
					<comments>
						<mastercomment1/>
						<mastercomment2/>
						<mastercomment3/>
						<mastercomment4/>
					</comments>
					<file id="A002C009_221211_R03K"/>
					<filter>
						<effect>
							<name>Audio Levels</name>
							<effectid>audiolevels</effectid>
							<effectcategory>audiolevels</effectcategory>
							<effecttype>audiolevels</effecttype>
							<mediatype>audio</mediatype>
							<parameter>
								<name>Level</name>
								<parameterid>level</parameterid>
								<valuemin>0</valuemin>
								<valuemax>3.98109</valuemax>
								<value>1</value>
							</parameter>
						</effect>
					</filter>
					<filter>
						<effect>
							<name>Audio Pan</name>
							<effectid>audiopan</effectid>
							<effectcategory>audiopan</effectcategory>
							<effecttype>audiopan</effecttype>
							<mediatype>audio</mediatype>
							<parameter>
								<name>Pan</name>
								<parameterid>pan</parameterid>
								<valuemin>-1</valuemin>
								<valuemax>1</valuemax>
								<value>0</value>
							</parameter>
						</effect>
					</filter>
					<sourcetrack>
						<mediatype>audio</mediatype>
						<trackindex>1</trackindex>
					</sourcetrack>
					<link>
						<linkclipref>010_07_05_A</linkclipref>
						<mediatype>video</mediatype>
						<trackindex>1</trackindex>
						<clipindex>45</clipindex>
					</link>
					<link>
						<linkclipref>010_07_05_A2</linkclipref>
						<mediatype>audio</mediatype>
						<trackindex>1</trackindex>
						<clipindex>45</clipindex>
					</link>
					<link>
						<linkclipref>010_07_05_A3</linkclipref>
						<mediatype>audio</mediatype>
						<trackindex>2</trackindex>
						<clipindex>45</clipindex>
					</link>
					<link>
						<linkclipref>010_07_05_A4</linkclipref>
						<mediatype>audio</mediatype>
						<trackindex>3</trackindex>
						<clipindex>43</clipindex>
					</link>
					<itemhistory>
						<uuid>2BA453E4-3505-472E-ABC8-A3E0F042498C</uuid>
					</itemhistory>
				</clipitem>
				<clipitem id="010_07_06_A2">
					<name>010_07_06_A</name>
					<duration>559</duration>
					<rate>
						<ntsc>FALSE</ntsc>
						<timebase>24</timebase>
					</rate>
					<in>0</in>
					<out>559</out>
					<start>27843</start>
					<end>28402</end>
					<subframeoffset>0</subframeoffset>
					<enabled>TRUE</enabled>
					<masterclipid>010_07_06_A1</masterclipid>
					<logginginfo>
						<scene/>
						<shottake/>
						<lognote/>
						<good>FALSE</good>
					</logginginfo>
					<labels>
						<label2/>
					</labels>
					<comments>
						<mastercomment1/>
						<mastercomment2/>
						<mastercomment3/>
						<mastercomment4/>
					</comments>
					<file id="A002C010_221211_R03K"/>
					<filter>
						<effect>
							<name>Audio Levels</name>
							<effectid>audiolevels</effectid>
							<effectcategory>audiolevels</effectcategory>
							<effecttype>audiolevels</effecttype>
							<mediatype>audio</mediatype>
							<parameter>
								<name>Level</name>
								<parameterid>level</parameterid>
								<valuemin>0</valuemin>
								<valuemax>3.98109</valuemax>
								<value>1</value>
							</parameter>
						</effect>
					</filter>
					<filter>
						<effect>
							<name>Audio Pan</name>
							<effectid>audiopan</effectid>
							<effectcategory>audiopan</effectcategory>
							<effecttype>audiopan</effecttype>
							<mediatype>audio</mediatype>
							<parameter>
								<name>Pan</name>
								<parameterid>pan</parameterid>
								<valuemin>-1</valuemin>
								<valuemax>1</valuemax>
								<value>0</value>
							</parameter>
						</effect>
					</filter>
					<sourcetrack>
						<mediatype>audio</mediatype>
						<trackindex>1</trackindex>
					</sourcetrack>
					<link>
						<linkclipref>010_07_06_A</linkclipref>
						<mediatype>video</mediatype>
						<trackindex>1</trackindex>
						<clipindex>46</clipindex>
					</link>
					<link>
						<linkclipref>010_07_06_A2</linkclipref>
						<mediatype>audio</mediatype>
						<trackindex>1</trackindex>
						<clipindex>46</clipindex>
					</link>
					<link>
						<linkclipref>010_07_06_A3</linkclipref>
						<mediatype>audio</mediatype>
						<trackindex>2</trackindex>
						<clipindex>46</clipindex>
					</link>
					<link>
						<linkclipref>010_07_06_A4</linkclipref>
						<mediatype>audio</mediatype>
						<trackindex>3</trackindex>
						<clipindex>44</clipindex>
					</link>
					<itemhistory>
						<uuid>C38BA38F-80A2-4525-B5C9-6EC17F601E75</uuid>
					</itemhistory>
				</clipitem>
				<clipitem id="010_07_07_A2">
					<name>010_07_07_A</name>
					<duration>309</duration>
					<rate>
						<ntsc>FALSE</ntsc>
						<timebase>24</timebase>
					</rate>
					<in>0</in>
					<out>309</out>
					<start>28402</start>
					<end>28711</end>
					<subframeoffset>0</subframeoffset>
					<enabled>TRUE</enabled>
					<masterclipid>010_07_07_A1</masterclipid>
					<logginginfo>
						<scene/>
						<shottake/>
						<lognote/>
						<good>FALSE</good>
					</logginginfo>
					<labels>
						<label2/>
					</labels>
					<comments>
						<mastercomment1/>
						<mastercomment2/>
						<mastercomment3/>
						<mastercomment4/>
					</comments>
					<file id="A002C011_221211_R03K"/>
					<filter>
						<effect>
							<name>Audio Levels</name>
							<effectid>audiolevels</effectid>
							<effectcategory>audiolevels</effectcategory>
							<effecttype>audiolevels</effecttype>
							<mediatype>audio</mediatype>
							<parameter>
								<name>Level</name>
								<parameterid>level</parameterid>
								<valuemin>0</valuemin>
								<valuemax>3.98109</valuemax>
								<value>1</value>
							</parameter>
						</effect>
					</filter>
					<filter>
						<effect>
							<name>Audio Pan</name>
							<effectid>audiopan</effectid>
							<effectcategory>audiopan</effectcategory>
							<effecttype>audiopan</effecttype>
							<mediatype>audio</mediatype>
							<parameter>
								<name>Pan</name>
								<parameterid>pan</parameterid>
								<valuemin>-1</valuemin>
								<valuemax>1</valuemax>
								<value>0</value>
							</parameter>
						</effect>
					</filter>
					<sourcetrack>
						<mediatype>audio</mediatype>
						<trackindex>1</trackindex>
					</sourcetrack>
					<link>
						<linkclipref>010_07_07_A</linkclipref>
						<mediatype>video</mediatype>
						<trackindex>1</trackindex>
						<clipindex>47</clipindex>
					</link>
					<link>
						<linkclipref>010_07_07_A2</linkclipref>
						<mediatype>audio</mediatype>
						<trackindex>1</trackindex>
						<clipindex>47</clipindex>
					</link>
					<link>
						<linkclipref>010_07_07_A3</linkclipref>
						<mediatype>audio</mediatype>
						<trackindex>2</trackindex>
						<clipindex>47</clipindex>
					</link>
					<link>
						<linkclipref>010_07_07_A4</linkclipref>
						<mediatype>audio</mediatype>
						<trackindex>3</trackindex>
						<clipindex>45</clipindex>
					</link>
					<itemhistory>
						<uuid>1CF7BCF8-F637-4350-A0BF-6218E78FF423</uuid>
					</itemhistory>
				</clipitem>
				<clipitem id="010_07_08_A_OK2">
					<name>010_07_08_A_OK</name>
					<duration>678</duration>
					<rate>
						<ntsc>FALSE</ntsc>
						<timebase>24</timebase>
					</rate>
					<in>356</in>
					<out>456</out>
					<start>28711</start>
					<end>28811</end>
					<subframeoffset>0</subframeoffset>
					<enabled>TRUE</enabled>
					<masterclipid>010_07_08_A_OK1</masterclipid>
					<logginginfo>
						<scene/>
						<shottake/>
						<lognote/>
						<good>FALSE</good>
					</logginginfo>
					<labels>
						<label2/>
					</labels>
					<comments>
						<mastercomment1/>
						<mastercomment2/>
						<mastercomment3/>
						<mastercomment4/>
					</comments>
					<file id="A002C012_221211_R03K"/>
					<filter>
						<effect>
							<name>Audio Levels</name>
							<effectid>audiolevels</effectid>
							<effectcategory>audiolevels</effectcategory>
							<effecttype>audiolevels</effecttype>
							<mediatype>audio</mediatype>
							<parameter>
								<name>Level</name>
								<parameterid>level</parameterid>
								<valuemin>0</valuemin>
								<valuemax>3.98109</valuemax>
								<value>1</value>
							</parameter>
						</effect>
					</filter>
					<filter>
						<effect>
							<name>Audio Pan</name>
							<effectid>audiopan</effectid>
							<effectcategory>audiopan</effectcategory>
							<effecttype>audiopan</effecttype>
							<mediatype>audio</mediatype>
							<parameter>
								<name>Pan</name>
								<parameterid>pan</parameterid>
								<valuemin>-1</valuemin>
								<valuemax>1</valuemax>
								<value>0</value>
							</parameter>
						</effect>
					</filter>
					<sourcetrack>
						<mediatype>audio</mediatype>
						<trackindex>1</trackindex>
					</sourcetrack>
					<link>
						<linkclipref>010_07_08_A_OK</linkclipref>
						<mediatype>video</mediatype>
						<trackindex>1</trackindex>
						<clipindex>48</clipindex>
					</link>
					<link>
						<linkclipref>010_07_08_A_OK2</linkclipref>
						<mediatype>audio</mediatype>
						<trackindex>1</trackindex>
						<clipindex>48</clipindex>
					</link>
					<link>
						<linkclipref>010_07_08_A_OK3</linkclipref>
						<mediatype>audio</mediatype>
						<trackindex>2</trackindex>
						<clipindex>48</clipindex>
					</link>
					<link>
						<linkclipref>010_07_08_A_OK4</linkclipref>
						<mediatype>audio</mediatype>
						<trackindex>3</trackindex>
						<clipindex>46</clipindex>
					</link>
					<itemhistory>
						<uuid>DC072DFF-123A-43B4-8009-D271DC08354C</uuid>
					</itemhistory>
				</clipitem>
				<clipitem id="010_07_09_A2">
					<name>010_07_09_A</name>
					<duration>735</duration>
					<rate>
						<ntsc>FALSE</ntsc>
						<timebase>24</timebase>
					</rate>
					<in>0</in>
					<out>735</out>
					<start>28811</start>
					<end>29546</end>
					<subframeoffset>0</subframeoffset>
					<enabled>TRUE</enabled>
					<masterclipid>010_07_09_A1</masterclipid>
					<logginginfo>
						<scene/>
						<shottake/>
						<lognote/>
						<good>FALSE</good>
					</logginginfo>
					<labels>
						<label2/>
					</labels>
					<comments>
						<mastercomment1/>
						<mastercomment2/>
						<mastercomment3/>
						<mastercomment4/>
					</comments>
					<file id="A002C013_221211_R03K"/>
					<filter>
						<effect>
							<name>Audio Levels</name>
							<effectid>audiolevels</effectid>
							<effectcategory>audiolevels</effectcategory>
							<effecttype>audiolevels</effecttype>
							<mediatype>audio</mediatype>
							<parameter>
								<name>Level</name>
								<parameterid>level</parameterid>
								<valuemin>0</valuemin>
								<valuemax>3.98109</valuemax>
								<value>1</value>
							</parameter>
						</effect>
					</filter>
					<filter>
						<effect>
							<name>Audio Pan</name>
							<effectid>audiopan</effectid>
							<effectcategory>audiopan</effectcategory>
							<effecttype>audiopan</effecttype>
							<mediatype>audio</mediatype>
							<parameter>
								<name>Pan</name>
								<parameterid>pan</parameterid>
								<valuemin>-1</valuemin>
								<valuemax>1</valuemax>
								<value>0</value>
							</parameter>
						</effect>
					</filter>
					<sourcetrack>
						<mediatype>audio</mediatype>
						<trackindex>1</trackindex>
					</sourcetrack>
					<link>
						<linkclipref>010_07_09_A</linkclipref>
						<mediatype>video</mediatype>
						<trackindex>1</trackindex>
						<clipindex>49</clipindex>
					</link>
					<link>
						<linkclipref>010_07_09_A2</linkclipref>
						<mediatype>audio</mediatype>
						<trackindex>1</trackindex>
						<clipindex>49</clipindex>
					</link>
					<link>
						<linkclipref>010_07_09_A3</linkclipref>
						<mediatype>audio</mediatype>
						<trackindex>2</trackindex>
						<clipindex>49</clipindex>
					</link>
					<link>
						<linkclipref>010_07_09_A4</linkclipref>
						<mediatype>audio</mediatype>
						<trackindex>3</trackindex>
						<clipindex>47</clipindex>
					</link>
					<itemhistory>
						<uuid>FCA95B77-A16F-4E2C-9E97-BB4D7C9B69EB</uuid>
					</itemhistory>
				</clipitem>
				<clipitem id="010_07_10_A2">
					<name>010_07_10_A</name>
					<duration>686</duration>
					<rate>
						<ntsc>FALSE</ntsc>
						<timebase>24</timebase>
					</rate>
					<in>0</in>
					<out>686</out>
					<start>29546</start>
					<end>30232</end>
					<subframeoffset>0</subframeoffset>
					<enabled>TRUE</enabled>
					<masterclipid>010_07_10_A1</masterclipid>
					<logginginfo>
						<scene/>
						<shottake/>
						<lognote/>
						<good>FALSE</good>
					</logginginfo>
					<labels>
						<label2/>
					</labels>
					<comments>
						<mastercomment1/>
						<mastercomment2/>
						<mastercomment3/>
						<mastercomment4/>
					</comments>
					<file id="A002C014_221211_R03K"/>
					<filter>
						<effect>
							<name>Audio Levels</name>
							<effectid>audiolevels</effectid>
							<effectcategory>audiolevels</effectcategory>
							<effecttype>audiolevels</effecttype>
							<mediatype>audio</mediatype>
							<parameter>
								<name>Level</name>
								<parameterid>level</parameterid>
								<valuemin>0</valuemin>
								<valuemax>3.98109</valuemax>
								<value>1</value>
							</parameter>
						</effect>
					</filter>
					<filter>
						<effect>
							<name>Audio Pan</name>
							<effectid>audiopan</effectid>
							<effectcategory>audiopan</effectcategory>
							<effecttype>audiopan</effecttype>
							<mediatype>audio</mediatype>
							<parameter>
								<name>Pan</name>
								<parameterid>pan</parameterid>
								<valuemin>-1</valuemin>
								<valuemax>1</valuemax>
								<value>0</value>
							</parameter>
						</effect>
					</filter>
					<sourcetrack>
						<mediatype>audio</mediatype>
						<trackindex>1</trackindex>
					</sourcetrack>
					<link>
						<linkclipref>010_07_10_A</linkclipref>
						<mediatype>video</mediatype>
						<trackindex>1</trackindex>
						<clipindex>50</clipindex>
					</link>
					<link>
						<linkclipref>010_07_10_A2</linkclipref>
						<mediatype>audio</mediatype>
						<trackindex>1</trackindex>
						<clipindex>50</clipindex>
					</link>
					<link>
						<linkclipref>010_07_10_A3</linkclipref>
						<mediatype>audio</mediatype>
						<trackindex>2</trackindex>
						<clipindex>50</clipindex>
					</link>
					<link>
						<linkclipref>010_07_10_A4</linkclipref>
						<mediatype>audio</mediatype>
						<trackindex>3</trackindex>
						<clipindex>48</clipindex>
					</link>
					<itemhistory>
						<uuid>49EF2284-C96F-49C4-AAC4-5B91E47C06B7</uuid>
					</itemhistory>
				</clipitem>
				<clipitem id="010_07_11_A2">
					<name>010_07_11_A</name>
					<duration>434</duration>
					<rate>
						<ntsc>FALSE</ntsc>
						<timebase>24</timebase>
					</rate>
					<in>0</in>
					<out>434</out>
					<start>30232</start>
					<end>30666</end>
					<subframeoffset>0</subframeoffset>
					<enabled>TRUE</enabled>
					<masterclipid>010_07_11_A1</masterclipid>
					<logginginfo>
						<scene/>
						<shottake/>
						<lognote/>
						<good>FALSE</good>
					</logginginfo>
					<labels>
						<label2/>
					</labels>
					<comments>
						<mastercomment1/>
						<mastercomment2/>
						<mastercomment3/>
						<mastercomment4/>
					</comments>
					<file id="A002C015_221211_R03K"/>
					<filter>
						<effect>
							<name>Audio Levels</name>
							<effectid>audiolevels</effectid>
							<effectcategory>audiolevels</effectcategory>
							<effecttype>audiolevels</effecttype>
							<mediatype>audio</mediatype>
							<parameter>
								<name>Level</name>
								<parameterid>level</parameterid>
								<valuemin>0</valuemin>
								<valuemax>3.98109</valuemax>
								<value>1</value>
							</parameter>
						</effect>
					</filter>
					<filter>
						<effect>
							<name>Audio Pan</name>
							<effectid>audiopan</effectid>
							<effectcategory>audiopan</effectcategory>
							<effecttype>audiopan</effecttype>
							<mediatype>audio</mediatype>
							<parameter>
								<name>Pan</name>
								<parameterid>pan</parameterid>
								<valuemin>-1</valuemin>
								<valuemax>1</valuemax>
								<value>0</value>
							</parameter>
						</effect>
					</filter>
					<sourcetrack>
						<mediatype>audio</mediatype>
						<trackindex>1</trackindex>
					</sourcetrack>
					<link>
						<linkclipref>010_07_11_A</linkclipref>
						<mediatype>video</mediatype>
						<trackindex>1</trackindex>
						<clipindex>51</clipindex>
					</link>
					<link>
						<linkclipref>010_07_11_A2</linkclipref>
						<mediatype>audio</mediatype>
						<trackindex>1</trackindex>
						<clipindex>51</clipindex>
					</link>
					<link>
						<linkclipref>010_07_11_A3</linkclipref>
						<mediatype>audio</mediatype>
						<trackindex>2</trackindex>
						<clipindex>51</clipindex>
					</link>
					<link>
						<linkclipref>010_07_11_A4</linkclipref>
						<mediatype>audio</mediatype>
						<trackindex>3</trackindex>
						<clipindex>49</clipindex>
					</link>
					<itemhistory>
						<uuid>3407ABF2-C34F-4E11-959E-D565B45E93A1</uuid>
					</itemhistory>
				</clipitem>
				<clipitem id="010_07_12_A2">
					<name>010_07_12_A</name>
					<duration>416</duration>
					<rate>
						<ntsc>FALSE</ntsc>
						<timebase>24</timebase>
					</rate>
					<in>0</in>
					<out>416</out>
					<start>30666</start>
					<end>31082</end>
					<subframeoffset>0</subframeoffset>
					<enabled>TRUE</enabled>
					<masterclipid>010_07_12_A1</masterclipid>
					<logginginfo>
						<scene/>
						<shottake/>
						<lognote/>
						<good>FALSE</good>
					</logginginfo>
					<labels>
						<label2/>
					</labels>
					<comments>
						<mastercomment1/>
						<mastercomment2/>
						<mastercomment3/>
						<mastercomment4/>
					</comments>
					<file id="A002C016_221211_R03K"/>
					<filter>
						<effect>
							<name>Audio Levels</name>
							<effectid>audiolevels</effectid>
							<effectcategory>audiolevels</effectcategory>
							<effecttype>audiolevels</effecttype>
							<mediatype>audio</mediatype>
							<parameter>
								<name>Level</name>
								<parameterid>level</parameterid>
								<valuemin>0</valuemin>
								<valuemax>3.98109</valuemax>
								<value>1</value>
							</parameter>
						</effect>
					</filter>
					<filter>
						<effect>
							<name>Audio Pan</name>
							<effectid>audiopan</effectid>
							<effectcategory>audiopan</effectcategory>
							<effecttype>audiopan</effecttype>
							<mediatype>audio</mediatype>
							<parameter>
								<name>Pan</name>
								<parameterid>pan</parameterid>
								<valuemin>-1</valuemin>
								<valuemax>1</valuemax>
								<value>0</value>
							</parameter>
						</effect>
					</filter>
					<sourcetrack>
						<mediatype>audio</mediatype>
						<trackindex>1</trackindex>
					</sourcetrack>
					<link>
						<linkclipref>010_07_12_A</linkclipref>
						<mediatype>video</mediatype>
						<trackindex>1</trackindex>
						<clipindex>52</clipindex>
					</link>
					<link>
						<linkclipref>010_07_12_A2</linkclipref>
						<mediatype>audio</mediatype>
						<trackindex>1</trackindex>
						<clipindex>52</clipindex>
					</link>
					<link>
						<linkclipref>010_07_12_A3</linkclipref>
						<mediatype>audio</mediatype>
						<trackindex>2</trackindex>
						<clipindex>52</clipindex>
					</link>
					<link>
						<linkclipref>010_07_12_A4</linkclipref>
						<mediatype>audio</mediatype>
						<trackindex>3</trackindex>
						<clipindex>50</clipindex>
					</link>
					<itemhistory>
						<uuid>1D15F4A3-CB67-40F9-ABAF-68422CFE56E2</uuid>
					</itemhistory>
				</clipitem>
				<clipitem id="010_07_13_A2">
					<name>010_07_13_A</name>
					<duration>394</duration>
					<rate>
						<ntsc>FALSE</ntsc>
						<timebase>24</timebase>
					</rate>
					<in>0</in>
					<out>394</out>
					<start>31082</start>
					<end>31476</end>
					<subframeoffset>0</subframeoffset>
					<enabled>TRUE</enabled>
					<masterclipid>010_07_13_A1</masterclipid>
					<logginginfo>
						<scene/>
						<shottake/>
						<lognote/>
						<good>FALSE</good>
					</logginginfo>
					<labels>
						<label2/>
					</labels>
					<comments>
						<mastercomment1/>
						<mastercomment2/>
						<mastercomment3/>
						<mastercomment4/>
					</comments>
					<file id="A002C017_221211_R03K"/>
					<filter>
						<effect>
							<name>Audio Levels</name>
							<effectid>audiolevels</effectid>
							<effectcategory>audiolevels</effectcategory>
							<effecttype>audiolevels</effecttype>
							<mediatype>audio</mediatype>
							<parameter>
								<name>Level</name>
								<parameterid>level</parameterid>
								<valuemin>0</valuemin>
								<valuemax>3.98109</valuemax>
								<value>1</value>
							</parameter>
						</effect>
					</filter>
					<filter>
						<effect>
							<name>Audio Pan</name>
							<effectid>audiopan</effectid>
							<effectcategory>audiopan</effectcategory>
							<effecttype>audiopan</effecttype>
							<mediatype>audio</mediatype>
							<parameter>
								<name>Pan</name>
								<parameterid>pan</parameterid>
								<valuemin>-1</valuemin>
								<valuemax>1</valuemax>
								<value>0</value>
							</parameter>
						</effect>
					</filter>
					<sourcetrack>
						<mediatype>audio</mediatype>
						<trackindex>1</trackindex>
					</sourcetrack>
					<link>
						<linkclipref>010_07_13_A</linkclipref>
						<mediatype>video</mediatype>
						<trackindex>1</trackindex>
						<clipindex>53</clipindex>
					</link>
					<link>
						<linkclipref>010_07_13_A2</linkclipref>
						<mediatype>audio</mediatype>
						<trackindex>1</trackindex>
						<clipindex>53</clipindex>
					</link>
					<link>
						<linkclipref>010_07_13_A3</linkclipref>
						<mediatype>audio</mediatype>
						<trackindex>2</trackindex>
						<clipindex>53</clipindex>
					</link>
					<link>
						<linkclipref>010_07_13_A4</linkclipref>
						<mediatype>audio</mediatype>
						<trackindex>3</trackindex>
						<clipindex>51</clipindex>
					</link>
					<itemhistory>
						<uuid>47BD5A11-B11E-4886-AA64-03EDB189A24E</uuid>
					</itemhistory>
				</clipitem>
				<clipitem id="010_07_14_A_OK2">
					<name>010_07_14_A_OK</name>
					<duration>635</duration>
					<rate>
						<ntsc>FALSE</ntsc>
						<timebase>24</timebase>
					</rate>
					<in>167</in>
					<out>270</out>
					<start>31476</start>
					<end>31579</end>
					<subframeoffset>0</subframeoffset>
					<enabled>TRUE</enabled>
					<masterclipid>010_07_14_A_OK1</masterclipid>
					<logginginfo>
						<scene/>
						<shottake/>
						<lognote/>
						<good>FALSE</good>
					</logginginfo>
					<labels>
						<label2/>
					</labels>
					<comments>
						<mastercomment1/>
						<mastercomment2/>
						<mastercomment3/>
						<mastercomment4/>
					</comments>
					<file id="A002C018_221211_R03K"/>
					<filter>
						<effect>
							<name>Audio Levels</name>
							<effectid>audiolevels</effectid>
							<effectcategory>audiolevels</effectcategory>
							<effecttype>audiolevels</effecttype>
							<mediatype>audio</mediatype>
							<parameter>
								<name>Level</name>
								<parameterid>level</parameterid>
								<valuemin>0</valuemin>
								<valuemax>3.98109</valuemax>
								<value>1</value>
							</parameter>
						</effect>
					</filter>
					<filter>
						<effect>
							<name>Audio Pan</name>
							<effectid>audiopan</effectid>
							<effectcategory>audiopan</effectcategory>
							<effecttype>audiopan</effecttype>
							<mediatype>audio</mediatype>
							<parameter>
								<name>Pan</name>
								<parameterid>pan</parameterid>
								<valuemin>-1</valuemin>
								<valuemax>1</valuemax>
								<value>0</value>
							</parameter>
						</effect>
					</filter>
					<sourcetrack>
						<mediatype>audio</mediatype>
						<trackindex>1</trackindex>
					</sourcetrack>
					<link>
						<linkclipref>010_07_14_A_OK</linkclipref>
						<mediatype>video</mediatype>
						<trackindex>1</trackindex>
						<clipindex>54</clipindex>
					</link>
					<link>
						<linkclipref>010_07_14_A_OK2</linkclipref>
						<mediatype>audio</mediatype>
						<trackindex>1</trackindex>
						<clipindex>54</clipindex>
					</link>
					<link>
						<linkclipref>010_07_14_A_OK3</linkclipref>
						<mediatype>audio</mediatype>
						<trackindex>2</trackindex>
						<clipindex>54</clipindex>
					</link>
					<link>
						<linkclipref>010_07_14_A_OK4</linkclipref>
						<mediatype>audio</mediatype>
						<trackindex>3</trackindex>
						<clipindex>52</clipindex>
					</link>
					<itemhistory>
						<uuid>C6E1880F-25E7-48A7-9F7A-27F6353E8E85</uuid>
					</itemhistory>
				</clipitem>
				<clipitem id="010_08_01_B2">
					<name>010_08_01_B</name>
					<duration>466</duration>
					<rate>
						<ntsc>FALSE</ntsc>
						<timebase>24</timebase>
					</rate>
					<in>0</in>
					<out>466</out>
					<start>31579</start>
					<end>32045</end>
					<subframeoffset>0</subframeoffset>
					<enabled>TRUE</enabled>
					<masterclipid>010_08_01_B1</masterclipid>
					<logginginfo>
						<scene/>
						<shottake/>
						<lognote/>
						<good>FALSE</good>
					</logginginfo>
					<labels>
						<label2/>
					</labels>
					<comments>
						<mastercomment1/>
						<mastercomment2/>
						<mastercomment3/>
						<mastercomment4/>
					</comments>
					<file id="B002C007_130101_R1WX"/>
					<filter>
						<effect>
							<name>Audio Levels</name>
							<effectid>audiolevels</effectid>
							<effectcategory>audiolevels</effectcategory>
							<effecttype>audiolevels</effecttype>
							<mediatype>audio</mediatype>
							<parameter>
								<name>Level</name>
								<parameterid>level</parameterid>
								<valuemin>0</valuemin>
								<valuemax>3.98109</valuemax>
								<value>1</value>
							</parameter>
						</effect>
					</filter>
					<filter>
						<effect>
							<name>Audio Pan</name>
							<effectid>audiopan</effectid>
							<effectcategory>audiopan</effectcategory>
							<effecttype>audiopan</effecttype>
							<mediatype>audio</mediatype>
							<parameter>
								<name>Pan</name>
								<parameterid>pan</parameterid>
								<valuemin>-1</valuemin>
								<valuemax>1</valuemax>
								<value>0</value>
							</parameter>
						</effect>
					</filter>
					<sourcetrack>
						<mediatype>audio</mediatype>
						<trackindex>1</trackindex>
					</sourcetrack>
					<link>
						<linkclipref>010_08_01_B</linkclipref>
						<mediatype>video</mediatype>
						<trackindex>1</trackindex>
						<clipindex>55</clipindex>
					</link>
					<link>
						<linkclipref>010_08_01_B2</linkclipref>
						<mediatype>audio</mediatype>
						<trackindex>1</trackindex>
						<clipindex>55</clipindex>
					</link>
					<link>
						<linkclipref>010_08_01_B3</linkclipref>
						<mediatype>audio</mediatype>
						<trackindex>2</trackindex>
						<clipindex>55</clipindex>
					</link>
					<link>
						<linkclipref>010_08_01_B4</linkclipref>
						<mediatype>audio</mediatype>
						<trackindex>3</trackindex>
						<clipindex>53</clipindex>
					</link>
					<link>
						<linkclipref>010_08_01_B5</linkclipref>
						<mediatype>audio</mediatype>
						<trackindex>4</trackindex>
						<clipindex>29</clipindex>
					</link>
					<itemhistory>
						<uuid>A1ED4EF5-583B-4715-887C-DF5AD66708EF</uuid>
					</itemhistory>
				</clipitem>
				<clipitem id="010_08_02_B2">
					<name>010_08_02_B</name>
					<duration>495</duration>
					<rate>
						<ntsc>FALSE</ntsc>
						<timebase>24</timebase>
					</rate>
					<in>0</in>
					<out>495</out>
					<start>32045</start>
					<end>32540</end>
					<subframeoffset>0</subframeoffset>
					<enabled>TRUE</enabled>
					<masterclipid>010_08_02_B1</masterclipid>
					<logginginfo>
						<scene/>
						<shottake/>
						<lognote/>
						<good>FALSE</good>
					</logginginfo>
					<labels>
						<label2/>
					</labels>
					<comments>
						<mastercomment1/>
						<mastercomment2/>
						<mastercomment3/>
						<mastercomment4/>
					</comments>
					<file id="B002C008_130101_R1WX"/>
					<filter>
						<effect>
							<name>Audio Levels</name>
							<effectid>audiolevels</effectid>
							<effectcategory>audiolevels</effectcategory>
							<effecttype>audiolevels</effecttype>
							<mediatype>audio</mediatype>
							<parameter>
								<name>Level</name>
								<parameterid>level</parameterid>
								<valuemin>0</valuemin>
								<valuemax>3.98109</valuemax>
								<value>1</value>
							</parameter>
						</effect>
					</filter>
					<filter>
						<effect>
							<name>Audio Pan</name>
							<effectid>audiopan</effectid>
							<effectcategory>audiopan</effectcategory>
							<effecttype>audiopan</effecttype>
							<mediatype>audio</mediatype>
							<parameter>
								<name>Pan</name>
								<parameterid>pan</parameterid>
								<valuemin>-1</valuemin>
								<valuemax>1</valuemax>
								<value>0</value>
							</parameter>
						</effect>
					</filter>
					<sourcetrack>
						<mediatype>audio</mediatype>
						<trackindex>1</trackindex>
					</sourcetrack>
					<link>
						<linkclipref>010_08_02_B</linkclipref>
						<mediatype>video</mediatype>
						<trackindex>1</trackindex>
						<clipindex>56</clipindex>
					</link>
					<link>
						<linkclipref>010_08_02_B2</linkclipref>
						<mediatype>audio</mediatype>
						<trackindex>1</trackindex>
						<clipindex>56</clipindex>
					</link>
					<link>
						<linkclipref>010_08_02_B3</linkclipref>
						<mediatype>audio</mediatype>
						<trackindex>2</trackindex>
						<clipindex>56</clipindex>
					</link>
					<link>
						<linkclipref>010_08_02_B4</linkclipref>
						<mediatype>audio</mediatype>
						<trackindex>3</trackindex>
						<clipindex>54</clipindex>
					</link>
					<link>
						<linkclipref>010_08_02_B5</linkclipref>
						<mediatype>audio</mediatype>
						<trackindex>4</trackindex>
						<clipindex>30</clipindex>
					</link>
					<itemhistory>
						<uuid>A4203B28-9838-4D52-8A73-1C04C3F2AA33</uuid>
					</itemhistory>
				</clipitem>
				<clipitem id="010_08_03_B_OK2">
					<name>010_08_03_B_OK</name>
					<duration>483</duration>
					<rate>
						<ntsc>FALSE</ntsc>
						<timebase>24</timebase>
					</rate>
					<in>0</in>
					<out>483</out>
					<start>32540</start>
					<end>33023</end>
					<subframeoffset>0</subframeoffset>
					<enabled>TRUE</enabled>
					<masterclipid>010_08_03_B_OK1</masterclipid>
					<logginginfo>
						<scene/>
						<shottake/>
						<lognote/>
						<good>FALSE</good>
					</logginginfo>
					<labels>
						<label2/>
					</labels>
					<comments>
						<mastercomment1/>
						<mastercomment2/>
						<mastercomment3/>
						<mastercomment4/>
					</comments>
					<file id="B002C009_130101_R1WX"/>
					<filter>
						<effect>
							<name>Audio Levels</name>
							<effectid>audiolevels</effectid>
							<effectcategory>audiolevels</effectcategory>
							<effecttype>audiolevels</effecttype>
							<mediatype>audio</mediatype>
							<parameter>
								<name>Level</name>
								<parameterid>level</parameterid>
								<valuemin>0</valuemin>
								<valuemax>3.98109</valuemax>
								<value>1</value>
							</parameter>
						</effect>
					</filter>
					<filter>
						<effect>
							<name>Audio Pan</name>
							<effectid>audiopan</effectid>
							<effectcategory>audiopan</effectcategory>
							<effecttype>audiopan</effecttype>
							<mediatype>audio</mediatype>
							<parameter>
								<name>Pan</name>
								<parameterid>pan</parameterid>
								<valuemin>-1</valuemin>
								<valuemax>1</valuemax>
								<value>0</value>
							</parameter>
						</effect>
					</filter>
					<sourcetrack>
						<mediatype>audio</mediatype>
						<trackindex>1</trackindex>
					</sourcetrack>
					<link>
						<linkclipref>010_08_03_B_OK</linkclipref>
						<mediatype>video</mediatype>
						<trackindex>1</trackindex>
						<clipindex>57</clipindex>
					</link>
					<link>
						<linkclipref>010_08_03_B_OK2</linkclipref>
						<mediatype>audio</mediatype>
						<trackindex>1</trackindex>
						<clipindex>57</clipindex>
					</link>
					<link>
						<linkclipref>010_08_03_B_OK3</linkclipref>
						<mediatype>audio</mediatype>
						<trackindex>2</trackindex>
						<clipindex>57</clipindex>
					</link>
					<link>
						<linkclipref>010_08_03_B_OK4</linkclipref>
						<mediatype>audio</mediatype>
						<trackindex>3</trackindex>
						<clipindex>55</clipindex>
					</link>
					<link>
						<linkclipref>010_08_03_B_OK5</linkclipref>
						<mediatype>audio</mediatype>
						<trackindex>4</trackindex>
						<clipindex>31</clipindex>
					</link>
					<itemhistory>
						<uuid>68189D08-6A5C-44BE-ADFE-B989E4AC6BAB</uuid>
					</itemhistory>
				</clipitem>
				<clipitem id="010_08_04_B_OK2">
					<name>010_08_04_B_OK</name>
					<duration>433</duration>
					<rate>
						<ntsc>FALSE</ntsc>
						<timebase>24</timebase>
					</rate>
					<in>77</in>
					<out>433</out>
					<start>33023</start>
					<end>33379</end>
					<subframeoffset>0</subframeoffset>
					<enabled>TRUE</enabled>
					<masterclipid>010_08_04_B_OK1</masterclipid>
					<logginginfo>
						<scene/>
						<shottake/>
						<lognote/>
						<good>FALSE</good>
					</logginginfo>
					<labels>
						<label2/>
					</labels>
					<comments>
						<mastercomment1/>
						<mastercomment2/>
						<mastercomment3/>
						<mastercomment4/>
					</comments>
					<file id="B002C010_130101_R1WX"/>
					<filter>
						<effect>
							<name>Audio Levels</name>
							<effectid>audiolevels</effectid>
							<effectcategory>audiolevels</effectcategory>
							<effecttype>audiolevels</effecttype>
							<mediatype>audio</mediatype>
							<parameter>
								<name>Level</name>
								<parameterid>level</parameterid>
								<valuemin>0</valuemin>
								<valuemax>3.98109</valuemax>
								<value>1</value>
							</parameter>
						</effect>
					</filter>
					<filter>
						<effect>
							<name>Audio Pan</name>
							<effectid>audiopan</effectid>
							<effectcategory>audiopan</effectcategory>
							<effecttype>audiopan</effecttype>
							<mediatype>audio</mediatype>
							<parameter>
								<name>Pan</name>
								<parameterid>pan</parameterid>
								<valuemin>-1</valuemin>
								<valuemax>1</valuemax>
								<value>0</value>
							</parameter>
						</effect>
					</filter>
					<sourcetrack>
						<mediatype>audio</mediatype>
						<trackindex>1</trackindex>
					</sourcetrack>
					<link>
						<linkclipref>010_08_04_B_OK</linkclipref>
						<mediatype>video</mediatype>
						<trackindex>1</trackindex>
						<clipindex>58</clipindex>
					</link>
					<link>
						<linkclipref>010_08_04_B_OK2</linkclipref>
						<mediatype>audio</mediatype>
						<trackindex>1</trackindex>
						<clipindex>58</clipindex>
					</link>
					<link>
						<linkclipref>010_08_04_B_OK3</linkclipref>
						<mediatype>audio</mediatype>
						<trackindex>2</trackindex>
						<clipindex>58</clipindex>
					</link>
					<link>
						<linkclipref>010_08_04_B_OK4</linkclipref>
						<mediatype>audio</mediatype>
						<trackindex>3</trackindex>
						<clipindex>56</clipindex>
					</link>
					<link>
						<linkclipref>010_08_04_B_OK5</linkclipref>
						<mediatype>audio</mediatype>
						<trackindex>4</trackindex>
						<clipindex>32</clipindex>
					</link>
					<itemhistory>
						<uuid>96DE4EA8-4D06-41BB-BF0E-6110815CFCCF</uuid>
					</itemhistory>
				</clipitem>
				<clipitem id="010_09_01_A2">
					<name>010_09_01_A</name>
					<duration>422</duration>
					<rate>
						<ntsc>FALSE</ntsc>
						<timebase>24</timebase>
					</rate>
					<in>0</in>
					<out>422</out>
					<start>33379</start>
					<end>33801</end>
					<subframeoffset>0</subframeoffset>
					<enabled>TRUE</enabled>
					<masterclipid>010_09_01_A1</masterclipid>
					<logginginfo>
						<scene/>
						<shottake/>
						<lognote/>
						<good>FALSE</good>
					</logginginfo>
					<labels>
						<label2/>
					</labels>
					<comments>
						<mastercomment1/>
						<mastercomment2/>
						<mastercomment3/>
						<mastercomment4/>
					</comments>
					<file id="A002C019_221211_R03K"/>
					<filter>
						<effect>
							<name>Audio Levels</name>
							<effectid>audiolevels</effectid>
							<effectcategory>audiolevels</effectcategory>
							<effecttype>audiolevels</effecttype>
							<mediatype>audio</mediatype>
							<parameter>
								<name>Level</name>
								<parameterid>level</parameterid>
								<valuemin>0</valuemin>
								<valuemax>3.98109</valuemax>
								<value>1</value>
							</parameter>
						</effect>
					</filter>
					<filter>
						<effect>
							<name>Audio Pan</name>
							<effectid>audiopan</effectid>
							<effectcategory>audiopan</effectcategory>
							<effecttype>audiopan</effecttype>
							<mediatype>audio</mediatype>
							<parameter>
								<name>Pan</name>
								<parameterid>pan</parameterid>
								<valuemin>-1</valuemin>
								<valuemax>1</valuemax>
								<value>0</value>
							</parameter>
						</effect>
					</filter>
					<sourcetrack>
						<mediatype>audio</mediatype>
						<trackindex>1</trackindex>
					</sourcetrack>
					<link>
						<linkclipref>010_09_01_A</linkclipref>
						<mediatype>video</mediatype>
						<trackindex>1</trackindex>
						<clipindex>59</clipindex>
					</link>
					<link>
						<linkclipref>010_09_01_A2</linkclipref>
						<mediatype>audio</mediatype>
						<trackindex>1</trackindex>
						<clipindex>59</clipindex>
					</link>
					<link>
						<linkclipref>010_09_01_A3</linkclipref>
						<mediatype>audio</mediatype>
						<trackindex>2</trackindex>
						<clipindex>59</clipindex>
					</link>
					<link>
						<linkclipref>010_09_01_A4</linkclipref>
						<mediatype>audio</mediatype>
						<trackindex>3</trackindex>
						<clipindex>57</clipindex>
					</link>
					<link>
						<linkclipref>010_09_01_A5</linkclipref>
						<mediatype>audio</mediatype>
						<trackindex>4</trackindex>
						<clipindex>33</clipindex>
					</link>
					<itemhistory>
						<uuid>B0CA28D0-3FF8-4AA6-B6F9-7757F58DC200</uuid>
					</itemhistory>
				</clipitem>
				<clipitem id="010_09_02_A2">
					<name>010_09_02_A</name>
					<duration>289</duration>
					<rate>
						<ntsc>FALSE</ntsc>
						<timebase>24</timebase>
					</rate>
					<in>0</in>
					<out>289</out>
					<start>33801</start>
					<end>34090</end>
					<subframeoffset>0</subframeoffset>
					<enabled>TRUE</enabled>
					<masterclipid>010_09_02_A1</masterclipid>
					<logginginfo>
						<scene/>
						<shottake/>
						<lognote/>
						<good>FALSE</good>
					</logginginfo>
					<labels>
						<label2/>
					</labels>
					<comments>
						<mastercomment1/>
						<mastercomment2/>
						<mastercomment3/>
						<mastercomment4/>
					</comments>
					<file id="A002C020_221211_R03K"/>
					<filter>
						<effect>
							<name>Audio Levels</name>
							<effectid>audiolevels</effectid>
							<effectcategory>audiolevels</effectcategory>
							<effecttype>audiolevels</effecttype>
							<mediatype>audio</mediatype>
							<parameter>
								<name>Level</name>
								<parameterid>level</parameterid>
								<valuemin>0</valuemin>
								<valuemax>3.98109</valuemax>
								<value>1</value>
							</parameter>
						</effect>
					</filter>
					<filter>
						<effect>
							<name>Audio Pan</name>
							<effectid>audiopan</effectid>
							<effectcategory>audiopan</effectcategory>
							<effecttype>audiopan</effecttype>
							<mediatype>audio</mediatype>
							<parameter>
								<name>Pan</name>
								<parameterid>pan</parameterid>
								<valuemin>-1</valuemin>
								<valuemax>1</valuemax>
								<value>0</value>
							</parameter>
						</effect>
					</filter>
					<sourcetrack>
						<mediatype>audio</mediatype>
						<trackindex>1</trackindex>
					</sourcetrack>
					<link>
						<linkclipref>010_09_02_A</linkclipref>
						<mediatype>video</mediatype>
						<trackindex>1</trackindex>
						<clipindex>60</clipindex>
					</link>
					<link>
						<linkclipref>010_09_02_A2</linkclipref>
						<mediatype>audio</mediatype>
						<trackindex>1</trackindex>
						<clipindex>60</clipindex>
					</link>
					<link>
						<linkclipref>010_09_02_A3</linkclipref>
						<mediatype>audio</mediatype>
						<trackindex>2</trackindex>
						<clipindex>60</clipindex>
					</link>
					<link>
						<linkclipref>010_09_02_A4</linkclipref>
						<mediatype>audio</mediatype>
						<trackindex>3</trackindex>
						<clipindex>58</clipindex>
					</link>
					<link>
						<linkclipref>010_09_02_A5</linkclipref>
						<mediatype>audio</mediatype>
						<trackindex>4</trackindex>
						<clipindex>34</clipindex>
					</link>
					<itemhistory>
						<uuid>828D48DC-4915-4C37-A9EB-374D7CAD064B</uuid>
					</itemhistory>
				</clipitem>
				<clipitem id="010_09_03_A2">
					<name>010_09_03_A</name>
					<duration>221</duration>
					<rate>
						<ntsc>FALSE</ntsc>
						<timebase>24</timebase>
					</rate>
					<in>0</in>
					<out>221</out>
					<start>34090</start>
					<end>34311</end>
					<subframeoffset>0</subframeoffset>
					<enabled>TRUE</enabled>
					<masterclipid>010_09_03_A1</masterclipid>
					<logginginfo>
						<scene/>
						<shottake/>
						<lognote/>
						<good>FALSE</good>
					</logginginfo>
					<labels>
						<label2/>
					</labels>
					<comments>
						<mastercomment1/>
						<mastercomment2/>
						<mastercomment3/>
						<mastercomment4/>
					</comments>
					<file id="A002C021_221211_R03K"/>
					<filter>
						<effect>
							<name>Audio Levels</name>
							<effectid>audiolevels</effectid>
							<effectcategory>audiolevels</effectcategory>
							<effecttype>audiolevels</effecttype>
							<mediatype>audio</mediatype>
							<parameter>
								<name>Level</name>
								<parameterid>level</parameterid>
								<valuemin>0</valuemin>
								<valuemax>3.98109</valuemax>
								<value>1</value>
							</parameter>
						</effect>
					</filter>
					<filter>
						<effect>
							<name>Audio Pan</name>
							<effectid>audiopan</effectid>
							<effectcategory>audiopan</effectcategory>
							<effecttype>audiopan</effecttype>
							<mediatype>audio</mediatype>
							<parameter>
								<name>Pan</name>
								<parameterid>pan</parameterid>
								<valuemin>-1</valuemin>
								<valuemax>1</valuemax>
								<value>0</value>
							</parameter>
						</effect>
					</filter>
					<sourcetrack>
						<mediatype>audio</mediatype>
						<trackindex>1</trackindex>
					</sourcetrack>
					<link>
						<linkclipref>010_09_03_A</linkclipref>
						<mediatype>video</mediatype>
						<trackindex>1</trackindex>
						<clipindex>61</clipindex>
					</link>
					<link>
						<linkclipref>010_09_03_A2</linkclipref>
						<mediatype>audio</mediatype>
						<trackindex>1</trackindex>
						<clipindex>61</clipindex>
					</link>
					<link>
						<linkclipref>010_09_03_A3</linkclipref>
						<mediatype>audio</mediatype>
						<trackindex>2</trackindex>
						<clipindex>61</clipindex>
					</link>
					<link>
						<linkclipref>010_09_03_A4</linkclipref>
						<mediatype>audio</mediatype>
						<trackindex>3</trackindex>
						<clipindex>59</clipindex>
					</link>
					<link>
						<linkclipref>010_09_03_A5</linkclipref>
						<mediatype>audio</mediatype>
						<trackindex>4</trackindex>
						<clipindex>35</clipindex>
					</link>
					<itemhistory>
						<uuid>7C53C3AD-CAF1-4745-B64C-FBEAFB4185D5</uuid>
					</itemhistory>
				</clipitem>
				<clipitem id="010_09_04_A_OK2">
					<name>010_09_04_A_OK</name>
					<duration>313</duration>
					<rate>
						<ntsc>FALSE</ntsc>
						<timebase>24</timebase>
					</rate>
					<in>89</in>
					<out>197</out>
					<start>34311</start>
					<end>34419</end>
					<subframeoffset>0</subframeoffset>
					<enabled>TRUE</enabled>
					<masterclipid>010_09_04_A_OK1</masterclipid>
					<logginginfo>
						<scene/>
						<shottake/>
						<lognote/>
						<good>FALSE</good>
					</logginginfo>
					<labels>
						<label2/>
					</labels>
					<comments>
						<mastercomment1/>
						<mastercomment2/>
						<mastercomment3/>
						<mastercomment4/>
					</comments>
					<file id="A002C022_221211_R03K"/>
					<filter>
						<effect>
							<name>Audio Levels</name>
							<effectid>audiolevels</effectid>
							<effectcategory>audiolevels</effectcategory>
							<effecttype>audiolevels</effecttype>
							<mediatype>audio</mediatype>
							<parameter>
								<name>Level</name>
								<parameterid>level</parameterid>
								<valuemin>0</valuemin>
								<valuemax>3.98109</valuemax>
								<value>1</value>
							</parameter>
						</effect>
					</filter>
					<filter>
						<effect>
							<name>Audio Pan</name>
							<effectid>audiopan</effectid>
							<effectcategory>audiopan</effectcategory>
							<effecttype>audiopan</effecttype>
							<mediatype>audio</mediatype>
							<parameter>
								<name>Pan</name>
								<parameterid>pan</parameterid>
								<valuemin>-1</valuemin>
								<valuemax>1</valuemax>
								<value>0</value>
							</parameter>
						</effect>
					</filter>
					<sourcetrack>
						<mediatype>audio</mediatype>
						<trackindex>1</trackindex>
					</sourcetrack>
					<link>
						<linkclipref>010_09_04_A_OK</linkclipref>
						<mediatype>video</mediatype>
						<trackindex>1</trackindex>
						<clipindex>62</clipindex>
					</link>
					<link>
						<linkclipref>010_09_04_A_OK2</linkclipref>
						<mediatype>audio</mediatype>
						<trackindex>1</trackindex>
						<clipindex>62</clipindex>
					</link>
					<link>
						<linkclipref>010_09_04_A_OK3</linkclipref>
						<mediatype>audio</mediatype>
						<trackindex>2</trackindex>
						<clipindex>62</clipindex>
					</link>
					<link>
						<linkclipref>010_09_04_A_OK4</linkclipref>
						<mediatype>audio</mediatype>
						<trackindex>3</trackindex>
						<clipindex>60</clipindex>
					</link>
					<link>
						<linkclipref>010_09_04_A_OK5</linkclipref>
						<mediatype>audio</mediatype>
						<trackindex>4</trackindex>
						<clipindex>36</clipindex>
					</link>
					<itemhistory>
						<uuid>953A8BCC-0FF2-4E29-BAB8-55A39F364966</uuid>
					</itemhistory>
				</clipitem>
				<clipitem id="010_10_01_A2">
					<name>010_10_01_A</name>
					<duration>438</duration>
					<rate>
						<ntsc>FALSE</ntsc>
						<timebase>24</timebase>
					</rate>
					<in>0</in>
					<out>438</out>
					<start>34419</start>
					<end>34857</end>
					<subframeoffset>0</subframeoffset>
					<enabled>TRUE</enabled>
					<masterclipid>010_10_01_A1</masterclipid>
					<logginginfo>
						<scene/>
						<shottake/>
						<lognote/>
						<good>FALSE</good>
					</logginginfo>
					<labels>
						<label2/>
					</labels>
					<comments>
						<mastercomment1/>
						<mastercomment2/>
						<mastercomment3/>
						<mastercomment4/>
					</comments>
					<file id="A002C023_221211_R03K"/>
					<filter>
						<effect>
							<name>Audio Levels</name>
							<effectid>audiolevels</effectid>
							<effectcategory>audiolevels</effectcategory>
							<effecttype>audiolevels</effecttype>
							<mediatype>audio</mediatype>
							<parameter>
								<name>Level</name>
								<parameterid>level</parameterid>
								<valuemin>0</valuemin>
								<valuemax>3.98109</valuemax>
								<value>1</value>
							</parameter>
						</effect>
					</filter>
					<filter>
						<effect>
							<name>Audio Pan</name>
							<effectid>audiopan</effectid>
							<effectcategory>audiopan</effectcategory>
							<effecttype>audiopan</effecttype>
							<mediatype>audio</mediatype>
							<parameter>
								<name>Pan</name>
								<parameterid>pan</parameterid>
								<valuemin>-1</valuemin>
								<valuemax>1</valuemax>
								<value>0</value>
							</parameter>
						</effect>
					</filter>
					<sourcetrack>
						<mediatype>audio</mediatype>
						<trackindex>1</trackindex>
					</sourcetrack>
					<link>
						<linkclipref>010_10_01_A</linkclipref>
						<mediatype>video</mediatype>
						<trackindex>1</trackindex>
						<clipindex>63</clipindex>
					</link>
					<link>
						<linkclipref>010_10_01_A2</linkclipref>
						<mediatype>audio</mediatype>
						<trackindex>1</trackindex>
						<clipindex>63</clipindex>
					</link>
					<link>
						<linkclipref>010_10_01_A3</linkclipref>
						<mediatype>audio</mediatype>
						<trackindex>2</trackindex>
						<clipindex>63</clipindex>
					</link>
					<link>
						<linkclipref>010_10_01_A4</linkclipref>
						<mediatype>audio</mediatype>
						<trackindex>3</trackindex>
						<clipindex>61</clipindex>
					</link>
					<link>
						<linkclipref>010_10_01_A5</linkclipref>
						<mediatype>audio</mediatype>
						<trackindex>4</trackindex>
						<clipindex>37</clipindex>
					</link>
					<itemhistory>
						<uuid>67E01FBC-EE43-4232-8F44-5EEDCA91A44D</uuid>
					</itemhistory>
				</clipitem>
				<clipitem id="010_10_02_A2">
					<name>010_10_02_A</name>
					<duration>428</duration>
					<rate>
						<ntsc>FALSE</ntsc>
						<timebase>24</timebase>
					</rate>
					<in>0</in>
					<out>428</out>
					<start>34857</start>
					<end>35285</end>
					<subframeoffset>0</subframeoffset>
					<enabled>TRUE</enabled>
					<masterclipid>010_10_02_A1</masterclipid>
					<logginginfo>
						<scene/>
						<shottake/>
						<lognote/>
						<good>FALSE</good>
					</logginginfo>
					<labels>
						<label2/>
					</labels>
					<comments>
						<mastercomment1/>
						<mastercomment2/>
						<mastercomment3/>
						<mastercomment4/>
					</comments>
					<file id="A002C024_221211_R03K"/>
					<filter>
						<effect>
							<name>Audio Levels</name>
							<effectid>audiolevels</effectid>
							<effectcategory>audiolevels</effectcategory>
							<effecttype>audiolevels</effecttype>
							<mediatype>audio</mediatype>
							<parameter>
								<name>Level</name>
								<parameterid>level</parameterid>
								<valuemin>0</valuemin>
								<valuemax>3.98109</valuemax>
								<value>1</value>
							</parameter>
						</effect>
					</filter>
					<filter>
						<effect>
							<name>Audio Pan</name>
							<effectid>audiopan</effectid>
							<effectcategory>audiopan</effectcategory>
							<effecttype>audiopan</effecttype>
							<mediatype>audio</mediatype>
							<parameter>
								<name>Pan</name>
								<parameterid>pan</parameterid>
								<valuemin>-1</valuemin>
								<valuemax>1</valuemax>
								<value>0</value>
							</parameter>
						</effect>
					</filter>
					<sourcetrack>
						<mediatype>audio</mediatype>
						<trackindex>1</trackindex>
					</sourcetrack>
					<link>
						<linkclipref>010_10_02_A</linkclipref>
						<mediatype>video</mediatype>
						<trackindex>1</trackindex>
						<clipindex>64</clipindex>
					</link>
					<link>
						<linkclipref>010_10_02_A2</linkclipref>
						<mediatype>audio</mediatype>
						<trackindex>1</trackindex>
						<clipindex>64</clipindex>
					</link>
					<link>
						<linkclipref>010_10_02_A3</linkclipref>
						<mediatype>audio</mediatype>
						<trackindex>2</trackindex>
						<clipindex>64</clipindex>
					</link>
					<link>
						<linkclipref>010_10_02_A4</linkclipref>
						<mediatype>audio</mediatype>
						<trackindex>3</trackindex>
						<clipindex>62</clipindex>
					</link>
					<link>
						<linkclipref>010_10_02_A5</linkclipref>
						<mediatype>audio</mediatype>
						<trackindex>4</trackindex>
						<clipindex>38</clipindex>
					</link>
					<itemhistory>
						<uuid>2C3EEA86-A76C-434F-ADFD-658ECBC03067</uuid>
					</itemhistory>
				</clipitem>
				<clipitem id="010_10_03_A_OK2">
					<name>010_10_03_A_OK</name>
					<duration>223</duration>
					<rate>
						<ntsc>FALSE</ntsc>
						<timebase>24</timebase>
					</rate>
					<in>68</in>
					<out>106</out>
					<start>35285</start>
					<end>35323</end>
					<subframeoffset>0</subframeoffset>
					<enabled>TRUE</enabled>
					<masterclipid>010_10_03_A_OK1</masterclipid>
					<logginginfo>
						<scene/>
						<shottake/>
						<lognote/>
						<good>FALSE</good>
					</logginginfo>
					<labels>
						<label2/>
					</labels>
					<comments>
						<mastercomment1/>
						<mastercomment2/>
						<mastercomment3/>
						<mastercomment4/>
					</comments>
					<file id="A002C025_221211_R03K"/>
					<filter>
						<effect>
							<name>Audio Levels</name>
							<effectid>audiolevels</effectid>
							<effectcategory>audiolevels</effectcategory>
							<effecttype>audiolevels</effecttype>
							<mediatype>audio</mediatype>
							<parameter>
								<name>Level</name>
								<parameterid>level</parameterid>
								<valuemin>0</valuemin>
								<valuemax>3.98109</valuemax>
								<value>1</value>
							</parameter>
						</effect>
					</filter>
					<filter>
						<effect>
							<name>Audio Pan</name>
							<effectid>audiopan</effectid>
							<effectcategory>audiopan</effectcategory>
							<effecttype>audiopan</effecttype>
							<mediatype>audio</mediatype>
							<parameter>
								<name>Pan</name>
								<parameterid>pan</parameterid>
								<valuemin>-1</valuemin>
								<valuemax>1</valuemax>
								<value>0</value>
							</parameter>
						</effect>
					</filter>
					<sourcetrack>
						<mediatype>audio</mediatype>
						<trackindex>1</trackindex>
					</sourcetrack>
					<link>
						<linkclipref>010_10_03_A_OK</linkclipref>
						<mediatype>video</mediatype>
						<trackindex>1</trackindex>
						<clipindex>65</clipindex>
					</link>
					<link>
						<linkclipref>010_10_03_A_OK2</linkclipref>
						<mediatype>audio</mediatype>
						<trackindex>1</trackindex>
						<clipindex>65</clipindex>
					</link>
					<link>
						<linkclipref>010_10_03_A_OK3</linkclipref>
						<mediatype>audio</mediatype>
						<trackindex>2</trackindex>
						<clipindex>65</clipindex>
					</link>
					<link>
						<linkclipref>010_10_03_A_OK4</linkclipref>
						<mediatype>audio</mediatype>
						<trackindex>3</trackindex>
						<clipindex>63</clipindex>
					</link>
					<link>
						<linkclipref>010_10_03_A_OK5</linkclipref>
						<mediatype>audio</mediatype>
						<trackindex>4</trackindex>
						<clipindex>39</clipindex>
					</link>
					<itemhistory>
						<uuid>FC1CF2CC-07AA-45C4-8396-39475948334C</uuid>
					</itemhistory>
				</clipitem>
				<clipitem id="010_11_01_A2">
					<name>010_11_01_A</name>
					<duration>358</duration>
					<rate>
						<ntsc>FALSE</ntsc>
						<timebase>24</timebase>
					</rate>
					<in>0</in>
					<out>358</out>
					<start>35323</start>
					<end>35681</end>
					<subframeoffset>0</subframeoffset>
					<enabled>TRUE</enabled>
					<masterclipid>010_11_01_A1</masterclipid>
					<logginginfo>
						<scene/>
						<shottake/>
						<lognote/>
						<good>FALSE</good>
					</logginginfo>
					<labels>
						<label2/>
					</labels>
					<comments>
						<mastercomment1/>
						<mastercomment2/>
						<mastercomment3/>
						<mastercomment4/>
					</comments>
					<file id="A002C026_221211_R03K"/>
					<filter>
						<effect>
							<name>Audio Levels</name>
							<effectid>audiolevels</effectid>
							<effectcategory>audiolevels</effectcategory>
							<effecttype>audiolevels</effecttype>
							<mediatype>audio</mediatype>
							<parameter>
								<name>Level</name>
								<parameterid>level</parameterid>
								<valuemin>0</valuemin>
								<valuemax>3.98109</valuemax>
								<value>1</value>
							</parameter>
						</effect>
					</filter>
					<filter>
						<effect>
							<name>Audio Pan</name>
							<effectid>audiopan</effectid>
							<effectcategory>audiopan</effectcategory>
							<effecttype>audiopan</effecttype>
							<mediatype>audio</mediatype>
							<parameter>
								<name>Pan</name>
								<parameterid>pan</parameterid>
								<valuemin>-1</valuemin>
								<valuemax>1</valuemax>
								<value>0</value>
							</parameter>
						</effect>
					</filter>
					<sourcetrack>
						<mediatype>audio</mediatype>
						<trackindex>1</trackindex>
					</sourcetrack>
					<link>
						<linkclipref>010_11_01_A</linkclipref>
						<mediatype>video</mediatype>
						<trackindex>1</trackindex>
						<clipindex>66</clipindex>
					</link>
					<link>
						<linkclipref>010_11_01_A2</linkclipref>
						<mediatype>audio</mediatype>
						<trackindex>1</trackindex>
						<clipindex>66</clipindex>
					</link>
					<link>
						<linkclipref>010_11_01_A3</linkclipref>
						<mediatype>audio</mediatype>
						<trackindex>2</trackindex>
						<clipindex>66</clipindex>
					</link>
					<link>
						<linkclipref>010_11_01_A4</linkclipref>
						<mediatype>audio</mediatype>
						<trackindex>3</trackindex>
						<clipindex>64</clipindex>
					</link>
					<link>
						<linkclipref>010_11_01_A5</linkclipref>
						<mediatype>audio</mediatype>
						<trackindex>4</trackindex>
						<clipindex>40</clipindex>
					</link>
					<itemhistory>
						<uuid>67B9E760-C480-44E6-94AA-94DBD08E6438</uuid>
					</itemhistory>
				</clipitem>
				<clipitem id="010_11_02_A_OK2">
					<name>010_11_02_A_OK</name>
					<duration>415</duration>
					<rate>
						<ntsc>FALSE</ntsc>
						<timebase>24</timebase>
					</rate>
					<in>146</in>
					<out>242</out>
					<start>35681</start>
					<end>35777</end>
					<subframeoffset>0</subframeoffset>
					<enabled>TRUE</enabled>
					<masterclipid>010_11_02_A_OK1</masterclipid>
					<logginginfo>
						<scene/>
						<shottake/>
						<lognote/>
						<good>FALSE</good>
					</logginginfo>
					<labels>
						<label2/>
					</labels>
					<comments>
						<mastercomment1/>
						<mastercomment2/>
						<mastercomment3/>
						<mastercomment4/>
					</comments>
					<file id="A002C027_221211_R03K"/>
					<filter>
						<effect>
							<name>Audio Levels</name>
							<effectid>audiolevels</effectid>
							<effectcategory>audiolevels</effectcategory>
							<effecttype>audiolevels</effecttype>
							<mediatype>audio</mediatype>
							<parameter>
								<name>Level</name>
								<parameterid>level</parameterid>
								<valuemin>0</valuemin>
								<valuemax>3.98109</valuemax>
								<value>1</value>
							</parameter>
						</effect>
					</filter>
					<filter>
						<effect>
							<name>Audio Pan</name>
							<effectid>audiopan</effectid>
							<effectcategory>audiopan</effectcategory>
							<effecttype>audiopan</effecttype>
							<mediatype>audio</mediatype>
							<parameter>
								<name>Pan</name>
								<parameterid>pan</parameterid>
								<valuemin>-1</valuemin>
								<valuemax>1</valuemax>
								<value>0</value>
							</parameter>
						</effect>
					</filter>
					<sourcetrack>
						<mediatype>audio</mediatype>
						<trackindex>1</trackindex>
					</sourcetrack>
					<link>
						<linkclipref>010_11_02_A_OK</linkclipref>
						<mediatype>video</mediatype>
						<trackindex>1</trackindex>
						<clipindex>67</clipindex>
					</link>
					<link>
						<linkclipref>010_11_02_A_OK2</linkclipref>
						<mediatype>audio</mediatype>
						<trackindex>1</trackindex>
						<clipindex>67</clipindex>
					</link>
					<link>
						<linkclipref>010_11_02_A_OK3</linkclipref>
						<mediatype>audio</mediatype>
						<trackindex>2</trackindex>
						<clipindex>67</clipindex>
					</link>
					<link>
						<linkclipref>010_11_02_A_OK4</linkclipref>
						<mediatype>audio</mediatype>
						<trackindex>3</trackindex>
						<clipindex>65</clipindex>
					</link>
					<link>
						<linkclipref>010_11_02_A_OK5</linkclipref>
						<mediatype>audio</mediatype>
						<trackindex>4</trackindex>
						<clipindex>41</clipindex>
					</link>
					<itemhistory>
						<uuid>B24C427E-83EE-4222-99FF-7820509B6ECC</uuid>
					</itemhistory>
				</clipitem>
				<clipitem id="010_12_01_A_OK2">
					<name>010_12_01_A_OK</name>
					<duration>853</duration>
					<rate>
						<ntsc>FALSE</ntsc>
						<timebase>24</timebase>
					</rate>
					<in>616</in>
					<out>853</out>
					<start>35777</start>
					<end>36014</end>
					<subframeoffset>0</subframeoffset>
					<enabled>TRUE</enabled>
					<masterclipid>010_12_01_A_OK1</masterclipid>
					<logginginfo>
						<scene/>
						<shottake/>
						<lognote/>
						<good>FALSE</good>
					</logginginfo>
					<labels>
						<label2/>
					</labels>
					<comments>
						<mastercomment1/>
						<mastercomment2/>
						<mastercomment3/>
						<mastercomment4/>
					</comments>
					<file id="A002C028_221211_R03K"/>
					<filter>
						<effect>
							<name>Audio Levels</name>
							<effectid>audiolevels</effectid>
							<effectcategory>audiolevels</effectcategory>
							<effecttype>audiolevels</effecttype>
							<mediatype>audio</mediatype>
							<parameter>
								<name>Level</name>
								<parameterid>level</parameterid>
								<valuemin>0</valuemin>
								<valuemax>3.98109</valuemax>
								<value>1</value>
							</parameter>
						</effect>
					</filter>
					<filter>
						<effect>
							<name>Audio Pan</name>
							<effectid>audiopan</effectid>
							<effectcategory>audiopan</effectcategory>
							<effecttype>audiopan</effecttype>
							<mediatype>audio</mediatype>
							<parameter>
								<name>Pan</name>
								<parameterid>pan</parameterid>
								<valuemin>-1</valuemin>
								<valuemax>1</valuemax>
								<value>0</value>
							</parameter>
						</effect>
					</filter>
					<sourcetrack>
						<mediatype>audio</mediatype>
						<trackindex>1</trackindex>
					</sourcetrack>
					<link>
						<linkclipref>010_12_01_A_OK</linkclipref>
						<mediatype>video</mediatype>
						<trackindex>1</trackindex>
						<clipindex>68</clipindex>
					</link>
					<link>
						<linkclipref>010_12_01_A_OK2</linkclipref>
						<mediatype>audio</mediatype>
						<trackindex>1</trackindex>
						<clipindex>68</clipindex>
					</link>
					<link>
						<linkclipref>010_12_01_A_OK3</linkclipref>
						<mediatype>audio</mediatype>
						<trackindex>2</trackindex>
						<clipindex>68</clipindex>
					</link>
					<link>
						<linkclipref>010_12_01_A_OK4</linkclipref>
						<mediatype>audio</mediatype>
						<trackindex>3</trackindex>
						<clipindex>66</clipindex>
					</link>
					<link>
						<linkclipref>010_12_01_A_OK5</linkclipref>
						<mediatype>audio</mediatype>
						<trackindex>4</trackindex>
						<clipindex>42</clipindex>
					</link>
					<itemhistory>
						<uuid>586A4716-3BAC-4454-A63E-092753AC739B</uuid>
					</itemhistory>
				</clipitem>
				<clipitem id="010_12_01_B_OK2">
					<name>010_12_01_B_OK</name>
					<duration>816</duration>
					<rate>
						<ntsc>FALSE</ntsc>
						<timebase>24</timebase>
					</rate>
					<in>0</in>
					<out>816</out>
					<start>36014</start>
					<end>36830</end>
					<subframeoffset>0</subframeoffset>
					<enabled>TRUE</enabled>
					<masterclipid>010_12_01_B_OK1</masterclipid>
					<logginginfo>
						<scene/>
						<shottake/>
						<lognote/>
						<good>FALSE</good>
					</logginginfo>
					<labels>
						<label2/>
					</labels>
					<comments>
						<mastercomment1/>
						<mastercomment2/>
						<mastercomment3/>
						<mastercomment4/>
					</comments>
					<file id="B002C011_130101_R1WX"/>
					<filter>
						<effect>
							<name>Audio Levels</name>
							<effectid>audiolevels</effectid>
							<effectcategory>audiolevels</effectcategory>
							<effecttype>audiolevels</effecttype>
							<mediatype>audio</mediatype>
							<parameter>
								<name>Level</name>
								<parameterid>level</parameterid>
								<valuemin>0</valuemin>
								<valuemax>3.98109</valuemax>
								<value>1</value>
							</parameter>
						</effect>
					</filter>
					<filter>
						<effect>
							<name>Audio Pan</name>
							<effectid>audiopan</effectid>
							<effectcategory>audiopan</effectcategory>
							<effecttype>audiopan</effecttype>
							<mediatype>audio</mediatype>
							<parameter>
								<name>Pan</name>
								<parameterid>pan</parameterid>
								<valuemin>-1</valuemin>
								<valuemax>1</valuemax>
								<value>0</value>
							</parameter>
						</effect>
					</filter>
					<sourcetrack>
						<mediatype>audio</mediatype>
						<trackindex>1</trackindex>
					</sourcetrack>
					<link>
						<linkclipref>010_12_01_B_OK</linkclipref>
						<mediatype>video</mediatype>
						<trackindex>1</trackindex>
						<clipindex>69</clipindex>
					</link>
					<link>
						<linkclipref>010_12_01_B_OK2</linkclipref>
						<mediatype>audio</mediatype>
						<trackindex>1</trackindex>
						<clipindex>69</clipindex>
					</link>
					<link>
						<linkclipref>010_12_01_B_OK3</linkclipref>
						<mediatype>audio</mediatype>
						<trackindex>2</trackindex>
						<clipindex>69</clipindex>
					</link>
					<link>
						<linkclipref>010_12_01_B_OK4</linkclipref>
						<mediatype>audio</mediatype>
						<trackindex>3</trackindex>
						<clipindex>67</clipindex>
					</link>
					<link>
						<linkclipref>010_12_01_B_OK5</linkclipref>
						<mediatype>audio</mediatype>
						<trackindex>4</trackindex>
						<clipindex>43</clipindex>
					</link>
					<itemhistory>
						<uuid>B815584A-A052-410D-AB62-BB86FEA894FC</uuid>
					</itemhistory>
				</clipitem>
				<clipitem id="010_12_02_A_OK2">
					<name>010_12_02_A_OK</name>
					<duration>689</duration>
					<rate>
						<ntsc>FALSE</ntsc>
						<timebase>24</timebase>
					</rate>
					<in>128</in>
					<out>186</out>
					<start>36830</start>
					<end>36888</end>
					<subframeoffset>0</subframeoffset>
					<enabled>TRUE</enabled>
					<masterclipid>010_12_02_A_OK1</masterclipid>
					<logginginfo>
						<scene/>
						<shottake/>
						<lognote/>
						<good>FALSE</good>
					</logginginfo>
					<labels>
						<label2/>
					</labels>
					<comments>
						<mastercomment1/>
						<mastercomment2/>
						<mastercomment3/>
						<mastercomment4/>
					</comments>
					<file id="A003C001_221211_R03K"/>
					<filter>
						<effect>
							<name>Audio Levels</name>
							<effectid>audiolevels</effectid>
							<effectcategory>audiolevels</effectcategory>
							<effecttype>audiolevels</effecttype>
							<mediatype>audio</mediatype>
							<parameter>
								<name>Level</name>
								<parameterid>level</parameterid>
								<valuemin>0</valuemin>
								<valuemax>3.98109</valuemax>
								<value>1</value>
							</parameter>
						</effect>
					</filter>
					<filter>
						<effect>
							<name>Audio Pan</name>
							<effectid>audiopan</effectid>
							<effectcategory>audiopan</effectcategory>
							<effecttype>audiopan</effecttype>
							<mediatype>audio</mediatype>
							<parameter>
								<name>Pan</name>
								<parameterid>pan</parameterid>
								<valuemin>-1</valuemin>
								<valuemax>1</valuemax>
								<value>0</value>
							</parameter>
						</effect>
					</filter>
					<sourcetrack>
						<mediatype>audio</mediatype>
						<trackindex>1</trackindex>
					</sourcetrack>
					<link>
						<linkclipref>010_12_02_A_OK</linkclipref>
						<mediatype>video</mediatype>
						<trackindex>1</trackindex>
						<clipindex>70</clipindex>
					</link>
					<link>
						<linkclipref>010_12_02_A_OK2</linkclipref>
						<mediatype>audio</mediatype>
						<trackindex>1</trackindex>
						<clipindex>70</clipindex>
					</link>
					<link>
						<linkclipref>010_12_02_A_OK3</linkclipref>
						<mediatype>audio</mediatype>
						<trackindex>2</trackindex>
						<clipindex>70</clipindex>
					</link>
					<link>
						<linkclipref>010_12_02_A_OK4</linkclipref>
						<mediatype>audio</mediatype>
						<trackindex>3</trackindex>
						<clipindex>68</clipindex>
					</link>
					<link>
						<linkclipref>010_12_02_A_OK5</linkclipref>
						<mediatype>audio</mediatype>
						<trackindex>4</trackindex>
						<clipindex>44</clipindex>
					</link>
					<itemhistory>
						<uuid>3870F550-8DB5-4665-9607-96EFC1C3B150</uuid>
					</itemhistory>
				</clipitem>
				<clipitem id="010_12_02_B_OK2">
					<name>010_12_02_B_OK</name>
					<duration>679</duration>
					<rate>
						<ntsc>FALSE</ntsc>
						<timebase>24</timebase>
					</rate>
					<in>508</in>
					<out>565</out>
					<start>36888</start>
					<end>36945</end>
					<subframeoffset>0</subframeoffset>
					<enabled>TRUE</enabled>
					<masterclipid>010_12_02_B_OK1</masterclipid>
					<logginginfo>
						<scene/>
						<shottake/>
						<lognote/>
						<good>FALSE</good>
					</logginginfo>
					<labels>
						<label2/>
					</labels>
					<comments>
						<mastercomment1/>
						<mastercomment2/>
						<mastercomment3/>
						<mastercomment4/>
					</comments>
					<file id="B002C012_130101_R1WX"/>
					<filter>
						<effect>
							<name>Audio Levels</name>
							<effectid>audiolevels</effectid>
							<effectcategory>audiolevels</effectcategory>
							<effecttype>audiolevels</effecttype>
							<mediatype>audio</mediatype>
							<parameter>
								<name>Level</name>
								<parameterid>level</parameterid>
								<valuemin>0</valuemin>
								<valuemax>3.98109</valuemax>
								<value>1</value>
							</parameter>
						</effect>
					</filter>
					<filter>
						<effect>
							<name>Audio Pan</name>
							<effectid>audiopan</effectid>
							<effectcategory>audiopan</effectcategory>
							<effecttype>audiopan</effecttype>
							<mediatype>audio</mediatype>
							<parameter>
								<name>Pan</name>
								<parameterid>pan</parameterid>
								<valuemin>-1</valuemin>
								<valuemax>1</valuemax>
								<value>0</value>
							</parameter>
						</effect>
					</filter>
					<sourcetrack>
						<mediatype>audio</mediatype>
						<trackindex>1</trackindex>
					</sourcetrack>
					<link>
						<linkclipref>010_12_02_B_OK</linkclipref>
						<mediatype>video</mediatype>
						<trackindex>1</trackindex>
						<clipindex>71</clipindex>
					</link>
					<link>
						<linkclipref>010_12_02_B_OK2</linkclipref>
						<mediatype>audio</mediatype>
						<trackindex>1</trackindex>
						<clipindex>71</clipindex>
					</link>
					<link>
						<linkclipref>010_12_02_B_OK3</linkclipref>
						<mediatype>audio</mediatype>
						<trackindex>2</trackindex>
						<clipindex>71</clipindex>
					</link>
					<link>
						<linkclipref>010_12_02_B_OK4</linkclipref>
						<mediatype>audio</mediatype>
						<trackindex>3</trackindex>
						<clipindex>69</clipindex>
					</link>
					<link>
						<linkclipref>010_12_02_B_OK5</linkclipref>
						<mediatype>audio</mediatype>
						<trackindex>4</trackindex>
						<clipindex>45</clipindex>
					</link>
					<itemhistory>
						<uuid>24306B55-8A1F-4338-A5B6-625E3D233A7F</uuid>
					</itemhistory>
				</clipitem>
				<clipitem id="010_12_03_A2">
					<name>010_12_03_A</name>
					<duration>1553</duration>
					<rate>
						<ntsc>FALSE</ntsc>
						<timebase>24</timebase>
					</rate>
					<in>0</in>
					<out>1553</out>
					<start>36945</start>
					<end>38498</end>
					<subframeoffset>0</subframeoffset>
					<enabled>TRUE</enabled>
					<masterclipid>010_12_03_A1</masterclipid>
					<logginginfo>
						<scene/>
						<shottake/>
						<lognote/>
						<good>FALSE</good>
					</logginginfo>
					<labels>
						<label2/>
					</labels>
					<comments>
						<mastercomment1/>
						<mastercomment2/>
						<mastercomment3/>
						<mastercomment4/>
					</comments>
					<file id="A003C002_221211_R03K"/>
					<filter>
						<effect>
							<name>Audio Levels</name>
							<effectid>audiolevels</effectid>
							<effectcategory>audiolevels</effectcategory>
							<effecttype>audiolevels</effecttype>
							<mediatype>audio</mediatype>
							<parameter>
								<name>Level</name>
								<parameterid>level</parameterid>
								<valuemin>0</valuemin>
								<valuemax>3.98109</valuemax>
								<value>1</value>
							</parameter>
						</effect>
					</filter>
					<filter>
						<effect>
							<name>Audio Pan</name>
							<effectid>audiopan</effectid>
							<effectcategory>audiopan</effectcategory>
							<effecttype>audiopan</effecttype>
							<mediatype>audio</mediatype>
							<parameter>
								<name>Pan</name>
								<parameterid>pan</parameterid>
								<valuemin>-1</valuemin>
								<valuemax>1</valuemax>
								<value>0</value>
							</parameter>
						</effect>
					</filter>
					<sourcetrack>
						<mediatype>audio</mediatype>
						<trackindex>1</trackindex>
					</sourcetrack>
					<link>
						<linkclipref>010_12_03_A</linkclipref>
						<mediatype>video</mediatype>
						<trackindex>1</trackindex>
						<clipindex>72</clipindex>
					</link>
					<link>
						<linkclipref>010_12_03_A2</linkclipref>
						<mediatype>audio</mediatype>
						<trackindex>1</trackindex>
						<clipindex>72</clipindex>
					</link>
					<link>
						<linkclipref>010_12_03_A3</linkclipref>
						<mediatype>audio</mediatype>
						<trackindex>2</trackindex>
						<clipindex>72</clipindex>
					</link>
					<link>
						<linkclipref>010_12_03_A4</linkclipref>
						<mediatype>audio</mediatype>
						<trackindex>3</trackindex>
						<clipindex>70</clipindex>
					</link>
					<itemhistory>
						<uuid>A4CD3E47-9A9C-4C49-B86D-0FDE5C131E23</uuid>
					</itemhistory>
				</clipitem>
				<clipitem id="010_12_03_B2">
					<name>010_12_03_B</name>
					<duration>1552</duration>
					<rate>
						<ntsc>FALSE</ntsc>
						<timebase>24</timebase>
					</rate>
					<in>0</in>
					<out>1552</out>
					<start>38498</start>
					<end>40050</end>
					<subframeoffset>0</subframeoffset>
					<enabled>TRUE</enabled>
					<masterclipid>010_12_03_B1</masterclipid>
					<logginginfo>
						<scene/>
						<shottake/>
						<lognote/>
						<good>FALSE</good>
					</logginginfo>
					<labels>
						<label2/>
					</labels>
					<comments>
						<mastercomment1/>
						<mastercomment2/>
						<mastercomment3/>
						<mastercomment4/>
					</comments>
					<file id="B002C013_130101_R1WX"/>
					<filter>
						<effect>
							<name>Audio Levels</name>
							<effectid>audiolevels</effectid>
							<effectcategory>audiolevels</effectcategory>
							<effecttype>audiolevels</effecttype>
							<mediatype>audio</mediatype>
							<parameter>
								<name>Level</name>
								<parameterid>level</parameterid>
								<valuemin>0</valuemin>
								<valuemax>3.98109</valuemax>
								<value>1</value>
							</parameter>
						</effect>
					</filter>
					<filter>
						<effect>
							<name>Audio Pan</name>
							<effectid>audiopan</effectid>
							<effectcategory>audiopan</effectcategory>
							<effecttype>audiopan</effecttype>
							<mediatype>audio</mediatype>
							<parameter>
								<name>Pan</name>
								<parameterid>pan</parameterid>
								<valuemin>-1</valuemin>
								<valuemax>1</valuemax>
								<value>0</value>
							</parameter>
						</effect>
					</filter>
					<sourcetrack>
						<mediatype>audio</mediatype>
						<trackindex>1</trackindex>
					</sourcetrack>
					<link>
						<linkclipref>010_12_03_B</linkclipref>
						<mediatype>video</mediatype>
						<trackindex>1</trackindex>
						<clipindex>73</clipindex>
					</link>
					<link>
						<linkclipref>010_12_03_B2</linkclipref>
						<mediatype>audio</mediatype>
						<trackindex>1</trackindex>
						<clipindex>73</clipindex>
					</link>
					<link>
						<linkclipref>010_12_03_B3</linkclipref>
						<mediatype>audio</mediatype>
						<trackindex>2</trackindex>
						<clipindex>73</clipindex>
					</link>
					<link>
						<linkclipref>010_12_03_B4</linkclipref>
						<mediatype>audio</mediatype>
						<trackindex>3</trackindex>
						<clipindex>71</clipindex>
					</link>
					<itemhistory>
						<uuid>812D3799-BD2F-40BF-9E3A-3697DDCCBEF7</uuid>
					</itemhistory>
				</clipitem>
				<clipitem id="010_13_01_A_OK2">
					<name>010_13_01_A_OK</name>
					<duration>1518</duration>
					<rate>
						<ntsc>FALSE</ntsc>
						<timebase>24</timebase>
					</rate>
					<in>228</in>
					<out>305</out>
					<start>40050</start>
					<end>40127</end>
					<subframeoffset>0</subframeoffset>
					<enabled>TRUE</enabled>
					<masterclipid>010_13_01_A_OK1</masterclipid>
					<logginginfo>
						<scene/>
						<shottake/>
						<lognote/>
						<good>FALSE</good>
					</logginginfo>
					<labels>
						<label2/>
					</labels>
					<comments>
						<mastercomment1/>
						<mastercomment2/>
						<mastercomment3/>
						<mastercomment4/>
					</comments>
					<file id="A003C003_221211_R03K"/>
					<filter>
						<effect>
							<name>Audio Levels</name>
							<effectid>audiolevels</effectid>
							<effectcategory>audiolevels</effectcategory>
							<effecttype>audiolevels</effecttype>
							<mediatype>audio</mediatype>
							<parameter>
								<name>Level</name>
								<parameterid>level</parameterid>
								<valuemin>0</valuemin>
								<valuemax>3.98109</valuemax>
								<value>1</value>
							</parameter>
						</effect>
					</filter>
					<filter>
						<effect>
							<name>Audio Pan</name>
							<effectid>audiopan</effectid>
							<effectcategory>audiopan</effectcategory>
							<effecttype>audiopan</effecttype>
							<mediatype>audio</mediatype>
							<parameter>
								<name>Pan</name>
								<parameterid>pan</parameterid>
								<valuemin>-1</valuemin>
								<valuemax>1</valuemax>
								<value>0</value>
							</parameter>
						</effect>
					</filter>
					<sourcetrack>
						<mediatype>audio</mediatype>
						<trackindex>1</trackindex>
					</sourcetrack>
					<link>
						<linkclipref>010_13_01_A_OK</linkclipref>
						<mediatype>video</mediatype>
						<trackindex>1</trackindex>
						<clipindex>74</clipindex>
					</link>
					<link>
						<linkclipref>010_13_01_A_OK2</linkclipref>
						<mediatype>audio</mediatype>
						<trackindex>1</trackindex>
						<clipindex>74</clipindex>
					</link>
					<link>
						<linkclipref>010_13_01_A_OK3</linkclipref>
						<mediatype>audio</mediatype>
						<trackindex>2</trackindex>
						<clipindex>74</clipindex>
					</link>
					<link>
						<linkclipref>010_13_01_A_OK4</linkclipref>
						<mediatype>audio</mediatype>
						<trackindex>3</trackindex>
						<clipindex>72</clipindex>
					</link>
					<itemhistory>
						<uuid>7C44682A-6ABE-4666-98BE-DFA297B0E2FA</uuid>
					</itemhistory>
				</clipitem>
				<clipitem id="010_13_01_B_OK2">
					<name>010_13_01_B_OK</name>
					<duration>1503</duration>
					<rate>
						<ntsc>FALSE</ntsc>
						<timebase>24</timebase>
					</rate>
					<in>155</in>
					<out>1503</out>
					<start>40127</start>
					<end>41475</end>
					<subframeoffset>0</subframeoffset>
					<enabled>TRUE</enabled>
					<masterclipid>010_13_01_B_OK1</masterclipid>
					<logginginfo>
						<scene/>
						<shottake/>
						<lognote/>
						<good>FALSE</good>
					</logginginfo>
					<labels>
						<label2/>
					</labels>
					<comments>
						<mastercomment1/>
						<mastercomment2/>
						<mastercomment3/>
						<mastercomment4/>
					</comments>
					<file id="B002C014_130101_R1WX"/>
					<filter>
						<effect>
							<name>Audio Levels</name>
							<effectid>audiolevels</effectid>
							<effectcategory>audiolevels</effectcategory>
							<effecttype>audiolevels</effecttype>
							<mediatype>audio</mediatype>
							<parameter>
								<name>Level</name>
								<parameterid>level</parameterid>
								<valuemin>0</valuemin>
								<valuemax>3.98109</valuemax>
								<value>1</value>
							</parameter>
						</effect>
					</filter>
					<filter>
						<effect>
							<name>Audio Pan</name>
							<effectid>audiopan</effectid>
							<effectcategory>audiopan</effectcategory>
							<effecttype>audiopan</effecttype>
							<mediatype>audio</mediatype>
							<parameter>
								<name>Pan</name>
								<parameterid>pan</parameterid>
								<valuemin>-1</valuemin>
								<valuemax>1</valuemax>
								<value>0</value>
							</parameter>
						</effect>
					</filter>
					<sourcetrack>
						<mediatype>audio</mediatype>
						<trackindex>1</trackindex>
					</sourcetrack>
					<link>
						<linkclipref>010_13_01_B_OK</linkclipref>
						<mediatype>video</mediatype>
						<trackindex>1</trackindex>
						<clipindex>75</clipindex>
					</link>
					<link>
						<linkclipref>010_13_01_B_OK2</linkclipref>
						<mediatype>audio</mediatype>
						<trackindex>1</trackindex>
						<clipindex>75</clipindex>
					</link>
					<link>
						<linkclipref>010_13_01_B_OK3</linkclipref>
						<mediatype>audio</mediatype>
						<trackindex>2</trackindex>
						<clipindex>75</clipindex>
					</link>
					<link>
						<linkclipref>010_13_01_B_OK4</linkclipref>
						<mediatype>audio</mediatype>
						<trackindex>3</trackindex>
						<clipindex>73</clipindex>
					</link>
					<itemhistory>
						<uuid>1996DDB7-6C59-4171-BCD8-17F93E1148CF</uuid>
					</itemhistory>
				</clipitem>
				<clipitem id="010_14_01_A2">
					<name>010_14_01_A</name>
					<duration>330</duration>
					<rate>
						<ntsc>FALSE</ntsc>
						<timebase>24</timebase>
					</rate>
					<in>0</in>
					<out>330</out>
					<start>41475</start>
					<end>41805</end>
					<subframeoffset>0</subframeoffset>
					<enabled>TRUE</enabled>
					<masterclipid>010_14_01_A1</masterclipid>
					<logginginfo>
						<scene/>
						<shottake/>
						<lognote/>
						<good>FALSE</good>
					</logginginfo>
					<labels>
						<label2/>
					</labels>
					<comments>
						<mastercomment1/>
						<mastercomment2/>
						<mastercomment3/>
						<mastercomment4/>
					</comments>
					<file id="A003C004_221211_R03K"/>
					<filter>
						<effect>
							<name>Audio Levels</name>
							<effectid>audiolevels</effectid>
							<effectcategory>audiolevels</effectcategory>
							<effecttype>audiolevels</effecttype>
							<mediatype>audio</mediatype>
							<parameter>
								<name>Level</name>
								<parameterid>level</parameterid>
								<valuemin>0</valuemin>
								<valuemax>3.98109</valuemax>
								<value>1</value>
							</parameter>
						</effect>
					</filter>
					<filter>
						<effect>
							<name>Audio Pan</name>
							<effectid>audiopan</effectid>
							<effectcategory>audiopan</effectcategory>
							<effecttype>audiopan</effecttype>
							<mediatype>audio</mediatype>
							<parameter>
								<name>Pan</name>
								<parameterid>pan</parameterid>
								<valuemin>-1</valuemin>
								<valuemax>1</valuemax>
								<value>0</value>
							</parameter>
						</effect>
					</filter>
					<sourcetrack>
						<mediatype>audio</mediatype>
						<trackindex>1</trackindex>
					</sourcetrack>
					<link>
						<linkclipref>010_14_01_A</linkclipref>
						<mediatype>video</mediatype>
						<trackindex>1</trackindex>
						<clipindex>76</clipindex>
					</link>
					<link>
						<linkclipref>010_14_01_A2</linkclipref>
						<mediatype>audio</mediatype>
						<trackindex>1</trackindex>
						<clipindex>76</clipindex>
					</link>
					<link>
						<linkclipref>010_14_01_A3</linkclipref>
						<mediatype>audio</mediatype>
						<trackindex>2</trackindex>
						<clipindex>76</clipindex>
					</link>
					<link>
						<linkclipref>010_14_01_A4</linkclipref>
						<mediatype>audio</mediatype>
						<trackindex>3</trackindex>
						<clipindex>74</clipindex>
					</link>
					<itemhistory>
						<uuid>C3B2A724-B701-4C82-A848-3A27E054EE5D</uuid>
					</itemhistory>
				</clipitem>
				<clipitem id="010_14_02_A2">
					<name>010_14_02_A</name>
					<duration>279</duration>
					<rate>
						<ntsc>FALSE</ntsc>
						<timebase>24</timebase>
					</rate>
					<in>0</in>
					<out>279</out>
					<start>41805</start>
					<end>42084</end>
					<subframeoffset>0</subframeoffset>
					<enabled>TRUE</enabled>
					<masterclipid>010_14_02_A1</masterclipid>
					<logginginfo>
						<scene/>
						<shottake/>
						<lognote/>
						<good>FALSE</good>
					</logginginfo>
					<labels>
						<label2/>
					</labels>
					<comments>
						<mastercomment1/>
						<mastercomment2/>
						<mastercomment3/>
						<mastercomment4/>
					</comments>
					<file id="A003C005_221211_R03K"/>
					<filter>
						<effect>
							<name>Audio Levels</name>
							<effectid>audiolevels</effectid>
							<effectcategory>audiolevels</effectcategory>
							<effecttype>audiolevels</effecttype>
							<mediatype>audio</mediatype>
							<parameter>
								<name>Level</name>
								<parameterid>level</parameterid>
								<valuemin>0</valuemin>
								<valuemax>3.98109</valuemax>
								<value>1</value>
							</parameter>
						</effect>
					</filter>
					<filter>
						<effect>
							<name>Audio Pan</name>
							<effectid>audiopan</effectid>
							<effectcategory>audiopan</effectcategory>
							<effecttype>audiopan</effecttype>
							<mediatype>audio</mediatype>
							<parameter>
								<name>Pan</name>
								<parameterid>pan</parameterid>
								<valuemin>-1</valuemin>
								<valuemax>1</valuemax>
								<value>0</value>
							</parameter>
						</effect>
					</filter>
					<sourcetrack>
						<mediatype>audio</mediatype>
						<trackindex>1</trackindex>
					</sourcetrack>
					<link>
						<linkclipref>010_14_02_A</linkclipref>
						<mediatype>video</mediatype>
						<trackindex>1</trackindex>
						<clipindex>77</clipindex>
					</link>
					<link>
						<linkclipref>010_14_02_A2</linkclipref>
						<mediatype>audio</mediatype>
						<trackindex>1</trackindex>
						<clipindex>77</clipindex>
					</link>
					<link>
						<linkclipref>010_14_02_A3</linkclipref>
						<mediatype>audio</mediatype>
						<trackindex>2</trackindex>
						<clipindex>77</clipindex>
					</link>
					<link>
						<linkclipref>010_14_02_A4</linkclipref>
						<mediatype>audio</mediatype>
						<trackindex>3</trackindex>
						<clipindex>75</clipindex>
					</link>
					<itemhistory>
						<uuid>73CF8EF7-27C3-4821-B4EC-1C8A24EADA88</uuid>
					</itemhistory>
				</clipitem>
				<clipitem id="010_14_03_A_OK2">
					<name>010_14_03_A_OK</name>
					<duration>354</duration>
					<rate>
						<ntsc>FALSE</ntsc>
						<timebase>24</timebase>
					</rate>
					<in>67</in>
					<out>152</out>
					<start>42084</start>
					<end>42169</end>
					<subframeoffset>0</subframeoffset>
					<enabled>TRUE</enabled>
					<masterclipid>010_14_03_A_OK1</masterclipid>
					<logginginfo>
						<scene/>
						<shottake/>
						<lognote/>
						<good>FALSE</good>
					</logginginfo>
					<labels>
						<label2/>
					</labels>
					<comments>
						<mastercomment1/>
						<mastercomment2/>
						<mastercomment3/>
						<mastercomment4/>
					</comments>
					<file id="A003C006_221211_R03K"/>
					<filter>
						<effect>
							<name>Audio Levels</name>
							<effectid>audiolevels</effectid>
							<effectcategory>audiolevels</effectcategory>
							<effecttype>audiolevels</effecttype>
							<mediatype>audio</mediatype>
							<parameter>
								<name>Level</name>
								<parameterid>level</parameterid>
								<valuemin>0</valuemin>
								<valuemax>3.98109</valuemax>
								<value>1</value>
							</parameter>
						</effect>
					</filter>
					<filter>
						<effect>
							<name>Audio Pan</name>
							<effectid>audiopan</effectid>
							<effectcategory>audiopan</effectcategory>
							<effecttype>audiopan</effecttype>
							<mediatype>audio</mediatype>
							<parameter>
								<name>Pan</name>
								<parameterid>pan</parameterid>
								<valuemin>-1</valuemin>
								<valuemax>1</valuemax>
								<value>0</value>
							</parameter>
						</effect>
					</filter>
					<sourcetrack>
						<mediatype>audio</mediatype>
						<trackindex>1</trackindex>
					</sourcetrack>
					<link>
						<linkclipref>010_14_03_A_OK</linkclipref>
						<mediatype>video</mediatype>
						<trackindex>1</trackindex>
						<clipindex>78</clipindex>
					</link>
					<link>
						<linkclipref>010_14_03_A_OK2</linkclipref>
						<mediatype>audio</mediatype>
						<trackindex>1</trackindex>
						<clipindex>78</clipindex>
					</link>
					<link>
						<linkclipref>010_14_03_A_OK3</linkclipref>
						<mediatype>audio</mediatype>
						<trackindex>2</trackindex>
						<clipindex>78</clipindex>
					</link>
					<link>
						<linkclipref>010_14_03_A_OK4</linkclipref>
						<mediatype>audio</mediatype>
						<trackindex>3</trackindex>
						<clipindex>76</clipindex>
					</link>
					<itemhistory>
						<uuid>417AC208-78E9-47FA-ABF1-36F2D46F917C</uuid>
					</itemhistory>
				</clipitem>
				<clipitem id="010_15_01_A2">
					<name>010_15_01_A</name>
					<duration>1316</duration>
					<rate>
						<ntsc>FALSE</ntsc>
						<timebase>24</timebase>
					</rate>
					<in>0</in>
					<out>1316</out>
					<start>42169</start>
					<end>43485</end>
					<subframeoffset>0</subframeoffset>
					<enabled>TRUE</enabled>
					<masterclipid>010_15_01_A1</masterclipid>
					<logginginfo>
						<scene/>
						<shottake/>
						<lognote/>
						<good>FALSE</good>
					</logginginfo>
					<labels>
						<label2/>
					</labels>
					<comments>
						<mastercomment1/>
						<mastercomment2/>
						<mastercomment3/>
						<mastercomment4/>
					</comments>
					<file id="A003C007_221211_R03K"/>
					<filter>
						<effect>
							<name>Audio Levels</name>
							<effectid>audiolevels</effectid>
							<effectcategory>audiolevels</effectcategory>
							<effecttype>audiolevels</effecttype>
							<mediatype>audio</mediatype>
							<parameter>
								<name>Level</name>
								<parameterid>level</parameterid>
								<valuemin>0</valuemin>
								<valuemax>3.98109</valuemax>
								<value>1</value>
							</parameter>
						</effect>
					</filter>
					<filter>
						<effect>
							<name>Audio Pan</name>
							<effectid>audiopan</effectid>
							<effectcategory>audiopan</effectcategory>
							<effecttype>audiopan</effecttype>
							<mediatype>audio</mediatype>
							<parameter>
								<name>Pan</name>
								<parameterid>pan</parameterid>
								<valuemin>-1</valuemin>
								<valuemax>1</valuemax>
								<value>0</value>
							</parameter>
						</effect>
					</filter>
					<sourcetrack>
						<mediatype>audio</mediatype>
						<trackindex>1</trackindex>
					</sourcetrack>
					<link>
						<linkclipref>010_15_01_A</linkclipref>
						<mediatype>video</mediatype>
						<trackindex>1</trackindex>
						<clipindex>79</clipindex>
					</link>
					<link>
						<linkclipref>010_15_01_A2</linkclipref>
						<mediatype>audio</mediatype>
						<trackindex>1</trackindex>
						<clipindex>79</clipindex>
					</link>
					<link>
						<linkclipref>010_15_01_A3</linkclipref>
						<mediatype>audio</mediatype>
						<trackindex>2</trackindex>
						<clipindex>79</clipindex>
					</link>
					<link>
						<linkclipref>010_15_01_A4</linkclipref>
						<mediatype>audio</mediatype>
						<trackindex>3</trackindex>
						<clipindex>77</clipindex>
					</link>
					<itemhistory>
						<uuid>912195B3-BB06-4AF6-87DF-A1C55DFE14AF</uuid>
					</itemhistory>
				</clipitem>
				<clipitem id="010_15_02_A_OK2">
					<name>010_15_02_A_OK</name>
					<duration>1300</duration>
					<rate>
						<ntsc>FALSE</ntsc>
						<timebase>24</timebase>
					</rate>
					<in>327</in>
					<out>411</out>
					<start>43485</start>
					<end>43569</end>
					<subframeoffset>0</subframeoffset>
					<enabled>TRUE</enabled>
					<masterclipid>010_15_02_A_OK1</masterclipid>
					<logginginfo>
						<scene/>
						<shottake/>
						<lognote/>
						<good>FALSE</good>
					</logginginfo>
					<labels>
						<label2/>
					</labels>
					<comments>
						<mastercomment1/>
						<mastercomment2/>
						<mastercomment3/>
						<mastercomment4/>
					</comments>
					<file id="A003C008_221211_R03K"/>
					<filter>
						<effect>
							<name>Audio Levels</name>
							<effectid>audiolevels</effectid>
							<effectcategory>audiolevels</effectcategory>
							<effecttype>audiolevels</effecttype>
							<mediatype>audio</mediatype>
							<parameter>
								<name>Level</name>
								<parameterid>level</parameterid>
								<valuemin>0</valuemin>
								<valuemax>3.98109</valuemax>
								<value>1</value>
							</parameter>
						</effect>
					</filter>
					<filter>
						<effect>
							<name>Audio Pan</name>
							<effectid>audiopan</effectid>
							<effectcategory>audiopan</effectcategory>
							<effecttype>audiopan</effecttype>
							<mediatype>audio</mediatype>
							<parameter>
								<name>Pan</name>
								<parameterid>pan</parameterid>
								<valuemin>-1</valuemin>
								<valuemax>1</valuemax>
								<value>0</value>
							</parameter>
						</effect>
					</filter>
					<sourcetrack>
						<mediatype>audio</mediatype>
						<trackindex>1</trackindex>
					</sourcetrack>
					<link>
						<linkclipref>010_15_02_A_OK</linkclipref>
						<mediatype>video</mediatype>
						<trackindex>1</trackindex>
						<clipindex>80</clipindex>
					</link>
					<link>
						<linkclipref>010_15_02_A_OK2</linkclipref>
						<mediatype>audio</mediatype>
						<trackindex>1</trackindex>
						<clipindex>80</clipindex>
					</link>
					<link>
						<linkclipref>010_15_02_A_OK3</linkclipref>
						<mediatype>audio</mediatype>
						<trackindex>2</trackindex>
						<clipindex>80</clipindex>
					</link>
					<link>
						<linkclipref>010_15_02_A_OK4</linkclipref>
						<mediatype>audio</mediatype>
						<trackindex>3</trackindex>
						<clipindex>78</clipindex>
					</link>
					<itemhistory>
						<uuid>EC761E0F-5590-4A76-BB32-BD83AD178963</uuid>
					</itemhistory>
				</clipitem>
				<clipitem id="010_16_01_A2">
					<name>010_16_01_A</name>
					<duration>268</duration>
					<rate>
						<ntsc>FALSE</ntsc>
						<timebase>24</timebase>
					</rate>
					<in>0</in>
					<out>268</out>
					<start>43569</start>
					<end>43837</end>
					<subframeoffset>0</subframeoffset>
					<enabled>TRUE</enabled>
					<masterclipid>010_16_01_A1</masterclipid>
					<logginginfo>
						<scene/>
						<shottake/>
						<lognote/>
						<good>FALSE</good>
					</logginginfo>
					<labels>
						<label2/>
					</labels>
					<comments>
						<mastercomment1/>
						<mastercomment2/>
						<mastercomment3/>
						<mastercomment4/>
					</comments>
					<file id="A003C009_221211_R03K"/>
					<filter>
						<effect>
							<name>Audio Levels</name>
							<effectid>audiolevels</effectid>
							<effectcategory>audiolevels</effectcategory>
							<effecttype>audiolevels</effecttype>
							<mediatype>audio</mediatype>
							<parameter>
								<name>Level</name>
								<parameterid>level</parameterid>
								<valuemin>0</valuemin>
								<valuemax>3.98109</valuemax>
								<value>1</value>
							</parameter>
						</effect>
					</filter>
					<filter>
						<effect>
							<name>Audio Pan</name>
							<effectid>audiopan</effectid>
							<effectcategory>audiopan</effectcategory>
							<effecttype>audiopan</effecttype>
							<mediatype>audio</mediatype>
							<parameter>
								<name>Pan</name>
								<parameterid>pan</parameterid>
								<valuemin>-1</valuemin>
								<valuemax>1</valuemax>
								<value>0</value>
							</parameter>
						</effect>
					</filter>
					<sourcetrack>
						<mediatype>audio</mediatype>
						<trackindex>1</trackindex>
					</sourcetrack>
					<link>
						<linkclipref>010_16_01_A</linkclipref>
						<mediatype>video</mediatype>
						<trackindex>1</trackindex>
						<clipindex>81</clipindex>
					</link>
					<link>
						<linkclipref>010_16_01_A2</linkclipref>
						<mediatype>audio</mediatype>
						<trackindex>1</trackindex>
						<clipindex>81</clipindex>
					</link>
					<link>
						<linkclipref>010_16_01_A3</linkclipref>
						<mediatype>audio</mediatype>
						<trackindex>2</trackindex>
						<clipindex>81</clipindex>
					</link>
					<link>
						<linkclipref>010_16_01_A4</linkclipref>
						<mediatype>audio</mediatype>
						<trackindex>3</trackindex>
						<clipindex>79</clipindex>
					</link>
					<link>
						<linkclipref>010_16_01_A5</linkclipref>
						<mediatype>audio</mediatype>
						<trackindex>4</trackindex>
						<clipindex>46</clipindex>
					</link>
					<itemhistory>
						<uuid>F4D9F307-4DD1-4335-AB94-032D25889EAD</uuid>
					</itemhistory>
				</clipitem>
				<clipitem id="010_16_02_A_OK2">
					<name>010_16_02_A_OK</name>
					<duration>284</duration>
					<rate>
						<ntsc>FALSE</ntsc>
						<timebase>24</timebase>
					</rate>
					<in>87</in>
					<out>117</out>
					<start>43837</start>
					<end>43867</end>
					<subframeoffset>0</subframeoffset>
					<enabled>TRUE</enabled>
					<masterclipid>010_16_02_A_OK1</masterclipid>
					<logginginfo>
						<scene/>
						<shottake/>
						<lognote/>
						<good>FALSE</good>
					</logginginfo>
					<labels>
						<label2/>
					</labels>
					<comments>
						<mastercomment1/>
						<mastercomment2/>
						<mastercomment3/>
						<mastercomment4/>
					</comments>
					<file id="A003C010_221211_R03K"/>
					<filter>
						<effect>
							<name>Audio Levels</name>
							<effectid>audiolevels</effectid>
							<effectcategory>audiolevels</effectcategory>
							<effecttype>audiolevels</effecttype>
							<mediatype>audio</mediatype>
							<parameter>
								<name>Level</name>
								<parameterid>level</parameterid>
								<valuemin>0</valuemin>
								<valuemax>3.98109</valuemax>
								<value>1</value>
							</parameter>
						</effect>
					</filter>
					<filter>
						<effect>
							<name>Audio Pan</name>
							<effectid>audiopan</effectid>
							<effectcategory>audiopan</effectcategory>
							<effecttype>audiopan</effecttype>
							<mediatype>audio</mediatype>
							<parameter>
								<name>Pan</name>
								<parameterid>pan</parameterid>
								<valuemin>-1</valuemin>
								<valuemax>1</valuemax>
								<value>0</value>
							</parameter>
						</effect>
					</filter>
					<sourcetrack>
						<mediatype>audio</mediatype>
						<trackindex>1</trackindex>
					</sourcetrack>
					<link>
						<linkclipref>010_16_02_A_OK</linkclipref>
						<mediatype>video</mediatype>
						<trackindex>1</trackindex>
						<clipindex>82</clipindex>
					</link>
					<link>
						<linkclipref>010_16_02_A_OK2</linkclipref>
						<mediatype>audio</mediatype>
						<trackindex>1</trackindex>
						<clipindex>82</clipindex>
					</link>
					<link>
						<linkclipref>010_16_02_A_OK3</linkclipref>
						<mediatype>audio</mediatype>
						<trackindex>2</trackindex>
						<clipindex>82</clipindex>
					</link>
					<link>
						<linkclipref>010_16_02_A_OK4</linkclipref>
						<mediatype>audio</mediatype>
						<trackindex>3</trackindex>
						<clipindex>80</clipindex>
					</link>
					<link>
						<linkclipref>010_16_02_A_OK5</linkclipref>
						<mediatype>audio</mediatype>
						<trackindex>4</trackindex>
						<clipindex>47</clipindex>
					</link>
					<itemhistory>
						<uuid>2605BAC8-0244-45C2-9A42-73F155E06EA3</uuid>
					</itemhistory>
				</clipitem>
				<clipitem id="010_17_01_B2">
					<name>010_17_01_B</name>
					<duration>709</duration>
					<rate>
						<ntsc>FALSE</ntsc>
						<timebase>24</timebase>
					</rate>
					<in>0</in>
					<out>709</out>
					<start>43867</start>
					<end>44576</end>
					<subframeoffset>0</subframeoffset>
					<enabled>TRUE</enabled>
					<masterclipid>010_17_01_B1</masterclipid>
					<logginginfo>
						<scene/>
						<shottake/>
						<lognote/>
						<good>FALSE</good>
					</logginginfo>
					<labels>
						<label2/>
					</labels>
					<comments>
						<mastercomment1/>
						<mastercomment2/>
						<mastercomment3/>
						<mastercomment4/>
					</comments>
					<file id="B002C015_130101_R1WX"/>
					<filter>
						<effect>
							<name>Audio Levels</name>
							<effectid>audiolevels</effectid>
							<effectcategory>audiolevels</effectcategory>
							<effecttype>audiolevels</effecttype>
							<mediatype>audio</mediatype>
							<parameter>
								<name>Level</name>
								<parameterid>level</parameterid>
								<valuemin>0</valuemin>
								<valuemax>3.98109</valuemax>
								<value>1</value>
							</parameter>
						</effect>
					</filter>
					<filter>
						<effect>
							<name>Audio Pan</name>
							<effectid>audiopan</effectid>
							<effectcategory>audiopan</effectcategory>
							<effecttype>audiopan</effecttype>
							<mediatype>audio</mediatype>
							<parameter>
								<name>Pan</name>
								<parameterid>pan</parameterid>
								<valuemin>-1</valuemin>
								<valuemax>1</valuemax>
								<value>0</value>
							</parameter>
						</effect>
					</filter>
					<sourcetrack>
						<mediatype>audio</mediatype>
						<trackindex>1</trackindex>
					</sourcetrack>
					<link>
						<linkclipref>010_17_01_B</linkclipref>
						<mediatype>video</mediatype>
						<trackindex>1</trackindex>
						<clipindex>83</clipindex>
					</link>
					<link>
						<linkclipref>010_17_01_B2</linkclipref>
						<mediatype>audio</mediatype>
						<trackindex>1</trackindex>
						<clipindex>83</clipindex>
					</link>
					<link>
						<linkclipref>010_17_01_B3</linkclipref>
						<mediatype>audio</mediatype>
						<trackindex>2</trackindex>
						<clipindex>83</clipindex>
					</link>
					<link>
						<linkclipref>010_17_01_B4</linkclipref>
						<mediatype>audio</mediatype>
						<trackindex>3</trackindex>
						<clipindex>81</clipindex>
					</link>
					<link>
						<linkclipref>010_17_01_B5</linkclipref>
						<mediatype>audio</mediatype>
						<trackindex>4</trackindex>
						<clipindex>48</clipindex>
					</link>
					<itemhistory>
						<uuid>1B5384E1-69F2-4279-A8EA-36D993E739A4</uuid>
					</itemhistory>
				</clipitem>
				<clipitem id="010_17_02_B_OK2">
					<name>010_17_02_B_OK</name>
					<duration>2132</duration>
					<rate>
						<ntsc>FALSE</ntsc>
						<timebase>24</timebase>
					</rate>
					<in>804</in>
					<out>886</out>
					<start>44576</start>
					<end>44658</end>
					<subframeoffset>0</subframeoffset>
					<enabled>TRUE</enabled>
					<masterclipid>010_17_02_B_OK1</masterclipid>
					<logginginfo>
						<scene/>
						<shottake/>
						<lognote/>
						<good>FALSE</good>
					</logginginfo>
					<labels>
						<label2/>
					</labels>
					<comments>
						<mastercomment1/>
						<mastercomment2/>
						<mastercomment3/>
						<mastercomment4/>
					</comments>
					<file id="B002C016_130101_R1WX"/>
					<filter>
						<effect>
							<name>Audio Levels</name>
							<effectid>audiolevels</effectid>
							<effectcategory>audiolevels</effectcategory>
							<effecttype>audiolevels</effecttype>
							<mediatype>audio</mediatype>
							<parameter>
								<name>Level</name>
								<parameterid>level</parameterid>
								<valuemin>0</valuemin>
								<valuemax>3.98109</valuemax>
								<value>1</value>
							</parameter>
						</effect>
					</filter>
					<filter>
						<effect>
							<name>Audio Pan</name>
							<effectid>audiopan</effectid>
							<effectcategory>audiopan</effectcategory>
							<effecttype>audiopan</effecttype>
							<mediatype>audio</mediatype>
							<parameter>
								<name>Pan</name>
								<parameterid>pan</parameterid>
								<valuemin>-1</valuemin>
								<valuemax>1</valuemax>
								<value>0</value>
							</parameter>
						</effect>
					</filter>
					<sourcetrack>
						<mediatype>audio</mediatype>
						<trackindex>1</trackindex>
					</sourcetrack>
					<link>
						<linkclipref>010_17_02_B_OK</linkclipref>
						<mediatype>video</mediatype>
						<trackindex>1</trackindex>
						<clipindex>84</clipindex>
					</link>
					<link>
						<linkclipref>010_17_02_B_OK2</linkclipref>
						<mediatype>audio</mediatype>
						<trackindex>1</trackindex>
						<clipindex>84</clipindex>
					</link>
					<link>
						<linkclipref>010_17_02_B_OK3</linkclipref>
						<mediatype>audio</mediatype>
						<trackindex>2</trackindex>
						<clipindex>84</clipindex>
					</link>
					<link>
						<linkclipref>010_17_02_B_OK4</linkclipref>
						<mediatype>audio</mediatype>
						<trackindex>3</trackindex>
						<clipindex>82</clipindex>
					</link>
					<link>
						<linkclipref>010_17_02_B_OK5</linkclipref>
						<mediatype>audio</mediatype>
						<trackindex>4</trackindex>
						<clipindex>49</clipindex>
					</link>
					<itemhistory>
						<uuid>0AD3E214-2D04-48F0-8A0C-32C3F122E30F</uuid>
					</itemhistory>
				</clipitem>
				<clipitem id="010_18_01_A_KP2">
					<name>010_18_01_A_KP</name>
					<duration>1008</duration>
					<rate>
						<ntsc>FALSE</ntsc>
						<timebase>24</timebase>
					</rate>
					<in>531</in>
					<out>1008</out>
					<start>44658</start>
					<end>45135</end>
					<subframeoffset>0</subframeoffset>
					<enabled>TRUE</enabled>
					<masterclipid>010_18_01_A_KP1</masterclipid>
					<logginginfo>
						<scene/>
						<shottake/>
						<lognote/>
						<good>FALSE</good>
					</logginginfo>
					<labels>
						<label2/>
					</labels>
					<comments>
						<mastercomment1/>
						<mastercomment2/>
						<mastercomment3/>
						<mastercomment4/>
					</comments>
					<file id="A003C011_221211_R03K"/>
					<filter>
						<effect>
							<name>Audio Levels</name>
							<effectid>audiolevels</effectid>
							<effectcategory>audiolevels</effectcategory>
							<effecttype>audiolevels</effecttype>
							<mediatype>audio</mediatype>
							<parameter>
								<name>Level</name>
								<parameterid>level</parameterid>
								<valuemin>0</valuemin>
								<valuemax>3.98109</valuemax>
								<value>1</value>
							</parameter>
						</effect>
					</filter>
					<filter>
						<effect>
							<name>Audio Pan</name>
							<effectid>audiopan</effectid>
							<effectcategory>audiopan</effectcategory>
							<effecttype>audiopan</effecttype>
							<mediatype>audio</mediatype>
							<parameter>
								<name>Pan</name>
								<parameterid>pan</parameterid>
								<valuemin>-1</valuemin>
								<valuemax>1</valuemax>
								<value>0</value>
							</parameter>
						</effect>
					</filter>
					<sourcetrack>
						<mediatype>audio</mediatype>
						<trackindex>1</trackindex>
					</sourcetrack>
					<link>
						<linkclipref>010_18_01_A_KP</linkclipref>
						<mediatype>video</mediatype>
						<trackindex>1</trackindex>
						<clipindex>85</clipindex>
					</link>
					<link>
						<linkclipref>010_18_01_A_KP2</linkclipref>
						<mediatype>audio</mediatype>
						<trackindex>1</trackindex>
						<clipindex>85</clipindex>
					</link>
					<link>
						<linkclipref>010_18_01_A_KP3</linkclipref>
						<mediatype>audio</mediatype>
						<trackindex>2</trackindex>
						<clipindex>85</clipindex>
					</link>
					<link>
						<linkclipref>010_18_01_A_KP4</linkclipref>
						<mediatype>audio</mediatype>
						<trackindex>3</trackindex>
						<clipindex>83</clipindex>
					</link>
					<link>
						<linkclipref>010_18_01_A_KP5</linkclipref>
						<mediatype>audio</mediatype>
						<trackindex>4</trackindex>
						<clipindex>50</clipindex>
					</link>
					<itemhistory>
						<uuid>D5A8C8D3-F9B5-454B-AAAE-E7B71C47E349</uuid>
					</itemhistory>
				</clipitem>
				<clipitem id="010_18_02_A2">
					<name>010_18_02_A</name>
					<duration>461</duration>
					<rate>
						<ntsc>FALSE</ntsc>
						<timebase>24</timebase>
					</rate>
					<in>0</in>
					<out>461</out>
					<start>45135</start>
					<end>45596</end>
					<subframeoffset>0</subframeoffset>
					<enabled>TRUE</enabled>
					<masterclipid>010_18_02_A1</masterclipid>
					<logginginfo>
						<scene/>
						<shottake/>
						<lognote/>
						<good>FALSE</good>
					</logginginfo>
					<labels>
						<label2/>
					</labels>
					<comments>
						<mastercomment1/>
						<mastercomment2/>
						<mastercomment3/>
						<mastercomment4/>
					</comments>
					<file id="A003C012_221211_R03K"/>
					<filter>
						<effect>
							<name>Audio Levels</name>
							<effectid>audiolevels</effectid>
							<effectcategory>audiolevels</effectcategory>
							<effecttype>audiolevels</effecttype>
							<mediatype>audio</mediatype>
							<parameter>
								<name>Level</name>
								<parameterid>level</parameterid>
								<valuemin>0</valuemin>
								<valuemax>3.98109</valuemax>
								<value>1</value>
							</parameter>
						</effect>
					</filter>
					<filter>
						<effect>
							<name>Audio Pan</name>
							<effectid>audiopan</effectid>
							<effectcategory>audiopan</effectcategory>
							<effecttype>audiopan</effecttype>
							<mediatype>audio</mediatype>
							<parameter>
								<name>Pan</name>
								<parameterid>pan</parameterid>
								<valuemin>-1</valuemin>
								<valuemax>1</valuemax>
								<value>0</value>
							</parameter>
						</effect>
					</filter>
					<sourcetrack>
						<mediatype>audio</mediatype>
						<trackindex>1</trackindex>
					</sourcetrack>
					<link>
						<linkclipref>010_18_02_A</linkclipref>
						<mediatype>video</mediatype>
						<trackindex>1</trackindex>
						<clipindex>86</clipindex>
					</link>
					<link>
						<linkclipref>010_18_02_A2</linkclipref>
						<mediatype>audio</mediatype>
						<trackindex>1</trackindex>
						<clipindex>86</clipindex>
					</link>
					<link>
						<linkclipref>010_18_02_A3</linkclipref>
						<mediatype>audio</mediatype>
						<trackindex>2</trackindex>
						<clipindex>86</clipindex>
					</link>
					<link>
						<linkclipref>010_18_02_A4</linkclipref>
						<mediatype>audio</mediatype>
						<trackindex>3</trackindex>
						<clipindex>84</clipindex>
					</link>
					<link>
						<linkclipref>010_18_02_A5</linkclipref>
						<mediatype>audio</mediatype>
						<trackindex>4</trackindex>
						<clipindex>51</clipindex>
					</link>
					<itemhistory>
						<uuid>D63AFF4C-ECB6-4E98-A8B4-B4E59C81BD29</uuid>
					</itemhistory>
				</clipitem>
				<clipitem id="010_18_03_A2">
					<name>010_18_03_A</name>
					<duration>298</duration>
					<rate>
						<ntsc>FALSE</ntsc>
						<timebase>24</timebase>
					</rate>
					<in>0</in>
					<out>298</out>
					<start>45596</start>
					<end>45894</end>
					<subframeoffset>0</subframeoffset>
					<enabled>TRUE</enabled>
					<masterclipid>010_18_03_A1</masterclipid>
					<logginginfo>
						<scene/>
						<shottake/>
						<lognote/>
						<good>FALSE</good>
					</logginginfo>
					<labels>
						<label2/>
					</labels>
					<comments>
						<mastercomment1/>
						<mastercomment2/>
						<mastercomment3/>
						<mastercomment4/>
					</comments>
					<file id="A003C013_221211_R03K"/>
					<filter>
						<effect>
							<name>Audio Levels</name>
							<effectid>audiolevels</effectid>
							<effectcategory>audiolevels</effectcategory>
							<effecttype>audiolevels</effecttype>
							<mediatype>audio</mediatype>
							<parameter>
								<name>Level</name>
								<parameterid>level</parameterid>
								<valuemin>0</valuemin>
								<valuemax>3.98109</valuemax>
								<value>1</value>
							</parameter>
						</effect>
					</filter>
					<filter>
						<effect>
							<name>Audio Pan</name>
							<effectid>audiopan</effectid>
							<effectcategory>audiopan</effectcategory>
							<effecttype>audiopan</effecttype>
							<mediatype>audio</mediatype>
							<parameter>
								<name>Pan</name>
								<parameterid>pan</parameterid>
								<valuemin>-1</valuemin>
								<valuemax>1</valuemax>
								<value>0</value>
							</parameter>
						</effect>
					</filter>
					<sourcetrack>
						<mediatype>audio</mediatype>
						<trackindex>1</trackindex>
					</sourcetrack>
					<link>
						<linkclipref>010_18_03_A</linkclipref>
						<mediatype>video</mediatype>
						<trackindex>1</trackindex>
						<clipindex>87</clipindex>
					</link>
					<link>
						<linkclipref>010_18_03_A2</linkclipref>
						<mediatype>audio</mediatype>
						<trackindex>1</trackindex>
						<clipindex>87</clipindex>
					</link>
					<link>
						<linkclipref>010_18_03_A3</linkclipref>
						<mediatype>audio</mediatype>
						<trackindex>2</trackindex>
						<clipindex>87</clipindex>
					</link>
					<link>
						<linkclipref>010_18_03_A4</linkclipref>
						<mediatype>audio</mediatype>
						<trackindex>3</trackindex>
						<clipindex>85</clipindex>
					</link>
					<link>
						<linkclipref>010_18_03_A5</linkclipref>
						<mediatype>audio</mediatype>
						<trackindex>4</trackindex>
						<clipindex>52</clipindex>
					</link>
					<itemhistory>
						<uuid>D5E649FF-FEAC-4F6D-BDE9-1A07D23236C1</uuid>
					</itemhistory>
				</clipitem>
				<clipitem id="010_18_04_A_OK2">
					<name>010_18_04_A_OK</name>
					<duration>519</duration>
					<rate>
						<ntsc>FALSE</ntsc>
						<timebase>24</timebase>
					</rate>
					<in>259</in>
					<out>303</out>
					<start>45894</start>
					<end>45938</end>
					<subframeoffset>0</subframeoffset>
					<enabled>TRUE</enabled>
					<masterclipid>010_18_04_A_OK1</masterclipid>
					<logginginfo>
						<scene/>
						<shottake/>
						<lognote/>
						<good>FALSE</good>
					</logginginfo>
					<labels>
						<label2/>
					</labels>
					<comments>
						<mastercomment1/>
						<mastercomment2/>
						<mastercomment3/>
						<mastercomment4/>
					</comments>
					<file id="A003C014_221211_R03K"/>
					<filter>
						<effect>
							<name>Audio Levels</name>
							<effectid>audiolevels</effectid>
							<effectcategory>audiolevels</effectcategory>
							<effecttype>audiolevels</effecttype>
							<mediatype>audio</mediatype>
							<parameter>
								<name>Level</name>
								<parameterid>level</parameterid>
								<valuemin>0</valuemin>
								<valuemax>3.98109</valuemax>
								<value>1</value>
							</parameter>
						</effect>
					</filter>
					<filter>
						<effect>
							<name>Audio Pan</name>
							<effectid>audiopan</effectid>
							<effectcategory>audiopan</effectcategory>
							<effecttype>audiopan</effecttype>
							<mediatype>audio</mediatype>
							<parameter>
								<name>Pan</name>
								<parameterid>pan</parameterid>
								<valuemin>-1</valuemin>
								<valuemax>1</valuemax>
								<value>0</value>
							</parameter>
						</effect>
					</filter>
					<sourcetrack>
						<mediatype>audio</mediatype>
						<trackindex>1</trackindex>
					</sourcetrack>
					<link>
						<linkclipref>010_18_04_A_OK</linkclipref>
						<mediatype>video</mediatype>
						<trackindex>1</trackindex>
						<clipindex>88</clipindex>
					</link>
					<link>
						<linkclipref>010_18_04_A_OK2</linkclipref>
						<mediatype>audio</mediatype>
						<trackindex>1</trackindex>
						<clipindex>88</clipindex>
					</link>
					<link>
						<linkclipref>010_18_04_A_OK3</linkclipref>
						<mediatype>audio</mediatype>
						<trackindex>2</trackindex>
						<clipindex>88</clipindex>
					</link>
					<link>
						<linkclipref>010_18_04_A_OK4</linkclipref>
						<mediatype>audio</mediatype>
						<trackindex>3</trackindex>
						<clipindex>86</clipindex>
					</link>
					<link>
						<linkclipref>010_18_04_A_OK5</linkclipref>
						<mediatype>audio</mediatype>
						<trackindex>4</trackindex>
						<clipindex>53</clipindex>
					</link>
					<itemhistory>
						<uuid>8D97C178-3092-4CCB-8257-E44E8469DB27</uuid>
					</itemhistory>
				</clipitem>
				<clipitem id="010_19_01_A2">
					<name>010_19_01_A</name>
					<duration>745</duration>
					<rate>
						<ntsc>FALSE</ntsc>
						<timebase>24</timebase>
					</rate>
					<in>0</in>
					<out>745</out>
					<start>45938</start>
					<end>46683</end>
					<subframeoffset>0</subframeoffset>
					<enabled>TRUE</enabled>
					<masterclipid>010_19_01_A1</masterclipid>
					<logginginfo>
						<scene/>
						<shottake/>
						<lognote/>
						<good>FALSE</good>
					</logginginfo>
					<labels>
						<label2/>
					</labels>
					<comments>
						<mastercomment1/>
						<mastercomment2/>
						<mastercomment3/>
						<mastercomment4/>
					</comments>
					<file id="A003C015_221211_R03K"/>
					<filter>
						<effect>
							<name>Audio Levels</name>
							<effectid>audiolevels</effectid>
							<effectcategory>audiolevels</effectcategory>
							<effecttype>audiolevels</effecttype>
							<mediatype>audio</mediatype>
							<parameter>
								<name>Level</name>
								<parameterid>level</parameterid>
								<valuemin>0</valuemin>
								<valuemax>3.98109</valuemax>
								<value>1</value>
							</parameter>
						</effect>
					</filter>
					<filter>
						<effect>
							<name>Audio Pan</name>
							<effectid>audiopan</effectid>
							<effectcategory>audiopan</effectcategory>
							<effecttype>audiopan</effecttype>
							<mediatype>audio</mediatype>
							<parameter>
								<name>Pan</name>
								<parameterid>pan</parameterid>
								<valuemin>-1</valuemin>
								<valuemax>1</valuemax>
								<value>0</value>
							</parameter>
						</effect>
					</filter>
					<sourcetrack>
						<mediatype>audio</mediatype>
						<trackindex>1</trackindex>
					</sourcetrack>
					<link>
						<linkclipref>010_19_01_A</linkclipref>
						<mediatype>video</mediatype>
						<trackindex>1</trackindex>
						<clipindex>89</clipindex>
					</link>
					<link>
						<linkclipref>010_19_01_A2</linkclipref>
						<mediatype>audio</mediatype>
						<trackindex>1</trackindex>
						<clipindex>89</clipindex>
					</link>
					<link>
						<linkclipref>010_19_01_A3</linkclipref>
						<mediatype>audio</mediatype>
						<trackindex>2</trackindex>
						<clipindex>89</clipindex>
					</link>
					<link>
						<linkclipref>010_19_01_A4</linkclipref>
						<mediatype>audio</mediatype>
						<trackindex>3</trackindex>
						<clipindex>87</clipindex>
					</link>
					<itemhistory>
						<uuid>3C8C4593-1366-4832-ABC5-77B240AA8788</uuid>
					</itemhistory>
				</clipitem>
				<clipitem id="010_19_02_A_OK2">
					<name>010_19_02_A_OK</name>
					<duration>706</duration>
					<rate>
						<ntsc>FALSE</ntsc>
						<timebase>24</timebase>
					</rate>
					<in>147</in>
					<out>251</out>
					<start>46683</start>
					<end>46787</end>
					<subframeoffset>0</subframeoffset>
					<enabled>TRUE</enabled>
					<masterclipid>010_19_02_A_OK1</masterclipid>
					<logginginfo>
						<scene/>
						<shottake/>
						<lognote/>
						<good>FALSE</good>
					</logginginfo>
					<labels>
						<label2/>
					</labels>
					<comments>
						<mastercomment1/>
						<mastercomment2/>
						<mastercomment3/>
						<mastercomment4/>
					</comments>
					<file id="A003C016_221211_R03K"/>
					<filter>
						<effect>
							<name>Audio Levels</name>
							<effectid>audiolevels</effectid>
							<effectcategory>audiolevels</effectcategory>
							<effecttype>audiolevels</effecttype>
							<mediatype>audio</mediatype>
							<parameter>
								<name>Level</name>
								<parameterid>level</parameterid>
								<valuemin>0</valuemin>
								<valuemax>3.98109</valuemax>
								<value>1</value>
							</parameter>
						</effect>
					</filter>
					<filter>
						<effect>
							<name>Audio Pan</name>
							<effectid>audiopan</effectid>
							<effectcategory>audiopan</effectcategory>
							<effecttype>audiopan</effecttype>
							<mediatype>audio</mediatype>
							<parameter>
								<name>Pan</name>
								<parameterid>pan</parameterid>
								<valuemin>-1</valuemin>
								<valuemax>1</valuemax>
								<value>0</value>
							</parameter>
						</effect>
					</filter>
					<sourcetrack>
						<mediatype>audio</mediatype>
						<trackindex>1</trackindex>
					</sourcetrack>
					<link>
						<linkclipref>010_19_02_A_OK</linkclipref>
						<mediatype>video</mediatype>
						<trackindex>1</trackindex>
						<clipindex>90</clipindex>
					</link>
					<link>
						<linkclipref>010_19_02_A_OK2</linkclipref>
						<mediatype>audio</mediatype>
						<trackindex>1</trackindex>
						<clipindex>90</clipindex>
					</link>
					<link>
						<linkclipref>010_19_02_A_OK3</linkclipref>
						<mediatype>audio</mediatype>
						<trackindex>2</trackindex>
						<clipindex>90</clipindex>
					</link>
					<link>
						<linkclipref>010_19_02_A_OK4</linkclipref>
						<mediatype>audio</mediatype>
						<trackindex>3</trackindex>
						<clipindex>88</clipindex>
					</link>
					<itemhistory>
						<uuid>D6A31A5B-52FC-4661-B38E-62BC606BB6EA</uuid>
					</itemhistory>
				</clipitem>
				<clipitem id="010_20_01_A2">
					<name>010_20_01_A</name>
					<duration>302</duration>
					<rate>
						<ntsc>FALSE</ntsc>
						<timebase>24</timebase>
					</rate>
					<in>0</in>
					<out>302</out>
					<start>46787</start>
					<end>47089</end>
					<subframeoffset>0</subframeoffset>
					<enabled>TRUE</enabled>
					<masterclipid>010_20_01_A1</masterclipid>
					<logginginfo>
						<scene/>
						<shottake/>
						<lognote/>
						<good>FALSE</good>
					</logginginfo>
					<labels>
						<label2/>
					</labels>
					<comments>
						<mastercomment1/>
						<mastercomment2/>
						<mastercomment3/>
						<mastercomment4/>
					</comments>
					<file id="A003C017_221211_R03K"/>
					<filter>
						<effect>
							<name>Audio Levels</name>
							<effectid>audiolevels</effectid>
							<effectcategory>audiolevels</effectcategory>
							<effecttype>audiolevels</effecttype>
							<mediatype>audio</mediatype>
							<parameter>
								<name>Level</name>
								<parameterid>level</parameterid>
								<valuemin>0</valuemin>
								<valuemax>3.98109</valuemax>
								<value>1</value>
							</parameter>
						</effect>
					</filter>
					<filter>
						<effect>
							<name>Audio Pan</name>
							<effectid>audiopan</effectid>
							<effectcategory>audiopan</effectcategory>
							<effecttype>audiopan</effecttype>
							<mediatype>audio</mediatype>
							<parameter>
								<name>Pan</name>
								<parameterid>pan</parameterid>
								<valuemin>-1</valuemin>
								<valuemax>1</valuemax>
								<value>0</value>
							</parameter>
						</effect>
					</filter>
					<sourcetrack>
						<mediatype>audio</mediatype>
						<trackindex>1</trackindex>
					</sourcetrack>
					<link>
						<linkclipref>010_20_01_A</linkclipref>
						<mediatype>video</mediatype>
						<trackindex>1</trackindex>
						<clipindex>91</clipindex>
					</link>
					<link>
						<linkclipref>010_20_01_A2</linkclipref>
						<mediatype>audio</mediatype>
						<trackindex>1</trackindex>
						<clipindex>91</clipindex>
					</link>
					<link>
						<linkclipref>010_20_01_A3</linkclipref>
						<mediatype>audio</mediatype>
						<trackindex>2</trackindex>
						<clipindex>91</clipindex>
					</link>
					<link>
						<linkclipref>010_20_01_A4</linkclipref>
						<mediatype>audio</mediatype>
						<trackindex>3</trackindex>
						<clipindex>89</clipindex>
					</link>
					<itemhistory>
						<uuid>3B4BED8E-35E3-4A88-8ECE-DB6651F87D19</uuid>
					</itemhistory>
				</clipitem>
				<clipitem id="010_20_02_A2">
					<name>010_20_02_A</name>
					<duration>399</duration>
					<rate>
						<ntsc>FALSE</ntsc>
						<timebase>24</timebase>
					</rate>
					<in>0</in>
					<out>399</out>
					<start>47089</start>
					<end>47488</end>
					<subframeoffset>0</subframeoffset>
					<enabled>TRUE</enabled>
					<masterclipid>010_20_02_A1</masterclipid>
					<logginginfo>
						<scene/>
						<shottake/>
						<lognote/>
						<good>FALSE</good>
					</logginginfo>
					<labels>
						<label2/>
					</labels>
					<comments>
						<mastercomment1/>
						<mastercomment2/>
						<mastercomment3/>
						<mastercomment4/>
					</comments>
					<file id="A003C018_221211_R03K"/>
					<filter>
						<effect>
							<name>Audio Levels</name>
							<effectid>audiolevels</effectid>
							<effectcategory>audiolevels</effectcategory>
							<effecttype>audiolevels</effecttype>
							<mediatype>audio</mediatype>
							<parameter>
								<name>Level</name>
								<parameterid>level</parameterid>
								<valuemin>0</valuemin>
								<valuemax>3.98109</valuemax>
								<value>1</value>
							</parameter>
						</effect>
					</filter>
					<filter>
						<effect>
							<name>Audio Pan</name>
							<effectid>audiopan</effectid>
							<effectcategory>audiopan</effectcategory>
							<effecttype>audiopan</effecttype>
							<mediatype>audio</mediatype>
							<parameter>
								<name>Pan</name>
								<parameterid>pan</parameterid>
								<valuemin>-1</valuemin>
								<valuemax>1</valuemax>
								<value>0</value>
							</parameter>
						</effect>
					</filter>
					<sourcetrack>
						<mediatype>audio</mediatype>
						<trackindex>1</trackindex>
					</sourcetrack>
					<link>
						<linkclipref>010_20_02_A</linkclipref>
						<mediatype>video</mediatype>
						<trackindex>1</trackindex>
						<clipindex>92</clipindex>
					</link>
					<link>
						<linkclipref>010_20_02_A2</linkclipref>
						<mediatype>audio</mediatype>
						<trackindex>1</trackindex>
						<clipindex>92</clipindex>
					</link>
					<link>
						<linkclipref>010_20_02_A3</linkclipref>
						<mediatype>audio</mediatype>
						<trackindex>2</trackindex>
						<clipindex>92</clipindex>
					</link>
					<link>
						<linkclipref>010_20_02_A4</linkclipref>
						<mediatype>audio</mediatype>
						<trackindex>3</trackindex>
						<clipindex>90</clipindex>
					</link>
					<itemhistory>
						<uuid>C64A4A83-F604-42D7-A9F5-B048FA59A1E4</uuid>
					</itemhistory>
				</clipitem>
				<clipitem id="010_20_03_A_OK2">
					<name>010_20_03_A_OK</name>
					<duration>424</duration>
					<rate>
						<ntsc>FALSE</ntsc>
						<timebase>24</timebase>
					</rate>
					<in>127</in>
					<out>224</out>
					<start>47488</start>
					<end>47585</end>
					<subframeoffset>0</subframeoffset>
					<enabled>TRUE</enabled>
					<masterclipid>010_20_03_A_OK1</masterclipid>
					<logginginfo>
						<scene/>
						<shottake/>
						<lognote/>
						<good>FALSE</good>
					</logginginfo>
					<labels>
						<label2/>
					</labels>
					<comments>
						<mastercomment1/>
						<mastercomment2/>
						<mastercomment3/>
						<mastercomment4/>
					</comments>
					<file id="A003C019_221211_R03K"/>
					<filter>
						<effect>
							<name>Audio Levels</name>
							<effectid>audiolevels</effectid>
							<effectcategory>audiolevels</effectcategory>
							<effecttype>audiolevels</effecttype>
							<mediatype>audio</mediatype>
							<parameter>
								<name>Level</name>
								<parameterid>level</parameterid>
								<valuemin>0</valuemin>
								<valuemax>3.98109</valuemax>
								<value>1</value>
							</parameter>
						</effect>
					</filter>
					<filter>
						<effect>
							<name>Audio Pan</name>
							<effectid>audiopan</effectid>
							<effectcategory>audiopan</effectcategory>
							<effecttype>audiopan</effecttype>
							<mediatype>audio</mediatype>
							<parameter>
								<name>Pan</name>
								<parameterid>pan</parameterid>
								<valuemin>-1</valuemin>
								<valuemax>1</valuemax>
								<value>0</value>
							</parameter>
						</effect>
					</filter>
					<sourcetrack>
						<mediatype>audio</mediatype>
						<trackindex>1</trackindex>
					</sourcetrack>
					<link>
						<linkclipref>010_20_03_A_OK</linkclipref>
						<mediatype>video</mediatype>
						<trackindex>1</trackindex>
						<clipindex>93</clipindex>
					</link>
					<link>
						<linkclipref>010_20_03_A_OK2</linkclipref>
						<mediatype>audio</mediatype>
						<trackindex>1</trackindex>
						<clipindex>93</clipindex>
					</link>
					<link>
						<linkclipref>010_20_03_A_OK3</linkclipref>
						<mediatype>audio</mediatype>
						<trackindex>2</trackindex>
						<clipindex>93</clipindex>
					</link>
					<link>
						<linkclipref>010_20_03_A_OK4</linkclipref>
						<mediatype>audio</mediatype>
						<trackindex>3</trackindex>
						<clipindex>91</clipindex>
					</link>
					<itemhistory>
						<uuid>9BA05E7E-D5D6-4526-BB39-9E713946A637</uuid>
					</itemhistory>
				</clipitem>
				<clipitem id="010_21_01_A2">
					<name>010_21_01_A</name>
					<duration>543</duration>
					<rate>
						<ntsc>FALSE</ntsc>
						<timebase>24</timebase>
					</rate>
					<in>277</in>
					<out>327</out>
					<start>47585</start>
					<end>47635</end>
					<subframeoffset>0</subframeoffset>
					<enabled>TRUE</enabled>
					<masterclipid>010_21_01_A1</masterclipid>
					<logginginfo>
						<scene/>
						<shottake/>
						<lognote/>
						<good>FALSE</good>
					</logginginfo>
					<labels>
						<label2/>
					</labels>
					<comments>
						<mastercomment1/>
						<mastercomment2/>
						<mastercomment3/>
						<mastercomment4/>
					</comments>
					<file id="A003C020_221211_R03K"/>
					<filter>
						<effect>
							<name>Audio Levels</name>
							<effectid>audiolevels</effectid>
							<effectcategory>audiolevels</effectcategory>
							<effecttype>audiolevels</effecttype>
							<mediatype>audio</mediatype>
							<parameter>
								<name>Level</name>
								<parameterid>level</parameterid>
								<valuemin>0</valuemin>
								<valuemax>3.98109</valuemax>
								<value>1</value>
							</parameter>
						</effect>
					</filter>
					<filter>
						<effect>
							<name>Audio Pan</name>
							<effectid>audiopan</effectid>
							<effectcategory>audiopan</effectcategory>
							<effecttype>audiopan</effecttype>
							<mediatype>audio</mediatype>
							<parameter>
								<name>Pan</name>
								<parameterid>pan</parameterid>
								<valuemin>-1</valuemin>
								<valuemax>1</valuemax>
								<value>0</value>
							</parameter>
						</effect>
					</filter>
					<sourcetrack>
						<mediatype>audio</mediatype>
						<trackindex>1</trackindex>
					</sourcetrack>
					<link>
						<linkclipref>010_21_01_A</linkclipref>
						<mediatype>video</mediatype>
						<trackindex>1</trackindex>
						<clipindex>94</clipindex>
					</link>
					<link>
						<linkclipref>010_21_01_A2</linkclipref>
						<mediatype>audio</mediatype>
						<trackindex>1</trackindex>
						<clipindex>94</clipindex>
					</link>
					<link>
						<linkclipref>010_21_01_A3</linkclipref>
						<mediatype>audio</mediatype>
						<trackindex>2</trackindex>
						<clipindex>94</clipindex>
					</link>
					<link>
						<linkclipref>010_21_01_A4</linkclipref>
						<mediatype>audio</mediatype>
						<trackindex>3</trackindex>
						<clipindex>92</clipindex>
					</link>
					<itemhistory>
						<uuid>1F6E9185-259A-4A65-B0B8-8ADB0E4E19CE</uuid>
					</itemhistory>
				</clipitem>
				<clipitem id="010_21_02_A2">
					<name>010_21_02_A</name>
					<duration>773</duration>
					<rate>
						<ntsc>FALSE</ntsc>
						<timebase>24</timebase>
					</rate>
					<in>534</in>
					<out>602</out>
					<start>47635</start>
					<end>47703</end>
					<subframeoffset>0</subframeoffset>
					<enabled>TRUE</enabled>
					<masterclipid>010_21_02_A1</masterclipid>
					<logginginfo>
						<scene/>
						<shottake/>
						<lognote/>
						<good>FALSE</good>
					</logginginfo>
					<labels>
						<label2/>
					</labels>
					<comments>
						<mastercomment1/>
						<mastercomment2/>
						<mastercomment3/>
						<mastercomment4/>
					</comments>
					<file id="A003C021_221211_R03K"/>
					<filter>
						<effect>
							<name>Audio Levels</name>
							<effectid>audiolevels</effectid>
							<effectcategory>audiolevels</effectcategory>
							<effecttype>audiolevels</effecttype>
							<mediatype>audio</mediatype>
							<parameter>
								<name>Level</name>
								<parameterid>level</parameterid>
								<valuemin>0</valuemin>
								<valuemax>3.98109</valuemax>
								<value>1</value>
							</parameter>
						</effect>
					</filter>
					<filter>
						<effect>
							<name>Audio Pan</name>
							<effectid>audiopan</effectid>
							<effectcategory>audiopan</effectcategory>
							<effecttype>audiopan</effecttype>
							<mediatype>audio</mediatype>
							<parameter>
								<name>Pan</name>
								<parameterid>pan</parameterid>
								<valuemin>-1</valuemin>
								<valuemax>1</valuemax>
								<value>0</value>
							</parameter>
						</effect>
					</filter>
					<sourcetrack>
						<mediatype>audio</mediatype>
						<trackindex>1</trackindex>
					</sourcetrack>
					<link>
						<linkclipref>010_21_02_A</linkclipref>
						<mediatype>video</mediatype>
						<trackindex>1</trackindex>
						<clipindex>95</clipindex>
					</link>
					<link>
						<linkclipref>010_21_02_A2</linkclipref>
						<mediatype>audio</mediatype>
						<trackindex>1</trackindex>
						<clipindex>95</clipindex>
					</link>
					<link>
						<linkclipref>010_21_02_A3</linkclipref>
						<mediatype>audio</mediatype>
						<trackindex>2</trackindex>
						<clipindex>95</clipindex>
					</link>
					<link>
						<linkclipref>010_21_02_A4</linkclipref>
						<mediatype>audio</mediatype>
						<trackindex>3</trackindex>
						<clipindex>93</clipindex>
					</link>
					<itemhistory>
						<uuid>5A17CF86-1C78-422A-8A68-40A985ECC727</uuid>
					</itemhistory>
				</clipitem>
				<clipitem id="010_21_03_A2">
					<name>010_21_03_A</name>
					<duration>605</duration>
					<rate>
						<ntsc>FALSE</ntsc>
						<timebase>24</timebase>
					</rate>
					<in>0</in>
					<out>605</out>
					<start>47703</start>
					<end>48308</end>
					<subframeoffset>0</subframeoffset>
					<enabled>TRUE</enabled>
					<masterclipid>010_21_03_A1</masterclipid>
					<logginginfo>
						<scene/>
						<shottake/>
						<lognote/>
						<good>FALSE</good>
					</logginginfo>
					<labels>
						<label2/>
					</labels>
					<comments>
						<mastercomment1/>
						<mastercomment2/>
						<mastercomment3/>
						<mastercomment4/>
					</comments>
					<file id="A003C022_221211_R03K"/>
					<filter>
						<effect>
							<name>Audio Levels</name>
							<effectid>audiolevels</effectid>
							<effectcategory>audiolevels</effectcategory>
							<effecttype>audiolevels</effecttype>
							<mediatype>audio</mediatype>
							<parameter>
								<name>Level</name>
								<parameterid>level</parameterid>
								<valuemin>0</valuemin>
								<valuemax>3.98109</valuemax>
								<value>1</value>
							</parameter>
						</effect>
					</filter>
					<filter>
						<effect>
							<name>Audio Pan</name>
							<effectid>audiopan</effectid>
							<effectcategory>audiopan</effectcategory>
							<effecttype>audiopan</effecttype>
							<mediatype>audio</mediatype>
							<parameter>
								<name>Pan</name>
								<parameterid>pan</parameterid>
								<valuemin>-1</valuemin>
								<valuemax>1</valuemax>
								<value>0</value>
							</parameter>
						</effect>
					</filter>
					<sourcetrack>
						<mediatype>audio</mediatype>
						<trackindex>1</trackindex>
					</sourcetrack>
					<link>
						<linkclipref>010_21_03_A</linkclipref>
						<mediatype>video</mediatype>
						<trackindex>1</trackindex>
						<clipindex>96</clipindex>
					</link>
					<link>
						<linkclipref>010_21_03_A2</linkclipref>
						<mediatype>audio</mediatype>
						<trackindex>1</trackindex>
						<clipindex>96</clipindex>
					</link>
					<link>
						<linkclipref>010_21_03_A3</linkclipref>
						<mediatype>audio</mediatype>
						<trackindex>2</trackindex>
						<clipindex>96</clipindex>
					</link>
					<link>
						<linkclipref>010_21_03_A4</linkclipref>
						<mediatype>audio</mediatype>
						<trackindex>3</trackindex>
						<clipindex>94</clipindex>
					</link>
					<itemhistory>
						<uuid>9DD73785-E375-467F-8FBC-07DD4FCB4F37</uuid>
					</itemhistory>
				</clipitem>
				<clipitem id="010_21_04_A2">
					<name>010_21_04_A</name>
					<duration>542</duration>
					<rate>
						<ntsc>FALSE</ntsc>
						<timebase>24</timebase>
					</rate>
					<in>0</in>
					<out>542</out>
					<start>48308</start>
					<end>48850</end>
					<subframeoffset>0</subframeoffset>
					<enabled>TRUE</enabled>
					<masterclipid>010_21_04_A1</masterclipid>
					<logginginfo>
						<scene/>
						<shottake/>
						<lognote/>
						<good>FALSE</good>
					</logginginfo>
					<labels>
						<label2/>
					</labels>
					<comments>
						<mastercomment1/>
						<mastercomment2/>
						<mastercomment3/>
						<mastercomment4/>
					</comments>
					<file id="A003C023_221211_R03K"/>
					<filter>
						<effect>
							<name>Audio Levels</name>
							<effectid>audiolevels</effectid>
							<effectcategory>audiolevels</effectcategory>
							<effecttype>audiolevels</effecttype>
							<mediatype>audio</mediatype>
							<parameter>
								<name>Level</name>
								<parameterid>level</parameterid>
								<valuemin>0</valuemin>
								<valuemax>3.98109</valuemax>
								<value>1</value>
							</parameter>
						</effect>
					</filter>
					<filter>
						<effect>
							<name>Audio Pan</name>
							<effectid>audiopan</effectid>
							<effectcategory>audiopan</effectcategory>
							<effecttype>audiopan</effecttype>
							<mediatype>audio</mediatype>
							<parameter>
								<name>Pan</name>
								<parameterid>pan</parameterid>
								<valuemin>-1</valuemin>
								<valuemax>1</valuemax>
								<value>0</value>
							</parameter>
						</effect>
					</filter>
					<sourcetrack>
						<mediatype>audio</mediatype>
						<trackindex>1</trackindex>
					</sourcetrack>
					<link>
						<linkclipref>010_21_04_A</linkclipref>
						<mediatype>video</mediatype>
						<trackindex>1</trackindex>
						<clipindex>97</clipindex>
					</link>
					<link>
						<linkclipref>010_21_04_A2</linkclipref>
						<mediatype>audio</mediatype>
						<trackindex>1</trackindex>
						<clipindex>97</clipindex>
					</link>
					<link>
						<linkclipref>010_21_04_A3</linkclipref>
						<mediatype>audio</mediatype>
						<trackindex>2</trackindex>
						<clipindex>97</clipindex>
					</link>
					<link>
						<linkclipref>010_21_04_A4</linkclipref>
						<mediatype>audio</mediatype>
						<trackindex>3</trackindex>
						<clipindex>95</clipindex>
					</link>
					<itemhistory>
						<uuid>BFD2C214-AAE8-4952-AED4-0FA192C05C0B</uuid>
					</itemhistory>
				</clipitem>
				<clipitem id="010_21_05_A_OK2">
					<name>010_21_05_A_OK</name>
					<duration>511</duration>
					<rate>
						<ntsc>FALSE</ntsc>
						<timebase>24</timebase>
					</rate>
					<in>230</in>
					<out>287</out>
					<start>48850</start>
					<end>48907</end>
					<subframeoffset>0</subframeoffset>
					<enabled>TRUE</enabled>
					<masterclipid>010_21_05_A_OK1</masterclipid>
					<logginginfo>
						<scene/>
						<shottake/>
						<lognote/>
						<good>FALSE</good>
					</logginginfo>
					<labels>
						<label2/>
					</labels>
					<comments>
						<mastercomment1/>
						<mastercomment2/>
						<mastercomment3/>
						<mastercomment4/>
					</comments>
					<file id="A003C024_221211_R03K"/>
					<filter>
						<effect>
							<name>Audio Levels</name>
							<effectid>audiolevels</effectid>
							<effectcategory>audiolevels</effectcategory>
							<effecttype>audiolevels</effecttype>
							<mediatype>audio</mediatype>
							<parameter>
								<name>Level</name>
								<parameterid>level</parameterid>
								<valuemin>0</valuemin>
								<valuemax>3.98109</valuemax>
								<value>1</value>
							</parameter>
						</effect>
					</filter>
					<filter>
						<effect>
							<name>Audio Pan</name>
							<effectid>audiopan</effectid>
							<effectcategory>audiopan</effectcategory>
							<effecttype>audiopan</effecttype>
							<mediatype>audio</mediatype>
							<parameter>
								<name>Pan</name>
								<parameterid>pan</parameterid>
								<valuemin>-1</valuemin>
								<valuemax>1</valuemax>
								<value>0</value>
							</parameter>
						</effect>
					</filter>
					<sourcetrack>
						<mediatype>audio</mediatype>
						<trackindex>1</trackindex>
					</sourcetrack>
					<link>
						<linkclipref>010_21_05_A_OK</linkclipref>
						<mediatype>video</mediatype>
						<trackindex>1</trackindex>
						<clipindex>98</clipindex>
					</link>
					<link>
						<linkclipref>010_21_05_A_OK2</linkclipref>
						<mediatype>audio</mediatype>
						<trackindex>1</trackindex>
						<clipindex>98</clipindex>
					</link>
					<link>
						<linkclipref>010_21_05_A_OK3</linkclipref>
						<mediatype>audio</mediatype>
						<trackindex>2</trackindex>
						<clipindex>98</clipindex>
					</link>
					<link>
						<linkclipref>010_21_05_A_OK4</linkclipref>
						<mediatype>audio</mediatype>
						<trackindex>3</trackindex>
						<clipindex>96</clipindex>
					</link>
					<itemhistory>
						<uuid>AB58A32E-F449-4A7C-A4EA-03F99DDD4F6E</uuid>
					</itemhistory>
				</clipitem>
				<clipitem id="010_22_01_A2">
					<name>010_22_01_A</name>
					<duration>232</duration>
					<rate>
						<ntsc>FALSE</ntsc>
						<timebase>24</timebase>
					</rate>
					<in>0</in>
					<out>232</out>
					<start>48907</start>
					<end>49139</end>
					<subframeoffset>0</subframeoffset>
					<enabled>TRUE</enabled>
					<masterclipid>010_22_01_A1</masterclipid>
					<logginginfo>
						<scene/>
						<shottake/>
						<lognote/>
						<good>FALSE</good>
					</logginginfo>
					<labels>
						<label2/>
					</labels>
					<comments>
						<mastercomment1/>
						<mastercomment2/>
						<mastercomment3/>
						<mastercomment4/>
					</comments>
					<file id="A003C025_221211_R03K"/>
					<filter>
						<effect>
							<name>Audio Levels</name>
							<effectid>audiolevels</effectid>
							<effectcategory>audiolevels</effectcategory>
							<effecttype>audiolevels</effecttype>
							<mediatype>audio</mediatype>
							<parameter>
								<name>Level</name>
								<parameterid>level</parameterid>
								<valuemin>0</valuemin>
								<valuemax>3.98109</valuemax>
								<value>1</value>
							</parameter>
						</effect>
					</filter>
					<filter>
						<effect>
							<name>Audio Pan</name>
							<effectid>audiopan</effectid>
							<effectcategory>audiopan</effectcategory>
							<effecttype>audiopan</effecttype>
							<mediatype>audio</mediatype>
							<parameter>
								<name>Pan</name>
								<parameterid>pan</parameterid>
								<valuemin>-1</valuemin>
								<valuemax>1</valuemax>
								<value>0</value>
							</parameter>
						</effect>
					</filter>
					<sourcetrack>
						<mediatype>audio</mediatype>
						<trackindex>1</trackindex>
					</sourcetrack>
					<link>
						<linkclipref>010_22_01_A</linkclipref>
						<mediatype>video</mediatype>
						<trackindex>1</trackindex>
						<clipindex>99</clipindex>
					</link>
					<link>
						<linkclipref>010_22_01_A2</linkclipref>
						<mediatype>audio</mediatype>
						<trackindex>1</trackindex>
						<clipindex>99</clipindex>
					</link>
					<link>
						<linkclipref>010_22_01_A3</linkclipref>
						<mediatype>audio</mediatype>
						<trackindex>2</trackindex>
						<clipindex>99</clipindex>
					</link>
					<link>
						<linkclipref>010_22_01_A4</linkclipref>
						<mediatype>audio</mediatype>
						<trackindex>3</trackindex>
						<clipindex>97</clipindex>
					</link>
					<itemhistory>
						<uuid>020059C1-A080-4FCE-9C0D-69ADF160CF96</uuid>
					</itemhistory>
				</clipitem>
				<clipitem id="010_22_02_A2">
					<name>010_22_02_A</name>
					<duration>327</duration>
					<rate>
						<ntsc>FALSE</ntsc>
						<timebase>24</timebase>
					</rate>
					<in>0</in>
					<out>327</out>
					<start>49139</start>
					<end>49466</end>
					<subframeoffset>0</subframeoffset>
					<enabled>TRUE</enabled>
					<masterclipid>010_22_02_A1</masterclipid>
					<logginginfo>
						<scene/>
						<shottake/>
						<lognote/>
						<good>FALSE</good>
					</logginginfo>
					<labels>
						<label2/>
					</labels>
					<comments>
						<mastercomment1/>
						<mastercomment2/>
						<mastercomment3/>
						<mastercomment4/>
					</comments>
					<file id="A003C026_221211_R03K"/>
					<filter>
						<effect>
							<name>Audio Levels</name>
							<effectid>audiolevels</effectid>
							<effectcategory>audiolevels</effectcategory>
							<effecttype>audiolevels</effecttype>
							<mediatype>audio</mediatype>
							<parameter>
								<name>Level</name>
								<parameterid>level</parameterid>
								<valuemin>0</valuemin>
								<valuemax>3.98109</valuemax>
								<value>1</value>
							</parameter>
						</effect>
					</filter>
					<filter>
						<effect>
							<name>Audio Pan</name>
							<effectid>audiopan</effectid>
							<effectcategory>audiopan</effectcategory>
							<effecttype>audiopan</effecttype>
							<mediatype>audio</mediatype>
							<parameter>
								<name>Pan</name>
								<parameterid>pan</parameterid>
								<valuemin>-1</valuemin>
								<valuemax>1</valuemax>
								<value>0</value>
							</parameter>
						</effect>
					</filter>
					<sourcetrack>
						<mediatype>audio</mediatype>
						<trackindex>1</trackindex>
					</sourcetrack>
					<link>
						<linkclipref>010_22_02_A</linkclipref>
						<mediatype>video</mediatype>
						<trackindex>1</trackindex>
						<clipindex>100</clipindex>
					</link>
					<link>
						<linkclipref>010_22_02_A2</linkclipref>
						<mediatype>audio</mediatype>
						<trackindex>1</trackindex>
						<clipindex>100</clipindex>
					</link>
					<link>
						<linkclipref>010_22_02_A3</linkclipref>
						<mediatype>audio</mediatype>
						<trackindex>2</trackindex>
						<clipindex>100</clipindex>
					</link>
					<link>
						<linkclipref>010_22_02_A4</linkclipref>
						<mediatype>audio</mediatype>
						<trackindex>3</trackindex>
						<clipindex>98</clipindex>
					</link>
					<itemhistory>
						<uuid>371F4D7E-F13E-4903-8800-F56C145FD5E1</uuid>
					</itemhistory>
				</clipitem>
				<clipitem id="010_22_03_A_OK2">
					<name>010_22_03_A_OK</name>
					<duration>374</duration>
					<rate>
						<ntsc>FALSE</ntsc>
						<timebase>24</timebase>
					</rate>
					<in>101</in>
					<out>186</out>
					<start>49466</start>
					<end>49551</end>
					<subframeoffset>0</subframeoffset>
					<enabled>TRUE</enabled>
					<masterclipid>010_22_03_A_OK1</masterclipid>
					<logginginfo>
						<scene/>
						<shottake/>
						<lognote/>
						<good>FALSE</good>
					</logginginfo>
					<labels>
						<label2/>
					</labels>
					<comments>
						<mastercomment1/>
						<mastercomment2/>
						<mastercomment3/>
						<mastercomment4/>
					</comments>
					<file id="A003C027_221211_R03K"/>
					<filter>
						<effect>
							<name>Audio Levels</name>
							<effectid>audiolevels</effectid>
							<effectcategory>audiolevels</effectcategory>
							<effecttype>audiolevels</effecttype>
							<mediatype>audio</mediatype>
							<parameter>
								<name>Level</name>
								<parameterid>level</parameterid>
								<valuemin>0</valuemin>
								<valuemax>3.98109</valuemax>
								<value>1</value>
							</parameter>
						</effect>
					</filter>
					<filter>
						<effect>
							<name>Audio Pan</name>
							<effectid>audiopan</effectid>
							<effectcategory>audiopan</effectcategory>
							<effecttype>audiopan</effecttype>
							<mediatype>audio</mediatype>
							<parameter>
								<name>Pan</name>
								<parameterid>pan</parameterid>
								<valuemin>-1</valuemin>
								<valuemax>1</valuemax>
								<value>0</value>
							</parameter>
						</effect>
					</filter>
					<sourcetrack>
						<mediatype>audio</mediatype>
						<trackindex>1</trackindex>
					</sourcetrack>
					<link>
						<linkclipref>010_22_03_A_OK</linkclipref>
						<mediatype>video</mediatype>
						<trackindex>1</trackindex>
						<clipindex>101</clipindex>
					</link>
					<link>
						<linkclipref>010_22_03_A_OK2</linkclipref>
						<mediatype>audio</mediatype>
						<trackindex>1</trackindex>
						<clipindex>101</clipindex>
					</link>
					<link>
						<linkclipref>010_22_03_A_OK3</linkclipref>
						<mediatype>audio</mediatype>
						<trackindex>2</trackindex>
						<clipindex>101</clipindex>
					</link>
					<link>
						<linkclipref>010_22_03_A_OK4</linkclipref>
						<mediatype>audio</mediatype>
						<trackindex>3</trackindex>
						<clipindex>99</clipindex>
					</link>
					<itemhistory>
						<uuid>BB4DC052-AADD-4B61-90F6-0EB6E4725CDF</uuid>
					</itemhistory>
				</clipitem>
				<clipitem id="010_23_01_A2">
					<name>010_23_01_A</name>
					<duration>210</duration>
					<rate>
						<ntsc>FALSE</ntsc>
						<timebase>24</timebase>
					</rate>
					<in>0</in>
					<out>210</out>
					<start>49551</start>
					<end>49761</end>
					<subframeoffset>0</subframeoffset>
					<enabled>TRUE</enabled>
					<masterclipid>010_23_01_A1</masterclipid>
					<logginginfo>
						<scene/>
						<shottake/>
						<lognote/>
						<good>FALSE</good>
					</logginginfo>
					<labels>
						<label2/>
					</labels>
					<comments>
						<mastercomment1/>
						<mastercomment2/>
						<mastercomment3/>
						<mastercomment4/>
					</comments>
					<file id="A003C028_221211_R03K"/>
					<filter>
						<effect>
							<name>Audio Levels</name>
							<effectid>audiolevels</effectid>
							<effectcategory>audiolevels</effectcategory>
							<effecttype>audiolevels</effecttype>
							<mediatype>audio</mediatype>
							<parameter>
								<name>Level</name>
								<parameterid>level</parameterid>
								<valuemin>0</valuemin>
								<valuemax>3.98109</valuemax>
								<value>1</value>
							</parameter>
						</effect>
					</filter>
					<filter>
						<effect>
							<name>Audio Pan</name>
							<effectid>audiopan</effectid>
							<effectcategory>audiopan</effectcategory>
							<effecttype>audiopan</effecttype>
							<mediatype>audio</mediatype>
							<parameter>
								<name>Pan</name>
								<parameterid>pan</parameterid>
								<valuemin>-1</valuemin>
								<valuemax>1</valuemax>
								<value>-1</value>
							</parameter>
						</effect>
					</filter>
					<sourcetrack>
						<mediatype>audio</mediatype>
						<trackindex>1</trackindex>
					</sourcetrack>
					<link>
						<linkclipref>010_23_01_A</linkclipref>
						<mediatype>video</mediatype>
						<trackindex>1</trackindex>
						<clipindex>102</clipindex>
					</link>
					<link>
						<linkclipref>010_23_01_A2</linkclipref>
						<mediatype>audio</mediatype>
						<trackindex>1</trackindex>
						<clipindex>102</clipindex>
						<groupindex>1</groupindex>
					</link>
					<link>
						<linkclipref>010_23_01_A3</linkclipref>
						<mediatype>audio</mediatype>
						<trackindex>2</trackindex>
						<clipindex>102</clipindex>
						<groupindex>1</groupindex>
					</link>
					<itemhistory>
						<uuid>8E16F643-A757-4878-849C-AAECD57E1347</uuid>
					</itemhistory>
				</clipitem>
				<clipitem id="010_23_02_A2">
					<name>010_23_02_A</name>
					<duration>240</duration>
					<rate>
						<ntsc>FALSE</ntsc>
						<timebase>24</timebase>
					</rate>
					<in>0</in>
					<out>240</out>
					<start>49761</start>
					<end>50001</end>
					<subframeoffset>0</subframeoffset>
					<enabled>TRUE</enabled>
					<masterclipid>010_23_02_A1</masterclipid>
					<logginginfo>
						<scene/>
						<shottake/>
						<lognote/>
						<good>FALSE</good>
					</logginginfo>
					<labels>
						<label2/>
					</labels>
					<comments>
						<mastercomment1/>
						<mastercomment2/>
						<mastercomment3/>
						<mastercomment4/>
					</comments>
					<file id="A003C029_221211_R03K"/>
					<filter>
						<effect>
							<name>Audio Levels</name>
							<effectid>audiolevels</effectid>
							<effectcategory>audiolevels</effectcategory>
							<effecttype>audiolevels</effecttype>
							<mediatype>audio</mediatype>
							<parameter>
								<name>Level</name>
								<parameterid>level</parameterid>
								<valuemin>0</valuemin>
								<valuemax>3.98109</valuemax>
								<value>1</value>
							</parameter>
						</effect>
					</filter>
					<filter>
						<effect>
							<name>Audio Pan</name>
							<effectid>audiopan</effectid>
							<effectcategory>audiopan</effectcategory>
							<effecttype>audiopan</effecttype>
							<mediatype>audio</mediatype>
							<parameter>
								<name>Pan</name>
								<parameterid>pan</parameterid>
								<valuemin>-1</valuemin>
								<valuemax>1</valuemax>
								<value>-1</value>
							</parameter>
						</effect>
					</filter>
					<sourcetrack>
						<mediatype>audio</mediatype>
						<trackindex>1</trackindex>
					</sourcetrack>
					<link>
						<linkclipref>010_23_02_A</linkclipref>
						<mediatype>video</mediatype>
						<trackindex>1</trackindex>
						<clipindex>103</clipindex>
					</link>
					<link>
						<linkclipref>010_23_02_A2</linkclipref>
						<mediatype>audio</mediatype>
						<trackindex>1</trackindex>
						<clipindex>103</clipindex>
						<groupindex>1</groupindex>
					</link>
					<link>
						<linkclipref>010_23_02_A3</linkclipref>
						<mediatype>audio</mediatype>
						<trackindex>2</trackindex>
						<clipindex>103</clipindex>
						<groupindex>1</groupindex>
					</link>
					<itemhistory>
						<uuid>AFD65BC8-A584-4543-BB3E-5E835C211A7F</uuid>
					</itemhistory>
				</clipitem>
				<clipitem id="010_23_03_A_OK2">
					<name>010_23_03_A_OK</name>
					<duration>231</duration>
					<rate>
						<ntsc>FALSE</ntsc>
						<timebase>24</timebase>
					</rate>
					<in>87</in>
					<out>158</out>
					<start>50001</start>
					<end>50072</end>
					<subframeoffset>0</subframeoffset>
					<enabled>TRUE</enabled>
					<masterclipid>010_23_03_A_OK1</masterclipid>
					<logginginfo>
						<scene/>
						<shottake/>
						<lognote/>
						<good>FALSE</good>
					</logginginfo>
					<labels>
						<label2/>
					</labels>
					<comments>
						<mastercomment1/>
						<mastercomment2/>
						<mastercomment3/>
						<mastercomment4/>
					</comments>
					<file id="A003C030_221211_R03K"/>
					<filter>
						<effect>
							<name>Audio Levels</name>
							<effectid>audiolevels</effectid>
							<effectcategory>audiolevels</effectcategory>
							<effecttype>audiolevels</effecttype>
							<mediatype>audio</mediatype>
							<parameter>
								<name>Level</name>
								<parameterid>level</parameterid>
								<valuemin>0</valuemin>
								<valuemax>3.98109</valuemax>
								<value>1</value>
							</parameter>
						</effect>
					</filter>
					<filter>
						<effect>
							<name>Audio Pan</name>
							<effectid>audiopan</effectid>
							<effectcategory>audiopan</effectcategory>
							<effecttype>audiopan</effecttype>
							<mediatype>audio</mediatype>
							<parameter>
								<name>Pan</name>
								<parameterid>pan</parameterid>
								<valuemin>-1</valuemin>
								<valuemax>1</valuemax>
								<value>-1</value>
							</parameter>
						</effect>
					</filter>
					<sourcetrack>
						<mediatype>audio</mediatype>
						<trackindex>1</trackindex>
					</sourcetrack>
					<link>
						<linkclipref>010_23_03_A_OK</linkclipref>
						<mediatype>video</mediatype>
						<trackindex>1</trackindex>
						<clipindex>104</clipindex>
					</link>
					<link>
						<linkclipref>010_23_03_A_OK2</linkclipref>
						<mediatype>audio</mediatype>
						<trackindex>1</trackindex>
						<clipindex>104</clipindex>
						<groupindex>1</groupindex>
					</link>
					<link>
						<linkclipref>010_23_03_A_OK3</linkclipref>
						<mediatype>audio</mediatype>
						<trackindex>2</trackindex>
						<clipindex>104</clipindex>
						<groupindex>1</groupindex>
					</link>
					<itemhistory>
						<uuid>B3326351-A8A7-4B36-B2DA-D5F8C76D29BA</uuid>
					</itemhistory>
				</clipitem>
				<enabled>TRUE</enabled>
				<locked>FALSE</locked>
				<outputchannelindex>1</outputchannelindex>
			</track>
			<track>
				<clipitem id="010_01_01_A3">
					<name>010_01_01_A</name>
					<duration>628</duration>
					<rate>
						<ntsc>FALSE</ntsc>
						<timebase>24</timebase>
					</rate>
					<in>0</in>
					<out>628</out>
					<start>0</start>
					<end>628</end>
					<subframeoffset>0</subframeoffset>
					<enabled>TRUE</enabled>
					<masterclipid>010_01_01_A1</masterclipid>
					<logginginfo>
						<scene/>
						<shottake/>
						<lognote/>
						<good>FALSE</good>
					</logginginfo>
					<labels>
						<label2/>
					</labels>
					<comments>
						<mastercomment1/>
						<mastercomment2/>
						<mastercomment3/>
						<mastercomment4/>
					</comments>
					<file id="A001C019_221211_R03K"/>
					<filter>
						<effect>
							<name>Audio Levels</name>
							<effectid>audiolevels</effectid>
							<effectcategory>audiolevels</effectcategory>
							<effecttype>audiolevels</effecttype>
							<mediatype>audio</mediatype>
							<parameter>
								<name>Level</name>
								<parameterid>level</parameterid>
								<valuemin>0</valuemin>
								<valuemax>3.98109</valuemax>
								<value>1</value>
							</parameter>
						</effect>
					</filter>
					<filter>
						<effect>
							<name>Audio Pan</name>
							<effectid>audiopan</effectid>
							<effectcategory>audiopan</effectcategory>
							<effecttype>audiopan</effecttype>
							<mediatype>audio</mediatype>
							<parameter>
								<name>Pan</name>
								<parameterid>pan</parameterid>
								<valuemin>-1</valuemin>
								<valuemax>1</valuemax>
								<value>0</value>
							</parameter>
						</effect>
					</filter>
					<sourcetrack>
						<mediatype>audio</mediatype>
						<trackindex>2</trackindex>
					</sourcetrack>
					<link>
						<linkclipref>010_01_01_A</linkclipref>
						<mediatype>video</mediatype>
						<trackindex>1</trackindex>
						<clipindex>1</clipindex>
					</link>
					<link>
						<linkclipref>010_01_01_A2</linkclipref>
						<mediatype>audio</mediatype>
						<trackindex>1</trackindex>
						<clipindex>1</clipindex>
					</link>
					<link>
						<linkclipref>010_01_01_A3</linkclipref>
						<mediatype>audio</mediatype>
						<trackindex>2</trackindex>
						<clipindex>1</clipindex>
					</link>
					<link>
						<linkclipref>010_01_01_A4</linkclipref>
						<mediatype>audio</mediatype>
						<trackindex>3</trackindex>
						<clipindex>1</clipindex>
					</link>
					<link>
						<linkclipref>010_01_01_A5</linkclipref>
						<mediatype>audio</mediatype>
						<trackindex>4</trackindex>
						<clipindex>1</clipindex>
					</link>
					<itemhistory>
						<uuid>738E4B86-A61F-4906-B892-8A4EF5AE5026</uuid>
					</itemhistory>
				</clipitem>
				<clipitem id="010_01_01_B3">
					<name>010_01_01_B</name>
					<duration>676</duration>
					<rate>
						<ntsc>FALSE</ntsc>
						<timebase>24</timebase>
					</rate>
					<in>0</in>
					<out>676</out>
					<start>628</start>
					<end>1304</end>
					<subframeoffset>0</subframeoffset>
					<enabled>TRUE</enabled>
					<masterclipid>010_01_01_B1</masterclipid>
					<logginginfo>
						<scene/>
						<shottake/>
						<lognote/>
						<good>FALSE</good>
					</logginginfo>
					<labels>
						<label2/>
					</labels>
					<comments>
						<mastercomment1/>
						<mastercomment2/>
						<mastercomment3/>
						<mastercomment4/>
					</comments>
					<file id="B001C006_130101_R1WX"/>
					<filter>
						<effect>
							<name>Audio Levels</name>
							<effectid>audiolevels</effectid>
							<effectcategory>audiolevels</effectcategory>
							<effecttype>audiolevels</effecttype>
							<mediatype>audio</mediatype>
							<parameter>
								<name>Level</name>
								<parameterid>level</parameterid>
								<valuemin>0</valuemin>
								<valuemax>3.98109</valuemax>
								<value>1</value>
							</parameter>
						</effect>
					</filter>
					<filter>
						<effect>
							<name>Audio Pan</name>
							<effectid>audiopan</effectid>
							<effectcategory>audiopan</effectcategory>
							<effecttype>audiopan</effecttype>
							<mediatype>audio</mediatype>
							<parameter>
								<name>Pan</name>
								<parameterid>pan</parameterid>
								<valuemin>-1</valuemin>
								<valuemax>1</valuemax>
								<value>0</value>
							</parameter>
						</effect>
					</filter>
					<sourcetrack>
						<mediatype>audio</mediatype>
						<trackindex>2</trackindex>
					</sourcetrack>
					<link>
						<linkclipref>010_01_01_B</linkclipref>
						<mediatype>video</mediatype>
						<trackindex>1</trackindex>
						<clipindex>2</clipindex>
					</link>
					<link>
						<linkclipref>010_01_01_B2</linkclipref>
						<mediatype>audio</mediatype>
						<trackindex>1</trackindex>
						<clipindex>2</clipindex>
					</link>
					<link>
						<linkclipref>010_01_01_B3</linkclipref>
						<mediatype>audio</mediatype>
						<trackindex>2</trackindex>
						<clipindex>2</clipindex>
					</link>
					<link>
						<linkclipref>010_01_01_B4</linkclipref>
						<mediatype>audio</mediatype>
						<trackindex>3</trackindex>
						<clipindex>2</clipindex>
					</link>
					<link>
						<linkclipref>010_01_01_B5</linkclipref>
						<mediatype>audio</mediatype>
						<trackindex>4</trackindex>
						<clipindex>2</clipindex>
					</link>
					<itemhistory>
						<uuid>4804556C-F56A-486C-92AC-86DE9E4F6221</uuid>
					</itemhistory>
				</clipitem>
				<clipitem id="010_01_02_A3">
					<name>010_01_02_A</name>
					<duration>638</duration>
					<rate>
						<ntsc>FALSE</ntsc>
						<timebase>24</timebase>
					</rate>
					<in>0</in>
					<out>638</out>
					<start>1304</start>
					<end>1942</end>
					<subframeoffset>0</subframeoffset>
					<enabled>TRUE</enabled>
					<masterclipid>010_01_02_A1</masterclipid>
					<logginginfo>
						<scene/>
						<shottake/>
						<lognote/>
						<good>FALSE</good>
					</logginginfo>
					<labels>
						<label2/>
					</labels>
					<comments>
						<mastercomment1/>
						<mastercomment2/>
						<mastercomment3/>
						<mastercomment4/>
					</comments>
					<file id="A001C020_221211_R03K"/>
					<filter>
						<effect>
							<name>Audio Levels</name>
							<effectid>audiolevels</effectid>
							<effectcategory>audiolevels</effectcategory>
							<effecttype>audiolevels</effecttype>
							<mediatype>audio</mediatype>
							<parameter>
								<name>Level</name>
								<parameterid>level</parameterid>
								<valuemin>0</valuemin>
								<valuemax>3.98109</valuemax>
								<value>1</value>
							</parameter>
						</effect>
					</filter>
					<filter>
						<effect>
							<name>Audio Pan</name>
							<effectid>audiopan</effectid>
							<effectcategory>audiopan</effectcategory>
							<effecttype>audiopan</effecttype>
							<mediatype>audio</mediatype>
							<parameter>
								<name>Pan</name>
								<parameterid>pan</parameterid>
								<valuemin>-1</valuemin>
								<valuemax>1</valuemax>
								<value>0</value>
							</parameter>
						</effect>
					</filter>
					<sourcetrack>
						<mediatype>audio</mediatype>
						<trackindex>2</trackindex>
					</sourcetrack>
					<link>
						<linkclipref>010_01_02_A</linkclipref>
						<mediatype>video</mediatype>
						<trackindex>1</trackindex>
						<clipindex>3</clipindex>
					</link>
					<link>
						<linkclipref>010_01_02_A2</linkclipref>
						<mediatype>audio</mediatype>
						<trackindex>1</trackindex>
						<clipindex>3</clipindex>
					</link>
					<link>
						<linkclipref>010_01_02_A3</linkclipref>
						<mediatype>audio</mediatype>
						<trackindex>2</trackindex>
						<clipindex>3</clipindex>
					</link>
					<link>
						<linkclipref>010_01_02_A4</linkclipref>
						<mediatype>audio</mediatype>
						<trackindex>3</trackindex>
						<clipindex>3</clipindex>
					</link>
					<link>
						<linkclipref>010_01_02_A5</linkclipref>
						<mediatype>audio</mediatype>
						<trackindex>4</trackindex>
						<clipindex>3</clipindex>
					</link>
					<itemhistory>
						<uuid>9DB61FE7-EE8E-4201-B417-FE106D7E8DFF</uuid>
					</itemhistory>
				</clipitem>
				<clipitem id="010_01_02_B3">
					<name>010_01_02_B</name>
					<duration>691</duration>
					<rate>
						<ntsc>FALSE</ntsc>
						<timebase>24</timebase>
					</rate>
					<in>0</in>
					<out>691</out>
					<start>1942</start>
					<end>2633</end>
					<subframeoffset>0</subframeoffset>
					<enabled>TRUE</enabled>
					<masterclipid>010_01_02_B1</masterclipid>
					<logginginfo>
						<scene/>
						<shottake/>
						<lognote/>
						<good>FALSE</good>
					</logginginfo>
					<labels>
						<label2/>
					</labels>
					<comments>
						<mastercomment1/>
						<mastercomment2/>
						<mastercomment3/>
						<mastercomment4/>
					</comments>
					<file id="B001C007_130101_R1WX"/>
					<filter>
						<effect>
							<name>Audio Levels</name>
							<effectid>audiolevels</effectid>
							<effectcategory>audiolevels</effectcategory>
							<effecttype>audiolevels</effecttype>
							<mediatype>audio</mediatype>
							<parameter>
								<name>Level</name>
								<parameterid>level</parameterid>
								<valuemin>0</valuemin>
								<valuemax>3.98109</valuemax>
								<value>1</value>
							</parameter>
						</effect>
					</filter>
					<filter>
						<effect>
							<name>Audio Pan</name>
							<effectid>audiopan</effectid>
							<effectcategory>audiopan</effectcategory>
							<effecttype>audiopan</effecttype>
							<mediatype>audio</mediatype>
							<parameter>
								<name>Pan</name>
								<parameterid>pan</parameterid>
								<valuemin>-1</valuemin>
								<valuemax>1</valuemax>
								<value>0</value>
							</parameter>
						</effect>
					</filter>
					<sourcetrack>
						<mediatype>audio</mediatype>
						<trackindex>2</trackindex>
					</sourcetrack>
					<link>
						<linkclipref>010_01_02_B</linkclipref>
						<mediatype>video</mediatype>
						<trackindex>1</trackindex>
						<clipindex>4</clipindex>
					</link>
					<link>
						<linkclipref>010_01_02_B2</linkclipref>
						<mediatype>audio</mediatype>
						<trackindex>1</trackindex>
						<clipindex>4</clipindex>
					</link>
					<link>
						<linkclipref>010_01_02_B3</linkclipref>
						<mediatype>audio</mediatype>
						<trackindex>2</trackindex>
						<clipindex>4</clipindex>
					</link>
					<link>
						<linkclipref>010_01_02_B4</linkclipref>
						<mediatype>audio</mediatype>
						<trackindex>3</trackindex>
						<clipindex>4</clipindex>
					</link>
					<link>
						<linkclipref>010_01_02_B5</linkclipref>
						<mediatype>audio</mediatype>
						<trackindex>4</trackindex>
						<clipindex>4</clipindex>
					</link>
					<itemhistory>
						<uuid>C900A21D-DA8C-4390-A680-2E8D971DC60A</uuid>
					</itemhistory>
				</clipitem>
				<clipitem id="010_01_03_A3">
					<name>010_01_03_A</name>
					<duration>213</duration>
					<rate>
						<ntsc>FALSE</ntsc>
						<timebase>24</timebase>
					</rate>
					<in>0</in>
					<out>213</out>
					<start>2633</start>
					<end>2846</end>
					<subframeoffset>0</subframeoffset>
					<enabled>TRUE</enabled>
					<masterclipid>010_01_03_A1</masterclipid>
					<logginginfo>
						<scene/>
						<shottake/>
						<lognote/>
						<good>FALSE</good>
					</logginginfo>
					<labels>
						<label2/>
					</labels>
					<comments>
						<mastercomment1/>
						<mastercomment2/>
						<mastercomment3/>
						<mastercomment4/>
					</comments>
					<file id="A001C021_221211_R03K"/>
					<filter>
						<effect>
							<name>Audio Levels</name>
							<effectid>audiolevels</effectid>
							<effectcategory>audiolevels</effectcategory>
							<effecttype>audiolevels</effecttype>
							<mediatype>audio</mediatype>
							<parameter>
								<name>Level</name>
								<parameterid>level</parameterid>
								<valuemin>0</valuemin>
								<valuemax>3.98109</valuemax>
								<value>1</value>
							</parameter>
						</effect>
					</filter>
					<filter>
						<effect>
							<name>Audio Pan</name>
							<effectid>audiopan</effectid>
							<effectcategory>audiopan</effectcategory>
							<effecttype>audiopan</effecttype>
							<mediatype>audio</mediatype>
							<parameter>
								<name>Pan</name>
								<parameterid>pan</parameterid>
								<valuemin>-1</valuemin>
								<valuemax>1</valuemax>
								<value>0</value>
							</parameter>
						</effect>
					</filter>
					<sourcetrack>
						<mediatype>audio</mediatype>
						<trackindex>2</trackindex>
					</sourcetrack>
					<link>
						<linkclipref>010_01_03_A</linkclipref>
						<mediatype>video</mediatype>
						<trackindex>1</trackindex>
						<clipindex>5</clipindex>
					</link>
					<link>
						<linkclipref>010_01_03_A2</linkclipref>
						<mediatype>audio</mediatype>
						<trackindex>1</trackindex>
						<clipindex>5</clipindex>
					</link>
					<link>
						<linkclipref>010_01_03_A3</linkclipref>
						<mediatype>audio</mediatype>
						<trackindex>2</trackindex>
						<clipindex>5</clipindex>
					</link>
					<link>
						<linkclipref>010_01_03_A4</linkclipref>
						<mediatype>audio</mediatype>
						<trackindex>3</trackindex>
						<clipindex>5</clipindex>
					</link>
					<itemhistory>
						<uuid>B6ADE867-E05E-4313-A8E2-1A6274C18AA0</uuid>
					</itemhistory>
				</clipitem>
				<clipitem id="010_01_03_B3">
					<name>010_01_03_B</name>
					<duration>277</duration>
					<rate>
						<ntsc>FALSE</ntsc>
						<timebase>24</timebase>
					</rate>
					<in>0</in>
					<out>277</out>
					<start>2846</start>
					<end>3123</end>
					<subframeoffset>0</subframeoffset>
					<enabled>TRUE</enabled>
					<masterclipid>010_01_03_B1</masterclipid>
					<logginginfo>
						<scene/>
						<shottake/>
						<lognote/>
						<good>FALSE</good>
					</logginginfo>
					<labels>
						<label2/>
					</labels>
					<comments>
						<mastercomment1/>
						<mastercomment2/>
						<mastercomment3/>
						<mastercomment4/>
					</comments>
					<file id="B001C008_130101_R1WX"/>
					<filter>
						<effect>
							<name>Audio Levels</name>
							<effectid>audiolevels</effectid>
							<effectcategory>audiolevels</effectcategory>
							<effecttype>audiolevels</effecttype>
							<mediatype>audio</mediatype>
							<parameter>
								<name>Level</name>
								<parameterid>level</parameterid>
								<valuemin>0</valuemin>
								<valuemax>3.98109</valuemax>
								<value>1</value>
							</parameter>
						</effect>
					</filter>
					<filter>
						<effect>
							<name>Audio Pan</name>
							<effectid>audiopan</effectid>
							<effectcategory>audiopan</effectcategory>
							<effecttype>audiopan</effecttype>
							<mediatype>audio</mediatype>
							<parameter>
								<name>Pan</name>
								<parameterid>pan</parameterid>
								<valuemin>-1</valuemin>
								<valuemax>1</valuemax>
								<value>0</value>
							</parameter>
						</effect>
					</filter>
					<sourcetrack>
						<mediatype>audio</mediatype>
						<trackindex>2</trackindex>
					</sourcetrack>
					<link>
						<linkclipref>010_01_03_B</linkclipref>
						<mediatype>video</mediatype>
						<trackindex>1</trackindex>
						<clipindex>6</clipindex>
					</link>
					<link>
						<linkclipref>010_01_03_B2</linkclipref>
						<mediatype>audio</mediatype>
						<trackindex>1</trackindex>
						<clipindex>6</clipindex>
					</link>
					<link>
						<linkclipref>010_01_03_B3</linkclipref>
						<mediatype>audio</mediatype>
						<trackindex>2</trackindex>
						<clipindex>6</clipindex>
					</link>
					<link>
						<linkclipref>010_01_03_B4</linkclipref>
						<mediatype>audio</mediatype>
						<trackindex>3</trackindex>
						<clipindex>6</clipindex>
					</link>
					<itemhistory>
						<uuid>ADC00B98-218A-45B8-963E-C473B14B3B58</uuid>
					</itemhistory>
				</clipitem>
				<clipitem id="010_01_04_A_归诚进OK3">
					<name>010_01_04_A_归诚进OK</name>
					<duration>590</duration>
					<rate>
						<ntsc>FALSE</ntsc>
						<timebase>24</timebase>
					</rate>
					<in>139</in>
					<out>252</out>
					<start>3123</start>
					<end>3236</end>
					<subframeoffset>0</subframeoffset>
					<enabled>TRUE</enabled>
					<masterclipid>010_01_04_A_归诚进OK1</masterclipid>
					<logginginfo>
						<scene/>
						<shottake/>
						<lognote/>
						<good>FALSE</good>
					</logginginfo>
					<labels>
						<label2/>
					</labels>
					<comments>
						<mastercomment1/>
						<mastercomment2/>
						<mastercomment3/>
						<mastercomment4/>
					</comments>
					<file id="A001C022_221211_R03K"/>
					<filter>
						<effect>
							<name>Audio Levels</name>
							<effectid>audiolevels</effectid>
							<effectcategory>audiolevels</effectcategory>
							<effecttype>audiolevels</effecttype>
							<mediatype>audio</mediatype>
							<parameter>
								<name>Level</name>
								<parameterid>level</parameterid>
								<valuemin>0</valuemin>
								<valuemax>3.98109</valuemax>
								<value>1</value>
							</parameter>
						</effect>
					</filter>
					<filter>
						<effect>
							<name>Audio Pan</name>
							<effectid>audiopan</effectid>
							<effectcategory>audiopan</effectcategory>
							<effecttype>audiopan</effecttype>
							<mediatype>audio</mediatype>
							<parameter>
								<name>Pan</name>
								<parameterid>pan</parameterid>
								<valuemin>-1</valuemin>
								<valuemax>1</valuemax>
								<value>0</value>
							</parameter>
						</effect>
					</filter>
					<sourcetrack>
						<mediatype>audio</mediatype>
						<trackindex>2</trackindex>
					</sourcetrack>
					<link>
						<linkclipref>010_01_04_A_归诚进OK</linkclipref>
						<mediatype>video</mediatype>
						<trackindex>1</trackindex>
						<clipindex>7</clipindex>
					</link>
					<link>
						<linkclipref>010_01_04_A_归诚进OK2</linkclipref>
						<mediatype>audio</mediatype>
						<trackindex>1</trackindex>
						<clipindex>7</clipindex>
					</link>
					<link>
						<linkclipref>010_01_04_A_归诚进OK3</linkclipref>
						<mediatype>audio</mediatype>
						<trackindex>2</trackindex>
						<clipindex>7</clipindex>
					</link>
					<link>
						<linkclipref>010_01_04_A_归诚进OK4</linkclipref>
						<mediatype>audio</mediatype>
						<trackindex>3</trackindex>
						<clipindex>7</clipindex>
					</link>
					<itemhistory>
						<uuid>26AA2E36-17E5-4FDD-B893-CBE3F1E9904F</uuid>
					</itemhistory>
				</clipitem>
				<clipitem id="010_01_04_B_归诚进OK3">
					<name>010_01_04_B_归诚进OK</name>
					<duration>630</duration>
					<rate>
						<ntsc>FALSE</ntsc>
						<timebase>24</timebase>
					</rate>
					<in>241</in>
					<out>295</out>
					<start>3236</start>
					<end>3290</end>
					<subframeoffset>0</subframeoffset>
					<enabled>TRUE</enabled>
					<masterclipid>010_01_04_B_归诚进OK1</masterclipid>
					<logginginfo>
						<scene/>
						<shottake/>
						<lognote/>
						<good>FALSE</good>
					</logginginfo>
					<labels>
						<label2/>
					</labels>
					<comments>
						<mastercomment1/>
						<mastercomment2/>
						<mastercomment3/>
						<mastercomment4/>
					</comments>
					<file id="B001C009_130101_R1WX"/>
					<filter>
						<effect>
							<name>Audio Levels</name>
							<effectid>audiolevels</effectid>
							<effectcategory>audiolevels</effectcategory>
							<effecttype>audiolevels</effecttype>
							<mediatype>audio</mediatype>
							<parameter>
								<name>Level</name>
								<parameterid>level</parameterid>
								<valuemin>0</valuemin>
								<valuemax>3.98109</valuemax>
								<value>1</value>
							</parameter>
						</effect>
					</filter>
					<filter>
						<effect>
							<name>Audio Pan</name>
							<effectid>audiopan</effectid>
							<effectcategory>audiopan</effectcategory>
							<effecttype>audiopan</effecttype>
							<mediatype>audio</mediatype>
							<parameter>
								<name>Pan</name>
								<parameterid>pan</parameterid>
								<valuemin>-1</valuemin>
								<valuemax>1</valuemax>
								<value>0</value>
							</parameter>
						</effect>
					</filter>
					<sourcetrack>
						<mediatype>audio</mediatype>
						<trackindex>2</trackindex>
					</sourcetrack>
					<link>
						<linkclipref>010_01_04_B_归诚进OK</linkclipref>
						<mediatype>video</mediatype>
						<trackindex>1</trackindex>
						<clipindex>8</clipindex>
					</link>
					<link>
						<linkclipref>010_01_04_B_归诚进OK2</linkclipref>
						<mediatype>audio</mediatype>
						<trackindex>1</trackindex>
						<clipindex>8</clipindex>
					</link>
					<link>
						<linkclipref>010_01_04_B_归诚进OK3</linkclipref>
						<mediatype>audio</mediatype>
						<trackindex>2</trackindex>
						<clipindex>8</clipindex>
					</link>
					<link>
						<linkclipref>010_01_04_B_归诚进OK4</linkclipref>
						<mediatype>audio</mediatype>
						<trackindex>3</trackindex>
						<clipindex>8</clipindex>
					</link>
					<itemhistory>
						<uuid>B2F329F3-3AC7-405F-BE35-107F7775BBB6</uuid>
					</itemhistory>
				</clipitem>
				<clipitem id="010_01_05_A_OK3">
					<name>010_01_05_A_OK</name>
					<duration>625</duration>
					<rate>
						<ntsc>FALSE</ntsc>
						<timebase>24</timebase>
					</rate>
					<in>510</in>
					<out>550</out>
					<start>3290</start>
					<end>3330</end>
					<subframeoffset>0</subframeoffset>
					<enabled>TRUE</enabled>
					<masterclipid>010_01_05_A_OK1</masterclipid>
					<logginginfo>
						<scene/>
						<shottake/>
						<lognote/>
						<good>FALSE</good>
					</logginginfo>
					<labels>
						<label2/>
					</labels>
					<comments>
						<mastercomment1/>
						<mastercomment2/>
						<mastercomment3/>
						<mastercomment4/>
					</comments>
					<file id="A001C023_221211_R03K"/>
					<filter>
						<effect>
							<name>Audio Levels</name>
							<effectid>audiolevels</effectid>
							<effectcategory>audiolevels</effectcategory>
							<effecttype>audiolevels</effecttype>
							<mediatype>audio</mediatype>
							<parameter>
								<name>Level</name>
								<parameterid>level</parameterid>
								<valuemin>0</valuemin>
								<valuemax>3.98109</valuemax>
								<value>1</value>
							</parameter>
						</effect>
					</filter>
					<filter>
						<effect>
							<name>Audio Pan</name>
							<effectid>audiopan</effectid>
							<effectcategory>audiopan</effectcategory>
							<effecttype>audiopan</effecttype>
							<mediatype>audio</mediatype>
							<parameter>
								<name>Pan</name>
								<parameterid>pan</parameterid>
								<valuemin>-1</valuemin>
								<valuemax>1</valuemax>
								<value>0</value>
							</parameter>
						</effect>
					</filter>
					<sourcetrack>
						<mediatype>audio</mediatype>
						<trackindex>2</trackindex>
					</sourcetrack>
					<link>
						<linkclipref>010_01_05_A_OK</linkclipref>
						<mediatype>video</mediatype>
						<trackindex>1</trackindex>
						<clipindex>9</clipindex>
					</link>
					<link>
						<linkclipref>010_01_05_A_OK2</linkclipref>
						<mediatype>audio</mediatype>
						<trackindex>1</trackindex>
						<clipindex>9</clipindex>
					</link>
					<link>
						<linkclipref>010_01_05_A_OK3</linkclipref>
						<mediatype>audio</mediatype>
						<trackindex>2</trackindex>
						<clipindex>9</clipindex>
					</link>
					<link>
						<linkclipref>010_01_05_A_OK4</linkclipref>
						<mediatype>audio</mediatype>
						<trackindex>3</trackindex>
						<clipindex>9</clipindex>
					</link>
					<itemhistory>
						<uuid>DDC59668-D70F-4567-967B-A819AAF881D2</uuid>
					</itemhistory>
				</clipitem>
				<clipitem id="010_01_05_B_OK3">
					<name>010_01_05_B_OK</name>
					<duration>658</duration>
					<rate>
						<ntsc>FALSE</ntsc>
						<timebase>24</timebase>
					</rate>
					<in>502</in>
					<out>553</out>
					<start>3330</start>
					<end>3381</end>
					<subframeoffset>0</subframeoffset>
					<enabled>TRUE</enabled>
					<masterclipid>010_01_05_B_OK1</masterclipid>
					<logginginfo>
						<scene/>
						<shottake/>
						<lognote/>
						<good>FALSE</good>
					</logginginfo>
					<labels>
						<label2/>
					</labels>
					<comments>
						<mastercomment1/>
						<mastercomment2/>
						<mastercomment3/>
						<mastercomment4/>
					</comments>
					<file id="B001C010_130101_R1WX"/>
					<filter>
						<effect>
							<name>Audio Levels</name>
							<effectid>audiolevels</effectid>
							<effectcategory>audiolevels</effectcategory>
							<effecttype>audiolevels</effecttype>
							<mediatype>audio</mediatype>
							<parameter>
								<name>Level</name>
								<parameterid>level</parameterid>
								<valuemin>0</valuemin>
								<valuemax>3.98109</valuemax>
								<value>1</value>
							</parameter>
						</effect>
					</filter>
					<filter>
						<effect>
							<name>Audio Pan</name>
							<effectid>audiopan</effectid>
							<effectcategory>audiopan</effectcategory>
							<effecttype>audiopan</effecttype>
							<mediatype>audio</mediatype>
							<parameter>
								<name>Pan</name>
								<parameterid>pan</parameterid>
								<valuemin>-1</valuemin>
								<valuemax>1</valuemax>
								<value>0</value>
							</parameter>
						</effect>
					</filter>
					<sourcetrack>
						<mediatype>audio</mediatype>
						<trackindex>2</trackindex>
					</sourcetrack>
					<link>
						<linkclipref>010_01_05_B_OK</linkclipref>
						<mediatype>video</mediatype>
						<trackindex>1</trackindex>
						<clipindex>10</clipindex>
					</link>
					<link>
						<linkclipref>010_01_05_B_OK2</linkclipref>
						<mediatype>audio</mediatype>
						<trackindex>1</trackindex>
						<clipindex>10</clipindex>
					</link>
					<link>
						<linkclipref>010_01_05_B_OK3</linkclipref>
						<mediatype>audio</mediatype>
						<trackindex>2</trackindex>
						<clipindex>10</clipindex>
					</link>
					<link>
						<linkclipref>010_01_05_B_OK4</linkclipref>
						<mediatype>audio</mediatype>
						<trackindex>3</trackindex>
						<clipindex>10</clipindex>
					</link>
					<itemhistory>
						<uuid>B44EB361-4829-405F-BC31-DE148A73C769</uuid>
					</itemhistory>
				</clipitem>
				<clipitem id="010_02_01_A3">
					<name>010_02_01_A</name>
					<duration>488</duration>
					<rate>
						<ntsc>FALSE</ntsc>
						<timebase>24</timebase>
					</rate>
					<in>0</in>
					<out>488</out>
					<start>3381</start>
					<end>3869</end>
					<subframeoffset>0</subframeoffset>
					<enabled>TRUE</enabled>
					<masterclipid>010_02_01_A1</masterclipid>
					<logginginfo>
						<scene/>
						<shottake/>
						<lognote/>
						<good>FALSE</good>
					</logginginfo>
					<labels>
						<label2/>
					</labels>
					<comments>
						<mastercomment1/>
						<mastercomment2/>
						<mastercomment3/>
						<mastercomment4/>
					</comments>
					<file id="A001C024_221211_R03K"/>
					<filter>
						<effect>
							<name>Audio Levels</name>
							<effectid>audiolevels</effectid>
							<effectcategory>audiolevels</effectcategory>
							<effecttype>audiolevels</effecttype>
							<mediatype>audio</mediatype>
							<parameter>
								<name>Level</name>
								<parameterid>level</parameterid>
								<valuemin>0</valuemin>
								<valuemax>3.98109</valuemax>
								<value>1</value>
							</parameter>
						</effect>
					</filter>
					<filter>
						<effect>
							<name>Audio Pan</name>
							<effectid>audiopan</effectid>
							<effectcategory>audiopan</effectcategory>
							<effecttype>audiopan</effecttype>
							<mediatype>audio</mediatype>
							<parameter>
								<name>Pan</name>
								<parameterid>pan</parameterid>
								<valuemin>-1</valuemin>
								<valuemax>1</valuemax>
								<value>0</value>
							</parameter>
						</effect>
					</filter>
					<sourcetrack>
						<mediatype>audio</mediatype>
						<trackindex>2</trackindex>
					</sourcetrack>
					<link>
						<linkclipref>010_02_01_A</linkclipref>
						<mediatype>video</mediatype>
						<trackindex>1</trackindex>
						<clipindex>11</clipindex>
					</link>
					<link>
						<linkclipref>010_02_01_A2</linkclipref>
						<mediatype>audio</mediatype>
						<trackindex>1</trackindex>
						<clipindex>11</clipindex>
					</link>
					<link>
						<linkclipref>010_02_01_A3</linkclipref>
						<mediatype>audio</mediatype>
						<trackindex>2</trackindex>
						<clipindex>11</clipindex>
					</link>
					<link>
						<linkclipref>010_02_01_A4</linkclipref>
						<mediatype>audio</mediatype>
						<trackindex>3</trackindex>
						<clipindex>11</clipindex>
					</link>
					<link>
						<linkclipref>010_02_01_A5</linkclipref>
						<mediatype>audio</mediatype>
						<trackindex>4</trackindex>
						<clipindex>5</clipindex>
					</link>
					<itemhistory>
						<uuid>5A652B50-7764-463A-B42F-A6F6B0EA8E6C</uuid>
					</itemhistory>
				</clipitem>
				<clipitem id="010_02_02_A_OK3">
					<name>010_02_02_A_OK</name>
					<duration>459</duration>
					<rate>
						<ntsc>FALSE</ntsc>
						<timebase>24</timebase>
					</rate>
					<in>173</in>
					<out>251</out>
					<start>3869</start>
					<end>3947</end>
					<subframeoffset>0</subframeoffset>
					<enabled>TRUE</enabled>
					<masterclipid>010_02_02_A_OK1</masterclipid>
					<logginginfo>
						<scene/>
						<shottake/>
						<lognote/>
						<good>FALSE</good>
					</logginginfo>
					<labels>
						<label2/>
					</labels>
					<comments>
						<mastercomment1/>
						<mastercomment2/>
						<mastercomment3/>
						<mastercomment4/>
					</comments>
					<file id="A001C025_221211_R03K"/>
					<filter>
						<effect>
							<name>Audio Levels</name>
							<effectid>audiolevels</effectid>
							<effectcategory>audiolevels</effectcategory>
							<effecttype>audiolevels</effecttype>
							<mediatype>audio</mediatype>
							<parameter>
								<name>Level</name>
								<parameterid>level</parameterid>
								<valuemin>0</valuemin>
								<valuemax>3.98109</valuemax>
								<value>1</value>
							</parameter>
						</effect>
					</filter>
					<filter>
						<effect>
							<name>Audio Pan</name>
							<effectid>audiopan</effectid>
							<effectcategory>audiopan</effectcategory>
							<effecttype>audiopan</effecttype>
							<mediatype>audio</mediatype>
							<parameter>
								<name>Pan</name>
								<parameterid>pan</parameterid>
								<valuemin>-1</valuemin>
								<valuemax>1</valuemax>
								<value>0</value>
							</parameter>
						</effect>
					</filter>
					<sourcetrack>
						<mediatype>audio</mediatype>
						<trackindex>2</trackindex>
					</sourcetrack>
					<link>
						<linkclipref>010_02_02_A_OK</linkclipref>
						<mediatype>video</mediatype>
						<trackindex>1</trackindex>
						<clipindex>12</clipindex>
					</link>
					<link>
						<linkclipref>010_02_02_A_OK2</linkclipref>
						<mediatype>audio</mediatype>
						<trackindex>1</trackindex>
						<clipindex>12</clipindex>
					</link>
					<link>
						<linkclipref>010_02_02_A_OK3</linkclipref>
						<mediatype>audio</mediatype>
						<trackindex>2</trackindex>
						<clipindex>12</clipindex>
					</link>
					<link>
						<linkclipref>010_02_02_A_OK4</linkclipref>
						<mediatype>audio</mediatype>
						<trackindex>3</trackindex>
						<clipindex>12</clipindex>
					</link>
					<link>
						<linkclipref>010_02_02_A_OK5</linkclipref>
						<mediatype>audio</mediatype>
						<trackindex>4</trackindex>
						<clipindex>6</clipindex>
					</link>
					<itemhistory>
						<uuid>800FA4B5-7A3E-4447-9CCB-40E1D28B9C40</uuid>
					</itemhistory>
				</clipitem>
				<clipitem id="010_03_01_B3">
					<name>010_03_01_B</name>
					<duration>443</duration>
					<rate>
						<ntsc>FALSE</ntsc>
						<timebase>24</timebase>
					</rate>
					<in>0</in>
					<out>443</out>
					<start>3947</start>
					<end>4390</end>
					<subframeoffset>0</subframeoffset>
					<enabled>TRUE</enabled>
					<masterclipid>010_03_01_B1</masterclipid>
					<logginginfo>
						<scene/>
						<shottake/>
						<lognote/>
						<good>FALSE</good>
					</logginginfo>
					<labels>
						<label2/>
					</labels>
					<comments>
						<mastercomment1/>
						<mastercomment2/>
						<mastercomment3/>
						<mastercomment4/>
					</comments>
					<file id="B001C011_130101_R1WX"/>
					<filter>
						<effect>
							<name>Audio Levels</name>
							<effectid>audiolevels</effectid>
							<effectcategory>audiolevels</effectcategory>
							<effecttype>audiolevels</effecttype>
							<mediatype>audio</mediatype>
							<parameter>
								<name>Level</name>
								<parameterid>level</parameterid>
								<valuemin>0</valuemin>
								<valuemax>3.98109</valuemax>
								<value>1</value>
							</parameter>
						</effect>
					</filter>
					<filter>
						<effect>
							<name>Audio Pan</name>
							<effectid>audiopan</effectid>
							<effectcategory>audiopan</effectcategory>
							<effecttype>audiopan</effecttype>
							<mediatype>audio</mediatype>
							<parameter>
								<name>Pan</name>
								<parameterid>pan</parameterid>
								<valuemin>-1</valuemin>
								<valuemax>1</valuemax>
								<value>0</value>
							</parameter>
						</effect>
					</filter>
					<sourcetrack>
						<mediatype>audio</mediatype>
						<trackindex>2</trackindex>
					</sourcetrack>
					<link>
						<linkclipref>010_03_01_B</linkclipref>
						<mediatype>video</mediatype>
						<trackindex>1</trackindex>
						<clipindex>13</clipindex>
					</link>
					<link>
						<linkclipref>010_03_01_B2</linkclipref>
						<mediatype>audio</mediatype>
						<trackindex>1</trackindex>
						<clipindex>13</clipindex>
					</link>
					<link>
						<linkclipref>010_03_01_B3</linkclipref>
						<mediatype>audio</mediatype>
						<trackindex>2</trackindex>
						<clipindex>13</clipindex>
					</link>
					<link>
						<linkclipref>010_03_01_B4</linkclipref>
						<mediatype>audio</mediatype>
						<trackindex>3</trackindex>
						<clipindex>13</clipindex>
					</link>
					<itemhistory>
						<uuid>41343163-20E2-4D42-BE84-4239D670439D</uuid>
					</itemhistory>
				</clipitem>
				<clipitem id="010_03_02_B_KP3">
					<name>010_03_02_B_KP</name>
					<duration>412</duration>
					<rate>
						<ntsc>FALSE</ntsc>
						<timebase>24</timebase>
					</rate>
					<in>0</in>
					<out>412</out>
					<start>4390</start>
					<end>4802</end>
					<subframeoffset>0</subframeoffset>
					<enabled>TRUE</enabled>
					<masterclipid>010_03_02_B_KP1</masterclipid>
					<logginginfo>
						<scene/>
						<shottake/>
						<lognote/>
						<good>FALSE</good>
					</logginginfo>
					<labels>
						<label2/>
					</labels>
					<comments>
						<mastercomment1/>
						<mastercomment2/>
						<mastercomment3/>
						<mastercomment4/>
					</comments>
					<file id="B001C012_130101_R1WX"/>
					<filter>
						<effect>
							<name>Audio Levels</name>
							<effectid>audiolevels</effectid>
							<effectcategory>audiolevels</effectcategory>
							<effecttype>audiolevels</effecttype>
							<mediatype>audio</mediatype>
							<parameter>
								<name>Level</name>
								<parameterid>level</parameterid>
								<valuemin>0</valuemin>
								<valuemax>3.98109</valuemax>
								<value>1</value>
							</parameter>
						</effect>
					</filter>
					<filter>
						<effect>
							<name>Audio Pan</name>
							<effectid>audiopan</effectid>
							<effectcategory>audiopan</effectcategory>
							<effecttype>audiopan</effecttype>
							<mediatype>audio</mediatype>
							<parameter>
								<name>Pan</name>
								<parameterid>pan</parameterid>
								<valuemin>-1</valuemin>
								<valuemax>1</valuemax>
								<value>0</value>
							</parameter>
						</effect>
					</filter>
					<sourcetrack>
						<mediatype>audio</mediatype>
						<trackindex>2</trackindex>
					</sourcetrack>
					<link>
						<linkclipref>010_03_02_B_KP</linkclipref>
						<mediatype>video</mediatype>
						<trackindex>1</trackindex>
						<clipindex>14</clipindex>
					</link>
					<link>
						<linkclipref>010_03_02_B_KP2</linkclipref>
						<mediatype>audio</mediatype>
						<trackindex>1</trackindex>
						<clipindex>14</clipindex>
					</link>
					<link>
						<linkclipref>010_03_02_B_KP3</linkclipref>
						<mediatype>audio</mediatype>
						<trackindex>2</trackindex>
						<clipindex>14</clipindex>
					</link>
					<link>
						<linkclipref>010_03_02_B_KP4</linkclipref>
						<mediatype>audio</mediatype>
						<trackindex>3</trackindex>
						<clipindex>14</clipindex>
					</link>
					<itemhistory>
						<uuid>F9503E48-6274-415A-B7ED-0DA9E2F86F1C</uuid>
					</itemhistory>
				</clipitem>
				<clipitem id="010_03_03_B_KP3">
					<name>010_03_03_B_KP</name>
					<duration>397</duration>
					<rate>
						<ntsc>FALSE</ntsc>
						<timebase>24</timebase>
					</rate>
					<in>0</in>
					<out>397</out>
					<start>4802</start>
					<end>5199</end>
					<subframeoffset>0</subframeoffset>
					<enabled>TRUE</enabled>
					<masterclipid>010_03_03_B_KP1</masterclipid>
					<logginginfo>
						<scene/>
						<shottake/>
						<lognote/>
						<good>FALSE</good>
					</logginginfo>
					<labels>
						<label2/>
					</labels>
					<comments>
						<mastercomment1/>
						<mastercomment2/>
						<mastercomment3/>
						<mastercomment4/>
					</comments>
					<file id="B001C013_130101_R1WX"/>
					<filter>
						<effect>
							<name>Audio Levels</name>
							<effectid>audiolevels</effectid>
							<effectcategory>audiolevels</effectcategory>
							<effecttype>audiolevels</effecttype>
							<mediatype>audio</mediatype>
							<parameter>
								<name>Level</name>
								<parameterid>level</parameterid>
								<valuemin>0</valuemin>
								<valuemax>3.98109</valuemax>
								<value>1</value>
							</parameter>
						</effect>
					</filter>
					<filter>
						<effect>
							<name>Audio Pan</name>
							<effectid>audiopan</effectid>
							<effectcategory>audiopan</effectcategory>
							<effecttype>audiopan</effecttype>
							<mediatype>audio</mediatype>
							<parameter>
								<name>Pan</name>
								<parameterid>pan</parameterid>
								<valuemin>-1</valuemin>
								<valuemax>1</valuemax>
								<value>0</value>
							</parameter>
						</effect>
					</filter>
					<sourcetrack>
						<mediatype>audio</mediatype>
						<trackindex>2</trackindex>
					</sourcetrack>
					<link>
						<linkclipref>010_03_03_B_KP</linkclipref>
						<mediatype>video</mediatype>
						<trackindex>1</trackindex>
						<clipindex>15</clipindex>
					</link>
					<link>
						<linkclipref>010_03_03_B_KP2</linkclipref>
						<mediatype>audio</mediatype>
						<trackindex>1</trackindex>
						<clipindex>15</clipindex>
					</link>
					<link>
						<linkclipref>010_03_03_B_KP3</linkclipref>
						<mediatype>audio</mediatype>
						<trackindex>2</trackindex>
						<clipindex>15</clipindex>
					</link>
					<link>
						<linkclipref>010_03_03_B_KP4</linkclipref>
						<mediatype>audio</mediatype>
						<trackindex>3</trackindex>
						<clipindex>15</clipindex>
					</link>
					<itemhistory>
						<uuid>E808E02C-2AD5-4C3B-8E97-27A5F8F9308E</uuid>
					</itemhistory>
				</clipitem>
				<clipitem id="010_03_04_B_KP3">
					<name>010_03_04_B_KP</name>
					<duration>442</duration>
					<rate>
						<ntsc>FALSE</ntsc>
						<timebase>24</timebase>
					</rate>
					<in>172</in>
					<out>210</out>
					<start>5199</start>
					<end>5237</end>
					<subframeoffset>0</subframeoffset>
					<enabled>TRUE</enabled>
					<masterclipid>010_03_04_B_KP1</masterclipid>
					<logginginfo>
						<scene/>
						<shottake/>
						<lognote/>
						<good>FALSE</good>
					</logginginfo>
					<labels>
						<label2/>
					</labels>
					<comments>
						<mastercomment1/>
						<mastercomment2/>
						<mastercomment3/>
						<mastercomment4/>
					</comments>
					<file id="B001C014_130101_R1WX"/>
					<filter>
						<effect>
							<name>Audio Levels</name>
							<effectid>audiolevels</effectid>
							<effectcategory>audiolevels</effectcategory>
							<effecttype>audiolevels</effecttype>
							<mediatype>audio</mediatype>
							<parameter>
								<name>Level</name>
								<parameterid>level</parameterid>
								<valuemin>0</valuemin>
								<valuemax>3.98109</valuemax>
								<value>1</value>
							</parameter>
						</effect>
					</filter>
					<filter>
						<effect>
							<name>Audio Pan</name>
							<effectid>audiopan</effectid>
							<effectcategory>audiopan</effectcategory>
							<effecttype>audiopan</effecttype>
							<mediatype>audio</mediatype>
							<parameter>
								<name>Pan</name>
								<parameterid>pan</parameterid>
								<valuemin>-1</valuemin>
								<valuemax>1</valuemax>
								<value>0</value>
							</parameter>
						</effect>
					</filter>
					<sourcetrack>
						<mediatype>audio</mediatype>
						<trackindex>2</trackindex>
					</sourcetrack>
					<link>
						<linkclipref>010_03_04_B_KP</linkclipref>
						<mediatype>video</mediatype>
						<trackindex>1</trackindex>
						<clipindex>16</clipindex>
					</link>
					<link>
						<linkclipref>010_03_04_B_KP2</linkclipref>
						<mediatype>audio</mediatype>
						<trackindex>1</trackindex>
						<clipindex>16</clipindex>
					</link>
					<link>
						<linkclipref>010_03_04_B_KP3</linkclipref>
						<mediatype>audio</mediatype>
						<trackindex>2</trackindex>
						<clipindex>16</clipindex>
					</link>
					<link>
						<linkclipref>010_03_04_B_KP4</linkclipref>
						<mediatype>audio</mediatype>
						<trackindex>3</trackindex>
						<clipindex>16</clipindex>
					</link>
					<itemhistory>
						<uuid>5D88C497-5BD2-498E-9EA6-B3134DE08C0A</uuid>
					</itemhistory>
				</clipitem>
				<clipitem id="010_04_01_B3">
					<name>010_04_01_B</name>
					<duration>271</duration>
					<rate>
						<ntsc>FALSE</ntsc>
						<timebase>24</timebase>
					</rate>
					<in>0</in>
					<out>271</out>
					<start>5237</start>
					<end>5508</end>
					<subframeoffset>0</subframeoffset>
					<enabled>TRUE</enabled>
					<masterclipid>010_04_01_B1</masterclipid>
					<logginginfo>
						<scene/>
						<shottake/>
						<lognote/>
						<good>FALSE</good>
					</logginginfo>
					<labels>
						<label2/>
					</labels>
					<comments>
						<mastercomment1/>
						<mastercomment2/>
						<mastercomment3/>
						<mastercomment4/>
					</comments>
					<file id="B001C015_130101_R1WX"/>
					<filter>
						<effect>
							<name>Audio Levels</name>
							<effectid>audiolevels</effectid>
							<effectcategory>audiolevels</effectcategory>
							<effecttype>audiolevels</effecttype>
							<mediatype>audio</mediatype>
							<parameter>
								<name>Level</name>
								<parameterid>level</parameterid>
								<valuemin>0</valuemin>
								<valuemax>3.98109</valuemax>
								<value>1</value>
							</parameter>
						</effect>
					</filter>
					<filter>
						<effect>
							<name>Audio Pan</name>
							<effectid>audiopan</effectid>
							<effectcategory>audiopan</effectcategory>
							<effecttype>audiopan</effecttype>
							<mediatype>audio</mediatype>
							<parameter>
								<name>Pan</name>
								<parameterid>pan</parameterid>
								<valuemin>-1</valuemin>
								<valuemax>1</valuemax>
								<value>1</value>
							</parameter>
						</effect>
					</filter>
					<sourcetrack>
						<mediatype>audio</mediatype>
						<trackindex>2</trackindex>
					</sourcetrack>
					<link>
						<linkclipref>010_04_01_B</linkclipref>
						<mediatype>video</mediatype>
						<trackindex>1</trackindex>
						<clipindex>17</clipindex>
					</link>
					<link>
						<linkclipref>010_04_01_B2</linkclipref>
						<mediatype>audio</mediatype>
						<trackindex>1</trackindex>
						<clipindex>17</clipindex>
						<groupindex>1</groupindex>
					</link>
					<link>
						<linkclipref>010_04_01_B3</linkclipref>
						<mediatype>audio</mediatype>
						<trackindex>2</trackindex>
						<clipindex>17</clipindex>
						<groupindex>1</groupindex>
					</link>
					<itemhistory>
						<uuid>2B88C868-0629-4569-AACB-0739BDF343CD</uuid>
					</itemhistory>
				</clipitem>
				<clipitem id="010_04_02_B_OK3">
					<name>010_04_02_B_OK</name>
					<duration>296</duration>
					<rate>
						<ntsc>FALSE</ntsc>
						<timebase>24</timebase>
					</rate>
					<in>89</in>
					<out>159</out>
					<start>5508</start>
					<end>5578</end>
					<subframeoffset>0</subframeoffset>
					<enabled>TRUE</enabled>
					<masterclipid>010_04_02_B_OK1</masterclipid>
					<logginginfo>
						<scene/>
						<shottake/>
						<lognote/>
						<good>FALSE</good>
					</logginginfo>
					<labels>
						<label2/>
					</labels>
					<comments>
						<mastercomment1/>
						<mastercomment2/>
						<mastercomment3/>
						<mastercomment4/>
					</comments>
					<file id="B001C016_130101_R1WX"/>
					<filter>
						<effect>
							<name>Audio Levels</name>
							<effectid>audiolevels</effectid>
							<effectcategory>audiolevels</effectcategory>
							<effecttype>audiolevels</effecttype>
							<mediatype>audio</mediatype>
							<parameter>
								<name>Level</name>
								<parameterid>level</parameterid>
								<valuemin>0</valuemin>
								<valuemax>3.98109</valuemax>
								<value>1</value>
							</parameter>
						</effect>
					</filter>
					<filter>
						<effect>
							<name>Audio Pan</name>
							<effectid>audiopan</effectid>
							<effectcategory>audiopan</effectcategory>
							<effecttype>audiopan</effecttype>
							<mediatype>audio</mediatype>
							<parameter>
								<name>Pan</name>
								<parameterid>pan</parameterid>
								<valuemin>-1</valuemin>
								<valuemax>1</valuemax>
								<value>1</value>
							</parameter>
						</effect>
					</filter>
					<sourcetrack>
						<mediatype>audio</mediatype>
						<trackindex>2</trackindex>
					</sourcetrack>
					<link>
						<linkclipref>010_04_02_B_OK</linkclipref>
						<mediatype>video</mediatype>
						<trackindex>1</trackindex>
						<clipindex>18</clipindex>
					</link>
					<link>
						<linkclipref>010_04_02_B_OK2</linkclipref>
						<mediatype>audio</mediatype>
						<trackindex>1</trackindex>
						<clipindex>18</clipindex>
						<groupindex>1</groupindex>
					</link>
					<link>
						<linkclipref>010_04_02_B_OK3</linkclipref>
						<mediatype>audio</mediatype>
						<trackindex>2</trackindex>
						<clipindex>18</clipindex>
						<groupindex>1</groupindex>
					</link>
					<itemhistory>
						<uuid>0A5F9A08-55E4-4990-8841-7AF77C1D2BC6</uuid>
					</itemhistory>
				</clipitem>
				<clipitem id="010_05_01_A3">
					<name>010_05_01_A</name>
					<duration>1054</duration>
					<rate>
						<ntsc>FALSE</ntsc>
						<timebase>24</timebase>
					</rate>
					<in>0</in>
					<out>1054</out>
					<start>5578</start>
					<end>6632</end>
					<subframeoffset>0</subframeoffset>
					<enabled>TRUE</enabled>
					<masterclipid>010_05_01_A1</masterclipid>
					<logginginfo>
						<scene/>
						<shottake/>
						<lognote/>
						<good>FALSE</good>
					</logginginfo>
					<labels>
						<label2/>
					</labels>
					<comments>
						<mastercomment1/>
						<mastercomment2/>
						<mastercomment3/>
						<mastercomment4/>
					</comments>
					<file id="A001C026_221211_R03K"/>
					<filter>
						<effect>
							<name>Audio Levels</name>
							<effectid>audiolevels</effectid>
							<effectcategory>audiolevels</effectcategory>
							<effecttype>audiolevels</effecttype>
							<mediatype>audio</mediatype>
							<parameter>
								<name>Level</name>
								<parameterid>level</parameterid>
								<valuemin>0</valuemin>
								<valuemax>3.98109</valuemax>
								<value>1</value>
							</parameter>
						</effect>
					</filter>
					<filter>
						<effect>
							<name>Audio Pan</name>
							<effectid>audiopan</effectid>
							<effectcategory>audiopan</effectcategory>
							<effecttype>audiopan</effecttype>
							<mediatype>audio</mediatype>
							<parameter>
								<name>Pan</name>
								<parameterid>pan</parameterid>
								<valuemin>-1</valuemin>
								<valuemax>1</valuemax>
								<value>0</value>
							</parameter>
						</effect>
					</filter>
					<sourcetrack>
						<mediatype>audio</mediatype>
						<trackindex>2</trackindex>
					</sourcetrack>
					<link>
						<linkclipref>010_05_01_A</linkclipref>
						<mediatype>video</mediatype>
						<trackindex>1</trackindex>
						<clipindex>19</clipindex>
					</link>
					<link>
						<linkclipref>010_05_01_A2</linkclipref>
						<mediatype>audio</mediatype>
						<trackindex>1</trackindex>
						<clipindex>19</clipindex>
					</link>
					<link>
						<linkclipref>010_05_01_A3</linkclipref>
						<mediatype>audio</mediatype>
						<trackindex>2</trackindex>
						<clipindex>19</clipindex>
					</link>
					<link>
						<linkclipref>010_05_01_A4</linkclipref>
						<mediatype>audio</mediatype>
						<trackindex>3</trackindex>
						<clipindex>17</clipindex>
					</link>
					<link>
						<linkclipref>010_05_01_A5</linkclipref>
						<mediatype>audio</mediatype>
						<trackindex>4</trackindex>
						<clipindex>7</clipindex>
					</link>
					<itemhistory>
						<uuid>D880CE57-EF0C-4B80-81FE-8441B8F86A37</uuid>
					</itemhistory>
				</clipitem>
				<clipitem id="010_05_01_B3">
					<name>010_05_01_B</name>
					<duration>1017</duration>
					<rate>
						<ntsc>FALSE</ntsc>
						<timebase>24</timebase>
					</rate>
					<in>0</in>
					<out>1017</out>
					<start>6632</start>
					<end>7649</end>
					<subframeoffset>0</subframeoffset>
					<enabled>TRUE</enabled>
					<masterclipid>010_05_01_B1</masterclipid>
					<logginginfo>
						<scene/>
						<shottake/>
						<lognote/>
						<good>FALSE</good>
					</logginginfo>
					<labels>
						<label2/>
					</labels>
					<comments>
						<mastercomment1/>
						<mastercomment2/>
						<mastercomment3/>
						<mastercomment4/>
					</comments>
					<file id="B001C017_130101_R1WX"/>
					<filter>
						<effect>
							<name>Audio Levels</name>
							<effectid>audiolevels</effectid>
							<effectcategory>audiolevels</effectcategory>
							<effecttype>audiolevels</effecttype>
							<mediatype>audio</mediatype>
							<parameter>
								<name>Level</name>
								<parameterid>level</parameterid>
								<valuemin>0</valuemin>
								<valuemax>3.98109</valuemax>
								<value>1</value>
							</parameter>
						</effect>
					</filter>
					<filter>
						<effect>
							<name>Audio Pan</name>
							<effectid>audiopan</effectid>
							<effectcategory>audiopan</effectcategory>
							<effecttype>audiopan</effecttype>
							<mediatype>audio</mediatype>
							<parameter>
								<name>Pan</name>
								<parameterid>pan</parameterid>
								<valuemin>-1</valuemin>
								<valuemax>1</valuemax>
								<value>0</value>
							</parameter>
						</effect>
					</filter>
					<sourcetrack>
						<mediatype>audio</mediatype>
						<trackindex>2</trackindex>
					</sourcetrack>
					<link>
						<linkclipref>010_05_01_B</linkclipref>
						<mediatype>video</mediatype>
						<trackindex>1</trackindex>
						<clipindex>20</clipindex>
					</link>
					<link>
						<linkclipref>010_05_01_B2</linkclipref>
						<mediatype>audio</mediatype>
						<trackindex>1</trackindex>
						<clipindex>20</clipindex>
					</link>
					<link>
						<linkclipref>010_05_01_B3</linkclipref>
						<mediatype>audio</mediatype>
						<trackindex>2</trackindex>
						<clipindex>20</clipindex>
					</link>
					<link>
						<linkclipref>010_05_01_B4</linkclipref>
						<mediatype>audio</mediatype>
						<trackindex>3</trackindex>
						<clipindex>18</clipindex>
					</link>
					<link>
						<linkclipref>010_05_01_B5</linkclipref>
						<mediatype>audio</mediatype>
						<trackindex>4</trackindex>
						<clipindex>8</clipindex>
					</link>
					<itemhistory>
						<uuid>10F76719-571E-4434-8D50-E90B6A5278BB</uuid>
					</itemhistory>
				</clipitem>
				<clipitem id="010_05_02_A3">
					<name>010_05_02_A</name>
					<duration>949</duration>
					<rate>
						<ntsc>FALSE</ntsc>
						<timebase>24</timebase>
					</rate>
					<in>0</in>
					<out>949</out>
					<start>7649</start>
					<end>8598</end>
					<subframeoffset>0</subframeoffset>
					<enabled>TRUE</enabled>
					<masterclipid>010_05_02_A1</masterclipid>
					<logginginfo>
						<scene/>
						<shottake/>
						<lognote/>
						<good>FALSE</good>
					</logginginfo>
					<labels>
						<label2/>
					</labels>
					<comments>
						<mastercomment1/>
						<mastercomment2/>
						<mastercomment3/>
						<mastercomment4/>
					</comments>
					<file id="A001C027_221211_R03K"/>
					<filter>
						<effect>
							<name>Audio Levels</name>
							<effectid>audiolevels</effectid>
							<effectcategory>audiolevels</effectcategory>
							<effecttype>audiolevels</effecttype>
							<mediatype>audio</mediatype>
							<parameter>
								<name>Level</name>
								<parameterid>level</parameterid>
								<valuemin>0</valuemin>
								<valuemax>3.98109</valuemax>
								<value>1</value>
							</parameter>
						</effect>
					</filter>
					<filter>
						<effect>
							<name>Audio Pan</name>
							<effectid>audiopan</effectid>
							<effectcategory>audiopan</effectcategory>
							<effecttype>audiopan</effecttype>
							<mediatype>audio</mediatype>
							<parameter>
								<name>Pan</name>
								<parameterid>pan</parameterid>
								<valuemin>-1</valuemin>
								<valuemax>1</valuemax>
								<value>0</value>
							</parameter>
						</effect>
					</filter>
					<sourcetrack>
						<mediatype>audio</mediatype>
						<trackindex>2</trackindex>
					</sourcetrack>
					<link>
						<linkclipref>010_05_02_A</linkclipref>
						<mediatype>video</mediatype>
						<trackindex>1</trackindex>
						<clipindex>21</clipindex>
					</link>
					<link>
						<linkclipref>010_05_02_A2</linkclipref>
						<mediatype>audio</mediatype>
						<trackindex>1</trackindex>
						<clipindex>21</clipindex>
					</link>
					<link>
						<linkclipref>010_05_02_A3</linkclipref>
						<mediatype>audio</mediatype>
						<trackindex>2</trackindex>
						<clipindex>21</clipindex>
					</link>
					<link>
						<linkclipref>010_05_02_A4</linkclipref>
						<mediatype>audio</mediatype>
						<trackindex>3</trackindex>
						<clipindex>19</clipindex>
					</link>
					<link>
						<linkclipref>010_05_02_A5</linkclipref>
						<mediatype>audio</mediatype>
						<trackindex>4</trackindex>
						<clipindex>9</clipindex>
					</link>
					<itemhistory>
						<uuid>B0BCC888-7A58-4235-AAC3-247B502E804C</uuid>
					</itemhistory>
				</clipitem>
				<clipitem id="010_05_02_B3">
					<name>010_05_02_B</name>
					<duration>954</duration>
					<rate>
						<ntsc>FALSE</ntsc>
						<timebase>24</timebase>
					</rate>
					<in>0</in>
					<out>954</out>
					<start>8598</start>
					<end>9552</end>
					<subframeoffset>0</subframeoffset>
					<enabled>TRUE</enabled>
					<masterclipid>010_05_02_B1</masterclipid>
					<logginginfo>
						<scene/>
						<shottake/>
						<lognote/>
						<good>FALSE</good>
					</logginginfo>
					<labels>
						<label2/>
					</labels>
					<comments>
						<mastercomment1/>
						<mastercomment2/>
						<mastercomment3/>
						<mastercomment4/>
					</comments>
					<file id="B001C018_130101_R1WX"/>
					<filter>
						<effect>
							<name>Audio Levels</name>
							<effectid>audiolevels</effectid>
							<effectcategory>audiolevels</effectcategory>
							<effecttype>audiolevels</effecttype>
							<mediatype>audio</mediatype>
							<parameter>
								<name>Level</name>
								<parameterid>level</parameterid>
								<valuemin>0</valuemin>
								<valuemax>3.98109</valuemax>
								<value>1</value>
							</parameter>
						</effect>
					</filter>
					<filter>
						<effect>
							<name>Audio Pan</name>
							<effectid>audiopan</effectid>
							<effectcategory>audiopan</effectcategory>
							<effecttype>audiopan</effecttype>
							<mediatype>audio</mediatype>
							<parameter>
								<name>Pan</name>
								<parameterid>pan</parameterid>
								<valuemin>-1</valuemin>
								<valuemax>1</valuemax>
								<value>0</value>
							</parameter>
						</effect>
					</filter>
					<sourcetrack>
						<mediatype>audio</mediatype>
						<trackindex>2</trackindex>
					</sourcetrack>
					<link>
						<linkclipref>010_05_02_B</linkclipref>
						<mediatype>video</mediatype>
						<trackindex>1</trackindex>
						<clipindex>22</clipindex>
					</link>
					<link>
						<linkclipref>010_05_02_B2</linkclipref>
						<mediatype>audio</mediatype>
						<trackindex>1</trackindex>
						<clipindex>22</clipindex>
					</link>
					<link>
						<linkclipref>010_05_02_B3</linkclipref>
						<mediatype>audio</mediatype>
						<trackindex>2</trackindex>
						<clipindex>22</clipindex>
					</link>
					<link>
						<linkclipref>010_05_02_B4</linkclipref>
						<mediatype>audio</mediatype>
						<trackindex>3</trackindex>
						<clipindex>20</clipindex>
					</link>
					<link>
						<linkclipref>010_05_02_B5</linkclipref>
						<mediatype>audio</mediatype>
						<trackindex>4</trackindex>
						<clipindex>10</clipindex>
					</link>
					<itemhistory>
						<uuid>27A31971-557F-42E1-9ADB-E94D81BDF2C5</uuid>
					</itemhistory>
				</clipitem>
				<clipitem id="010_05_03_A3">
					<name>010_05_03_A</name>
					<duration>1163</duration>
					<rate>
						<ntsc>FALSE</ntsc>
						<timebase>24</timebase>
					</rate>
					<in>0</in>
					<out>1163</out>
					<start>9552</start>
					<end>10715</end>
					<subframeoffset>0</subframeoffset>
					<enabled>TRUE</enabled>
					<masterclipid>010_05_03_A1</masterclipid>
					<logginginfo>
						<scene/>
						<shottake/>
						<lognote/>
						<good>FALSE</good>
					</logginginfo>
					<labels>
						<label2/>
					</labels>
					<comments>
						<mastercomment1/>
						<mastercomment2/>
						<mastercomment3/>
						<mastercomment4/>
					</comments>
					<file id="A001C028_221211_R03K"/>
					<filter>
						<effect>
							<name>Audio Levels</name>
							<effectid>audiolevels</effectid>
							<effectcategory>audiolevels</effectcategory>
							<effecttype>audiolevels</effecttype>
							<mediatype>audio</mediatype>
							<parameter>
								<name>Level</name>
								<parameterid>level</parameterid>
								<valuemin>0</valuemin>
								<valuemax>3.98109</valuemax>
								<value>1</value>
							</parameter>
						</effect>
					</filter>
					<filter>
						<effect>
							<name>Audio Pan</name>
							<effectid>audiopan</effectid>
							<effectcategory>audiopan</effectcategory>
							<effecttype>audiopan</effecttype>
							<mediatype>audio</mediatype>
							<parameter>
								<name>Pan</name>
								<parameterid>pan</parameterid>
								<valuemin>-1</valuemin>
								<valuemax>1</valuemax>
								<value>0</value>
							</parameter>
						</effect>
					</filter>
					<sourcetrack>
						<mediatype>audio</mediatype>
						<trackindex>2</trackindex>
					</sourcetrack>
					<link>
						<linkclipref>010_05_03_A</linkclipref>
						<mediatype>video</mediatype>
						<trackindex>1</trackindex>
						<clipindex>23</clipindex>
					</link>
					<link>
						<linkclipref>010_05_03_A2</linkclipref>
						<mediatype>audio</mediatype>
						<trackindex>1</trackindex>
						<clipindex>23</clipindex>
					</link>
					<link>
						<linkclipref>010_05_03_A3</linkclipref>
						<mediatype>audio</mediatype>
						<trackindex>2</trackindex>
						<clipindex>23</clipindex>
					</link>
					<link>
						<linkclipref>010_05_03_A4</linkclipref>
						<mediatype>audio</mediatype>
						<trackindex>3</trackindex>
						<clipindex>21</clipindex>
					</link>
					<link>
						<linkclipref>010_05_03_A5</linkclipref>
						<mediatype>audio</mediatype>
						<trackindex>4</trackindex>
						<clipindex>11</clipindex>
					</link>
					<itemhistory>
						<uuid>A969EC64-8570-4C08-BDFC-E5E2304354CF</uuid>
					</itemhistory>
				</clipitem>
				<clipitem id="010_05_03_B3">
					<name>010_05_03_B</name>
					<duration>1160</duration>
					<rate>
						<ntsc>FALSE</ntsc>
						<timebase>24</timebase>
					</rate>
					<in>0</in>
					<out>1160</out>
					<start>10715</start>
					<end>11875</end>
					<subframeoffset>0</subframeoffset>
					<enabled>TRUE</enabled>
					<masterclipid>010_05_03_B1</masterclipid>
					<logginginfo>
						<scene/>
						<shottake/>
						<lognote/>
						<good>FALSE</good>
					</logginginfo>
					<labels>
						<label2/>
					</labels>
					<comments>
						<mastercomment1/>
						<mastercomment2/>
						<mastercomment3/>
						<mastercomment4/>
					</comments>
					<file id="B001C019_130101_R1WX"/>
					<filter>
						<effect>
							<name>Audio Levels</name>
							<effectid>audiolevels</effectid>
							<effectcategory>audiolevels</effectcategory>
							<effecttype>audiolevels</effecttype>
							<mediatype>audio</mediatype>
							<parameter>
								<name>Level</name>
								<parameterid>level</parameterid>
								<valuemin>0</valuemin>
								<valuemax>3.98109</valuemax>
								<value>1</value>
							</parameter>
						</effect>
					</filter>
					<filter>
						<effect>
							<name>Audio Pan</name>
							<effectid>audiopan</effectid>
							<effectcategory>audiopan</effectcategory>
							<effecttype>audiopan</effecttype>
							<mediatype>audio</mediatype>
							<parameter>
								<name>Pan</name>
								<parameterid>pan</parameterid>
								<valuemin>-1</valuemin>
								<valuemax>1</valuemax>
								<value>0</value>
							</parameter>
						</effect>
					</filter>
					<sourcetrack>
						<mediatype>audio</mediatype>
						<trackindex>2</trackindex>
					</sourcetrack>
					<link>
						<linkclipref>010_05_03_B</linkclipref>
						<mediatype>video</mediatype>
						<trackindex>1</trackindex>
						<clipindex>24</clipindex>
					</link>
					<link>
						<linkclipref>010_05_03_B2</linkclipref>
						<mediatype>audio</mediatype>
						<trackindex>1</trackindex>
						<clipindex>24</clipindex>
					</link>
					<link>
						<linkclipref>010_05_03_B3</linkclipref>
						<mediatype>audio</mediatype>
						<trackindex>2</trackindex>
						<clipindex>24</clipindex>
					</link>
					<link>
						<linkclipref>010_05_03_B4</linkclipref>
						<mediatype>audio</mediatype>
						<trackindex>3</trackindex>
						<clipindex>22</clipindex>
					</link>
					<link>
						<linkclipref>010_05_03_B5</linkclipref>
						<mediatype>audio</mediatype>
						<trackindex>4</trackindex>
						<clipindex>12</clipindex>
					</link>
					<itemhistory>
						<uuid>47C17DE9-9597-4681-A2BA-D77C6687A921</uuid>
					</itemhistory>
				</clipitem>
				<clipitem id="010_05_04_A_OK_混剪3">
					<name>010_05_04_A_OK_混剪</name>
					<duration>1108</duration>
					<rate>
						<ntsc>FALSE</ntsc>
						<timebase>24</timebase>
					</rate>
					<in>156</in>
					<out>207</out>
					<start>11875</start>
					<end>11926</end>
					<subframeoffset>0</subframeoffset>
					<enabled>TRUE</enabled>
					<masterclipid>010_05_04_A_OK_混剪1</masterclipid>
					<logginginfo>
						<scene/>
						<shottake/>
						<lognote/>
						<good>FALSE</good>
					</logginginfo>
					<labels>
						<label2/>
					</labels>
					<comments>
						<mastercomment1/>
						<mastercomment2/>
						<mastercomment3/>
						<mastercomment4/>
					</comments>
					<file id="A001C029_221211_R03K"/>
					<filter>
						<effect>
							<name>Audio Levels</name>
							<effectid>audiolevels</effectid>
							<effectcategory>audiolevels</effectcategory>
							<effecttype>audiolevels</effecttype>
							<mediatype>audio</mediatype>
							<parameter>
								<name>Level</name>
								<parameterid>level</parameterid>
								<valuemin>0</valuemin>
								<valuemax>3.98109</valuemax>
								<value>1</value>
							</parameter>
						</effect>
					</filter>
					<filter>
						<effect>
							<name>Audio Pan</name>
							<effectid>audiopan</effectid>
							<effectcategory>audiopan</effectcategory>
							<effecttype>audiopan</effecttype>
							<mediatype>audio</mediatype>
							<parameter>
								<name>Pan</name>
								<parameterid>pan</parameterid>
								<valuemin>-1</valuemin>
								<valuemax>1</valuemax>
								<value>0</value>
							</parameter>
						</effect>
					</filter>
					<sourcetrack>
						<mediatype>audio</mediatype>
						<trackindex>2</trackindex>
					</sourcetrack>
					<link>
						<linkclipref>010_05_04_A_OK_混剪</linkclipref>
						<mediatype>video</mediatype>
						<trackindex>1</trackindex>
						<clipindex>25</clipindex>
					</link>
					<link>
						<linkclipref>010_05_04_A_OK_混剪2</linkclipref>
						<mediatype>audio</mediatype>
						<trackindex>1</trackindex>
						<clipindex>25</clipindex>
					</link>
					<link>
						<linkclipref>010_05_04_A_OK_混剪3</linkclipref>
						<mediatype>audio</mediatype>
						<trackindex>2</trackindex>
						<clipindex>25</clipindex>
					</link>
					<link>
						<linkclipref>010_05_04_A_OK_混剪4</linkclipref>
						<mediatype>audio</mediatype>
						<trackindex>3</trackindex>
						<clipindex>23</clipindex>
					</link>
					<link>
						<linkclipref>010_05_04_A_OK_混剪5</linkclipref>
						<mediatype>audio</mediatype>
						<trackindex>4</trackindex>
						<clipindex>13</clipindex>
					</link>
					<itemhistory>
						<uuid>4B6B37EA-A0B6-42A1-BD08-8239C27B9724</uuid>
					</itemhistory>
				</clipitem>
				<clipitem id="010_05_04_B_OK_混剪3">
					<name>010_05_04_B_OK_混剪</name>
					<duration>1099</duration>
					<rate>
						<ntsc>FALSE</ntsc>
						<timebase>24</timebase>
					</rate>
					<in>109</in>
					<out>1099</out>
					<start>11926</start>
					<end>12916</end>
					<subframeoffset>0</subframeoffset>
					<enabled>TRUE</enabled>
					<masterclipid>010_05_04_B_OK_混剪1</masterclipid>
					<logginginfo>
						<scene/>
						<shottake/>
						<lognote/>
						<good>FALSE</good>
					</logginginfo>
					<labels>
						<label2/>
					</labels>
					<comments>
						<mastercomment1/>
						<mastercomment2/>
						<mastercomment3/>
						<mastercomment4/>
					</comments>
					<file id="B001C020_130101_R1WX"/>
					<filter>
						<effect>
							<name>Audio Levels</name>
							<effectid>audiolevels</effectid>
							<effectcategory>audiolevels</effectcategory>
							<effecttype>audiolevels</effecttype>
							<mediatype>audio</mediatype>
							<parameter>
								<name>Level</name>
								<parameterid>level</parameterid>
								<valuemin>0</valuemin>
								<valuemax>3.98109</valuemax>
								<value>1</value>
							</parameter>
						</effect>
					</filter>
					<filter>
						<effect>
							<name>Audio Pan</name>
							<effectid>audiopan</effectid>
							<effectcategory>audiopan</effectcategory>
							<effecttype>audiopan</effecttype>
							<mediatype>audio</mediatype>
							<parameter>
								<name>Pan</name>
								<parameterid>pan</parameterid>
								<valuemin>-1</valuemin>
								<valuemax>1</valuemax>
								<value>0</value>
							</parameter>
						</effect>
					</filter>
					<sourcetrack>
						<mediatype>audio</mediatype>
						<trackindex>2</trackindex>
					</sourcetrack>
					<link>
						<linkclipref>010_05_04_B_OK_混剪</linkclipref>
						<mediatype>video</mediatype>
						<trackindex>1</trackindex>
						<clipindex>26</clipindex>
					</link>
					<link>
						<linkclipref>010_05_04_B_OK_混剪2</linkclipref>
						<mediatype>audio</mediatype>
						<trackindex>1</trackindex>
						<clipindex>26</clipindex>
					</link>
					<link>
						<linkclipref>010_05_04_B_OK_混剪3</linkclipref>
						<mediatype>audio</mediatype>
						<trackindex>2</trackindex>
						<clipindex>26</clipindex>
					</link>
					<link>
						<linkclipref>010_05_04_B_OK_混剪4</linkclipref>
						<mediatype>audio</mediatype>
						<trackindex>3</trackindex>
						<clipindex>24</clipindex>
					</link>
					<link>
						<linkclipref>010_05_04_B_OK_混剪5</linkclipref>
						<mediatype>audio</mediatype>
						<trackindex>4</trackindex>
						<clipindex>14</clipindex>
					</link>
					<itemhistory>
						<uuid>54ED1F95-E6F6-488A-A812-570B61E22B85</uuid>
					</itemhistory>
				</clipitem>
				<clipitem id="010_05_05_A_OK_混剪3">
					<name>010_05_05_A_OK_混剪</name>
					<duration>2307</duration>
					<rate>
						<ntsc>FALSE</ntsc>
						<timebase>24</timebase>
					</rate>
					<in>154</in>
					<out>257</out>
					<start>12916</start>
					<end>13019</end>
					<subframeoffset>0</subframeoffset>
					<enabled>TRUE</enabled>
					<masterclipid>010_05_05_A_OK_混剪1</masterclipid>
					<logginginfo>
						<scene/>
						<shottake/>
						<lognote/>
						<good>FALSE</good>
					</logginginfo>
					<labels>
						<label2/>
					</labels>
					<comments>
						<mastercomment1/>
						<mastercomment2/>
						<mastercomment3/>
						<mastercomment4/>
					</comments>
					<file id="A001C030_221211_R03K"/>
					<filter>
						<effect>
							<name>Audio Levels</name>
							<effectid>audiolevels</effectid>
							<effectcategory>audiolevels</effectcategory>
							<effecttype>audiolevels</effecttype>
							<mediatype>audio</mediatype>
							<parameter>
								<name>Level</name>
								<parameterid>level</parameterid>
								<valuemin>0</valuemin>
								<valuemax>3.98109</valuemax>
								<value>1</value>
							</parameter>
						</effect>
					</filter>
					<filter>
						<effect>
							<name>Audio Pan</name>
							<effectid>audiopan</effectid>
							<effectcategory>audiopan</effectcategory>
							<effecttype>audiopan</effecttype>
							<mediatype>audio</mediatype>
							<parameter>
								<name>Pan</name>
								<parameterid>pan</parameterid>
								<valuemin>-1</valuemin>
								<valuemax>1</valuemax>
								<value>0</value>
							</parameter>
						</effect>
					</filter>
					<sourcetrack>
						<mediatype>audio</mediatype>
						<trackindex>2</trackindex>
					</sourcetrack>
					<link>
						<linkclipref>010_05_05_A_OK_混剪</linkclipref>
						<mediatype>video</mediatype>
						<trackindex>1</trackindex>
						<clipindex>27</clipindex>
					</link>
					<link>
						<linkclipref>010_05_05_A_OK_混剪2</linkclipref>
						<mediatype>audio</mediatype>
						<trackindex>1</trackindex>
						<clipindex>27</clipindex>
					</link>
					<link>
						<linkclipref>010_05_05_A_OK_混剪3</linkclipref>
						<mediatype>audio</mediatype>
						<trackindex>2</trackindex>
						<clipindex>27</clipindex>
					</link>
					<link>
						<linkclipref>010_05_05_A_OK_混剪4</linkclipref>
						<mediatype>audio</mediatype>
						<trackindex>3</trackindex>
						<clipindex>25</clipindex>
					</link>
					<link>
						<linkclipref>010_05_05_A_OK_混剪5</linkclipref>
						<mediatype>audio</mediatype>
						<trackindex>4</trackindex>
						<clipindex>15</clipindex>
					</link>
					<itemhistory>
						<uuid>7BDF46EF-0705-488F-912A-85CA86BC341A</uuid>
					</itemhistory>
				</clipitem>
				<clipitem id="010_05_05_B_OK_混剪3">
					<name>010_05_05_B_OK_混剪</name>
					<duration>2318</duration>
					<rate>
						<ntsc>FALSE</ntsc>
						<timebase>24</timebase>
					</rate>
					<in>0</in>
					<out>2318</out>
					<start>13019</start>
					<end>15337</end>
					<subframeoffset>0</subframeoffset>
					<enabled>TRUE</enabled>
					<masterclipid>010_05_05_B_OK_混剪1</masterclipid>
					<logginginfo>
						<scene/>
						<shottake/>
						<lognote/>
						<good>FALSE</good>
					</logginginfo>
					<labels>
						<label2/>
					</labels>
					<comments>
						<mastercomment1/>
						<mastercomment2/>
						<mastercomment3/>
						<mastercomment4/>
					</comments>
					<file id="B001C021_130101_R1WX"/>
					<filter>
						<effect>
							<name>Audio Levels</name>
							<effectid>audiolevels</effectid>
							<effectcategory>audiolevels</effectcategory>
							<effecttype>audiolevels</effecttype>
							<mediatype>audio</mediatype>
							<parameter>
								<name>Level</name>
								<parameterid>level</parameterid>
								<valuemin>0</valuemin>
								<valuemax>3.98109</valuemax>
								<value>1</value>
							</parameter>
						</effect>
					</filter>
					<filter>
						<effect>
							<name>Audio Pan</name>
							<effectid>audiopan</effectid>
							<effectcategory>audiopan</effectcategory>
							<effecttype>audiopan</effecttype>
							<mediatype>audio</mediatype>
							<parameter>
								<name>Pan</name>
								<parameterid>pan</parameterid>
								<valuemin>-1</valuemin>
								<valuemax>1</valuemax>
								<value>0</value>
							</parameter>
						</effect>
					</filter>
					<sourcetrack>
						<mediatype>audio</mediatype>
						<trackindex>2</trackindex>
					</sourcetrack>
					<link>
						<linkclipref>010_05_05_B_OK_混剪</linkclipref>
						<mediatype>video</mediatype>
						<trackindex>1</trackindex>
						<clipindex>28</clipindex>
					</link>
					<link>
						<linkclipref>010_05_05_B_OK_混剪2</linkclipref>
						<mediatype>audio</mediatype>
						<trackindex>1</trackindex>
						<clipindex>28</clipindex>
					</link>
					<link>
						<linkclipref>010_05_05_B_OK_混剪3</linkclipref>
						<mediatype>audio</mediatype>
						<trackindex>2</trackindex>
						<clipindex>28</clipindex>
					</link>
					<link>
						<linkclipref>010_05_05_B_OK_混剪4</linkclipref>
						<mediatype>audio</mediatype>
						<trackindex>3</trackindex>
						<clipindex>26</clipindex>
					</link>
					<link>
						<linkclipref>010_05_05_B_OK_混剪5</linkclipref>
						<mediatype>audio</mediatype>
						<trackindex>4</trackindex>
						<clipindex>16</clipindex>
					</link>
					<itemhistory>
						<uuid>43CC4992-2DCB-43DB-9111-FDDCD2B5223D</uuid>
					</itemhistory>
				</clipitem>
				<clipitem id="010_05_06_A_OK_混剪3">
					<name>010_05_06_A_OK_混剪</name>
					<duration>2146</duration>
					<rate>
						<ntsc>FALSE</ntsc>
						<timebase>24</timebase>
					</rate>
					<in>131</in>
					<out>189</out>
					<start>15337</start>
					<end>15395</end>
					<subframeoffset>0</subframeoffset>
					<enabled>TRUE</enabled>
					<masterclipid>010_05_06_A_OK_混剪1</masterclipid>
					<logginginfo>
						<scene/>
						<shottake/>
						<lognote/>
						<good>FALSE</good>
					</logginginfo>
					<labels>
						<label2/>
					</labels>
					<comments>
						<mastercomment1/>
						<mastercomment2/>
						<mastercomment3/>
						<mastercomment4/>
					</comments>
					<file id="A001C031_221211_R03K"/>
					<filter>
						<effect>
							<name>Audio Levels</name>
							<effectid>audiolevels</effectid>
							<effectcategory>audiolevels</effectcategory>
							<effecttype>audiolevels</effecttype>
							<mediatype>audio</mediatype>
							<parameter>
								<name>Level</name>
								<parameterid>level</parameterid>
								<valuemin>0</valuemin>
								<valuemax>3.98109</valuemax>
								<value>1</value>
							</parameter>
						</effect>
					</filter>
					<filter>
						<effect>
							<name>Audio Pan</name>
							<effectid>audiopan</effectid>
							<effectcategory>audiopan</effectcategory>
							<effecttype>audiopan</effecttype>
							<mediatype>audio</mediatype>
							<parameter>
								<name>Pan</name>
								<parameterid>pan</parameterid>
								<valuemin>-1</valuemin>
								<valuemax>1</valuemax>
								<value>0</value>
							</parameter>
						</effect>
					</filter>
					<sourcetrack>
						<mediatype>audio</mediatype>
						<trackindex>2</trackindex>
					</sourcetrack>
					<link>
						<linkclipref>010_05_06_A_OK_混剪</linkclipref>
						<mediatype>video</mediatype>
						<trackindex>1</trackindex>
						<clipindex>29</clipindex>
					</link>
					<link>
						<linkclipref>010_05_06_A_OK_混剪2</linkclipref>
						<mediatype>audio</mediatype>
						<trackindex>1</trackindex>
						<clipindex>29</clipindex>
					</link>
					<link>
						<linkclipref>010_05_06_A_OK_混剪3</linkclipref>
						<mediatype>audio</mediatype>
						<trackindex>2</trackindex>
						<clipindex>29</clipindex>
					</link>
					<link>
						<linkclipref>010_05_06_A_OK_混剪4</linkclipref>
						<mediatype>audio</mediatype>
						<trackindex>3</trackindex>
						<clipindex>27</clipindex>
					</link>
					<link>
						<linkclipref>010_05_06_A_OK_混剪5</linkclipref>
						<mediatype>audio</mediatype>
						<trackindex>4</trackindex>
						<clipindex>17</clipindex>
					</link>
					<itemhistory>
						<uuid>A69AFA9C-0279-40F3-B302-0CE2BBB1FC59</uuid>
					</itemhistory>
				</clipitem>
				<clipitem id="010_05_06_B_OK_混剪3">
					<name>010_05_06_B_OK_混剪</name>
					<duration>2154</duration>
					<rate>
						<ntsc>FALSE</ntsc>
						<timebase>24</timebase>
					</rate>
					<in>384</in>
					<out>473</out>
					<start>15395</start>
					<end>15484</end>
					<subframeoffset>0</subframeoffset>
					<enabled>TRUE</enabled>
					<masterclipid>010_05_06_B_OK_混剪1</masterclipid>
					<logginginfo>
						<scene/>
						<shottake/>
						<lognote/>
						<good>FALSE</good>
					</logginginfo>
					<labels>
						<label2/>
					</labels>
					<comments>
						<mastercomment1/>
						<mastercomment2/>
						<mastercomment3/>
						<mastercomment4/>
					</comments>
					<file id="B001C022_130101_R1WX"/>
					<filter>
						<effect>
							<name>Audio Levels</name>
							<effectid>audiolevels</effectid>
							<effectcategory>audiolevels</effectcategory>
							<effecttype>audiolevels</effecttype>
							<mediatype>audio</mediatype>
							<parameter>
								<name>Level</name>
								<parameterid>level</parameterid>
								<valuemin>0</valuemin>
								<valuemax>3.98109</valuemax>
								<value>1</value>
							</parameter>
						</effect>
					</filter>
					<filter>
						<effect>
							<name>Audio Pan</name>
							<effectid>audiopan</effectid>
							<effectcategory>audiopan</effectcategory>
							<effecttype>audiopan</effecttype>
							<mediatype>audio</mediatype>
							<parameter>
								<name>Pan</name>
								<parameterid>pan</parameterid>
								<valuemin>-1</valuemin>
								<valuemax>1</valuemax>
								<value>0</value>
							</parameter>
						</effect>
					</filter>
					<sourcetrack>
						<mediatype>audio</mediatype>
						<trackindex>2</trackindex>
					</sourcetrack>
					<link>
						<linkclipref>010_05_06_B_OK_混剪</linkclipref>
						<mediatype>video</mediatype>
						<trackindex>1</trackindex>
						<clipindex>30</clipindex>
					</link>
					<link>
						<linkclipref>010_05_06_B_OK_混剪2</linkclipref>
						<mediatype>audio</mediatype>
						<trackindex>1</trackindex>
						<clipindex>30</clipindex>
					</link>
					<link>
						<linkclipref>010_05_06_B_OK_混剪3</linkclipref>
						<mediatype>audio</mediatype>
						<trackindex>2</trackindex>
						<clipindex>30</clipindex>
					</link>
					<link>
						<linkclipref>010_05_06_B_OK_混剪4</linkclipref>
						<mediatype>audio</mediatype>
						<trackindex>3</trackindex>
						<clipindex>28</clipindex>
					</link>
					<link>
						<linkclipref>010_05_06_B_OK_混剪5</linkclipref>
						<mediatype>audio</mediatype>
						<trackindex>4</trackindex>
						<clipindex>18</clipindex>
					</link>
					<itemhistory>
						<uuid>0C30596D-35D4-408C-8BEB-2427F659BE94</uuid>
					</itemhistory>
				</clipitem>
				<clipitem id="010_06_01_A3">
					<name>010_06_01_A</name>
					<duration>2114</duration>
					<rate>
						<ntsc>FALSE</ntsc>
						<timebase>24</timebase>
					</rate>
					<in>0</in>
					<out>2114</out>
					<start>15484</start>
					<end>17598</end>
					<subframeoffset>0</subframeoffset>
					<enabled>TRUE</enabled>
					<masterclipid>010_06_01_A1</masterclipid>
					<logginginfo>
						<scene/>
						<shottake/>
						<lognote/>
						<good>FALSE</good>
					</logginginfo>
					<labels>
						<label2/>
					</labels>
					<comments>
						<mastercomment1/>
						<mastercomment2/>
						<mastercomment3/>
						<mastercomment4/>
					</comments>
					<file id="A002C001_221211_R03K"/>
					<filter>
						<effect>
							<name>Audio Levels</name>
							<effectid>audiolevels</effectid>
							<effectcategory>audiolevels</effectcategory>
							<effecttype>audiolevels</effecttype>
							<mediatype>audio</mediatype>
							<parameter>
								<name>Level</name>
								<parameterid>level</parameterid>
								<valuemin>0</valuemin>
								<valuemax>3.98109</valuemax>
								<value>1</value>
							</parameter>
						</effect>
					</filter>
					<filter>
						<effect>
							<name>Audio Pan</name>
							<effectid>audiopan</effectid>
							<effectcategory>audiopan</effectcategory>
							<effecttype>audiopan</effecttype>
							<mediatype>audio</mediatype>
							<parameter>
								<name>Pan</name>
								<parameterid>pan</parameterid>
								<valuemin>-1</valuemin>
								<valuemax>1</valuemax>
								<value>0</value>
							</parameter>
						</effect>
					</filter>
					<sourcetrack>
						<mediatype>audio</mediatype>
						<trackindex>2</trackindex>
					</sourcetrack>
					<link>
						<linkclipref>010_06_01_A</linkclipref>
						<mediatype>video</mediatype>
						<trackindex>1</trackindex>
						<clipindex>31</clipindex>
					</link>
					<link>
						<linkclipref>010_06_01_A2</linkclipref>
						<mediatype>audio</mediatype>
						<trackindex>1</trackindex>
						<clipindex>31</clipindex>
					</link>
					<link>
						<linkclipref>010_06_01_A3</linkclipref>
						<mediatype>audio</mediatype>
						<trackindex>2</trackindex>
						<clipindex>31</clipindex>
					</link>
					<link>
						<linkclipref>010_06_01_A4</linkclipref>
						<mediatype>audio</mediatype>
						<trackindex>3</trackindex>
						<clipindex>29</clipindex>
					</link>
					<link>
						<linkclipref>010_06_01_A5</linkclipref>
						<mediatype>audio</mediatype>
						<trackindex>4</trackindex>
						<clipindex>19</clipindex>
					</link>
					<link>
						<linkclipref>010_06_01_A6</linkclipref>
						<mediatype>audio</mediatype>
						<trackindex>5</trackindex>
						<clipindex>1</clipindex>
					</link>
					<itemhistory>
						<uuid>4EE7F39E-8574-4DDF-84F5-16C238C702E1</uuid>
					</itemhistory>
				</clipitem>
				<clipitem id="010_06_01_B3">
					<name>010_06_01_B</name>
					<duration>2106</duration>
					<rate>
						<ntsc>FALSE</ntsc>
						<timebase>24</timebase>
					</rate>
					<in>0</in>
					<out>2106</out>
					<start>17598</start>
					<end>19704</end>
					<subframeoffset>0</subframeoffset>
					<enabled>TRUE</enabled>
					<masterclipid>010_06_01_B1</masterclipid>
					<logginginfo>
						<scene/>
						<shottake/>
						<lognote/>
						<good>FALSE</good>
					</logginginfo>
					<labels>
						<label2/>
					</labels>
					<comments>
						<mastercomment1/>
						<mastercomment2/>
						<mastercomment3/>
						<mastercomment4/>
					</comments>
					<file id="B002C001_130101_R1WX"/>
					<filter>
						<effect>
							<name>Audio Levels</name>
							<effectid>audiolevels</effectid>
							<effectcategory>audiolevels</effectcategory>
							<effecttype>audiolevels</effecttype>
							<mediatype>audio</mediatype>
							<parameter>
								<name>Level</name>
								<parameterid>level</parameterid>
								<valuemin>0</valuemin>
								<valuemax>3.98109</valuemax>
								<value>1</value>
							</parameter>
						</effect>
					</filter>
					<filter>
						<effect>
							<name>Audio Pan</name>
							<effectid>audiopan</effectid>
							<effectcategory>audiopan</effectcategory>
							<effecttype>audiopan</effecttype>
							<mediatype>audio</mediatype>
							<parameter>
								<name>Pan</name>
								<parameterid>pan</parameterid>
								<valuemin>-1</valuemin>
								<valuemax>1</valuemax>
								<value>0</value>
							</parameter>
						</effect>
					</filter>
					<sourcetrack>
						<mediatype>audio</mediatype>
						<trackindex>2</trackindex>
					</sourcetrack>
					<link>
						<linkclipref>010_06_01_B</linkclipref>
						<mediatype>video</mediatype>
						<trackindex>1</trackindex>
						<clipindex>32</clipindex>
					</link>
					<link>
						<linkclipref>010_06_01_B2</linkclipref>
						<mediatype>audio</mediatype>
						<trackindex>1</trackindex>
						<clipindex>32</clipindex>
					</link>
					<link>
						<linkclipref>010_06_01_B3</linkclipref>
						<mediatype>audio</mediatype>
						<trackindex>2</trackindex>
						<clipindex>32</clipindex>
					</link>
					<link>
						<linkclipref>010_06_01_B4</linkclipref>
						<mediatype>audio</mediatype>
						<trackindex>3</trackindex>
						<clipindex>30</clipindex>
					</link>
					<link>
						<linkclipref>010_06_01_B5</linkclipref>
						<mediatype>audio</mediatype>
						<trackindex>4</trackindex>
						<clipindex>20</clipindex>
					</link>
					<link>
						<linkclipref>010_06_01_B6</linkclipref>
						<mediatype>audio</mediatype>
						<trackindex>5</trackindex>
						<clipindex>2</clipindex>
					</link>
					<itemhistory>
						<uuid>3F2A7742-540E-4B52-866A-09E96F72FE3F</uuid>
					</itemhistory>
				</clipitem>
				<clipitem id="010_06_02_A3">
					<name>010_06_02_A</name>
					<duration>649</duration>
					<rate>
						<ntsc>FALSE</ntsc>
						<timebase>24</timebase>
					</rate>
					<in>0</in>
					<out>649</out>
					<start>19704</start>
					<end>20353</end>
					<subframeoffset>0</subframeoffset>
					<enabled>TRUE</enabled>
					<masterclipid>010_06_02_A1</masterclipid>
					<logginginfo>
						<scene/>
						<shottake/>
						<lognote/>
						<good>FALSE</good>
					</logginginfo>
					<labels>
						<label2/>
					</labels>
					<comments>
						<mastercomment1/>
						<mastercomment2/>
						<mastercomment3/>
						<mastercomment4/>
					</comments>
					<file id="A002C002_221211_R03K"/>
					<filter>
						<effect>
							<name>Audio Levels</name>
							<effectid>audiolevels</effectid>
							<effectcategory>audiolevels</effectcategory>
							<effecttype>audiolevels</effecttype>
							<mediatype>audio</mediatype>
							<parameter>
								<name>Level</name>
								<parameterid>level</parameterid>
								<valuemin>0</valuemin>
								<valuemax>3.98109</valuemax>
								<value>1</value>
							</parameter>
						</effect>
					</filter>
					<filter>
						<effect>
							<name>Audio Pan</name>
							<effectid>audiopan</effectid>
							<effectcategory>audiopan</effectcategory>
							<effecttype>audiopan</effecttype>
							<mediatype>audio</mediatype>
							<parameter>
								<name>Pan</name>
								<parameterid>pan</parameterid>
								<valuemin>-1</valuemin>
								<valuemax>1</valuemax>
								<value>0</value>
							</parameter>
						</effect>
					</filter>
					<sourcetrack>
						<mediatype>audio</mediatype>
						<trackindex>2</trackindex>
					</sourcetrack>
					<link>
						<linkclipref>010_06_02_A</linkclipref>
						<mediatype>video</mediatype>
						<trackindex>1</trackindex>
						<clipindex>33</clipindex>
					</link>
					<link>
						<linkclipref>010_06_02_A2</linkclipref>
						<mediatype>audio</mediatype>
						<trackindex>1</trackindex>
						<clipindex>33</clipindex>
					</link>
					<link>
						<linkclipref>010_06_02_A3</linkclipref>
						<mediatype>audio</mediatype>
						<trackindex>2</trackindex>
						<clipindex>33</clipindex>
					</link>
					<link>
						<linkclipref>010_06_02_A4</linkclipref>
						<mediatype>audio</mediatype>
						<trackindex>3</trackindex>
						<clipindex>31</clipindex>
					</link>
					<link>
						<linkclipref>010_06_02_A5</linkclipref>
						<mediatype>audio</mediatype>
						<trackindex>4</trackindex>
						<clipindex>21</clipindex>
					</link>
					<link>
						<linkclipref>010_06_02_A6</linkclipref>
						<mediatype>audio</mediatype>
						<trackindex>5</trackindex>
						<clipindex>3</clipindex>
					</link>
					<itemhistory>
						<uuid>0FE99CAE-1AEB-4A12-ACAB-14930B96BB3D</uuid>
					</itemhistory>
				</clipitem>
				<clipitem id="010_06_02_B3">
					<name>010_06_02_B</name>
					<duration>668</duration>
					<rate>
						<ntsc>FALSE</ntsc>
						<timebase>24</timebase>
					</rate>
					<in>0</in>
					<out>668</out>
					<start>20353</start>
					<end>21021</end>
					<subframeoffset>0</subframeoffset>
					<enabled>TRUE</enabled>
					<masterclipid>010_06_02_B1</masterclipid>
					<logginginfo>
						<scene/>
						<shottake/>
						<lognote/>
						<good>FALSE</good>
					</logginginfo>
					<labels>
						<label2/>
					</labels>
					<comments>
						<mastercomment1/>
						<mastercomment2/>
						<mastercomment3/>
						<mastercomment4/>
					</comments>
					<file id="B002C002_130101_R1WX"/>
					<filter>
						<effect>
							<name>Audio Levels</name>
							<effectid>audiolevels</effectid>
							<effectcategory>audiolevels</effectcategory>
							<effecttype>audiolevels</effecttype>
							<mediatype>audio</mediatype>
							<parameter>
								<name>Level</name>
								<parameterid>level</parameterid>
								<valuemin>0</valuemin>
								<valuemax>3.98109</valuemax>
								<value>1</value>
							</parameter>
						</effect>
					</filter>
					<filter>
						<effect>
							<name>Audio Pan</name>
							<effectid>audiopan</effectid>
							<effectcategory>audiopan</effectcategory>
							<effecttype>audiopan</effecttype>
							<mediatype>audio</mediatype>
							<parameter>
								<name>Pan</name>
								<parameterid>pan</parameterid>
								<valuemin>-1</valuemin>
								<valuemax>1</valuemax>
								<value>0</value>
							</parameter>
						</effect>
					</filter>
					<sourcetrack>
						<mediatype>audio</mediatype>
						<trackindex>2</trackindex>
					</sourcetrack>
					<link>
						<linkclipref>010_06_02_B</linkclipref>
						<mediatype>video</mediatype>
						<trackindex>1</trackindex>
						<clipindex>34</clipindex>
					</link>
					<link>
						<linkclipref>010_06_02_B2</linkclipref>
						<mediatype>audio</mediatype>
						<trackindex>1</trackindex>
						<clipindex>34</clipindex>
					</link>
					<link>
						<linkclipref>010_06_02_B3</linkclipref>
						<mediatype>audio</mediatype>
						<trackindex>2</trackindex>
						<clipindex>34</clipindex>
					</link>
					<link>
						<linkclipref>010_06_02_B4</linkclipref>
						<mediatype>audio</mediatype>
						<trackindex>3</trackindex>
						<clipindex>32</clipindex>
					</link>
					<link>
						<linkclipref>010_06_02_B5</linkclipref>
						<mediatype>audio</mediatype>
						<trackindex>4</trackindex>
						<clipindex>22</clipindex>
					</link>
					<link>
						<linkclipref>010_06_02_B6</linkclipref>
						<mediatype>audio</mediatype>
						<trackindex>5</trackindex>
						<clipindex>4</clipindex>
					</link>
					<itemhistory>
						<uuid>CD1E1C1B-D9D3-4DB3-A550-37509AD89AC9</uuid>
					</itemhistory>
				</clipitem>
				<clipitem id="010_06_03_A_后面OK3">
					<name>010_06_03_A_后面OK</name>
					<duration>2177</duration>
					<rate>
						<ntsc>FALSE</ntsc>
						<timebase>24</timebase>
					</rate>
					<in>0</in>
					<out>2177</out>
					<start>21021</start>
					<end>23198</end>
					<subframeoffset>0</subframeoffset>
					<enabled>TRUE</enabled>
					<masterclipid>010_06_03_A_后面OK1</masterclipid>
					<logginginfo>
						<scene/>
						<shottake/>
						<lognote/>
						<good>FALSE</good>
					</logginginfo>
					<labels>
						<label2/>
					</labels>
					<comments>
						<mastercomment1/>
						<mastercomment2/>
						<mastercomment3/>
						<mastercomment4/>
					</comments>
					<file id="A002C003_221211_R03K"/>
					<filter>
						<effect>
							<name>Audio Levels</name>
							<effectid>audiolevels</effectid>
							<effectcategory>audiolevels</effectcategory>
							<effecttype>audiolevels</effecttype>
							<mediatype>audio</mediatype>
							<parameter>
								<name>Level</name>
								<parameterid>level</parameterid>
								<valuemin>0</valuemin>
								<valuemax>3.98109</valuemax>
								<value>1</value>
							</parameter>
						</effect>
					</filter>
					<filter>
						<effect>
							<name>Audio Pan</name>
							<effectid>audiopan</effectid>
							<effectcategory>audiopan</effectcategory>
							<effecttype>audiopan</effecttype>
							<mediatype>audio</mediatype>
							<parameter>
								<name>Pan</name>
								<parameterid>pan</parameterid>
								<valuemin>-1</valuemin>
								<valuemax>1</valuemax>
								<value>0</value>
							</parameter>
						</effect>
					</filter>
					<sourcetrack>
						<mediatype>audio</mediatype>
						<trackindex>2</trackindex>
					</sourcetrack>
					<link>
						<linkclipref>010_06_03_A_后面OK</linkclipref>
						<mediatype>video</mediatype>
						<trackindex>1</trackindex>
						<clipindex>35</clipindex>
					</link>
					<link>
						<linkclipref>010_06_03_A_后面OK2</linkclipref>
						<mediatype>audio</mediatype>
						<trackindex>1</trackindex>
						<clipindex>35</clipindex>
					</link>
					<link>
						<linkclipref>010_06_03_A_后面OK3</linkclipref>
						<mediatype>audio</mediatype>
						<trackindex>2</trackindex>
						<clipindex>35</clipindex>
					</link>
					<link>
						<linkclipref>010_06_03_A_后面OK4</linkclipref>
						<mediatype>audio</mediatype>
						<trackindex>3</trackindex>
						<clipindex>33</clipindex>
					</link>
					<link>
						<linkclipref>010_06_03_A_后面OK5</linkclipref>
						<mediatype>audio</mediatype>
						<trackindex>4</trackindex>
						<clipindex>23</clipindex>
					</link>
					<link>
						<linkclipref>010_06_03_A_后面OK6</linkclipref>
						<mediatype>audio</mediatype>
						<trackindex>5</trackindex>
						<clipindex>5</clipindex>
					</link>
					<itemhistory>
						<uuid>B8B57725-9F39-4B0A-BAA2-F910614D22A0</uuid>
					</itemhistory>
				</clipitem>
				<clipitem id="010_06_03_B_后面OK3">
					<name>010_06_03_B_后面OK</name>
					<duration>2160</duration>
					<rate>
						<ntsc>FALSE</ntsc>
						<timebase>24</timebase>
					</rate>
					<in>425</in>
					<out>495</out>
					<start>23198</start>
					<end>23268</end>
					<subframeoffset>0</subframeoffset>
					<enabled>TRUE</enabled>
					<masterclipid>010_06_03_B_后面OK1</masterclipid>
					<logginginfo>
						<scene/>
						<shottake/>
						<lognote/>
						<good>FALSE</good>
					</logginginfo>
					<labels>
						<label2/>
					</labels>
					<comments>
						<mastercomment1/>
						<mastercomment2/>
						<mastercomment3/>
						<mastercomment4/>
					</comments>
					<file id="B002C003_130101_R1WX"/>
					<filter>
						<effect>
							<name>Audio Levels</name>
							<effectid>audiolevels</effectid>
							<effectcategory>audiolevels</effectcategory>
							<effecttype>audiolevels</effecttype>
							<mediatype>audio</mediatype>
							<parameter>
								<name>Level</name>
								<parameterid>level</parameterid>
								<valuemin>0</valuemin>
								<valuemax>3.98109</valuemax>
								<value>1</value>
							</parameter>
						</effect>
					</filter>
					<filter>
						<effect>
							<name>Audio Pan</name>
							<effectid>audiopan</effectid>
							<effectcategory>audiopan</effectcategory>
							<effecttype>audiopan</effecttype>
							<mediatype>audio</mediatype>
							<parameter>
								<name>Pan</name>
								<parameterid>pan</parameterid>
								<valuemin>-1</valuemin>
								<valuemax>1</valuemax>
								<value>0</value>
							</parameter>
						</effect>
					</filter>
					<sourcetrack>
						<mediatype>audio</mediatype>
						<trackindex>2</trackindex>
					</sourcetrack>
					<link>
						<linkclipref>010_06_03_B_后面OK</linkclipref>
						<mediatype>video</mediatype>
						<trackindex>1</trackindex>
						<clipindex>36</clipindex>
					</link>
					<link>
						<linkclipref>010_06_03_B_后面OK2</linkclipref>
						<mediatype>audio</mediatype>
						<trackindex>1</trackindex>
						<clipindex>36</clipindex>
					</link>
					<link>
						<linkclipref>010_06_03_B_后面OK3</linkclipref>
						<mediatype>audio</mediatype>
						<trackindex>2</trackindex>
						<clipindex>36</clipindex>
					</link>
					<link>
						<linkclipref>010_06_03_B_后面OK4</linkclipref>
						<mediatype>audio</mediatype>
						<trackindex>3</trackindex>
						<clipindex>34</clipindex>
					</link>
					<link>
						<linkclipref>010_06_03_B_后面OK5</linkclipref>
						<mediatype>audio</mediatype>
						<trackindex>4</trackindex>
						<clipindex>24</clipindex>
					</link>
					<link>
						<linkclipref>010_06_03_B_后面OK6</linkclipref>
						<mediatype>audio</mediatype>
						<trackindex>5</trackindex>
						<clipindex>6</clipindex>
					</link>
					<itemhistory>
						<uuid>027DE280-435B-4F8F-B4C2-E57342ECB559</uuid>
					</itemhistory>
				</clipitem>
				<clipitem id="010_06_04_A_前面OK3">
					<name>010_06_04_A_前面OK</name>
					<duration>877</duration>
					<rate>
						<ntsc>FALSE</ntsc>
						<timebase>24</timebase>
					</rate>
					<in>582</in>
					<out>777</out>
					<start>23268</start>
					<end>23463</end>
					<subframeoffset>0</subframeoffset>
					<enabled>TRUE</enabled>
					<masterclipid>010_06_04_A_前面OK1</masterclipid>
					<logginginfo>
						<scene/>
						<shottake/>
						<lognote/>
						<good>FALSE</good>
					</logginginfo>
					<labels>
						<label2/>
					</labels>
					<comments>
						<mastercomment1/>
						<mastercomment2/>
						<mastercomment3/>
						<mastercomment4/>
					</comments>
					<file id="A002C004_221211_R03K"/>
					<filter>
						<effect>
							<name>Audio Levels</name>
							<effectid>audiolevels</effectid>
							<effectcategory>audiolevels</effectcategory>
							<effecttype>audiolevels</effecttype>
							<mediatype>audio</mediatype>
							<parameter>
								<name>Level</name>
								<parameterid>level</parameterid>
								<valuemin>0</valuemin>
								<valuemax>3.98109</valuemax>
								<value>1</value>
							</parameter>
						</effect>
					</filter>
					<filter>
						<effect>
							<name>Audio Pan</name>
							<effectid>audiopan</effectid>
							<effectcategory>audiopan</effectcategory>
							<effecttype>audiopan</effecttype>
							<mediatype>audio</mediatype>
							<parameter>
								<name>Pan</name>
								<parameterid>pan</parameterid>
								<valuemin>-1</valuemin>
								<valuemax>1</valuemax>
								<value>0</value>
							</parameter>
						</effect>
					</filter>
					<sourcetrack>
						<mediatype>audio</mediatype>
						<trackindex>2</trackindex>
					</sourcetrack>
					<link>
						<linkclipref>010_06_04_A_前面OK</linkclipref>
						<mediatype>video</mediatype>
						<trackindex>1</trackindex>
						<clipindex>37</clipindex>
					</link>
					<link>
						<linkclipref>010_06_04_A_前面OK2</linkclipref>
						<mediatype>audio</mediatype>
						<trackindex>1</trackindex>
						<clipindex>37</clipindex>
					</link>
					<link>
						<linkclipref>010_06_04_A_前面OK3</linkclipref>
						<mediatype>audio</mediatype>
						<trackindex>2</trackindex>
						<clipindex>37</clipindex>
					</link>
					<link>
						<linkclipref>010_06_04_A_前面OK4</linkclipref>
						<mediatype>audio</mediatype>
						<trackindex>3</trackindex>
						<clipindex>35</clipindex>
					</link>
					<link>
						<linkclipref>010_06_04_A_前面OK5</linkclipref>
						<mediatype>audio</mediatype>
						<trackindex>4</trackindex>
						<clipindex>25</clipindex>
					</link>
					<link>
						<linkclipref>010_06_04_A_前面OK6</linkclipref>
						<mediatype>audio</mediatype>
						<trackindex>5</trackindex>
						<clipindex>7</clipindex>
					</link>
					<itemhistory>
						<uuid>EA52168D-F27F-4411-B752-98D447096F96</uuid>
					</itemhistory>
				</clipitem>
				<clipitem id="010_06_04_B_后面OK3">
					<name>010_06_04_B_后面OK</name>
					<duration>839</duration>
					<rate>
						<ntsc>FALSE</ntsc>
						<timebase>24</timebase>
					</rate>
					<in>399</in>
					<out>487</out>
					<start>23463</start>
					<end>23551</end>
					<subframeoffset>0</subframeoffset>
					<enabled>TRUE</enabled>
					<masterclipid>010_06_04_B_后面OK1</masterclipid>
					<logginginfo>
						<scene/>
						<shottake/>
						<lognote/>
						<good>FALSE</good>
					</logginginfo>
					<labels>
						<label2/>
					</labels>
					<comments>
						<mastercomment1/>
						<mastercomment2/>
						<mastercomment3/>
						<mastercomment4/>
					</comments>
					<file id="B002C004_130101_R1WX"/>
					<filter>
						<effect>
							<name>Audio Levels</name>
							<effectid>audiolevels</effectid>
							<effectcategory>audiolevels</effectcategory>
							<effecttype>audiolevels</effecttype>
							<mediatype>audio</mediatype>
							<parameter>
								<name>Level</name>
								<parameterid>level</parameterid>
								<valuemin>0</valuemin>
								<valuemax>3.98109</valuemax>
								<value>1</value>
							</parameter>
						</effect>
					</filter>
					<filter>
						<effect>
							<name>Audio Pan</name>
							<effectid>audiopan</effectid>
							<effectcategory>audiopan</effectcategory>
							<effecttype>audiopan</effecttype>
							<mediatype>audio</mediatype>
							<parameter>
								<name>Pan</name>
								<parameterid>pan</parameterid>
								<valuemin>-1</valuemin>
								<valuemax>1</valuemax>
								<value>0</value>
							</parameter>
						</effect>
					</filter>
					<sourcetrack>
						<mediatype>audio</mediatype>
						<trackindex>2</trackindex>
					</sourcetrack>
					<link>
						<linkclipref>010_06_04_B_后面OK</linkclipref>
						<mediatype>video</mediatype>
						<trackindex>1</trackindex>
						<clipindex>38</clipindex>
					</link>
					<link>
						<linkclipref>010_06_04_B_后面OK2</linkclipref>
						<mediatype>audio</mediatype>
						<trackindex>1</trackindex>
						<clipindex>38</clipindex>
					</link>
					<link>
						<linkclipref>010_06_04_B_后面OK3</linkclipref>
						<mediatype>audio</mediatype>
						<trackindex>2</trackindex>
						<clipindex>38</clipindex>
					</link>
					<link>
						<linkclipref>010_06_04_B_后面OK4</linkclipref>
						<mediatype>audio</mediatype>
						<trackindex>3</trackindex>
						<clipindex>36</clipindex>
					</link>
					<link>
						<linkclipref>010_06_04_B_后面OK5</linkclipref>
						<mediatype>audio</mediatype>
						<trackindex>4</trackindex>
						<clipindex>26</clipindex>
					</link>
					<link>
						<linkclipref>010_06_04_B_后面OK6</linkclipref>
						<mediatype>audio</mediatype>
						<trackindex>5</trackindex>
						<clipindex>8</clipindex>
					</link>
					<itemhistory>
						<uuid>FE3D0E2B-6F5B-4208-9396-DE49ED3F513D</uuid>
					</itemhistory>
				</clipitem>
				<clipitem id="010_07_01_A3">
					<name>010_07_01_A</name>
					<duration>1967</duration>
					<rate>
						<ntsc>FALSE</ntsc>
						<timebase>24</timebase>
					</rate>
					<in>0</in>
					<out>1967</out>
					<start>23551</start>
					<end>25518</end>
					<subframeoffset>0</subframeoffset>
					<enabled>TRUE</enabled>
					<masterclipid>010_07_01_A1</masterclipid>
					<logginginfo>
						<scene/>
						<shottake/>
						<lognote/>
						<good>FALSE</good>
					</logginginfo>
					<labels>
						<label2/>
					</labels>
					<comments>
						<mastercomment1/>
						<mastercomment2/>
						<mastercomment3/>
						<mastercomment4/>
					</comments>
					<file id="A002C005_221211_R03K"/>
					<filter>
						<effect>
							<name>Audio Levels</name>
							<effectid>audiolevels</effectid>
							<effectcategory>audiolevels</effectcategory>
							<effecttype>audiolevels</effecttype>
							<mediatype>audio</mediatype>
							<parameter>
								<name>Level</name>
								<parameterid>level</parameterid>
								<valuemin>0</valuemin>
								<valuemax>3.98109</valuemax>
								<value>1</value>
							</parameter>
						</effect>
					</filter>
					<filter>
						<effect>
							<name>Audio Pan</name>
							<effectid>audiopan</effectid>
							<effectcategory>audiopan</effectcategory>
							<effecttype>audiopan</effecttype>
							<mediatype>audio</mediatype>
							<parameter>
								<name>Pan</name>
								<parameterid>pan</parameterid>
								<valuemin>-1</valuemin>
								<valuemax>1</valuemax>
								<value>0</value>
							</parameter>
						</effect>
					</filter>
					<sourcetrack>
						<mediatype>audio</mediatype>
						<trackindex>2</trackindex>
					</sourcetrack>
					<link>
						<linkclipref>010_07_01_A</linkclipref>
						<mediatype>video</mediatype>
						<trackindex>1</trackindex>
						<clipindex>39</clipindex>
					</link>
					<link>
						<linkclipref>010_07_01_A2</linkclipref>
						<mediatype>audio</mediatype>
						<trackindex>1</trackindex>
						<clipindex>39</clipindex>
					</link>
					<link>
						<linkclipref>010_07_01_A3</linkclipref>
						<mediatype>audio</mediatype>
						<trackindex>2</trackindex>
						<clipindex>39</clipindex>
					</link>
					<link>
						<linkclipref>010_07_01_A4</linkclipref>
						<mediatype>audio</mediatype>
						<trackindex>3</trackindex>
						<clipindex>37</clipindex>
					</link>
					<itemhistory>
						<uuid>FF9DE4F6-4003-4E15-83C5-7804C4CD90A8</uuid>
					</itemhistory>
				</clipitem>
				<clipitem id="010_07_01_B_KP3">
					<name>010_07_01_B_KP</name>
					<duration>430</duration>
					<rate>
						<ntsc>FALSE</ntsc>
						<timebase>24</timebase>
					</rate>
					<in>204</in>
					<out>287</out>
					<start>25518</start>
					<end>25601</end>
					<subframeoffset>0</subframeoffset>
					<enabled>TRUE</enabled>
					<masterclipid>010_07_01_B_KP1</masterclipid>
					<logginginfo>
						<scene/>
						<shottake/>
						<lognote/>
						<good>FALSE</good>
					</logginginfo>
					<labels>
						<label2/>
					</labels>
					<comments>
						<mastercomment1/>
						<mastercomment2/>
						<mastercomment3/>
						<mastercomment4/>
					</comments>
					<file id="B002C005_130101_R1WX"/>
					<filter>
						<effect>
							<name>Audio Levels</name>
							<effectid>audiolevels</effectid>
							<effectcategory>audiolevels</effectcategory>
							<effecttype>audiolevels</effecttype>
							<mediatype>audio</mediatype>
							<parameter>
								<name>Level</name>
								<parameterid>level</parameterid>
								<valuemin>0</valuemin>
								<valuemax>3.98109</valuemax>
								<value>1</value>
							</parameter>
						</effect>
					</filter>
					<filter>
						<effect>
							<name>Audio Pan</name>
							<effectid>audiopan</effectid>
							<effectcategory>audiopan</effectcategory>
							<effecttype>audiopan</effecttype>
							<mediatype>audio</mediatype>
							<parameter>
								<name>Pan</name>
								<parameterid>pan</parameterid>
								<valuemin>-1</valuemin>
								<valuemax>1</valuemax>
								<value>0</value>
							</parameter>
						</effect>
					</filter>
					<sourcetrack>
						<mediatype>audio</mediatype>
						<trackindex>2</trackindex>
					</sourcetrack>
					<link>
						<linkclipref>010_07_01_B_KP</linkclipref>
						<mediatype>video</mediatype>
						<trackindex>1</trackindex>
						<clipindex>40</clipindex>
					</link>
					<link>
						<linkclipref>010_07_01_B_KP2</linkclipref>
						<mediatype>audio</mediatype>
						<trackindex>1</trackindex>
						<clipindex>40</clipindex>
					</link>
					<link>
						<linkclipref>010_07_01_B_KP3</linkclipref>
						<mediatype>audio</mediatype>
						<trackindex>2</trackindex>
						<clipindex>40</clipindex>
					</link>
					<link>
						<linkclipref>010_07_01_B_KP4</linkclipref>
						<mediatype>audio</mediatype>
						<trackindex>3</trackindex>
						<clipindex>38</clipindex>
					</link>
					<link>
						<linkclipref>010_07_01_B_KP5</linkclipref>
						<mediatype>audio</mediatype>
						<trackindex>4</trackindex>
						<clipindex>27</clipindex>
					</link>
					<itemhistory>
						<uuid>4EC2E92C-8A84-442A-B853-42E2B2477968</uuid>
					</itemhistory>
				</clipitem>
				<clipitem id="010_07_02_A3">
					<name>010_07_02_A</name>
					<duration>317</duration>
					<rate>
						<ntsc>FALSE</ntsc>
						<timebase>24</timebase>
					</rate>
					<in>0</in>
					<out>317</out>
					<start>25601</start>
					<end>25918</end>
					<subframeoffset>0</subframeoffset>
					<enabled>TRUE</enabled>
					<masterclipid>010_07_02_A1</masterclipid>
					<logginginfo>
						<scene/>
						<shottake/>
						<lognote/>
						<good>FALSE</good>
					</logginginfo>
					<labels>
						<label2/>
					</labels>
					<comments>
						<mastercomment1/>
						<mastercomment2/>
						<mastercomment3/>
						<mastercomment4/>
					</comments>
					<file id="A002C006_221211_R03K"/>
					<filter>
						<effect>
							<name>Audio Levels</name>
							<effectid>audiolevels</effectid>
							<effectcategory>audiolevels</effectcategory>
							<effecttype>audiolevels</effecttype>
							<mediatype>audio</mediatype>
							<parameter>
								<name>Level</name>
								<parameterid>level</parameterid>
								<valuemin>0</valuemin>
								<valuemax>3.98109</valuemax>
								<value>1</value>
							</parameter>
						</effect>
					</filter>
					<filter>
						<effect>
							<name>Audio Pan</name>
							<effectid>audiopan</effectid>
							<effectcategory>audiopan</effectcategory>
							<effecttype>audiopan</effecttype>
							<mediatype>audio</mediatype>
							<parameter>
								<name>Pan</name>
								<parameterid>pan</parameterid>
								<valuemin>-1</valuemin>
								<valuemax>1</valuemax>
								<value>0</value>
							</parameter>
						</effect>
					</filter>
					<sourcetrack>
						<mediatype>audio</mediatype>
						<trackindex>2</trackindex>
					</sourcetrack>
					<link>
						<linkclipref>010_07_02_A</linkclipref>
						<mediatype>video</mediatype>
						<trackindex>1</trackindex>
						<clipindex>41</clipindex>
					</link>
					<link>
						<linkclipref>010_07_02_A2</linkclipref>
						<mediatype>audio</mediatype>
						<trackindex>1</trackindex>
						<clipindex>41</clipindex>
					</link>
					<link>
						<linkclipref>010_07_02_A3</linkclipref>
						<mediatype>audio</mediatype>
						<trackindex>2</trackindex>
						<clipindex>41</clipindex>
					</link>
					<link>
						<linkclipref>010_07_02_A4</linkclipref>
						<mediatype>audio</mediatype>
						<trackindex>3</trackindex>
						<clipindex>39</clipindex>
					</link>
					<itemhistory>
						<uuid>5D9E2658-6934-4AC1-B082-73AC9AA84724</uuid>
					</itemhistory>
				</clipitem>
				<clipitem id="010_07_02_B_KP3">
					<name>010_07_02_B_KP</name>
					<duration>474</duration>
					<rate>
						<ntsc>FALSE</ntsc>
						<timebase>24</timebase>
					</rate>
					<in>270</in>
					<out>320</out>
					<start>25918</start>
					<end>25968</end>
					<subframeoffset>0</subframeoffset>
					<enabled>TRUE</enabled>
					<masterclipid>010_07_02_B_KP1</masterclipid>
					<logginginfo>
						<scene/>
						<shottake/>
						<lognote/>
						<good>FALSE</good>
					</logginginfo>
					<labels>
						<label2/>
					</labels>
					<comments>
						<mastercomment1/>
						<mastercomment2/>
						<mastercomment3/>
						<mastercomment4/>
					</comments>
					<file id="B002C006_130101_R1WX"/>
					<filter>
						<effect>
							<name>Audio Levels</name>
							<effectid>audiolevels</effectid>
							<effectcategory>audiolevels</effectcategory>
							<effecttype>audiolevels</effecttype>
							<mediatype>audio</mediatype>
							<parameter>
								<name>Level</name>
								<parameterid>level</parameterid>
								<valuemin>0</valuemin>
								<valuemax>3.98109</valuemax>
								<value>1</value>
							</parameter>
						</effect>
					</filter>
					<filter>
						<effect>
							<name>Audio Pan</name>
							<effectid>audiopan</effectid>
							<effectcategory>audiopan</effectcategory>
							<effecttype>audiopan</effecttype>
							<mediatype>audio</mediatype>
							<parameter>
								<name>Pan</name>
								<parameterid>pan</parameterid>
								<valuemin>-1</valuemin>
								<valuemax>1</valuemax>
								<value>0</value>
							</parameter>
						</effect>
					</filter>
					<sourcetrack>
						<mediatype>audio</mediatype>
						<trackindex>2</trackindex>
					</sourcetrack>
					<link>
						<linkclipref>010_07_02_B_KP</linkclipref>
						<mediatype>video</mediatype>
						<trackindex>1</trackindex>
						<clipindex>42</clipindex>
					</link>
					<link>
						<linkclipref>010_07_02_B_KP2</linkclipref>
						<mediatype>audio</mediatype>
						<trackindex>1</trackindex>
						<clipindex>42</clipindex>
					</link>
					<link>
						<linkclipref>010_07_02_B_KP3</linkclipref>
						<mediatype>audio</mediatype>
						<trackindex>2</trackindex>
						<clipindex>42</clipindex>
					</link>
					<link>
						<linkclipref>010_07_02_B_KP4</linkclipref>
						<mediatype>audio</mediatype>
						<trackindex>3</trackindex>
						<clipindex>40</clipindex>
					</link>
					<link>
						<linkclipref>010_07_02_B_KP5</linkclipref>
						<mediatype>audio</mediatype>
						<trackindex>4</trackindex>
						<clipindex>28</clipindex>
					</link>
					<itemhistory>
						<uuid>99404E3B-2D54-4E2E-9070-697B55070838</uuid>
					</itemhistory>
				</clipitem>
				<clipitem id="010_07_03_A3">
					<name>010_07_03_A</name>
					<duration>727</duration>
					<rate>
						<ntsc>FALSE</ntsc>
						<timebase>24</timebase>
					</rate>
					<in>0</in>
					<out>727</out>
					<start>25968</start>
					<end>26695</end>
					<subframeoffset>0</subframeoffset>
					<enabled>TRUE</enabled>
					<masterclipid>010_07_03_A1</masterclipid>
					<logginginfo>
						<scene/>
						<shottake/>
						<lognote/>
						<good>FALSE</good>
					</logginginfo>
					<labels>
						<label2/>
					</labels>
					<comments>
						<mastercomment1/>
						<mastercomment2/>
						<mastercomment3/>
						<mastercomment4/>
					</comments>
					<file id="A002C007_221211_R03K"/>
					<filter>
						<effect>
							<name>Audio Levels</name>
							<effectid>audiolevels</effectid>
							<effectcategory>audiolevels</effectcategory>
							<effecttype>audiolevels</effecttype>
							<mediatype>audio</mediatype>
							<parameter>
								<name>Level</name>
								<parameterid>level</parameterid>
								<valuemin>0</valuemin>
								<valuemax>3.98109</valuemax>
								<value>1</value>
							</parameter>
						</effect>
					</filter>
					<filter>
						<effect>
							<name>Audio Pan</name>
							<effectid>audiopan</effectid>
							<effectcategory>audiopan</effectcategory>
							<effecttype>audiopan</effecttype>
							<mediatype>audio</mediatype>
							<parameter>
								<name>Pan</name>
								<parameterid>pan</parameterid>
								<valuemin>-1</valuemin>
								<valuemax>1</valuemax>
								<value>0</value>
							</parameter>
						</effect>
					</filter>
					<sourcetrack>
						<mediatype>audio</mediatype>
						<trackindex>2</trackindex>
					</sourcetrack>
					<link>
						<linkclipref>010_07_03_A</linkclipref>
						<mediatype>video</mediatype>
						<trackindex>1</trackindex>
						<clipindex>43</clipindex>
					</link>
					<link>
						<linkclipref>010_07_03_A2</linkclipref>
						<mediatype>audio</mediatype>
						<trackindex>1</trackindex>
						<clipindex>43</clipindex>
					</link>
					<link>
						<linkclipref>010_07_03_A3</linkclipref>
						<mediatype>audio</mediatype>
						<trackindex>2</trackindex>
						<clipindex>43</clipindex>
					</link>
					<link>
						<linkclipref>010_07_03_A4</linkclipref>
						<mediatype>audio</mediatype>
						<trackindex>3</trackindex>
						<clipindex>41</clipindex>
					</link>
					<itemhistory>
						<uuid>21DE96AF-6312-48BA-BE0E-83C7AD39BC07</uuid>
					</itemhistory>
				</clipitem>
				<clipitem id="010_07_04_A3">
					<name>010_07_04_A</name>
					<duration>554</duration>
					<rate>
						<ntsc>FALSE</ntsc>
						<timebase>24</timebase>
					</rate>
					<in>0</in>
					<out>554</out>
					<start>26695</start>
					<end>27249</end>
					<subframeoffset>0</subframeoffset>
					<enabled>TRUE</enabled>
					<masterclipid>010_07_04_A1</masterclipid>
					<logginginfo>
						<scene/>
						<shottake/>
						<lognote/>
						<good>FALSE</good>
					</logginginfo>
					<labels>
						<label2/>
					</labels>
					<comments>
						<mastercomment1/>
						<mastercomment2/>
						<mastercomment3/>
						<mastercomment4/>
					</comments>
					<file id="A002C008_221211_R03K"/>
					<filter>
						<effect>
							<name>Audio Levels</name>
							<effectid>audiolevels</effectid>
							<effectcategory>audiolevels</effectcategory>
							<effecttype>audiolevels</effecttype>
							<mediatype>audio</mediatype>
							<parameter>
								<name>Level</name>
								<parameterid>level</parameterid>
								<valuemin>0</valuemin>
								<valuemax>3.98109</valuemax>
								<value>1</value>
							</parameter>
						</effect>
					</filter>
					<filter>
						<effect>
							<name>Audio Pan</name>
							<effectid>audiopan</effectid>
							<effectcategory>audiopan</effectcategory>
							<effecttype>audiopan</effecttype>
							<mediatype>audio</mediatype>
							<parameter>
								<name>Pan</name>
								<parameterid>pan</parameterid>
								<valuemin>-1</valuemin>
								<valuemax>1</valuemax>
								<value>0</value>
							</parameter>
						</effect>
					</filter>
					<sourcetrack>
						<mediatype>audio</mediatype>
						<trackindex>2</trackindex>
					</sourcetrack>
					<link>
						<linkclipref>010_07_04_A</linkclipref>
						<mediatype>video</mediatype>
						<trackindex>1</trackindex>
						<clipindex>44</clipindex>
					</link>
					<link>
						<linkclipref>010_07_04_A2</linkclipref>
						<mediatype>audio</mediatype>
						<trackindex>1</trackindex>
						<clipindex>44</clipindex>
					</link>
					<link>
						<linkclipref>010_07_04_A3</linkclipref>
						<mediatype>audio</mediatype>
						<trackindex>2</trackindex>
						<clipindex>44</clipindex>
					</link>
					<link>
						<linkclipref>010_07_04_A4</linkclipref>
						<mediatype>audio</mediatype>
						<trackindex>3</trackindex>
						<clipindex>42</clipindex>
					</link>
					<itemhistory>
						<uuid>8203F745-D70E-44A5-984C-4A3FEDCCF6B2</uuid>
					</itemhistory>
				</clipitem>
				<clipitem id="010_07_05_A3">
					<name>010_07_05_A</name>
					<duration>594</duration>
					<rate>
						<ntsc>FALSE</ntsc>
						<timebase>24</timebase>
					</rate>
					<in>0</in>
					<out>594</out>
					<start>27249</start>
					<end>27843</end>
					<subframeoffset>0</subframeoffset>
					<enabled>TRUE</enabled>
					<masterclipid>010_07_05_A1</masterclipid>
					<logginginfo>
						<scene/>
						<shottake/>
						<lognote/>
						<good>FALSE</good>
					</logginginfo>
					<labels>
						<label2/>
					</labels>
					<comments>
						<mastercomment1/>
						<mastercomment2/>
						<mastercomment3/>
						<mastercomment4/>
					</comments>
					<file id="A002C009_221211_R03K"/>
					<filter>
						<effect>
							<name>Audio Levels</name>
							<effectid>audiolevels</effectid>
							<effectcategory>audiolevels</effectcategory>
							<effecttype>audiolevels</effecttype>
							<mediatype>audio</mediatype>
							<parameter>
								<name>Level</name>
								<parameterid>level</parameterid>
								<valuemin>0</valuemin>
								<valuemax>3.98109</valuemax>
								<value>1</value>
							</parameter>
						</effect>
					</filter>
					<filter>
						<effect>
							<name>Audio Pan</name>
							<effectid>audiopan</effectid>
							<effectcategory>audiopan</effectcategory>
							<effecttype>audiopan</effecttype>
							<mediatype>audio</mediatype>
							<parameter>
								<name>Pan</name>
								<parameterid>pan</parameterid>
								<valuemin>-1</valuemin>
								<valuemax>1</valuemax>
								<value>0</value>
							</parameter>
						</effect>
					</filter>
					<sourcetrack>
						<mediatype>audio</mediatype>
						<trackindex>2</trackindex>
					</sourcetrack>
					<link>
						<linkclipref>010_07_05_A</linkclipref>
						<mediatype>video</mediatype>
						<trackindex>1</trackindex>
						<clipindex>45</clipindex>
					</link>
					<link>
						<linkclipref>010_07_05_A2</linkclipref>
						<mediatype>audio</mediatype>
						<trackindex>1</trackindex>
						<clipindex>45</clipindex>
					</link>
					<link>
						<linkclipref>010_07_05_A3</linkclipref>
						<mediatype>audio</mediatype>
						<trackindex>2</trackindex>
						<clipindex>45</clipindex>
					</link>
					<link>
						<linkclipref>010_07_05_A4</linkclipref>
						<mediatype>audio</mediatype>
						<trackindex>3</trackindex>
						<clipindex>43</clipindex>
					</link>
					<itemhistory>
						<uuid>13D076E6-BB87-466B-A058-11B368E8F26C</uuid>
					</itemhistory>
				</clipitem>
				<clipitem id="010_07_06_A3">
					<name>010_07_06_A</name>
					<duration>559</duration>
					<rate>
						<ntsc>FALSE</ntsc>
						<timebase>24</timebase>
					</rate>
					<in>0</in>
					<out>559</out>
					<start>27843</start>
					<end>28402</end>
					<subframeoffset>0</subframeoffset>
					<enabled>TRUE</enabled>
					<masterclipid>010_07_06_A1</masterclipid>
					<logginginfo>
						<scene/>
						<shottake/>
						<lognote/>
						<good>FALSE</good>
					</logginginfo>
					<labels>
						<label2/>
					</labels>
					<comments>
						<mastercomment1/>
						<mastercomment2/>
						<mastercomment3/>
						<mastercomment4/>
					</comments>
					<file id="A002C010_221211_R03K"/>
					<filter>
						<effect>
							<name>Audio Levels</name>
							<effectid>audiolevels</effectid>
							<effectcategory>audiolevels</effectcategory>
							<effecttype>audiolevels</effecttype>
							<mediatype>audio</mediatype>
							<parameter>
								<name>Level</name>
								<parameterid>level</parameterid>
								<valuemin>0</valuemin>
								<valuemax>3.98109</valuemax>
								<value>1</value>
							</parameter>
						</effect>
					</filter>
					<filter>
						<effect>
							<name>Audio Pan</name>
							<effectid>audiopan</effectid>
							<effectcategory>audiopan</effectcategory>
							<effecttype>audiopan</effecttype>
							<mediatype>audio</mediatype>
							<parameter>
								<name>Pan</name>
								<parameterid>pan</parameterid>
								<valuemin>-1</valuemin>
								<valuemax>1</valuemax>
								<value>0</value>
							</parameter>
						</effect>
					</filter>
					<sourcetrack>
						<mediatype>audio</mediatype>
						<trackindex>2</trackindex>
					</sourcetrack>
					<link>
						<linkclipref>010_07_06_A</linkclipref>
						<mediatype>video</mediatype>
						<trackindex>1</trackindex>
						<clipindex>46</clipindex>
					</link>
					<link>
						<linkclipref>010_07_06_A2</linkclipref>
						<mediatype>audio</mediatype>
						<trackindex>1</trackindex>
						<clipindex>46</clipindex>
					</link>
					<link>
						<linkclipref>010_07_06_A3</linkclipref>
						<mediatype>audio</mediatype>
						<trackindex>2</trackindex>
						<clipindex>46</clipindex>
					</link>
					<link>
						<linkclipref>010_07_06_A4</linkclipref>
						<mediatype>audio</mediatype>
						<trackindex>3</trackindex>
						<clipindex>44</clipindex>
					</link>
					<itemhistory>
						<uuid>7D1CB635-5731-48B7-A14A-55E2602EDF6D</uuid>
					</itemhistory>
				</clipitem>
				<clipitem id="010_07_07_A3">
					<name>010_07_07_A</name>
					<duration>309</duration>
					<rate>
						<ntsc>FALSE</ntsc>
						<timebase>24</timebase>
					</rate>
					<in>0</in>
					<out>309</out>
					<start>28402</start>
					<end>28711</end>
					<subframeoffset>0</subframeoffset>
					<enabled>TRUE</enabled>
					<masterclipid>010_07_07_A1</masterclipid>
					<logginginfo>
						<scene/>
						<shottake/>
						<lognote/>
						<good>FALSE</good>
					</logginginfo>
					<labels>
						<label2/>
					</labels>
					<comments>
						<mastercomment1/>
						<mastercomment2/>
						<mastercomment3/>
						<mastercomment4/>
					</comments>
					<file id="A002C011_221211_R03K"/>
					<filter>
						<effect>
							<name>Audio Levels</name>
							<effectid>audiolevels</effectid>
							<effectcategory>audiolevels</effectcategory>
							<effecttype>audiolevels</effecttype>
							<mediatype>audio</mediatype>
							<parameter>
								<name>Level</name>
								<parameterid>level</parameterid>
								<valuemin>0</valuemin>
								<valuemax>3.98109</valuemax>
								<value>1</value>
							</parameter>
						</effect>
					</filter>
					<filter>
						<effect>
							<name>Audio Pan</name>
							<effectid>audiopan</effectid>
							<effectcategory>audiopan</effectcategory>
							<effecttype>audiopan</effecttype>
							<mediatype>audio</mediatype>
							<parameter>
								<name>Pan</name>
								<parameterid>pan</parameterid>
								<valuemin>-1</valuemin>
								<valuemax>1</valuemax>
								<value>0</value>
							</parameter>
						</effect>
					</filter>
					<sourcetrack>
						<mediatype>audio</mediatype>
						<trackindex>2</trackindex>
					</sourcetrack>
					<link>
						<linkclipref>010_07_07_A</linkclipref>
						<mediatype>video</mediatype>
						<trackindex>1</trackindex>
						<clipindex>47</clipindex>
					</link>
					<link>
						<linkclipref>010_07_07_A2</linkclipref>
						<mediatype>audio</mediatype>
						<trackindex>1</trackindex>
						<clipindex>47</clipindex>
					</link>
					<link>
						<linkclipref>010_07_07_A3</linkclipref>
						<mediatype>audio</mediatype>
						<trackindex>2</trackindex>
						<clipindex>47</clipindex>
					</link>
					<link>
						<linkclipref>010_07_07_A4</linkclipref>
						<mediatype>audio</mediatype>
						<trackindex>3</trackindex>
						<clipindex>45</clipindex>
					</link>
					<itemhistory>
						<uuid>DB8B6F32-C36A-4FF1-BF3C-E385C273238D</uuid>
					</itemhistory>
				</clipitem>
				<clipitem id="010_07_08_A_OK3">
					<name>010_07_08_A_OK</name>
					<duration>678</duration>
					<rate>
						<ntsc>FALSE</ntsc>
						<timebase>24</timebase>
					</rate>
					<in>356</in>
					<out>456</out>
					<start>28711</start>
					<end>28811</end>
					<subframeoffset>0</subframeoffset>
					<enabled>TRUE</enabled>
					<masterclipid>010_07_08_A_OK1</masterclipid>
					<logginginfo>
						<scene/>
						<shottake/>
						<lognote/>
						<good>FALSE</good>
					</logginginfo>
					<labels>
						<label2/>
					</labels>
					<comments>
						<mastercomment1/>
						<mastercomment2/>
						<mastercomment3/>
						<mastercomment4/>
					</comments>
					<file id="A002C012_221211_R03K"/>
					<filter>
						<effect>
							<name>Audio Levels</name>
							<effectid>audiolevels</effectid>
							<effectcategory>audiolevels</effectcategory>
							<effecttype>audiolevels</effecttype>
							<mediatype>audio</mediatype>
							<parameter>
								<name>Level</name>
								<parameterid>level</parameterid>
								<valuemin>0</valuemin>
								<valuemax>3.98109</valuemax>
								<value>1</value>
							</parameter>
						</effect>
					</filter>
					<filter>
						<effect>
							<name>Audio Pan</name>
							<effectid>audiopan</effectid>
							<effectcategory>audiopan</effectcategory>
							<effecttype>audiopan</effecttype>
							<mediatype>audio</mediatype>
							<parameter>
								<name>Pan</name>
								<parameterid>pan</parameterid>
								<valuemin>-1</valuemin>
								<valuemax>1</valuemax>
								<value>0</value>
							</parameter>
						</effect>
					</filter>
					<sourcetrack>
						<mediatype>audio</mediatype>
						<trackindex>2</trackindex>
					</sourcetrack>
					<link>
						<linkclipref>010_07_08_A_OK</linkclipref>
						<mediatype>video</mediatype>
						<trackindex>1</trackindex>
						<clipindex>48</clipindex>
					</link>
					<link>
						<linkclipref>010_07_08_A_OK2</linkclipref>
						<mediatype>audio</mediatype>
						<trackindex>1</trackindex>
						<clipindex>48</clipindex>
					</link>
					<link>
						<linkclipref>010_07_08_A_OK3</linkclipref>
						<mediatype>audio</mediatype>
						<trackindex>2</trackindex>
						<clipindex>48</clipindex>
					</link>
					<link>
						<linkclipref>010_07_08_A_OK4</linkclipref>
						<mediatype>audio</mediatype>
						<trackindex>3</trackindex>
						<clipindex>46</clipindex>
					</link>
					<itemhistory>
						<uuid>71B6BD31-BE85-43BC-AEE3-C94782BD10AD</uuid>
					</itemhistory>
				</clipitem>
				<clipitem id="010_07_09_A3">
					<name>010_07_09_A</name>
					<duration>735</duration>
					<rate>
						<ntsc>FALSE</ntsc>
						<timebase>24</timebase>
					</rate>
					<in>0</in>
					<out>735</out>
					<start>28811</start>
					<end>29546</end>
					<subframeoffset>0</subframeoffset>
					<enabled>TRUE</enabled>
					<masterclipid>010_07_09_A1</masterclipid>
					<logginginfo>
						<scene/>
						<shottake/>
						<lognote/>
						<good>FALSE</good>
					</logginginfo>
					<labels>
						<label2/>
					</labels>
					<comments>
						<mastercomment1/>
						<mastercomment2/>
						<mastercomment3/>
						<mastercomment4/>
					</comments>
					<file id="A002C013_221211_R03K"/>
					<filter>
						<effect>
							<name>Audio Levels</name>
							<effectid>audiolevels</effectid>
							<effectcategory>audiolevels</effectcategory>
							<effecttype>audiolevels</effecttype>
							<mediatype>audio</mediatype>
							<parameter>
								<name>Level</name>
								<parameterid>level</parameterid>
								<valuemin>0</valuemin>
								<valuemax>3.98109</valuemax>
								<value>1</value>
							</parameter>
						</effect>
					</filter>
					<filter>
						<effect>
							<name>Audio Pan</name>
							<effectid>audiopan</effectid>
							<effectcategory>audiopan</effectcategory>
							<effecttype>audiopan</effecttype>
							<mediatype>audio</mediatype>
							<parameter>
								<name>Pan</name>
								<parameterid>pan</parameterid>
								<valuemin>-1</valuemin>
								<valuemax>1</valuemax>
								<value>0</value>
							</parameter>
						</effect>
					</filter>
					<sourcetrack>
						<mediatype>audio</mediatype>
						<trackindex>2</trackindex>
					</sourcetrack>
					<link>
						<linkclipref>010_07_09_A</linkclipref>
						<mediatype>video</mediatype>
						<trackindex>1</trackindex>
						<clipindex>49</clipindex>
					</link>
					<link>
						<linkclipref>010_07_09_A2</linkclipref>
						<mediatype>audio</mediatype>
						<trackindex>1</trackindex>
						<clipindex>49</clipindex>
					</link>
					<link>
						<linkclipref>010_07_09_A3</linkclipref>
						<mediatype>audio</mediatype>
						<trackindex>2</trackindex>
						<clipindex>49</clipindex>
					</link>
					<link>
						<linkclipref>010_07_09_A4</linkclipref>
						<mediatype>audio</mediatype>
						<trackindex>3</trackindex>
						<clipindex>47</clipindex>
					</link>
					<itemhistory>
						<uuid>E261ACA0-1AA0-4466-8F25-25861EB6F15B</uuid>
					</itemhistory>
				</clipitem>
				<clipitem id="010_07_10_A3">
					<name>010_07_10_A</name>
					<duration>686</duration>
					<rate>
						<ntsc>FALSE</ntsc>
						<timebase>24</timebase>
					</rate>
					<in>0</in>
					<out>686</out>
					<start>29546</start>
					<end>30232</end>
					<subframeoffset>0</subframeoffset>
					<enabled>TRUE</enabled>
					<masterclipid>010_07_10_A1</masterclipid>
					<logginginfo>
						<scene/>
						<shottake/>
						<lognote/>
						<good>FALSE</good>
					</logginginfo>
					<labels>
						<label2/>
					</labels>
					<comments>
						<mastercomment1/>
						<mastercomment2/>
						<mastercomment3/>
						<mastercomment4/>
					</comments>
					<file id="A002C014_221211_R03K"/>
					<filter>
						<effect>
							<name>Audio Levels</name>
							<effectid>audiolevels</effectid>
							<effectcategory>audiolevels</effectcategory>
							<effecttype>audiolevels</effecttype>
							<mediatype>audio</mediatype>
							<parameter>
								<name>Level</name>
								<parameterid>level</parameterid>
								<valuemin>0</valuemin>
								<valuemax>3.98109</valuemax>
								<value>1</value>
							</parameter>
						</effect>
					</filter>
					<filter>
						<effect>
							<name>Audio Pan</name>
							<effectid>audiopan</effectid>
							<effectcategory>audiopan</effectcategory>
							<effecttype>audiopan</effecttype>
							<mediatype>audio</mediatype>
							<parameter>
								<name>Pan</name>
								<parameterid>pan</parameterid>
								<valuemin>-1</valuemin>
								<valuemax>1</valuemax>
								<value>0</value>
							</parameter>
						</effect>
					</filter>
					<sourcetrack>
						<mediatype>audio</mediatype>
						<trackindex>2</trackindex>
					</sourcetrack>
					<link>
						<linkclipref>010_07_10_A</linkclipref>
						<mediatype>video</mediatype>
						<trackindex>1</trackindex>
						<clipindex>50</clipindex>
					</link>
					<link>
						<linkclipref>010_07_10_A2</linkclipref>
						<mediatype>audio</mediatype>
						<trackindex>1</trackindex>
						<clipindex>50</clipindex>
					</link>
					<link>
						<linkclipref>010_07_10_A3</linkclipref>
						<mediatype>audio</mediatype>
						<trackindex>2</trackindex>
						<clipindex>50</clipindex>
					</link>
					<link>
						<linkclipref>010_07_10_A4</linkclipref>
						<mediatype>audio</mediatype>
						<trackindex>3</trackindex>
						<clipindex>48</clipindex>
					</link>
					<itemhistory>
						<uuid>B2B8B9DA-5DAA-4945-BEC5-5B6330C2A899</uuid>
					</itemhistory>
				</clipitem>
				<clipitem id="010_07_11_A3">
					<name>010_07_11_A</name>
					<duration>434</duration>
					<rate>
						<ntsc>FALSE</ntsc>
						<timebase>24</timebase>
					</rate>
					<in>0</in>
					<out>434</out>
					<start>30232</start>
					<end>30666</end>
					<subframeoffset>0</subframeoffset>
					<enabled>TRUE</enabled>
					<masterclipid>010_07_11_A1</masterclipid>
					<logginginfo>
						<scene/>
						<shottake/>
						<lognote/>
						<good>FALSE</good>
					</logginginfo>
					<labels>
						<label2/>
					</labels>
					<comments>
						<mastercomment1/>
						<mastercomment2/>
						<mastercomment3/>
						<mastercomment4/>
					</comments>
					<file id="A002C015_221211_R03K"/>
					<filter>
						<effect>
							<name>Audio Levels</name>
							<effectid>audiolevels</effectid>
							<effectcategory>audiolevels</effectcategory>
							<effecttype>audiolevels</effecttype>
							<mediatype>audio</mediatype>
							<parameter>
								<name>Level</name>
								<parameterid>level</parameterid>
								<valuemin>0</valuemin>
								<valuemax>3.98109</valuemax>
								<value>1</value>
							</parameter>
						</effect>
					</filter>
					<filter>
						<effect>
							<name>Audio Pan</name>
							<effectid>audiopan</effectid>
							<effectcategory>audiopan</effectcategory>
							<effecttype>audiopan</effecttype>
							<mediatype>audio</mediatype>
							<parameter>
								<name>Pan</name>
								<parameterid>pan</parameterid>
								<valuemin>-1</valuemin>
								<valuemax>1</valuemax>
								<value>0</value>
							</parameter>
						</effect>
					</filter>
					<sourcetrack>
						<mediatype>audio</mediatype>
						<trackindex>2</trackindex>
					</sourcetrack>
					<link>
						<linkclipref>010_07_11_A</linkclipref>
						<mediatype>video</mediatype>
						<trackindex>1</trackindex>
						<clipindex>51</clipindex>
					</link>
					<link>
						<linkclipref>010_07_11_A2</linkclipref>
						<mediatype>audio</mediatype>
						<trackindex>1</trackindex>
						<clipindex>51</clipindex>
					</link>
					<link>
						<linkclipref>010_07_11_A3</linkclipref>
						<mediatype>audio</mediatype>
						<trackindex>2</trackindex>
						<clipindex>51</clipindex>
					</link>
					<link>
						<linkclipref>010_07_11_A4</linkclipref>
						<mediatype>audio</mediatype>
						<trackindex>3</trackindex>
						<clipindex>49</clipindex>
					</link>
					<itemhistory>
						<uuid>1519D28B-1105-4E79-AE9E-B221467BBAC8</uuid>
					</itemhistory>
				</clipitem>
				<clipitem id="010_07_12_A3">
					<name>010_07_12_A</name>
					<duration>416</duration>
					<rate>
						<ntsc>FALSE</ntsc>
						<timebase>24</timebase>
					</rate>
					<in>0</in>
					<out>416</out>
					<start>30666</start>
					<end>31082</end>
					<subframeoffset>0</subframeoffset>
					<enabled>TRUE</enabled>
					<masterclipid>010_07_12_A1</masterclipid>
					<logginginfo>
						<scene/>
						<shottake/>
						<lognote/>
						<good>FALSE</good>
					</logginginfo>
					<labels>
						<label2/>
					</labels>
					<comments>
						<mastercomment1/>
						<mastercomment2/>
						<mastercomment3/>
						<mastercomment4/>
					</comments>
					<file id="A002C016_221211_R03K"/>
					<filter>
						<effect>
							<name>Audio Levels</name>
							<effectid>audiolevels</effectid>
							<effectcategory>audiolevels</effectcategory>
							<effecttype>audiolevels</effecttype>
							<mediatype>audio</mediatype>
							<parameter>
								<name>Level</name>
								<parameterid>level</parameterid>
								<valuemin>0</valuemin>
								<valuemax>3.98109</valuemax>
								<value>1</value>
							</parameter>
						</effect>
					</filter>
					<filter>
						<effect>
							<name>Audio Pan</name>
							<effectid>audiopan</effectid>
							<effectcategory>audiopan</effectcategory>
							<effecttype>audiopan</effecttype>
							<mediatype>audio</mediatype>
							<parameter>
								<name>Pan</name>
								<parameterid>pan</parameterid>
								<valuemin>-1</valuemin>
								<valuemax>1</valuemax>
								<value>0</value>
							</parameter>
						</effect>
					</filter>
					<sourcetrack>
						<mediatype>audio</mediatype>
						<trackindex>2</trackindex>
					</sourcetrack>
					<link>
						<linkclipref>010_07_12_A</linkclipref>
						<mediatype>video</mediatype>
						<trackindex>1</trackindex>
						<clipindex>52</clipindex>
					</link>
					<link>
						<linkclipref>010_07_12_A2</linkclipref>
						<mediatype>audio</mediatype>
						<trackindex>1</trackindex>
						<clipindex>52</clipindex>
					</link>
					<link>
						<linkclipref>010_07_12_A3</linkclipref>
						<mediatype>audio</mediatype>
						<trackindex>2</trackindex>
						<clipindex>52</clipindex>
					</link>
					<link>
						<linkclipref>010_07_12_A4</linkclipref>
						<mediatype>audio</mediatype>
						<trackindex>3</trackindex>
						<clipindex>50</clipindex>
					</link>
					<itemhistory>
						<uuid>F8823BA7-1293-483D-BC92-E1520FF82443</uuid>
					</itemhistory>
				</clipitem>
				<clipitem id="010_07_13_A3">
					<name>010_07_13_A</name>
					<duration>394</duration>
					<rate>
						<ntsc>FALSE</ntsc>
						<timebase>24</timebase>
					</rate>
					<in>0</in>
					<out>394</out>
					<start>31082</start>
					<end>31476</end>
					<subframeoffset>0</subframeoffset>
					<enabled>TRUE</enabled>
					<masterclipid>010_07_13_A1</masterclipid>
					<logginginfo>
						<scene/>
						<shottake/>
						<lognote/>
						<good>FALSE</good>
					</logginginfo>
					<labels>
						<label2/>
					</labels>
					<comments>
						<mastercomment1/>
						<mastercomment2/>
						<mastercomment3/>
						<mastercomment4/>
					</comments>
					<file id="A002C017_221211_R03K"/>
					<filter>
						<effect>
							<name>Audio Levels</name>
							<effectid>audiolevels</effectid>
							<effectcategory>audiolevels</effectcategory>
							<effecttype>audiolevels</effecttype>
							<mediatype>audio</mediatype>
							<parameter>
								<name>Level</name>
								<parameterid>level</parameterid>
								<valuemin>0</valuemin>
								<valuemax>3.98109</valuemax>
								<value>1</value>
							</parameter>
						</effect>
					</filter>
					<filter>
						<effect>
							<name>Audio Pan</name>
							<effectid>audiopan</effectid>
							<effectcategory>audiopan</effectcategory>
							<effecttype>audiopan</effecttype>
							<mediatype>audio</mediatype>
							<parameter>
								<name>Pan</name>
								<parameterid>pan</parameterid>
								<valuemin>-1</valuemin>
								<valuemax>1</valuemax>
								<value>0</value>
							</parameter>
						</effect>
					</filter>
					<sourcetrack>
						<mediatype>audio</mediatype>
						<trackindex>2</trackindex>
					</sourcetrack>
					<link>
						<linkclipref>010_07_13_A</linkclipref>
						<mediatype>video</mediatype>
						<trackindex>1</trackindex>
						<clipindex>53</clipindex>
					</link>
					<link>
						<linkclipref>010_07_13_A2</linkclipref>
						<mediatype>audio</mediatype>
						<trackindex>1</trackindex>
						<clipindex>53</clipindex>
					</link>
					<link>
						<linkclipref>010_07_13_A3</linkclipref>
						<mediatype>audio</mediatype>
						<trackindex>2</trackindex>
						<clipindex>53</clipindex>
					</link>
					<link>
						<linkclipref>010_07_13_A4</linkclipref>
						<mediatype>audio</mediatype>
						<trackindex>3</trackindex>
						<clipindex>51</clipindex>
					</link>
					<itemhistory>
						<uuid>11AC7665-6EBD-45FC-8F79-CF66AAA6DAE7</uuid>
					</itemhistory>
				</clipitem>
				<clipitem id="010_07_14_A_OK3">
					<name>010_07_14_A_OK</name>
					<duration>635</duration>
					<rate>
						<ntsc>FALSE</ntsc>
						<timebase>24</timebase>
					</rate>
					<in>167</in>
					<out>270</out>
					<start>31476</start>
					<end>31579</end>
					<subframeoffset>0</subframeoffset>
					<enabled>TRUE</enabled>
					<masterclipid>010_07_14_A_OK1</masterclipid>
					<logginginfo>
						<scene/>
						<shottake/>
						<lognote/>
						<good>FALSE</good>
					</logginginfo>
					<labels>
						<label2/>
					</labels>
					<comments>
						<mastercomment1/>
						<mastercomment2/>
						<mastercomment3/>
						<mastercomment4/>
					</comments>
					<file id="A002C018_221211_R03K"/>
					<filter>
						<effect>
							<name>Audio Levels</name>
							<effectid>audiolevels</effectid>
							<effectcategory>audiolevels</effectcategory>
							<effecttype>audiolevels</effecttype>
							<mediatype>audio</mediatype>
							<parameter>
								<name>Level</name>
								<parameterid>level</parameterid>
								<valuemin>0</valuemin>
								<valuemax>3.98109</valuemax>
								<value>1</value>
							</parameter>
						</effect>
					</filter>
					<filter>
						<effect>
							<name>Audio Pan</name>
							<effectid>audiopan</effectid>
							<effectcategory>audiopan</effectcategory>
							<effecttype>audiopan</effecttype>
							<mediatype>audio</mediatype>
							<parameter>
								<name>Pan</name>
								<parameterid>pan</parameterid>
								<valuemin>-1</valuemin>
								<valuemax>1</valuemax>
								<value>0</value>
							</parameter>
						</effect>
					</filter>
					<sourcetrack>
						<mediatype>audio</mediatype>
						<trackindex>2</trackindex>
					</sourcetrack>
					<link>
						<linkclipref>010_07_14_A_OK</linkclipref>
						<mediatype>video</mediatype>
						<trackindex>1</trackindex>
						<clipindex>54</clipindex>
					</link>
					<link>
						<linkclipref>010_07_14_A_OK2</linkclipref>
						<mediatype>audio</mediatype>
						<trackindex>1</trackindex>
						<clipindex>54</clipindex>
					</link>
					<link>
						<linkclipref>010_07_14_A_OK3</linkclipref>
						<mediatype>audio</mediatype>
						<trackindex>2</trackindex>
						<clipindex>54</clipindex>
					</link>
					<link>
						<linkclipref>010_07_14_A_OK4</linkclipref>
						<mediatype>audio</mediatype>
						<trackindex>3</trackindex>
						<clipindex>52</clipindex>
					</link>
					<itemhistory>
						<uuid>33C03551-0D30-45F8-87FC-64D0EA0043E8</uuid>
					</itemhistory>
				</clipitem>
				<clipitem id="010_08_01_B3">
					<name>010_08_01_B</name>
					<duration>466</duration>
					<rate>
						<ntsc>FALSE</ntsc>
						<timebase>24</timebase>
					</rate>
					<in>0</in>
					<out>466</out>
					<start>31579</start>
					<end>32045</end>
					<subframeoffset>0</subframeoffset>
					<enabled>TRUE</enabled>
					<masterclipid>010_08_01_B1</masterclipid>
					<logginginfo>
						<scene/>
						<shottake/>
						<lognote/>
						<good>FALSE</good>
					</logginginfo>
					<labels>
						<label2/>
					</labels>
					<comments>
						<mastercomment1/>
						<mastercomment2/>
						<mastercomment3/>
						<mastercomment4/>
					</comments>
					<file id="B002C007_130101_R1WX"/>
					<filter>
						<effect>
							<name>Audio Levels</name>
							<effectid>audiolevels</effectid>
							<effectcategory>audiolevels</effectcategory>
							<effecttype>audiolevels</effecttype>
							<mediatype>audio</mediatype>
							<parameter>
								<name>Level</name>
								<parameterid>level</parameterid>
								<valuemin>0</valuemin>
								<valuemax>3.98109</valuemax>
								<value>1</value>
							</parameter>
						</effect>
					</filter>
					<filter>
						<effect>
							<name>Audio Pan</name>
							<effectid>audiopan</effectid>
							<effectcategory>audiopan</effectcategory>
							<effecttype>audiopan</effecttype>
							<mediatype>audio</mediatype>
							<parameter>
								<name>Pan</name>
								<parameterid>pan</parameterid>
								<valuemin>-1</valuemin>
								<valuemax>1</valuemax>
								<value>0</value>
							</parameter>
						</effect>
					</filter>
					<sourcetrack>
						<mediatype>audio</mediatype>
						<trackindex>2</trackindex>
					</sourcetrack>
					<link>
						<linkclipref>010_08_01_B</linkclipref>
						<mediatype>video</mediatype>
						<trackindex>1</trackindex>
						<clipindex>55</clipindex>
					</link>
					<link>
						<linkclipref>010_08_01_B2</linkclipref>
						<mediatype>audio</mediatype>
						<trackindex>1</trackindex>
						<clipindex>55</clipindex>
					</link>
					<link>
						<linkclipref>010_08_01_B3</linkclipref>
						<mediatype>audio</mediatype>
						<trackindex>2</trackindex>
						<clipindex>55</clipindex>
					</link>
					<link>
						<linkclipref>010_08_01_B4</linkclipref>
						<mediatype>audio</mediatype>
						<trackindex>3</trackindex>
						<clipindex>53</clipindex>
					</link>
					<link>
						<linkclipref>010_08_01_B5</linkclipref>
						<mediatype>audio</mediatype>
						<trackindex>4</trackindex>
						<clipindex>29</clipindex>
					</link>
					<itemhistory>
						<uuid>B442ECF0-2973-4194-81ED-08E85772C4DC</uuid>
					</itemhistory>
				</clipitem>
				<clipitem id="010_08_02_B3">
					<name>010_08_02_B</name>
					<duration>495</duration>
					<rate>
						<ntsc>FALSE</ntsc>
						<timebase>24</timebase>
					</rate>
					<in>0</in>
					<out>495</out>
					<start>32045</start>
					<end>32540</end>
					<subframeoffset>0</subframeoffset>
					<enabled>TRUE</enabled>
					<masterclipid>010_08_02_B1</masterclipid>
					<logginginfo>
						<scene/>
						<shottake/>
						<lognote/>
						<good>FALSE</good>
					</logginginfo>
					<labels>
						<label2/>
					</labels>
					<comments>
						<mastercomment1/>
						<mastercomment2/>
						<mastercomment3/>
						<mastercomment4/>
					</comments>
					<file id="B002C008_130101_R1WX"/>
					<filter>
						<effect>
							<name>Audio Levels</name>
							<effectid>audiolevels</effectid>
							<effectcategory>audiolevels</effectcategory>
							<effecttype>audiolevels</effecttype>
							<mediatype>audio</mediatype>
							<parameter>
								<name>Level</name>
								<parameterid>level</parameterid>
								<valuemin>0</valuemin>
								<valuemax>3.98109</valuemax>
								<value>1</value>
							</parameter>
						</effect>
					</filter>
					<filter>
						<effect>
							<name>Audio Pan</name>
							<effectid>audiopan</effectid>
							<effectcategory>audiopan</effectcategory>
							<effecttype>audiopan</effecttype>
							<mediatype>audio</mediatype>
							<parameter>
								<name>Pan</name>
								<parameterid>pan</parameterid>
								<valuemin>-1</valuemin>
								<valuemax>1</valuemax>
								<value>0</value>
							</parameter>
						</effect>
					</filter>
					<sourcetrack>
						<mediatype>audio</mediatype>
						<trackindex>2</trackindex>
					</sourcetrack>
					<link>
						<linkclipref>010_08_02_B</linkclipref>
						<mediatype>video</mediatype>
						<trackindex>1</trackindex>
						<clipindex>56</clipindex>
					</link>
					<link>
						<linkclipref>010_08_02_B2</linkclipref>
						<mediatype>audio</mediatype>
						<trackindex>1</trackindex>
						<clipindex>56</clipindex>
					</link>
					<link>
						<linkclipref>010_08_02_B3</linkclipref>
						<mediatype>audio</mediatype>
						<trackindex>2</trackindex>
						<clipindex>56</clipindex>
					</link>
					<link>
						<linkclipref>010_08_02_B4</linkclipref>
						<mediatype>audio</mediatype>
						<trackindex>3</trackindex>
						<clipindex>54</clipindex>
					</link>
					<link>
						<linkclipref>010_08_02_B5</linkclipref>
						<mediatype>audio</mediatype>
						<trackindex>4</trackindex>
						<clipindex>30</clipindex>
					</link>
					<itemhistory>
						<uuid>E4792818-5D49-47C1-8839-27835ACB1998</uuid>
					</itemhistory>
				</clipitem>
				<clipitem id="010_08_03_B_OK3">
					<name>010_08_03_B_OK</name>
					<duration>483</duration>
					<rate>
						<ntsc>FALSE</ntsc>
						<timebase>24</timebase>
					</rate>
					<in>0</in>
					<out>483</out>
					<start>32540</start>
					<end>33023</end>
					<subframeoffset>0</subframeoffset>
					<enabled>TRUE</enabled>
					<masterclipid>010_08_03_B_OK1</masterclipid>
					<logginginfo>
						<scene/>
						<shottake/>
						<lognote/>
						<good>FALSE</good>
					</logginginfo>
					<labels>
						<label2/>
					</labels>
					<comments>
						<mastercomment1/>
						<mastercomment2/>
						<mastercomment3/>
						<mastercomment4/>
					</comments>
					<file id="B002C009_130101_R1WX"/>
					<filter>
						<effect>
							<name>Audio Levels</name>
							<effectid>audiolevels</effectid>
							<effectcategory>audiolevels</effectcategory>
							<effecttype>audiolevels</effecttype>
							<mediatype>audio</mediatype>
							<parameter>
								<name>Level</name>
								<parameterid>level</parameterid>
								<valuemin>0</valuemin>
								<valuemax>3.98109</valuemax>
								<value>1</value>
							</parameter>
						</effect>
					</filter>
					<filter>
						<effect>
							<name>Audio Pan</name>
							<effectid>audiopan</effectid>
							<effectcategory>audiopan</effectcategory>
							<effecttype>audiopan</effecttype>
							<mediatype>audio</mediatype>
							<parameter>
								<name>Pan</name>
								<parameterid>pan</parameterid>
								<valuemin>-1</valuemin>
								<valuemax>1</valuemax>
								<value>0</value>
							</parameter>
						</effect>
					</filter>
					<sourcetrack>
						<mediatype>audio</mediatype>
						<trackindex>2</trackindex>
					</sourcetrack>
					<link>
						<linkclipref>010_08_03_B_OK</linkclipref>
						<mediatype>video</mediatype>
						<trackindex>1</trackindex>
						<clipindex>57</clipindex>
					</link>
					<link>
						<linkclipref>010_08_03_B_OK2</linkclipref>
						<mediatype>audio</mediatype>
						<trackindex>1</trackindex>
						<clipindex>57</clipindex>
					</link>
					<link>
						<linkclipref>010_08_03_B_OK3</linkclipref>
						<mediatype>audio</mediatype>
						<trackindex>2</trackindex>
						<clipindex>57</clipindex>
					</link>
					<link>
						<linkclipref>010_08_03_B_OK4</linkclipref>
						<mediatype>audio</mediatype>
						<trackindex>3</trackindex>
						<clipindex>55</clipindex>
					</link>
					<link>
						<linkclipref>010_08_03_B_OK5</linkclipref>
						<mediatype>audio</mediatype>
						<trackindex>4</trackindex>
						<clipindex>31</clipindex>
					</link>
					<itemhistory>
						<uuid>C197EDD8-348B-40A9-8741-27DA30844C9D</uuid>
					</itemhistory>
				</clipitem>
				<clipitem id="010_08_04_B_OK3">
					<name>010_08_04_B_OK</name>
					<duration>433</duration>
					<rate>
						<ntsc>FALSE</ntsc>
						<timebase>24</timebase>
					</rate>
					<in>77</in>
					<out>433</out>
					<start>33023</start>
					<end>33379</end>
					<subframeoffset>0</subframeoffset>
					<enabled>TRUE</enabled>
					<masterclipid>010_08_04_B_OK1</masterclipid>
					<logginginfo>
						<scene/>
						<shottake/>
						<lognote/>
						<good>FALSE</good>
					</logginginfo>
					<labels>
						<label2/>
					</labels>
					<comments>
						<mastercomment1/>
						<mastercomment2/>
						<mastercomment3/>
						<mastercomment4/>
					</comments>
					<file id="B002C010_130101_R1WX"/>
					<filter>
						<effect>
							<name>Audio Levels</name>
							<effectid>audiolevels</effectid>
							<effectcategory>audiolevels</effectcategory>
							<effecttype>audiolevels</effecttype>
							<mediatype>audio</mediatype>
							<parameter>
								<name>Level</name>
								<parameterid>level</parameterid>
								<valuemin>0</valuemin>
								<valuemax>3.98109</valuemax>
								<value>1</value>
							</parameter>
						</effect>
					</filter>
					<filter>
						<effect>
							<name>Audio Pan</name>
							<effectid>audiopan</effectid>
							<effectcategory>audiopan</effectcategory>
							<effecttype>audiopan</effecttype>
							<mediatype>audio</mediatype>
							<parameter>
								<name>Pan</name>
								<parameterid>pan</parameterid>
								<valuemin>-1</valuemin>
								<valuemax>1</valuemax>
								<value>0</value>
							</parameter>
						</effect>
					</filter>
					<sourcetrack>
						<mediatype>audio</mediatype>
						<trackindex>2</trackindex>
					</sourcetrack>
					<link>
						<linkclipref>010_08_04_B_OK</linkclipref>
						<mediatype>video</mediatype>
						<trackindex>1</trackindex>
						<clipindex>58</clipindex>
					</link>
					<link>
						<linkclipref>010_08_04_B_OK2</linkclipref>
						<mediatype>audio</mediatype>
						<trackindex>1</trackindex>
						<clipindex>58</clipindex>
					</link>
					<link>
						<linkclipref>010_08_04_B_OK3</linkclipref>
						<mediatype>audio</mediatype>
						<trackindex>2</trackindex>
						<clipindex>58</clipindex>
					</link>
					<link>
						<linkclipref>010_08_04_B_OK4</linkclipref>
						<mediatype>audio</mediatype>
						<trackindex>3</trackindex>
						<clipindex>56</clipindex>
					</link>
					<link>
						<linkclipref>010_08_04_B_OK5</linkclipref>
						<mediatype>audio</mediatype>
						<trackindex>4</trackindex>
						<clipindex>32</clipindex>
					</link>
					<itemhistory>
						<uuid>A7E7345A-EC79-4C59-99F9-9566C442A833</uuid>
					</itemhistory>
				</clipitem>
				<clipitem id="010_09_01_A3">
					<name>010_09_01_A</name>
					<duration>422</duration>
					<rate>
						<ntsc>FALSE</ntsc>
						<timebase>24</timebase>
					</rate>
					<in>0</in>
					<out>422</out>
					<start>33379</start>
					<end>33801</end>
					<subframeoffset>0</subframeoffset>
					<enabled>TRUE</enabled>
					<masterclipid>010_09_01_A1</masterclipid>
					<logginginfo>
						<scene/>
						<shottake/>
						<lognote/>
						<good>FALSE</good>
					</logginginfo>
					<labels>
						<label2/>
					</labels>
					<comments>
						<mastercomment1/>
						<mastercomment2/>
						<mastercomment3/>
						<mastercomment4/>
					</comments>
					<file id="A002C019_221211_R03K"/>
					<filter>
						<effect>
							<name>Audio Levels</name>
							<effectid>audiolevels</effectid>
							<effectcategory>audiolevels</effectcategory>
							<effecttype>audiolevels</effecttype>
							<mediatype>audio</mediatype>
							<parameter>
								<name>Level</name>
								<parameterid>level</parameterid>
								<valuemin>0</valuemin>
								<valuemax>3.98109</valuemax>
								<value>1</value>
							</parameter>
						</effect>
					</filter>
					<filter>
						<effect>
							<name>Audio Pan</name>
							<effectid>audiopan</effectid>
							<effectcategory>audiopan</effectcategory>
							<effecttype>audiopan</effecttype>
							<mediatype>audio</mediatype>
							<parameter>
								<name>Pan</name>
								<parameterid>pan</parameterid>
								<valuemin>-1</valuemin>
								<valuemax>1</valuemax>
								<value>0</value>
							</parameter>
						</effect>
					</filter>
					<sourcetrack>
						<mediatype>audio</mediatype>
						<trackindex>2</trackindex>
					</sourcetrack>
					<link>
						<linkclipref>010_09_01_A</linkclipref>
						<mediatype>video</mediatype>
						<trackindex>1</trackindex>
						<clipindex>59</clipindex>
					</link>
					<link>
						<linkclipref>010_09_01_A2</linkclipref>
						<mediatype>audio</mediatype>
						<trackindex>1</trackindex>
						<clipindex>59</clipindex>
					</link>
					<link>
						<linkclipref>010_09_01_A3</linkclipref>
						<mediatype>audio</mediatype>
						<trackindex>2</trackindex>
						<clipindex>59</clipindex>
					</link>
					<link>
						<linkclipref>010_09_01_A4</linkclipref>
						<mediatype>audio</mediatype>
						<trackindex>3</trackindex>
						<clipindex>57</clipindex>
					</link>
					<link>
						<linkclipref>010_09_01_A5</linkclipref>
						<mediatype>audio</mediatype>
						<trackindex>4</trackindex>
						<clipindex>33</clipindex>
					</link>
					<itemhistory>
						<uuid>D91C5010-D338-4B58-BC2E-4301993623BF</uuid>
					</itemhistory>
				</clipitem>
				<clipitem id="010_09_02_A3">
					<name>010_09_02_A</name>
					<duration>289</duration>
					<rate>
						<ntsc>FALSE</ntsc>
						<timebase>24</timebase>
					</rate>
					<in>0</in>
					<out>289</out>
					<start>33801</start>
					<end>34090</end>
					<subframeoffset>0</subframeoffset>
					<enabled>TRUE</enabled>
					<masterclipid>010_09_02_A1</masterclipid>
					<logginginfo>
						<scene/>
						<shottake/>
						<lognote/>
						<good>FALSE</good>
					</logginginfo>
					<labels>
						<label2/>
					</labels>
					<comments>
						<mastercomment1/>
						<mastercomment2/>
						<mastercomment3/>
						<mastercomment4/>
					</comments>
					<file id="A002C020_221211_R03K"/>
					<filter>
						<effect>
							<name>Audio Levels</name>
							<effectid>audiolevels</effectid>
							<effectcategory>audiolevels</effectcategory>
							<effecttype>audiolevels</effecttype>
							<mediatype>audio</mediatype>
							<parameter>
								<name>Level</name>
								<parameterid>level</parameterid>
								<valuemin>0</valuemin>
								<valuemax>3.98109</valuemax>
								<value>1</value>
							</parameter>
						</effect>
					</filter>
					<filter>
						<effect>
							<name>Audio Pan</name>
							<effectid>audiopan</effectid>
							<effectcategory>audiopan</effectcategory>
							<effecttype>audiopan</effecttype>
							<mediatype>audio</mediatype>
							<parameter>
								<name>Pan</name>
								<parameterid>pan</parameterid>
								<valuemin>-1</valuemin>
								<valuemax>1</valuemax>
								<value>0</value>
							</parameter>
						</effect>
					</filter>
					<sourcetrack>
						<mediatype>audio</mediatype>
						<trackindex>2</trackindex>
					</sourcetrack>
					<link>
						<linkclipref>010_09_02_A</linkclipref>
						<mediatype>video</mediatype>
						<trackindex>1</trackindex>
						<clipindex>60</clipindex>
					</link>
					<link>
						<linkclipref>010_09_02_A2</linkclipref>
						<mediatype>audio</mediatype>
						<trackindex>1</trackindex>
						<clipindex>60</clipindex>
					</link>
					<link>
						<linkclipref>010_09_02_A3</linkclipref>
						<mediatype>audio</mediatype>
						<trackindex>2</trackindex>
						<clipindex>60</clipindex>
					</link>
					<link>
						<linkclipref>010_09_02_A4</linkclipref>
						<mediatype>audio</mediatype>
						<trackindex>3</trackindex>
						<clipindex>58</clipindex>
					</link>
					<link>
						<linkclipref>010_09_02_A5</linkclipref>
						<mediatype>audio</mediatype>
						<trackindex>4</trackindex>
						<clipindex>34</clipindex>
					</link>
					<itemhistory>
						<uuid>B89B97B9-1070-4C18-B57B-736F7EE84596</uuid>
					</itemhistory>
				</clipitem>
				<clipitem id="010_09_03_A3">
					<name>010_09_03_A</name>
					<duration>221</duration>
					<rate>
						<ntsc>FALSE</ntsc>
						<timebase>24</timebase>
					</rate>
					<in>0</in>
					<out>221</out>
					<start>34090</start>
					<end>34311</end>
					<subframeoffset>0</subframeoffset>
					<enabled>TRUE</enabled>
					<masterclipid>010_09_03_A1</masterclipid>
					<logginginfo>
						<scene/>
						<shottake/>
						<lognote/>
						<good>FALSE</good>
					</logginginfo>
					<labels>
						<label2/>
					</labels>
					<comments>
						<mastercomment1/>
						<mastercomment2/>
						<mastercomment3/>
						<mastercomment4/>
					</comments>
					<file id="A002C021_221211_R03K"/>
					<filter>
						<effect>
							<name>Audio Levels</name>
							<effectid>audiolevels</effectid>
							<effectcategory>audiolevels</effectcategory>
							<effecttype>audiolevels</effecttype>
							<mediatype>audio</mediatype>
							<parameter>
								<name>Level</name>
								<parameterid>level</parameterid>
								<valuemin>0</valuemin>
								<valuemax>3.98109</valuemax>
								<value>1</value>
							</parameter>
						</effect>
					</filter>
					<filter>
						<effect>
							<name>Audio Pan</name>
							<effectid>audiopan</effectid>
							<effectcategory>audiopan</effectcategory>
							<effecttype>audiopan</effecttype>
							<mediatype>audio</mediatype>
							<parameter>
								<name>Pan</name>
								<parameterid>pan</parameterid>
								<valuemin>-1</valuemin>
								<valuemax>1</valuemax>
								<value>0</value>
							</parameter>
						</effect>
					</filter>
					<sourcetrack>
						<mediatype>audio</mediatype>
						<trackindex>2</trackindex>
					</sourcetrack>
					<link>
						<linkclipref>010_09_03_A</linkclipref>
						<mediatype>video</mediatype>
						<trackindex>1</trackindex>
						<clipindex>61</clipindex>
					</link>
					<link>
						<linkclipref>010_09_03_A2</linkclipref>
						<mediatype>audio</mediatype>
						<trackindex>1</trackindex>
						<clipindex>61</clipindex>
					</link>
					<link>
						<linkclipref>010_09_03_A3</linkclipref>
						<mediatype>audio</mediatype>
						<trackindex>2</trackindex>
						<clipindex>61</clipindex>
					</link>
					<link>
						<linkclipref>010_09_03_A4</linkclipref>
						<mediatype>audio</mediatype>
						<trackindex>3</trackindex>
						<clipindex>59</clipindex>
					</link>
					<link>
						<linkclipref>010_09_03_A5</linkclipref>
						<mediatype>audio</mediatype>
						<trackindex>4</trackindex>
						<clipindex>35</clipindex>
					</link>
					<itemhistory>
						<uuid>05F2B5F8-1B98-418A-9492-6A24E4329459</uuid>
					</itemhistory>
				</clipitem>
				<clipitem id="010_09_04_A_OK3">
					<name>010_09_04_A_OK</name>
					<duration>313</duration>
					<rate>
						<ntsc>FALSE</ntsc>
						<timebase>24</timebase>
					</rate>
					<in>89</in>
					<out>197</out>
					<start>34311</start>
					<end>34419</end>
					<subframeoffset>0</subframeoffset>
					<enabled>TRUE</enabled>
					<masterclipid>010_09_04_A_OK1</masterclipid>
					<logginginfo>
						<scene/>
						<shottake/>
						<lognote/>
						<good>FALSE</good>
					</logginginfo>
					<labels>
						<label2/>
					</labels>
					<comments>
						<mastercomment1/>
						<mastercomment2/>
						<mastercomment3/>
						<mastercomment4/>
					</comments>
					<file id="A002C022_221211_R03K"/>
					<filter>
						<effect>
							<name>Audio Levels</name>
							<effectid>audiolevels</effectid>
							<effectcategory>audiolevels</effectcategory>
							<effecttype>audiolevels</effecttype>
							<mediatype>audio</mediatype>
							<parameter>
								<name>Level</name>
								<parameterid>level</parameterid>
								<valuemin>0</valuemin>
								<valuemax>3.98109</valuemax>
								<value>1</value>
							</parameter>
						</effect>
					</filter>
					<filter>
						<effect>
							<name>Audio Pan</name>
							<effectid>audiopan</effectid>
							<effectcategory>audiopan</effectcategory>
							<effecttype>audiopan</effecttype>
							<mediatype>audio</mediatype>
							<parameter>
								<name>Pan</name>
								<parameterid>pan</parameterid>
								<valuemin>-1</valuemin>
								<valuemax>1</valuemax>
								<value>0</value>
							</parameter>
						</effect>
					</filter>
					<sourcetrack>
						<mediatype>audio</mediatype>
						<trackindex>2</trackindex>
					</sourcetrack>
					<link>
						<linkclipref>010_09_04_A_OK</linkclipref>
						<mediatype>video</mediatype>
						<trackindex>1</trackindex>
						<clipindex>62</clipindex>
					</link>
					<link>
						<linkclipref>010_09_04_A_OK2</linkclipref>
						<mediatype>audio</mediatype>
						<trackindex>1</trackindex>
						<clipindex>62</clipindex>
					</link>
					<link>
						<linkclipref>010_09_04_A_OK3</linkclipref>
						<mediatype>audio</mediatype>
						<trackindex>2</trackindex>
						<clipindex>62</clipindex>
					</link>
					<link>
						<linkclipref>010_09_04_A_OK4</linkclipref>
						<mediatype>audio</mediatype>
						<trackindex>3</trackindex>
						<clipindex>60</clipindex>
					</link>
					<link>
						<linkclipref>010_09_04_A_OK5</linkclipref>
						<mediatype>audio</mediatype>
						<trackindex>4</trackindex>
						<clipindex>36</clipindex>
					</link>
					<itemhistory>
						<uuid>74EF1525-23F4-4F85-9ACF-F0A3D2C685AE</uuid>
					</itemhistory>
				</clipitem>
				<clipitem id="010_10_01_A3">
					<name>010_10_01_A</name>
					<duration>438</duration>
					<rate>
						<ntsc>FALSE</ntsc>
						<timebase>24</timebase>
					</rate>
					<in>0</in>
					<out>438</out>
					<start>34419</start>
					<end>34857</end>
					<subframeoffset>0</subframeoffset>
					<enabled>TRUE</enabled>
					<masterclipid>010_10_01_A1</masterclipid>
					<logginginfo>
						<scene/>
						<shottake/>
						<lognote/>
						<good>FALSE</good>
					</logginginfo>
					<labels>
						<label2/>
					</labels>
					<comments>
						<mastercomment1/>
						<mastercomment2/>
						<mastercomment3/>
						<mastercomment4/>
					</comments>
					<file id="A002C023_221211_R03K"/>
					<filter>
						<effect>
							<name>Audio Levels</name>
							<effectid>audiolevels</effectid>
							<effectcategory>audiolevels</effectcategory>
							<effecttype>audiolevels</effecttype>
							<mediatype>audio</mediatype>
							<parameter>
								<name>Level</name>
								<parameterid>level</parameterid>
								<valuemin>0</valuemin>
								<valuemax>3.98109</valuemax>
								<value>1</value>
							</parameter>
						</effect>
					</filter>
					<filter>
						<effect>
							<name>Audio Pan</name>
							<effectid>audiopan</effectid>
							<effectcategory>audiopan</effectcategory>
							<effecttype>audiopan</effecttype>
							<mediatype>audio</mediatype>
							<parameter>
								<name>Pan</name>
								<parameterid>pan</parameterid>
								<valuemin>-1</valuemin>
								<valuemax>1</valuemax>
								<value>0</value>
							</parameter>
						</effect>
					</filter>
					<sourcetrack>
						<mediatype>audio</mediatype>
						<trackindex>2</trackindex>
					</sourcetrack>
					<link>
						<linkclipref>010_10_01_A</linkclipref>
						<mediatype>video</mediatype>
						<trackindex>1</trackindex>
						<clipindex>63</clipindex>
					</link>
					<link>
						<linkclipref>010_10_01_A2</linkclipref>
						<mediatype>audio</mediatype>
						<trackindex>1</trackindex>
						<clipindex>63</clipindex>
					</link>
					<link>
						<linkclipref>010_10_01_A3</linkclipref>
						<mediatype>audio</mediatype>
						<trackindex>2</trackindex>
						<clipindex>63</clipindex>
					</link>
					<link>
						<linkclipref>010_10_01_A4</linkclipref>
						<mediatype>audio</mediatype>
						<trackindex>3</trackindex>
						<clipindex>61</clipindex>
					</link>
					<link>
						<linkclipref>010_10_01_A5</linkclipref>
						<mediatype>audio</mediatype>
						<trackindex>4</trackindex>
						<clipindex>37</clipindex>
					</link>
					<itemhistory>
						<uuid>C8D7373B-A065-43D8-BD34-583484E59A55</uuid>
					</itemhistory>
				</clipitem>
				<clipitem id="010_10_02_A3">
					<name>010_10_02_A</name>
					<duration>428</duration>
					<rate>
						<ntsc>FALSE</ntsc>
						<timebase>24</timebase>
					</rate>
					<in>0</in>
					<out>428</out>
					<start>34857</start>
					<end>35285</end>
					<subframeoffset>0</subframeoffset>
					<enabled>TRUE</enabled>
					<masterclipid>010_10_02_A1</masterclipid>
					<logginginfo>
						<scene/>
						<shottake/>
						<lognote/>
						<good>FALSE</good>
					</logginginfo>
					<labels>
						<label2/>
					</labels>
					<comments>
						<mastercomment1/>
						<mastercomment2/>
						<mastercomment3/>
						<mastercomment4/>
					</comments>
					<file id="A002C024_221211_R03K"/>
					<filter>
						<effect>
							<name>Audio Levels</name>
							<effectid>audiolevels</effectid>
							<effectcategory>audiolevels</effectcategory>
							<effecttype>audiolevels</effecttype>
							<mediatype>audio</mediatype>
							<parameter>
								<name>Level</name>
								<parameterid>level</parameterid>
								<valuemin>0</valuemin>
								<valuemax>3.98109</valuemax>
								<value>1</value>
							</parameter>
						</effect>
					</filter>
					<filter>
						<effect>
							<name>Audio Pan</name>
							<effectid>audiopan</effectid>
							<effectcategory>audiopan</effectcategory>
							<effecttype>audiopan</effecttype>
							<mediatype>audio</mediatype>
							<parameter>
								<name>Pan</name>
								<parameterid>pan</parameterid>
								<valuemin>-1</valuemin>
								<valuemax>1</valuemax>
								<value>0</value>
							</parameter>
						</effect>
					</filter>
					<sourcetrack>
						<mediatype>audio</mediatype>
						<trackindex>2</trackindex>
					</sourcetrack>
					<link>
						<linkclipref>010_10_02_A</linkclipref>
						<mediatype>video</mediatype>
						<trackindex>1</trackindex>
						<clipindex>64</clipindex>
					</link>
					<link>
						<linkclipref>010_10_02_A2</linkclipref>
						<mediatype>audio</mediatype>
						<trackindex>1</trackindex>
						<clipindex>64</clipindex>
					</link>
					<link>
						<linkclipref>010_10_02_A3</linkclipref>
						<mediatype>audio</mediatype>
						<trackindex>2</trackindex>
						<clipindex>64</clipindex>
					</link>
					<link>
						<linkclipref>010_10_02_A4</linkclipref>
						<mediatype>audio</mediatype>
						<trackindex>3</trackindex>
						<clipindex>62</clipindex>
					</link>
					<link>
						<linkclipref>010_10_02_A5</linkclipref>
						<mediatype>audio</mediatype>
						<trackindex>4</trackindex>
						<clipindex>38</clipindex>
					</link>
					<itemhistory>
						<uuid>F80E6435-4830-43D5-AAF1-872F8E0050ED</uuid>
					</itemhistory>
				</clipitem>
				<clipitem id="010_10_03_A_OK3">
					<name>010_10_03_A_OK</name>
					<duration>223</duration>
					<rate>
						<ntsc>FALSE</ntsc>
						<timebase>24</timebase>
					</rate>
					<in>68</in>
					<out>106</out>
					<start>35285</start>
					<end>35323</end>
					<subframeoffset>0</subframeoffset>
					<enabled>TRUE</enabled>
					<masterclipid>010_10_03_A_OK1</masterclipid>
					<logginginfo>
						<scene/>
						<shottake/>
						<lognote/>
						<good>FALSE</good>
					</logginginfo>
					<labels>
						<label2/>
					</labels>
					<comments>
						<mastercomment1/>
						<mastercomment2/>
						<mastercomment3/>
						<mastercomment4/>
					</comments>
					<file id="A002C025_221211_R03K"/>
					<filter>
						<effect>
							<name>Audio Levels</name>
							<effectid>audiolevels</effectid>
							<effectcategory>audiolevels</effectcategory>
							<effecttype>audiolevels</effecttype>
							<mediatype>audio</mediatype>
							<parameter>
								<name>Level</name>
								<parameterid>level</parameterid>
								<valuemin>0</valuemin>
								<valuemax>3.98109</valuemax>
								<value>1</value>
							</parameter>
						</effect>
					</filter>
					<filter>
						<effect>
							<name>Audio Pan</name>
							<effectid>audiopan</effectid>
							<effectcategory>audiopan</effectcategory>
							<effecttype>audiopan</effecttype>
							<mediatype>audio</mediatype>
							<parameter>
								<name>Pan</name>
								<parameterid>pan</parameterid>
								<valuemin>-1</valuemin>
								<valuemax>1</valuemax>
								<value>0</value>
							</parameter>
						</effect>
					</filter>
					<sourcetrack>
						<mediatype>audio</mediatype>
						<trackindex>2</trackindex>
					</sourcetrack>
					<link>
						<linkclipref>010_10_03_A_OK</linkclipref>
						<mediatype>video</mediatype>
						<trackindex>1</trackindex>
						<clipindex>65</clipindex>
					</link>
					<link>
						<linkclipref>010_10_03_A_OK2</linkclipref>
						<mediatype>audio</mediatype>
						<trackindex>1</trackindex>
						<clipindex>65</clipindex>
					</link>
					<link>
						<linkclipref>010_10_03_A_OK3</linkclipref>
						<mediatype>audio</mediatype>
						<trackindex>2</trackindex>
						<clipindex>65</clipindex>
					</link>
					<link>
						<linkclipref>010_10_03_A_OK4</linkclipref>
						<mediatype>audio</mediatype>
						<trackindex>3</trackindex>
						<clipindex>63</clipindex>
					</link>
					<link>
						<linkclipref>010_10_03_A_OK5</linkclipref>
						<mediatype>audio</mediatype>
						<trackindex>4</trackindex>
						<clipindex>39</clipindex>
					</link>
					<itemhistory>
						<uuid>C6CDFFBA-4798-4CE2-BF2D-286CBADE14AD</uuid>
					</itemhistory>
				</clipitem>
				<clipitem id="010_11_01_A3">
					<name>010_11_01_A</name>
					<duration>358</duration>
					<rate>
						<ntsc>FALSE</ntsc>
						<timebase>24</timebase>
					</rate>
					<in>0</in>
					<out>358</out>
					<start>35323</start>
					<end>35681</end>
					<subframeoffset>0</subframeoffset>
					<enabled>TRUE</enabled>
					<masterclipid>010_11_01_A1</masterclipid>
					<logginginfo>
						<scene/>
						<shottake/>
						<lognote/>
						<good>FALSE</good>
					</logginginfo>
					<labels>
						<label2/>
					</labels>
					<comments>
						<mastercomment1/>
						<mastercomment2/>
						<mastercomment3/>
						<mastercomment4/>
					</comments>
					<file id="A002C026_221211_R03K"/>
					<filter>
						<effect>
							<name>Audio Levels</name>
							<effectid>audiolevels</effectid>
							<effectcategory>audiolevels</effectcategory>
							<effecttype>audiolevels</effecttype>
							<mediatype>audio</mediatype>
							<parameter>
								<name>Level</name>
								<parameterid>level</parameterid>
								<valuemin>0</valuemin>
								<valuemax>3.98109</valuemax>
								<value>1</value>
							</parameter>
						</effect>
					</filter>
					<filter>
						<effect>
							<name>Audio Pan</name>
							<effectid>audiopan</effectid>
							<effectcategory>audiopan</effectcategory>
							<effecttype>audiopan</effecttype>
							<mediatype>audio</mediatype>
							<parameter>
								<name>Pan</name>
								<parameterid>pan</parameterid>
								<valuemin>-1</valuemin>
								<valuemax>1</valuemax>
								<value>0</value>
							</parameter>
						</effect>
					</filter>
					<sourcetrack>
						<mediatype>audio</mediatype>
						<trackindex>2</trackindex>
					</sourcetrack>
					<link>
						<linkclipref>010_11_01_A</linkclipref>
						<mediatype>video</mediatype>
						<trackindex>1</trackindex>
						<clipindex>66</clipindex>
					</link>
					<link>
						<linkclipref>010_11_01_A2</linkclipref>
						<mediatype>audio</mediatype>
						<trackindex>1</trackindex>
						<clipindex>66</clipindex>
					</link>
					<link>
						<linkclipref>010_11_01_A3</linkclipref>
						<mediatype>audio</mediatype>
						<trackindex>2</trackindex>
						<clipindex>66</clipindex>
					</link>
					<link>
						<linkclipref>010_11_01_A4</linkclipref>
						<mediatype>audio</mediatype>
						<trackindex>3</trackindex>
						<clipindex>64</clipindex>
					</link>
					<link>
						<linkclipref>010_11_01_A5</linkclipref>
						<mediatype>audio</mediatype>
						<trackindex>4</trackindex>
						<clipindex>40</clipindex>
					</link>
					<itemhistory>
						<uuid>E5C6B812-899D-4DC6-92CA-AC443B25F452</uuid>
					</itemhistory>
				</clipitem>
				<clipitem id="010_11_02_A_OK3">
					<name>010_11_02_A_OK</name>
					<duration>415</duration>
					<rate>
						<ntsc>FALSE</ntsc>
						<timebase>24</timebase>
					</rate>
					<in>146</in>
					<out>242</out>
					<start>35681</start>
					<end>35777</end>
					<subframeoffset>0</subframeoffset>
					<enabled>TRUE</enabled>
					<masterclipid>010_11_02_A_OK1</masterclipid>
					<logginginfo>
						<scene/>
						<shottake/>
						<lognote/>
						<good>FALSE</good>
					</logginginfo>
					<labels>
						<label2/>
					</labels>
					<comments>
						<mastercomment1/>
						<mastercomment2/>
						<mastercomment3/>
						<mastercomment4/>
					</comments>
					<file id="A002C027_221211_R03K"/>
					<filter>
						<effect>
							<name>Audio Levels</name>
							<effectid>audiolevels</effectid>
							<effectcategory>audiolevels</effectcategory>
							<effecttype>audiolevels</effecttype>
							<mediatype>audio</mediatype>
							<parameter>
								<name>Level</name>
								<parameterid>level</parameterid>
								<valuemin>0</valuemin>
								<valuemax>3.98109</valuemax>
								<value>1</value>
							</parameter>
						</effect>
					</filter>
					<filter>
						<effect>
							<name>Audio Pan</name>
							<effectid>audiopan</effectid>
							<effectcategory>audiopan</effectcategory>
							<effecttype>audiopan</effecttype>
							<mediatype>audio</mediatype>
							<parameter>
								<name>Pan</name>
								<parameterid>pan</parameterid>
								<valuemin>-1</valuemin>
								<valuemax>1</valuemax>
								<value>0</value>
							</parameter>
						</effect>
					</filter>
					<sourcetrack>
						<mediatype>audio</mediatype>
						<trackindex>2</trackindex>
					</sourcetrack>
					<link>
						<linkclipref>010_11_02_A_OK</linkclipref>
						<mediatype>video</mediatype>
						<trackindex>1</trackindex>
						<clipindex>67</clipindex>
					</link>
					<link>
						<linkclipref>010_11_02_A_OK2</linkclipref>
						<mediatype>audio</mediatype>
						<trackindex>1</trackindex>
						<clipindex>67</clipindex>
					</link>
					<link>
						<linkclipref>010_11_02_A_OK3</linkclipref>
						<mediatype>audio</mediatype>
						<trackindex>2</trackindex>
						<clipindex>67</clipindex>
					</link>
					<link>
						<linkclipref>010_11_02_A_OK4</linkclipref>
						<mediatype>audio</mediatype>
						<trackindex>3</trackindex>
						<clipindex>65</clipindex>
					</link>
					<link>
						<linkclipref>010_11_02_A_OK5</linkclipref>
						<mediatype>audio</mediatype>
						<trackindex>4</trackindex>
						<clipindex>41</clipindex>
					</link>
					<itemhistory>
						<uuid>CBC854DF-9076-404A-84DE-8D21078BB74A</uuid>
					</itemhistory>
				</clipitem>
				<clipitem id="010_12_01_A_OK3">
					<name>010_12_01_A_OK</name>
					<duration>853</duration>
					<rate>
						<ntsc>FALSE</ntsc>
						<timebase>24</timebase>
					</rate>
					<in>616</in>
					<out>853</out>
					<start>35777</start>
					<end>36014</end>
					<subframeoffset>0</subframeoffset>
					<enabled>TRUE</enabled>
					<masterclipid>010_12_01_A_OK1</masterclipid>
					<logginginfo>
						<scene/>
						<shottake/>
						<lognote/>
						<good>FALSE</good>
					</logginginfo>
					<labels>
						<label2/>
					</labels>
					<comments>
						<mastercomment1/>
						<mastercomment2/>
						<mastercomment3/>
						<mastercomment4/>
					</comments>
					<file id="A002C028_221211_R03K"/>
					<filter>
						<effect>
							<name>Audio Levels</name>
							<effectid>audiolevels</effectid>
							<effectcategory>audiolevels</effectcategory>
							<effecttype>audiolevels</effecttype>
							<mediatype>audio</mediatype>
							<parameter>
								<name>Level</name>
								<parameterid>level</parameterid>
								<valuemin>0</valuemin>
								<valuemax>3.98109</valuemax>
								<value>1</value>
							</parameter>
						</effect>
					</filter>
					<filter>
						<effect>
							<name>Audio Pan</name>
							<effectid>audiopan</effectid>
							<effectcategory>audiopan</effectcategory>
							<effecttype>audiopan</effecttype>
							<mediatype>audio</mediatype>
							<parameter>
								<name>Pan</name>
								<parameterid>pan</parameterid>
								<valuemin>-1</valuemin>
								<valuemax>1</valuemax>
								<value>0</value>
							</parameter>
						</effect>
					</filter>
					<sourcetrack>
						<mediatype>audio</mediatype>
						<trackindex>2</trackindex>
					</sourcetrack>
					<link>
						<linkclipref>010_12_01_A_OK</linkclipref>
						<mediatype>video</mediatype>
						<trackindex>1</trackindex>
						<clipindex>68</clipindex>
					</link>
					<link>
						<linkclipref>010_12_01_A_OK2</linkclipref>
						<mediatype>audio</mediatype>
						<trackindex>1</trackindex>
						<clipindex>68</clipindex>
					</link>
					<link>
						<linkclipref>010_12_01_A_OK3</linkclipref>
						<mediatype>audio</mediatype>
						<trackindex>2</trackindex>
						<clipindex>68</clipindex>
					</link>
					<link>
						<linkclipref>010_12_01_A_OK4</linkclipref>
						<mediatype>audio</mediatype>
						<trackindex>3</trackindex>
						<clipindex>66</clipindex>
					</link>
					<link>
						<linkclipref>010_12_01_A_OK5</linkclipref>
						<mediatype>audio</mediatype>
						<trackindex>4</trackindex>
						<clipindex>42</clipindex>
					</link>
					<itemhistory>
						<uuid>AFD6D0EC-FBE4-490C-94DC-62EE26A207BA</uuid>
					</itemhistory>
				</clipitem>
				<clipitem id="010_12_01_B_OK3">
					<name>010_12_01_B_OK</name>
					<duration>816</duration>
					<rate>
						<ntsc>FALSE</ntsc>
						<timebase>24</timebase>
					</rate>
					<in>0</in>
					<out>816</out>
					<start>36014</start>
					<end>36830</end>
					<subframeoffset>0</subframeoffset>
					<enabled>TRUE</enabled>
					<masterclipid>010_12_01_B_OK1</masterclipid>
					<logginginfo>
						<scene/>
						<shottake/>
						<lognote/>
						<good>FALSE</good>
					</logginginfo>
					<labels>
						<label2/>
					</labels>
					<comments>
						<mastercomment1/>
						<mastercomment2/>
						<mastercomment3/>
						<mastercomment4/>
					</comments>
					<file id="B002C011_130101_R1WX"/>
					<filter>
						<effect>
							<name>Audio Levels</name>
							<effectid>audiolevels</effectid>
							<effectcategory>audiolevels</effectcategory>
							<effecttype>audiolevels</effecttype>
							<mediatype>audio</mediatype>
							<parameter>
								<name>Level</name>
								<parameterid>level</parameterid>
								<valuemin>0</valuemin>
								<valuemax>3.98109</valuemax>
								<value>1</value>
							</parameter>
						</effect>
					</filter>
					<filter>
						<effect>
							<name>Audio Pan</name>
							<effectid>audiopan</effectid>
							<effectcategory>audiopan</effectcategory>
							<effecttype>audiopan</effecttype>
							<mediatype>audio</mediatype>
							<parameter>
								<name>Pan</name>
								<parameterid>pan</parameterid>
								<valuemin>-1</valuemin>
								<valuemax>1</valuemax>
								<value>0</value>
							</parameter>
						</effect>
					</filter>
					<sourcetrack>
						<mediatype>audio</mediatype>
						<trackindex>2</trackindex>
					</sourcetrack>
					<link>
						<linkclipref>010_12_01_B_OK</linkclipref>
						<mediatype>video</mediatype>
						<trackindex>1</trackindex>
						<clipindex>69</clipindex>
					</link>
					<link>
						<linkclipref>010_12_01_B_OK2</linkclipref>
						<mediatype>audio</mediatype>
						<trackindex>1</trackindex>
						<clipindex>69</clipindex>
					</link>
					<link>
						<linkclipref>010_12_01_B_OK3</linkclipref>
						<mediatype>audio</mediatype>
						<trackindex>2</trackindex>
						<clipindex>69</clipindex>
					</link>
					<link>
						<linkclipref>010_12_01_B_OK4</linkclipref>
						<mediatype>audio</mediatype>
						<trackindex>3</trackindex>
						<clipindex>67</clipindex>
					</link>
					<link>
						<linkclipref>010_12_01_B_OK5</linkclipref>
						<mediatype>audio</mediatype>
						<trackindex>4</trackindex>
						<clipindex>43</clipindex>
					</link>
					<itemhistory>
						<uuid>A288612F-9817-4431-AC4B-6CB3B9358068</uuid>
					</itemhistory>
				</clipitem>
				<clipitem id="010_12_02_A_OK3">
					<name>010_12_02_A_OK</name>
					<duration>689</duration>
					<rate>
						<ntsc>FALSE</ntsc>
						<timebase>24</timebase>
					</rate>
					<in>128</in>
					<out>186</out>
					<start>36830</start>
					<end>36888</end>
					<subframeoffset>0</subframeoffset>
					<enabled>TRUE</enabled>
					<masterclipid>010_12_02_A_OK1</masterclipid>
					<logginginfo>
						<scene/>
						<shottake/>
						<lognote/>
						<good>FALSE</good>
					</logginginfo>
					<labels>
						<label2/>
					</labels>
					<comments>
						<mastercomment1/>
						<mastercomment2/>
						<mastercomment3/>
						<mastercomment4/>
					</comments>
					<file id="A003C001_221211_R03K"/>
					<filter>
						<effect>
							<name>Audio Levels</name>
							<effectid>audiolevels</effectid>
							<effectcategory>audiolevels</effectcategory>
							<effecttype>audiolevels</effecttype>
							<mediatype>audio</mediatype>
							<parameter>
								<name>Level</name>
								<parameterid>level</parameterid>
								<valuemin>0</valuemin>
								<valuemax>3.98109</valuemax>
								<value>1</value>
							</parameter>
						</effect>
					</filter>
					<filter>
						<effect>
							<name>Audio Pan</name>
							<effectid>audiopan</effectid>
							<effectcategory>audiopan</effectcategory>
							<effecttype>audiopan</effecttype>
							<mediatype>audio</mediatype>
							<parameter>
								<name>Pan</name>
								<parameterid>pan</parameterid>
								<valuemin>-1</valuemin>
								<valuemax>1</valuemax>
								<value>0</value>
							</parameter>
						</effect>
					</filter>
					<sourcetrack>
						<mediatype>audio</mediatype>
						<trackindex>2</trackindex>
					</sourcetrack>
					<link>
						<linkclipref>010_12_02_A_OK</linkclipref>
						<mediatype>video</mediatype>
						<trackindex>1</trackindex>
						<clipindex>70</clipindex>
					</link>
					<link>
						<linkclipref>010_12_02_A_OK2</linkclipref>
						<mediatype>audio</mediatype>
						<trackindex>1</trackindex>
						<clipindex>70</clipindex>
					</link>
					<link>
						<linkclipref>010_12_02_A_OK3</linkclipref>
						<mediatype>audio</mediatype>
						<trackindex>2</trackindex>
						<clipindex>70</clipindex>
					</link>
					<link>
						<linkclipref>010_12_02_A_OK4</linkclipref>
						<mediatype>audio</mediatype>
						<trackindex>3</trackindex>
						<clipindex>68</clipindex>
					</link>
					<link>
						<linkclipref>010_12_02_A_OK5</linkclipref>
						<mediatype>audio</mediatype>
						<trackindex>4</trackindex>
						<clipindex>44</clipindex>
					</link>
					<itemhistory>
						<uuid>D9C123AD-9EB4-47C2-9F6F-2FB50069CB16</uuid>
					</itemhistory>
				</clipitem>
				<clipitem id="010_12_02_B_OK3">
					<name>010_12_02_B_OK</name>
					<duration>679</duration>
					<rate>
						<ntsc>FALSE</ntsc>
						<timebase>24</timebase>
					</rate>
					<in>508</in>
					<out>565</out>
					<start>36888</start>
					<end>36945</end>
					<subframeoffset>0</subframeoffset>
					<enabled>TRUE</enabled>
					<masterclipid>010_12_02_B_OK1</masterclipid>
					<logginginfo>
						<scene/>
						<shottake/>
						<lognote/>
						<good>FALSE</good>
					</logginginfo>
					<labels>
						<label2/>
					</labels>
					<comments>
						<mastercomment1/>
						<mastercomment2/>
						<mastercomment3/>
						<mastercomment4/>
					</comments>
					<file id="B002C012_130101_R1WX"/>
					<filter>
						<effect>
							<name>Audio Levels</name>
							<effectid>audiolevels</effectid>
							<effectcategory>audiolevels</effectcategory>
							<effecttype>audiolevels</effecttype>
							<mediatype>audio</mediatype>
							<parameter>
								<name>Level</name>
								<parameterid>level</parameterid>
								<valuemin>0</valuemin>
								<valuemax>3.98109</valuemax>
								<value>1</value>
							</parameter>
						</effect>
					</filter>
					<filter>
						<effect>
							<name>Audio Pan</name>
							<effectid>audiopan</effectid>
							<effectcategory>audiopan</effectcategory>
							<effecttype>audiopan</effecttype>
							<mediatype>audio</mediatype>
							<parameter>
								<name>Pan</name>
								<parameterid>pan</parameterid>
								<valuemin>-1</valuemin>
								<valuemax>1</valuemax>
								<value>0</value>
							</parameter>
						</effect>
					</filter>
					<sourcetrack>
						<mediatype>audio</mediatype>
						<trackindex>2</trackindex>
					</sourcetrack>
					<link>
						<linkclipref>010_12_02_B_OK</linkclipref>
						<mediatype>video</mediatype>
						<trackindex>1</trackindex>
						<clipindex>71</clipindex>
					</link>
					<link>
						<linkclipref>010_12_02_B_OK2</linkclipref>
						<mediatype>audio</mediatype>
						<trackindex>1</trackindex>
						<clipindex>71</clipindex>
					</link>
					<link>
						<linkclipref>010_12_02_B_OK3</linkclipref>
						<mediatype>audio</mediatype>
						<trackindex>2</trackindex>
						<clipindex>71</clipindex>
					</link>
					<link>
						<linkclipref>010_12_02_B_OK4</linkclipref>
						<mediatype>audio</mediatype>
						<trackindex>3</trackindex>
						<clipindex>69</clipindex>
					</link>
					<link>
						<linkclipref>010_12_02_B_OK5</linkclipref>
						<mediatype>audio</mediatype>
						<trackindex>4</trackindex>
						<clipindex>45</clipindex>
					</link>
					<itemhistory>
						<uuid>A406AD15-786A-4FB1-803E-446C3B22FFE6</uuid>
					</itemhistory>
				</clipitem>
				<clipitem id="010_12_03_A3">
					<name>010_12_03_A</name>
					<duration>1553</duration>
					<rate>
						<ntsc>FALSE</ntsc>
						<timebase>24</timebase>
					</rate>
					<in>0</in>
					<out>1553</out>
					<start>36945</start>
					<end>38498</end>
					<subframeoffset>0</subframeoffset>
					<enabled>TRUE</enabled>
					<masterclipid>010_12_03_A1</masterclipid>
					<logginginfo>
						<scene/>
						<shottake/>
						<lognote/>
						<good>FALSE</good>
					</logginginfo>
					<labels>
						<label2/>
					</labels>
					<comments>
						<mastercomment1/>
						<mastercomment2/>
						<mastercomment3/>
						<mastercomment4/>
					</comments>
					<file id="A003C002_221211_R03K"/>
					<filter>
						<effect>
							<name>Audio Levels</name>
							<effectid>audiolevels</effectid>
							<effectcategory>audiolevels</effectcategory>
							<effecttype>audiolevels</effecttype>
							<mediatype>audio</mediatype>
							<parameter>
								<name>Level</name>
								<parameterid>level</parameterid>
								<valuemin>0</valuemin>
								<valuemax>3.98109</valuemax>
								<value>1</value>
							</parameter>
						</effect>
					</filter>
					<filter>
						<effect>
							<name>Audio Pan</name>
							<effectid>audiopan</effectid>
							<effectcategory>audiopan</effectcategory>
							<effecttype>audiopan</effecttype>
							<mediatype>audio</mediatype>
							<parameter>
								<name>Pan</name>
								<parameterid>pan</parameterid>
								<valuemin>-1</valuemin>
								<valuemax>1</valuemax>
								<value>0</value>
							</parameter>
						</effect>
					</filter>
					<sourcetrack>
						<mediatype>audio</mediatype>
						<trackindex>2</trackindex>
					</sourcetrack>
					<link>
						<linkclipref>010_12_03_A</linkclipref>
						<mediatype>video</mediatype>
						<trackindex>1</trackindex>
						<clipindex>72</clipindex>
					</link>
					<link>
						<linkclipref>010_12_03_A2</linkclipref>
						<mediatype>audio</mediatype>
						<trackindex>1</trackindex>
						<clipindex>72</clipindex>
					</link>
					<link>
						<linkclipref>010_12_03_A3</linkclipref>
						<mediatype>audio</mediatype>
						<trackindex>2</trackindex>
						<clipindex>72</clipindex>
					</link>
					<link>
						<linkclipref>010_12_03_A4</linkclipref>
						<mediatype>audio</mediatype>
						<trackindex>3</trackindex>
						<clipindex>70</clipindex>
					</link>
					<itemhistory>
						<uuid>10D2A8A2-E4ED-47D5-A1E0-4B741A05CFA7</uuid>
					</itemhistory>
				</clipitem>
				<clipitem id="010_12_03_B3">
					<name>010_12_03_B</name>
					<duration>1552</duration>
					<rate>
						<ntsc>FALSE</ntsc>
						<timebase>24</timebase>
					</rate>
					<in>0</in>
					<out>1552</out>
					<start>38498</start>
					<end>40050</end>
					<subframeoffset>0</subframeoffset>
					<enabled>TRUE</enabled>
					<masterclipid>010_12_03_B1</masterclipid>
					<logginginfo>
						<scene/>
						<shottake/>
						<lognote/>
						<good>FALSE</good>
					</logginginfo>
					<labels>
						<label2/>
					</labels>
					<comments>
						<mastercomment1/>
						<mastercomment2/>
						<mastercomment3/>
						<mastercomment4/>
					</comments>
					<file id="B002C013_130101_R1WX"/>
					<filter>
						<effect>
							<name>Audio Levels</name>
							<effectid>audiolevels</effectid>
							<effectcategory>audiolevels</effectcategory>
							<effecttype>audiolevels</effecttype>
							<mediatype>audio</mediatype>
							<parameter>
								<name>Level</name>
								<parameterid>level</parameterid>
								<valuemin>0</valuemin>
								<valuemax>3.98109</valuemax>
								<value>1</value>
							</parameter>
						</effect>
					</filter>
					<filter>
						<effect>
							<name>Audio Pan</name>
							<effectid>audiopan</effectid>
							<effectcategory>audiopan</effectcategory>
							<effecttype>audiopan</effecttype>
							<mediatype>audio</mediatype>
							<parameter>
								<name>Pan</name>
								<parameterid>pan</parameterid>
								<valuemin>-1</valuemin>
								<valuemax>1</valuemax>
								<value>0</value>
							</parameter>
						</effect>
					</filter>
					<sourcetrack>
						<mediatype>audio</mediatype>
						<trackindex>2</trackindex>
					</sourcetrack>
					<link>
						<linkclipref>010_12_03_B</linkclipref>
						<mediatype>video</mediatype>
						<trackindex>1</trackindex>
						<clipindex>73</clipindex>
					</link>
					<link>
						<linkclipref>010_12_03_B2</linkclipref>
						<mediatype>audio</mediatype>
						<trackindex>1</trackindex>
						<clipindex>73</clipindex>
					</link>
					<link>
						<linkclipref>010_12_03_B3</linkclipref>
						<mediatype>audio</mediatype>
						<trackindex>2</trackindex>
						<clipindex>73</clipindex>
					</link>
					<link>
						<linkclipref>010_12_03_B4</linkclipref>
						<mediatype>audio</mediatype>
						<trackindex>3</trackindex>
						<clipindex>71</clipindex>
					</link>
					<itemhistory>
						<uuid>BBAEB0A2-30A7-45C7-8540-2E1FC13D7926</uuid>
					</itemhistory>
				</clipitem>
				<clipitem id="010_13_01_A_OK3">
					<name>010_13_01_A_OK</name>
					<duration>1518</duration>
					<rate>
						<ntsc>FALSE</ntsc>
						<timebase>24</timebase>
					</rate>
					<in>228</in>
					<out>305</out>
					<start>40050</start>
					<end>40127</end>
					<subframeoffset>0</subframeoffset>
					<enabled>TRUE</enabled>
					<masterclipid>010_13_01_A_OK1</masterclipid>
					<logginginfo>
						<scene/>
						<shottake/>
						<lognote/>
						<good>FALSE</good>
					</logginginfo>
					<labels>
						<label2/>
					</labels>
					<comments>
						<mastercomment1/>
						<mastercomment2/>
						<mastercomment3/>
						<mastercomment4/>
					</comments>
					<file id="A003C003_221211_R03K"/>
					<filter>
						<effect>
							<name>Audio Levels</name>
							<effectid>audiolevels</effectid>
							<effectcategory>audiolevels</effectcategory>
							<effecttype>audiolevels</effecttype>
							<mediatype>audio</mediatype>
							<parameter>
								<name>Level</name>
								<parameterid>level</parameterid>
								<valuemin>0</valuemin>
								<valuemax>3.98109</valuemax>
								<value>1</value>
							</parameter>
						</effect>
					</filter>
					<filter>
						<effect>
							<name>Audio Pan</name>
							<effectid>audiopan</effectid>
							<effectcategory>audiopan</effectcategory>
							<effecttype>audiopan</effecttype>
							<mediatype>audio</mediatype>
							<parameter>
								<name>Pan</name>
								<parameterid>pan</parameterid>
								<valuemin>-1</valuemin>
								<valuemax>1</valuemax>
								<value>0</value>
							</parameter>
						</effect>
					</filter>
					<sourcetrack>
						<mediatype>audio</mediatype>
						<trackindex>2</trackindex>
					</sourcetrack>
					<link>
						<linkclipref>010_13_01_A_OK</linkclipref>
						<mediatype>video</mediatype>
						<trackindex>1</trackindex>
						<clipindex>74</clipindex>
					</link>
					<link>
						<linkclipref>010_13_01_A_OK2</linkclipref>
						<mediatype>audio</mediatype>
						<trackindex>1</trackindex>
						<clipindex>74</clipindex>
					</link>
					<link>
						<linkclipref>010_13_01_A_OK3</linkclipref>
						<mediatype>audio</mediatype>
						<trackindex>2</trackindex>
						<clipindex>74</clipindex>
					</link>
					<link>
						<linkclipref>010_13_01_A_OK4</linkclipref>
						<mediatype>audio</mediatype>
						<trackindex>3</trackindex>
						<clipindex>72</clipindex>
					</link>
					<itemhistory>
						<uuid>34CC854A-9BBA-4CA0-881C-62D7BD8FD836</uuid>
					</itemhistory>
				</clipitem>
				<clipitem id="010_13_01_B_OK3">
					<name>010_13_01_B_OK</name>
					<duration>1503</duration>
					<rate>
						<ntsc>FALSE</ntsc>
						<timebase>24</timebase>
					</rate>
					<in>155</in>
					<out>1503</out>
					<start>40127</start>
					<end>41475</end>
					<subframeoffset>0</subframeoffset>
					<enabled>TRUE</enabled>
					<masterclipid>010_13_01_B_OK1</masterclipid>
					<logginginfo>
						<scene/>
						<shottake/>
						<lognote/>
						<good>FALSE</good>
					</logginginfo>
					<labels>
						<label2/>
					</labels>
					<comments>
						<mastercomment1/>
						<mastercomment2/>
						<mastercomment3/>
						<mastercomment4/>
					</comments>
					<file id="B002C014_130101_R1WX"/>
					<filter>
						<effect>
							<name>Audio Levels</name>
							<effectid>audiolevels</effectid>
							<effectcategory>audiolevels</effectcategory>
							<effecttype>audiolevels</effecttype>
							<mediatype>audio</mediatype>
							<parameter>
								<name>Level</name>
								<parameterid>level</parameterid>
								<valuemin>0</valuemin>
								<valuemax>3.98109</valuemax>
								<value>1</value>
							</parameter>
						</effect>
					</filter>
					<filter>
						<effect>
							<name>Audio Pan</name>
							<effectid>audiopan</effectid>
							<effectcategory>audiopan</effectcategory>
							<effecttype>audiopan</effecttype>
							<mediatype>audio</mediatype>
							<parameter>
								<name>Pan</name>
								<parameterid>pan</parameterid>
								<valuemin>-1</valuemin>
								<valuemax>1</valuemax>
								<value>0</value>
							</parameter>
						</effect>
					</filter>
					<sourcetrack>
						<mediatype>audio</mediatype>
						<trackindex>2</trackindex>
					</sourcetrack>
					<link>
						<linkclipref>010_13_01_B_OK</linkclipref>
						<mediatype>video</mediatype>
						<trackindex>1</trackindex>
						<clipindex>75</clipindex>
					</link>
					<link>
						<linkclipref>010_13_01_B_OK2</linkclipref>
						<mediatype>audio</mediatype>
						<trackindex>1</trackindex>
						<clipindex>75</clipindex>
					</link>
					<link>
						<linkclipref>010_13_01_B_OK3</linkclipref>
						<mediatype>audio</mediatype>
						<trackindex>2</trackindex>
						<clipindex>75</clipindex>
					</link>
					<link>
						<linkclipref>010_13_01_B_OK4</linkclipref>
						<mediatype>audio</mediatype>
						<trackindex>3</trackindex>
						<clipindex>73</clipindex>
					</link>
					<itemhistory>
						<uuid>B6AE6CC7-A37B-40CD-97A5-D38F0CA87D07</uuid>
					</itemhistory>
				</clipitem>
				<clipitem id="010_14_01_A3">
					<name>010_14_01_A</name>
					<duration>330</duration>
					<rate>
						<ntsc>FALSE</ntsc>
						<timebase>24</timebase>
					</rate>
					<in>0</in>
					<out>330</out>
					<start>41475</start>
					<end>41805</end>
					<subframeoffset>0</subframeoffset>
					<enabled>TRUE</enabled>
					<masterclipid>010_14_01_A1</masterclipid>
					<logginginfo>
						<scene/>
						<shottake/>
						<lognote/>
						<good>FALSE</good>
					</logginginfo>
					<labels>
						<label2/>
					</labels>
					<comments>
						<mastercomment1/>
						<mastercomment2/>
						<mastercomment3/>
						<mastercomment4/>
					</comments>
					<file id="A003C004_221211_R03K"/>
					<filter>
						<effect>
							<name>Audio Levels</name>
							<effectid>audiolevels</effectid>
							<effectcategory>audiolevels</effectcategory>
							<effecttype>audiolevels</effecttype>
							<mediatype>audio</mediatype>
							<parameter>
								<name>Level</name>
								<parameterid>level</parameterid>
								<valuemin>0</valuemin>
								<valuemax>3.98109</valuemax>
								<value>1</value>
							</parameter>
						</effect>
					</filter>
					<filter>
						<effect>
							<name>Audio Pan</name>
							<effectid>audiopan</effectid>
							<effectcategory>audiopan</effectcategory>
							<effecttype>audiopan</effecttype>
							<mediatype>audio</mediatype>
							<parameter>
								<name>Pan</name>
								<parameterid>pan</parameterid>
								<valuemin>-1</valuemin>
								<valuemax>1</valuemax>
								<value>0</value>
							</parameter>
						</effect>
					</filter>
					<sourcetrack>
						<mediatype>audio</mediatype>
						<trackindex>2</trackindex>
					</sourcetrack>
					<link>
						<linkclipref>010_14_01_A</linkclipref>
						<mediatype>video</mediatype>
						<trackindex>1</trackindex>
						<clipindex>76</clipindex>
					</link>
					<link>
						<linkclipref>010_14_01_A2</linkclipref>
						<mediatype>audio</mediatype>
						<trackindex>1</trackindex>
						<clipindex>76</clipindex>
					</link>
					<link>
						<linkclipref>010_14_01_A3</linkclipref>
						<mediatype>audio</mediatype>
						<trackindex>2</trackindex>
						<clipindex>76</clipindex>
					</link>
					<link>
						<linkclipref>010_14_01_A4</linkclipref>
						<mediatype>audio</mediatype>
						<trackindex>3</trackindex>
						<clipindex>74</clipindex>
					</link>
					<itemhistory>
						<uuid>F05B061A-7AD0-4AD6-8B87-FE53DEB04069</uuid>
					</itemhistory>
				</clipitem>
				<clipitem id="010_14_02_A3">
					<name>010_14_02_A</name>
					<duration>279</duration>
					<rate>
						<ntsc>FALSE</ntsc>
						<timebase>24</timebase>
					</rate>
					<in>0</in>
					<out>279</out>
					<start>41805</start>
					<end>42084</end>
					<subframeoffset>0</subframeoffset>
					<enabled>TRUE</enabled>
					<masterclipid>010_14_02_A1</masterclipid>
					<logginginfo>
						<scene/>
						<shottake/>
						<lognote/>
						<good>FALSE</good>
					</logginginfo>
					<labels>
						<label2/>
					</labels>
					<comments>
						<mastercomment1/>
						<mastercomment2/>
						<mastercomment3/>
						<mastercomment4/>
					</comments>
					<file id="A003C005_221211_R03K"/>
					<filter>
						<effect>
							<name>Audio Levels</name>
							<effectid>audiolevels</effectid>
							<effectcategory>audiolevels</effectcategory>
							<effecttype>audiolevels</effecttype>
							<mediatype>audio</mediatype>
							<parameter>
								<name>Level</name>
								<parameterid>level</parameterid>
								<valuemin>0</valuemin>
								<valuemax>3.98109</valuemax>
								<value>1</value>
							</parameter>
						</effect>
					</filter>
					<filter>
						<effect>
							<name>Audio Pan</name>
							<effectid>audiopan</effectid>
							<effectcategory>audiopan</effectcategory>
							<effecttype>audiopan</effecttype>
							<mediatype>audio</mediatype>
							<parameter>
								<name>Pan</name>
								<parameterid>pan</parameterid>
								<valuemin>-1</valuemin>
								<valuemax>1</valuemax>
								<value>0</value>
							</parameter>
						</effect>
					</filter>
					<sourcetrack>
						<mediatype>audio</mediatype>
						<trackindex>2</trackindex>
					</sourcetrack>
					<link>
						<linkclipref>010_14_02_A</linkclipref>
						<mediatype>video</mediatype>
						<trackindex>1</trackindex>
						<clipindex>77</clipindex>
					</link>
					<link>
						<linkclipref>010_14_02_A2</linkclipref>
						<mediatype>audio</mediatype>
						<trackindex>1</trackindex>
						<clipindex>77</clipindex>
					</link>
					<link>
						<linkclipref>010_14_02_A3</linkclipref>
						<mediatype>audio</mediatype>
						<trackindex>2</trackindex>
						<clipindex>77</clipindex>
					</link>
					<link>
						<linkclipref>010_14_02_A4</linkclipref>
						<mediatype>audio</mediatype>
						<trackindex>3</trackindex>
						<clipindex>75</clipindex>
					</link>
					<itemhistory>
						<uuid>496C5FB2-2D39-47D4-B18E-6D8B6047532A</uuid>
					</itemhistory>
				</clipitem>
				<clipitem id="010_14_03_A_OK3">
					<name>010_14_03_A_OK</name>
					<duration>354</duration>
					<rate>
						<ntsc>FALSE</ntsc>
						<timebase>24</timebase>
					</rate>
					<in>67</in>
					<out>152</out>
					<start>42084</start>
					<end>42169</end>
					<subframeoffset>0</subframeoffset>
					<enabled>TRUE</enabled>
					<masterclipid>010_14_03_A_OK1</masterclipid>
					<logginginfo>
						<scene/>
						<shottake/>
						<lognote/>
						<good>FALSE</good>
					</logginginfo>
					<labels>
						<label2/>
					</labels>
					<comments>
						<mastercomment1/>
						<mastercomment2/>
						<mastercomment3/>
						<mastercomment4/>
					</comments>
					<file id="A003C006_221211_R03K"/>
					<filter>
						<effect>
							<name>Audio Levels</name>
							<effectid>audiolevels</effectid>
							<effectcategory>audiolevels</effectcategory>
							<effecttype>audiolevels</effecttype>
							<mediatype>audio</mediatype>
							<parameter>
								<name>Level</name>
								<parameterid>level</parameterid>
								<valuemin>0</valuemin>
								<valuemax>3.98109</valuemax>
								<value>1</value>
							</parameter>
						</effect>
					</filter>
					<filter>
						<effect>
							<name>Audio Pan</name>
							<effectid>audiopan</effectid>
							<effectcategory>audiopan</effectcategory>
							<effecttype>audiopan</effecttype>
							<mediatype>audio</mediatype>
							<parameter>
								<name>Pan</name>
								<parameterid>pan</parameterid>
								<valuemin>-1</valuemin>
								<valuemax>1</valuemax>
								<value>0</value>
							</parameter>
						</effect>
					</filter>
					<sourcetrack>
						<mediatype>audio</mediatype>
						<trackindex>2</trackindex>
					</sourcetrack>
					<link>
						<linkclipref>010_14_03_A_OK</linkclipref>
						<mediatype>video</mediatype>
						<trackindex>1</trackindex>
						<clipindex>78</clipindex>
					</link>
					<link>
						<linkclipref>010_14_03_A_OK2</linkclipref>
						<mediatype>audio</mediatype>
						<trackindex>1</trackindex>
						<clipindex>78</clipindex>
					</link>
					<link>
						<linkclipref>010_14_03_A_OK3</linkclipref>
						<mediatype>audio</mediatype>
						<trackindex>2</trackindex>
						<clipindex>78</clipindex>
					</link>
					<link>
						<linkclipref>010_14_03_A_OK4</linkclipref>
						<mediatype>audio</mediatype>
						<trackindex>3</trackindex>
						<clipindex>76</clipindex>
					</link>
					<itemhistory>
						<uuid>9AF2D465-6772-45F1-8149-675C04B9CDAF</uuid>
					</itemhistory>
				</clipitem>
				<clipitem id="010_15_01_A3">
					<name>010_15_01_A</name>
					<duration>1316</duration>
					<rate>
						<ntsc>FALSE</ntsc>
						<timebase>24</timebase>
					</rate>
					<in>0</in>
					<out>1316</out>
					<start>42169</start>
					<end>43485</end>
					<subframeoffset>0</subframeoffset>
					<enabled>TRUE</enabled>
					<masterclipid>010_15_01_A1</masterclipid>
					<logginginfo>
						<scene/>
						<shottake/>
						<lognote/>
						<good>FALSE</good>
					</logginginfo>
					<labels>
						<label2/>
					</labels>
					<comments>
						<mastercomment1/>
						<mastercomment2/>
						<mastercomment3/>
						<mastercomment4/>
					</comments>
					<file id="A003C007_221211_R03K"/>
					<filter>
						<effect>
							<name>Audio Levels</name>
							<effectid>audiolevels</effectid>
							<effectcategory>audiolevels</effectcategory>
							<effecttype>audiolevels</effecttype>
							<mediatype>audio</mediatype>
							<parameter>
								<name>Level</name>
								<parameterid>level</parameterid>
								<valuemin>0</valuemin>
								<valuemax>3.98109</valuemax>
								<value>1</value>
							</parameter>
						</effect>
					</filter>
					<filter>
						<effect>
							<name>Audio Pan</name>
							<effectid>audiopan</effectid>
							<effectcategory>audiopan</effectcategory>
							<effecttype>audiopan</effecttype>
							<mediatype>audio</mediatype>
							<parameter>
								<name>Pan</name>
								<parameterid>pan</parameterid>
								<valuemin>-1</valuemin>
								<valuemax>1</valuemax>
								<value>0</value>
							</parameter>
						</effect>
					</filter>
					<sourcetrack>
						<mediatype>audio</mediatype>
						<trackindex>2</trackindex>
					</sourcetrack>
					<link>
						<linkclipref>010_15_01_A</linkclipref>
						<mediatype>video</mediatype>
						<trackindex>1</trackindex>
						<clipindex>79</clipindex>
					</link>
					<link>
						<linkclipref>010_15_01_A2</linkclipref>
						<mediatype>audio</mediatype>
						<trackindex>1</trackindex>
						<clipindex>79</clipindex>
					</link>
					<link>
						<linkclipref>010_15_01_A3</linkclipref>
						<mediatype>audio</mediatype>
						<trackindex>2</trackindex>
						<clipindex>79</clipindex>
					</link>
					<link>
						<linkclipref>010_15_01_A4</linkclipref>
						<mediatype>audio</mediatype>
						<trackindex>3</trackindex>
						<clipindex>77</clipindex>
					</link>
					<itemhistory>
						<uuid>8BF2A0B6-4FA7-4B6F-BA3D-4341D66B5224</uuid>
					</itemhistory>
				</clipitem>
				<clipitem id="010_15_02_A_OK3">
					<name>010_15_02_A_OK</name>
					<duration>1300</duration>
					<rate>
						<ntsc>FALSE</ntsc>
						<timebase>24</timebase>
					</rate>
					<in>327</in>
					<out>411</out>
					<start>43485</start>
					<end>43569</end>
					<subframeoffset>0</subframeoffset>
					<enabled>TRUE</enabled>
					<masterclipid>010_15_02_A_OK1</masterclipid>
					<logginginfo>
						<scene/>
						<shottake/>
						<lognote/>
						<good>FALSE</good>
					</logginginfo>
					<labels>
						<label2/>
					</labels>
					<comments>
						<mastercomment1/>
						<mastercomment2/>
						<mastercomment3/>
						<mastercomment4/>
					</comments>
					<file id="A003C008_221211_R03K"/>
					<filter>
						<effect>
							<name>Audio Levels</name>
							<effectid>audiolevels</effectid>
							<effectcategory>audiolevels</effectcategory>
							<effecttype>audiolevels</effecttype>
							<mediatype>audio</mediatype>
							<parameter>
								<name>Level</name>
								<parameterid>level</parameterid>
								<valuemin>0</valuemin>
								<valuemax>3.98109</valuemax>
								<value>1</value>
							</parameter>
						</effect>
					</filter>
					<filter>
						<effect>
							<name>Audio Pan</name>
							<effectid>audiopan</effectid>
							<effectcategory>audiopan</effectcategory>
							<effecttype>audiopan</effecttype>
							<mediatype>audio</mediatype>
							<parameter>
								<name>Pan</name>
								<parameterid>pan</parameterid>
								<valuemin>-1</valuemin>
								<valuemax>1</valuemax>
								<value>0</value>
							</parameter>
						</effect>
					</filter>
					<sourcetrack>
						<mediatype>audio</mediatype>
						<trackindex>2</trackindex>
					</sourcetrack>
					<link>
						<linkclipref>010_15_02_A_OK</linkclipref>
						<mediatype>video</mediatype>
						<trackindex>1</trackindex>
						<clipindex>80</clipindex>
					</link>
					<link>
						<linkclipref>010_15_02_A_OK2</linkclipref>
						<mediatype>audio</mediatype>
						<trackindex>1</trackindex>
						<clipindex>80</clipindex>
					</link>
					<link>
						<linkclipref>010_15_02_A_OK3</linkclipref>
						<mediatype>audio</mediatype>
						<trackindex>2</trackindex>
						<clipindex>80</clipindex>
					</link>
					<link>
						<linkclipref>010_15_02_A_OK4</linkclipref>
						<mediatype>audio</mediatype>
						<trackindex>3</trackindex>
						<clipindex>78</clipindex>
					</link>
					<itemhistory>
						<uuid>1D9342DD-F893-4F80-97F0-2B82BCA570FC</uuid>
					</itemhistory>
				</clipitem>
				<clipitem id="010_16_01_A3">
					<name>010_16_01_A</name>
					<duration>268</duration>
					<rate>
						<ntsc>FALSE</ntsc>
						<timebase>24</timebase>
					</rate>
					<in>0</in>
					<out>268</out>
					<start>43569</start>
					<end>43837</end>
					<subframeoffset>0</subframeoffset>
					<enabled>TRUE</enabled>
					<masterclipid>010_16_01_A1</masterclipid>
					<logginginfo>
						<scene/>
						<shottake/>
						<lognote/>
						<good>FALSE</good>
					</logginginfo>
					<labels>
						<label2/>
					</labels>
					<comments>
						<mastercomment1/>
						<mastercomment2/>
						<mastercomment3/>
						<mastercomment4/>
					</comments>
					<file id="A003C009_221211_R03K"/>
					<filter>
						<effect>
							<name>Audio Levels</name>
							<effectid>audiolevels</effectid>
							<effectcategory>audiolevels</effectcategory>
							<effecttype>audiolevels</effecttype>
							<mediatype>audio</mediatype>
							<parameter>
								<name>Level</name>
								<parameterid>level</parameterid>
								<valuemin>0</valuemin>
								<valuemax>3.98109</valuemax>
								<value>1</value>
							</parameter>
						</effect>
					</filter>
					<filter>
						<effect>
							<name>Audio Pan</name>
							<effectid>audiopan</effectid>
							<effectcategory>audiopan</effectcategory>
							<effecttype>audiopan</effecttype>
							<mediatype>audio</mediatype>
							<parameter>
								<name>Pan</name>
								<parameterid>pan</parameterid>
								<valuemin>-1</valuemin>
								<valuemax>1</valuemax>
								<value>0</value>
							</parameter>
						</effect>
					</filter>
					<sourcetrack>
						<mediatype>audio</mediatype>
						<trackindex>2</trackindex>
					</sourcetrack>
					<link>
						<linkclipref>010_16_01_A</linkclipref>
						<mediatype>video</mediatype>
						<trackindex>1</trackindex>
						<clipindex>81</clipindex>
					</link>
					<link>
						<linkclipref>010_16_01_A2</linkclipref>
						<mediatype>audio</mediatype>
						<trackindex>1</trackindex>
						<clipindex>81</clipindex>
					</link>
					<link>
						<linkclipref>010_16_01_A3</linkclipref>
						<mediatype>audio</mediatype>
						<trackindex>2</trackindex>
						<clipindex>81</clipindex>
					</link>
					<link>
						<linkclipref>010_16_01_A4</linkclipref>
						<mediatype>audio</mediatype>
						<trackindex>3</trackindex>
						<clipindex>79</clipindex>
					</link>
					<link>
						<linkclipref>010_16_01_A5</linkclipref>
						<mediatype>audio</mediatype>
						<trackindex>4</trackindex>
						<clipindex>46</clipindex>
					</link>
					<itemhistory>
						<uuid>5BFB646E-0552-461B-80AA-BCD116BEDAFF</uuid>
					</itemhistory>
				</clipitem>
				<clipitem id="010_16_02_A_OK3">
					<name>010_16_02_A_OK</name>
					<duration>284</duration>
					<rate>
						<ntsc>FALSE</ntsc>
						<timebase>24</timebase>
					</rate>
					<in>87</in>
					<out>117</out>
					<start>43837</start>
					<end>43867</end>
					<subframeoffset>0</subframeoffset>
					<enabled>TRUE</enabled>
					<masterclipid>010_16_02_A_OK1</masterclipid>
					<logginginfo>
						<scene/>
						<shottake/>
						<lognote/>
						<good>FALSE</good>
					</logginginfo>
					<labels>
						<label2/>
					</labels>
					<comments>
						<mastercomment1/>
						<mastercomment2/>
						<mastercomment3/>
						<mastercomment4/>
					</comments>
					<file id="A003C010_221211_R03K"/>
					<filter>
						<effect>
							<name>Audio Levels</name>
							<effectid>audiolevels</effectid>
							<effectcategory>audiolevels</effectcategory>
							<effecttype>audiolevels</effecttype>
							<mediatype>audio</mediatype>
							<parameter>
								<name>Level</name>
								<parameterid>level</parameterid>
								<valuemin>0</valuemin>
								<valuemax>3.98109</valuemax>
								<value>1</value>
							</parameter>
						</effect>
					</filter>
					<filter>
						<effect>
							<name>Audio Pan</name>
							<effectid>audiopan</effectid>
							<effectcategory>audiopan</effectcategory>
							<effecttype>audiopan</effecttype>
							<mediatype>audio</mediatype>
							<parameter>
								<name>Pan</name>
								<parameterid>pan</parameterid>
								<valuemin>-1</valuemin>
								<valuemax>1</valuemax>
								<value>0</value>
							</parameter>
						</effect>
					</filter>
					<sourcetrack>
						<mediatype>audio</mediatype>
						<trackindex>2</trackindex>
					</sourcetrack>
					<link>
						<linkclipref>010_16_02_A_OK</linkclipref>
						<mediatype>video</mediatype>
						<trackindex>1</trackindex>
						<clipindex>82</clipindex>
					</link>
					<link>
						<linkclipref>010_16_02_A_OK2</linkclipref>
						<mediatype>audio</mediatype>
						<trackindex>1</trackindex>
						<clipindex>82</clipindex>
					</link>
					<link>
						<linkclipref>010_16_02_A_OK3</linkclipref>
						<mediatype>audio</mediatype>
						<trackindex>2</trackindex>
						<clipindex>82</clipindex>
					</link>
					<link>
						<linkclipref>010_16_02_A_OK4</linkclipref>
						<mediatype>audio</mediatype>
						<trackindex>3</trackindex>
						<clipindex>80</clipindex>
					</link>
					<link>
						<linkclipref>010_16_02_A_OK5</linkclipref>
						<mediatype>audio</mediatype>
						<trackindex>4</trackindex>
						<clipindex>47</clipindex>
					</link>
					<itemhistory>
						<uuid>CA089A28-7CAF-4F8C-BE16-17B13C5F1389</uuid>
					</itemhistory>
				</clipitem>
				<clipitem id="010_17_01_B3">
					<name>010_17_01_B</name>
					<duration>709</duration>
					<rate>
						<ntsc>FALSE</ntsc>
						<timebase>24</timebase>
					</rate>
					<in>0</in>
					<out>709</out>
					<start>43867</start>
					<end>44576</end>
					<subframeoffset>0</subframeoffset>
					<enabled>TRUE</enabled>
					<masterclipid>010_17_01_B1</masterclipid>
					<logginginfo>
						<scene/>
						<shottake/>
						<lognote/>
						<good>FALSE</good>
					</logginginfo>
					<labels>
						<label2/>
					</labels>
					<comments>
						<mastercomment1/>
						<mastercomment2/>
						<mastercomment3/>
						<mastercomment4/>
					</comments>
					<file id="B002C015_130101_R1WX"/>
					<filter>
						<effect>
							<name>Audio Levels</name>
							<effectid>audiolevels</effectid>
							<effectcategory>audiolevels</effectcategory>
							<effecttype>audiolevels</effecttype>
							<mediatype>audio</mediatype>
							<parameter>
								<name>Level</name>
								<parameterid>level</parameterid>
								<valuemin>0</valuemin>
								<valuemax>3.98109</valuemax>
								<value>1</value>
							</parameter>
						</effect>
					</filter>
					<filter>
						<effect>
							<name>Audio Pan</name>
							<effectid>audiopan</effectid>
							<effectcategory>audiopan</effectcategory>
							<effecttype>audiopan</effecttype>
							<mediatype>audio</mediatype>
							<parameter>
								<name>Pan</name>
								<parameterid>pan</parameterid>
								<valuemin>-1</valuemin>
								<valuemax>1</valuemax>
								<value>0</value>
							</parameter>
						</effect>
					</filter>
					<sourcetrack>
						<mediatype>audio</mediatype>
						<trackindex>2</trackindex>
					</sourcetrack>
					<link>
						<linkclipref>010_17_01_B</linkclipref>
						<mediatype>video</mediatype>
						<trackindex>1</trackindex>
						<clipindex>83</clipindex>
					</link>
					<link>
						<linkclipref>010_17_01_B2</linkclipref>
						<mediatype>audio</mediatype>
						<trackindex>1</trackindex>
						<clipindex>83</clipindex>
					</link>
					<link>
						<linkclipref>010_17_01_B3</linkclipref>
						<mediatype>audio</mediatype>
						<trackindex>2</trackindex>
						<clipindex>83</clipindex>
					</link>
					<link>
						<linkclipref>010_17_01_B4</linkclipref>
						<mediatype>audio</mediatype>
						<trackindex>3</trackindex>
						<clipindex>81</clipindex>
					</link>
					<link>
						<linkclipref>010_17_01_B5</linkclipref>
						<mediatype>audio</mediatype>
						<trackindex>4</trackindex>
						<clipindex>48</clipindex>
					</link>
					<itemhistory>
						<uuid>C346E5CD-92E1-4E95-A523-24E9FAF87EEF</uuid>
					</itemhistory>
				</clipitem>
				<clipitem id="010_17_02_B_OK3">
					<name>010_17_02_B_OK</name>
					<duration>2132</duration>
					<rate>
						<ntsc>FALSE</ntsc>
						<timebase>24</timebase>
					</rate>
					<in>804</in>
					<out>886</out>
					<start>44576</start>
					<end>44658</end>
					<subframeoffset>0</subframeoffset>
					<enabled>TRUE</enabled>
					<masterclipid>010_17_02_B_OK1</masterclipid>
					<logginginfo>
						<scene/>
						<shottake/>
						<lognote/>
						<good>FALSE</good>
					</logginginfo>
					<labels>
						<label2/>
					</labels>
					<comments>
						<mastercomment1/>
						<mastercomment2/>
						<mastercomment3/>
						<mastercomment4/>
					</comments>
					<file id="B002C016_130101_R1WX"/>
					<filter>
						<effect>
							<name>Audio Levels</name>
							<effectid>audiolevels</effectid>
							<effectcategory>audiolevels</effectcategory>
							<effecttype>audiolevels</effecttype>
							<mediatype>audio</mediatype>
							<parameter>
								<name>Level</name>
								<parameterid>level</parameterid>
								<valuemin>0</valuemin>
								<valuemax>3.98109</valuemax>
								<value>1</value>
							</parameter>
						</effect>
					</filter>
					<filter>
						<effect>
							<name>Audio Pan</name>
							<effectid>audiopan</effectid>
							<effectcategory>audiopan</effectcategory>
							<effecttype>audiopan</effecttype>
							<mediatype>audio</mediatype>
							<parameter>
								<name>Pan</name>
								<parameterid>pan</parameterid>
								<valuemin>-1</valuemin>
								<valuemax>1</valuemax>
								<value>0</value>
							</parameter>
						</effect>
					</filter>
					<sourcetrack>
						<mediatype>audio</mediatype>
						<trackindex>2</trackindex>
					</sourcetrack>
					<link>
						<linkclipref>010_17_02_B_OK</linkclipref>
						<mediatype>video</mediatype>
						<trackindex>1</trackindex>
						<clipindex>84</clipindex>
					</link>
					<link>
						<linkclipref>010_17_02_B_OK2</linkclipref>
						<mediatype>audio</mediatype>
						<trackindex>1</trackindex>
						<clipindex>84</clipindex>
					</link>
					<link>
						<linkclipref>010_17_02_B_OK3</linkclipref>
						<mediatype>audio</mediatype>
						<trackindex>2</trackindex>
						<clipindex>84</clipindex>
					</link>
					<link>
						<linkclipref>010_17_02_B_OK4</linkclipref>
						<mediatype>audio</mediatype>
						<trackindex>3</trackindex>
						<clipindex>82</clipindex>
					</link>
					<link>
						<linkclipref>010_17_02_B_OK5</linkclipref>
						<mediatype>audio</mediatype>
						<trackindex>4</trackindex>
						<clipindex>49</clipindex>
					</link>
					<itemhistory>
						<uuid>825254B8-E7B4-4F1B-8312-7244316B917A</uuid>
					</itemhistory>
				</clipitem>
				<clipitem id="010_18_01_A_KP3">
					<name>010_18_01_A_KP</name>
					<duration>1008</duration>
					<rate>
						<ntsc>FALSE</ntsc>
						<timebase>24</timebase>
					</rate>
					<in>531</in>
					<out>1008</out>
					<start>44658</start>
					<end>45135</end>
					<subframeoffset>0</subframeoffset>
					<enabled>TRUE</enabled>
					<masterclipid>010_18_01_A_KP1</masterclipid>
					<logginginfo>
						<scene/>
						<shottake/>
						<lognote/>
						<good>FALSE</good>
					</logginginfo>
					<labels>
						<label2/>
					</labels>
					<comments>
						<mastercomment1/>
						<mastercomment2/>
						<mastercomment3/>
						<mastercomment4/>
					</comments>
					<file id="A003C011_221211_R03K"/>
					<filter>
						<effect>
							<name>Audio Levels</name>
							<effectid>audiolevels</effectid>
							<effectcategory>audiolevels</effectcategory>
							<effecttype>audiolevels</effecttype>
							<mediatype>audio</mediatype>
							<parameter>
								<name>Level</name>
								<parameterid>level</parameterid>
								<valuemin>0</valuemin>
								<valuemax>3.98109</valuemax>
								<value>1</value>
							</parameter>
						</effect>
					</filter>
					<filter>
						<effect>
							<name>Audio Pan</name>
							<effectid>audiopan</effectid>
							<effectcategory>audiopan</effectcategory>
							<effecttype>audiopan</effecttype>
							<mediatype>audio</mediatype>
							<parameter>
								<name>Pan</name>
								<parameterid>pan</parameterid>
								<valuemin>-1</valuemin>
								<valuemax>1</valuemax>
								<value>0</value>
							</parameter>
						</effect>
					</filter>
					<sourcetrack>
						<mediatype>audio</mediatype>
						<trackindex>2</trackindex>
					</sourcetrack>
					<link>
						<linkclipref>010_18_01_A_KP</linkclipref>
						<mediatype>video</mediatype>
						<trackindex>1</trackindex>
						<clipindex>85</clipindex>
					</link>
					<link>
						<linkclipref>010_18_01_A_KP2</linkclipref>
						<mediatype>audio</mediatype>
						<trackindex>1</trackindex>
						<clipindex>85</clipindex>
					</link>
					<link>
						<linkclipref>010_18_01_A_KP3</linkclipref>
						<mediatype>audio</mediatype>
						<trackindex>2</trackindex>
						<clipindex>85</clipindex>
					</link>
					<link>
						<linkclipref>010_18_01_A_KP4</linkclipref>
						<mediatype>audio</mediatype>
						<trackindex>3</trackindex>
						<clipindex>83</clipindex>
					</link>
					<link>
						<linkclipref>010_18_01_A_KP5</linkclipref>
						<mediatype>audio</mediatype>
						<trackindex>4</trackindex>
						<clipindex>50</clipindex>
					</link>
					<itemhistory>
						<uuid>4DC55D63-9F0B-46FB-A3C6-21405C918866</uuid>
					</itemhistory>
				</clipitem>
				<clipitem id="010_18_02_A3">
					<name>010_18_02_A</name>
					<duration>461</duration>
					<rate>
						<ntsc>FALSE</ntsc>
						<timebase>24</timebase>
					</rate>
					<in>0</in>
					<out>461</out>
					<start>45135</start>
					<end>45596</end>
					<subframeoffset>0</subframeoffset>
					<enabled>TRUE</enabled>
					<masterclipid>010_18_02_A1</masterclipid>
					<logginginfo>
						<scene/>
						<shottake/>
						<lognote/>
						<good>FALSE</good>
					</logginginfo>
					<labels>
						<label2/>
					</labels>
					<comments>
						<mastercomment1/>
						<mastercomment2/>
						<mastercomment3/>
						<mastercomment4/>
					</comments>
					<file id="A003C012_221211_R03K"/>
					<filter>
						<effect>
							<name>Audio Levels</name>
							<effectid>audiolevels</effectid>
							<effectcategory>audiolevels</effectcategory>
							<effecttype>audiolevels</effecttype>
							<mediatype>audio</mediatype>
							<parameter>
								<name>Level</name>
								<parameterid>level</parameterid>
								<valuemin>0</valuemin>
								<valuemax>3.98109</valuemax>
								<value>1</value>
							</parameter>
						</effect>
					</filter>
					<filter>
						<effect>
							<name>Audio Pan</name>
							<effectid>audiopan</effectid>
							<effectcategory>audiopan</effectcategory>
							<effecttype>audiopan</effecttype>
							<mediatype>audio</mediatype>
							<parameter>
								<name>Pan</name>
								<parameterid>pan</parameterid>
								<valuemin>-1</valuemin>
								<valuemax>1</valuemax>
								<value>0</value>
							</parameter>
						</effect>
					</filter>
					<sourcetrack>
						<mediatype>audio</mediatype>
						<trackindex>2</trackindex>
					</sourcetrack>
					<link>
						<linkclipref>010_18_02_A</linkclipref>
						<mediatype>video</mediatype>
						<trackindex>1</trackindex>
						<clipindex>86</clipindex>
					</link>
					<link>
						<linkclipref>010_18_02_A2</linkclipref>
						<mediatype>audio</mediatype>
						<trackindex>1</trackindex>
						<clipindex>86</clipindex>
					</link>
					<link>
						<linkclipref>010_18_02_A3</linkclipref>
						<mediatype>audio</mediatype>
						<trackindex>2</trackindex>
						<clipindex>86</clipindex>
					</link>
					<link>
						<linkclipref>010_18_02_A4</linkclipref>
						<mediatype>audio</mediatype>
						<trackindex>3</trackindex>
						<clipindex>84</clipindex>
					</link>
					<link>
						<linkclipref>010_18_02_A5</linkclipref>
						<mediatype>audio</mediatype>
						<trackindex>4</trackindex>
						<clipindex>51</clipindex>
					</link>
					<itemhistory>
						<uuid>E3DF6098-3AD5-4B86-ABC3-74944AB69BCA</uuid>
					</itemhistory>
				</clipitem>
				<clipitem id="010_18_03_A3">
					<name>010_18_03_A</name>
					<duration>298</duration>
					<rate>
						<ntsc>FALSE</ntsc>
						<timebase>24</timebase>
					</rate>
					<in>0</in>
					<out>298</out>
					<start>45596</start>
					<end>45894</end>
					<subframeoffset>0</subframeoffset>
					<enabled>TRUE</enabled>
					<masterclipid>010_18_03_A1</masterclipid>
					<logginginfo>
						<scene/>
						<shottake/>
						<lognote/>
						<good>FALSE</good>
					</logginginfo>
					<labels>
						<label2/>
					</labels>
					<comments>
						<mastercomment1/>
						<mastercomment2/>
						<mastercomment3/>
						<mastercomment4/>
					</comments>
					<file id="A003C013_221211_R03K"/>
					<filter>
						<effect>
							<name>Audio Levels</name>
							<effectid>audiolevels</effectid>
							<effectcategory>audiolevels</effectcategory>
							<effecttype>audiolevels</effecttype>
							<mediatype>audio</mediatype>
							<parameter>
								<name>Level</name>
								<parameterid>level</parameterid>
								<valuemin>0</valuemin>
								<valuemax>3.98109</valuemax>
								<value>1</value>
							</parameter>
						</effect>
					</filter>
					<filter>
						<effect>
							<name>Audio Pan</name>
							<effectid>audiopan</effectid>
							<effectcategory>audiopan</effectcategory>
							<effecttype>audiopan</effecttype>
							<mediatype>audio</mediatype>
							<parameter>
								<name>Pan</name>
								<parameterid>pan</parameterid>
								<valuemin>-1</valuemin>
								<valuemax>1</valuemax>
								<value>0</value>
							</parameter>
						</effect>
					</filter>
					<sourcetrack>
						<mediatype>audio</mediatype>
						<trackindex>2</trackindex>
					</sourcetrack>
					<link>
						<linkclipref>010_18_03_A</linkclipref>
						<mediatype>video</mediatype>
						<trackindex>1</trackindex>
						<clipindex>87</clipindex>
					</link>
					<link>
						<linkclipref>010_18_03_A2</linkclipref>
						<mediatype>audio</mediatype>
						<trackindex>1</trackindex>
						<clipindex>87</clipindex>
					</link>
					<link>
						<linkclipref>010_18_03_A3</linkclipref>
						<mediatype>audio</mediatype>
						<trackindex>2</trackindex>
						<clipindex>87</clipindex>
					</link>
					<link>
						<linkclipref>010_18_03_A4</linkclipref>
						<mediatype>audio</mediatype>
						<trackindex>3</trackindex>
						<clipindex>85</clipindex>
					</link>
					<link>
						<linkclipref>010_18_03_A5</linkclipref>
						<mediatype>audio</mediatype>
						<trackindex>4</trackindex>
						<clipindex>52</clipindex>
					</link>
					<itemhistory>
						<uuid>CF46D9A3-44E3-4060-9665-ACEF443738E8</uuid>
					</itemhistory>
				</clipitem>
				<clipitem id="010_18_04_A_OK3">
					<name>010_18_04_A_OK</name>
					<duration>519</duration>
					<rate>
						<ntsc>FALSE</ntsc>
						<timebase>24</timebase>
					</rate>
					<in>259</in>
					<out>303</out>
					<start>45894</start>
					<end>45938</end>
					<subframeoffset>0</subframeoffset>
					<enabled>TRUE</enabled>
					<masterclipid>010_18_04_A_OK1</masterclipid>
					<logginginfo>
						<scene/>
						<shottake/>
						<lognote/>
						<good>FALSE</good>
					</logginginfo>
					<labels>
						<label2/>
					</labels>
					<comments>
						<mastercomment1/>
						<mastercomment2/>
						<mastercomment3/>
						<mastercomment4/>
					</comments>
					<file id="A003C014_221211_R03K"/>
					<filter>
						<effect>
							<name>Audio Levels</name>
							<effectid>audiolevels</effectid>
							<effectcategory>audiolevels</effectcategory>
							<effecttype>audiolevels</effecttype>
							<mediatype>audio</mediatype>
							<parameter>
								<name>Level</name>
								<parameterid>level</parameterid>
								<valuemin>0</valuemin>
								<valuemax>3.98109</valuemax>
								<value>1</value>
							</parameter>
						</effect>
					</filter>
					<filter>
						<effect>
							<name>Audio Pan</name>
							<effectid>audiopan</effectid>
							<effectcategory>audiopan</effectcategory>
							<effecttype>audiopan</effecttype>
							<mediatype>audio</mediatype>
							<parameter>
								<name>Pan</name>
								<parameterid>pan</parameterid>
								<valuemin>-1</valuemin>
								<valuemax>1</valuemax>
								<value>0</value>
							</parameter>
						</effect>
					</filter>
					<sourcetrack>
						<mediatype>audio</mediatype>
						<trackindex>2</trackindex>
					</sourcetrack>
					<link>
						<linkclipref>010_18_04_A_OK</linkclipref>
						<mediatype>video</mediatype>
						<trackindex>1</trackindex>
						<clipindex>88</clipindex>
					</link>
					<link>
						<linkclipref>010_18_04_A_OK2</linkclipref>
						<mediatype>audio</mediatype>
						<trackindex>1</trackindex>
						<clipindex>88</clipindex>
					</link>
					<link>
						<linkclipref>010_18_04_A_OK3</linkclipref>
						<mediatype>audio</mediatype>
						<trackindex>2</trackindex>
						<clipindex>88</clipindex>
					</link>
					<link>
						<linkclipref>010_18_04_A_OK4</linkclipref>
						<mediatype>audio</mediatype>
						<trackindex>3</trackindex>
						<clipindex>86</clipindex>
					</link>
					<link>
						<linkclipref>010_18_04_A_OK5</linkclipref>
						<mediatype>audio</mediatype>
						<trackindex>4</trackindex>
						<clipindex>53</clipindex>
					</link>
					<itemhistory>
						<uuid>D47C02B5-2D04-4E45-9A5F-E86E518097CC</uuid>
					</itemhistory>
				</clipitem>
				<clipitem id="010_19_01_A3">
					<name>010_19_01_A</name>
					<duration>745</duration>
					<rate>
						<ntsc>FALSE</ntsc>
						<timebase>24</timebase>
					</rate>
					<in>0</in>
					<out>745</out>
					<start>45938</start>
					<end>46683</end>
					<subframeoffset>0</subframeoffset>
					<enabled>TRUE</enabled>
					<masterclipid>010_19_01_A1</masterclipid>
					<logginginfo>
						<scene/>
						<shottake/>
						<lognote/>
						<good>FALSE</good>
					</logginginfo>
					<labels>
						<label2/>
					</labels>
					<comments>
						<mastercomment1/>
						<mastercomment2/>
						<mastercomment3/>
						<mastercomment4/>
					</comments>
					<file id="A003C015_221211_R03K"/>
					<filter>
						<effect>
							<name>Audio Levels</name>
							<effectid>audiolevels</effectid>
							<effectcategory>audiolevels</effectcategory>
							<effecttype>audiolevels</effecttype>
							<mediatype>audio</mediatype>
							<parameter>
								<name>Level</name>
								<parameterid>level</parameterid>
								<valuemin>0</valuemin>
								<valuemax>3.98109</valuemax>
								<value>1</value>
							</parameter>
						</effect>
					</filter>
					<filter>
						<effect>
							<name>Audio Pan</name>
							<effectid>audiopan</effectid>
							<effectcategory>audiopan</effectcategory>
							<effecttype>audiopan</effecttype>
							<mediatype>audio</mediatype>
							<parameter>
								<name>Pan</name>
								<parameterid>pan</parameterid>
								<valuemin>-1</valuemin>
								<valuemax>1</valuemax>
								<value>0</value>
							</parameter>
						</effect>
					</filter>
					<sourcetrack>
						<mediatype>audio</mediatype>
						<trackindex>2</trackindex>
					</sourcetrack>
					<link>
						<linkclipref>010_19_01_A</linkclipref>
						<mediatype>video</mediatype>
						<trackindex>1</trackindex>
						<clipindex>89</clipindex>
					</link>
					<link>
						<linkclipref>010_19_01_A2</linkclipref>
						<mediatype>audio</mediatype>
						<trackindex>1</trackindex>
						<clipindex>89</clipindex>
					</link>
					<link>
						<linkclipref>010_19_01_A3</linkclipref>
						<mediatype>audio</mediatype>
						<trackindex>2</trackindex>
						<clipindex>89</clipindex>
					</link>
					<link>
						<linkclipref>010_19_01_A4</linkclipref>
						<mediatype>audio</mediatype>
						<trackindex>3</trackindex>
						<clipindex>87</clipindex>
					</link>
					<itemhistory>
						<uuid>4B6960B3-1E77-45BF-871A-858F365A84D5</uuid>
					</itemhistory>
				</clipitem>
				<clipitem id="010_19_02_A_OK3">
					<name>010_19_02_A_OK</name>
					<duration>706</duration>
					<rate>
						<ntsc>FALSE</ntsc>
						<timebase>24</timebase>
					</rate>
					<in>147</in>
					<out>251</out>
					<start>46683</start>
					<end>46787</end>
					<subframeoffset>0</subframeoffset>
					<enabled>TRUE</enabled>
					<masterclipid>010_19_02_A_OK1</masterclipid>
					<logginginfo>
						<scene/>
						<shottake/>
						<lognote/>
						<good>FALSE</good>
					</logginginfo>
					<labels>
						<label2/>
					</labels>
					<comments>
						<mastercomment1/>
						<mastercomment2/>
						<mastercomment3/>
						<mastercomment4/>
					</comments>
					<file id="A003C016_221211_R03K"/>
					<filter>
						<effect>
							<name>Audio Levels</name>
							<effectid>audiolevels</effectid>
							<effectcategory>audiolevels</effectcategory>
							<effecttype>audiolevels</effecttype>
							<mediatype>audio</mediatype>
							<parameter>
								<name>Level</name>
								<parameterid>level</parameterid>
								<valuemin>0</valuemin>
								<valuemax>3.98109</valuemax>
								<value>1</value>
							</parameter>
						</effect>
					</filter>
					<filter>
						<effect>
							<name>Audio Pan</name>
							<effectid>audiopan</effectid>
							<effectcategory>audiopan</effectcategory>
							<effecttype>audiopan</effecttype>
							<mediatype>audio</mediatype>
							<parameter>
								<name>Pan</name>
								<parameterid>pan</parameterid>
								<valuemin>-1</valuemin>
								<valuemax>1</valuemax>
								<value>0</value>
							</parameter>
						</effect>
					</filter>
					<sourcetrack>
						<mediatype>audio</mediatype>
						<trackindex>2</trackindex>
					</sourcetrack>
					<link>
						<linkclipref>010_19_02_A_OK</linkclipref>
						<mediatype>video</mediatype>
						<trackindex>1</trackindex>
						<clipindex>90</clipindex>
					</link>
					<link>
						<linkclipref>010_19_02_A_OK2</linkclipref>
						<mediatype>audio</mediatype>
						<trackindex>1</trackindex>
						<clipindex>90</clipindex>
					</link>
					<link>
						<linkclipref>010_19_02_A_OK3</linkclipref>
						<mediatype>audio</mediatype>
						<trackindex>2</trackindex>
						<clipindex>90</clipindex>
					</link>
					<link>
						<linkclipref>010_19_02_A_OK4</linkclipref>
						<mediatype>audio</mediatype>
						<trackindex>3</trackindex>
						<clipindex>88</clipindex>
					</link>
					<itemhistory>
						<uuid>BB0CF891-908F-4911-BE41-87A12C6D6457</uuid>
					</itemhistory>
				</clipitem>
				<clipitem id="010_20_01_A3">
					<name>010_20_01_A</name>
					<duration>302</duration>
					<rate>
						<ntsc>FALSE</ntsc>
						<timebase>24</timebase>
					</rate>
					<in>0</in>
					<out>302</out>
					<start>46787</start>
					<end>47089</end>
					<subframeoffset>0</subframeoffset>
					<enabled>TRUE</enabled>
					<masterclipid>010_20_01_A1</masterclipid>
					<logginginfo>
						<scene/>
						<shottake/>
						<lognote/>
						<good>FALSE</good>
					</logginginfo>
					<labels>
						<label2/>
					</labels>
					<comments>
						<mastercomment1/>
						<mastercomment2/>
						<mastercomment3/>
						<mastercomment4/>
					</comments>
					<file id="A003C017_221211_R03K"/>
					<filter>
						<effect>
							<name>Audio Levels</name>
							<effectid>audiolevels</effectid>
							<effectcategory>audiolevels</effectcategory>
							<effecttype>audiolevels</effecttype>
							<mediatype>audio</mediatype>
							<parameter>
								<name>Level</name>
								<parameterid>level</parameterid>
								<valuemin>0</valuemin>
								<valuemax>3.98109</valuemax>
								<value>1</value>
							</parameter>
						</effect>
					</filter>
					<filter>
						<effect>
							<name>Audio Pan</name>
							<effectid>audiopan</effectid>
							<effectcategory>audiopan</effectcategory>
							<effecttype>audiopan</effecttype>
							<mediatype>audio</mediatype>
							<parameter>
								<name>Pan</name>
								<parameterid>pan</parameterid>
								<valuemin>-1</valuemin>
								<valuemax>1</valuemax>
								<value>0</value>
							</parameter>
						</effect>
					</filter>
					<sourcetrack>
						<mediatype>audio</mediatype>
						<trackindex>2</trackindex>
					</sourcetrack>
					<link>
						<linkclipref>010_20_01_A</linkclipref>
						<mediatype>video</mediatype>
						<trackindex>1</trackindex>
						<clipindex>91</clipindex>
					</link>
					<link>
						<linkclipref>010_20_01_A2</linkclipref>
						<mediatype>audio</mediatype>
						<trackindex>1</trackindex>
						<clipindex>91</clipindex>
					</link>
					<link>
						<linkclipref>010_20_01_A3</linkclipref>
						<mediatype>audio</mediatype>
						<trackindex>2</trackindex>
						<clipindex>91</clipindex>
					</link>
					<link>
						<linkclipref>010_20_01_A4</linkclipref>
						<mediatype>audio</mediatype>
						<trackindex>3</trackindex>
						<clipindex>89</clipindex>
					</link>
					<itemhistory>
						<uuid>412B31F4-6B27-41FE-BE73-561063B0C695</uuid>
					</itemhistory>
				</clipitem>
				<clipitem id="010_20_02_A3">
					<name>010_20_02_A</name>
					<duration>399</duration>
					<rate>
						<ntsc>FALSE</ntsc>
						<timebase>24</timebase>
					</rate>
					<in>0</in>
					<out>399</out>
					<start>47089</start>
					<end>47488</end>
					<subframeoffset>0</subframeoffset>
					<enabled>TRUE</enabled>
					<masterclipid>010_20_02_A1</masterclipid>
					<logginginfo>
						<scene/>
						<shottake/>
						<lognote/>
						<good>FALSE</good>
					</logginginfo>
					<labels>
						<label2/>
					</labels>
					<comments>
						<mastercomment1/>
						<mastercomment2/>
						<mastercomment3/>
						<mastercomment4/>
					</comments>
					<file id="A003C018_221211_R03K"/>
					<filter>
						<effect>
							<name>Audio Levels</name>
							<effectid>audiolevels</effectid>
							<effectcategory>audiolevels</effectcategory>
							<effecttype>audiolevels</effecttype>
							<mediatype>audio</mediatype>
							<parameter>
								<name>Level</name>
								<parameterid>level</parameterid>
								<valuemin>0</valuemin>
								<valuemax>3.98109</valuemax>
								<value>1</value>
							</parameter>
						</effect>
					</filter>
					<filter>
						<effect>
							<name>Audio Pan</name>
							<effectid>audiopan</effectid>
							<effectcategory>audiopan</effectcategory>
							<effecttype>audiopan</effecttype>
							<mediatype>audio</mediatype>
							<parameter>
								<name>Pan</name>
								<parameterid>pan</parameterid>
								<valuemin>-1</valuemin>
								<valuemax>1</valuemax>
								<value>0</value>
							</parameter>
						</effect>
					</filter>
					<sourcetrack>
						<mediatype>audio</mediatype>
						<trackindex>2</trackindex>
					</sourcetrack>
					<link>
						<linkclipref>010_20_02_A</linkclipref>
						<mediatype>video</mediatype>
						<trackindex>1</trackindex>
						<clipindex>92</clipindex>
					</link>
					<link>
						<linkclipref>010_20_02_A2</linkclipref>
						<mediatype>audio</mediatype>
						<trackindex>1</trackindex>
						<clipindex>92</clipindex>
					</link>
					<link>
						<linkclipref>010_20_02_A3</linkclipref>
						<mediatype>audio</mediatype>
						<trackindex>2</trackindex>
						<clipindex>92</clipindex>
					</link>
					<link>
						<linkclipref>010_20_02_A4</linkclipref>
						<mediatype>audio</mediatype>
						<trackindex>3</trackindex>
						<clipindex>90</clipindex>
					</link>
					<itemhistory>
						<uuid>05749F3B-1C05-480B-B4CB-7F6F9E685F7B</uuid>
					</itemhistory>
				</clipitem>
				<clipitem id="010_20_03_A_OK3">
					<name>010_20_03_A_OK</name>
					<duration>424</duration>
					<rate>
						<ntsc>FALSE</ntsc>
						<timebase>24</timebase>
					</rate>
					<in>127</in>
					<out>224</out>
					<start>47488</start>
					<end>47585</end>
					<subframeoffset>0</subframeoffset>
					<enabled>TRUE</enabled>
					<masterclipid>010_20_03_A_OK1</masterclipid>
					<logginginfo>
						<scene/>
						<shottake/>
						<lognote/>
						<good>FALSE</good>
					</logginginfo>
					<labels>
						<label2/>
					</labels>
					<comments>
						<mastercomment1/>
						<mastercomment2/>
						<mastercomment3/>
						<mastercomment4/>
					</comments>
					<file id="A003C019_221211_R03K"/>
					<filter>
						<effect>
							<name>Audio Levels</name>
							<effectid>audiolevels</effectid>
							<effectcategory>audiolevels</effectcategory>
							<effecttype>audiolevels</effecttype>
							<mediatype>audio</mediatype>
							<parameter>
								<name>Level</name>
								<parameterid>level</parameterid>
								<valuemin>0</valuemin>
								<valuemax>3.98109</valuemax>
								<value>1</value>
							</parameter>
						</effect>
					</filter>
					<filter>
						<effect>
							<name>Audio Pan</name>
							<effectid>audiopan</effectid>
							<effectcategory>audiopan</effectcategory>
							<effecttype>audiopan</effecttype>
							<mediatype>audio</mediatype>
							<parameter>
								<name>Pan</name>
								<parameterid>pan</parameterid>
								<valuemin>-1</valuemin>
								<valuemax>1</valuemax>
								<value>0</value>
							</parameter>
						</effect>
					</filter>
					<sourcetrack>
						<mediatype>audio</mediatype>
						<trackindex>2</trackindex>
					</sourcetrack>
					<link>
						<linkclipref>010_20_03_A_OK</linkclipref>
						<mediatype>video</mediatype>
						<trackindex>1</trackindex>
						<clipindex>93</clipindex>
					</link>
					<link>
						<linkclipref>010_20_03_A_OK2</linkclipref>
						<mediatype>audio</mediatype>
						<trackindex>1</trackindex>
						<clipindex>93</clipindex>
					</link>
					<link>
						<linkclipref>010_20_03_A_OK3</linkclipref>
						<mediatype>audio</mediatype>
						<trackindex>2</trackindex>
						<clipindex>93</clipindex>
					</link>
					<link>
						<linkclipref>010_20_03_A_OK4</linkclipref>
						<mediatype>audio</mediatype>
						<trackindex>3</trackindex>
						<clipindex>91</clipindex>
					</link>
					<itemhistory>
						<uuid>FC6D2DF0-C0B3-4F5D-BD39-8682329CD357</uuid>
					</itemhistory>
				</clipitem>
				<clipitem id="010_21_01_A3">
					<name>010_21_01_A</name>
					<duration>543</duration>
					<rate>
						<ntsc>FALSE</ntsc>
						<timebase>24</timebase>
					</rate>
					<in>277</in>
					<out>327</out>
					<start>47585</start>
					<end>47635</end>
					<subframeoffset>0</subframeoffset>
					<enabled>TRUE</enabled>
					<masterclipid>010_21_01_A1</masterclipid>
					<logginginfo>
						<scene/>
						<shottake/>
						<lognote/>
						<good>FALSE</good>
					</logginginfo>
					<labels>
						<label2/>
					</labels>
					<comments>
						<mastercomment1/>
						<mastercomment2/>
						<mastercomment3/>
						<mastercomment4/>
					</comments>
					<file id="A003C020_221211_R03K"/>
					<filter>
						<effect>
							<name>Audio Levels</name>
							<effectid>audiolevels</effectid>
							<effectcategory>audiolevels</effectcategory>
							<effecttype>audiolevels</effecttype>
							<mediatype>audio</mediatype>
							<parameter>
								<name>Level</name>
								<parameterid>level</parameterid>
								<valuemin>0</valuemin>
								<valuemax>3.98109</valuemax>
								<value>1</value>
							</parameter>
						</effect>
					</filter>
					<filter>
						<effect>
							<name>Audio Pan</name>
							<effectid>audiopan</effectid>
							<effectcategory>audiopan</effectcategory>
							<effecttype>audiopan</effecttype>
							<mediatype>audio</mediatype>
							<parameter>
								<name>Pan</name>
								<parameterid>pan</parameterid>
								<valuemin>-1</valuemin>
								<valuemax>1</valuemax>
								<value>0</value>
							</parameter>
						</effect>
					</filter>
					<sourcetrack>
						<mediatype>audio</mediatype>
						<trackindex>2</trackindex>
					</sourcetrack>
					<link>
						<linkclipref>010_21_01_A</linkclipref>
						<mediatype>video</mediatype>
						<trackindex>1</trackindex>
						<clipindex>94</clipindex>
					</link>
					<link>
						<linkclipref>010_21_01_A2</linkclipref>
						<mediatype>audio</mediatype>
						<trackindex>1</trackindex>
						<clipindex>94</clipindex>
					</link>
					<link>
						<linkclipref>010_21_01_A3</linkclipref>
						<mediatype>audio</mediatype>
						<trackindex>2</trackindex>
						<clipindex>94</clipindex>
					</link>
					<link>
						<linkclipref>010_21_01_A4</linkclipref>
						<mediatype>audio</mediatype>
						<trackindex>3</trackindex>
						<clipindex>92</clipindex>
					</link>
					<itemhistory>
						<uuid>DF1455A7-367A-4368-BA77-43CD056983FE</uuid>
					</itemhistory>
				</clipitem>
				<clipitem id="010_21_02_A3">
					<name>010_21_02_A</name>
					<duration>773</duration>
					<rate>
						<ntsc>FALSE</ntsc>
						<timebase>24</timebase>
					</rate>
					<in>534</in>
					<out>602</out>
					<start>47635</start>
					<end>47703</end>
					<subframeoffset>0</subframeoffset>
					<enabled>TRUE</enabled>
					<masterclipid>010_21_02_A1</masterclipid>
					<logginginfo>
						<scene/>
						<shottake/>
						<lognote/>
						<good>FALSE</good>
					</logginginfo>
					<labels>
						<label2/>
					</labels>
					<comments>
						<mastercomment1/>
						<mastercomment2/>
						<mastercomment3/>
						<mastercomment4/>
					</comments>
					<file id="A003C021_221211_R03K"/>
					<filter>
						<effect>
							<name>Audio Levels</name>
							<effectid>audiolevels</effectid>
							<effectcategory>audiolevels</effectcategory>
							<effecttype>audiolevels</effecttype>
							<mediatype>audio</mediatype>
							<parameter>
								<name>Level</name>
								<parameterid>level</parameterid>
								<valuemin>0</valuemin>
								<valuemax>3.98109</valuemax>
								<value>1</value>
							</parameter>
						</effect>
					</filter>
					<filter>
						<effect>
							<name>Audio Pan</name>
							<effectid>audiopan</effectid>
							<effectcategory>audiopan</effectcategory>
							<effecttype>audiopan</effecttype>
							<mediatype>audio</mediatype>
							<parameter>
								<name>Pan</name>
								<parameterid>pan</parameterid>
								<valuemin>-1</valuemin>
								<valuemax>1</valuemax>
								<value>0</value>
							</parameter>
						</effect>
					</filter>
					<sourcetrack>
						<mediatype>audio</mediatype>
						<trackindex>2</trackindex>
					</sourcetrack>
					<link>
						<linkclipref>010_21_02_A</linkclipref>
						<mediatype>video</mediatype>
						<trackindex>1</trackindex>
						<clipindex>95</clipindex>
					</link>
					<link>
						<linkclipref>010_21_02_A2</linkclipref>
						<mediatype>audio</mediatype>
						<trackindex>1</trackindex>
						<clipindex>95</clipindex>
					</link>
					<link>
						<linkclipref>010_21_02_A3</linkclipref>
						<mediatype>audio</mediatype>
						<trackindex>2</trackindex>
						<clipindex>95</clipindex>
					</link>
					<link>
						<linkclipref>010_21_02_A4</linkclipref>
						<mediatype>audio</mediatype>
						<trackindex>3</trackindex>
						<clipindex>93</clipindex>
					</link>
					<itemhistory>
						<uuid>4517CD08-CFDB-47D8-800C-489D5598E690</uuid>
					</itemhistory>
				</clipitem>
				<clipitem id="010_21_03_A3">
					<name>010_21_03_A</name>
					<duration>605</duration>
					<rate>
						<ntsc>FALSE</ntsc>
						<timebase>24</timebase>
					</rate>
					<in>0</in>
					<out>605</out>
					<start>47703</start>
					<end>48308</end>
					<subframeoffset>0</subframeoffset>
					<enabled>TRUE</enabled>
					<masterclipid>010_21_03_A1</masterclipid>
					<logginginfo>
						<scene/>
						<shottake/>
						<lognote/>
						<good>FALSE</good>
					</logginginfo>
					<labels>
						<label2/>
					</labels>
					<comments>
						<mastercomment1/>
						<mastercomment2/>
						<mastercomment3/>
						<mastercomment4/>
					</comments>
					<file id="A003C022_221211_R03K"/>
					<filter>
						<effect>
							<name>Audio Levels</name>
							<effectid>audiolevels</effectid>
							<effectcategory>audiolevels</effectcategory>
							<effecttype>audiolevels</effecttype>
							<mediatype>audio</mediatype>
							<parameter>
								<name>Level</name>
								<parameterid>level</parameterid>
								<valuemin>0</valuemin>
								<valuemax>3.98109</valuemax>
								<value>1</value>
							</parameter>
						</effect>
					</filter>
					<filter>
						<effect>
							<name>Audio Pan</name>
							<effectid>audiopan</effectid>
							<effectcategory>audiopan</effectcategory>
							<effecttype>audiopan</effecttype>
							<mediatype>audio</mediatype>
							<parameter>
								<name>Pan</name>
								<parameterid>pan</parameterid>
								<valuemin>-1</valuemin>
								<valuemax>1</valuemax>
								<value>0</value>
							</parameter>
						</effect>
					</filter>
					<sourcetrack>
						<mediatype>audio</mediatype>
						<trackindex>2</trackindex>
					</sourcetrack>
					<link>
						<linkclipref>010_21_03_A</linkclipref>
						<mediatype>video</mediatype>
						<trackindex>1</trackindex>
						<clipindex>96</clipindex>
					</link>
					<link>
						<linkclipref>010_21_03_A2</linkclipref>
						<mediatype>audio</mediatype>
						<trackindex>1</trackindex>
						<clipindex>96</clipindex>
					</link>
					<link>
						<linkclipref>010_21_03_A3</linkclipref>
						<mediatype>audio</mediatype>
						<trackindex>2</trackindex>
						<clipindex>96</clipindex>
					</link>
					<link>
						<linkclipref>010_21_03_A4</linkclipref>
						<mediatype>audio</mediatype>
						<trackindex>3</trackindex>
						<clipindex>94</clipindex>
					</link>
					<itemhistory>
						<uuid>089542D2-BC45-40EA-AB50-9361DC8C8E2F</uuid>
					</itemhistory>
				</clipitem>
				<clipitem id="010_21_04_A3">
					<name>010_21_04_A</name>
					<duration>542</duration>
					<rate>
						<ntsc>FALSE</ntsc>
						<timebase>24</timebase>
					</rate>
					<in>0</in>
					<out>542</out>
					<start>48308</start>
					<end>48850</end>
					<subframeoffset>0</subframeoffset>
					<enabled>TRUE</enabled>
					<masterclipid>010_21_04_A1</masterclipid>
					<logginginfo>
						<scene/>
						<shottake/>
						<lognote/>
						<good>FALSE</good>
					</logginginfo>
					<labels>
						<label2/>
					</labels>
					<comments>
						<mastercomment1/>
						<mastercomment2/>
						<mastercomment3/>
						<mastercomment4/>
					</comments>
					<file id="A003C023_221211_R03K"/>
					<filter>
						<effect>
							<name>Audio Levels</name>
							<effectid>audiolevels</effectid>
							<effectcategory>audiolevels</effectcategory>
							<effecttype>audiolevels</effecttype>
							<mediatype>audio</mediatype>
							<parameter>
								<name>Level</name>
								<parameterid>level</parameterid>
								<valuemin>0</valuemin>
								<valuemax>3.98109</valuemax>
								<value>1</value>
							</parameter>
						</effect>
					</filter>
					<filter>
						<effect>
							<name>Audio Pan</name>
							<effectid>audiopan</effectid>
							<effectcategory>audiopan</effectcategory>
							<effecttype>audiopan</effecttype>
							<mediatype>audio</mediatype>
							<parameter>
								<name>Pan</name>
								<parameterid>pan</parameterid>
								<valuemin>-1</valuemin>
								<valuemax>1</valuemax>
								<value>0</value>
							</parameter>
						</effect>
					</filter>
					<sourcetrack>
						<mediatype>audio</mediatype>
						<trackindex>2</trackindex>
					</sourcetrack>
					<link>
						<linkclipref>010_21_04_A</linkclipref>
						<mediatype>video</mediatype>
						<trackindex>1</trackindex>
						<clipindex>97</clipindex>
					</link>
					<link>
						<linkclipref>010_21_04_A2</linkclipref>
						<mediatype>audio</mediatype>
						<trackindex>1</trackindex>
						<clipindex>97</clipindex>
					</link>
					<link>
						<linkclipref>010_21_04_A3</linkclipref>
						<mediatype>audio</mediatype>
						<trackindex>2</trackindex>
						<clipindex>97</clipindex>
					</link>
					<link>
						<linkclipref>010_21_04_A4</linkclipref>
						<mediatype>audio</mediatype>
						<trackindex>3</trackindex>
						<clipindex>95</clipindex>
					</link>
					<itemhistory>
						<uuid>D55DAE8B-FE7D-4C7A-AB43-D7BF80825DD1</uuid>
					</itemhistory>
				</clipitem>
				<clipitem id="010_21_05_A_OK3">
					<name>010_21_05_A_OK</name>
					<duration>511</duration>
					<rate>
						<ntsc>FALSE</ntsc>
						<timebase>24</timebase>
					</rate>
					<in>230</in>
					<out>287</out>
					<start>48850</start>
					<end>48907</end>
					<subframeoffset>0</subframeoffset>
					<enabled>TRUE</enabled>
					<masterclipid>010_21_05_A_OK1</masterclipid>
					<logginginfo>
						<scene/>
						<shottake/>
						<lognote/>
						<good>FALSE</good>
					</logginginfo>
					<labels>
						<label2/>
					</labels>
					<comments>
						<mastercomment1/>
						<mastercomment2/>
						<mastercomment3/>
						<mastercomment4/>
					</comments>
					<file id="A003C024_221211_R03K"/>
					<filter>
						<effect>
							<name>Audio Levels</name>
							<effectid>audiolevels</effectid>
							<effectcategory>audiolevels</effectcategory>
							<effecttype>audiolevels</effecttype>
							<mediatype>audio</mediatype>
							<parameter>
								<name>Level</name>
								<parameterid>level</parameterid>
								<valuemin>0</valuemin>
								<valuemax>3.98109</valuemax>
								<value>1</value>
							</parameter>
						</effect>
					</filter>
					<filter>
						<effect>
							<name>Audio Pan</name>
							<effectid>audiopan</effectid>
							<effectcategory>audiopan</effectcategory>
							<effecttype>audiopan</effecttype>
							<mediatype>audio</mediatype>
							<parameter>
								<name>Pan</name>
								<parameterid>pan</parameterid>
								<valuemin>-1</valuemin>
								<valuemax>1</valuemax>
								<value>0</value>
							</parameter>
						</effect>
					</filter>
					<sourcetrack>
						<mediatype>audio</mediatype>
						<trackindex>2</trackindex>
					</sourcetrack>
					<link>
						<linkclipref>010_21_05_A_OK</linkclipref>
						<mediatype>video</mediatype>
						<trackindex>1</trackindex>
						<clipindex>98</clipindex>
					</link>
					<link>
						<linkclipref>010_21_05_A_OK2</linkclipref>
						<mediatype>audio</mediatype>
						<trackindex>1</trackindex>
						<clipindex>98</clipindex>
					</link>
					<link>
						<linkclipref>010_21_05_A_OK3</linkclipref>
						<mediatype>audio</mediatype>
						<trackindex>2</trackindex>
						<clipindex>98</clipindex>
					</link>
					<link>
						<linkclipref>010_21_05_A_OK4</linkclipref>
						<mediatype>audio</mediatype>
						<trackindex>3</trackindex>
						<clipindex>96</clipindex>
					</link>
					<itemhistory>
						<uuid>3C98442F-9508-4ADA-A1B9-B366913429F3</uuid>
					</itemhistory>
				</clipitem>
				<clipitem id="010_22_01_A3">
					<name>010_22_01_A</name>
					<duration>232</duration>
					<rate>
						<ntsc>FALSE</ntsc>
						<timebase>24</timebase>
					</rate>
					<in>0</in>
					<out>232</out>
					<start>48907</start>
					<end>49139</end>
					<subframeoffset>0</subframeoffset>
					<enabled>TRUE</enabled>
					<masterclipid>010_22_01_A1</masterclipid>
					<logginginfo>
						<scene/>
						<shottake/>
						<lognote/>
						<good>FALSE</good>
					</logginginfo>
					<labels>
						<label2/>
					</labels>
					<comments>
						<mastercomment1/>
						<mastercomment2/>
						<mastercomment3/>
						<mastercomment4/>
					</comments>
					<file id="A003C025_221211_R03K"/>
					<filter>
						<effect>
							<name>Audio Levels</name>
							<effectid>audiolevels</effectid>
							<effectcategory>audiolevels</effectcategory>
							<effecttype>audiolevels</effecttype>
							<mediatype>audio</mediatype>
							<parameter>
								<name>Level</name>
								<parameterid>level</parameterid>
								<valuemin>0</valuemin>
								<valuemax>3.98109</valuemax>
								<value>1</value>
							</parameter>
						</effect>
					</filter>
					<filter>
						<effect>
							<name>Audio Pan</name>
							<effectid>audiopan</effectid>
							<effectcategory>audiopan</effectcategory>
							<effecttype>audiopan</effecttype>
							<mediatype>audio</mediatype>
							<parameter>
								<name>Pan</name>
								<parameterid>pan</parameterid>
								<valuemin>-1</valuemin>
								<valuemax>1</valuemax>
								<value>0</value>
							</parameter>
						</effect>
					</filter>
					<sourcetrack>
						<mediatype>audio</mediatype>
						<trackindex>2</trackindex>
					</sourcetrack>
					<link>
						<linkclipref>010_22_01_A</linkclipref>
						<mediatype>video</mediatype>
						<trackindex>1</trackindex>
						<clipindex>99</clipindex>
					</link>
					<link>
						<linkclipref>010_22_01_A2</linkclipref>
						<mediatype>audio</mediatype>
						<trackindex>1</trackindex>
						<clipindex>99</clipindex>
					</link>
					<link>
						<linkclipref>010_22_01_A3</linkclipref>
						<mediatype>audio</mediatype>
						<trackindex>2</trackindex>
						<clipindex>99</clipindex>
					</link>
					<link>
						<linkclipref>010_22_01_A4</linkclipref>
						<mediatype>audio</mediatype>
						<trackindex>3</trackindex>
						<clipindex>97</clipindex>
					</link>
					<itemhistory>
						<uuid>C3EC0A5D-2289-480B-9622-09D107FD8A36</uuid>
					</itemhistory>
				</clipitem>
				<clipitem id="010_22_02_A3">
					<name>010_22_02_A</name>
					<duration>327</duration>
					<rate>
						<ntsc>FALSE</ntsc>
						<timebase>24</timebase>
					</rate>
					<in>0</in>
					<out>327</out>
					<start>49139</start>
					<end>49466</end>
					<subframeoffset>0</subframeoffset>
					<enabled>TRUE</enabled>
					<masterclipid>010_22_02_A1</masterclipid>
					<logginginfo>
						<scene/>
						<shottake/>
						<lognote/>
						<good>FALSE</good>
					</logginginfo>
					<labels>
						<label2/>
					</labels>
					<comments>
						<mastercomment1/>
						<mastercomment2/>
						<mastercomment3/>
						<mastercomment4/>
					</comments>
					<file id="A003C026_221211_R03K"/>
					<filter>
						<effect>
							<name>Audio Levels</name>
							<effectid>audiolevels</effectid>
							<effectcategory>audiolevels</effectcategory>
							<effecttype>audiolevels</effecttype>
							<mediatype>audio</mediatype>
							<parameter>
								<name>Level</name>
								<parameterid>level</parameterid>
								<valuemin>0</valuemin>
								<valuemax>3.98109</valuemax>
								<value>1</value>
							</parameter>
						</effect>
					</filter>
					<filter>
						<effect>
							<name>Audio Pan</name>
							<effectid>audiopan</effectid>
							<effectcategory>audiopan</effectcategory>
							<effecttype>audiopan</effecttype>
							<mediatype>audio</mediatype>
							<parameter>
								<name>Pan</name>
								<parameterid>pan</parameterid>
								<valuemin>-1</valuemin>
								<valuemax>1</valuemax>
								<value>0</value>
							</parameter>
						</effect>
					</filter>
					<sourcetrack>
						<mediatype>audio</mediatype>
						<trackindex>2</trackindex>
					</sourcetrack>
					<link>
						<linkclipref>010_22_02_A</linkclipref>
						<mediatype>video</mediatype>
						<trackindex>1</trackindex>
						<clipindex>100</clipindex>
					</link>
					<link>
						<linkclipref>010_22_02_A2</linkclipref>
						<mediatype>audio</mediatype>
						<trackindex>1</trackindex>
						<clipindex>100</clipindex>
					</link>
					<link>
						<linkclipref>010_22_02_A3</linkclipref>
						<mediatype>audio</mediatype>
						<trackindex>2</trackindex>
						<clipindex>100</clipindex>
					</link>
					<link>
						<linkclipref>010_22_02_A4</linkclipref>
						<mediatype>audio</mediatype>
						<trackindex>3</trackindex>
						<clipindex>98</clipindex>
					</link>
					<itemhistory>
						<uuid>9EA15257-2155-41D3-8C0A-4ECD8C50B0F3</uuid>
					</itemhistory>
				</clipitem>
				<clipitem id="010_22_03_A_OK3">
					<name>010_22_03_A_OK</name>
					<duration>374</duration>
					<rate>
						<ntsc>FALSE</ntsc>
						<timebase>24</timebase>
					</rate>
					<in>101</in>
					<out>186</out>
					<start>49466</start>
					<end>49551</end>
					<subframeoffset>0</subframeoffset>
					<enabled>TRUE</enabled>
					<masterclipid>010_22_03_A_OK1</masterclipid>
					<logginginfo>
						<scene/>
						<shottake/>
						<lognote/>
						<good>FALSE</good>
					</logginginfo>
					<labels>
						<label2/>
					</labels>
					<comments>
						<mastercomment1/>
						<mastercomment2/>
						<mastercomment3/>
						<mastercomment4/>
					</comments>
					<file id="A003C027_221211_R03K"/>
					<filter>
						<effect>
							<name>Audio Levels</name>
							<effectid>audiolevels</effectid>
							<effectcategory>audiolevels</effectcategory>
							<effecttype>audiolevels</effecttype>
							<mediatype>audio</mediatype>
							<parameter>
								<name>Level</name>
								<parameterid>level</parameterid>
								<valuemin>0</valuemin>
								<valuemax>3.98109</valuemax>
								<value>1</value>
							</parameter>
						</effect>
					</filter>
					<filter>
						<effect>
							<name>Audio Pan</name>
							<effectid>audiopan</effectid>
							<effectcategory>audiopan</effectcategory>
							<effecttype>audiopan</effecttype>
							<mediatype>audio</mediatype>
							<parameter>
								<name>Pan</name>
								<parameterid>pan</parameterid>
								<valuemin>-1</valuemin>
								<valuemax>1</valuemax>
								<value>0</value>
							</parameter>
						</effect>
					</filter>
					<sourcetrack>
						<mediatype>audio</mediatype>
						<trackindex>2</trackindex>
					</sourcetrack>
					<link>
						<linkclipref>010_22_03_A_OK</linkclipref>
						<mediatype>video</mediatype>
						<trackindex>1</trackindex>
						<clipindex>101</clipindex>
					</link>
					<link>
						<linkclipref>010_22_03_A_OK2</linkclipref>
						<mediatype>audio</mediatype>
						<trackindex>1</trackindex>
						<clipindex>101</clipindex>
					</link>
					<link>
						<linkclipref>010_22_03_A_OK3</linkclipref>
						<mediatype>audio</mediatype>
						<trackindex>2</trackindex>
						<clipindex>101</clipindex>
					</link>
					<link>
						<linkclipref>010_22_03_A_OK4</linkclipref>
						<mediatype>audio</mediatype>
						<trackindex>3</trackindex>
						<clipindex>99</clipindex>
					</link>
					<itemhistory>
						<uuid>3D7BAD54-A965-4687-A297-7643F13E2E8E</uuid>
					</itemhistory>
				</clipitem>
				<clipitem id="010_23_01_A3">
					<name>010_23_01_A</name>
					<duration>210</duration>
					<rate>
						<ntsc>FALSE</ntsc>
						<timebase>24</timebase>
					</rate>
					<in>0</in>
					<out>210</out>
					<start>49551</start>
					<end>49761</end>
					<subframeoffset>0</subframeoffset>
					<enabled>TRUE</enabled>
					<masterclipid>010_23_01_A1</masterclipid>
					<logginginfo>
						<scene/>
						<shottake/>
						<lognote/>
						<good>FALSE</good>
					</logginginfo>
					<labels>
						<label2/>
					</labels>
					<comments>
						<mastercomment1/>
						<mastercomment2/>
						<mastercomment3/>
						<mastercomment4/>
					</comments>
					<file id="A003C028_221211_R03K"/>
					<filter>
						<effect>
							<name>Audio Levels</name>
							<effectid>audiolevels</effectid>
							<effectcategory>audiolevels</effectcategory>
							<effecttype>audiolevels</effecttype>
							<mediatype>audio</mediatype>
							<parameter>
								<name>Level</name>
								<parameterid>level</parameterid>
								<valuemin>0</valuemin>
								<valuemax>3.98109</valuemax>
								<value>1</value>
							</parameter>
						</effect>
					</filter>
					<filter>
						<effect>
							<name>Audio Pan</name>
							<effectid>audiopan</effectid>
							<effectcategory>audiopan</effectcategory>
							<effecttype>audiopan</effecttype>
							<mediatype>audio</mediatype>
							<parameter>
								<name>Pan</name>
								<parameterid>pan</parameterid>
								<valuemin>-1</valuemin>
								<valuemax>1</valuemax>
								<value>1</value>
							</parameter>
						</effect>
					</filter>
					<sourcetrack>
						<mediatype>audio</mediatype>
						<trackindex>2</trackindex>
					</sourcetrack>
					<link>
						<linkclipref>010_23_01_A</linkclipref>
						<mediatype>video</mediatype>
						<trackindex>1</trackindex>
						<clipindex>102</clipindex>
					</link>
					<link>
						<linkclipref>010_23_01_A2</linkclipref>
						<mediatype>audio</mediatype>
						<trackindex>1</trackindex>
						<clipindex>102</clipindex>
						<groupindex>1</groupindex>
					</link>
					<link>
						<linkclipref>010_23_01_A3</linkclipref>
						<mediatype>audio</mediatype>
						<trackindex>2</trackindex>
						<clipindex>102</clipindex>
						<groupindex>1</groupindex>
					</link>
					<itemhistory>
						<uuid>DC7DEA84-FF39-414E-B9CC-60E392EAC088</uuid>
					</itemhistory>
				</clipitem>
				<clipitem id="010_23_02_A3">
					<name>010_23_02_A</name>
					<duration>240</duration>
					<rate>
						<ntsc>FALSE</ntsc>
						<timebase>24</timebase>
					</rate>
					<in>0</in>
					<out>240</out>
					<start>49761</start>
					<end>50001</end>
					<subframeoffset>0</subframeoffset>
					<enabled>TRUE</enabled>
					<masterclipid>010_23_02_A1</masterclipid>
					<logginginfo>
						<scene/>
						<shottake/>
						<lognote/>
						<good>FALSE</good>
					</logginginfo>
					<labels>
						<label2/>
					</labels>
					<comments>
						<mastercomment1/>
						<mastercomment2/>
						<mastercomment3/>
						<mastercomment4/>
					</comments>
					<file id="A003C029_221211_R03K"/>
					<filter>
						<effect>
							<name>Audio Levels</name>
							<effectid>audiolevels</effectid>
							<effectcategory>audiolevels</effectcategory>
							<effecttype>audiolevels</effecttype>
							<mediatype>audio</mediatype>
							<parameter>
								<name>Level</name>
								<parameterid>level</parameterid>
								<valuemin>0</valuemin>
								<valuemax>3.98109</valuemax>
								<value>1</value>
							</parameter>
						</effect>
					</filter>
					<filter>
						<effect>
							<name>Audio Pan</name>
							<effectid>audiopan</effectid>
							<effectcategory>audiopan</effectcategory>
							<effecttype>audiopan</effecttype>
							<mediatype>audio</mediatype>
							<parameter>
								<name>Pan</name>
								<parameterid>pan</parameterid>
								<valuemin>-1</valuemin>
								<valuemax>1</valuemax>
								<value>1</value>
							</parameter>
						</effect>
					</filter>
					<sourcetrack>
						<mediatype>audio</mediatype>
						<trackindex>2</trackindex>
					</sourcetrack>
					<link>
						<linkclipref>010_23_02_A</linkclipref>
						<mediatype>video</mediatype>
						<trackindex>1</trackindex>
						<clipindex>103</clipindex>
					</link>
					<link>
						<linkclipref>010_23_02_A2</linkclipref>
						<mediatype>audio</mediatype>
						<trackindex>1</trackindex>
						<clipindex>103</clipindex>
						<groupindex>1</groupindex>
					</link>
					<link>
						<linkclipref>010_23_02_A3</linkclipref>
						<mediatype>audio</mediatype>
						<trackindex>2</trackindex>
						<clipindex>103</clipindex>
						<groupindex>1</groupindex>
					</link>
					<itemhistory>
						<uuid>563EAEC3-717F-4F80-A53B-9CFFF14C52CA</uuid>
					</itemhistory>
				</clipitem>
				<clipitem id="010_23_03_A_OK3">
					<name>010_23_03_A_OK</name>
					<duration>231</duration>
					<rate>
						<ntsc>FALSE</ntsc>
						<timebase>24</timebase>
					</rate>
					<in>87</in>
					<out>158</out>
					<start>50001</start>
					<end>50072</end>
					<subframeoffset>0</subframeoffset>
					<enabled>TRUE</enabled>
					<masterclipid>010_23_03_A_OK1</masterclipid>
					<logginginfo>
						<scene/>
						<shottake/>
						<lognote/>
						<good>FALSE</good>
					</logginginfo>
					<labels>
						<label2/>
					</labels>
					<comments>
						<mastercomment1/>
						<mastercomment2/>
						<mastercomment3/>
						<mastercomment4/>
					</comments>
					<file id="A003C030_221211_R03K"/>
					<filter>
						<effect>
							<name>Audio Levels</name>
							<effectid>audiolevels</effectid>
							<effectcategory>audiolevels</effectcategory>
							<effecttype>audiolevels</effecttype>
							<mediatype>audio</mediatype>
							<parameter>
								<name>Level</name>
								<parameterid>level</parameterid>
								<valuemin>0</valuemin>
								<valuemax>3.98109</valuemax>
								<value>1</value>
							</parameter>
						</effect>
					</filter>
					<filter>
						<effect>
							<name>Audio Pan</name>
							<effectid>audiopan</effectid>
							<effectcategory>audiopan</effectcategory>
							<effecttype>audiopan</effecttype>
							<mediatype>audio</mediatype>
							<parameter>
								<name>Pan</name>
								<parameterid>pan</parameterid>
								<valuemin>-1</valuemin>
								<valuemax>1</valuemax>
								<value>1</value>
							</parameter>
						</effect>
					</filter>
					<sourcetrack>
						<mediatype>audio</mediatype>
						<trackindex>2</trackindex>
					</sourcetrack>
					<link>
						<linkclipref>010_23_03_A_OK</linkclipref>
						<mediatype>video</mediatype>
						<trackindex>1</trackindex>
						<clipindex>104</clipindex>
					</link>
					<link>
						<linkclipref>010_23_03_A_OK2</linkclipref>
						<mediatype>audio</mediatype>
						<trackindex>1</trackindex>
						<clipindex>104</clipindex>
						<groupindex>1</groupindex>
					</link>
					<link>
						<linkclipref>010_23_03_A_OK3</linkclipref>
						<mediatype>audio</mediatype>
						<trackindex>2</trackindex>
						<clipindex>104</clipindex>
						<groupindex>1</groupindex>
					</link>
					<itemhistory>
						<uuid>946BEEA1-D8B6-43DE-872D-E647DF7358D7</uuid>
					</itemhistory>
				</clipitem>
				<enabled>TRUE</enabled>
				<locked>FALSE</locked>
				<outputchannelindex>2</outputchannelindex>
			</track>
			<track>
				<clipitem id="010_01_01_A4">
					<name>010_01_01_A</name>
					<duration>628</duration>
					<rate>
						<ntsc>FALSE</ntsc>
						<timebase>24</timebase>
					</rate>
					<in>0</in>
					<out>628</out>
					<start>0</start>
					<end>628</end>
					<subframeoffset>0</subframeoffset>
					<enabled>TRUE</enabled>
					<masterclipid>010_01_01_A1</masterclipid>
					<logginginfo>
						<scene/>
						<shottake/>
						<lognote/>
						<good>FALSE</good>
					</logginginfo>
					<labels>
						<label2/>
					</labels>
					<comments>
						<mastercomment1/>
						<mastercomment2/>
						<mastercomment3/>
						<mastercomment4/>
					</comments>
					<file id="A001C019_221211_R03K"/>
					<filter>
						<effect>
							<name>Audio Levels</name>
							<effectid>audiolevels</effectid>
							<effectcategory>audiolevels</effectcategory>
							<effecttype>audiolevels</effecttype>
							<mediatype>audio</mediatype>
							<parameter>
								<name>Level</name>
								<parameterid>level</parameterid>
								<valuemin>0</valuemin>
								<valuemax>3.98109</valuemax>
								<value>1</value>
							</parameter>
						</effect>
					</filter>
					<filter>
						<effect>
							<name>Audio Pan</name>
							<effectid>audiopan</effectid>
							<effectcategory>audiopan</effectcategory>
							<effecttype>audiopan</effecttype>
							<mediatype>audio</mediatype>
							<parameter>
								<name>Pan</name>
								<parameterid>pan</parameterid>
								<valuemin>-1</valuemin>
								<valuemax>1</valuemax>
								<value>0</value>
							</parameter>
						</effect>
					</filter>
					<sourcetrack>
						<mediatype>audio</mediatype>
						<trackindex>3</trackindex>
					</sourcetrack>
					<link>
						<linkclipref>010_01_01_A</linkclipref>
						<mediatype>video</mediatype>
						<trackindex>1</trackindex>
						<clipindex>1</clipindex>
					</link>
					<link>
						<linkclipref>010_01_01_A2</linkclipref>
						<mediatype>audio</mediatype>
						<trackindex>1</trackindex>
						<clipindex>1</clipindex>
					</link>
					<link>
						<linkclipref>010_01_01_A3</linkclipref>
						<mediatype>audio</mediatype>
						<trackindex>2</trackindex>
						<clipindex>1</clipindex>
					</link>
					<link>
						<linkclipref>010_01_01_A4</linkclipref>
						<mediatype>audio</mediatype>
						<trackindex>3</trackindex>
						<clipindex>1</clipindex>
					</link>
					<link>
						<linkclipref>010_01_01_A5</linkclipref>
						<mediatype>audio</mediatype>
						<trackindex>4</trackindex>
						<clipindex>1</clipindex>
					</link>
					<itemhistory>
						<uuid>A239B523-706C-4E9F-BEAB-BEA800DFE6E0</uuid>
					</itemhistory>
				</clipitem>
				<clipitem id="010_01_01_B4">
					<name>010_01_01_B</name>
					<duration>676</duration>
					<rate>
						<ntsc>FALSE</ntsc>
						<timebase>24</timebase>
					</rate>
					<in>0</in>
					<out>676</out>
					<start>628</start>
					<end>1304</end>
					<subframeoffset>0</subframeoffset>
					<enabled>TRUE</enabled>
					<masterclipid>010_01_01_B1</masterclipid>
					<logginginfo>
						<scene/>
						<shottake/>
						<lognote/>
						<good>FALSE</good>
					</logginginfo>
					<labels>
						<label2/>
					</labels>
					<comments>
						<mastercomment1/>
						<mastercomment2/>
						<mastercomment3/>
						<mastercomment4/>
					</comments>
					<file id="B001C006_130101_R1WX"/>
					<filter>
						<effect>
							<name>Audio Levels</name>
							<effectid>audiolevels</effectid>
							<effectcategory>audiolevels</effectcategory>
							<effecttype>audiolevels</effecttype>
							<mediatype>audio</mediatype>
							<parameter>
								<name>Level</name>
								<parameterid>level</parameterid>
								<valuemin>0</valuemin>
								<valuemax>3.98109</valuemax>
								<value>1</value>
							</parameter>
						</effect>
					</filter>
					<filter>
						<effect>
							<name>Audio Pan</name>
							<effectid>audiopan</effectid>
							<effectcategory>audiopan</effectcategory>
							<effecttype>audiopan</effecttype>
							<mediatype>audio</mediatype>
							<parameter>
								<name>Pan</name>
								<parameterid>pan</parameterid>
								<valuemin>-1</valuemin>
								<valuemax>1</valuemax>
								<value>0</value>
							</parameter>
						</effect>
					</filter>
					<sourcetrack>
						<mediatype>audio</mediatype>
						<trackindex>3</trackindex>
					</sourcetrack>
					<link>
						<linkclipref>010_01_01_B</linkclipref>
						<mediatype>video</mediatype>
						<trackindex>1</trackindex>
						<clipindex>2</clipindex>
					</link>
					<link>
						<linkclipref>010_01_01_B2</linkclipref>
						<mediatype>audio</mediatype>
						<trackindex>1</trackindex>
						<clipindex>2</clipindex>
					</link>
					<link>
						<linkclipref>010_01_01_B3</linkclipref>
						<mediatype>audio</mediatype>
						<trackindex>2</trackindex>
						<clipindex>2</clipindex>
					</link>
					<link>
						<linkclipref>010_01_01_B4</linkclipref>
						<mediatype>audio</mediatype>
						<trackindex>3</trackindex>
						<clipindex>2</clipindex>
					</link>
					<link>
						<linkclipref>010_01_01_B5</linkclipref>
						<mediatype>audio</mediatype>
						<trackindex>4</trackindex>
						<clipindex>2</clipindex>
					</link>
					<itemhistory>
						<uuid>602BDD00-58D9-4FE5-81B7-DAF113512444</uuid>
					</itemhistory>
				</clipitem>
				<clipitem id="010_01_02_A4">
					<name>010_01_02_A</name>
					<duration>638</duration>
					<rate>
						<ntsc>FALSE</ntsc>
						<timebase>24</timebase>
					</rate>
					<in>0</in>
					<out>638</out>
					<start>1304</start>
					<end>1942</end>
					<subframeoffset>0</subframeoffset>
					<enabled>TRUE</enabled>
					<masterclipid>010_01_02_A1</masterclipid>
					<logginginfo>
						<scene/>
						<shottake/>
						<lognote/>
						<good>FALSE</good>
					</logginginfo>
					<labels>
						<label2/>
					</labels>
					<comments>
						<mastercomment1/>
						<mastercomment2/>
						<mastercomment3/>
						<mastercomment4/>
					</comments>
					<file id="A001C020_221211_R03K"/>
					<filter>
						<effect>
							<name>Audio Levels</name>
							<effectid>audiolevels</effectid>
							<effectcategory>audiolevels</effectcategory>
							<effecttype>audiolevels</effecttype>
							<mediatype>audio</mediatype>
							<parameter>
								<name>Level</name>
								<parameterid>level</parameterid>
								<valuemin>0</valuemin>
								<valuemax>3.98109</valuemax>
								<value>1</value>
							</parameter>
						</effect>
					</filter>
					<filter>
						<effect>
							<name>Audio Pan</name>
							<effectid>audiopan</effectid>
							<effectcategory>audiopan</effectcategory>
							<effecttype>audiopan</effecttype>
							<mediatype>audio</mediatype>
							<parameter>
								<name>Pan</name>
								<parameterid>pan</parameterid>
								<valuemin>-1</valuemin>
								<valuemax>1</valuemax>
								<value>0</value>
							</parameter>
						</effect>
					</filter>
					<sourcetrack>
						<mediatype>audio</mediatype>
						<trackindex>3</trackindex>
					</sourcetrack>
					<link>
						<linkclipref>010_01_02_A</linkclipref>
						<mediatype>video</mediatype>
						<trackindex>1</trackindex>
						<clipindex>3</clipindex>
					</link>
					<link>
						<linkclipref>010_01_02_A2</linkclipref>
						<mediatype>audio</mediatype>
						<trackindex>1</trackindex>
						<clipindex>3</clipindex>
					</link>
					<link>
						<linkclipref>010_01_02_A3</linkclipref>
						<mediatype>audio</mediatype>
						<trackindex>2</trackindex>
						<clipindex>3</clipindex>
					</link>
					<link>
						<linkclipref>010_01_02_A4</linkclipref>
						<mediatype>audio</mediatype>
						<trackindex>3</trackindex>
						<clipindex>3</clipindex>
					</link>
					<link>
						<linkclipref>010_01_02_A5</linkclipref>
						<mediatype>audio</mediatype>
						<trackindex>4</trackindex>
						<clipindex>3</clipindex>
					</link>
					<itemhistory>
						<uuid>5011D60F-104A-426B-9D8A-1ECF688345A0</uuid>
					</itemhistory>
				</clipitem>
				<clipitem id="010_01_02_B4">
					<name>010_01_02_B</name>
					<duration>691</duration>
					<rate>
						<ntsc>FALSE</ntsc>
						<timebase>24</timebase>
					</rate>
					<in>0</in>
					<out>691</out>
					<start>1942</start>
					<end>2633</end>
					<subframeoffset>0</subframeoffset>
					<enabled>TRUE</enabled>
					<masterclipid>010_01_02_B1</masterclipid>
					<logginginfo>
						<scene/>
						<shottake/>
						<lognote/>
						<good>FALSE</good>
					</logginginfo>
					<labels>
						<label2/>
					</labels>
					<comments>
						<mastercomment1/>
						<mastercomment2/>
						<mastercomment3/>
						<mastercomment4/>
					</comments>
					<file id="B001C007_130101_R1WX"/>
					<filter>
						<effect>
							<name>Audio Levels</name>
							<effectid>audiolevels</effectid>
							<effectcategory>audiolevels</effectcategory>
							<effecttype>audiolevels</effecttype>
							<mediatype>audio</mediatype>
							<parameter>
								<name>Level</name>
								<parameterid>level</parameterid>
								<valuemin>0</valuemin>
								<valuemax>3.98109</valuemax>
								<value>1</value>
							</parameter>
						</effect>
					</filter>
					<filter>
						<effect>
							<name>Audio Pan</name>
							<effectid>audiopan</effectid>
							<effectcategory>audiopan</effectcategory>
							<effecttype>audiopan</effecttype>
							<mediatype>audio</mediatype>
							<parameter>
								<name>Pan</name>
								<parameterid>pan</parameterid>
								<valuemin>-1</valuemin>
								<valuemax>1</valuemax>
								<value>0</value>
							</parameter>
						</effect>
					</filter>
					<sourcetrack>
						<mediatype>audio</mediatype>
						<trackindex>3</trackindex>
					</sourcetrack>
					<link>
						<linkclipref>010_01_02_B</linkclipref>
						<mediatype>video</mediatype>
						<trackindex>1</trackindex>
						<clipindex>4</clipindex>
					</link>
					<link>
						<linkclipref>010_01_02_B2</linkclipref>
						<mediatype>audio</mediatype>
						<trackindex>1</trackindex>
						<clipindex>4</clipindex>
					</link>
					<link>
						<linkclipref>010_01_02_B3</linkclipref>
						<mediatype>audio</mediatype>
						<trackindex>2</trackindex>
						<clipindex>4</clipindex>
					</link>
					<link>
						<linkclipref>010_01_02_B4</linkclipref>
						<mediatype>audio</mediatype>
						<trackindex>3</trackindex>
						<clipindex>4</clipindex>
					</link>
					<link>
						<linkclipref>010_01_02_B5</linkclipref>
						<mediatype>audio</mediatype>
						<trackindex>4</trackindex>
						<clipindex>4</clipindex>
					</link>
					<itemhistory>
						<uuid>1A7B4D1A-2DCB-4F89-8AFB-0233672AA41B</uuid>
					</itemhistory>
				</clipitem>
				<clipitem id="010_01_03_A4">
					<name>010_01_03_A</name>
					<duration>213</duration>
					<rate>
						<ntsc>FALSE</ntsc>
						<timebase>24</timebase>
					</rate>
					<in>0</in>
					<out>213</out>
					<start>2633</start>
					<end>2846</end>
					<subframeoffset>0</subframeoffset>
					<enabled>TRUE</enabled>
					<masterclipid>010_01_03_A1</masterclipid>
					<logginginfo>
						<scene/>
						<shottake/>
						<lognote/>
						<good>FALSE</good>
					</logginginfo>
					<labels>
						<label2/>
					</labels>
					<comments>
						<mastercomment1/>
						<mastercomment2/>
						<mastercomment3/>
						<mastercomment4/>
					</comments>
					<file id="A001C021_221211_R03K"/>
					<filter>
						<effect>
							<name>Audio Levels</name>
							<effectid>audiolevels</effectid>
							<effectcategory>audiolevels</effectcategory>
							<effecttype>audiolevels</effecttype>
							<mediatype>audio</mediatype>
							<parameter>
								<name>Level</name>
								<parameterid>level</parameterid>
								<valuemin>0</valuemin>
								<valuemax>3.98109</valuemax>
								<value>1</value>
							</parameter>
						</effect>
					</filter>
					<filter>
						<effect>
							<name>Audio Pan</name>
							<effectid>audiopan</effectid>
							<effectcategory>audiopan</effectcategory>
							<effecttype>audiopan</effecttype>
							<mediatype>audio</mediatype>
							<parameter>
								<name>Pan</name>
								<parameterid>pan</parameterid>
								<valuemin>-1</valuemin>
								<valuemax>1</valuemax>
								<value>0</value>
							</parameter>
						</effect>
					</filter>
					<sourcetrack>
						<mediatype>audio</mediatype>
						<trackindex>3</trackindex>
					</sourcetrack>
					<link>
						<linkclipref>010_01_03_A</linkclipref>
						<mediatype>video</mediatype>
						<trackindex>1</trackindex>
						<clipindex>5</clipindex>
					</link>
					<link>
						<linkclipref>010_01_03_A2</linkclipref>
						<mediatype>audio</mediatype>
						<trackindex>1</trackindex>
						<clipindex>5</clipindex>
					</link>
					<link>
						<linkclipref>010_01_03_A3</linkclipref>
						<mediatype>audio</mediatype>
						<trackindex>2</trackindex>
						<clipindex>5</clipindex>
					</link>
					<link>
						<linkclipref>010_01_03_A4</linkclipref>
						<mediatype>audio</mediatype>
						<trackindex>3</trackindex>
						<clipindex>5</clipindex>
					</link>
					<itemhistory>
						<uuid>F82E81DD-06AE-470A-8313-8B4C31DD7082</uuid>
					</itemhistory>
				</clipitem>
				<clipitem id="010_01_03_B4">
					<name>010_01_03_B</name>
					<duration>277</duration>
					<rate>
						<ntsc>FALSE</ntsc>
						<timebase>24</timebase>
					</rate>
					<in>0</in>
					<out>277</out>
					<start>2846</start>
					<end>3123</end>
					<subframeoffset>0</subframeoffset>
					<enabled>TRUE</enabled>
					<masterclipid>010_01_03_B1</masterclipid>
					<logginginfo>
						<scene/>
						<shottake/>
						<lognote/>
						<good>FALSE</good>
					</logginginfo>
					<labels>
						<label2/>
					</labels>
					<comments>
						<mastercomment1/>
						<mastercomment2/>
						<mastercomment3/>
						<mastercomment4/>
					</comments>
					<file id="B001C008_130101_R1WX"/>
					<filter>
						<effect>
							<name>Audio Levels</name>
							<effectid>audiolevels</effectid>
							<effectcategory>audiolevels</effectcategory>
							<effecttype>audiolevels</effecttype>
							<mediatype>audio</mediatype>
							<parameter>
								<name>Level</name>
								<parameterid>level</parameterid>
								<valuemin>0</valuemin>
								<valuemax>3.98109</valuemax>
								<value>1</value>
							</parameter>
						</effect>
					</filter>
					<filter>
						<effect>
							<name>Audio Pan</name>
							<effectid>audiopan</effectid>
							<effectcategory>audiopan</effectcategory>
							<effecttype>audiopan</effecttype>
							<mediatype>audio</mediatype>
							<parameter>
								<name>Pan</name>
								<parameterid>pan</parameterid>
								<valuemin>-1</valuemin>
								<valuemax>1</valuemax>
								<value>0</value>
							</parameter>
						</effect>
					</filter>
					<sourcetrack>
						<mediatype>audio</mediatype>
						<trackindex>3</trackindex>
					</sourcetrack>
					<link>
						<linkclipref>010_01_03_B</linkclipref>
						<mediatype>video</mediatype>
						<trackindex>1</trackindex>
						<clipindex>6</clipindex>
					</link>
					<link>
						<linkclipref>010_01_03_B2</linkclipref>
						<mediatype>audio</mediatype>
						<trackindex>1</trackindex>
						<clipindex>6</clipindex>
					</link>
					<link>
						<linkclipref>010_01_03_B3</linkclipref>
						<mediatype>audio</mediatype>
						<trackindex>2</trackindex>
						<clipindex>6</clipindex>
					</link>
					<link>
						<linkclipref>010_01_03_B4</linkclipref>
						<mediatype>audio</mediatype>
						<trackindex>3</trackindex>
						<clipindex>6</clipindex>
					</link>
					<itemhistory>
						<uuid>7F67CDA9-681F-4DB2-B6F5-4F14F69E171B</uuid>
					</itemhistory>
				</clipitem>
				<clipitem id="010_01_04_A_归诚进OK4">
					<name>010_01_04_A_归诚进OK</name>
					<duration>590</duration>
					<rate>
						<ntsc>FALSE</ntsc>
						<timebase>24</timebase>
					</rate>
					<in>139</in>
					<out>252</out>
					<start>3123</start>
					<end>3236</end>
					<subframeoffset>0</subframeoffset>
					<enabled>TRUE</enabled>
					<masterclipid>010_01_04_A_归诚进OK1</masterclipid>
					<logginginfo>
						<scene/>
						<shottake/>
						<lognote/>
						<good>FALSE</good>
					</logginginfo>
					<labels>
						<label2/>
					</labels>
					<comments>
						<mastercomment1/>
						<mastercomment2/>
						<mastercomment3/>
						<mastercomment4/>
					</comments>
					<file id="A001C022_221211_R03K"/>
					<filter>
						<effect>
							<name>Audio Levels</name>
							<effectid>audiolevels</effectid>
							<effectcategory>audiolevels</effectcategory>
							<effecttype>audiolevels</effecttype>
							<mediatype>audio</mediatype>
							<parameter>
								<name>Level</name>
								<parameterid>level</parameterid>
								<valuemin>0</valuemin>
								<valuemax>3.98109</valuemax>
								<value>1</value>
							</parameter>
						</effect>
					</filter>
					<filter>
						<effect>
							<name>Audio Pan</name>
							<effectid>audiopan</effectid>
							<effectcategory>audiopan</effectcategory>
							<effecttype>audiopan</effecttype>
							<mediatype>audio</mediatype>
							<parameter>
								<name>Pan</name>
								<parameterid>pan</parameterid>
								<valuemin>-1</valuemin>
								<valuemax>1</valuemax>
								<value>0</value>
							</parameter>
						</effect>
					</filter>
					<sourcetrack>
						<mediatype>audio</mediatype>
						<trackindex>3</trackindex>
					</sourcetrack>
					<link>
						<linkclipref>010_01_04_A_归诚进OK</linkclipref>
						<mediatype>video</mediatype>
						<trackindex>1</trackindex>
						<clipindex>7</clipindex>
					</link>
					<link>
						<linkclipref>010_01_04_A_归诚进OK2</linkclipref>
						<mediatype>audio</mediatype>
						<trackindex>1</trackindex>
						<clipindex>7</clipindex>
					</link>
					<link>
						<linkclipref>010_01_04_A_归诚进OK3</linkclipref>
						<mediatype>audio</mediatype>
						<trackindex>2</trackindex>
						<clipindex>7</clipindex>
					</link>
					<link>
						<linkclipref>010_01_04_A_归诚进OK4</linkclipref>
						<mediatype>audio</mediatype>
						<trackindex>3</trackindex>
						<clipindex>7</clipindex>
					</link>
					<itemhistory>
						<uuid>AF76ADB9-7064-4ADF-890A-52649C05A2A2</uuid>
					</itemhistory>
				</clipitem>
				<clipitem id="010_01_04_B_归诚进OK4">
					<name>010_01_04_B_归诚进OK</name>
					<duration>630</duration>
					<rate>
						<ntsc>FALSE</ntsc>
						<timebase>24</timebase>
					</rate>
					<in>241</in>
					<out>295</out>
					<start>3236</start>
					<end>3290</end>
					<subframeoffset>0</subframeoffset>
					<enabled>TRUE</enabled>
					<masterclipid>010_01_04_B_归诚进OK1</masterclipid>
					<logginginfo>
						<scene/>
						<shottake/>
						<lognote/>
						<good>FALSE</good>
					</logginginfo>
					<labels>
						<label2/>
					</labels>
					<comments>
						<mastercomment1/>
						<mastercomment2/>
						<mastercomment3/>
						<mastercomment4/>
					</comments>
					<file id="B001C009_130101_R1WX"/>
					<filter>
						<effect>
							<name>Audio Levels</name>
							<effectid>audiolevels</effectid>
							<effectcategory>audiolevels</effectcategory>
							<effecttype>audiolevels</effecttype>
							<mediatype>audio</mediatype>
							<parameter>
								<name>Level</name>
								<parameterid>level</parameterid>
								<valuemin>0</valuemin>
								<valuemax>3.98109</valuemax>
								<value>1</value>
							</parameter>
						</effect>
					</filter>
					<filter>
						<effect>
							<name>Audio Pan</name>
							<effectid>audiopan</effectid>
							<effectcategory>audiopan</effectcategory>
							<effecttype>audiopan</effecttype>
							<mediatype>audio</mediatype>
							<parameter>
								<name>Pan</name>
								<parameterid>pan</parameterid>
								<valuemin>-1</valuemin>
								<valuemax>1</valuemax>
								<value>0</value>
							</parameter>
						</effect>
					</filter>
					<sourcetrack>
						<mediatype>audio</mediatype>
						<trackindex>3</trackindex>
					</sourcetrack>
					<link>
						<linkclipref>010_01_04_B_归诚进OK</linkclipref>
						<mediatype>video</mediatype>
						<trackindex>1</trackindex>
						<clipindex>8</clipindex>
					</link>
					<link>
						<linkclipref>010_01_04_B_归诚进OK2</linkclipref>
						<mediatype>audio</mediatype>
						<trackindex>1</trackindex>
						<clipindex>8</clipindex>
					</link>
					<link>
						<linkclipref>010_01_04_B_归诚进OK3</linkclipref>
						<mediatype>audio</mediatype>
						<trackindex>2</trackindex>
						<clipindex>8</clipindex>
					</link>
					<link>
						<linkclipref>010_01_04_B_归诚进OK4</linkclipref>
						<mediatype>audio</mediatype>
						<trackindex>3</trackindex>
						<clipindex>8</clipindex>
					</link>
					<itemhistory>
						<uuid>E262A708-1E9A-4AE3-92D8-FDD8C1918ACD</uuid>
					</itemhistory>
				</clipitem>
				<clipitem id="010_01_05_A_OK4">
					<name>010_01_05_A_OK</name>
					<duration>625</duration>
					<rate>
						<ntsc>FALSE</ntsc>
						<timebase>24</timebase>
					</rate>
					<in>510</in>
					<out>550</out>
					<start>3290</start>
					<end>3330</end>
					<subframeoffset>0</subframeoffset>
					<enabled>TRUE</enabled>
					<masterclipid>010_01_05_A_OK1</masterclipid>
					<logginginfo>
						<scene/>
						<shottake/>
						<lognote/>
						<good>FALSE</good>
					</logginginfo>
					<labels>
						<label2/>
					</labels>
					<comments>
						<mastercomment1/>
						<mastercomment2/>
						<mastercomment3/>
						<mastercomment4/>
					</comments>
					<file id="A001C023_221211_R03K"/>
					<filter>
						<effect>
							<name>Audio Levels</name>
							<effectid>audiolevels</effectid>
							<effectcategory>audiolevels</effectcategory>
							<effecttype>audiolevels</effecttype>
							<mediatype>audio</mediatype>
							<parameter>
								<name>Level</name>
								<parameterid>level</parameterid>
								<valuemin>0</valuemin>
								<valuemax>3.98109</valuemax>
								<value>1</value>
							</parameter>
						</effect>
					</filter>
					<filter>
						<effect>
							<name>Audio Pan</name>
							<effectid>audiopan</effectid>
							<effectcategory>audiopan</effectcategory>
							<effecttype>audiopan</effecttype>
							<mediatype>audio</mediatype>
							<parameter>
								<name>Pan</name>
								<parameterid>pan</parameterid>
								<valuemin>-1</valuemin>
								<valuemax>1</valuemax>
								<value>0</value>
							</parameter>
						</effect>
					</filter>
					<sourcetrack>
						<mediatype>audio</mediatype>
						<trackindex>3</trackindex>
					</sourcetrack>
					<link>
						<linkclipref>010_01_05_A_OK</linkclipref>
						<mediatype>video</mediatype>
						<trackindex>1</trackindex>
						<clipindex>9</clipindex>
					</link>
					<link>
						<linkclipref>010_01_05_A_OK2</linkclipref>
						<mediatype>audio</mediatype>
						<trackindex>1</trackindex>
						<clipindex>9</clipindex>
					</link>
					<link>
						<linkclipref>010_01_05_A_OK3</linkclipref>
						<mediatype>audio</mediatype>
						<trackindex>2</trackindex>
						<clipindex>9</clipindex>
					</link>
					<link>
						<linkclipref>010_01_05_A_OK4</linkclipref>
						<mediatype>audio</mediatype>
						<trackindex>3</trackindex>
						<clipindex>9</clipindex>
					</link>
					<itemhistory>
						<uuid>477D89E1-DEAF-430F-AC9F-334CF4E1D104</uuid>
					</itemhistory>
				</clipitem>
				<clipitem id="010_01_05_B_OK4">
					<name>010_01_05_B_OK</name>
					<duration>658</duration>
					<rate>
						<ntsc>FALSE</ntsc>
						<timebase>24</timebase>
					</rate>
					<in>502</in>
					<out>553</out>
					<start>3330</start>
					<end>3381</end>
					<subframeoffset>0</subframeoffset>
					<enabled>TRUE</enabled>
					<masterclipid>010_01_05_B_OK1</masterclipid>
					<logginginfo>
						<scene/>
						<shottake/>
						<lognote/>
						<good>FALSE</good>
					</logginginfo>
					<labels>
						<label2/>
					</labels>
					<comments>
						<mastercomment1/>
						<mastercomment2/>
						<mastercomment3/>
						<mastercomment4/>
					</comments>
					<file id="B001C010_130101_R1WX"/>
					<filter>
						<effect>
							<name>Audio Levels</name>
							<effectid>audiolevels</effectid>
							<effectcategory>audiolevels</effectcategory>
							<effecttype>audiolevels</effecttype>
							<mediatype>audio</mediatype>
							<parameter>
								<name>Level</name>
								<parameterid>level</parameterid>
								<valuemin>0</valuemin>
								<valuemax>3.98109</valuemax>
								<value>1</value>
							</parameter>
						</effect>
					</filter>
					<filter>
						<effect>
							<name>Audio Pan</name>
							<effectid>audiopan</effectid>
							<effectcategory>audiopan</effectcategory>
							<effecttype>audiopan</effecttype>
							<mediatype>audio</mediatype>
							<parameter>
								<name>Pan</name>
								<parameterid>pan</parameterid>
								<valuemin>-1</valuemin>
								<valuemax>1</valuemax>
								<value>0</value>
							</parameter>
						</effect>
					</filter>
					<sourcetrack>
						<mediatype>audio</mediatype>
						<trackindex>3</trackindex>
					</sourcetrack>
					<link>
						<linkclipref>010_01_05_B_OK</linkclipref>
						<mediatype>video</mediatype>
						<trackindex>1</trackindex>
						<clipindex>10</clipindex>
					</link>
					<link>
						<linkclipref>010_01_05_B_OK2</linkclipref>
						<mediatype>audio</mediatype>
						<trackindex>1</trackindex>
						<clipindex>10</clipindex>
					</link>
					<link>
						<linkclipref>010_01_05_B_OK3</linkclipref>
						<mediatype>audio</mediatype>
						<trackindex>2</trackindex>
						<clipindex>10</clipindex>
					</link>
					<link>
						<linkclipref>010_01_05_B_OK4</linkclipref>
						<mediatype>audio</mediatype>
						<trackindex>3</trackindex>
						<clipindex>10</clipindex>
					</link>
					<itemhistory>
						<uuid>A6932F90-8A7C-4813-B5DD-9A5CEAAADBBA</uuid>
					</itemhistory>
				</clipitem>
				<clipitem id="010_02_01_A4">
					<name>010_02_01_A</name>
					<duration>488</duration>
					<rate>
						<ntsc>FALSE</ntsc>
						<timebase>24</timebase>
					</rate>
					<in>0</in>
					<out>488</out>
					<start>3381</start>
					<end>3869</end>
					<subframeoffset>0</subframeoffset>
					<enabled>TRUE</enabled>
					<masterclipid>010_02_01_A1</masterclipid>
					<logginginfo>
						<scene/>
						<shottake/>
						<lognote/>
						<good>FALSE</good>
					</logginginfo>
					<labels>
						<label2/>
					</labels>
					<comments>
						<mastercomment1/>
						<mastercomment2/>
						<mastercomment3/>
						<mastercomment4/>
					</comments>
					<file id="A001C024_221211_R03K"/>
					<filter>
						<effect>
							<name>Audio Levels</name>
							<effectid>audiolevels</effectid>
							<effectcategory>audiolevels</effectcategory>
							<effecttype>audiolevels</effecttype>
							<mediatype>audio</mediatype>
							<parameter>
								<name>Level</name>
								<parameterid>level</parameterid>
								<valuemin>0</valuemin>
								<valuemax>3.98109</valuemax>
								<value>1</value>
							</parameter>
						</effect>
					</filter>
					<filter>
						<effect>
							<name>Audio Pan</name>
							<effectid>audiopan</effectid>
							<effectcategory>audiopan</effectcategory>
							<effecttype>audiopan</effecttype>
							<mediatype>audio</mediatype>
							<parameter>
								<name>Pan</name>
								<parameterid>pan</parameterid>
								<valuemin>-1</valuemin>
								<valuemax>1</valuemax>
								<value>0</value>
							</parameter>
						</effect>
					</filter>
					<sourcetrack>
						<mediatype>audio</mediatype>
						<trackindex>3</trackindex>
					</sourcetrack>
					<link>
						<linkclipref>010_02_01_A</linkclipref>
						<mediatype>video</mediatype>
						<trackindex>1</trackindex>
						<clipindex>11</clipindex>
					</link>
					<link>
						<linkclipref>010_02_01_A2</linkclipref>
						<mediatype>audio</mediatype>
						<trackindex>1</trackindex>
						<clipindex>11</clipindex>
					</link>
					<link>
						<linkclipref>010_02_01_A3</linkclipref>
						<mediatype>audio</mediatype>
						<trackindex>2</trackindex>
						<clipindex>11</clipindex>
					</link>
					<link>
						<linkclipref>010_02_01_A4</linkclipref>
						<mediatype>audio</mediatype>
						<trackindex>3</trackindex>
						<clipindex>11</clipindex>
					</link>
					<link>
						<linkclipref>010_02_01_A5</linkclipref>
						<mediatype>audio</mediatype>
						<trackindex>4</trackindex>
						<clipindex>5</clipindex>
					</link>
					<itemhistory>
						<uuid>21F46129-FC95-42B5-B506-A2A89840CC12</uuid>
					</itemhistory>
				</clipitem>
				<clipitem id="010_02_02_A_OK4">
					<name>010_02_02_A_OK</name>
					<duration>459</duration>
					<rate>
						<ntsc>FALSE</ntsc>
						<timebase>24</timebase>
					</rate>
					<in>173</in>
					<out>251</out>
					<start>3869</start>
					<end>3947</end>
					<subframeoffset>0</subframeoffset>
					<enabled>TRUE</enabled>
					<masterclipid>010_02_02_A_OK1</masterclipid>
					<logginginfo>
						<scene/>
						<shottake/>
						<lognote/>
						<good>FALSE</good>
					</logginginfo>
					<labels>
						<label2/>
					</labels>
					<comments>
						<mastercomment1/>
						<mastercomment2/>
						<mastercomment3/>
						<mastercomment4/>
					</comments>
					<file id="A001C025_221211_R03K"/>
					<filter>
						<effect>
							<name>Audio Levels</name>
							<effectid>audiolevels</effectid>
							<effectcategory>audiolevels</effectcategory>
							<effecttype>audiolevels</effecttype>
							<mediatype>audio</mediatype>
							<parameter>
								<name>Level</name>
								<parameterid>level</parameterid>
								<valuemin>0</valuemin>
								<valuemax>3.98109</valuemax>
								<value>1</value>
							</parameter>
						</effect>
					</filter>
					<filter>
						<effect>
							<name>Audio Pan</name>
							<effectid>audiopan</effectid>
							<effectcategory>audiopan</effectcategory>
							<effecttype>audiopan</effecttype>
							<mediatype>audio</mediatype>
							<parameter>
								<name>Pan</name>
								<parameterid>pan</parameterid>
								<valuemin>-1</valuemin>
								<valuemax>1</valuemax>
								<value>0</value>
							</parameter>
						</effect>
					</filter>
					<sourcetrack>
						<mediatype>audio</mediatype>
						<trackindex>3</trackindex>
					</sourcetrack>
					<link>
						<linkclipref>010_02_02_A_OK</linkclipref>
						<mediatype>video</mediatype>
						<trackindex>1</trackindex>
						<clipindex>12</clipindex>
					</link>
					<link>
						<linkclipref>010_02_02_A_OK2</linkclipref>
						<mediatype>audio</mediatype>
						<trackindex>1</trackindex>
						<clipindex>12</clipindex>
					</link>
					<link>
						<linkclipref>010_02_02_A_OK3</linkclipref>
						<mediatype>audio</mediatype>
						<trackindex>2</trackindex>
						<clipindex>12</clipindex>
					</link>
					<link>
						<linkclipref>010_02_02_A_OK4</linkclipref>
						<mediatype>audio</mediatype>
						<trackindex>3</trackindex>
						<clipindex>12</clipindex>
					</link>
					<link>
						<linkclipref>010_02_02_A_OK5</linkclipref>
						<mediatype>audio</mediatype>
						<trackindex>4</trackindex>
						<clipindex>6</clipindex>
					</link>
					<itemhistory>
						<uuid>4F629FE3-28C1-4253-8092-CD5C6268F5D2</uuid>
					</itemhistory>
				</clipitem>
				<clipitem id="010_03_01_B4">
					<name>010_03_01_B</name>
					<duration>443</duration>
					<rate>
						<ntsc>FALSE</ntsc>
						<timebase>24</timebase>
					</rate>
					<in>0</in>
					<out>443</out>
					<start>3947</start>
					<end>4390</end>
					<subframeoffset>0</subframeoffset>
					<enabled>TRUE</enabled>
					<masterclipid>010_03_01_B1</masterclipid>
					<logginginfo>
						<scene/>
						<shottake/>
						<lognote/>
						<good>FALSE</good>
					</logginginfo>
					<labels>
						<label2/>
					</labels>
					<comments>
						<mastercomment1/>
						<mastercomment2/>
						<mastercomment3/>
						<mastercomment4/>
					</comments>
					<file id="B001C011_130101_R1WX"/>
					<filter>
						<effect>
							<name>Audio Levels</name>
							<effectid>audiolevels</effectid>
							<effectcategory>audiolevels</effectcategory>
							<effecttype>audiolevels</effecttype>
							<mediatype>audio</mediatype>
							<parameter>
								<name>Level</name>
								<parameterid>level</parameterid>
								<valuemin>0</valuemin>
								<valuemax>3.98109</valuemax>
								<value>1</value>
							</parameter>
						</effect>
					</filter>
					<filter>
						<effect>
							<name>Audio Pan</name>
							<effectid>audiopan</effectid>
							<effectcategory>audiopan</effectcategory>
							<effecttype>audiopan</effecttype>
							<mediatype>audio</mediatype>
							<parameter>
								<name>Pan</name>
								<parameterid>pan</parameterid>
								<valuemin>-1</valuemin>
								<valuemax>1</valuemax>
								<value>0</value>
							</parameter>
						</effect>
					</filter>
					<sourcetrack>
						<mediatype>audio</mediatype>
						<trackindex>3</trackindex>
					</sourcetrack>
					<link>
						<linkclipref>010_03_01_B</linkclipref>
						<mediatype>video</mediatype>
						<trackindex>1</trackindex>
						<clipindex>13</clipindex>
					</link>
					<link>
						<linkclipref>010_03_01_B2</linkclipref>
						<mediatype>audio</mediatype>
						<trackindex>1</trackindex>
						<clipindex>13</clipindex>
					</link>
					<link>
						<linkclipref>010_03_01_B3</linkclipref>
						<mediatype>audio</mediatype>
						<trackindex>2</trackindex>
						<clipindex>13</clipindex>
					</link>
					<link>
						<linkclipref>010_03_01_B4</linkclipref>
						<mediatype>audio</mediatype>
						<trackindex>3</trackindex>
						<clipindex>13</clipindex>
					</link>
					<itemhistory>
						<uuid>6A57D7AC-68FB-48B0-A22E-E90C844F5409</uuid>
					</itemhistory>
				</clipitem>
				<clipitem id="010_03_02_B_KP4">
					<name>010_03_02_B_KP</name>
					<duration>412</duration>
					<rate>
						<ntsc>FALSE</ntsc>
						<timebase>24</timebase>
					</rate>
					<in>0</in>
					<out>412</out>
					<start>4390</start>
					<end>4802</end>
					<subframeoffset>0</subframeoffset>
					<enabled>TRUE</enabled>
					<masterclipid>010_03_02_B_KP1</masterclipid>
					<logginginfo>
						<scene/>
						<shottake/>
						<lognote/>
						<good>FALSE</good>
					</logginginfo>
					<labels>
						<label2/>
					</labels>
					<comments>
						<mastercomment1/>
						<mastercomment2/>
						<mastercomment3/>
						<mastercomment4/>
					</comments>
					<file id="B001C012_130101_R1WX"/>
					<filter>
						<effect>
							<name>Audio Levels</name>
							<effectid>audiolevels</effectid>
							<effectcategory>audiolevels</effectcategory>
							<effecttype>audiolevels</effecttype>
							<mediatype>audio</mediatype>
							<parameter>
								<name>Level</name>
								<parameterid>level</parameterid>
								<valuemin>0</valuemin>
								<valuemax>3.98109</valuemax>
								<value>1</value>
							</parameter>
						</effect>
					</filter>
					<filter>
						<effect>
							<name>Audio Pan</name>
							<effectid>audiopan</effectid>
							<effectcategory>audiopan</effectcategory>
							<effecttype>audiopan</effecttype>
							<mediatype>audio</mediatype>
							<parameter>
								<name>Pan</name>
								<parameterid>pan</parameterid>
								<valuemin>-1</valuemin>
								<valuemax>1</valuemax>
								<value>0</value>
							</parameter>
						</effect>
					</filter>
					<sourcetrack>
						<mediatype>audio</mediatype>
						<trackindex>3</trackindex>
					</sourcetrack>
					<link>
						<linkclipref>010_03_02_B_KP</linkclipref>
						<mediatype>video</mediatype>
						<trackindex>1</trackindex>
						<clipindex>14</clipindex>
					</link>
					<link>
						<linkclipref>010_03_02_B_KP2</linkclipref>
						<mediatype>audio</mediatype>
						<trackindex>1</trackindex>
						<clipindex>14</clipindex>
					</link>
					<link>
						<linkclipref>010_03_02_B_KP3</linkclipref>
						<mediatype>audio</mediatype>
						<trackindex>2</trackindex>
						<clipindex>14</clipindex>
					</link>
					<link>
						<linkclipref>010_03_02_B_KP4</linkclipref>
						<mediatype>audio</mediatype>
						<trackindex>3</trackindex>
						<clipindex>14</clipindex>
					</link>
					<itemhistory>
						<uuid>6A27DD5C-B8CA-401D-8313-FE83B4B7180A</uuid>
					</itemhistory>
				</clipitem>
				<clipitem id="010_03_03_B_KP4">
					<name>010_03_03_B_KP</name>
					<duration>397</duration>
					<rate>
						<ntsc>FALSE</ntsc>
						<timebase>24</timebase>
					</rate>
					<in>0</in>
					<out>397</out>
					<start>4802</start>
					<end>5199</end>
					<subframeoffset>0</subframeoffset>
					<enabled>TRUE</enabled>
					<masterclipid>010_03_03_B_KP1</masterclipid>
					<logginginfo>
						<scene/>
						<shottake/>
						<lognote/>
						<good>FALSE</good>
					</logginginfo>
					<labels>
						<label2/>
					</labels>
					<comments>
						<mastercomment1/>
						<mastercomment2/>
						<mastercomment3/>
						<mastercomment4/>
					</comments>
					<file id="B001C013_130101_R1WX"/>
					<filter>
						<effect>
							<name>Audio Levels</name>
							<effectid>audiolevels</effectid>
							<effectcategory>audiolevels</effectcategory>
							<effecttype>audiolevels</effecttype>
							<mediatype>audio</mediatype>
							<parameter>
								<name>Level</name>
								<parameterid>level</parameterid>
								<valuemin>0</valuemin>
								<valuemax>3.98109</valuemax>
								<value>1</value>
							</parameter>
						</effect>
					</filter>
					<filter>
						<effect>
							<name>Audio Pan</name>
							<effectid>audiopan</effectid>
							<effectcategory>audiopan</effectcategory>
							<effecttype>audiopan</effecttype>
							<mediatype>audio</mediatype>
							<parameter>
								<name>Pan</name>
								<parameterid>pan</parameterid>
								<valuemin>-1</valuemin>
								<valuemax>1</valuemax>
								<value>0</value>
							</parameter>
						</effect>
					</filter>
					<sourcetrack>
						<mediatype>audio</mediatype>
						<trackindex>3</trackindex>
					</sourcetrack>
					<link>
						<linkclipref>010_03_03_B_KP</linkclipref>
						<mediatype>video</mediatype>
						<trackindex>1</trackindex>
						<clipindex>15</clipindex>
					</link>
					<link>
						<linkclipref>010_03_03_B_KP2</linkclipref>
						<mediatype>audio</mediatype>
						<trackindex>1</trackindex>
						<clipindex>15</clipindex>
					</link>
					<link>
						<linkclipref>010_03_03_B_KP3</linkclipref>
						<mediatype>audio</mediatype>
						<trackindex>2</trackindex>
						<clipindex>15</clipindex>
					</link>
					<link>
						<linkclipref>010_03_03_B_KP4</linkclipref>
						<mediatype>audio</mediatype>
						<trackindex>3</trackindex>
						<clipindex>15</clipindex>
					</link>
					<itemhistory>
						<uuid>5F2FE833-340A-4B8C-BEAE-C676933ED658</uuid>
					</itemhistory>
				</clipitem>
				<clipitem id="010_03_04_B_KP4">
					<name>010_03_04_B_KP</name>
					<duration>442</duration>
					<rate>
						<ntsc>FALSE</ntsc>
						<timebase>24</timebase>
					</rate>
					<in>172</in>
					<out>210</out>
					<start>5199</start>
					<end>5237</end>
					<subframeoffset>0</subframeoffset>
					<enabled>TRUE</enabled>
					<masterclipid>010_03_04_B_KP1</masterclipid>
					<logginginfo>
						<scene/>
						<shottake/>
						<lognote/>
						<good>FALSE</good>
					</logginginfo>
					<labels>
						<label2/>
					</labels>
					<comments>
						<mastercomment1/>
						<mastercomment2/>
						<mastercomment3/>
						<mastercomment4/>
					</comments>
					<file id="B001C014_130101_R1WX"/>
					<filter>
						<effect>
							<name>Audio Levels</name>
							<effectid>audiolevels</effectid>
							<effectcategory>audiolevels</effectcategory>
							<effecttype>audiolevels</effecttype>
							<mediatype>audio</mediatype>
							<parameter>
								<name>Level</name>
								<parameterid>level</parameterid>
								<valuemin>0</valuemin>
								<valuemax>3.98109</valuemax>
								<value>1</value>
							</parameter>
						</effect>
					</filter>
					<filter>
						<effect>
							<name>Audio Pan</name>
							<effectid>audiopan</effectid>
							<effectcategory>audiopan</effectcategory>
							<effecttype>audiopan</effecttype>
							<mediatype>audio</mediatype>
							<parameter>
								<name>Pan</name>
								<parameterid>pan</parameterid>
								<valuemin>-1</valuemin>
								<valuemax>1</valuemax>
								<value>0</value>
							</parameter>
						</effect>
					</filter>
					<sourcetrack>
						<mediatype>audio</mediatype>
						<trackindex>3</trackindex>
					</sourcetrack>
					<link>
						<linkclipref>010_03_04_B_KP</linkclipref>
						<mediatype>video</mediatype>
						<trackindex>1</trackindex>
						<clipindex>16</clipindex>
					</link>
					<link>
						<linkclipref>010_03_04_B_KP2</linkclipref>
						<mediatype>audio</mediatype>
						<trackindex>1</trackindex>
						<clipindex>16</clipindex>
					</link>
					<link>
						<linkclipref>010_03_04_B_KP3</linkclipref>
						<mediatype>audio</mediatype>
						<trackindex>2</trackindex>
						<clipindex>16</clipindex>
					</link>
					<link>
						<linkclipref>010_03_04_B_KP4</linkclipref>
						<mediatype>audio</mediatype>
						<trackindex>3</trackindex>
						<clipindex>16</clipindex>
					</link>
					<itemhistory>
						<uuid>E9507BB3-0BE4-4879-89B9-E38F68F5115D</uuid>
					</itemhistory>
				</clipitem>
				<clipitem id="010_05_01_A4">
					<name>010_05_01_A</name>
					<duration>1054</duration>
					<rate>
						<ntsc>FALSE</ntsc>
						<timebase>24</timebase>
					</rate>
					<in>0</in>
					<out>1054</out>
					<start>5578</start>
					<end>6632</end>
					<subframeoffset>0</subframeoffset>
					<enabled>TRUE</enabled>
					<masterclipid>010_05_01_A1</masterclipid>
					<logginginfo>
						<scene/>
						<shottake/>
						<lognote/>
						<good>FALSE</good>
					</logginginfo>
					<labels>
						<label2/>
					</labels>
					<comments>
						<mastercomment1/>
						<mastercomment2/>
						<mastercomment3/>
						<mastercomment4/>
					</comments>
					<file id="A001C026_221211_R03K"/>
					<filter>
						<effect>
							<name>Audio Levels</name>
							<effectid>audiolevels</effectid>
							<effectcategory>audiolevels</effectcategory>
							<effecttype>audiolevels</effecttype>
							<mediatype>audio</mediatype>
							<parameter>
								<name>Level</name>
								<parameterid>level</parameterid>
								<valuemin>0</valuemin>
								<valuemax>3.98109</valuemax>
								<value>1</value>
							</parameter>
						</effect>
					</filter>
					<filter>
						<effect>
							<name>Audio Pan</name>
							<effectid>audiopan</effectid>
							<effectcategory>audiopan</effectcategory>
							<effecttype>audiopan</effecttype>
							<mediatype>audio</mediatype>
							<parameter>
								<name>Pan</name>
								<parameterid>pan</parameterid>
								<valuemin>-1</valuemin>
								<valuemax>1</valuemax>
								<value>0</value>
							</parameter>
						</effect>
					</filter>
					<sourcetrack>
						<mediatype>audio</mediatype>
						<trackindex>3</trackindex>
					</sourcetrack>
					<link>
						<linkclipref>010_05_01_A</linkclipref>
						<mediatype>video</mediatype>
						<trackindex>1</trackindex>
						<clipindex>19</clipindex>
					</link>
					<link>
						<linkclipref>010_05_01_A2</linkclipref>
						<mediatype>audio</mediatype>
						<trackindex>1</trackindex>
						<clipindex>19</clipindex>
					</link>
					<link>
						<linkclipref>010_05_01_A3</linkclipref>
						<mediatype>audio</mediatype>
						<trackindex>2</trackindex>
						<clipindex>19</clipindex>
					</link>
					<link>
						<linkclipref>010_05_01_A4</linkclipref>
						<mediatype>audio</mediatype>
						<trackindex>3</trackindex>
						<clipindex>17</clipindex>
					</link>
					<link>
						<linkclipref>010_05_01_A5</linkclipref>
						<mediatype>audio</mediatype>
						<trackindex>4</trackindex>
						<clipindex>7</clipindex>
					</link>
					<itemhistory>
						<uuid>6B3F95CA-A39F-4184-BB32-1E18D05A48AD</uuid>
					</itemhistory>
				</clipitem>
				<clipitem id="010_05_01_B4">
					<name>010_05_01_B</name>
					<duration>1017</duration>
					<rate>
						<ntsc>FALSE</ntsc>
						<timebase>24</timebase>
					</rate>
					<in>0</in>
					<out>1017</out>
					<start>6632</start>
					<end>7649</end>
					<subframeoffset>0</subframeoffset>
					<enabled>TRUE</enabled>
					<masterclipid>010_05_01_B1</masterclipid>
					<logginginfo>
						<scene/>
						<shottake/>
						<lognote/>
						<good>FALSE</good>
					</logginginfo>
					<labels>
						<label2/>
					</labels>
					<comments>
						<mastercomment1/>
						<mastercomment2/>
						<mastercomment3/>
						<mastercomment4/>
					</comments>
					<file id="B001C017_130101_R1WX"/>
					<filter>
						<effect>
							<name>Audio Levels</name>
							<effectid>audiolevels</effectid>
							<effectcategory>audiolevels</effectcategory>
							<effecttype>audiolevels</effecttype>
							<mediatype>audio</mediatype>
							<parameter>
								<name>Level</name>
								<parameterid>level</parameterid>
								<valuemin>0</valuemin>
								<valuemax>3.98109</valuemax>
								<value>1</value>
							</parameter>
						</effect>
					</filter>
					<filter>
						<effect>
							<name>Audio Pan</name>
							<effectid>audiopan</effectid>
							<effectcategory>audiopan</effectcategory>
							<effecttype>audiopan</effecttype>
							<mediatype>audio</mediatype>
							<parameter>
								<name>Pan</name>
								<parameterid>pan</parameterid>
								<valuemin>-1</valuemin>
								<valuemax>1</valuemax>
								<value>0</value>
							</parameter>
						</effect>
					</filter>
					<sourcetrack>
						<mediatype>audio</mediatype>
						<trackindex>3</trackindex>
					</sourcetrack>
					<link>
						<linkclipref>010_05_01_B</linkclipref>
						<mediatype>video</mediatype>
						<trackindex>1</trackindex>
						<clipindex>20</clipindex>
					</link>
					<link>
						<linkclipref>010_05_01_B2</linkclipref>
						<mediatype>audio</mediatype>
						<trackindex>1</trackindex>
						<clipindex>20</clipindex>
					</link>
					<link>
						<linkclipref>010_05_01_B3</linkclipref>
						<mediatype>audio</mediatype>
						<trackindex>2</trackindex>
						<clipindex>20</clipindex>
					</link>
					<link>
						<linkclipref>010_05_01_B4</linkclipref>
						<mediatype>audio</mediatype>
						<trackindex>3</trackindex>
						<clipindex>18</clipindex>
					</link>
					<link>
						<linkclipref>010_05_01_B5</linkclipref>
						<mediatype>audio</mediatype>
						<trackindex>4</trackindex>
						<clipindex>8</clipindex>
					</link>
					<itemhistory>
						<uuid>B2FCA9B3-2E7B-4400-840E-47F38BA512FB</uuid>
					</itemhistory>
				</clipitem>
				<clipitem id="010_05_02_A4">
					<name>010_05_02_A</name>
					<duration>949</duration>
					<rate>
						<ntsc>FALSE</ntsc>
						<timebase>24</timebase>
					</rate>
					<in>0</in>
					<out>949</out>
					<start>7649</start>
					<end>8598</end>
					<subframeoffset>0</subframeoffset>
					<enabled>TRUE</enabled>
					<masterclipid>010_05_02_A1</masterclipid>
					<logginginfo>
						<scene/>
						<shottake/>
						<lognote/>
						<good>FALSE</good>
					</logginginfo>
					<labels>
						<label2/>
					</labels>
					<comments>
						<mastercomment1/>
						<mastercomment2/>
						<mastercomment3/>
						<mastercomment4/>
					</comments>
					<file id="A001C027_221211_R03K"/>
					<filter>
						<effect>
							<name>Audio Levels</name>
							<effectid>audiolevels</effectid>
							<effectcategory>audiolevels</effectcategory>
							<effecttype>audiolevels</effecttype>
							<mediatype>audio</mediatype>
							<parameter>
								<name>Level</name>
								<parameterid>level</parameterid>
								<valuemin>0</valuemin>
								<valuemax>3.98109</valuemax>
								<value>1</value>
							</parameter>
						</effect>
					</filter>
					<filter>
						<effect>
							<name>Audio Pan</name>
							<effectid>audiopan</effectid>
							<effectcategory>audiopan</effectcategory>
							<effecttype>audiopan</effecttype>
							<mediatype>audio</mediatype>
							<parameter>
								<name>Pan</name>
								<parameterid>pan</parameterid>
								<valuemin>-1</valuemin>
								<valuemax>1</valuemax>
								<value>0</value>
							</parameter>
						</effect>
					</filter>
					<sourcetrack>
						<mediatype>audio</mediatype>
						<trackindex>3</trackindex>
					</sourcetrack>
					<link>
						<linkclipref>010_05_02_A</linkclipref>
						<mediatype>video</mediatype>
						<trackindex>1</trackindex>
						<clipindex>21</clipindex>
					</link>
					<link>
						<linkclipref>010_05_02_A2</linkclipref>
						<mediatype>audio</mediatype>
						<trackindex>1</trackindex>
						<clipindex>21</clipindex>
					</link>
					<link>
						<linkclipref>010_05_02_A3</linkclipref>
						<mediatype>audio</mediatype>
						<trackindex>2</trackindex>
						<clipindex>21</clipindex>
					</link>
					<link>
						<linkclipref>010_05_02_A4</linkclipref>
						<mediatype>audio</mediatype>
						<trackindex>3</trackindex>
						<clipindex>19</clipindex>
					</link>
					<link>
						<linkclipref>010_05_02_A5</linkclipref>
						<mediatype>audio</mediatype>
						<trackindex>4</trackindex>
						<clipindex>9</clipindex>
					</link>
					<itemhistory>
						<uuid>849AB340-A006-44E0-8CD9-DCF97BAD487A</uuid>
					</itemhistory>
				</clipitem>
				<clipitem id="010_05_02_B4">
					<name>010_05_02_B</name>
					<duration>954</duration>
					<rate>
						<ntsc>FALSE</ntsc>
						<timebase>24</timebase>
					</rate>
					<in>0</in>
					<out>954</out>
					<start>8598</start>
					<end>9552</end>
					<subframeoffset>0</subframeoffset>
					<enabled>TRUE</enabled>
					<masterclipid>010_05_02_B1</masterclipid>
					<logginginfo>
						<scene/>
						<shottake/>
						<lognote/>
						<good>FALSE</good>
					</logginginfo>
					<labels>
						<label2/>
					</labels>
					<comments>
						<mastercomment1/>
						<mastercomment2/>
						<mastercomment3/>
						<mastercomment4/>
					</comments>
					<file id="B001C018_130101_R1WX"/>
					<filter>
						<effect>
							<name>Audio Levels</name>
							<effectid>audiolevels</effectid>
							<effectcategory>audiolevels</effectcategory>
							<effecttype>audiolevels</effecttype>
							<mediatype>audio</mediatype>
							<parameter>
								<name>Level</name>
								<parameterid>level</parameterid>
								<valuemin>0</valuemin>
								<valuemax>3.98109</valuemax>
								<value>1</value>
							</parameter>
						</effect>
					</filter>
					<filter>
						<effect>
							<name>Audio Pan</name>
							<effectid>audiopan</effectid>
							<effectcategory>audiopan</effectcategory>
							<effecttype>audiopan</effecttype>
							<mediatype>audio</mediatype>
							<parameter>
								<name>Pan</name>
								<parameterid>pan</parameterid>
								<valuemin>-1</valuemin>
								<valuemax>1</valuemax>
								<value>0</value>
							</parameter>
						</effect>
					</filter>
					<sourcetrack>
						<mediatype>audio</mediatype>
						<trackindex>3</trackindex>
					</sourcetrack>
					<link>
						<linkclipref>010_05_02_B</linkclipref>
						<mediatype>video</mediatype>
						<trackindex>1</trackindex>
						<clipindex>22</clipindex>
					</link>
					<link>
						<linkclipref>010_05_02_B2</linkclipref>
						<mediatype>audio</mediatype>
						<trackindex>1</trackindex>
						<clipindex>22</clipindex>
					</link>
					<link>
						<linkclipref>010_05_02_B3</linkclipref>
						<mediatype>audio</mediatype>
						<trackindex>2</trackindex>
						<clipindex>22</clipindex>
					</link>
					<link>
						<linkclipref>010_05_02_B4</linkclipref>
						<mediatype>audio</mediatype>
						<trackindex>3</trackindex>
						<clipindex>20</clipindex>
					</link>
					<link>
						<linkclipref>010_05_02_B5</linkclipref>
						<mediatype>audio</mediatype>
						<trackindex>4</trackindex>
						<clipindex>10</clipindex>
					</link>
					<itemhistory>
						<uuid>2297F294-89ED-4930-90CF-FBE98F181B0A</uuid>
					</itemhistory>
				</clipitem>
				<clipitem id="010_05_03_A4">
					<name>010_05_03_A</name>
					<duration>1163</duration>
					<rate>
						<ntsc>FALSE</ntsc>
						<timebase>24</timebase>
					</rate>
					<in>0</in>
					<out>1163</out>
					<start>9552</start>
					<end>10715</end>
					<subframeoffset>0</subframeoffset>
					<enabled>TRUE</enabled>
					<masterclipid>010_05_03_A1</masterclipid>
					<logginginfo>
						<scene/>
						<shottake/>
						<lognote/>
						<good>FALSE</good>
					</logginginfo>
					<labels>
						<label2/>
					</labels>
					<comments>
						<mastercomment1/>
						<mastercomment2/>
						<mastercomment3/>
						<mastercomment4/>
					</comments>
					<file id="A001C028_221211_R03K"/>
					<filter>
						<effect>
							<name>Audio Levels</name>
							<effectid>audiolevels</effectid>
							<effectcategory>audiolevels</effectcategory>
							<effecttype>audiolevels</effecttype>
							<mediatype>audio</mediatype>
							<parameter>
								<name>Level</name>
								<parameterid>level</parameterid>
								<valuemin>0</valuemin>
								<valuemax>3.98109</valuemax>
								<value>1</value>
							</parameter>
						</effect>
					</filter>
					<filter>
						<effect>
							<name>Audio Pan</name>
							<effectid>audiopan</effectid>
							<effectcategory>audiopan</effectcategory>
							<effecttype>audiopan</effecttype>
							<mediatype>audio</mediatype>
							<parameter>
								<name>Pan</name>
								<parameterid>pan</parameterid>
								<valuemin>-1</valuemin>
								<valuemax>1</valuemax>
								<value>0</value>
							</parameter>
						</effect>
					</filter>
					<sourcetrack>
						<mediatype>audio</mediatype>
						<trackindex>3</trackindex>
					</sourcetrack>
					<link>
						<linkclipref>010_05_03_A</linkclipref>
						<mediatype>video</mediatype>
						<trackindex>1</trackindex>
						<clipindex>23</clipindex>
					</link>
					<link>
						<linkclipref>010_05_03_A2</linkclipref>
						<mediatype>audio</mediatype>
						<trackindex>1</trackindex>
						<clipindex>23</clipindex>
					</link>
					<link>
						<linkclipref>010_05_03_A3</linkclipref>
						<mediatype>audio</mediatype>
						<trackindex>2</trackindex>
						<clipindex>23</clipindex>
					</link>
					<link>
						<linkclipref>010_05_03_A4</linkclipref>
						<mediatype>audio</mediatype>
						<trackindex>3</trackindex>
						<clipindex>21</clipindex>
					</link>
					<link>
						<linkclipref>010_05_03_A5</linkclipref>
						<mediatype>audio</mediatype>
						<trackindex>4</trackindex>
						<clipindex>11</clipindex>
					</link>
					<itemhistory>
						<uuid>4E01140B-16FA-4944-B585-1F735CE5F29A</uuid>
					</itemhistory>
				</clipitem>
				<clipitem id="010_05_03_B4">
					<name>010_05_03_B</name>
					<duration>1160</duration>
					<rate>
						<ntsc>FALSE</ntsc>
						<timebase>24</timebase>
					</rate>
					<in>0</in>
					<out>1160</out>
					<start>10715</start>
					<end>11875</end>
					<subframeoffset>0</subframeoffset>
					<enabled>TRUE</enabled>
					<masterclipid>010_05_03_B1</masterclipid>
					<logginginfo>
						<scene/>
						<shottake/>
						<lognote/>
						<good>FALSE</good>
					</logginginfo>
					<labels>
						<label2/>
					</labels>
					<comments>
						<mastercomment1/>
						<mastercomment2/>
						<mastercomment3/>
						<mastercomment4/>
					</comments>
					<file id="B001C019_130101_R1WX"/>
					<filter>
						<effect>
							<name>Audio Levels</name>
							<effectid>audiolevels</effectid>
							<effectcategory>audiolevels</effectcategory>
							<effecttype>audiolevels</effecttype>
							<mediatype>audio</mediatype>
							<parameter>
								<name>Level</name>
								<parameterid>level</parameterid>
								<valuemin>0</valuemin>
								<valuemax>3.98109</valuemax>
								<value>1</value>
							</parameter>
						</effect>
					</filter>
					<filter>
						<effect>
							<name>Audio Pan</name>
							<effectid>audiopan</effectid>
							<effectcategory>audiopan</effectcategory>
							<effecttype>audiopan</effecttype>
							<mediatype>audio</mediatype>
							<parameter>
								<name>Pan</name>
								<parameterid>pan</parameterid>
								<valuemin>-1</valuemin>
								<valuemax>1</valuemax>
								<value>0</value>
							</parameter>
						</effect>
					</filter>
					<sourcetrack>
						<mediatype>audio</mediatype>
						<trackindex>3</trackindex>
					</sourcetrack>
					<link>
						<linkclipref>010_05_03_B</linkclipref>
						<mediatype>video</mediatype>
						<trackindex>1</trackindex>
						<clipindex>24</clipindex>
					</link>
					<link>
						<linkclipref>010_05_03_B2</linkclipref>
						<mediatype>audio</mediatype>
						<trackindex>1</trackindex>
						<clipindex>24</clipindex>
					</link>
					<link>
						<linkclipref>010_05_03_B3</linkclipref>
						<mediatype>audio</mediatype>
						<trackindex>2</trackindex>
						<clipindex>24</clipindex>
					</link>
					<link>
						<linkclipref>010_05_03_B4</linkclipref>
						<mediatype>audio</mediatype>
						<trackindex>3</trackindex>
						<clipindex>22</clipindex>
					</link>
					<link>
						<linkclipref>010_05_03_B5</linkclipref>
						<mediatype>audio</mediatype>
						<trackindex>4</trackindex>
						<clipindex>12</clipindex>
					</link>
					<itemhistory>
						<uuid>6858939C-CA15-430E-AEB1-2684D5365181</uuid>
					</itemhistory>
				</clipitem>
				<clipitem id="010_05_04_A_OK_混剪4">
					<name>010_05_04_A_OK_混剪</name>
					<duration>1108</duration>
					<rate>
						<ntsc>FALSE</ntsc>
						<timebase>24</timebase>
					</rate>
					<in>156</in>
					<out>207</out>
					<start>11875</start>
					<end>11926</end>
					<subframeoffset>0</subframeoffset>
					<enabled>TRUE</enabled>
					<masterclipid>010_05_04_A_OK_混剪1</masterclipid>
					<logginginfo>
						<scene/>
						<shottake/>
						<lognote/>
						<good>FALSE</good>
					</logginginfo>
					<labels>
						<label2/>
					</labels>
					<comments>
						<mastercomment1/>
						<mastercomment2/>
						<mastercomment3/>
						<mastercomment4/>
					</comments>
					<file id="A001C029_221211_R03K"/>
					<filter>
						<effect>
							<name>Audio Levels</name>
							<effectid>audiolevels</effectid>
							<effectcategory>audiolevels</effectcategory>
							<effecttype>audiolevels</effecttype>
							<mediatype>audio</mediatype>
							<parameter>
								<name>Level</name>
								<parameterid>level</parameterid>
								<valuemin>0</valuemin>
								<valuemax>3.98109</valuemax>
								<value>1</value>
							</parameter>
						</effect>
					</filter>
					<filter>
						<effect>
							<name>Audio Pan</name>
							<effectid>audiopan</effectid>
							<effectcategory>audiopan</effectcategory>
							<effecttype>audiopan</effecttype>
							<mediatype>audio</mediatype>
							<parameter>
								<name>Pan</name>
								<parameterid>pan</parameterid>
								<valuemin>-1</valuemin>
								<valuemax>1</valuemax>
								<value>0</value>
							</parameter>
						</effect>
					</filter>
					<sourcetrack>
						<mediatype>audio</mediatype>
						<trackindex>3</trackindex>
					</sourcetrack>
					<link>
						<linkclipref>010_05_04_A_OK_混剪</linkclipref>
						<mediatype>video</mediatype>
						<trackindex>1</trackindex>
						<clipindex>25</clipindex>
					</link>
					<link>
						<linkclipref>010_05_04_A_OK_混剪2</linkclipref>
						<mediatype>audio</mediatype>
						<trackindex>1</trackindex>
						<clipindex>25</clipindex>
					</link>
					<link>
						<linkclipref>010_05_04_A_OK_混剪3</linkclipref>
						<mediatype>audio</mediatype>
						<trackindex>2</trackindex>
						<clipindex>25</clipindex>
					</link>
					<link>
						<linkclipref>010_05_04_A_OK_混剪4</linkclipref>
						<mediatype>audio</mediatype>
						<trackindex>3</trackindex>
						<clipindex>23</clipindex>
					</link>
					<link>
						<linkclipref>010_05_04_A_OK_混剪5</linkclipref>
						<mediatype>audio</mediatype>
						<trackindex>4</trackindex>
						<clipindex>13</clipindex>
					</link>
					<itemhistory>
						<uuid>13A2CF18-D87B-4DA0-915C-848703645594</uuid>
					</itemhistory>
				</clipitem>
				<clipitem id="010_05_04_B_OK_混剪4">
					<name>010_05_04_B_OK_混剪</name>
					<duration>1099</duration>
					<rate>
						<ntsc>FALSE</ntsc>
						<timebase>24</timebase>
					</rate>
					<in>109</in>
					<out>1099</out>
					<start>11926</start>
					<end>12916</end>
					<subframeoffset>0</subframeoffset>
					<enabled>TRUE</enabled>
					<masterclipid>010_05_04_B_OK_混剪1</masterclipid>
					<logginginfo>
						<scene/>
						<shottake/>
						<lognote/>
						<good>FALSE</good>
					</logginginfo>
					<labels>
						<label2/>
					</labels>
					<comments>
						<mastercomment1/>
						<mastercomment2/>
						<mastercomment3/>
						<mastercomment4/>
					</comments>
					<file id="B001C020_130101_R1WX"/>
					<filter>
						<effect>
							<name>Audio Levels</name>
							<effectid>audiolevels</effectid>
							<effectcategory>audiolevels</effectcategory>
							<effecttype>audiolevels</effecttype>
							<mediatype>audio</mediatype>
							<parameter>
								<name>Level</name>
								<parameterid>level</parameterid>
								<valuemin>0</valuemin>
								<valuemax>3.98109</valuemax>
								<value>1</value>
							</parameter>
						</effect>
					</filter>
					<filter>
						<effect>
							<name>Audio Pan</name>
							<effectid>audiopan</effectid>
							<effectcategory>audiopan</effectcategory>
							<effecttype>audiopan</effecttype>
							<mediatype>audio</mediatype>
							<parameter>
								<name>Pan</name>
								<parameterid>pan</parameterid>
								<valuemin>-1</valuemin>
								<valuemax>1</valuemax>
								<value>0</value>
							</parameter>
						</effect>
					</filter>
					<sourcetrack>
						<mediatype>audio</mediatype>
						<trackindex>3</trackindex>
					</sourcetrack>
					<link>
						<linkclipref>010_05_04_B_OK_混剪</linkclipref>
						<mediatype>video</mediatype>
						<trackindex>1</trackindex>
						<clipindex>26</clipindex>
					</link>
					<link>
						<linkclipref>010_05_04_B_OK_混剪2</linkclipref>
						<mediatype>audio</mediatype>
						<trackindex>1</trackindex>
						<clipindex>26</clipindex>
					</link>
					<link>
						<linkclipref>010_05_04_B_OK_混剪3</linkclipref>
						<mediatype>audio</mediatype>
						<trackindex>2</trackindex>
						<clipindex>26</clipindex>
					</link>
					<link>
						<linkclipref>010_05_04_B_OK_混剪4</linkclipref>
						<mediatype>audio</mediatype>
						<trackindex>3</trackindex>
						<clipindex>24</clipindex>
					</link>
					<link>
						<linkclipref>010_05_04_B_OK_混剪5</linkclipref>
						<mediatype>audio</mediatype>
						<trackindex>4</trackindex>
						<clipindex>14</clipindex>
					</link>
					<itemhistory>
						<uuid>92F6AF7F-1BCE-4E7D-9234-5C2AE26A3DC5</uuid>
					</itemhistory>
				</clipitem>
				<clipitem id="010_05_05_A_OK_混剪4">
					<name>010_05_05_A_OK_混剪</name>
					<duration>2307</duration>
					<rate>
						<ntsc>FALSE</ntsc>
						<timebase>24</timebase>
					</rate>
					<in>154</in>
					<out>257</out>
					<start>12916</start>
					<end>13019</end>
					<subframeoffset>0</subframeoffset>
					<enabled>TRUE</enabled>
					<masterclipid>010_05_05_A_OK_混剪1</masterclipid>
					<logginginfo>
						<scene/>
						<shottake/>
						<lognote/>
						<good>FALSE</good>
					</logginginfo>
					<labels>
						<label2/>
					</labels>
					<comments>
						<mastercomment1/>
						<mastercomment2/>
						<mastercomment3/>
						<mastercomment4/>
					</comments>
					<file id="A001C030_221211_R03K"/>
					<filter>
						<effect>
							<name>Audio Levels</name>
							<effectid>audiolevels</effectid>
							<effectcategory>audiolevels</effectcategory>
							<effecttype>audiolevels</effecttype>
							<mediatype>audio</mediatype>
							<parameter>
								<name>Level</name>
								<parameterid>level</parameterid>
								<valuemin>0</valuemin>
								<valuemax>3.98109</valuemax>
								<value>1</value>
							</parameter>
						</effect>
					</filter>
					<filter>
						<effect>
							<name>Audio Pan</name>
							<effectid>audiopan</effectid>
							<effectcategory>audiopan</effectcategory>
							<effecttype>audiopan</effecttype>
							<mediatype>audio</mediatype>
							<parameter>
								<name>Pan</name>
								<parameterid>pan</parameterid>
								<valuemin>-1</valuemin>
								<valuemax>1</valuemax>
								<value>0</value>
							</parameter>
						</effect>
					</filter>
					<sourcetrack>
						<mediatype>audio</mediatype>
						<trackindex>3</trackindex>
					</sourcetrack>
					<link>
						<linkclipref>010_05_05_A_OK_混剪</linkclipref>
						<mediatype>video</mediatype>
						<trackindex>1</trackindex>
						<clipindex>27</clipindex>
					</link>
					<link>
						<linkclipref>010_05_05_A_OK_混剪2</linkclipref>
						<mediatype>audio</mediatype>
						<trackindex>1</trackindex>
						<clipindex>27</clipindex>
					</link>
					<link>
						<linkclipref>010_05_05_A_OK_混剪3</linkclipref>
						<mediatype>audio</mediatype>
						<trackindex>2</trackindex>
						<clipindex>27</clipindex>
					</link>
					<link>
						<linkclipref>010_05_05_A_OK_混剪4</linkclipref>
						<mediatype>audio</mediatype>
						<trackindex>3</trackindex>
						<clipindex>25</clipindex>
					</link>
					<link>
						<linkclipref>010_05_05_A_OK_混剪5</linkclipref>
						<mediatype>audio</mediatype>
						<trackindex>4</trackindex>
						<clipindex>15</clipindex>
					</link>
					<itemhistory>
						<uuid>21B5A305-0622-4C63-B3B3-7E0A692A28DB</uuid>
					</itemhistory>
				</clipitem>
				<clipitem id="010_05_05_B_OK_混剪4">
					<name>010_05_05_B_OK_混剪</name>
					<duration>2318</duration>
					<rate>
						<ntsc>FALSE</ntsc>
						<timebase>24</timebase>
					</rate>
					<in>0</in>
					<out>2318</out>
					<start>13019</start>
					<end>15337</end>
					<subframeoffset>0</subframeoffset>
					<enabled>TRUE</enabled>
					<masterclipid>010_05_05_B_OK_混剪1</masterclipid>
					<logginginfo>
						<scene/>
						<shottake/>
						<lognote/>
						<good>FALSE</good>
					</logginginfo>
					<labels>
						<label2/>
					</labels>
					<comments>
						<mastercomment1/>
						<mastercomment2/>
						<mastercomment3/>
						<mastercomment4/>
					</comments>
					<file id="B001C021_130101_R1WX"/>
					<filter>
						<effect>
							<name>Audio Levels</name>
							<effectid>audiolevels</effectid>
							<effectcategory>audiolevels</effectcategory>
							<effecttype>audiolevels</effecttype>
							<mediatype>audio</mediatype>
							<parameter>
								<name>Level</name>
								<parameterid>level</parameterid>
								<valuemin>0</valuemin>
								<valuemax>3.98109</valuemax>
								<value>1</value>
							</parameter>
						</effect>
					</filter>
					<filter>
						<effect>
							<name>Audio Pan</name>
							<effectid>audiopan</effectid>
							<effectcategory>audiopan</effectcategory>
							<effecttype>audiopan</effecttype>
							<mediatype>audio</mediatype>
							<parameter>
								<name>Pan</name>
								<parameterid>pan</parameterid>
								<valuemin>-1</valuemin>
								<valuemax>1</valuemax>
								<value>0</value>
							</parameter>
						</effect>
					</filter>
					<sourcetrack>
						<mediatype>audio</mediatype>
						<trackindex>3</trackindex>
					</sourcetrack>
					<link>
						<linkclipref>010_05_05_B_OK_混剪</linkclipref>
						<mediatype>video</mediatype>
						<trackindex>1</trackindex>
						<clipindex>28</clipindex>
					</link>
					<link>
						<linkclipref>010_05_05_B_OK_混剪2</linkclipref>
						<mediatype>audio</mediatype>
						<trackindex>1</trackindex>
						<clipindex>28</clipindex>
					</link>
					<link>
						<linkclipref>010_05_05_B_OK_混剪3</linkclipref>
						<mediatype>audio</mediatype>
						<trackindex>2</trackindex>
						<clipindex>28</clipindex>
					</link>
					<link>
						<linkclipref>010_05_05_B_OK_混剪4</linkclipref>
						<mediatype>audio</mediatype>
						<trackindex>3</trackindex>
						<clipindex>26</clipindex>
					</link>
					<link>
						<linkclipref>010_05_05_B_OK_混剪5</linkclipref>
						<mediatype>audio</mediatype>
						<trackindex>4</trackindex>
						<clipindex>16</clipindex>
					</link>
					<itemhistory>
						<uuid>C0D917A9-5F1A-452F-952C-7360A3AD35C9</uuid>
					</itemhistory>
				</clipitem>
				<clipitem id="010_05_06_A_OK_混剪4">
					<name>010_05_06_A_OK_混剪</name>
					<duration>2146</duration>
					<rate>
						<ntsc>FALSE</ntsc>
						<timebase>24</timebase>
					</rate>
					<in>131</in>
					<out>189</out>
					<start>15337</start>
					<end>15395</end>
					<subframeoffset>0</subframeoffset>
					<enabled>TRUE</enabled>
					<masterclipid>010_05_06_A_OK_混剪1</masterclipid>
					<logginginfo>
						<scene/>
						<shottake/>
						<lognote/>
						<good>FALSE</good>
					</logginginfo>
					<labels>
						<label2/>
					</labels>
					<comments>
						<mastercomment1/>
						<mastercomment2/>
						<mastercomment3/>
						<mastercomment4/>
					</comments>
					<file id="A001C031_221211_R03K"/>
					<filter>
						<effect>
							<name>Audio Levels</name>
							<effectid>audiolevels</effectid>
							<effectcategory>audiolevels</effectcategory>
							<effecttype>audiolevels</effecttype>
							<mediatype>audio</mediatype>
							<parameter>
								<name>Level</name>
								<parameterid>level</parameterid>
								<valuemin>0</valuemin>
								<valuemax>3.98109</valuemax>
								<value>1</value>
							</parameter>
						</effect>
					</filter>
					<filter>
						<effect>
							<name>Audio Pan</name>
							<effectid>audiopan</effectid>
							<effectcategory>audiopan</effectcategory>
							<effecttype>audiopan</effecttype>
							<mediatype>audio</mediatype>
							<parameter>
								<name>Pan</name>
								<parameterid>pan</parameterid>
								<valuemin>-1</valuemin>
								<valuemax>1</valuemax>
								<value>0</value>
							</parameter>
						</effect>
					</filter>
					<sourcetrack>
						<mediatype>audio</mediatype>
						<trackindex>3</trackindex>
					</sourcetrack>
					<link>
						<linkclipref>010_05_06_A_OK_混剪</linkclipref>
						<mediatype>video</mediatype>
						<trackindex>1</trackindex>
						<clipindex>29</clipindex>
					</link>
					<link>
						<linkclipref>010_05_06_A_OK_混剪2</linkclipref>
						<mediatype>audio</mediatype>
						<trackindex>1</trackindex>
						<clipindex>29</clipindex>
					</link>
					<link>
						<linkclipref>010_05_06_A_OK_混剪3</linkclipref>
						<mediatype>audio</mediatype>
						<trackindex>2</trackindex>
						<clipindex>29</clipindex>
					</link>
					<link>
						<linkclipref>010_05_06_A_OK_混剪4</linkclipref>
						<mediatype>audio</mediatype>
						<trackindex>3</trackindex>
						<clipindex>27</clipindex>
					</link>
					<link>
						<linkclipref>010_05_06_A_OK_混剪5</linkclipref>
						<mediatype>audio</mediatype>
						<trackindex>4</trackindex>
						<clipindex>17</clipindex>
					</link>
					<itemhistory>
						<uuid>8D8FA094-25D8-4232-91FF-DDF8A4741DC8</uuid>
					</itemhistory>
				</clipitem>
				<clipitem id="010_05_06_B_OK_混剪4">
					<name>010_05_06_B_OK_混剪</name>
					<duration>2154</duration>
					<rate>
						<ntsc>FALSE</ntsc>
						<timebase>24</timebase>
					</rate>
					<in>384</in>
					<out>473</out>
					<start>15395</start>
					<end>15484</end>
					<subframeoffset>0</subframeoffset>
					<enabled>TRUE</enabled>
					<masterclipid>010_05_06_B_OK_混剪1</masterclipid>
					<logginginfo>
						<scene/>
						<shottake/>
						<lognote/>
						<good>FALSE</good>
					</logginginfo>
					<labels>
						<label2/>
					</labels>
					<comments>
						<mastercomment1/>
						<mastercomment2/>
						<mastercomment3/>
						<mastercomment4/>
					</comments>
					<file id="B001C022_130101_R1WX"/>
					<filter>
						<effect>
							<name>Audio Levels</name>
							<effectid>audiolevels</effectid>
							<effectcategory>audiolevels</effectcategory>
							<effecttype>audiolevels</effecttype>
							<mediatype>audio</mediatype>
							<parameter>
								<name>Level</name>
								<parameterid>level</parameterid>
								<valuemin>0</valuemin>
								<valuemax>3.98109</valuemax>
								<value>1</value>
							</parameter>
						</effect>
					</filter>
					<filter>
						<effect>
							<name>Audio Pan</name>
							<effectid>audiopan</effectid>
							<effectcategory>audiopan</effectcategory>
							<effecttype>audiopan</effecttype>
							<mediatype>audio</mediatype>
							<parameter>
								<name>Pan</name>
								<parameterid>pan</parameterid>
								<valuemin>-1</valuemin>
								<valuemax>1</valuemax>
								<value>0</value>
							</parameter>
						</effect>
					</filter>
					<sourcetrack>
						<mediatype>audio</mediatype>
						<trackindex>3</trackindex>
					</sourcetrack>
					<link>
						<linkclipref>010_05_06_B_OK_混剪</linkclipref>
						<mediatype>video</mediatype>
						<trackindex>1</trackindex>
						<clipindex>30</clipindex>
					</link>
					<link>
						<linkclipref>010_05_06_B_OK_混剪2</linkclipref>
						<mediatype>audio</mediatype>
						<trackindex>1</trackindex>
						<clipindex>30</clipindex>
					</link>
					<link>
						<linkclipref>010_05_06_B_OK_混剪3</linkclipref>
						<mediatype>audio</mediatype>
						<trackindex>2</trackindex>
						<clipindex>30</clipindex>
					</link>
					<link>
						<linkclipref>010_05_06_B_OK_混剪4</linkclipref>
						<mediatype>audio</mediatype>
						<trackindex>3</trackindex>
						<clipindex>28</clipindex>
					</link>
					<link>
						<linkclipref>010_05_06_B_OK_混剪5</linkclipref>
						<mediatype>audio</mediatype>
						<trackindex>4</trackindex>
						<clipindex>18</clipindex>
					</link>
					<itemhistory>
						<uuid>964F91EC-22E9-4E55-BD4F-536492060F1C</uuid>
					</itemhistory>
				</clipitem>
				<clipitem id="010_06_01_A4">
					<name>010_06_01_A</name>
					<duration>2114</duration>
					<rate>
						<ntsc>FALSE</ntsc>
						<timebase>24</timebase>
					</rate>
					<in>0</in>
					<out>2114</out>
					<start>15484</start>
					<end>17598</end>
					<subframeoffset>0</subframeoffset>
					<enabled>TRUE</enabled>
					<masterclipid>010_06_01_A1</masterclipid>
					<logginginfo>
						<scene/>
						<shottake/>
						<lognote/>
						<good>FALSE</good>
					</logginginfo>
					<labels>
						<label2/>
					</labels>
					<comments>
						<mastercomment1/>
						<mastercomment2/>
						<mastercomment3/>
						<mastercomment4/>
					</comments>
					<file id="A002C001_221211_R03K"/>
					<filter>
						<effect>
							<name>Audio Levels</name>
							<effectid>audiolevels</effectid>
							<effectcategory>audiolevels</effectcategory>
							<effecttype>audiolevels</effecttype>
							<mediatype>audio</mediatype>
							<parameter>
								<name>Level</name>
								<parameterid>level</parameterid>
								<valuemin>0</valuemin>
								<valuemax>3.98109</valuemax>
								<value>1</value>
							</parameter>
						</effect>
					</filter>
					<filter>
						<effect>
							<name>Audio Pan</name>
							<effectid>audiopan</effectid>
							<effectcategory>audiopan</effectcategory>
							<effecttype>audiopan</effecttype>
							<mediatype>audio</mediatype>
							<parameter>
								<name>Pan</name>
								<parameterid>pan</parameterid>
								<valuemin>-1</valuemin>
								<valuemax>1</valuemax>
								<value>0</value>
							</parameter>
						</effect>
					</filter>
					<sourcetrack>
						<mediatype>audio</mediatype>
						<trackindex>3</trackindex>
					</sourcetrack>
					<link>
						<linkclipref>010_06_01_A</linkclipref>
						<mediatype>video</mediatype>
						<trackindex>1</trackindex>
						<clipindex>31</clipindex>
					</link>
					<link>
						<linkclipref>010_06_01_A2</linkclipref>
						<mediatype>audio</mediatype>
						<trackindex>1</trackindex>
						<clipindex>31</clipindex>
					</link>
					<link>
						<linkclipref>010_06_01_A3</linkclipref>
						<mediatype>audio</mediatype>
						<trackindex>2</trackindex>
						<clipindex>31</clipindex>
					</link>
					<link>
						<linkclipref>010_06_01_A4</linkclipref>
						<mediatype>audio</mediatype>
						<trackindex>3</trackindex>
						<clipindex>29</clipindex>
					</link>
					<link>
						<linkclipref>010_06_01_A5</linkclipref>
						<mediatype>audio</mediatype>
						<trackindex>4</trackindex>
						<clipindex>19</clipindex>
					</link>
					<link>
						<linkclipref>010_06_01_A6</linkclipref>
						<mediatype>audio</mediatype>
						<trackindex>5</trackindex>
						<clipindex>1</clipindex>
					</link>
					<itemhistory>
						<uuid>C8BEC687-D476-4249-9B53-F221A5293A9B</uuid>
					</itemhistory>
				</clipitem>
				<clipitem id="010_06_01_B4">
					<name>010_06_01_B</name>
					<duration>2106</duration>
					<rate>
						<ntsc>FALSE</ntsc>
						<timebase>24</timebase>
					</rate>
					<in>0</in>
					<out>2106</out>
					<start>17598</start>
					<end>19704</end>
					<subframeoffset>0</subframeoffset>
					<enabled>TRUE</enabled>
					<masterclipid>010_06_01_B1</masterclipid>
					<logginginfo>
						<scene/>
						<shottake/>
						<lognote/>
						<good>FALSE</good>
					</logginginfo>
					<labels>
						<label2/>
					</labels>
					<comments>
						<mastercomment1/>
						<mastercomment2/>
						<mastercomment3/>
						<mastercomment4/>
					</comments>
					<file id="B002C001_130101_R1WX"/>
					<filter>
						<effect>
							<name>Audio Levels</name>
							<effectid>audiolevels</effectid>
							<effectcategory>audiolevels</effectcategory>
							<effecttype>audiolevels</effecttype>
							<mediatype>audio</mediatype>
							<parameter>
								<name>Level</name>
								<parameterid>level</parameterid>
								<valuemin>0</valuemin>
								<valuemax>3.98109</valuemax>
								<value>1</value>
							</parameter>
						</effect>
					</filter>
					<filter>
						<effect>
							<name>Audio Pan</name>
							<effectid>audiopan</effectid>
							<effectcategory>audiopan</effectcategory>
							<effecttype>audiopan</effecttype>
							<mediatype>audio</mediatype>
							<parameter>
								<name>Pan</name>
								<parameterid>pan</parameterid>
								<valuemin>-1</valuemin>
								<valuemax>1</valuemax>
								<value>0</value>
							</parameter>
						</effect>
					</filter>
					<sourcetrack>
						<mediatype>audio</mediatype>
						<trackindex>3</trackindex>
					</sourcetrack>
					<link>
						<linkclipref>010_06_01_B</linkclipref>
						<mediatype>video</mediatype>
						<trackindex>1</trackindex>
						<clipindex>32</clipindex>
					</link>
					<link>
						<linkclipref>010_06_01_B2</linkclipref>
						<mediatype>audio</mediatype>
						<trackindex>1</trackindex>
						<clipindex>32</clipindex>
					</link>
					<link>
						<linkclipref>010_06_01_B3</linkclipref>
						<mediatype>audio</mediatype>
						<trackindex>2</trackindex>
						<clipindex>32</clipindex>
					</link>
					<link>
						<linkclipref>010_06_01_B4</linkclipref>
						<mediatype>audio</mediatype>
						<trackindex>3</trackindex>
						<clipindex>30</clipindex>
					</link>
					<link>
						<linkclipref>010_06_01_B5</linkclipref>
						<mediatype>audio</mediatype>
						<trackindex>4</trackindex>
						<clipindex>20</clipindex>
					</link>
					<link>
						<linkclipref>010_06_01_B6</linkclipref>
						<mediatype>audio</mediatype>
						<trackindex>5</trackindex>
						<clipindex>2</clipindex>
					</link>
					<itemhistory>
						<uuid>ED93881B-3870-4EC0-8A20-D56F0ED3A1A3</uuid>
					</itemhistory>
				</clipitem>
				<clipitem id="010_06_02_A4">
					<name>010_06_02_A</name>
					<duration>649</duration>
					<rate>
						<ntsc>FALSE</ntsc>
						<timebase>24</timebase>
					</rate>
					<in>0</in>
					<out>649</out>
					<start>19704</start>
					<end>20353</end>
					<subframeoffset>0</subframeoffset>
					<enabled>TRUE</enabled>
					<masterclipid>010_06_02_A1</masterclipid>
					<logginginfo>
						<scene/>
						<shottake/>
						<lognote/>
						<good>FALSE</good>
					</logginginfo>
					<labels>
						<label2/>
					</labels>
					<comments>
						<mastercomment1/>
						<mastercomment2/>
						<mastercomment3/>
						<mastercomment4/>
					</comments>
					<file id="A002C002_221211_R03K"/>
					<filter>
						<effect>
							<name>Audio Levels</name>
							<effectid>audiolevels</effectid>
							<effectcategory>audiolevels</effectcategory>
							<effecttype>audiolevels</effecttype>
							<mediatype>audio</mediatype>
							<parameter>
								<name>Level</name>
								<parameterid>level</parameterid>
								<valuemin>0</valuemin>
								<valuemax>3.98109</valuemax>
								<value>1</value>
							</parameter>
						</effect>
					</filter>
					<filter>
						<effect>
							<name>Audio Pan</name>
							<effectid>audiopan</effectid>
							<effectcategory>audiopan</effectcategory>
							<effecttype>audiopan</effecttype>
							<mediatype>audio</mediatype>
							<parameter>
								<name>Pan</name>
								<parameterid>pan</parameterid>
								<valuemin>-1</valuemin>
								<valuemax>1</valuemax>
								<value>0</value>
							</parameter>
						</effect>
					</filter>
					<sourcetrack>
						<mediatype>audio</mediatype>
						<trackindex>3</trackindex>
					</sourcetrack>
					<link>
						<linkclipref>010_06_02_A</linkclipref>
						<mediatype>video</mediatype>
						<trackindex>1</trackindex>
						<clipindex>33</clipindex>
					</link>
					<link>
						<linkclipref>010_06_02_A2</linkclipref>
						<mediatype>audio</mediatype>
						<trackindex>1</trackindex>
						<clipindex>33</clipindex>
					</link>
					<link>
						<linkclipref>010_06_02_A3</linkclipref>
						<mediatype>audio</mediatype>
						<trackindex>2</trackindex>
						<clipindex>33</clipindex>
					</link>
					<link>
						<linkclipref>010_06_02_A4</linkclipref>
						<mediatype>audio</mediatype>
						<trackindex>3</trackindex>
						<clipindex>31</clipindex>
					</link>
					<link>
						<linkclipref>010_06_02_A5</linkclipref>
						<mediatype>audio</mediatype>
						<trackindex>4</trackindex>
						<clipindex>21</clipindex>
					</link>
					<link>
						<linkclipref>010_06_02_A6</linkclipref>
						<mediatype>audio</mediatype>
						<trackindex>5</trackindex>
						<clipindex>3</clipindex>
					</link>
					<itemhistory>
						<uuid>01347498-44B6-4158-9E96-E82634EDCA5E</uuid>
					</itemhistory>
				</clipitem>
				<clipitem id="010_06_02_B4">
					<name>010_06_02_B</name>
					<duration>668</duration>
					<rate>
						<ntsc>FALSE</ntsc>
						<timebase>24</timebase>
					</rate>
					<in>0</in>
					<out>668</out>
					<start>20353</start>
					<end>21021</end>
					<subframeoffset>0</subframeoffset>
					<enabled>TRUE</enabled>
					<masterclipid>010_06_02_B1</masterclipid>
					<logginginfo>
						<scene/>
						<shottake/>
						<lognote/>
						<good>FALSE</good>
					</logginginfo>
					<labels>
						<label2/>
					</labels>
					<comments>
						<mastercomment1/>
						<mastercomment2/>
						<mastercomment3/>
						<mastercomment4/>
					</comments>
					<file id="B002C002_130101_R1WX"/>
					<filter>
						<effect>
							<name>Audio Levels</name>
							<effectid>audiolevels</effectid>
							<effectcategory>audiolevels</effectcategory>
							<effecttype>audiolevels</effecttype>
							<mediatype>audio</mediatype>
							<parameter>
								<name>Level</name>
								<parameterid>level</parameterid>
								<valuemin>0</valuemin>
								<valuemax>3.98109</valuemax>
								<value>1</value>
							</parameter>
						</effect>
					</filter>
					<filter>
						<effect>
							<name>Audio Pan</name>
							<effectid>audiopan</effectid>
							<effectcategory>audiopan</effectcategory>
							<effecttype>audiopan</effecttype>
							<mediatype>audio</mediatype>
							<parameter>
								<name>Pan</name>
								<parameterid>pan</parameterid>
								<valuemin>-1</valuemin>
								<valuemax>1</valuemax>
								<value>0</value>
							</parameter>
						</effect>
					</filter>
					<sourcetrack>
						<mediatype>audio</mediatype>
						<trackindex>3</trackindex>
					</sourcetrack>
					<link>
						<linkclipref>010_06_02_B</linkclipref>
						<mediatype>video</mediatype>
						<trackindex>1</trackindex>
						<clipindex>34</clipindex>
					</link>
					<link>
						<linkclipref>010_06_02_B2</linkclipref>
						<mediatype>audio</mediatype>
						<trackindex>1</trackindex>
						<clipindex>34</clipindex>
					</link>
					<link>
						<linkclipref>010_06_02_B3</linkclipref>
						<mediatype>audio</mediatype>
						<trackindex>2</trackindex>
						<clipindex>34</clipindex>
					</link>
					<link>
						<linkclipref>010_06_02_B4</linkclipref>
						<mediatype>audio</mediatype>
						<trackindex>3</trackindex>
						<clipindex>32</clipindex>
					</link>
					<link>
						<linkclipref>010_06_02_B5</linkclipref>
						<mediatype>audio</mediatype>
						<trackindex>4</trackindex>
						<clipindex>22</clipindex>
					</link>
					<link>
						<linkclipref>010_06_02_B6</linkclipref>
						<mediatype>audio</mediatype>
						<trackindex>5</trackindex>
						<clipindex>4</clipindex>
					</link>
					<itemhistory>
						<uuid>7DF1AC6C-56EF-405A-BCBC-2152C919AF30</uuid>
					</itemhistory>
				</clipitem>
				<clipitem id="010_06_03_A_后面OK4">
					<name>010_06_03_A_后面OK</name>
					<duration>2177</duration>
					<rate>
						<ntsc>FALSE</ntsc>
						<timebase>24</timebase>
					</rate>
					<in>0</in>
					<out>2177</out>
					<start>21021</start>
					<end>23198</end>
					<subframeoffset>0</subframeoffset>
					<enabled>TRUE</enabled>
					<masterclipid>010_06_03_A_后面OK1</masterclipid>
					<logginginfo>
						<scene/>
						<shottake/>
						<lognote/>
						<good>FALSE</good>
					</logginginfo>
					<labels>
						<label2/>
					</labels>
					<comments>
						<mastercomment1/>
						<mastercomment2/>
						<mastercomment3/>
						<mastercomment4/>
					</comments>
					<file id="A002C003_221211_R03K"/>
					<filter>
						<effect>
							<name>Audio Levels</name>
							<effectid>audiolevels</effectid>
							<effectcategory>audiolevels</effectcategory>
							<effecttype>audiolevels</effecttype>
							<mediatype>audio</mediatype>
							<parameter>
								<name>Level</name>
								<parameterid>level</parameterid>
								<valuemin>0</valuemin>
								<valuemax>3.98109</valuemax>
								<value>1</value>
							</parameter>
						</effect>
					</filter>
					<filter>
						<effect>
							<name>Audio Pan</name>
							<effectid>audiopan</effectid>
							<effectcategory>audiopan</effectcategory>
							<effecttype>audiopan</effecttype>
							<mediatype>audio</mediatype>
							<parameter>
								<name>Pan</name>
								<parameterid>pan</parameterid>
								<valuemin>-1</valuemin>
								<valuemax>1</valuemax>
								<value>0</value>
							</parameter>
						</effect>
					</filter>
					<sourcetrack>
						<mediatype>audio</mediatype>
						<trackindex>3</trackindex>
					</sourcetrack>
					<link>
						<linkclipref>010_06_03_A_后面OK</linkclipref>
						<mediatype>video</mediatype>
						<trackindex>1</trackindex>
						<clipindex>35</clipindex>
					</link>
					<link>
						<linkclipref>010_06_03_A_后面OK2</linkclipref>
						<mediatype>audio</mediatype>
						<trackindex>1</trackindex>
						<clipindex>35</clipindex>
					</link>
					<link>
						<linkclipref>010_06_03_A_后面OK3</linkclipref>
						<mediatype>audio</mediatype>
						<trackindex>2</trackindex>
						<clipindex>35</clipindex>
					</link>
					<link>
						<linkclipref>010_06_03_A_后面OK4</linkclipref>
						<mediatype>audio</mediatype>
						<trackindex>3</trackindex>
						<clipindex>33</clipindex>
					</link>
					<link>
						<linkclipref>010_06_03_A_后面OK5</linkclipref>
						<mediatype>audio</mediatype>
						<trackindex>4</trackindex>
						<clipindex>23</clipindex>
					</link>
					<link>
						<linkclipref>010_06_03_A_后面OK6</linkclipref>
						<mediatype>audio</mediatype>
						<trackindex>5</trackindex>
						<clipindex>5</clipindex>
					</link>
					<itemhistory>
						<uuid>78392789-27B4-4359-8781-6A1822E923E6</uuid>
					</itemhistory>
				</clipitem>
				<clipitem id="010_06_03_B_后面OK4">
					<name>010_06_03_B_后面OK</name>
					<duration>2160</duration>
					<rate>
						<ntsc>FALSE</ntsc>
						<timebase>24</timebase>
					</rate>
					<in>425</in>
					<out>495</out>
					<start>23198</start>
					<end>23268</end>
					<subframeoffset>0</subframeoffset>
					<enabled>TRUE</enabled>
					<masterclipid>010_06_03_B_后面OK1</masterclipid>
					<logginginfo>
						<scene/>
						<shottake/>
						<lognote/>
						<good>FALSE</good>
					</logginginfo>
					<labels>
						<label2/>
					</labels>
					<comments>
						<mastercomment1/>
						<mastercomment2/>
						<mastercomment3/>
						<mastercomment4/>
					</comments>
					<file id="B002C003_130101_R1WX"/>
					<filter>
						<effect>
							<name>Audio Levels</name>
							<effectid>audiolevels</effectid>
							<effectcategory>audiolevels</effectcategory>
							<effecttype>audiolevels</effecttype>
							<mediatype>audio</mediatype>
							<parameter>
								<name>Level</name>
								<parameterid>level</parameterid>
								<valuemin>0</valuemin>
								<valuemax>3.98109</valuemax>
								<value>1</value>
							</parameter>
						</effect>
					</filter>
					<filter>
						<effect>
							<name>Audio Pan</name>
							<effectid>audiopan</effectid>
							<effectcategory>audiopan</effectcategory>
							<effecttype>audiopan</effecttype>
							<mediatype>audio</mediatype>
							<parameter>
								<name>Pan</name>
								<parameterid>pan</parameterid>
								<valuemin>-1</valuemin>
								<valuemax>1</valuemax>
								<value>0</value>
							</parameter>
						</effect>
					</filter>
					<sourcetrack>
						<mediatype>audio</mediatype>
						<trackindex>3</trackindex>
					</sourcetrack>
					<link>
						<linkclipref>010_06_03_B_后面OK</linkclipref>
						<mediatype>video</mediatype>
						<trackindex>1</trackindex>
						<clipindex>36</clipindex>
					</link>
					<link>
						<linkclipref>010_06_03_B_后面OK2</linkclipref>
						<mediatype>audio</mediatype>
						<trackindex>1</trackindex>
						<clipindex>36</clipindex>
					</link>
					<link>
						<linkclipref>010_06_03_B_后面OK3</linkclipref>
						<mediatype>audio</mediatype>
						<trackindex>2</trackindex>
						<clipindex>36</clipindex>
					</link>
					<link>
						<linkclipref>010_06_03_B_后面OK4</linkclipref>
						<mediatype>audio</mediatype>
						<trackindex>3</trackindex>
						<clipindex>34</clipindex>
					</link>
					<link>
						<linkclipref>010_06_03_B_后面OK5</linkclipref>
						<mediatype>audio</mediatype>
						<trackindex>4</trackindex>
						<clipindex>24</clipindex>
					</link>
					<link>
						<linkclipref>010_06_03_B_后面OK6</linkclipref>
						<mediatype>audio</mediatype>
						<trackindex>5</trackindex>
						<clipindex>6</clipindex>
					</link>
					<itemhistory>
						<uuid>DF3A1F8E-6996-4101-AB7C-0EEDED161C06</uuid>
					</itemhistory>
				</clipitem>
				<clipitem id="010_06_04_A_前面OK4">
					<name>010_06_04_A_前面OK</name>
					<duration>877</duration>
					<rate>
						<ntsc>FALSE</ntsc>
						<timebase>24</timebase>
					</rate>
					<in>582</in>
					<out>777</out>
					<start>23268</start>
					<end>23463</end>
					<subframeoffset>0</subframeoffset>
					<enabled>TRUE</enabled>
					<masterclipid>010_06_04_A_前面OK1</masterclipid>
					<logginginfo>
						<scene/>
						<shottake/>
						<lognote/>
						<good>FALSE</good>
					</logginginfo>
					<labels>
						<label2/>
					</labels>
					<comments>
						<mastercomment1/>
						<mastercomment2/>
						<mastercomment3/>
						<mastercomment4/>
					</comments>
					<file id="A002C004_221211_R03K"/>
					<filter>
						<effect>
							<name>Audio Levels</name>
							<effectid>audiolevels</effectid>
							<effectcategory>audiolevels</effectcategory>
							<effecttype>audiolevels</effecttype>
							<mediatype>audio</mediatype>
							<parameter>
								<name>Level</name>
								<parameterid>level</parameterid>
								<valuemin>0</valuemin>
								<valuemax>3.98109</valuemax>
								<value>1</value>
							</parameter>
						</effect>
					</filter>
					<filter>
						<effect>
							<name>Audio Pan</name>
							<effectid>audiopan</effectid>
							<effectcategory>audiopan</effectcategory>
							<effecttype>audiopan</effecttype>
							<mediatype>audio</mediatype>
							<parameter>
								<name>Pan</name>
								<parameterid>pan</parameterid>
								<valuemin>-1</valuemin>
								<valuemax>1</valuemax>
								<value>0</value>
							</parameter>
						</effect>
					</filter>
					<sourcetrack>
						<mediatype>audio</mediatype>
						<trackindex>3</trackindex>
					</sourcetrack>
					<link>
						<linkclipref>010_06_04_A_前面OK</linkclipref>
						<mediatype>video</mediatype>
						<trackindex>1</trackindex>
						<clipindex>37</clipindex>
					</link>
					<link>
						<linkclipref>010_06_04_A_前面OK2</linkclipref>
						<mediatype>audio</mediatype>
						<trackindex>1</trackindex>
						<clipindex>37</clipindex>
					</link>
					<link>
						<linkclipref>010_06_04_A_前面OK3</linkclipref>
						<mediatype>audio</mediatype>
						<trackindex>2</trackindex>
						<clipindex>37</clipindex>
					</link>
					<link>
						<linkclipref>010_06_04_A_前面OK4</linkclipref>
						<mediatype>audio</mediatype>
						<trackindex>3</trackindex>
						<clipindex>35</clipindex>
					</link>
					<link>
						<linkclipref>010_06_04_A_前面OK5</linkclipref>
						<mediatype>audio</mediatype>
						<trackindex>4</trackindex>
						<clipindex>25</clipindex>
					</link>
					<link>
						<linkclipref>010_06_04_A_前面OK6</linkclipref>
						<mediatype>audio</mediatype>
						<trackindex>5</trackindex>
						<clipindex>7</clipindex>
					</link>
					<itemhistory>
						<uuid>B5586916-DF0E-4151-959B-F5CFC633F83F</uuid>
					</itemhistory>
				</clipitem>
				<clipitem id="010_06_04_B_后面OK4">
					<name>010_06_04_B_后面OK</name>
					<duration>839</duration>
					<rate>
						<ntsc>FALSE</ntsc>
						<timebase>24</timebase>
					</rate>
					<in>399</in>
					<out>487</out>
					<start>23463</start>
					<end>23551</end>
					<subframeoffset>0</subframeoffset>
					<enabled>TRUE</enabled>
					<masterclipid>010_06_04_B_后面OK1</masterclipid>
					<logginginfo>
						<scene/>
						<shottake/>
						<lognote/>
						<good>FALSE</good>
					</logginginfo>
					<labels>
						<label2/>
					</labels>
					<comments>
						<mastercomment1/>
						<mastercomment2/>
						<mastercomment3/>
						<mastercomment4/>
					</comments>
					<file id="B002C004_130101_R1WX"/>
					<filter>
						<effect>
							<name>Audio Levels</name>
							<effectid>audiolevels</effectid>
							<effectcategory>audiolevels</effectcategory>
							<effecttype>audiolevels</effecttype>
							<mediatype>audio</mediatype>
							<parameter>
								<name>Level</name>
								<parameterid>level</parameterid>
								<valuemin>0</valuemin>
								<valuemax>3.98109</valuemax>
								<value>1</value>
							</parameter>
						</effect>
					</filter>
					<filter>
						<effect>
							<name>Audio Pan</name>
							<effectid>audiopan</effectid>
							<effectcategory>audiopan</effectcategory>
							<effecttype>audiopan</effecttype>
							<mediatype>audio</mediatype>
							<parameter>
								<name>Pan</name>
								<parameterid>pan</parameterid>
								<valuemin>-1</valuemin>
								<valuemax>1</valuemax>
								<value>0</value>
							</parameter>
						</effect>
					</filter>
					<sourcetrack>
						<mediatype>audio</mediatype>
						<trackindex>3</trackindex>
					</sourcetrack>
					<link>
						<linkclipref>010_06_04_B_后面OK</linkclipref>
						<mediatype>video</mediatype>
						<trackindex>1</trackindex>
						<clipindex>38</clipindex>
					</link>
					<link>
						<linkclipref>010_06_04_B_后面OK2</linkclipref>
						<mediatype>audio</mediatype>
						<trackindex>1</trackindex>
						<clipindex>38</clipindex>
					</link>
					<link>
						<linkclipref>010_06_04_B_后面OK3</linkclipref>
						<mediatype>audio</mediatype>
						<trackindex>2</trackindex>
						<clipindex>38</clipindex>
					</link>
					<link>
						<linkclipref>010_06_04_B_后面OK4</linkclipref>
						<mediatype>audio</mediatype>
						<trackindex>3</trackindex>
						<clipindex>36</clipindex>
					</link>
					<link>
						<linkclipref>010_06_04_B_后面OK5</linkclipref>
						<mediatype>audio</mediatype>
						<trackindex>4</trackindex>
						<clipindex>26</clipindex>
					</link>
					<link>
						<linkclipref>010_06_04_B_后面OK6</linkclipref>
						<mediatype>audio</mediatype>
						<trackindex>5</trackindex>
						<clipindex>8</clipindex>
					</link>
					<itemhistory>
						<uuid>9184204D-64C4-4E21-934E-CD90EABEA3CB</uuid>
					</itemhistory>
				</clipitem>
				<clipitem id="010_07_01_A4">
					<name>010_07_01_A</name>
					<duration>1967</duration>
					<rate>
						<ntsc>FALSE</ntsc>
						<timebase>24</timebase>
					</rate>
					<in>0</in>
					<out>1967</out>
					<start>23551</start>
					<end>25518</end>
					<subframeoffset>0</subframeoffset>
					<enabled>TRUE</enabled>
					<masterclipid>010_07_01_A1</masterclipid>
					<logginginfo>
						<scene/>
						<shottake/>
						<lognote/>
						<good>FALSE</good>
					</logginginfo>
					<labels>
						<label2/>
					</labels>
					<comments>
						<mastercomment1/>
						<mastercomment2/>
						<mastercomment3/>
						<mastercomment4/>
					</comments>
					<file id="A002C005_221211_R03K"/>
					<filter>
						<effect>
							<name>Audio Levels</name>
							<effectid>audiolevels</effectid>
							<effectcategory>audiolevels</effectcategory>
							<effecttype>audiolevels</effecttype>
							<mediatype>audio</mediatype>
							<parameter>
								<name>Level</name>
								<parameterid>level</parameterid>
								<valuemin>0</valuemin>
								<valuemax>3.98109</valuemax>
								<value>1</value>
							</parameter>
						</effect>
					</filter>
					<filter>
						<effect>
							<name>Audio Pan</name>
							<effectid>audiopan</effectid>
							<effectcategory>audiopan</effectcategory>
							<effecttype>audiopan</effecttype>
							<mediatype>audio</mediatype>
							<parameter>
								<name>Pan</name>
								<parameterid>pan</parameterid>
								<valuemin>-1</valuemin>
								<valuemax>1</valuemax>
								<value>0</value>
							</parameter>
						</effect>
					</filter>
					<sourcetrack>
						<mediatype>audio</mediatype>
						<trackindex>3</trackindex>
					</sourcetrack>
					<link>
						<linkclipref>010_07_01_A</linkclipref>
						<mediatype>video</mediatype>
						<trackindex>1</trackindex>
						<clipindex>39</clipindex>
					</link>
					<link>
						<linkclipref>010_07_01_A2</linkclipref>
						<mediatype>audio</mediatype>
						<trackindex>1</trackindex>
						<clipindex>39</clipindex>
					</link>
					<link>
						<linkclipref>010_07_01_A3</linkclipref>
						<mediatype>audio</mediatype>
						<trackindex>2</trackindex>
						<clipindex>39</clipindex>
					</link>
					<link>
						<linkclipref>010_07_01_A4</linkclipref>
						<mediatype>audio</mediatype>
						<trackindex>3</trackindex>
						<clipindex>37</clipindex>
					</link>
					<itemhistory>
						<uuid>CC88C37C-336F-49C9-9BCE-4688FC570EB7</uuid>
					</itemhistory>
				</clipitem>
				<clipitem id="010_07_01_B_KP4">
					<name>010_07_01_B_KP</name>
					<duration>430</duration>
					<rate>
						<ntsc>FALSE</ntsc>
						<timebase>24</timebase>
					</rate>
					<in>204</in>
					<out>287</out>
					<start>25518</start>
					<end>25601</end>
					<subframeoffset>0</subframeoffset>
					<enabled>TRUE</enabled>
					<masterclipid>010_07_01_B_KP1</masterclipid>
					<logginginfo>
						<scene/>
						<shottake/>
						<lognote/>
						<good>FALSE</good>
					</logginginfo>
					<labels>
						<label2/>
					</labels>
					<comments>
						<mastercomment1/>
						<mastercomment2/>
						<mastercomment3/>
						<mastercomment4/>
					</comments>
					<file id="B002C005_130101_R1WX"/>
					<filter>
						<effect>
							<name>Audio Levels</name>
							<effectid>audiolevels</effectid>
							<effectcategory>audiolevels</effectcategory>
							<effecttype>audiolevels</effecttype>
							<mediatype>audio</mediatype>
							<parameter>
								<name>Level</name>
								<parameterid>level</parameterid>
								<valuemin>0</valuemin>
								<valuemax>3.98109</valuemax>
								<value>1</value>
							</parameter>
						</effect>
					</filter>
					<filter>
						<effect>
							<name>Audio Pan</name>
							<effectid>audiopan</effectid>
							<effectcategory>audiopan</effectcategory>
							<effecttype>audiopan</effecttype>
							<mediatype>audio</mediatype>
							<parameter>
								<name>Pan</name>
								<parameterid>pan</parameterid>
								<valuemin>-1</valuemin>
								<valuemax>1</valuemax>
								<value>0</value>
							</parameter>
						</effect>
					</filter>
					<sourcetrack>
						<mediatype>audio</mediatype>
						<trackindex>3</trackindex>
					</sourcetrack>
					<link>
						<linkclipref>010_07_01_B_KP</linkclipref>
						<mediatype>video</mediatype>
						<trackindex>1</trackindex>
						<clipindex>40</clipindex>
					</link>
					<link>
						<linkclipref>010_07_01_B_KP2</linkclipref>
						<mediatype>audio</mediatype>
						<trackindex>1</trackindex>
						<clipindex>40</clipindex>
					</link>
					<link>
						<linkclipref>010_07_01_B_KP3</linkclipref>
						<mediatype>audio</mediatype>
						<trackindex>2</trackindex>
						<clipindex>40</clipindex>
					</link>
					<link>
						<linkclipref>010_07_01_B_KP4</linkclipref>
						<mediatype>audio</mediatype>
						<trackindex>3</trackindex>
						<clipindex>38</clipindex>
					</link>
					<link>
						<linkclipref>010_07_01_B_KP5</linkclipref>
						<mediatype>audio</mediatype>
						<trackindex>4</trackindex>
						<clipindex>27</clipindex>
					</link>
					<itemhistory>
						<uuid>E33BA524-D725-408D-8716-7C7157216815</uuid>
					</itemhistory>
				</clipitem>
				<clipitem id="010_07_02_A4">
					<name>010_07_02_A</name>
					<duration>317</duration>
					<rate>
						<ntsc>FALSE</ntsc>
						<timebase>24</timebase>
					</rate>
					<in>0</in>
					<out>317</out>
					<start>25601</start>
					<end>25918</end>
					<subframeoffset>0</subframeoffset>
					<enabled>TRUE</enabled>
					<masterclipid>010_07_02_A1</masterclipid>
					<logginginfo>
						<scene/>
						<shottake/>
						<lognote/>
						<good>FALSE</good>
					</logginginfo>
					<labels>
						<label2/>
					</labels>
					<comments>
						<mastercomment1/>
						<mastercomment2/>
						<mastercomment3/>
						<mastercomment4/>
					</comments>
					<file id="A002C006_221211_R03K"/>
					<filter>
						<effect>
							<name>Audio Levels</name>
							<effectid>audiolevels</effectid>
							<effectcategory>audiolevels</effectcategory>
							<effecttype>audiolevels</effecttype>
							<mediatype>audio</mediatype>
							<parameter>
								<name>Level</name>
								<parameterid>level</parameterid>
								<valuemin>0</valuemin>
								<valuemax>3.98109</valuemax>
								<value>1</value>
							</parameter>
						</effect>
					</filter>
					<filter>
						<effect>
							<name>Audio Pan</name>
							<effectid>audiopan</effectid>
							<effectcategory>audiopan</effectcategory>
							<effecttype>audiopan</effecttype>
							<mediatype>audio</mediatype>
							<parameter>
								<name>Pan</name>
								<parameterid>pan</parameterid>
								<valuemin>-1</valuemin>
								<valuemax>1</valuemax>
								<value>0</value>
							</parameter>
						</effect>
					</filter>
					<sourcetrack>
						<mediatype>audio</mediatype>
						<trackindex>3</trackindex>
					</sourcetrack>
					<link>
						<linkclipref>010_07_02_A</linkclipref>
						<mediatype>video</mediatype>
						<trackindex>1</trackindex>
						<clipindex>41</clipindex>
					</link>
					<link>
						<linkclipref>010_07_02_A2</linkclipref>
						<mediatype>audio</mediatype>
						<trackindex>1</trackindex>
						<clipindex>41</clipindex>
					</link>
					<link>
						<linkclipref>010_07_02_A3</linkclipref>
						<mediatype>audio</mediatype>
						<trackindex>2</trackindex>
						<clipindex>41</clipindex>
					</link>
					<link>
						<linkclipref>010_07_02_A4</linkclipref>
						<mediatype>audio</mediatype>
						<trackindex>3</trackindex>
						<clipindex>39</clipindex>
					</link>
					<itemhistory>
						<uuid>2D185888-BEEB-4F51-9943-BFFFAD311861</uuid>
					</itemhistory>
				</clipitem>
				<clipitem id="010_07_02_B_KP4">
					<name>010_07_02_B_KP</name>
					<duration>474</duration>
					<rate>
						<ntsc>FALSE</ntsc>
						<timebase>24</timebase>
					</rate>
					<in>270</in>
					<out>320</out>
					<start>25918</start>
					<end>25968</end>
					<subframeoffset>0</subframeoffset>
					<enabled>TRUE</enabled>
					<masterclipid>010_07_02_B_KP1</masterclipid>
					<logginginfo>
						<scene/>
						<shottake/>
						<lognote/>
						<good>FALSE</good>
					</logginginfo>
					<labels>
						<label2/>
					</labels>
					<comments>
						<mastercomment1/>
						<mastercomment2/>
						<mastercomment3/>
						<mastercomment4/>
					</comments>
					<file id="B002C006_130101_R1WX"/>
					<filter>
						<effect>
							<name>Audio Levels</name>
							<effectid>audiolevels</effectid>
							<effectcategory>audiolevels</effectcategory>
							<effecttype>audiolevels</effecttype>
							<mediatype>audio</mediatype>
							<parameter>
								<name>Level</name>
								<parameterid>level</parameterid>
								<valuemin>0</valuemin>
								<valuemax>3.98109</valuemax>
								<value>1</value>
							</parameter>
						</effect>
					</filter>
					<filter>
						<effect>
							<name>Audio Pan</name>
							<effectid>audiopan</effectid>
							<effectcategory>audiopan</effectcategory>
							<effecttype>audiopan</effecttype>
							<mediatype>audio</mediatype>
							<parameter>
								<name>Pan</name>
								<parameterid>pan</parameterid>
								<valuemin>-1</valuemin>
								<valuemax>1</valuemax>
								<value>0</value>
							</parameter>
						</effect>
					</filter>
					<sourcetrack>
						<mediatype>audio</mediatype>
						<trackindex>3</trackindex>
					</sourcetrack>
					<link>
						<linkclipref>010_07_02_B_KP</linkclipref>
						<mediatype>video</mediatype>
						<trackindex>1</trackindex>
						<clipindex>42</clipindex>
					</link>
					<link>
						<linkclipref>010_07_02_B_KP2</linkclipref>
						<mediatype>audio</mediatype>
						<trackindex>1</trackindex>
						<clipindex>42</clipindex>
					</link>
					<link>
						<linkclipref>010_07_02_B_KP3</linkclipref>
						<mediatype>audio</mediatype>
						<trackindex>2</trackindex>
						<clipindex>42</clipindex>
					</link>
					<link>
						<linkclipref>010_07_02_B_KP4</linkclipref>
						<mediatype>audio</mediatype>
						<trackindex>3</trackindex>
						<clipindex>40</clipindex>
					</link>
					<link>
						<linkclipref>010_07_02_B_KP5</linkclipref>
						<mediatype>audio</mediatype>
						<trackindex>4</trackindex>
						<clipindex>28</clipindex>
					</link>
					<itemhistory>
						<uuid>0AAB2CAF-E6B7-46D1-91EB-9203DCB184A6</uuid>
					</itemhistory>
				</clipitem>
				<clipitem id="010_07_03_A4">
					<name>010_07_03_A</name>
					<duration>727</duration>
					<rate>
						<ntsc>FALSE</ntsc>
						<timebase>24</timebase>
					</rate>
					<in>0</in>
					<out>727</out>
					<start>25968</start>
					<end>26695</end>
					<subframeoffset>0</subframeoffset>
					<enabled>TRUE</enabled>
					<masterclipid>010_07_03_A1</masterclipid>
					<logginginfo>
						<scene/>
						<shottake/>
						<lognote/>
						<good>FALSE</good>
					</logginginfo>
					<labels>
						<label2/>
					</labels>
					<comments>
						<mastercomment1/>
						<mastercomment2/>
						<mastercomment3/>
						<mastercomment4/>
					</comments>
					<file id="A002C007_221211_R03K"/>
					<filter>
						<effect>
							<name>Audio Levels</name>
							<effectid>audiolevels</effectid>
							<effectcategory>audiolevels</effectcategory>
							<effecttype>audiolevels</effecttype>
							<mediatype>audio</mediatype>
							<parameter>
								<name>Level</name>
								<parameterid>level</parameterid>
								<valuemin>0</valuemin>
								<valuemax>3.98109</valuemax>
								<value>1</value>
							</parameter>
						</effect>
					</filter>
					<filter>
						<effect>
							<name>Audio Pan</name>
							<effectid>audiopan</effectid>
							<effectcategory>audiopan</effectcategory>
							<effecttype>audiopan</effecttype>
							<mediatype>audio</mediatype>
							<parameter>
								<name>Pan</name>
								<parameterid>pan</parameterid>
								<valuemin>-1</valuemin>
								<valuemax>1</valuemax>
								<value>0</value>
							</parameter>
						</effect>
					</filter>
					<sourcetrack>
						<mediatype>audio</mediatype>
						<trackindex>3</trackindex>
					</sourcetrack>
					<link>
						<linkclipref>010_07_03_A</linkclipref>
						<mediatype>video</mediatype>
						<trackindex>1</trackindex>
						<clipindex>43</clipindex>
					</link>
					<link>
						<linkclipref>010_07_03_A2</linkclipref>
						<mediatype>audio</mediatype>
						<trackindex>1</trackindex>
						<clipindex>43</clipindex>
					</link>
					<link>
						<linkclipref>010_07_03_A3</linkclipref>
						<mediatype>audio</mediatype>
						<trackindex>2</trackindex>
						<clipindex>43</clipindex>
					</link>
					<link>
						<linkclipref>010_07_03_A4</linkclipref>
						<mediatype>audio</mediatype>
						<trackindex>3</trackindex>
						<clipindex>41</clipindex>
					</link>
					<itemhistory>
						<uuid>666B4702-4530-42B9-A11F-6D372787ED0A</uuid>
					</itemhistory>
				</clipitem>
				<clipitem id="010_07_04_A4">
					<name>010_07_04_A</name>
					<duration>554</duration>
					<rate>
						<ntsc>FALSE</ntsc>
						<timebase>24</timebase>
					</rate>
					<in>0</in>
					<out>554</out>
					<start>26695</start>
					<end>27249</end>
					<subframeoffset>0</subframeoffset>
					<enabled>TRUE</enabled>
					<masterclipid>010_07_04_A1</masterclipid>
					<logginginfo>
						<scene/>
						<shottake/>
						<lognote/>
						<good>FALSE</good>
					</logginginfo>
					<labels>
						<label2/>
					</labels>
					<comments>
						<mastercomment1/>
						<mastercomment2/>
						<mastercomment3/>
						<mastercomment4/>
					</comments>
					<file id="A002C008_221211_R03K"/>
					<filter>
						<effect>
							<name>Audio Levels</name>
							<effectid>audiolevels</effectid>
							<effectcategory>audiolevels</effectcategory>
							<effecttype>audiolevels</effecttype>
							<mediatype>audio</mediatype>
							<parameter>
								<name>Level</name>
								<parameterid>level</parameterid>
								<valuemin>0</valuemin>
								<valuemax>3.98109</valuemax>
								<value>1</value>
							</parameter>
						</effect>
					</filter>
					<filter>
						<effect>
							<name>Audio Pan</name>
							<effectid>audiopan</effectid>
							<effectcategory>audiopan</effectcategory>
							<effecttype>audiopan</effecttype>
							<mediatype>audio</mediatype>
							<parameter>
								<name>Pan</name>
								<parameterid>pan</parameterid>
								<valuemin>-1</valuemin>
								<valuemax>1</valuemax>
								<value>0</value>
							</parameter>
						</effect>
					</filter>
					<sourcetrack>
						<mediatype>audio</mediatype>
						<trackindex>3</trackindex>
					</sourcetrack>
					<link>
						<linkclipref>010_07_04_A</linkclipref>
						<mediatype>video</mediatype>
						<trackindex>1</trackindex>
						<clipindex>44</clipindex>
					</link>
					<link>
						<linkclipref>010_07_04_A2</linkclipref>
						<mediatype>audio</mediatype>
						<trackindex>1</trackindex>
						<clipindex>44</clipindex>
					</link>
					<link>
						<linkclipref>010_07_04_A3</linkclipref>
						<mediatype>audio</mediatype>
						<trackindex>2</trackindex>
						<clipindex>44</clipindex>
					</link>
					<link>
						<linkclipref>010_07_04_A4</linkclipref>
						<mediatype>audio</mediatype>
						<trackindex>3</trackindex>
						<clipindex>42</clipindex>
					</link>
					<itemhistory>
						<uuid>0B242526-95F9-420E-AA26-1F4FD3A206C8</uuid>
					</itemhistory>
				</clipitem>
				<clipitem id="010_07_05_A4">
					<name>010_07_05_A</name>
					<duration>594</duration>
					<rate>
						<ntsc>FALSE</ntsc>
						<timebase>24</timebase>
					</rate>
					<in>0</in>
					<out>594</out>
					<start>27249</start>
					<end>27843</end>
					<subframeoffset>0</subframeoffset>
					<enabled>TRUE</enabled>
					<masterclipid>010_07_05_A1</masterclipid>
					<logginginfo>
						<scene/>
						<shottake/>
						<lognote/>
						<good>FALSE</good>
					</logginginfo>
					<labels>
						<label2/>
					</labels>
					<comments>
						<mastercomment1/>
						<mastercomment2/>
						<mastercomment3/>
						<mastercomment4/>
					</comments>
					<file id="A002C009_221211_R03K"/>
					<filter>
						<effect>
							<name>Audio Levels</name>
							<effectid>audiolevels</effectid>
							<effectcategory>audiolevels</effectcategory>
							<effecttype>audiolevels</effecttype>
							<mediatype>audio</mediatype>
							<parameter>
								<name>Level</name>
								<parameterid>level</parameterid>
								<valuemin>0</valuemin>
								<valuemax>3.98109</valuemax>
								<value>1</value>
							</parameter>
						</effect>
					</filter>
					<filter>
						<effect>
							<name>Audio Pan</name>
							<effectid>audiopan</effectid>
							<effectcategory>audiopan</effectcategory>
							<effecttype>audiopan</effecttype>
							<mediatype>audio</mediatype>
							<parameter>
								<name>Pan</name>
								<parameterid>pan</parameterid>
								<valuemin>-1</valuemin>
								<valuemax>1</valuemax>
								<value>0</value>
							</parameter>
						</effect>
					</filter>
					<sourcetrack>
						<mediatype>audio</mediatype>
						<trackindex>3</trackindex>
					</sourcetrack>
					<link>
						<linkclipref>010_07_05_A</linkclipref>
						<mediatype>video</mediatype>
						<trackindex>1</trackindex>
						<clipindex>45</clipindex>
					</link>
					<link>
						<linkclipref>010_07_05_A2</linkclipref>
						<mediatype>audio</mediatype>
						<trackindex>1</trackindex>
						<clipindex>45</clipindex>
					</link>
					<link>
						<linkclipref>010_07_05_A3</linkclipref>
						<mediatype>audio</mediatype>
						<trackindex>2</trackindex>
						<clipindex>45</clipindex>
					</link>
					<link>
						<linkclipref>010_07_05_A4</linkclipref>
						<mediatype>audio</mediatype>
						<trackindex>3</trackindex>
						<clipindex>43</clipindex>
					</link>
					<itemhistory>
						<uuid>E5E44365-8027-40A5-A8F9-4380D4C0E960</uuid>
					</itemhistory>
				</clipitem>
				<clipitem id="010_07_06_A4">
					<name>010_07_06_A</name>
					<duration>559</duration>
					<rate>
						<ntsc>FALSE</ntsc>
						<timebase>24</timebase>
					</rate>
					<in>0</in>
					<out>559</out>
					<start>27843</start>
					<end>28402</end>
					<subframeoffset>0</subframeoffset>
					<enabled>TRUE</enabled>
					<masterclipid>010_07_06_A1</masterclipid>
					<logginginfo>
						<scene/>
						<shottake/>
						<lognote/>
						<good>FALSE</good>
					</logginginfo>
					<labels>
						<label2/>
					</labels>
					<comments>
						<mastercomment1/>
						<mastercomment2/>
						<mastercomment3/>
						<mastercomment4/>
					</comments>
					<file id="A002C010_221211_R03K"/>
					<filter>
						<effect>
							<name>Audio Levels</name>
							<effectid>audiolevels</effectid>
							<effectcategory>audiolevels</effectcategory>
							<effecttype>audiolevels</effecttype>
							<mediatype>audio</mediatype>
							<parameter>
								<name>Level</name>
								<parameterid>level</parameterid>
								<valuemin>0</valuemin>
								<valuemax>3.98109</valuemax>
								<value>1</value>
							</parameter>
						</effect>
					</filter>
					<filter>
						<effect>
							<name>Audio Pan</name>
							<effectid>audiopan</effectid>
							<effectcategory>audiopan</effectcategory>
							<effecttype>audiopan</effecttype>
							<mediatype>audio</mediatype>
							<parameter>
								<name>Pan</name>
								<parameterid>pan</parameterid>
								<valuemin>-1</valuemin>
								<valuemax>1</valuemax>
								<value>0</value>
							</parameter>
						</effect>
					</filter>
					<sourcetrack>
						<mediatype>audio</mediatype>
						<trackindex>3</trackindex>
					</sourcetrack>
					<link>
						<linkclipref>010_07_06_A</linkclipref>
						<mediatype>video</mediatype>
						<trackindex>1</trackindex>
						<clipindex>46</clipindex>
					</link>
					<link>
						<linkclipref>010_07_06_A2</linkclipref>
						<mediatype>audio</mediatype>
						<trackindex>1</trackindex>
						<clipindex>46</clipindex>
					</link>
					<link>
						<linkclipref>010_07_06_A3</linkclipref>
						<mediatype>audio</mediatype>
						<trackindex>2</trackindex>
						<clipindex>46</clipindex>
					</link>
					<link>
						<linkclipref>010_07_06_A4</linkclipref>
						<mediatype>audio</mediatype>
						<trackindex>3</trackindex>
						<clipindex>44</clipindex>
					</link>
					<itemhistory>
						<uuid>D847EE32-8B20-4D20-9CC8-73078ACD3CD6</uuid>
					</itemhistory>
				</clipitem>
				<clipitem id="010_07_07_A4">
					<name>010_07_07_A</name>
					<duration>309</duration>
					<rate>
						<ntsc>FALSE</ntsc>
						<timebase>24</timebase>
					</rate>
					<in>0</in>
					<out>309</out>
					<start>28402</start>
					<end>28711</end>
					<subframeoffset>0</subframeoffset>
					<enabled>TRUE</enabled>
					<masterclipid>010_07_07_A1</masterclipid>
					<logginginfo>
						<scene/>
						<shottake/>
						<lognote/>
						<good>FALSE</good>
					</logginginfo>
					<labels>
						<label2/>
					</labels>
					<comments>
						<mastercomment1/>
						<mastercomment2/>
						<mastercomment3/>
						<mastercomment4/>
					</comments>
					<file id="A002C011_221211_R03K"/>
					<filter>
						<effect>
							<name>Audio Levels</name>
							<effectid>audiolevels</effectid>
							<effectcategory>audiolevels</effectcategory>
							<effecttype>audiolevels</effecttype>
							<mediatype>audio</mediatype>
							<parameter>
								<name>Level</name>
								<parameterid>level</parameterid>
								<valuemin>0</valuemin>
								<valuemax>3.98109</valuemax>
								<value>1</value>
							</parameter>
						</effect>
					</filter>
					<filter>
						<effect>
							<name>Audio Pan</name>
							<effectid>audiopan</effectid>
							<effectcategory>audiopan</effectcategory>
							<effecttype>audiopan</effecttype>
							<mediatype>audio</mediatype>
							<parameter>
								<name>Pan</name>
								<parameterid>pan</parameterid>
								<valuemin>-1</valuemin>
								<valuemax>1</valuemax>
								<value>0</value>
							</parameter>
						</effect>
					</filter>
					<sourcetrack>
						<mediatype>audio</mediatype>
						<trackindex>3</trackindex>
					</sourcetrack>
					<link>
						<linkclipref>010_07_07_A</linkclipref>
						<mediatype>video</mediatype>
						<trackindex>1</trackindex>
						<clipindex>47</clipindex>
					</link>
					<link>
						<linkclipref>010_07_07_A2</linkclipref>
						<mediatype>audio</mediatype>
						<trackindex>1</trackindex>
						<clipindex>47</clipindex>
					</link>
					<link>
						<linkclipref>010_07_07_A3</linkclipref>
						<mediatype>audio</mediatype>
						<trackindex>2</trackindex>
						<clipindex>47</clipindex>
					</link>
					<link>
						<linkclipref>010_07_07_A4</linkclipref>
						<mediatype>audio</mediatype>
						<trackindex>3</trackindex>
						<clipindex>45</clipindex>
					</link>
					<itemhistory>
						<uuid>18E53270-DB91-4366-8A8B-9CA7B765BE22</uuid>
					</itemhistory>
				</clipitem>
				<clipitem id="010_07_08_A_OK4">
					<name>010_07_08_A_OK</name>
					<duration>678</duration>
					<rate>
						<ntsc>FALSE</ntsc>
						<timebase>24</timebase>
					</rate>
					<in>356</in>
					<out>456</out>
					<start>28711</start>
					<end>28811</end>
					<subframeoffset>0</subframeoffset>
					<enabled>TRUE</enabled>
					<masterclipid>010_07_08_A_OK1</masterclipid>
					<logginginfo>
						<scene/>
						<shottake/>
						<lognote/>
						<good>FALSE</good>
					</logginginfo>
					<labels>
						<label2/>
					</labels>
					<comments>
						<mastercomment1/>
						<mastercomment2/>
						<mastercomment3/>
						<mastercomment4/>
					</comments>
					<file id="A002C012_221211_R03K"/>
					<filter>
						<effect>
							<name>Audio Levels</name>
							<effectid>audiolevels</effectid>
							<effectcategory>audiolevels</effectcategory>
							<effecttype>audiolevels</effecttype>
							<mediatype>audio</mediatype>
							<parameter>
								<name>Level</name>
								<parameterid>level</parameterid>
								<valuemin>0</valuemin>
								<valuemax>3.98109</valuemax>
								<value>1</value>
							</parameter>
						</effect>
					</filter>
					<filter>
						<effect>
							<name>Audio Pan</name>
							<effectid>audiopan</effectid>
							<effectcategory>audiopan</effectcategory>
							<effecttype>audiopan</effecttype>
							<mediatype>audio</mediatype>
							<parameter>
								<name>Pan</name>
								<parameterid>pan</parameterid>
								<valuemin>-1</valuemin>
								<valuemax>1</valuemax>
								<value>0</value>
							</parameter>
						</effect>
					</filter>
					<sourcetrack>
						<mediatype>audio</mediatype>
						<trackindex>3</trackindex>
					</sourcetrack>
					<link>
						<linkclipref>010_07_08_A_OK</linkclipref>
						<mediatype>video</mediatype>
						<trackindex>1</trackindex>
						<clipindex>48</clipindex>
					</link>
					<link>
						<linkclipref>010_07_08_A_OK2</linkclipref>
						<mediatype>audio</mediatype>
						<trackindex>1</trackindex>
						<clipindex>48</clipindex>
					</link>
					<link>
						<linkclipref>010_07_08_A_OK3</linkclipref>
						<mediatype>audio</mediatype>
						<trackindex>2</trackindex>
						<clipindex>48</clipindex>
					</link>
					<link>
						<linkclipref>010_07_08_A_OK4</linkclipref>
						<mediatype>audio</mediatype>
						<trackindex>3</trackindex>
						<clipindex>46</clipindex>
					</link>
					<itemhistory>
						<uuid>0D812EA1-6663-47F2-9796-B221B4FB34BC</uuid>
					</itemhistory>
				</clipitem>
				<clipitem id="010_07_09_A4">
					<name>010_07_09_A</name>
					<duration>735</duration>
					<rate>
						<ntsc>FALSE</ntsc>
						<timebase>24</timebase>
					</rate>
					<in>0</in>
					<out>735</out>
					<start>28811</start>
					<end>29546</end>
					<subframeoffset>0</subframeoffset>
					<enabled>TRUE</enabled>
					<masterclipid>010_07_09_A1</masterclipid>
					<logginginfo>
						<scene/>
						<shottake/>
						<lognote/>
						<good>FALSE</good>
					</logginginfo>
					<labels>
						<label2/>
					</labels>
					<comments>
						<mastercomment1/>
						<mastercomment2/>
						<mastercomment3/>
						<mastercomment4/>
					</comments>
					<file id="A002C013_221211_R03K"/>
					<filter>
						<effect>
							<name>Audio Levels</name>
							<effectid>audiolevels</effectid>
							<effectcategory>audiolevels</effectcategory>
							<effecttype>audiolevels</effecttype>
							<mediatype>audio</mediatype>
							<parameter>
								<name>Level</name>
								<parameterid>level</parameterid>
								<valuemin>0</valuemin>
								<valuemax>3.98109</valuemax>
								<value>1</value>
							</parameter>
						</effect>
					</filter>
					<filter>
						<effect>
							<name>Audio Pan</name>
							<effectid>audiopan</effectid>
							<effectcategory>audiopan</effectcategory>
							<effecttype>audiopan</effecttype>
							<mediatype>audio</mediatype>
							<parameter>
								<name>Pan</name>
								<parameterid>pan</parameterid>
								<valuemin>-1</valuemin>
								<valuemax>1</valuemax>
								<value>0</value>
							</parameter>
						</effect>
					</filter>
					<sourcetrack>
						<mediatype>audio</mediatype>
						<trackindex>3</trackindex>
					</sourcetrack>
					<link>
						<linkclipref>010_07_09_A</linkclipref>
						<mediatype>video</mediatype>
						<trackindex>1</trackindex>
						<clipindex>49</clipindex>
					</link>
					<link>
						<linkclipref>010_07_09_A2</linkclipref>
						<mediatype>audio</mediatype>
						<trackindex>1</trackindex>
						<clipindex>49</clipindex>
					</link>
					<link>
						<linkclipref>010_07_09_A3</linkclipref>
						<mediatype>audio</mediatype>
						<trackindex>2</trackindex>
						<clipindex>49</clipindex>
					</link>
					<link>
						<linkclipref>010_07_09_A4</linkclipref>
						<mediatype>audio</mediatype>
						<trackindex>3</trackindex>
						<clipindex>47</clipindex>
					</link>
					<itemhistory>
						<uuid>B1DD7666-4613-49D7-84C3-0C69369DAE51</uuid>
					</itemhistory>
				</clipitem>
				<clipitem id="010_07_10_A4">
					<name>010_07_10_A</name>
					<duration>686</duration>
					<rate>
						<ntsc>FALSE</ntsc>
						<timebase>24</timebase>
					</rate>
					<in>0</in>
					<out>686</out>
					<start>29546</start>
					<end>30232</end>
					<subframeoffset>0</subframeoffset>
					<enabled>TRUE</enabled>
					<masterclipid>010_07_10_A1</masterclipid>
					<logginginfo>
						<scene/>
						<shottake/>
						<lognote/>
						<good>FALSE</good>
					</logginginfo>
					<labels>
						<label2/>
					</labels>
					<comments>
						<mastercomment1/>
						<mastercomment2/>
						<mastercomment3/>
						<mastercomment4/>
					</comments>
					<file id="A002C014_221211_R03K"/>
					<filter>
						<effect>
							<name>Audio Levels</name>
							<effectid>audiolevels</effectid>
							<effectcategory>audiolevels</effectcategory>
							<effecttype>audiolevels</effecttype>
							<mediatype>audio</mediatype>
							<parameter>
								<name>Level</name>
								<parameterid>level</parameterid>
								<valuemin>0</valuemin>
								<valuemax>3.98109</valuemax>
								<value>1</value>
							</parameter>
						</effect>
					</filter>
					<filter>
						<effect>
							<name>Audio Pan</name>
							<effectid>audiopan</effectid>
							<effectcategory>audiopan</effectcategory>
							<effecttype>audiopan</effecttype>
							<mediatype>audio</mediatype>
							<parameter>
								<name>Pan</name>
								<parameterid>pan</parameterid>
								<valuemin>-1</valuemin>
								<valuemax>1</valuemax>
								<value>0</value>
							</parameter>
						</effect>
					</filter>
					<sourcetrack>
						<mediatype>audio</mediatype>
						<trackindex>3</trackindex>
					</sourcetrack>
					<link>
						<linkclipref>010_07_10_A</linkclipref>
						<mediatype>video</mediatype>
						<trackindex>1</trackindex>
						<clipindex>50</clipindex>
					</link>
					<link>
						<linkclipref>010_07_10_A2</linkclipref>
						<mediatype>audio</mediatype>
						<trackindex>1</trackindex>
						<clipindex>50</clipindex>
					</link>
					<link>
						<linkclipref>010_07_10_A3</linkclipref>
						<mediatype>audio</mediatype>
						<trackindex>2</trackindex>
						<clipindex>50</clipindex>
					</link>
					<link>
						<linkclipref>010_07_10_A4</linkclipref>
						<mediatype>audio</mediatype>
						<trackindex>3</trackindex>
						<clipindex>48</clipindex>
					</link>
					<itemhistory>
						<uuid>69B00FE2-C3AC-4AEF-B0E9-B1199492F684</uuid>
					</itemhistory>
				</clipitem>
				<clipitem id="010_07_11_A4">
					<name>010_07_11_A</name>
					<duration>434</duration>
					<rate>
						<ntsc>FALSE</ntsc>
						<timebase>24</timebase>
					</rate>
					<in>0</in>
					<out>434</out>
					<start>30232</start>
					<end>30666</end>
					<subframeoffset>0</subframeoffset>
					<enabled>TRUE</enabled>
					<masterclipid>010_07_11_A1</masterclipid>
					<logginginfo>
						<scene/>
						<shottake/>
						<lognote/>
						<good>FALSE</good>
					</logginginfo>
					<labels>
						<label2/>
					</labels>
					<comments>
						<mastercomment1/>
						<mastercomment2/>
						<mastercomment3/>
						<mastercomment4/>
					</comments>
					<file id="A002C015_221211_R03K"/>
					<filter>
						<effect>
							<name>Audio Levels</name>
							<effectid>audiolevels</effectid>
							<effectcategory>audiolevels</effectcategory>
							<effecttype>audiolevels</effecttype>
							<mediatype>audio</mediatype>
							<parameter>
								<name>Level</name>
								<parameterid>level</parameterid>
								<valuemin>0</valuemin>
								<valuemax>3.98109</valuemax>
								<value>1</value>
							</parameter>
						</effect>
					</filter>
					<filter>
						<effect>
							<name>Audio Pan</name>
							<effectid>audiopan</effectid>
							<effectcategory>audiopan</effectcategory>
							<effecttype>audiopan</effecttype>
							<mediatype>audio</mediatype>
							<parameter>
								<name>Pan</name>
								<parameterid>pan</parameterid>
								<valuemin>-1</valuemin>
								<valuemax>1</valuemax>
								<value>0</value>
							</parameter>
						</effect>
					</filter>
					<sourcetrack>
						<mediatype>audio</mediatype>
						<trackindex>3</trackindex>
					</sourcetrack>
					<link>
						<linkclipref>010_07_11_A</linkclipref>
						<mediatype>video</mediatype>
						<trackindex>1</trackindex>
						<clipindex>51</clipindex>
					</link>
					<link>
						<linkclipref>010_07_11_A2</linkclipref>
						<mediatype>audio</mediatype>
						<trackindex>1</trackindex>
						<clipindex>51</clipindex>
					</link>
					<link>
						<linkclipref>010_07_11_A3</linkclipref>
						<mediatype>audio</mediatype>
						<trackindex>2</trackindex>
						<clipindex>51</clipindex>
					</link>
					<link>
						<linkclipref>010_07_11_A4</linkclipref>
						<mediatype>audio</mediatype>
						<trackindex>3</trackindex>
						<clipindex>49</clipindex>
					</link>
					<itemhistory>
						<uuid>BDF64C8E-8B31-4FDB-8C6E-5FE8175E885C</uuid>
					</itemhistory>
				</clipitem>
				<clipitem id="010_07_12_A4">
					<name>010_07_12_A</name>
					<duration>416</duration>
					<rate>
						<ntsc>FALSE</ntsc>
						<timebase>24</timebase>
					</rate>
					<in>0</in>
					<out>416</out>
					<start>30666</start>
					<end>31082</end>
					<subframeoffset>0</subframeoffset>
					<enabled>TRUE</enabled>
					<masterclipid>010_07_12_A1</masterclipid>
					<logginginfo>
						<scene/>
						<shottake/>
						<lognote/>
						<good>FALSE</good>
					</logginginfo>
					<labels>
						<label2/>
					</labels>
					<comments>
						<mastercomment1/>
						<mastercomment2/>
						<mastercomment3/>
						<mastercomment4/>
					</comments>
					<file id="A002C016_221211_R03K"/>
					<filter>
						<effect>
							<name>Audio Levels</name>
							<effectid>audiolevels</effectid>
							<effectcategory>audiolevels</effectcategory>
							<effecttype>audiolevels</effecttype>
							<mediatype>audio</mediatype>
							<parameter>
								<name>Level</name>
								<parameterid>level</parameterid>
								<valuemin>0</valuemin>
								<valuemax>3.98109</valuemax>
								<value>1</value>
							</parameter>
						</effect>
					</filter>
					<filter>
						<effect>
							<name>Audio Pan</name>
							<effectid>audiopan</effectid>
							<effectcategory>audiopan</effectcategory>
							<effecttype>audiopan</effecttype>
							<mediatype>audio</mediatype>
							<parameter>
								<name>Pan</name>
								<parameterid>pan</parameterid>
								<valuemin>-1</valuemin>
								<valuemax>1</valuemax>
								<value>0</value>
							</parameter>
						</effect>
					</filter>
					<sourcetrack>
						<mediatype>audio</mediatype>
						<trackindex>3</trackindex>
					</sourcetrack>
					<link>
						<linkclipref>010_07_12_A</linkclipref>
						<mediatype>video</mediatype>
						<trackindex>1</trackindex>
						<clipindex>52</clipindex>
					</link>
					<link>
						<linkclipref>010_07_12_A2</linkclipref>
						<mediatype>audio</mediatype>
						<trackindex>1</trackindex>
						<clipindex>52</clipindex>
					</link>
					<link>
						<linkclipref>010_07_12_A3</linkclipref>
						<mediatype>audio</mediatype>
						<trackindex>2</trackindex>
						<clipindex>52</clipindex>
					</link>
					<link>
						<linkclipref>010_07_12_A4</linkclipref>
						<mediatype>audio</mediatype>
						<trackindex>3</trackindex>
						<clipindex>50</clipindex>
					</link>
					<itemhistory>
						<uuid>2CDB7A55-37B8-40B5-9E82-CC0E841F9C83</uuid>
					</itemhistory>
				</clipitem>
				<clipitem id="010_07_13_A4">
					<name>010_07_13_A</name>
					<duration>394</duration>
					<rate>
						<ntsc>FALSE</ntsc>
						<timebase>24</timebase>
					</rate>
					<in>0</in>
					<out>394</out>
					<start>31082</start>
					<end>31476</end>
					<subframeoffset>0</subframeoffset>
					<enabled>TRUE</enabled>
					<masterclipid>010_07_13_A1</masterclipid>
					<logginginfo>
						<scene/>
						<shottake/>
						<lognote/>
						<good>FALSE</good>
					</logginginfo>
					<labels>
						<label2/>
					</labels>
					<comments>
						<mastercomment1/>
						<mastercomment2/>
						<mastercomment3/>
						<mastercomment4/>
					</comments>
					<file id="A002C017_221211_R03K"/>
					<filter>
						<effect>
							<name>Audio Levels</name>
							<effectid>audiolevels</effectid>
							<effectcategory>audiolevels</effectcategory>
							<effecttype>audiolevels</effecttype>
							<mediatype>audio</mediatype>
							<parameter>
								<name>Level</name>
								<parameterid>level</parameterid>
								<valuemin>0</valuemin>
								<valuemax>3.98109</valuemax>
								<value>1</value>
							</parameter>
						</effect>
					</filter>
					<filter>
						<effect>
							<name>Audio Pan</name>
							<effectid>audiopan</effectid>
							<effectcategory>audiopan</effectcategory>
							<effecttype>audiopan</effecttype>
							<mediatype>audio</mediatype>
							<parameter>
								<name>Pan</name>
								<parameterid>pan</parameterid>
								<valuemin>-1</valuemin>
								<valuemax>1</valuemax>
								<value>0</value>
							</parameter>
						</effect>
					</filter>
					<sourcetrack>
						<mediatype>audio</mediatype>
						<trackindex>3</trackindex>
					</sourcetrack>
					<link>
						<linkclipref>010_07_13_A</linkclipref>
						<mediatype>video</mediatype>
						<trackindex>1</trackindex>
						<clipindex>53</clipindex>
					</link>
					<link>
						<linkclipref>010_07_13_A2</linkclipref>
						<mediatype>audio</mediatype>
						<trackindex>1</trackindex>
						<clipindex>53</clipindex>
					</link>
					<link>
						<linkclipref>010_07_13_A3</linkclipref>
						<mediatype>audio</mediatype>
						<trackindex>2</trackindex>
						<clipindex>53</clipindex>
					</link>
					<link>
						<linkclipref>010_07_13_A4</linkclipref>
						<mediatype>audio</mediatype>
						<trackindex>3</trackindex>
						<clipindex>51</clipindex>
					</link>
					<itemhistory>
						<uuid>73B37A95-0701-4730-990D-BDD49A7EAFA5</uuid>
					</itemhistory>
				</clipitem>
				<clipitem id="010_07_14_A_OK4">
					<name>010_07_14_A_OK</name>
					<duration>635</duration>
					<rate>
						<ntsc>FALSE</ntsc>
						<timebase>24</timebase>
					</rate>
					<in>167</in>
					<out>270</out>
					<start>31476</start>
					<end>31579</end>
					<subframeoffset>0</subframeoffset>
					<enabled>TRUE</enabled>
					<masterclipid>010_07_14_A_OK1</masterclipid>
					<logginginfo>
						<scene/>
						<shottake/>
						<lognote/>
						<good>FALSE</good>
					</logginginfo>
					<labels>
						<label2/>
					</labels>
					<comments>
						<mastercomment1/>
						<mastercomment2/>
						<mastercomment3/>
						<mastercomment4/>
					</comments>
					<file id="A002C018_221211_R03K"/>
					<filter>
						<effect>
							<name>Audio Levels</name>
							<effectid>audiolevels</effectid>
							<effectcategory>audiolevels</effectcategory>
							<effecttype>audiolevels</effecttype>
							<mediatype>audio</mediatype>
							<parameter>
								<name>Level</name>
								<parameterid>level</parameterid>
								<valuemin>0</valuemin>
								<valuemax>3.98109</valuemax>
								<value>1</value>
							</parameter>
						</effect>
					</filter>
					<filter>
						<effect>
							<name>Audio Pan</name>
							<effectid>audiopan</effectid>
							<effectcategory>audiopan</effectcategory>
							<effecttype>audiopan</effecttype>
							<mediatype>audio</mediatype>
							<parameter>
								<name>Pan</name>
								<parameterid>pan</parameterid>
								<valuemin>-1</valuemin>
								<valuemax>1</valuemax>
								<value>0</value>
							</parameter>
						</effect>
					</filter>
					<sourcetrack>
						<mediatype>audio</mediatype>
						<trackindex>3</trackindex>
					</sourcetrack>
					<link>
						<linkclipref>010_07_14_A_OK</linkclipref>
						<mediatype>video</mediatype>
						<trackindex>1</trackindex>
						<clipindex>54</clipindex>
					</link>
					<link>
						<linkclipref>010_07_14_A_OK2</linkclipref>
						<mediatype>audio</mediatype>
						<trackindex>1</trackindex>
						<clipindex>54</clipindex>
					</link>
					<link>
						<linkclipref>010_07_14_A_OK3</linkclipref>
						<mediatype>audio</mediatype>
						<trackindex>2</trackindex>
						<clipindex>54</clipindex>
					</link>
					<link>
						<linkclipref>010_07_14_A_OK4</linkclipref>
						<mediatype>audio</mediatype>
						<trackindex>3</trackindex>
						<clipindex>52</clipindex>
					</link>
					<itemhistory>
						<uuid>6952167A-57F1-4CE2-B18C-8A2D4DB85421</uuid>
					</itemhistory>
				</clipitem>
				<clipitem id="010_08_01_B4">
					<name>010_08_01_B</name>
					<duration>466</duration>
					<rate>
						<ntsc>FALSE</ntsc>
						<timebase>24</timebase>
					</rate>
					<in>0</in>
					<out>466</out>
					<start>31579</start>
					<end>32045</end>
					<subframeoffset>0</subframeoffset>
					<enabled>TRUE</enabled>
					<masterclipid>010_08_01_B1</masterclipid>
					<logginginfo>
						<scene/>
						<shottake/>
						<lognote/>
						<good>FALSE</good>
					</logginginfo>
					<labels>
						<label2/>
					</labels>
					<comments>
						<mastercomment1/>
						<mastercomment2/>
						<mastercomment3/>
						<mastercomment4/>
					</comments>
					<file id="B002C007_130101_R1WX"/>
					<filter>
						<effect>
							<name>Audio Levels</name>
							<effectid>audiolevels</effectid>
							<effectcategory>audiolevels</effectcategory>
							<effecttype>audiolevels</effecttype>
							<mediatype>audio</mediatype>
							<parameter>
								<name>Level</name>
								<parameterid>level</parameterid>
								<valuemin>0</valuemin>
								<valuemax>3.98109</valuemax>
								<value>1</value>
							</parameter>
						</effect>
					</filter>
					<filter>
						<effect>
							<name>Audio Pan</name>
							<effectid>audiopan</effectid>
							<effectcategory>audiopan</effectcategory>
							<effecttype>audiopan</effecttype>
							<mediatype>audio</mediatype>
							<parameter>
								<name>Pan</name>
								<parameterid>pan</parameterid>
								<valuemin>-1</valuemin>
								<valuemax>1</valuemax>
								<value>0</value>
							</parameter>
						</effect>
					</filter>
					<sourcetrack>
						<mediatype>audio</mediatype>
						<trackindex>3</trackindex>
					</sourcetrack>
					<link>
						<linkclipref>010_08_01_B</linkclipref>
						<mediatype>video</mediatype>
						<trackindex>1</trackindex>
						<clipindex>55</clipindex>
					</link>
					<link>
						<linkclipref>010_08_01_B2</linkclipref>
						<mediatype>audio</mediatype>
						<trackindex>1</trackindex>
						<clipindex>55</clipindex>
					</link>
					<link>
						<linkclipref>010_08_01_B3</linkclipref>
						<mediatype>audio</mediatype>
						<trackindex>2</trackindex>
						<clipindex>55</clipindex>
					</link>
					<link>
						<linkclipref>010_08_01_B4</linkclipref>
						<mediatype>audio</mediatype>
						<trackindex>3</trackindex>
						<clipindex>53</clipindex>
					</link>
					<link>
						<linkclipref>010_08_01_B5</linkclipref>
						<mediatype>audio</mediatype>
						<trackindex>4</trackindex>
						<clipindex>29</clipindex>
					</link>
					<itemhistory>
						<uuid>EF7A8597-8770-43E5-8342-7B6081A62519</uuid>
					</itemhistory>
				</clipitem>
				<clipitem id="010_08_02_B4">
					<name>010_08_02_B</name>
					<duration>495</duration>
					<rate>
						<ntsc>FALSE</ntsc>
						<timebase>24</timebase>
					</rate>
					<in>0</in>
					<out>495</out>
					<start>32045</start>
					<end>32540</end>
					<subframeoffset>0</subframeoffset>
					<enabled>TRUE</enabled>
					<masterclipid>010_08_02_B1</masterclipid>
					<logginginfo>
						<scene/>
						<shottake/>
						<lognote/>
						<good>FALSE</good>
					</logginginfo>
					<labels>
						<label2/>
					</labels>
					<comments>
						<mastercomment1/>
						<mastercomment2/>
						<mastercomment3/>
						<mastercomment4/>
					</comments>
					<file id="B002C008_130101_R1WX"/>
					<filter>
						<effect>
							<name>Audio Levels</name>
							<effectid>audiolevels</effectid>
							<effectcategory>audiolevels</effectcategory>
							<effecttype>audiolevels</effecttype>
							<mediatype>audio</mediatype>
							<parameter>
								<name>Level</name>
								<parameterid>level</parameterid>
								<valuemin>0</valuemin>
								<valuemax>3.98109</valuemax>
								<value>1</value>
							</parameter>
						</effect>
					</filter>
					<filter>
						<effect>
							<name>Audio Pan</name>
							<effectid>audiopan</effectid>
							<effectcategory>audiopan</effectcategory>
							<effecttype>audiopan</effecttype>
							<mediatype>audio</mediatype>
							<parameter>
								<name>Pan</name>
								<parameterid>pan</parameterid>
								<valuemin>-1</valuemin>
								<valuemax>1</valuemax>
								<value>0</value>
							</parameter>
						</effect>
					</filter>
					<sourcetrack>
						<mediatype>audio</mediatype>
						<trackindex>3</trackindex>
					</sourcetrack>
					<link>
						<linkclipref>010_08_02_B</linkclipref>
						<mediatype>video</mediatype>
						<trackindex>1</trackindex>
						<clipindex>56</clipindex>
					</link>
					<link>
						<linkclipref>010_08_02_B2</linkclipref>
						<mediatype>audio</mediatype>
						<trackindex>1</trackindex>
						<clipindex>56</clipindex>
					</link>
					<link>
						<linkclipref>010_08_02_B3</linkclipref>
						<mediatype>audio</mediatype>
						<trackindex>2</trackindex>
						<clipindex>56</clipindex>
					</link>
					<link>
						<linkclipref>010_08_02_B4</linkclipref>
						<mediatype>audio</mediatype>
						<trackindex>3</trackindex>
						<clipindex>54</clipindex>
					</link>
					<link>
						<linkclipref>010_08_02_B5</linkclipref>
						<mediatype>audio</mediatype>
						<trackindex>4</trackindex>
						<clipindex>30</clipindex>
					</link>
					<itemhistory>
						<uuid>B7BC3B86-3018-4ACA-95E5-E827C6237343</uuid>
					</itemhistory>
				</clipitem>
				<clipitem id="010_08_03_B_OK4">
					<name>010_08_03_B_OK</name>
					<duration>483</duration>
					<rate>
						<ntsc>FALSE</ntsc>
						<timebase>24</timebase>
					</rate>
					<in>0</in>
					<out>483</out>
					<start>32540</start>
					<end>33023</end>
					<subframeoffset>0</subframeoffset>
					<enabled>TRUE</enabled>
					<masterclipid>010_08_03_B_OK1</masterclipid>
					<logginginfo>
						<scene/>
						<shottake/>
						<lognote/>
						<good>FALSE</good>
					</logginginfo>
					<labels>
						<label2/>
					</labels>
					<comments>
						<mastercomment1/>
						<mastercomment2/>
						<mastercomment3/>
						<mastercomment4/>
					</comments>
					<file id="B002C009_130101_R1WX"/>
					<filter>
						<effect>
							<name>Audio Levels</name>
							<effectid>audiolevels</effectid>
							<effectcategory>audiolevels</effectcategory>
							<effecttype>audiolevels</effecttype>
							<mediatype>audio</mediatype>
							<parameter>
								<name>Level</name>
								<parameterid>level</parameterid>
								<valuemin>0</valuemin>
								<valuemax>3.98109</valuemax>
								<value>1</value>
							</parameter>
						</effect>
					</filter>
					<filter>
						<effect>
							<name>Audio Pan</name>
							<effectid>audiopan</effectid>
							<effectcategory>audiopan</effectcategory>
							<effecttype>audiopan</effecttype>
							<mediatype>audio</mediatype>
							<parameter>
								<name>Pan</name>
								<parameterid>pan</parameterid>
								<valuemin>-1</valuemin>
								<valuemax>1</valuemax>
								<value>0</value>
							</parameter>
						</effect>
					</filter>
					<sourcetrack>
						<mediatype>audio</mediatype>
						<trackindex>3</trackindex>
					</sourcetrack>
					<link>
						<linkclipref>010_08_03_B_OK</linkclipref>
						<mediatype>video</mediatype>
						<trackindex>1</trackindex>
						<clipindex>57</clipindex>
					</link>
					<link>
						<linkclipref>010_08_03_B_OK2</linkclipref>
						<mediatype>audio</mediatype>
						<trackindex>1</trackindex>
						<clipindex>57</clipindex>
					</link>
					<link>
						<linkclipref>010_08_03_B_OK3</linkclipref>
						<mediatype>audio</mediatype>
						<trackindex>2</trackindex>
						<clipindex>57</clipindex>
					</link>
					<link>
						<linkclipref>010_08_03_B_OK4</linkclipref>
						<mediatype>audio</mediatype>
						<trackindex>3</trackindex>
						<clipindex>55</clipindex>
					</link>
					<link>
						<linkclipref>010_08_03_B_OK5</linkclipref>
						<mediatype>audio</mediatype>
						<trackindex>4</trackindex>
						<clipindex>31</clipindex>
					</link>
					<itemhistory>
						<uuid>BAEA8D49-5ACA-4A60-99A5-B11A9BCE8841</uuid>
					</itemhistory>
				</clipitem>
				<clipitem id="010_08_04_B_OK4">
					<name>010_08_04_B_OK</name>
					<duration>433</duration>
					<rate>
						<ntsc>FALSE</ntsc>
						<timebase>24</timebase>
					</rate>
					<in>77</in>
					<out>433</out>
					<start>33023</start>
					<end>33379</end>
					<subframeoffset>0</subframeoffset>
					<enabled>TRUE</enabled>
					<masterclipid>010_08_04_B_OK1</masterclipid>
					<logginginfo>
						<scene/>
						<shottake/>
						<lognote/>
						<good>FALSE</good>
					</logginginfo>
					<labels>
						<label2/>
					</labels>
					<comments>
						<mastercomment1/>
						<mastercomment2/>
						<mastercomment3/>
						<mastercomment4/>
					</comments>
					<file id="B002C010_130101_R1WX"/>
					<filter>
						<effect>
							<name>Audio Levels</name>
							<effectid>audiolevels</effectid>
							<effectcategory>audiolevels</effectcategory>
							<effecttype>audiolevels</effecttype>
							<mediatype>audio</mediatype>
							<parameter>
								<name>Level</name>
								<parameterid>level</parameterid>
								<valuemin>0</valuemin>
								<valuemax>3.98109</valuemax>
								<value>1</value>
							</parameter>
						</effect>
					</filter>
					<filter>
						<effect>
							<name>Audio Pan</name>
							<effectid>audiopan</effectid>
							<effectcategory>audiopan</effectcategory>
							<effecttype>audiopan</effecttype>
							<mediatype>audio</mediatype>
							<parameter>
								<name>Pan</name>
								<parameterid>pan</parameterid>
								<valuemin>-1</valuemin>
								<valuemax>1</valuemax>
								<value>0</value>
							</parameter>
						</effect>
					</filter>
					<sourcetrack>
						<mediatype>audio</mediatype>
						<trackindex>3</trackindex>
					</sourcetrack>
					<link>
						<linkclipref>010_08_04_B_OK</linkclipref>
						<mediatype>video</mediatype>
						<trackindex>1</trackindex>
						<clipindex>58</clipindex>
					</link>
					<link>
						<linkclipref>010_08_04_B_OK2</linkclipref>
						<mediatype>audio</mediatype>
						<trackindex>1</trackindex>
						<clipindex>58</clipindex>
					</link>
					<link>
						<linkclipref>010_08_04_B_OK3</linkclipref>
						<mediatype>audio</mediatype>
						<trackindex>2</trackindex>
						<clipindex>58</clipindex>
					</link>
					<link>
						<linkclipref>010_08_04_B_OK4</linkclipref>
						<mediatype>audio</mediatype>
						<trackindex>3</trackindex>
						<clipindex>56</clipindex>
					</link>
					<link>
						<linkclipref>010_08_04_B_OK5</linkclipref>
						<mediatype>audio</mediatype>
						<trackindex>4</trackindex>
						<clipindex>32</clipindex>
					</link>
					<itemhistory>
						<uuid>A748062F-C68F-4A41-87CA-E093595B11BC</uuid>
					</itemhistory>
				</clipitem>
				<clipitem id="010_09_01_A4">
					<name>010_09_01_A</name>
					<duration>422</duration>
					<rate>
						<ntsc>FALSE</ntsc>
						<timebase>24</timebase>
					</rate>
					<in>0</in>
					<out>422</out>
					<start>33379</start>
					<end>33801</end>
					<subframeoffset>0</subframeoffset>
					<enabled>TRUE</enabled>
					<masterclipid>010_09_01_A1</masterclipid>
					<logginginfo>
						<scene/>
						<shottake/>
						<lognote/>
						<good>FALSE</good>
					</logginginfo>
					<labels>
						<label2/>
					</labels>
					<comments>
						<mastercomment1/>
						<mastercomment2/>
						<mastercomment3/>
						<mastercomment4/>
					</comments>
					<file id="A002C019_221211_R03K"/>
					<filter>
						<effect>
							<name>Audio Levels</name>
							<effectid>audiolevels</effectid>
							<effectcategory>audiolevels</effectcategory>
							<effecttype>audiolevels</effecttype>
							<mediatype>audio</mediatype>
							<parameter>
								<name>Level</name>
								<parameterid>level</parameterid>
								<valuemin>0</valuemin>
								<valuemax>3.98109</valuemax>
								<value>1</value>
							</parameter>
						</effect>
					</filter>
					<filter>
						<effect>
							<name>Audio Pan</name>
							<effectid>audiopan</effectid>
							<effectcategory>audiopan</effectcategory>
							<effecttype>audiopan</effecttype>
							<mediatype>audio</mediatype>
							<parameter>
								<name>Pan</name>
								<parameterid>pan</parameterid>
								<valuemin>-1</valuemin>
								<valuemax>1</valuemax>
								<value>0</value>
							</parameter>
						</effect>
					</filter>
					<sourcetrack>
						<mediatype>audio</mediatype>
						<trackindex>3</trackindex>
					</sourcetrack>
					<link>
						<linkclipref>010_09_01_A</linkclipref>
						<mediatype>video</mediatype>
						<trackindex>1</trackindex>
						<clipindex>59</clipindex>
					</link>
					<link>
						<linkclipref>010_09_01_A2</linkclipref>
						<mediatype>audio</mediatype>
						<trackindex>1</trackindex>
						<clipindex>59</clipindex>
					</link>
					<link>
						<linkclipref>010_09_01_A3</linkclipref>
						<mediatype>audio</mediatype>
						<trackindex>2</trackindex>
						<clipindex>59</clipindex>
					</link>
					<link>
						<linkclipref>010_09_01_A4</linkclipref>
						<mediatype>audio</mediatype>
						<trackindex>3</trackindex>
						<clipindex>57</clipindex>
					</link>
					<link>
						<linkclipref>010_09_01_A5</linkclipref>
						<mediatype>audio</mediatype>
						<trackindex>4</trackindex>
						<clipindex>33</clipindex>
					</link>
					<itemhistory>
						<uuid>2D942923-F777-41AE-8D3F-BE02247BEE37</uuid>
					</itemhistory>
				</clipitem>
				<clipitem id="010_09_02_A4">
					<name>010_09_02_A</name>
					<duration>289</duration>
					<rate>
						<ntsc>FALSE</ntsc>
						<timebase>24</timebase>
					</rate>
					<in>0</in>
					<out>289</out>
					<start>33801</start>
					<end>34090</end>
					<subframeoffset>0</subframeoffset>
					<enabled>TRUE</enabled>
					<masterclipid>010_09_02_A1</masterclipid>
					<logginginfo>
						<scene/>
						<shottake/>
						<lognote/>
						<good>FALSE</good>
					</logginginfo>
					<labels>
						<label2/>
					</labels>
					<comments>
						<mastercomment1/>
						<mastercomment2/>
						<mastercomment3/>
						<mastercomment4/>
					</comments>
					<file id="A002C020_221211_R03K"/>
					<filter>
						<effect>
							<name>Audio Levels</name>
							<effectid>audiolevels</effectid>
							<effectcategory>audiolevels</effectcategory>
							<effecttype>audiolevels</effecttype>
							<mediatype>audio</mediatype>
							<parameter>
								<name>Level</name>
								<parameterid>level</parameterid>
								<valuemin>0</valuemin>
								<valuemax>3.98109</valuemax>
								<value>1</value>
							</parameter>
						</effect>
					</filter>
					<filter>
						<effect>
							<name>Audio Pan</name>
							<effectid>audiopan</effectid>
							<effectcategory>audiopan</effectcategory>
							<effecttype>audiopan</effecttype>
							<mediatype>audio</mediatype>
							<parameter>
								<name>Pan</name>
								<parameterid>pan</parameterid>
								<valuemin>-1</valuemin>
								<valuemax>1</valuemax>
								<value>0</value>
							</parameter>
						</effect>
					</filter>
					<sourcetrack>
						<mediatype>audio</mediatype>
						<trackindex>3</trackindex>
					</sourcetrack>
					<link>
						<linkclipref>010_09_02_A</linkclipref>
						<mediatype>video</mediatype>
						<trackindex>1</trackindex>
						<clipindex>60</clipindex>
					</link>
					<link>
						<linkclipref>010_09_02_A2</linkclipref>
						<mediatype>audio</mediatype>
						<trackindex>1</trackindex>
						<clipindex>60</clipindex>
					</link>
					<link>
						<linkclipref>010_09_02_A3</linkclipref>
						<mediatype>audio</mediatype>
						<trackindex>2</trackindex>
						<clipindex>60</clipindex>
					</link>
					<link>
						<linkclipref>010_09_02_A4</linkclipref>
						<mediatype>audio</mediatype>
						<trackindex>3</trackindex>
						<clipindex>58</clipindex>
					</link>
					<link>
						<linkclipref>010_09_02_A5</linkclipref>
						<mediatype>audio</mediatype>
						<trackindex>4</trackindex>
						<clipindex>34</clipindex>
					</link>
					<itemhistory>
						<uuid>35B9E41E-3A8C-499A-A59B-4EF8D4F5932B</uuid>
					</itemhistory>
				</clipitem>
				<clipitem id="010_09_03_A4">
					<name>010_09_03_A</name>
					<duration>221</duration>
					<rate>
						<ntsc>FALSE</ntsc>
						<timebase>24</timebase>
					</rate>
					<in>0</in>
					<out>221</out>
					<start>34090</start>
					<end>34311</end>
					<subframeoffset>0</subframeoffset>
					<enabled>TRUE</enabled>
					<masterclipid>010_09_03_A1</masterclipid>
					<logginginfo>
						<scene/>
						<shottake/>
						<lognote/>
						<good>FALSE</good>
					</logginginfo>
					<labels>
						<label2/>
					</labels>
					<comments>
						<mastercomment1/>
						<mastercomment2/>
						<mastercomment3/>
						<mastercomment4/>
					</comments>
					<file id="A002C021_221211_R03K"/>
					<filter>
						<effect>
							<name>Audio Levels</name>
							<effectid>audiolevels</effectid>
							<effectcategory>audiolevels</effectcategory>
							<effecttype>audiolevels</effecttype>
							<mediatype>audio</mediatype>
							<parameter>
								<name>Level</name>
								<parameterid>level</parameterid>
								<valuemin>0</valuemin>
								<valuemax>3.98109</valuemax>
								<value>1</value>
							</parameter>
						</effect>
					</filter>
					<filter>
						<effect>
							<name>Audio Pan</name>
							<effectid>audiopan</effectid>
							<effectcategory>audiopan</effectcategory>
							<effecttype>audiopan</effecttype>
							<mediatype>audio</mediatype>
							<parameter>
								<name>Pan</name>
								<parameterid>pan</parameterid>
								<valuemin>-1</valuemin>
								<valuemax>1</valuemax>
								<value>0</value>
							</parameter>
						</effect>
					</filter>
					<sourcetrack>
						<mediatype>audio</mediatype>
						<trackindex>3</trackindex>
					</sourcetrack>
					<link>
						<linkclipref>010_09_03_A</linkclipref>
						<mediatype>video</mediatype>
						<trackindex>1</trackindex>
						<clipindex>61</clipindex>
					</link>
					<link>
						<linkclipref>010_09_03_A2</linkclipref>
						<mediatype>audio</mediatype>
						<trackindex>1</trackindex>
						<clipindex>61</clipindex>
					</link>
					<link>
						<linkclipref>010_09_03_A3</linkclipref>
						<mediatype>audio</mediatype>
						<trackindex>2</trackindex>
						<clipindex>61</clipindex>
					</link>
					<link>
						<linkclipref>010_09_03_A4</linkclipref>
						<mediatype>audio</mediatype>
						<trackindex>3</trackindex>
						<clipindex>59</clipindex>
					</link>
					<link>
						<linkclipref>010_09_03_A5</linkclipref>
						<mediatype>audio</mediatype>
						<trackindex>4</trackindex>
						<clipindex>35</clipindex>
					</link>
					<itemhistory>
						<uuid>D6F0C387-E585-452D-95D0-F7C46A5AD317</uuid>
					</itemhistory>
				</clipitem>
				<clipitem id="010_09_04_A_OK4">
					<name>010_09_04_A_OK</name>
					<duration>313</duration>
					<rate>
						<ntsc>FALSE</ntsc>
						<timebase>24</timebase>
					</rate>
					<in>89</in>
					<out>197</out>
					<start>34311</start>
					<end>34419</end>
					<subframeoffset>0</subframeoffset>
					<enabled>TRUE</enabled>
					<masterclipid>010_09_04_A_OK1</masterclipid>
					<logginginfo>
						<scene/>
						<shottake/>
						<lognote/>
						<good>FALSE</good>
					</logginginfo>
					<labels>
						<label2/>
					</labels>
					<comments>
						<mastercomment1/>
						<mastercomment2/>
						<mastercomment3/>
						<mastercomment4/>
					</comments>
					<file id="A002C022_221211_R03K"/>
					<filter>
						<effect>
							<name>Audio Levels</name>
							<effectid>audiolevels</effectid>
							<effectcategory>audiolevels</effectcategory>
							<effecttype>audiolevels</effecttype>
							<mediatype>audio</mediatype>
							<parameter>
								<name>Level</name>
								<parameterid>level</parameterid>
								<valuemin>0</valuemin>
								<valuemax>3.98109</valuemax>
								<value>1</value>
							</parameter>
						</effect>
					</filter>
					<filter>
						<effect>
							<name>Audio Pan</name>
							<effectid>audiopan</effectid>
							<effectcategory>audiopan</effectcategory>
							<effecttype>audiopan</effecttype>
							<mediatype>audio</mediatype>
							<parameter>
								<name>Pan</name>
								<parameterid>pan</parameterid>
								<valuemin>-1</valuemin>
								<valuemax>1</valuemax>
								<value>0</value>
							</parameter>
						</effect>
					</filter>
					<sourcetrack>
						<mediatype>audio</mediatype>
						<trackindex>3</trackindex>
					</sourcetrack>
					<link>
						<linkclipref>010_09_04_A_OK</linkclipref>
						<mediatype>video</mediatype>
						<trackindex>1</trackindex>
						<clipindex>62</clipindex>
					</link>
					<link>
						<linkclipref>010_09_04_A_OK2</linkclipref>
						<mediatype>audio</mediatype>
						<trackindex>1</trackindex>
						<clipindex>62</clipindex>
					</link>
					<link>
						<linkclipref>010_09_04_A_OK3</linkclipref>
						<mediatype>audio</mediatype>
						<trackindex>2</trackindex>
						<clipindex>62</clipindex>
					</link>
					<link>
						<linkclipref>010_09_04_A_OK4</linkclipref>
						<mediatype>audio</mediatype>
						<trackindex>3</trackindex>
						<clipindex>60</clipindex>
					</link>
					<link>
						<linkclipref>010_09_04_A_OK5</linkclipref>
						<mediatype>audio</mediatype>
						<trackindex>4</trackindex>
						<clipindex>36</clipindex>
					</link>
					<itemhistory>
						<uuid>EA47AE3E-0C23-4B7C-826C-ADB6E886868A</uuid>
					</itemhistory>
				</clipitem>
				<clipitem id="010_10_01_A4">
					<name>010_10_01_A</name>
					<duration>438</duration>
					<rate>
						<ntsc>FALSE</ntsc>
						<timebase>24</timebase>
					</rate>
					<in>0</in>
					<out>438</out>
					<start>34419</start>
					<end>34857</end>
					<subframeoffset>0</subframeoffset>
					<enabled>TRUE</enabled>
					<masterclipid>010_10_01_A1</masterclipid>
					<logginginfo>
						<scene/>
						<shottake/>
						<lognote/>
						<good>FALSE</good>
					</logginginfo>
					<labels>
						<label2/>
					</labels>
					<comments>
						<mastercomment1/>
						<mastercomment2/>
						<mastercomment3/>
						<mastercomment4/>
					</comments>
					<file id="A002C023_221211_R03K"/>
					<filter>
						<effect>
							<name>Audio Levels</name>
							<effectid>audiolevels</effectid>
							<effectcategory>audiolevels</effectcategory>
							<effecttype>audiolevels</effecttype>
							<mediatype>audio</mediatype>
							<parameter>
								<name>Level</name>
								<parameterid>level</parameterid>
								<valuemin>0</valuemin>
								<valuemax>3.98109</valuemax>
								<value>1</value>
							</parameter>
						</effect>
					</filter>
					<filter>
						<effect>
							<name>Audio Pan</name>
							<effectid>audiopan</effectid>
							<effectcategory>audiopan</effectcategory>
							<effecttype>audiopan</effecttype>
							<mediatype>audio</mediatype>
							<parameter>
								<name>Pan</name>
								<parameterid>pan</parameterid>
								<valuemin>-1</valuemin>
								<valuemax>1</valuemax>
								<value>0</value>
							</parameter>
						</effect>
					</filter>
					<sourcetrack>
						<mediatype>audio</mediatype>
						<trackindex>3</trackindex>
					</sourcetrack>
					<link>
						<linkclipref>010_10_01_A</linkclipref>
						<mediatype>video</mediatype>
						<trackindex>1</trackindex>
						<clipindex>63</clipindex>
					</link>
					<link>
						<linkclipref>010_10_01_A2</linkclipref>
						<mediatype>audio</mediatype>
						<trackindex>1</trackindex>
						<clipindex>63</clipindex>
					</link>
					<link>
						<linkclipref>010_10_01_A3</linkclipref>
						<mediatype>audio</mediatype>
						<trackindex>2</trackindex>
						<clipindex>63</clipindex>
					</link>
					<link>
						<linkclipref>010_10_01_A4</linkclipref>
						<mediatype>audio</mediatype>
						<trackindex>3</trackindex>
						<clipindex>61</clipindex>
					</link>
					<link>
						<linkclipref>010_10_01_A5</linkclipref>
						<mediatype>audio</mediatype>
						<trackindex>4</trackindex>
						<clipindex>37</clipindex>
					</link>
					<itemhistory>
						<uuid>AD09CA0C-8CE2-41D8-B1F1-77DBDFAA5917</uuid>
					</itemhistory>
				</clipitem>
				<clipitem id="010_10_02_A4">
					<name>010_10_02_A</name>
					<duration>428</duration>
					<rate>
						<ntsc>FALSE</ntsc>
						<timebase>24</timebase>
					</rate>
					<in>0</in>
					<out>428</out>
					<start>34857</start>
					<end>35285</end>
					<subframeoffset>0</subframeoffset>
					<enabled>TRUE</enabled>
					<masterclipid>010_10_02_A1</masterclipid>
					<logginginfo>
						<scene/>
						<shottake/>
						<lognote/>
						<good>FALSE</good>
					</logginginfo>
					<labels>
						<label2/>
					</labels>
					<comments>
						<mastercomment1/>
						<mastercomment2/>
						<mastercomment3/>
						<mastercomment4/>
					</comments>
					<file id="A002C024_221211_R03K"/>
					<filter>
						<effect>
							<name>Audio Levels</name>
							<effectid>audiolevels</effectid>
							<effectcategory>audiolevels</effectcategory>
							<effecttype>audiolevels</effecttype>
							<mediatype>audio</mediatype>
							<parameter>
								<name>Level</name>
								<parameterid>level</parameterid>
								<valuemin>0</valuemin>
								<valuemax>3.98109</valuemax>
								<value>1</value>
							</parameter>
						</effect>
					</filter>
					<filter>
						<effect>
							<name>Audio Pan</name>
							<effectid>audiopan</effectid>
							<effectcategory>audiopan</effectcategory>
							<effecttype>audiopan</effecttype>
							<mediatype>audio</mediatype>
							<parameter>
								<name>Pan</name>
								<parameterid>pan</parameterid>
								<valuemin>-1</valuemin>
								<valuemax>1</valuemax>
								<value>0</value>
							</parameter>
						</effect>
					</filter>
					<sourcetrack>
						<mediatype>audio</mediatype>
						<trackindex>3</trackindex>
					</sourcetrack>
					<link>
						<linkclipref>010_10_02_A</linkclipref>
						<mediatype>video</mediatype>
						<trackindex>1</trackindex>
						<clipindex>64</clipindex>
					</link>
					<link>
						<linkclipref>010_10_02_A2</linkclipref>
						<mediatype>audio</mediatype>
						<trackindex>1</trackindex>
						<clipindex>64</clipindex>
					</link>
					<link>
						<linkclipref>010_10_02_A3</linkclipref>
						<mediatype>audio</mediatype>
						<trackindex>2</trackindex>
						<clipindex>64</clipindex>
					</link>
					<link>
						<linkclipref>010_10_02_A4</linkclipref>
						<mediatype>audio</mediatype>
						<trackindex>3</trackindex>
						<clipindex>62</clipindex>
					</link>
					<link>
						<linkclipref>010_10_02_A5</linkclipref>
						<mediatype>audio</mediatype>
						<trackindex>4</trackindex>
						<clipindex>38</clipindex>
					</link>
					<itemhistory>
						<uuid>FA13F5B4-D4B6-4318-A5C7-A0FFEFD1481D</uuid>
					</itemhistory>
				</clipitem>
				<clipitem id="010_10_03_A_OK4">
					<name>010_10_03_A_OK</name>
					<duration>223</duration>
					<rate>
						<ntsc>FALSE</ntsc>
						<timebase>24</timebase>
					</rate>
					<in>68</in>
					<out>106</out>
					<start>35285</start>
					<end>35323</end>
					<subframeoffset>0</subframeoffset>
					<enabled>TRUE</enabled>
					<masterclipid>010_10_03_A_OK1</masterclipid>
					<logginginfo>
						<scene/>
						<shottake/>
						<lognote/>
						<good>FALSE</good>
					</logginginfo>
					<labels>
						<label2/>
					</labels>
					<comments>
						<mastercomment1/>
						<mastercomment2/>
						<mastercomment3/>
						<mastercomment4/>
					</comments>
					<file id="A002C025_221211_R03K"/>
					<filter>
						<effect>
							<name>Audio Levels</name>
							<effectid>audiolevels</effectid>
							<effectcategory>audiolevels</effectcategory>
							<effecttype>audiolevels</effecttype>
							<mediatype>audio</mediatype>
							<parameter>
								<name>Level</name>
								<parameterid>level</parameterid>
								<valuemin>0</valuemin>
								<valuemax>3.98109</valuemax>
								<value>1</value>
							</parameter>
						</effect>
					</filter>
					<filter>
						<effect>
							<name>Audio Pan</name>
							<effectid>audiopan</effectid>
							<effectcategory>audiopan</effectcategory>
							<effecttype>audiopan</effecttype>
							<mediatype>audio</mediatype>
							<parameter>
								<name>Pan</name>
								<parameterid>pan</parameterid>
								<valuemin>-1</valuemin>
								<valuemax>1</valuemax>
								<value>0</value>
							</parameter>
						</effect>
					</filter>
					<sourcetrack>
						<mediatype>audio</mediatype>
						<trackindex>3</trackindex>
					</sourcetrack>
					<link>
						<linkclipref>010_10_03_A_OK</linkclipref>
						<mediatype>video</mediatype>
						<trackindex>1</trackindex>
						<clipindex>65</clipindex>
					</link>
					<link>
						<linkclipref>010_10_03_A_OK2</linkclipref>
						<mediatype>audio</mediatype>
						<trackindex>1</trackindex>
						<clipindex>65</clipindex>
					</link>
					<link>
						<linkclipref>010_10_03_A_OK3</linkclipref>
						<mediatype>audio</mediatype>
						<trackindex>2</trackindex>
						<clipindex>65</clipindex>
					</link>
					<link>
						<linkclipref>010_10_03_A_OK4</linkclipref>
						<mediatype>audio</mediatype>
						<trackindex>3</trackindex>
						<clipindex>63</clipindex>
					</link>
					<link>
						<linkclipref>010_10_03_A_OK5</linkclipref>
						<mediatype>audio</mediatype>
						<trackindex>4</trackindex>
						<clipindex>39</clipindex>
					</link>
					<itemhistory>
						<uuid>9AD1CF28-550B-40D7-A6D4-008CD978DCD3</uuid>
					</itemhistory>
				</clipitem>
				<clipitem id="010_11_01_A4">
					<name>010_11_01_A</name>
					<duration>358</duration>
					<rate>
						<ntsc>FALSE</ntsc>
						<timebase>24</timebase>
					</rate>
					<in>0</in>
					<out>358</out>
					<start>35323</start>
					<end>35681</end>
					<subframeoffset>0</subframeoffset>
					<enabled>TRUE</enabled>
					<masterclipid>010_11_01_A1</masterclipid>
					<logginginfo>
						<scene/>
						<shottake/>
						<lognote/>
						<good>FALSE</good>
					</logginginfo>
					<labels>
						<label2/>
					</labels>
					<comments>
						<mastercomment1/>
						<mastercomment2/>
						<mastercomment3/>
						<mastercomment4/>
					</comments>
					<file id="A002C026_221211_R03K"/>
					<filter>
						<effect>
							<name>Audio Levels</name>
							<effectid>audiolevels</effectid>
							<effectcategory>audiolevels</effectcategory>
							<effecttype>audiolevels</effecttype>
							<mediatype>audio</mediatype>
							<parameter>
								<name>Level</name>
								<parameterid>level</parameterid>
								<valuemin>0</valuemin>
								<valuemax>3.98109</valuemax>
								<value>1</value>
							</parameter>
						</effect>
					</filter>
					<filter>
						<effect>
							<name>Audio Pan</name>
							<effectid>audiopan</effectid>
							<effectcategory>audiopan</effectcategory>
							<effecttype>audiopan</effecttype>
							<mediatype>audio</mediatype>
							<parameter>
								<name>Pan</name>
								<parameterid>pan</parameterid>
								<valuemin>-1</valuemin>
								<valuemax>1</valuemax>
								<value>0</value>
							</parameter>
						</effect>
					</filter>
					<sourcetrack>
						<mediatype>audio</mediatype>
						<trackindex>3</trackindex>
					</sourcetrack>
					<link>
						<linkclipref>010_11_01_A</linkclipref>
						<mediatype>video</mediatype>
						<trackindex>1</trackindex>
						<clipindex>66</clipindex>
					</link>
					<link>
						<linkclipref>010_11_01_A2</linkclipref>
						<mediatype>audio</mediatype>
						<trackindex>1</trackindex>
						<clipindex>66</clipindex>
					</link>
					<link>
						<linkclipref>010_11_01_A3</linkclipref>
						<mediatype>audio</mediatype>
						<trackindex>2</trackindex>
						<clipindex>66</clipindex>
					</link>
					<link>
						<linkclipref>010_11_01_A4</linkclipref>
						<mediatype>audio</mediatype>
						<trackindex>3</trackindex>
						<clipindex>64</clipindex>
					</link>
					<link>
						<linkclipref>010_11_01_A5</linkclipref>
						<mediatype>audio</mediatype>
						<trackindex>4</trackindex>
						<clipindex>40</clipindex>
					</link>
					<itemhistory>
						<uuid>0BAD6889-0DE1-4321-84E9-7576B768DFCB</uuid>
					</itemhistory>
				</clipitem>
				<clipitem id="010_11_02_A_OK4">
					<name>010_11_02_A_OK</name>
					<duration>415</duration>
					<rate>
						<ntsc>FALSE</ntsc>
						<timebase>24</timebase>
					</rate>
					<in>146</in>
					<out>242</out>
					<start>35681</start>
					<end>35777</end>
					<subframeoffset>0</subframeoffset>
					<enabled>TRUE</enabled>
					<masterclipid>010_11_02_A_OK1</masterclipid>
					<logginginfo>
						<scene/>
						<shottake/>
						<lognote/>
						<good>FALSE</good>
					</logginginfo>
					<labels>
						<label2/>
					</labels>
					<comments>
						<mastercomment1/>
						<mastercomment2/>
						<mastercomment3/>
						<mastercomment4/>
					</comments>
					<file id="A002C027_221211_R03K"/>
					<filter>
						<effect>
							<name>Audio Levels</name>
							<effectid>audiolevels</effectid>
							<effectcategory>audiolevels</effectcategory>
							<effecttype>audiolevels</effecttype>
							<mediatype>audio</mediatype>
							<parameter>
								<name>Level</name>
								<parameterid>level</parameterid>
								<valuemin>0</valuemin>
								<valuemax>3.98109</valuemax>
								<value>1</value>
							</parameter>
						</effect>
					</filter>
					<filter>
						<effect>
							<name>Audio Pan</name>
							<effectid>audiopan</effectid>
							<effectcategory>audiopan</effectcategory>
							<effecttype>audiopan</effecttype>
							<mediatype>audio</mediatype>
							<parameter>
								<name>Pan</name>
								<parameterid>pan</parameterid>
								<valuemin>-1</valuemin>
								<valuemax>1</valuemax>
								<value>0</value>
							</parameter>
						</effect>
					</filter>
					<sourcetrack>
						<mediatype>audio</mediatype>
						<trackindex>3</trackindex>
					</sourcetrack>
					<link>
						<linkclipref>010_11_02_A_OK</linkclipref>
						<mediatype>video</mediatype>
						<trackindex>1</trackindex>
						<clipindex>67</clipindex>
					</link>
					<link>
						<linkclipref>010_11_02_A_OK2</linkclipref>
						<mediatype>audio</mediatype>
						<trackindex>1</trackindex>
						<clipindex>67</clipindex>
					</link>
					<link>
						<linkclipref>010_11_02_A_OK3</linkclipref>
						<mediatype>audio</mediatype>
						<trackindex>2</trackindex>
						<clipindex>67</clipindex>
					</link>
					<link>
						<linkclipref>010_11_02_A_OK4</linkclipref>
						<mediatype>audio</mediatype>
						<trackindex>3</trackindex>
						<clipindex>65</clipindex>
					</link>
					<link>
						<linkclipref>010_11_02_A_OK5</linkclipref>
						<mediatype>audio</mediatype>
						<trackindex>4</trackindex>
						<clipindex>41</clipindex>
					</link>
					<itemhistory>
						<uuid>80F73F55-8782-4D1E-B19B-1DCE59E4FB8A</uuid>
					</itemhistory>
				</clipitem>
				<clipitem id="010_12_01_A_OK4">
					<name>010_12_01_A_OK</name>
					<duration>853</duration>
					<rate>
						<ntsc>FALSE</ntsc>
						<timebase>24</timebase>
					</rate>
					<in>616</in>
					<out>853</out>
					<start>35777</start>
					<end>36014</end>
					<subframeoffset>0</subframeoffset>
					<enabled>TRUE</enabled>
					<masterclipid>010_12_01_A_OK1</masterclipid>
					<logginginfo>
						<scene/>
						<shottake/>
						<lognote/>
						<good>FALSE</good>
					</logginginfo>
					<labels>
						<label2/>
					</labels>
					<comments>
						<mastercomment1/>
						<mastercomment2/>
						<mastercomment3/>
						<mastercomment4/>
					</comments>
					<file id="A002C028_221211_R03K"/>
					<filter>
						<effect>
							<name>Audio Levels</name>
							<effectid>audiolevels</effectid>
							<effectcategory>audiolevels</effectcategory>
							<effecttype>audiolevels</effecttype>
							<mediatype>audio</mediatype>
							<parameter>
								<name>Level</name>
								<parameterid>level</parameterid>
								<valuemin>0</valuemin>
								<valuemax>3.98109</valuemax>
								<value>1</value>
							</parameter>
						</effect>
					</filter>
					<filter>
						<effect>
							<name>Audio Pan</name>
							<effectid>audiopan</effectid>
							<effectcategory>audiopan</effectcategory>
							<effecttype>audiopan</effecttype>
							<mediatype>audio</mediatype>
							<parameter>
								<name>Pan</name>
								<parameterid>pan</parameterid>
								<valuemin>-1</valuemin>
								<valuemax>1</valuemax>
								<value>0</value>
							</parameter>
						</effect>
					</filter>
					<sourcetrack>
						<mediatype>audio</mediatype>
						<trackindex>3</trackindex>
					</sourcetrack>
					<link>
						<linkclipref>010_12_01_A_OK</linkclipref>
						<mediatype>video</mediatype>
						<trackindex>1</trackindex>
						<clipindex>68</clipindex>
					</link>
					<link>
						<linkclipref>010_12_01_A_OK2</linkclipref>
						<mediatype>audio</mediatype>
						<trackindex>1</trackindex>
						<clipindex>68</clipindex>
					</link>
					<link>
						<linkclipref>010_12_01_A_OK3</linkclipref>
						<mediatype>audio</mediatype>
						<trackindex>2</trackindex>
						<clipindex>68</clipindex>
					</link>
					<link>
						<linkclipref>010_12_01_A_OK4</linkclipref>
						<mediatype>audio</mediatype>
						<trackindex>3</trackindex>
						<clipindex>66</clipindex>
					</link>
					<link>
						<linkclipref>010_12_01_A_OK5</linkclipref>
						<mediatype>audio</mediatype>
						<trackindex>4</trackindex>
						<clipindex>42</clipindex>
					</link>
					<itemhistory>
						<uuid>3669DAC2-DFCE-4459-ADB1-BD035A47556D</uuid>
					</itemhistory>
				</clipitem>
				<clipitem id="010_12_01_B_OK4">
					<name>010_12_01_B_OK</name>
					<duration>816</duration>
					<rate>
						<ntsc>FALSE</ntsc>
						<timebase>24</timebase>
					</rate>
					<in>0</in>
					<out>816</out>
					<start>36014</start>
					<end>36830</end>
					<subframeoffset>0</subframeoffset>
					<enabled>TRUE</enabled>
					<masterclipid>010_12_01_B_OK1</masterclipid>
					<logginginfo>
						<scene/>
						<shottake/>
						<lognote/>
						<good>FALSE</good>
					</logginginfo>
					<labels>
						<label2/>
					</labels>
					<comments>
						<mastercomment1/>
						<mastercomment2/>
						<mastercomment3/>
						<mastercomment4/>
					</comments>
					<file id="B002C011_130101_R1WX"/>
					<filter>
						<effect>
							<name>Audio Levels</name>
							<effectid>audiolevels</effectid>
							<effectcategory>audiolevels</effectcategory>
							<effecttype>audiolevels</effecttype>
							<mediatype>audio</mediatype>
							<parameter>
								<name>Level</name>
								<parameterid>level</parameterid>
								<valuemin>0</valuemin>
								<valuemax>3.98109</valuemax>
								<value>1</value>
							</parameter>
						</effect>
					</filter>
					<filter>
						<effect>
							<name>Audio Pan</name>
							<effectid>audiopan</effectid>
							<effectcategory>audiopan</effectcategory>
							<effecttype>audiopan</effecttype>
							<mediatype>audio</mediatype>
							<parameter>
								<name>Pan</name>
								<parameterid>pan</parameterid>
								<valuemin>-1</valuemin>
								<valuemax>1</valuemax>
								<value>0</value>
							</parameter>
						</effect>
					</filter>
					<sourcetrack>
						<mediatype>audio</mediatype>
						<trackindex>3</trackindex>
					</sourcetrack>
					<link>
						<linkclipref>010_12_01_B_OK</linkclipref>
						<mediatype>video</mediatype>
						<trackindex>1</trackindex>
						<clipindex>69</clipindex>
					</link>
					<link>
						<linkclipref>010_12_01_B_OK2</linkclipref>
						<mediatype>audio</mediatype>
						<trackindex>1</trackindex>
						<clipindex>69</clipindex>
					</link>
					<link>
						<linkclipref>010_12_01_B_OK3</linkclipref>
						<mediatype>audio</mediatype>
						<trackindex>2</trackindex>
						<clipindex>69</clipindex>
					</link>
					<link>
						<linkclipref>010_12_01_B_OK4</linkclipref>
						<mediatype>audio</mediatype>
						<trackindex>3</trackindex>
						<clipindex>67</clipindex>
					</link>
					<link>
						<linkclipref>010_12_01_B_OK5</linkclipref>
						<mediatype>audio</mediatype>
						<trackindex>4</trackindex>
						<clipindex>43</clipindex>
					</link>
					<itemhistory>
						<uuid>1F6B599D-DCEC-498F-9D5B-C8D10B987D7C</uuid>
					</itemhistory>
				</clipitem>
				<clipitem id="010_12_02_A_OK4">
					<name>010_12_02_A_OK</name>
					<duration>689</duration>
					<rate>
						<ntsc>FALSE</ntsc>
						<timebase>24</timebase>
					</rate>
					<in>128</in>
					<out>186</out>
					<start>36830</start>
					<end>36888</end>
					<subframeoffset>0</subframeoffset>
					<enabled>TRUE</enabled>
					<masterclipid>010_12_02_A_OK1</masterclipid>
					<logginginfo>
						<scene/>
						<shottake/>
						<lognote/>
						<good>FALSE</good>
					</logginginfo>
					<labels>
						<label2/>
					</labels>
					<comments>
						<mastercomment1/>
						<mastercomment2/>
						<mastercomment3/>
						<mastercomment4/>
					</comments>
					<file id="A003C001_221211_R03K"/>
					<filter>
						<effect>
							<name>Audio Levels</name>
							<effectid>audiolevels</effectid>
							<effectcategory>audiolevels</effectcategory>
							<effecttype>audiolevels</effecttype>
							<mediatype>audio</mediatype>
							<parameter>
								<name>Level</name>
								<parameterid>level</parameterid>
								<valuemin>0</valuemin>
								<valuemax>3.98109</valuemax>
								<value>1</value>
							</parameter>
						</effect>
					</filter>
					<filter>
						<effect>
							<name>Audio Pan</name>
							<effectid>audiopan</effectid>
							<effectcategory>audiopan</effectcategory>
							<effecttype>audiopan</effecttype>
							<mediatype>audio</mediatype>
							<parameter>
								<name>Pan</name>
								<parameterid>pan</parameterid>
								<valuemin>-1</valuemin>
								<valuemax>1</valuemax>
								<value>0</value>
							</parameter>
						</effect>
					</filter>
					<sourcetrack>
						<mediatype>audio</mediatype>
						<trackindex>3</trackindex>
					</sourcetrack>
					<link>
						<linkclipref>010_12_02_A_OK</linkclipref>
						<mediatype>video</mediatype>
						<trackindex>1</trackindex>
						<clipindex>70</clipindex>
					</link>
					<link>
						<linkclipref>010_12_02_A_OK2</linkclipref>
						<mediatype>audio</mediatype>
						<trackindex>1</trackindex>
						<clipindex>70</clipindex>
					</link>
					<link>
						<linkclipref>010_12_02_A_OK3</linkclipref>
						<mediatype>audio</mediatype>
						<trackindex>2</trackindex>
						<clipindex>70</clipindex>
					</link>
					<link>
						<linkclipref>010_12_02_A_OK4</linkclipref>
						<mediatype>audio</mediatype>
						<trackindex>3</trackindex>
						<clipindex>68</clipindex>
					</link>
					<link>
						<linkclipref>010_12_02_A_OK5</linkclipref>
						<mediatype>audio</mediatype>
						<trackindex>4</trackindex>
						<clipindex>44</clipindex>
					</link>
					<itemhistory>
						<uuid>538CC4A9-74E5-4E6C-B890-A94F415DA52B</uuid>
					</itemhistory>
				</clipitem>
				<clipitem id="010_12_02_B_OK4">
					<name>010_12_02_B_OK</name>
					<duration>679</duration>
					<rate>
						<ntsc>FALSE</ntsc>
						<timebase>24</timebase>
					</rate>
					<in>508</in>
					<out>565</out>
					<start>36888</start>
					<end>36945</end>
					<subframeoffset>0</subframeoffset>
					<enabled>TRUE</enabled>
					<masterclipid>010_12_02_B_OK1</masterclipid>
					<logginginfo>
						<scene/>
						<shottake/>
						<lognote/>
						<good>FALSE</good>
					</logginginfo>
					<labels>
						<label2/>
					</labels>
					<comments>
						<mastercomment1/>
						<mastercomment2/>
						<mastercomment3/>
						<mastercomment4/>
					</comments>
					<file id="B002C012_130101_R1WX"/>
					<filter>
						<effect>
							<name>Audio Levels</name>
							<effectid>audiolevels</effectid>
							<effectcategory>audiolevels</effectcategory>
							<effecttype>audiolevels</effecttype>
							<mediatype>audio</mediatype>
							<parameter>
								<name>Level</name>
								<parameterid>level</parameterid>
								<valuemin>0</valuemin>
								<valuemax>3.98109</valuemax>
								<value>1</value>
							</parameter>
						</effect>
					</filter>
					<filter>
						<effect>
							<name>Audio Pan</name>
							<effectid>audiopan</effectid>
							<effectcategory>audiopan</effectcategory>
							<effecttype>audiopan</effecttype>
							<mediatype>audio</mediatype>
							<parameter>
								<name>Pan</name>
								<parameterid>pan</parameterid>
								<valuemin>-1</valuemin>
								<valuemax>1</valuemax>
								<value>0</value>
							</parameter>
						</effect>
					</filter>
					<sourcetrack>
						<mediatype>audio</mediatype>
						<trackindex>3</trackindex>
					</sourcetrack>
					<link>
						<linkclipref>010_12_02_B_OK</linkclipref>
						<mediatype>video</mediatype>
						<trackindex>1</trackindex>
						<clipindex>71</clipindex>
					</link>
					<link>
						<linkclipref>010_12_02_B_OK2</linkclipref>
						<mediatype>audio</mediatype>
						<trackindex>1</trackindex>
						<clipindex>71</clipindex>
					</link>
					<link>
						<linkclipref>010_12_02_B_OK3</linkclipref>
						<mediatype>audio</mediatype>
						<trackindex>2</trackindex>
						<clipindex>71</clipindex>
					</link>
					<link>
						<linkclipref>010_12_02_B_OK4</linkclipref>
						<mediatype>audio</mediatype>
						<trackindex>3</trackindex>
						<clipindex>69</clipindex>
					</link>
					<link>
						<linkclipref>010_12_02_B_OK5</linkclipref>
						<mediatype>audio</mediatype>
						<trackindex>4</trackindex>
						<clipindex>45</clipindex>
					</link>
					<itemhistory>
						<uuid>A29EDF0A-325E-4035-AF57-37D358387D24</uuid>
					</itemhistory>
				</clipitem>
				<clipitem id="010_12_03_A4">
					<name>010_12_03_A</name>
					<duration>1553</duration>
					<rate>
						<ntsc>FALSE</ntsc>
						<timebase>24</timebase>
					</rate>
					<in>0</in>
					<out>1553</out>
					<start>36945</start>
					<end>38498</end>
					<subframeoffset>0</subframeoffset>
					<enabled>TRUE</enabled>
					<masterclipid>010_12_03_A1</masterclipid>
					<logginginfo>
						<scene/>
						<shottake/>
						<lognote/>
						<good>FALSE</good>
					</logginginfo>
					<labels>
						<label2/>
					</labels>
					<comments>
						<mastercomment1/>
						<mastercomment2/>
						<mastercomment3/>
						<mastercomment4/>
					</comments>
					<file id="A003C002_221211_R03K"/>
					<filter>
						<effect>
							<name>Audio Levels</name>
							<effectid>audiolevels</effectid>
							<effectcategory>audiolevels</effectcategory>
							<effecttype>audiolevels</effecttype>
							<mediatype>audio</mediatype>
							<parameter>
								<name>Level</name>
								<parameterid>level</parameterid>
								<valuemin>0</valuemin>
								<valuemax>3.98109</valuemax>
								<value>1</value>
							</parameter>
						</effect>
					</filter>
					<filter>
						<effect>
							<name>Audio Pan</name>
							<effectid>audiopan</effectid>
							<effectcategory>audiopan</effectcategory>
							<effecttype>audiopan</effecttype>
							<mediatype>audio</mediatype>
							<parameter>
								<name>Pan</name>
								<parameterid>pan</parameterid>
								<valuemin>-1</valuemin>
								<valuemax>1</valuemax>
								<value>0</value>
							</parameter>
						</effect>
					</filter>
					<sourcetrack>
						<mediatype>audio</mediatype>
						<trackindex>3</trackindex>
					</sourcetrack>
					<link>
						<linkclipref>010_12_03_A</linkclipref>
						<mediatype>video</mediatype>
						<trackindex>1</trackindex>
						<clipindex>72</clipindex>
					</link>
					<link>
						<linkclipref>010_12_03_A2</linkclipref>
						<mediatype>audio</mediatype>
						<trackindex>1</trackindex>
						<clipindex>72</clipindex>
					</link>
					<link>
						<linkclipref>010_12_03_A3</linkclipref>
						<mediatype>audio</mediatype>
						<trackindex>2</trackindex>
						<clipindex>72</clipindex>
					</link>
					<link>
						<linkclipref>010_12_03_A4</linkclipref>
						<mediatype>audio</mediatype>
						<trackindex>3</trackindex>
						<clipindex>70</clipindex>
					</link>
					<itemhistory>
						<uuid>7D379C23-1A8F-4C4E-AA05-93B147724729</uuid>
					</itemhistory>
				</clipitem>
				<clipitem id="010_12_03_B4">
					<name>010_12_03_B</name>
					<duration>1552</duration>
					<rate>
						<ntsc>FALSE</ntsc>
						<timebase>24</timebase>
					</rate>
					<in>0</in>
					<out>1552</out>
					<start>38498</start>
					<end>40050</end>
					<subframeoffset>0</subframeoffset>
					<enabled>TRUE</enabled>
					<masterclipid>010_12_03_B1</masterclipid>
					<logginginfo>
						<scene/>
						<shottake/>
						<lognote/>
						<good>FALSE</good>
					</logginginfo>
					<labels>
						<label2/>
					</labels>
					<comments>
						<mastercomment1/>
						<mastercomment2/>
						<mastercomment3/>
						<mastercomment4/>
					</comments>
					<file id="B002C013_130101_R1WX"/>
					<filter>
						<effect>
							<name>Audio Levels</name>
							<effectid>audiolevels</effectid>
							<effectcategory>audiolevels</effectcategory>
							<effecttype>audiolevels</effecttype>
							<mediatype>audio</mediatype>
							<parameter>
								<name>Level</name>
								<parameterid>level</parameterid>
								<valuemin>0</valuemin>
								<valuemax>3.98109</valuemax>
								<value>1</value>
							</parameter>
						</effect>
					</filter>
					<filter>
						<effect>
							<name>Audio Pan</name>
							<effectid>audiopan</effectid>
							<effectcategory>audiopan</effectcategory>
							<effecttype>audiopan</effecttype>
							<mediatype>audio</mediatype>
							<parameter>
								<name>Pan</name>
								<parameterid>pan</parameterid>
								<valuemin>-1</valuemin>
								<valuemax>1</valuemax>
								<value>0</value>
							</parameter>
						</effect>
					</filter>
					<sourcetrack>
						<mediatype>audio</mediatype>
						<trackindex>3</trackindex>
					</sourcetrack>
					<link>
						<linkclipref>010_12_03_B</linkclipref>
						<mediatype>video</mediatype>
						<trackindex>1</trackindex>
						<clipindex>73</clipindex>
					</link>
					<link>
						<linkclipref>010_12_03_B2</linkclipref>
						<mediatype>audio</mediatype>
						<trackindex>1</trackindex>
						<clipindex>73</clipindex>
					</link>
					<link>
						<linkclipref>010_12_03_B3</linkclipref>
						<mediatype>audio</mediatype>
						<trackindex>2</trackindex>
						<clipindex>73</clipindex>
					</link>
					<link>
						<linkclipref>010_12_03_B4</linkclipref>
						<mediatype>audio</mediatype>
						<trackindex>3</trackindex>
						<clipindex>71</clipindex>
					</link>
					<itemhistory>
						<uuid>0CA1E376-16BB-4427-8BD6-41BC8D4D4657</uuid>
					</itemhistory>
				</clipitem>
				<clipitem id="010_13_01_A_OK4">
					<name>010_13_01_A_OK</name>
					<duration>1518</duration>
					<rate>
						<ntsc>FALSE</ntsc>
						<timebase>24</timebase>
					</rate>
					<in>228</in>
					<out>305</out>
					<start>40050</start>
					<end>40127</end>
					<subframeoffset>0</subframeoffset>
					<enabled>TRUE</enabled>
					<masterclipid>010_13_01_A_OK1</masterclipid>
					<logginginfo>
						<scene/>
						<shottake/>
						<lognote/>
						<good>FALSE</good>
					</logginginfo>
					<labels>
						<label2/>
					</labels>
					<comments>
						<mastercomment1/>
						<mastercomment2/>
						<mastercomment3/>
						<mastercomment4/>
					</comments>
					<file id="A003C003_221211_R03K"/>
					<filter>
						<effect>
							<name>Audio Levels</name>
							<effectid>audiolevels</effectid>
							<effectcategory>audiolevels</effectcategory>
							<effecttype>audiolevels</effecttype>
							<mediatype>audio</mediatype>
							<parameter>
								<name>Level</name>
								<parameterid>level</parameterid>
								<valuemin>0</valuemin>
								<valuemax>3.98109</valuemax>
								<value>1</value>
							</parameter>
						</effect>
					</filter>
					<filter>
						<effect>
							<name>Audio Pan</name>
							<effectid>audiopan</effectid>
							<effectcategory>audiopan</effectcategory>
							<effecttype>audiopan</effecttype>
							<mediatype>audio</mediatype>
							<parameter>
								<name>Pan</name>
								<parameterid>pan</parameterid>
								<valuemin>-1</valuemin>
								<valuemax>1</valuemax>
								<value>0</value>
							</parameter>
						</effect>
					</filter>
					<sourcetrack>
						<mediatype>audio</mediatype>
						<trackindex>3</trackindex>
					</sourcetrack>
					<link>
						<linkclipref>010_13_01_A_OK</linkclipref>
						<mediatype>video</mediatype>
						<trackindex>1</trackindex>
						<clipindex>74</clipindex>
					</link>
					<link>
						<linkclipref>010_13_01_A_OK2</linkclipref>
						<mediatype>audio</mediatype>
						<trackindex>1</trackindex>
						<clipindex>74</clipindex>
					</link>
					<link>
						<linkclipref>010_13_01_A_OK3</linkclipref>
						<mediatype>audio</mediatype>
						<trackindex>2</trackindex>
						<clipindex>74</clipindex>
					</link>
					<link>
						<linkclipref>010_13_01_A_OK4</linkclipref>
						<mediatype>audio</mediatype>
						<trackindex>3</trackindex>
						<clipindex>72</clipindex>
					</link>
					<itemhistory>
						<uuid>A14EA524-24D9-40EC-91FF-5EC222400209</uuid>
					</itemhistory>
				</clipitem>
				<clipitem id="010_13_01_B_OK4">
					<name>010_13_01_B_OK</name>
					<duration>1503</duration>
					<rate>
						<ntsc>FALSE</ntsc>
						<timebase>24</timebase>
					</rate>
					<in>155</in>
					<out>1503</out>
					<start>40127</start>
					<end>41475</end>
					<subframeoffset>0</subframeoffset>
					<enabled>TRUE</enabled>
					<masterclipid>010_13_01_B_OK1</masterclipid>
					<logginginfo>
						<scene/>
						<shottake/>
						<lognote/>
						<good>FALSE</good>
					</logginginfo>
					<labels>
						<label2/>
					</labels>
					<comments>
						<mastercomment1/>
						<mastercomment2/>
						<mastercomment3/>
						<mastercomment4/>
					</comments>
					<file id="B002C014_130101_R1WX"/>
					<filter>
						<effect>
							<name>Audio Levels</name>
							<effectid>audiolevels</effectid>
							<effectcategory>audiolevels</effectcategory>
							<effecttype>audiolevels</effecttype>
							<mediatype>audio</mediatype>
							<parameter>
								<name>Level</name>
								<parameterid>level</parameterid>
								<valuemin>0</valuemin>
								<valuemax>3.98109</valuemax>
								<value>1</value>
							</parameter>
						</effect>
					</filter>
					<filter>
						<effect>
							<name>Audio Pan</name>
							<effectid>audiopan</effectid>
							<effectcategory>audiopan</effectcategory>
							<effecttype>audiopan</effecttype>
							<mediatype>audio</mediatype>
							<parameter>
								<name>Pan</name>
								<parameterid>pan</parameterid>
								<valuemin>-1</valuemin>
								<valuemax>1</valuemax>
								<value>0</value>
							</parameter>
						</effect>
					</filter>
					<sourcetrack>
						<mediatype>audio</mediatype>
						<trackindex>3</trackindex>
					</sourcetrack>
					<link>
						<linkclipref>010_13_01_B_OK</linkclipref>
						<mediatype>video</mediatype>
						<trackindex>1</trackindex>
						<clipindex>75</clipindex>
					</link>
					<link>
						<linkclipref>010_13_01_B_OK2</linkclipref>
						<mediatype>audio</mediatype>
						<trackindex>1</trackindex>
						<clipindex>75</clipindex>
					</link>
					<link>
						<linkclipref>010_13_01_B_OK3</linkclipref>
						<mediatype>audio</mediatype>
						<trackindex>2</trackindex>
						<clipindex>75</clipindex>
					</link>
					<link>
						<linkclipref>010_13_01_B_OK4</linkclipref>
						<mediatype>audio</mediatype>
						<trackindex>3</trackindex>
						<clipindex>73</clipindex>
					</link>
					<itemhistory>
						<uuid>7FECE70C-7112-42FB-9C27-2C43C31ADAEB</uuid>
					</itemhistory>
				</clipitem>
				<clipitem id="010_14_01_A4">
					<name>010_14_01_A</name>
					<duration>330</duration>
					<rate>
						<ntsc>FALSE</ntsc>
						<timebase>24</timebase>
					</rate>
					<in>0</in>
					<out>330</out>
					<start>41475</start>
					<end>41805</end>
					<subframeoffset>0</subframeoffset>
					<enabled>TRUE</enabled>
					<masterclipid>010_14_01_A1</masterclipid>
					<logginginfo>
						<scene/>
						<shottake/>
						<lognote/>
						<good>FALSE</good>
					</logginginfo>
					<labels>
						<label2/>
					</labels>
					<comments>
						<mastercomment1/>
						<mastercomment2/>
						<mastercomment3/>
						<mastercomment4/>
					</comments>
					<file id="A003C004_221211_R03K"/>
					<filter>
						<effect>
							<name>Audio Levels</name>
							<effectid>audiolevels</effectid>
							<effectcategory>audiolevels</effectcategory>
							<effecttype>audiolevels</effecttype>
							<mediatype>audio</mediatype>
							<parameter>
								<name>Level</name>
								<parameterid>level</parameterid>
								<valuemin>0</valuemin>
								<valuemax>3.98109</valuemax>
								<value>1</value>
							</parameter>
						</effect>
					</filter>
					<filter>
						<effect>
							<name>Audio Pan</name>
							<effectid>audiopan</effectid>
							<effectcategory>audiopan</effectcategory>
							<effecttype>audiopan</effecttype>
							<mediatype>audio</mediatype>
							<parameter>
								<name>Pan</name>
								<parameterid>pan</parameterid>
								<valuemin>-1</valuemin>
								<valuemax>1</valuemax>
								<value>0</value>
							</parameter>
						</effect>
					</filter>
					<sourcetrack>
						<mediatype>audio</mediatype>
						<trackindex>3</trackindex>
					</sourcetrack>
					<link>
						<linkclipref>010_14_01_A</linkclipref>
						<mediatype>video</mediatype>
						<trackindex>1</trackindex>
						<clipindex>76</clipindex>
					</link>
					<link>
						<linkclipref>010_14_01_A2</linkclipref>
						<mediatype>audio</mediatype>
						<trackindex>1</trackindex>
						<clipindex>76</clipindex>
					</link>
					<link>
						<linkclipref>010_14_01_A3</linkclipref>
						<mediatype>audio</mediatype>
						<trackindex>2</trackindex>
						<clipindex>76</clipindex>
					</link>
					<link>
						<linkclipref>010_14_01_A4</linkclipref>
						<mediatype>audio</mediatype>
						<trackindex>3</trackindex>
						<clipindex>74</clipindex>
					</link>
					<itemhistory>
						<uuid>8A7ACB78-9CCF-4E94-BC75-E191CAD17532</uuid>
					</itemhistory>
				</clipitem>
				<clipitem id="010_14_02_A4">
					<name>010_14_02_A</name>
					<duration>279</duration>
					<rate>
						<ntsc>FALSE</ntsc>
						<timebase>24</timebase>
					</rate>
					<in>0</in>
					<out>279</out>
					<start>41805</start>
					<end>42084</end>
					<subframeoffset>0</subframeoffset>
					<enabled>TRUE</enabled>
					<masterclipid>010_14_02_A1</masterclipid>
					<logginginfo>
						<scene/>
						<shottake/>
						<lognote/>
						<good>FALSE</good>
					</logginginfo>
					<labels>
						<label2/>
					</labels>
					<comments>
						<mastercomment1/>
						<mastercomment2/>
						<mastercomment3/>
						<mastercomment4/>
					</comments>
					<file id="A003C005_221211_R03K"/>
					<filter>
						<effect>
							<name>Audio Levels</name>
							<effectid>audiolevels</effectid>
							<effectcategory>audiolevels</effectcategory>
							<effecttype>audiolevels</effecttype>
							<mediatype>audio</mediatype>
							<parameter>
								<name>Level</name>
								<parameterid>level</parameterid>
								<valuemin>0</valuemin>
								<valuemax>3.98109</valuemax>
								<value>1</value>
							</parameter>
						</effect>
					</filter>
					<filter>
						<effect>
							<name>Audio Pan</name>
							<effectid>audiopan</effectid>
							<effectcategory>audiopan</effectcategory>
							<effecttype>audiopan</effecttype>
							<mediatype>audio</mediatype>
							<parameter>
								<name>Pan</name>
								<parameterid>pan</parameterid>
								<valuemin>-1</valuemin>
								<valuemax>1</valuemax>
								<value>0</value>
							</parameter>
						</effect>
					</filter>
					<sourcetrack>
						<mediatype>audio</mediatype>
						<trackindex>3</trackindex>
					</sourcetrack>
					<link>
						<linkclipref>010_14_02_A</linkclipref>
						<mediatype>video</mediatype>
						<trackindex>1</trackindex>
						<clipindex>77</clipindex>
					</link>
					<link>
						<linkclipref>010_14_02_A2</linkclipref>
						<mediatype>audio</mediatype>
						<trackindex>1</trackindex>
						<clipindex>77</clipindex>
					</link>
					<link>
						<linkclipref>010_14_02_A3</linkclipref>
						<mediatype>audio</mediatype>
						<trackindex>2</trackindex>
						<clipindex>77</clipindex>
					</link>
					<link>
						<linkclipref>010_14_02_A4</linkclipref>
						<mediatype>audio</mediatype>
						<trackindex>3</trackindex>
						<clipindex>75</clipindex>
					</link>
					<itemhistory>
						<uuid>B268547F-E1A4-4937-8E53-23F9E71F75FB</uuid>
					</itemhistory>
				</clipitem>
				<clipitem id="010_14_03_A_OK4">
					<name>010_14_03_A_OK</name>
					<duration>354</duration>
					<rate>
						<ntsc>FALSE</ntsc>
						<timebase>24</timebase>
					</rate>
					<in>67</in>
					<out>152</out>
					<start>42084</start>
					<end>42169</end>
					<subframeoffset>0</subframeoffset>
					<enabled>TRUE</enabled>
					<masterclipid>010_14_03_A_OK1</masterclipid>
					<logginginfo>
						<scene/>
						<shottake/>
						<lognote/>
						<good>FALSE</good>
					</logginginfo>
					<labels>
						<label2/>
					</labels>
					<comments>
						<mastercomment1/>
						<mastercomment2/>
						<mastercomment3/>
						<mastercomment4/>
					</comments>
					<file id="A003C006_221211_R03K"/>
					<filter>
						<effect>
							<name>Audio Levels</name>
							<effectid>audiolevels</effectid>
							<effectcategory>audiolevels</effectcategory>
							<effecttype>audiolevels</effecttype>
							<mediatype>audio</mediatype>
							<parameter>
								<name>Level</name>
								<parameterid>level</parameterid>
								<valuemin>0</valuemin>
								<valuemax>3.98109</valuemax>
								<value>1</value>
							</parameter>
						</effect>
					</filter>
					<filter>
						<effect>
							<name>Audio Pan</name>
							<effectid>audiopan</effectid>
							<effectcategory>audiopan</effectcategory>
							<effecttype>audiopan</effecttype>
							<mediatype>audio</mediatype>
							<parameter>
								<name>Pan</name>
								<parameterid>pan</parameterid>
								<valuemin>-1</valuemin>
								<valuemax>1</valuemax>
								<value>0</value>
							</parameter>
						</effect>
					</filter>
					<sourcetrack>
						<mediatype>audio</mediatype>
						<trackindex>3</trackindex>
					</sourcetrack>
					<link>
						<linkclipref>010_14_03_A_OK</linkclipref>
						<mediatype>video</mediatype>
						<trackindex>1</trackindex>
						<clipindex>78</clipindex>
					</link>
					<link>
						<linkclipref>010_14_03_A_OK2</linkclipref>
						<mediatype>audio</mediatype>
						<trackindex>1</trackindex>
						<clipindex>78</clipindex>
					</link>
					<link>
						<linkclipref>010_14_03_A_OK3</linkclipref>
						<mediatype>audio</mediatype>
						<trackindex>2</trackindex>
						<clipindex>78</clipindex>
					</link>
					<link>
						<linkclipref>010_14_03_A_OK4</linkclipref>
						<mediatype>audio</mediatype>
						<trackindex>3</trackindex>
						<clipindex>76</clipindex>
					</link>
					<itemhistory>
						<uuid>6717D583-9171-415C-9885-4D38F369F39B</uuid>
					</itemhistory>
				</clipitem>
				<clipitem id="010_15_01_A4">
					<name>010_15_01_A</name>
					<duration>1316</duration>
					<rate>
						<ntsc>FALSE</ntsc>
						<timebase>24</timebase>
					</rate>
					<in>0</in>
					<out>1316</out>
					<start>42169</start>
					<end>43485</end>
					<subframeoffset>0</subframeoffset>
					<enabled>TRUE</enabled>
					<masterclipid>010_15_01_A1</masterclipid>
					<logginginfo>
						<scene/>
						<shottake/>
						<lognote/>
						<good>FALSE</good>
					</logginginfo>
					<labels>
						<label2/>
					</labels>
					<comments>
						<mastercomment1/>
						<mastercomment2/>
						<mastercomment3/>
						<mastercomment4/>
					</comments>
					<file id="A003C007_221211_R03K"/>
					<filter>
						<effect>
							<name>Audio Levels</name>
							<effectid>audiolevels</effectid>
							<effectcategory>audiolevels</effectcategory>
							<effecttype>audiolevels</effecttype>
							<mediatype>audio</mediatype>
							<parameter>
								<name>Level</name>
								<parameterid>level</parameterid>
								<valuemin>0</valuemin>
								<valuemax>3.98109</valuemax>
								<value>1</value>
							</parameter>
						</effect>
					</filter>
					<filter>
						<effect>
							<name>Audio Pan</name>
							<effectid>audiopan</effectid>
							<effectcategory>audiopan</effectcategory>
							<effecttype>audiopan</effecttype>
							<mediatype>audio</mediatype>
							<parameter>
								<name>Pan</name>
								<parameterid>pan</parameterid>
								<valuemin>-1</valuemin>
								<valuemax>1</valuemax>
								<value>0</value>
							</parameter>
						</effect>
					</filter>
					<sourcetrack>
						<mediatype>audio</mediatype>
						<trackindex>3</trackindex>
					</sourcetrack>
					<link>
						<linkclipref>010_15_01_A</linkclipref>
						<mediatype>video</mediatype>
						<trackindex>1</trackindex>
						<clipindex>79</clipindex>
					</link>
					<link>
						<linkclipref>010_15_01_A2</linkclipref>
						<mediatype>audio</mediatype>
						<trackindex>1</trackindex>
						<clipindex>79</clipindex>
					</link>
					<link>
						<linkclipref>010_15_01_A3</linkclipref>
						<mediatype>audio</mediatype>
						<trackindex>2</trackindex>
						<clipindex>79</clipindex>
					</link>
					<link>
						<linkclipref>010_15_01_A4</linkclipref>
						<mediatype>audio</mediatype>
						<trackindex>3</trackindex>
						<clipindex>77</clipindex>
					</link>
					<itemhistory>
						<uuid>4B7ACA9A-7D19-4DB2-9C1F-5E52FBAE04B3</uuid>
					</itemhistory>
				</clipitem>
				<clipitem id="010_15_02_A_OK4">
					<name>010_15_02_A_OK</name>
					<duration>1300</duration>
					<rate>
						<ntsc>FALSE</ntsc>
						<timebase>24</timebase>
					</rate>
					<in>327</in>
					<out>411</out>
					<start>43485</start>
					<end>43569</end>
					<subframeoffset>0</subframeoffset>
					<enabled>TRUE</enabled>
					<masterclipid>010_15_02_A_OK1</masterclipid>
					<logginginfo>
						<scene/>
						<shottake/>
						<lognote/>
						<good>FALSE</good>
					</logginginfo>
					<labels>
						<label2/>
					</labels>
					<comments>
						<mastercomment1/>
						<mastercomment2/>
						<mastercomment3/>
						<mastercomment4/>
					</comments>
					<file id="A003C008_221211_R03K"/>
					<filter>
						<effect>
							<name>Audio Levels</name>
							<effectid>audiolevels</effectid>
							<effectcategory>audiolevels</effectcategory>
							<effecttype>audiolevels</effecttype>
							<mediatype>audio</mediatype>
							<parameter>
								<name>Level</name>
								<parameterid>level</parameterid>
								<valuemin>0</valuemin>
								<valuemax>3.98109</valuemax>
								<value>1</value>
							</parameter>
						</effect>
					</filter>
					<filter>
						<effect>
							<name>Audio Pan</name>
							<effectid>audiopan</effectid>
							<effectcategory>audiopan</effectcategory>
							<effecttype>audiopan</effecttype>
							<mediatype>audio</mediatype>
							<parameter>
								<name>Pan</name>
								<parameterid>pan</parameterid>
								<valuemin>-1</valuemin>
								<valuemax>1</valuemax>
								<value>0</value>
							</parameter>
						</effect>
					</filter>
					<sourcetrack>
						<mediatype>audio</mediatype>
						<trackindex>3</trackindex>
					</sourcetrack>
					<link>
						<linkclipref>010_15_02_A_OK</linkclipref>
						<mediatype>video</mediatype>
						<trackindex>1</trackindex>
						<clipindex>80</clipindex>
					</link>
					<link>
						<linkclipref>010_15_02_A_OK2</linkclipref>
						<mediatype>audio</mediatype>
						<trackindex>1</trackindex>
						<clipindex>80</clipindex>
					</link>
					<link>
						<linkclipref>010_15_02_A_OK3</linkclipref>
						<mediatype>audio</mediatype>
						<trackindex>2</trackindex>
						<clipindex>80</clipindex>
					</link>
					<link>
						<linkclipref>010_15_02_A_OK4</linkclipref>
						<mediatype>audio</mediatype>
						<trackindex>3</trackindex>
						<clipindex>78</clipindex>
					</link>
					<itemhistory>
						<uuid>1488F9D8-CF5B-4125-8A9D-852118EDECCB</uuid>
					</itemhistory>
				</clipitem>
				<clipitem id="010_16_01_A4">
					<name>010_16_01_A</name>
					<duration>268</duration>
					<rate>
						<ntsc>FALSE</ntsc>
						<timebase>24</timebase>
					</rate>
					<in>0</in>
					<out>268</out>
					<start>43569</start>
					<end>43837</end>
					<subframeoffset>0</subframeoffset>
					<enabled>TRUE</enabled>
					<masterclipid>010_16_01_A1</masterclipid>
					<logginginfo>
						<scene/>
						<shottake/>
						<lognote/>
						<good>FALSE</good>
					</logginginfo>
					<labels>
						<label2/>
					</labels>
					<comments>
						<mastercomment1/>
						<mastercomment2/>
						<mastercomment3/>
						<mastercomment4/>
					</comments>
					<file id="A003C009_221211_R03K"/>
					<filter>
						<effect>
							<name>Audio Levels</name>
							<effectid>audiolevels</effectid>
							<effectcategory>audiolevels</effectcategory>
							<effecttype>audiolevels</effecttype>
							<mediatype>audio</mediatype>
							<parameter>
								<name>Level</name>
								<parameterid>level</parameterid>
								<valuemin>0</valuemin>
								<valuemax>3.98109</valuemax>
								<value>1</value>
							</parameter>
						</effect>
					</filter>
					<filter>
						<effect>
							<name>Audio Pan</name>
							<effectid>audiopan</effectid>
							<effectcategory>audiopan</effectcategory>
							<effecttype>audiopan</effecttype>
							<mediatype>audio</mediatype>
							<parameter>
								<name>Pan</name>
								<parameterid>pan</parameterid>
								<valuemin>-1</valuemin>
								<valuemax>1</valuemax>
								<value>0</value>
							</parameter>
						</effect>
					</filter>
					<sourcetrack>
						<mediatype>audio</mediatype>
						<trackindex>3</trackindex>
					</sourcetrack>
					<link>
						<linkclipref>010_16_01_A</linkclipref>
						<mediatype>video</mediatype>
						<trackindex>1</trackindex>
						<clipindex>81</clipindex>
					</link>
					<link>
						<linkclipref>010_16_01_A2</linkclipref>
						<mediatype>audio</mediatype>
						<trackindex>1</trackindex>
						<clipindex>81</clipindex>
					</link>
					<link>
						<linkclipref>010_16_01_A3</linkclipref>
						<mediatype>audio</mediatype>
						<trackindex>2</trackindex>
						<clipindex>81</clipindex>
					</link>
					<link>
						<linkclipref>010_16_01_A4</linkclipref>
						<mediatype>audio</mediatype>
						<trackindex>3</trackindex>
						<clipindex>79</clipindex>
					</link>
					<link>
						<linkclipref>010_16_01_A5</linkclipref>
						<mediatype>audio</mediatype>
						<trackindex>4</trackindex>
						<clipindex>46</clipindex>
					</link>
					<itemhistory>
						<uuid>FDCD72ED-8E85-4447-BA03-F8AD832C31A1</uuid>
					</itemhistory>
				</clipitem>
				<clipitem id="010_16_02_A_OK4">
					<name>010_16_02_A_OK</name>
					<duration>284</duration>
					<rate>
						<ntsc>FALSE</ntsc>
						<timebase>24</timebase>
					</rate>
					<in>87</in>
					<out>117</out>
					<start>43837</start>
					<end>43867</end>
					<subframeoffset>0</subframeoffset>
					<enabled>TRUE</enabled>
					<masterclipid>010_16_02_A_OK1</masterclipid>
					<logginginfo>
						<scene/>
						<shottake/>
						<lognote/>
						<good>FALSE</good>
					</logginginfo>
					<labels>
						<label2/>
					</labels>
					<comments>
						<mastercomment1/>
						<mastercomment2/>
						<mastercomment3/>
						<mastercomment4/>
					</comments>
					<file id="A003C010_221211_R03K"/>
					<filter>
						<effect>
							<name>Audio Levels</name>
							<effectid>audiolevels</effectid>
							<effectcategory>audiolevels</effectcategory>
							<effecttype>audiolevels</effecttype>
							<mediatype>audio</mediatype>
							<parameter>
								<name>Level</name>
								<parameterid>level</parameterid>
								<valuemin>0</valuemin>
								<valuemax>3.98109</valuemax>
								<value>1</value>
							</parameter>
						</effect>
					</filter>
					<filter>
						<effect>
							<name>Audio Pan</name>
							<effectid>audiopan</effectid>
							<effectcategory>audiopan</effectcategory>
							<effecttype>audiopan</effecttype>
							<mediatype>audio</mediatype>
							<parameter>
								<name>Pan</name>
								<parameterid>pan</parameterid>
								<valuemin>-1</valuemin>
								<valuemax>1</valuemax>
								<value>0</value>
							</parameter>
						</effect>
					</filter>
					<sourcetrack>
						<mediatype>audio</mediatype>
						<trackindex>3</trackindex>
					</sourcetrack>
					<link>
						<linkclipref>010_16_02_A_OK</linkclipref>
						<mediatype>video</mediatype>
						<trackindex>1</trackindex>
						<clipindex>82</clipindex>
					</link>
					<link>
						<linkclipref>010_16_02_A_OK2</linkclipref>
						<mediatype>audio</mediatype>
						<trackindex>1</trackindex>
						<clipindex>82</clipindex>
					</link>
					<link>
						<linkclipref>010_16_02_A_OK3</linkclipref>
						<mediatype>audio</mediatype>
						<trackindex>2</trackindex>
						<clipindex>82</clipindex>
					</link>
					<link>
						<linkclipref>010_16_02_A_OK4</linkclipref>
						<mediatype>audio</mediatype>
						<trackindex>3</trackindex>
						<clipindex>80</clipindex>
					</link>
					<link>
						<linkclipref>010_16_02_A_OK5</linkclipref>
						<mediatype>audio</mediatype>
						<trackindex>4</trackindex>
						<clipindex>47</clipindex>
					</link>
					<itemhistory>
						<uuid>81CCE10C-E0B9-4D1D-BFF4-AAAB174A8315</uuid>
					</itemhistory>
				</clipitem>
				<clipitem id="010_17_01_B4">
					<name>010_17_01_B</name>
					<duration>709</duration>
					<rate>
						<ntsc>FALSE</ntsc>
						<timebase>24</timebase>
					</rate>
					<in>0</in>
					<out>709</out>
					<start>43867</start>
					<end>44576</end>
					<subframeoffset>0</subframeoffset>
					<enabled>TRUE</enabled>
					<masterclipid>010_17_01_B1</masterclipid>
					<logginginfo>
						<scene/>
						<shottake/>
						<lognote/>
						<good>FALSE</good>
					</logginginfo>
					<labels>
						<label2/>
					</labels>
					<comments>
						<mastercomment1/>
						<mastercomment2/>
						<mastercomment3/>
						<mastercomment4/>
					</comments>
					<file id="B002C015_130101_R1WX"/>
					<filter>
						<effect>
							<name>Audio Levels</name>
							<effectid>audiolevels</effectid>
							<effectcategory>audiolevels</effectcategory>
							<effecttype>audiolevels</effecttype>
							<mediatype>audio</mediatype>
							<parameter>
								<name>Level</name>
								<parameterid>level</parameterid>
								<valuemin>0</valuemin>
								<valuemax>3.98109</valuemax>
								<value>1</value>
							</parameter>
						</effect>
					</filter>
					<filter>
						<effect>
							<name>Audio Pan</name>
							<effectid>audiopan</effectid>
							<effectcategory>audiopan</effectcategory>
							<effecttype>audiopan</effecttype>
							<mediatype>audio</mediatype>
							<parameter>
								<name>Pan</name>
								<parameterid>pan</parameterid>
								<valuemin>-1</valuemin>
								<valuemax>1</valuemax>
								<value>0</value>
							</parameter>
						</effect>
					</filter>
					<sourcetrack>
						<mediatype>audio</mediatype>
						<trackindex>3</trackindex>
					</sourcetrack>
					<link>
						<linkclipref>010_17_01_B</linkclipref>
						<mediatype>video</mediatype>
						<trackindex>1</trackindex>
						<clipindex>83</clipindex>
					</link>
					<link>
						<linkclipref>010_17_01_B2</linkclipref>
						<mediatype>audio</mediatype>
						<trackindex>1</trackindex>
						<clipindex>83</clipindex>
					</link>
					<link>
						<linkclipref>010_17_01_B3</linkclipref>
						<mediatype>audio</mediatype>
						<trackindex>2</trackindex>
						<clipindex>83</clipindex>
					</link>
					<link>
						<linkclipref>010_17_01_B4</linkclipref>
						<mediatype>audio</mediatype>
						<trackindex>3</trackindex>
						<clipindex>81</clipindex>
					</link>
					<link>
						<linkclipref>010_17_01_B5</linkclipref>
						<mediatype>audio</mediatype>
						<trackindex>4</trackindex>
						<clipindex>48</clipindex>
					</link>
					<itemhistory>
						<uuid>272ECF75-51E5-414A-A8E7-9808A31A15CE</uuid>
					</itemhistory>
				</clipitem>
				<clipitem id="010_17_02_B_OK4">
					<name>010_17_02_B_OK</name>
					<duration>2132</duration>
					<rate>
						<ntsc>FALSE</ntsc>
						<timebase>24</timebase>
					</rate>
					<in>804</in>
					<out>886</out>
					<start>44576</start>
					<end>44658</end>
					<subframeoffset>0</subframeoffset>
					<enabled>TRUE</enabled>
					<masterclipid>010_17_02_B_OK1</masterclipid>
					<logginginfo>
						<scene/>
						<shottake/>
						<lognote/>
						<good>FALSE</good>
					</logginginfo>
					<labels>
						<label2/>
					</labels>
					<comments>
						<mastercomment1/>
						<mastercomment2/>
						<mastercomment3/>
						<mastercomment4/>
					</comments>
					<file id="B002C016_130101_R1WX"/>
					<filter>
						<effect>
							<name>Audio Levels</name>
							<effectid>audiolevels</effectid>
							<effectcategory>audiolevels</effectcategory>
							<effecttype>audiolevels</effecttype>
							<mediatype>audio</mediatype>
							<parameter>
								<name>Level</name>
								<parameterid>level</parameterid>
								<valuemin>0</valuemin>
								<valuemax>3.98109</valuemax>
								<value>1</value>
							</parameter>
						</effect>
					</filter>
					<filter>
						<effect>
							<name>Audio Pan</name>
							<effectid>audiopan</effectid>
							<effectcategory>audiopan</effectcategory>
							<effecttype>audiopan</effecttype>
							<mediatype>audio</mediatype>
							<parameter>
								<name>Pan</name>
								<parameterid>pan</parameterid>
								<valuemin>-1</valuemin>
								<valuemax>1</valuemax>
								<value>0</value>
							</parameter>
						</effect>
					</filter>
					<sourcetrack>
						<mediatype>audio</mediatype>
						<trackindex>3</trackindex>
					</sourcetrack>
					<link>
						<linkclipref>010_17_02_B_OK</linkclipref>
						<mediatype>video</mediatype>
						<trackindex>1</trackindex>
						<clipindex>84</clipindex>
					</link>
					<link>
						<linkclipref>010_17_02_B_OK2</linkclipref>
						<mediatype>audio</mediatype>
						<trackindex>1</trackindex>
						<clipindex>84</clipindex>
					</link>
					<link>
						<linkclipref>010_17_02_B_OK3</linkclipref>
						<mediatype>audio</mediatype>
						<trackindex>2</trackindex>
						<clipindex>84</clipindex>
					</link>
					<link>
						<linkclipref>010_17_02_B_OK4</linkclipref>
						<mediatype>audio</mediatype>
						<trackindex>3</trackindex>
						<clipindex>82</clipindex>
					</link>
					<link>
						<linkclipref>010_17_02_B_OK5</linkclipref>
						<mediatype>audio</mediatype>
						<trackindex>4</trackindex>
						<clipindex>49</clipindex>
					</link>
					<itemhistory>
						<uuid>2B7E86BC-4C9C-428A-AEF5-8174D6CE4CD7</uuid>
					</itemhistory>
				</clipitem>
				<clipitem id="010_18_01_A_KP4">
					<name>010_18_01_A_KP</name>
					<duration>1008</duration>
					<rate>
						<ntsc>FALSE</ntsc>
						<timebase>24</timebase>
					</rate>
					<in>531</in>
					<out>1008</out>
					<start>44658</start>
					<end>45135</end>
					<subframeoffset>0</subframeoffset>
					<enabled>TRUE</enabled>
					<masterclipid>010_18_01_A_KP1</masterclipid>
					<logginginfo>
						<scene/>
						<shottake/>
						<lognote/>
						<good>FALSE</good>
					</logginginfo>
					<labels>
						<label2/>
					</labels>
					<comments>
						<mastercomment1/>
						<mastercomment2/>
						<mastercomment3/>
						<mastercomment4/>
					</comments>
					<file id="A003C011_221211_R03K"/>
					<filter>
						<effect>
							<name>Audio Levels</name>
							<effectid>audiolevels</effectid>
							<effectcategory>audiolevels</effectcategory>
							<effecttype>audiolevels</effecttype>
							<mediatype>audio</mediatype>
							<parameter>
								<name>Level</name>
								<parameterid>level</parameterid>
								<valuemin>0</valuemin>
								<valuemax>3.98109</valuemax>
								<value>1</value>
							</parameter>
						</effect>
					</filter>
					<filter>
						<effect>
							<name>Audio Pan</name>
							<effectid>audiopan</effectid>
							<effectcategory>audiopan</effectcategory>
							<effecttype>audiopan</effecttype>
							<mediatype>audio</mediatype>
							<parameter>
								<name>Pan</name>
								<parameterid>pan</parameterid>
								<valuemin>-1</valuemin>
								<valuemax>1</valuemax>
								<value>0</value>
							</parameter>
						</effect>
					</filter>
					<sourcetrack>
						<mediatype>audio</mediatype>
						<trackindex>3</trackindex>
					</sourcetrack>
					<link>
						<linkclipref>010_18_01_A_KP</linkclipref>
						<mediatype>video</mediatype>
						<trackindex>1</trackindex>
						<clipindex>85</clipindex>
					</link>
					<link>
						<linkclipref>010_18_01_A_KP2</linkclipref>
						<mediatype>audio</mediatype>
						<trackindex>1</trackindex>
						<clipindex>85</clipindex>
					</link>
					<link>
						<linkclipref>010_18_01_A_KP3</linkclipref>
						<mediatype>audio</mediatype>
						<trackindex>2</trackindex>
						<clipindex>85</clipindex>
					</link>
					<link>
						<linkclipref>010_18_01_A_KP4</linkclipref>
						<mediatype>audio</mediatype>
						<trackindex>3</trackindex>
						<clipindex>83</clipindex>
					</link>
					<link>
						<linkclipref>010_18_01_A_KP5</linkclipref>
						<mediatype>audio</mediatype>
						<trackindex>4</trackindex>
						<clipindex>50</clipindex>
					</link>
					<itemhistory>
						<uuid>6520967A-243D-4FFE-A656-1735B240BB86</uuid>
					</itemhistory>
				</clipitem>
				<clipitem id="010_18_02_A4">
					<name>010_18_02_A</name>
					<duration>461</duration>
					<rate>
						<ntsc>FALSE</ntsc>
						<timebase>24</timebase>
					</rate>
					<in>0</in>
					<out>461</out>
					<start>45135</start>
					<end>45596</end>
					<subframeoffset>0</subframeoffset>
					<enabled>TRUE</enabled>
					<masterclipid>010_18_02_A1</masterclipid>
					<logginginfo>
						<scene/>
						<shottake/>
						<lognote/>
						<good>FALSE</good>
					</logginginfo>
					<labels>
						<label2/>
					</labels>
					<comments>
						<mastercomment1/>
						<mastercomment2/>
						<mastercomment3/>
						<mastercomment4/>
					</comments>
					<file id="A003C012_221211_R03K"/>
					<filter>
						<effect>
							<name>Audio Levels</name>
							<effectid>audiolevels</effectid>
							<effectcategory>audiolevels</effectcategory>
							<effecttype>audiolevels</effecttype>
							<mediatype>audio</mediatype>
							<parameter>
								<name>Level</name>
								<parameterid>level</parameterid>
								<valuemin>0</valuemin>
								<valuemax>3.98109</valuemax>
								<value>1</value>
							</parameter>
						</effect>
					</filter>
					<filter>
						<effect>
							<name>Audio Pan</name>
							<effectid>audiopan</effectid>
							<effectcategory>audiopan</effectcategory>
							<effecttype>audiopan</effecttype>
							<mediatype>audio</mediatype>
							<parameter>
								<name>Pan</name>
								<parameterid>pan</parameterid>
								<valuemin>-1</valuemin>
								<valuemax>1</valuemax>
								<value>0</value>
							</parameter>
						</effect>
					</filter>
					<sourcetrack>
						<mediatype>audio</mediatype>
						<trackindex>3</trackindex>
					</sourcetrack>
					<link>
						<linkclipref>010_18_02_A</linkclipref>
						<mediatype>video</mediatype>
						<trackindex>1</trackindex>
						<clipindex>86</clipindex>
					</link>
					<link>
						<linkclipref>010_18_02_A2</linkclipref>
						<mediatype>audio</mediatype>
						<trackindex>1</trackindex>
						<clipindex>86</clipindex>
					</link>
					<link>
						<linkclipref>010_18_02_A3</linkclipref>
						<mediatype>audio</mediatype>
						<trackindex>2</trackindex>
						<clipindex>86</clipindex>
					</link>
					<link>
						<linkclipref>010_18_02_A4</linkclipref>
						<mediatype>audio</mediatype>
						<trackindex>3</trackindex>
						<clipindex>84</clipindex>
					</link>
					<link>
						<linkclipref>010_18_02_A5</linkclipref>
						<mediatype>audio</mediatype>
						<trackindex>4</trackindex>
						<clipindex>51</clipindex>
					</link>
					<itemhistory>
						<uuid>4F06658A-8922-49D8-ACF9-AC1863C3D333</uuid>
					</itemhistory>
				</clipitem>
				<clipitem id="010_18_03_A4">
					<name>010_18_03_A</name>
					<duration>298</duration>
					<rate>
						<ntsc>FALSE</ntsc>
						<timebase>24</timebase>
					</rate>
					<in>0</in>
					<out>298</out>
					<start>45596</start>
					<end>45894</end>
					<subframeoffset>0</subframeoffset>
					<enabled>TRUE</enabled>
					<masterclipid>010_18_03_A1</masterclipid>
					<logginginfo>
						<scene/>
						<shottake/>
						<lognote/>
						<good>FALSE</good>
					</logginginfo>
					<labels>
						<label2/>
					</labels>
					<comments>
						<mastercomment1/>
						<mastercomment2/>
						<mastercomment3/>
						<mastercomment4/>
					</comments>
					<file id="A003C013_221211_R03K"/>
					<filter>
						<effect>
							<name>Audio Levels</name>
							<effectid>audiolevels</effectid>
							<effectcategory>audiolevels</effectcategory>
							<effecttype>audiolevels</effecttype>
							<mediatype>audio</mediatype>
							<parameter>
								<name>Level</name>
								<parameterid>level</parameterid>
								<valuemin>0</valuemin>
								<valuemax>3.98109</valuemax>
								<value>1</value>
							</parameter>
						</effect>
					</filter>
					<filter>
						<effect>
							<name>Audio Pan</name>
							<effectid>audiopan</effectid>
							<effectcategory>audiopan</effectcategory>
							<effecttype>audiopan</effecttype>
							<mediatype>audio</mediatype>
							<parameter>
								<name>Pan</name>
								<parameterid>pan</parameterid>
								<valuemin>-1</valuemin>
								<valuemax>1</valuemax>
								<value>0</value>
							</parameter>
						</effect>
					</filter>
					<sourcetrack>
						<mediatype>audio</mediatype>
						<trackindex>3</trackindex>
					</sourcetrack>
					<link>
						<linkclipref>010_18_03_A</linkclipref>
						<mediatype>video</mediatype>
						<trackindex>1</trackindex>
						<clipindex>87</clipindex>
					</link>
					<link>
						<linkclipref>010_18_03_A2</linkclipref>
						<mediatype>audio</mediatype>
						<trackindex>1</trackindex>
						<clipindex>87</clipindex>
					</link>
					<link>
						<linkclipref>010_18_03_A3</linkclipref>
						<mediatype>audio</mediatype>
						<trackindex>2</trackindex>
						<clipindex>87</clipindex>
					</link>
					<link>
						<linkclipref>010_18_03_A4</linkclipref>
						<mediatype>audio</mediatype>
						<trackindex>3</trackindex>
						<clipindex>85</clipindex>
					</link>
					<link>
						<linkclipref>010_18_03_A5</linkclipref>
						<mediatype>audio</mediatype>
						<trackindex>4</trackindex>
						<clipindex>52</clipindex>
					</link>
					<itemhistory>
						<uuid>21198B42-E11B-410C-A051-7666DA544C4A</uuid>
					</itemhistory>
				</clipitem>
				<clipitem id="010_18_04_A_OK4">
					<name>010_18_04_A_OK</name>
					<duration>519</duration>
					<rate>
						<ntsc>FALSE</ntsc>
						<timebase>24</timebase>
					</rate>
					<in>259</in>
					<out>303</out>
					<start>45894</start>
					<end>45938</end>
					<subframeoffset>0</subframeoffset>
					<enabled>TRUE</enabled>
					<masterclipid>010_18_04_A_OK1</masterclipid>
					<logginginfo>
						<scene/>
						<shottake/>
						<lognote/>
						<good>FALSE</good>
					</logginginfo>
					<labels>
						<label2/>
					</labels>
					<comments>
						<mastercomment1/>
						<mastercomment2/>
						<mastercomment3/>
						<mastercomment4/>
					</comments>
					<file id="A003C014_221211_R03K"/>
					<filter>
						<effect>
							<name>Audio Levels</name>
							<effectid>audiolevels</effectid>
							<effectcategory>audiolevels</effectcategory>
							<effecttype>audiolevels</effecttype>
							<mediatype>audio</mediatype>
							<parameter>
								<name>Level</name>
								<parameterid>level</parameterid>
								<valuemin>0</valuemin>
								<valuemax>3.98109</valuemax>
								<value>1</value>
							</parameter>
						</effect>
					</filter>
					<filter>
						<effect>
							<name>Audio Pan</name>
							<effectid>audiopan</effectid>
							<effectcategory>audiopan</effectcategory>
							<effecttype>audiopan</effecttype>
							<mediatype>audio</mediatype>
							<parameter>
								<name>Pan</name>
								<parameterid>pan</parameterid>
								<valuemin>-1</valuemin>
								<valuemax>1</valuemax>
								<value>0</value>
							</parameter>
						</effect>
					</filter>
					<sourcetrack>
						<mediatype>audio</mediatype>
						<trackindex>3</trackindex>
					</sourcetrack>
					<link>
						<linkclipref>010_18_04_A_OK</linkclipref>
						<mediatype>video</mediatype>
						<trackindex>1</trackindex>
						<clipindex>88</clipindex>
					</link>
					<link>
						<linkclipref>010_18_04_A_OK2</linkclipref>
						<mediatype>audio</mediatype>
						<trackindex>1</trackindex>
						<clipindex>88</clipindex>
					</link>
					<link>
						<linkclipref>010_18_04_A_OK3</linkclipref>
						<mediatype>audio</mediatype>
						<trackindex>2</trackindex>
						<clipindex>88</clipindex>
					</link>
					<link>
						<linkclipref>010_18_04_A_OK4</linkclipref>
						<mediatype>audio</mediatype>
						<trackindex>3</trackindex>
						<clipindex>86</clipindex>
					</link>
					<link>
						<linkclipref>010_18_04_A_OK5</linkclipref>
						<mediatype>audio</mediatype>
						<trackindex>4</trackindex>
						<clipindex>53</clipindex>
					</link>
					<itemhistory>
						<uuid>ED94D150-63D5-4E5D-A0F5-34D3F2AB8A80</uuid>
					</itemhistory>
				</clipitem>
				<clipitem id="010_19_01_A4">
					<name>010_19_01_A</name>
					<duration>745</duration>
					<rate>
						<ntsc>FALSE</ntsc>
						<timebase>24</timebase>
					</rate>
					<in>0</in>
					<out>745</out>
					<start>45938</start>
					<end>46683</end>
					<subframeoffset>0</subframeoffset>
					<enabled>TRUE</enabled>
					<masterclipid>010_19_01_A1</masterclipid>
					<logginginfo>
						<scene/>
						<shottake/>
						<lognote/>
						<good>FALSE</good>
					</logginginfo>
					<labels>
						<label2/>
					</labels>
					<comments>
						<mastercomment1/>
						<mastercomment2/>
						<mastercomment3/>
						<mastercomment4/>
					</comments>
					<file id="A003C015_221211_R03K"/>
					<filter>
						<effect>
							<name>Audio Levels</name>
							<effectid>audiolevels</effectid>
							<effectcategory>audiolevels</effectcategory>
							<effecttype>audiolevels</effecttype>
							<mediatype>audio</mediatype>
							<parameter>
								<name>Level</name>
								<parameterid>level</parameterid>
								<valuemin>0</valuemin>
								<valuemax>3.98109</valuemax>
								<value>1</value>
							</parameter>
						</effect>
					</filter>
					<filter>
						<effect>
							<name>Audio Pan</name>
							<effectid>audiopan</effectid>
							<effectcategory>audiopan</effectcategory>
							<effecttype>audiopan</effecttype>
							<mediatype>audio</mediatype>
							<parameter>
								<name>Pan</name>
								<parameterid>pan</parameterid>
								<valuemin>-1</valuemin>
								<valuemax>1</valuemax>
								<value>0</value>
							</parameter>
						</effect>
					</filter>
					<sourcetrack>
						<mediatype>audio</mediatype>
						<trackindex>3</trackindex>
					</sourcetrack>
					<link>
						<linkclipref>010_19_01_A</linkclipref>
						<mediatype>video</mediatype>
						<trackindex>1</trackindex>
						<clipindex>89</clipindex>
					</link>
					<link>
						<linkclipref>010_19_01_A2</linkclipref>
						<mediatype>audio</mediatype>
						<trackindex>1</trackindex>
						<clipindex>89</clipindex>
					</link>
					<link>
						<linkclipref>010_19_01_A3</linkclipref>
						<mediatype>audio</mediatype>
						<trackindex>2</trackindex>
						<clipindex>89</clipindex>
					</link>
					<link>
						<linkclipref>010_19_01_A4</linkclipref>
						<mediatype>audio</mediatype>
						<trackindex>3</trackindex>
						<clipindex>87</clipindex>
					</link>
					<itemhistory>
						<uuid>E8C9CE2F-3D25-4341-8110-65299BFA65DA</uuid>
					</itemhistory>
				</clipitem>
				<clipitem id="010_19_02_A_OK4">
					<name>010_19_02_A_OK</name>
					<duration>706</duration>
					<rate>
						<ntsc>FALSE</ntsc>
						<timebase>24</timebase>
					</rate>
					<in>147</in>
					<out>251</out>
					<start>46683</start>
					<end>46787</end>
					<subframeoffset>0</subframeoffset>
					<enabled>TRUE</enabled>
					<masterclipid>010_19_02_A_OK1</masterclipid>
					<logginginfo>
						<scene/>
						<shottake/>
						<lognote/>
						<good>FALSE</good>
					</logginginfo>
					<labels>
						<label2/>
					</labels>
					<comments>
						<mastercomment1/>
						<mastercomment2/>
						<mastercomment3/>
						<mastercomment4/>
					</comments>
					<file id="A003C016_221211_R03K"/>
					<filter>
						<effect>
							<name>Audio Levels</name>
							<effectid>audiolevels</effectid>
							<effectcategory>audiolevels</effectcategory>
							<effecttype>audiolevels</effecttype>
							<mediatype>audio</mediatype>
							<parameter>
								<name>Level</name>
								<parameterid>level</parameterid>
								<valuemin>0</valuemin>
								<valuemax>3.98109</valuemax>
								<value>1</value>
							</parameter>
						</effect>
					</filter>
					<filter>
						<effect>
							<name>Audio Pan</name>
							<effectid>audiopan</effectid>
							<effectcategory>audiopan</effectcategory>
							<effecttype>audiopan</effecttype>
							<mediatype>audio</mediatype>
							<parameter>
								<name>Pan</name>
								<parameterid>pan</parameterid>
								<valuemin>-1</valuemin>
								<valuemax>1</valuemax>
								<value>0</value>
							</parameter>
						</effect>
					</filter>
					<sourcetrack>
						<mediatype>audio</mediatype>
						<trackindex>3</trackindex>
					</sourcetrack>
					<link>
						<linkclipref>010_19_02_A_OK</linkclipref>
						<mediatype>video</mediatype>
						<trackindex>1</trackindex>
						<clipindex>90</clipindex>
					</link>
					<link>
						<linkclipref>010_19_02_A_OK2</linkclipref>
						<mediatype>audio</mediatype>
						<trackindex>1</trackindex>
						<clipindex>90</clipindex>
					</link>
					<link>
						<linkclipref>010_19_02_A_OK3</linkclipref>
						<mediatype>audio</mediatype>
						<trackindex>2</trackindex>
						<clipindex>90</clipindex>
					</link>
					<link>
						<linkclipref>010_19_02_A_OK4</linkclipref>
						<mediatype>audio</mediatype>
						<trackindex>3</trackindex>
						<clipindex>88</clipindex>
					</link>
					<itemhistory>
						<uuid>53691620-31C1-4ECF-BFE6-B669B0A8B581</uuid>
					</itemhistory>
				</clipitem>
				<clipitem id="010_20_01_A4">
					<name>010_20_01_A</name>
					<duration>302</duration>
					<rate>
						<ntsc>FALSE</ntsc>
						<timebase>24</timebase>
					</rate>
					<in>0</in>
					<out>302</out>
					<start>46787</start>
					<end>47089</end>
					<subframeoffset>0</subframeoffset>
					<enabled>TRUE</enabled>
					<masterclipid>010_20_01_A1</masterclipid>
					<logginginfo>
						<scene/>
						<shottake/>
						<lognote/>
						<good>FALSE</good>
					</logginginfo>
					<labels>
						<label2/>
					</labels>
					<comments>
						<mastercomment1/>
						<mastercomment2/>
						<mastercomment3/>
						<mastercomment4/>
					</comments>
					<file id="A003C017_221211_R03K"/>
					<filter>
						<effect>
							<name>Audio Levels</name>
							<effectid>audiolevels</effectid>
							<effectcategory>audiolevels</effectcategory>
							<effecttype>audiolevels</effecttype>
							<mediatype>audio</mediatype>
							<parameter>
								<name>Level</name>
								<parameterid>level</parameterid>
								<valuemin>0</valuemin>
								<valuemax>3.98109</valuemax>
								<value>1</value>
							</parameter>
						</effect>
					</filter>
					<filter>
						<effect>
							<name>Audio Pan</name>
							<effectid>audiopan</effectid>
							<effectcategory>audiopan</effectcategory>
							<effecttype>audiopan</effecttype>
							<mediatype>audio</mediatype>
							<parameter>
								<name>Pan</name>
								<parameterid>pan</parameterid>
								<valuemin>-1</valuemin>
								<valuemax>1</valuemax>
								<value>0</value>
							</parameter>
						</effect>
					</filter>
					<sourcetrack>
						<mediatype>audio</mediatype>
						<trackindex>3</trackindex>
					</sourcetrack>
					<link>
						<linkclipref>010_20_01_A</linkclipref>
						<mediatype>video</mediatype>
						<trackindex>1</trackindex>
						<clipindex>91</clipindex>
					</link>
					<link>
						<linkclipref>010_20_01_A2</linkclipref>
						<mediatype>audio</mediatype>
						<trackindex>1</trackindex>
						<clipindex>91</clipindex>
					</link>
					<link>
						<linkclipref>010_20_01_A3</linkclipref>
						<mediatype>audio</mediatype>
						<trackindex>2</trackindex>
						<clipindex>91</clipindex>
					</link>
					<link>
						<linkclipref>010_20_01_A4</linkclipref>
						<mediatype>audio</mediatype>
						<trackindex>3</trackindex>
						<clipindex>89</clipindex>
					</link>
					<itemhistory>
						<uuid>3EC9148C-D33F-4F0B-975D-C0E245925CB0</uuid>
					</itemhistory>
				</clipitem>
				<clipitem id="010_20_02_A4">
					<name>010_20_02_A</name>
					<duration>399</duration>
					<rate>
						<ntsc>FALSE</ntsc>
						<timebase>24</timebase>
					</rate>
					<in>0</in>
					<out>399</out>
					<start>47089</start>
					<end>47488</end>
					<subframeoffset>0</subframeoffset>
					<enabled>TRUE</enabled>
					<masterclipid>010_20_02_A1</masterclipid>
					<logginginfo>
						<scene/>
						<shottake/>
						<lognote/>
						<good>FALSE</good>
					</logginginfo>
					<labels>
						<label2/>
					</labels>
					<comments>
						<mastercomment1/>
						<mastercomment2/>
						<mastercomment3/>
						<mastercomment4/>
					</comments>
					<file id="A003C018_221211_R03K"/>
					<filter>
						<effect>
							<name>Audio Levels</name>
							<effectid>audiolevels</effectid>
							<effectcategory>audiolevels</effectcategory>
							<effecttype>audiolevels</effecttype>
							<mediatype>audio</mediatype>
							<parameter>
								<name>Level</name>
								<parameterid>level</parameterid>
								<valuemin>0</valuemin>
								<valuemax>3.98109</valuemax>
								<value>1</value>
							</parameter>
						</effect>
					</filter>
					<filter>
						<effect>
							<name>Audio Pan</name>
							<effectid>audiopan</effectid>
							<effectcategory>audiopan</effectcategory>
							<effecttype>audiopan</effecttype>
							<mediatype>audio</mediatype>
							<parameter>
								<name>Pan</name>
								<parameterid>pan</parameterid>
								<valuemin>-1</valuemin>
								<valuemax>1</valuemax>
								<value>0</value>
							</parameter>
						</effect>
					</filter>
					<sourcetrack>
						<mediatype>audio</mediatype>
						<trackindex>3</trackindex>
					</sourcetrack>
					<link>
						<linkclipref>010_20_02_A</linkclipref>
						<mediatype>video</mediatype>
						<trackindex>1</trackindex>
						<clipindex>92</clipindex>
					</link>
					<link>
						<linkclipref>010_20_02_A2</linkclipref>
						<mediatype>audio</mediatype>
						<trackindex>1</trackindex>
						<clipindex>92</clipindex>
					</link>
					<link>
						<linkclipref>010_20_02_A3</linkclipref>
						<mediatype>audio</mediatype>
						<trackindex>2</trackindex>
						<clipindex>92</clipindex>
					</link>
					<link>
						<linkclipref>010_20_02_A4</linkclipref>
						<mediatype>audio</mediatype>
						<trackindex>3</trackindex>
						<clipindex>90</clipindex>
					</link>
					<itemhistory>
						<uuid>9520312D-4B39-4B76-B9DE-ABA78BC8EB1B</uuid>
					</itemhistory>
				</clipitem>
				<clipitem id="010_20_03_A_OK4">
					<name>010_20_03_A_OK</name>
					<duration>424</duration>
					<rate>
						<ntsc>FALSE</ntsc>
						<timebase>24</timebase>
					</rate>
					<in>127</in>
					<out>224</out>
					<start>47488</start>
					<end>47585</end>
					<subframeoffset>0</subframeoffset>
					<enabled>TRUE</enabled>
					<masterclipid>010_20_03_A_OK1</masterclipid>
					<logginginfo>
						<scene/>
						<shottake/>
						<lognote/>
						<good>FALSE</good>
					</logginginfo>
					<labels>
						<label2/>
					</labels>
					<comments>
						<mastercomment1/>
						<mastercomment2/>
						<mastercomment3/>
						<mastercomment4/>
					</comments>
					<file id="A003C019_221211_R03K"/>
					<filter>
						<effect>
							<name>Audio Levels</name>
							<effectid>audiolevels</effectid>
							<effectcategory>audiolevels</effectcategory>
							<effecttype>audiolevels</effecttype>
							<mediatype>audio</mediatype>
							<parameter>
								<name>Level</name>
								<parameterid>level</parameterid>
								<valuemin>0</valuemin>
								<valuemax>3.98109</valuemax>
								<value>1</value>
							</parameter>
						</effect>
					</filter>
					<filter>
						<effect>
							<name>Audio Pan</name>
							<effectid>audiopan</effectid>
							<effectcategory>audiopan</effectcategory>
							<effecttype>audiopan</effecttype>
							<mediatype>audio</mediatype>
							<parameter>
								<name>Pan</name>
								<parameterid>pan</parameterid>
								<valuemin>-1</valuemin>
								<valuemax>1</valuemax>
								<value>0</value>
							</parameter>
						</effect>
					</filter>
					<sourcetrack>
						<mediatype>audio</mediatype>
						<trackindex>3</trackindex>
					</sourcetrack>
					<link>
						<linkclipref>010_20_03_A_OK</linkclipref>
						<mediatype>video</mediatype>
						<trackindex>1</trackindex>
						<clipindex>93</clipindex>
					</link>
					<link>
						<linkclipref>010_20_03_A_OK2</linkclipref>
						<mediatype>audio</mediatype>
						<trackindex>1</trackindex>
						<clipindex>93</clipindex>
					</link>
					<link>
						<linkclipref>010_20_03_A_OK3</linkclipref>
						<mediatype>audio</mediatype>
						<trackindex>2</trackindex>
						<clipindex>93</clipindex>
					</link>
					<link>
						<linkclipref>010_20_03_A_OK4</linkclipref>
						<mediatype>audio</mediatype>
						<trackindex>3</trackindex>
						<clipindex>91</clipindex>
					</link>
					<itemhistory>
						<uuid>92995B47-8432-4CA6-AB0C-24566A7209DD</uuid>
					</itemhistory>
				</clipitem>
				<clipitem id="010_21_01_A4">
					<name>010_21_01_A</name>
					<duration>543</duration>
					<rate>
						<ntsc>FALSE</ntsc>
						<timebase>24</timebase>
					</rate>
					<in>277</in>
					<out>327</out>
					<start>47585</start>
					<end>47635</end>
					<subframeoffset>0</subframeoffset>
					<enabled>TRUE</enabled>
					<masterclipid>010_21_01_A1</masterclipid>
					<logginginfo>
						<scene/>
						<shottake/>
						<lognote/>
						<good>FALSE</good>
					</logginginfo>
					<labels>
						<label2/>
					</labels>
					<comments>
						<mastercomment1/>
						<mastercomment2/>
						<mastercomment3/>
						<mastercomment4/>
					</comments>
					<file id="A003C020_221211_R03K"/>
					<filter>
						<effect>
							<name>Audio Levels</name>
							<effectid>audiolevels</effectid>
							<effectcategory>audiolevels</effectcategory>
							<effecttype>audiolevels</effecttype>
							<mediatype>audio</mediatype>
							<parameter>
								<name>Level</name>
								<parameterid>level</parameterid>
								<valuemin>0</valuemin>
								<valuemax>3.98109</valuemax>
								<value>1</value>
							</parameter>
						</effect>
					</filter>
					<filter>
						<effect>
							<name>Audio Pan</name>
							<effectid>audiopan</effectid>
							<effectcategory>audiopan</effectcategory>
							<effecttype>audiopan</effecttype>
							<mediatype>audio</mediatype>
							<parameter>
								<name>Pan</name>
								<parameterid>pan</parameterid>
								<valuemin>-1</valuemin>
								<valuemax>1</valuemax>
								<value>0</value>
							</parameter>
						</effect>
					</filter>
					<sourcetrack>
						<mediatype>audio</mediatype>
						<trackindex>3</trackindex>
					</sourcetrack>
					<link>
						<linkclipref>010_21_01_A</linkclipref>
						<mediatype>video</mediatype>
						<trackindex>1</trackindex>
						<clipindex>94</clipindex>
					</link>
					<link>
						<linkclipref>010_21_01_A2</linkclipref>
						<mediatype>audio</mediatype>
						<trackindex>1</trackindex>
						<clipindex>94</clipindex>
					</link>
					<link>
						<linkclipref>010_21_01_A3</linkclipref>
						<mediatype>audio</mediatype>
						<trackindex>2</trackindex>
						<clipindex>94</clipindex>
					</link>
					<link>
						<linkclipref>010_21_01_A4</linkclipref>
						<mediatype>audio</mediatype>
						<trackindex>3</trackindex>
						<clipindex>92</clipindex>
					</link>
					<itemhistory>
						<uuid>420FA9E2-C026-4E9F-86C9-C037D61C8F0C</uuid>
					</itemhistory>
				</clipitem>
				<clipitem id="010_21_02_A4">
					<name>010_21_02_A</name>
					<duration>773</duration>
					<rate>
						<ntsc>FALSE</ntsc>
						<timebase>24</timebase>
					</rate>
					<in>534</in>
					<out>602</out>
					<start>47635</start>
					<end>47703</end>
					<subframeoffset>0</subframeoffset>
					<enabled>TRUE</enabled>
					<masterclipid>010_21_02_A1</masterclipid>
					<logginginfo>
						<scene/>
						<shottake/>
						<lognote/>
						<good>FALSE</good>
					</logginginfo>
					<labels>
						<label2/>
					</labels>
					<comments>
						<mastercomment1/>
						<mastercomment2/>
						<mastercomment3/>
						<mastercomment4/>
					</comments>
					<file id="A003C021_221211_R03K"/>
					<filter>
						<effect>
							<name>Audio Levels</name>
							<effectid>audiolevels</effectid>
							<effectcategory>audiolevels</effectcategory>
							<effecttype>audiolevels</effecttype>
							<mediatype>audio</mediatype>
							<parameter>
								<name>Level</name>
								<parameterid>level</parameterid>
								<valuemin>0</valuemin>
								<valuemax>3.98109</valuemax>
								<value>1</value>
							</parameter>
						</effect>
					</filter>
					<filter>
						<effect>
							<name>Audio Pan</name>
							<effectid>audiopan</effectid>
							<effectcategory>audiopan</effectcategory>
							<effecttype>audiopan</effecttype>
							<mediatype>audio</mediatype>
							<parameter>
								<name>Pan</name>
								<parameterid>pan</parameterid>
								<valuemin>-1</valuemin>
								<valuemax>1</valuemax>
								<value>0</value>
							</parameter>
						</effect>
					</filter>
					<sourcetrack>
						<mediatype>audio</mediatype>
						<trackindex>3</trackindex>
					</sourcetrack>
					<link>
						<linkclipref>010_21_02_A</linkclipref>
						<mediatype>video</mediatype>
						<trackindex>1</trackindex>
						<clipindex>95</clipindex>
					</link>
					<link>
						<linkclipref>010_21_02_A2</linkclipref>
						<mediatype>audio</mediatype>
						<trackindex>1</trackindex>
						<clipindex>95</clipindex>
					</link>
					<link>
						<linkclipref>010_21_02_A3</linkclipref>
						<mediatype>audio</mediatype>
						<trackindex>2</trackindex>
						<clipindex>95</clipindex>
					</link>
					<link>
						<linkclipref>010_21_02_A4</linkclipref>
						<mediatype>audio</mediatype>
						<trackindex>3</trackindex>
						<clipindex>93</clipindex>
					</link>
					<itemhistory>
						<uuid>FD9EDC4D-907D-462B-9ED4-DCCCA4D76C1B</uuid>
					</itemhistory>
				</clipitem>
				<clipitem id="010_21_03_A4">
					<name>010_21_03_A</name>
					<duration>605</duration>
					<rate>
						<ntsc>FALSE</ntsc>
						<timebase>24</timebase>
					</rate>
					<in>0</in>
					<out>605</out>
					<start>47703</start>
					<end>48308</end>
					<subframeoffset>0</subframeoffset>
					<enabled>TRUE</enabled>
					<masterclipid>010_21_03_A1</masterclipid>
					<logginginfo>
						<scene/>
						<shottake/>
						<lognote/>
						<good>FALSE</good>
					</logginginfo>
					<labels>
						<label2/>
					</labels>
					<comments>
						<mastercomment1/>
						<mastercomment2/>
						<mastercomment3/>
						<mastercomment4/>
					</comments>
					<file id="A003C022_221211_R03K"/>
					<filter>
						<effect>
							<name>Audio Levels</name>
							<effectid>audiolevels</effectid>
							<effectcategory>audiolevels</effectcategory>
							<effecttype>audiolevels</effecttype>
							<mediatype>audio</mediatype>
							<parameter>
								<name>Level</name>
								<parameterid>level</parameterid>
								<valuemin>0</valuemin>
								<valuemax>3.98109</valuemax>
								<value>1</value>
							</parameter>
						</effect>
					</filter>
					<filter>
						<effect>
							<name>Audio Pan</name>
							<effectid>audiopan</effectid>
							<effectcategory>audiopan</effectcategory>
							<effecttype>audiopan</effecttype>
							<mediatype>audio</mediatype>
							<parameter>
								<name>Pan</name>
								<parameterid>pan</parameterid>
								<valuemin>-1</valuemin>
								<valuemax>1</valuemax>
								<value>0</value>
							</parameter>
						</effect>
					</filter>
					<sourcetrack>
						<mediatype>audio</mediatype>
						<trackindex>3</trackindex>
					</sourcetrack>
					<link>
						<linkclipref>010_21_03_A</linkclipref>
						<mediatype>video</mediatype>
						<trackindex>1</trackindex>
						<clipindex>96</clipindex>
					</link>
					<link>
						<linkclipref>010_21_03_A2</linkclipref>
						<mediatype>audio</mediatype>
						<trackindex>1</trackindex>
						<clipindex>96</clipindex>
					</link>
					<link>
						<linkclipref>010_21_03_A3</linkclipref>
						<mediatype>audio</mediatype>
						<trackindex>2</trackindex>
						<clipindex>96</clipindex>
					</link>
					<link>
						<linkclipref>010_21_03_A4</linkclipref>
						<mediatype>audio</mediatype>
						<trackindex>3</trackindex>
						<clipindex>94</clipindex>
					</link>
					<itemhistory>
						<uuid>8603C92F-FBB0-4E82-BF88-C2E3232613BE</uuid>
					</itemhistory>
				</clipitem>
				<clipitem id="010_21_04_A4">
					<name>010_21_04_A</name>
					<duration>542</duration>
					<rate>
						<ntsc>FALSE</ntsc>
						<timebase>24</timebase>
					</rate>
					<in>0</in>
					<out>542</out>
					<start>48308</start>
					<end>48850</end>
					<subframeoffset>0</subframeoffset>
					<enabled>TRUE</enabled>
					<masterclipid>010_21_04_A1</masterclipid>
					<logginginfo>
						<scene/>
						<shottake/>
						<lognote/>
						<good>FALSE</good>
					</logginginfo>
					<labels>
						<label2/>
					</labels>
					<comments>
						<mastercomment1/>
						<mastercomment2/>
						<mastercomment3/>
						<mastercomment4/>
					</comments>
					<file id="A003C023_221211_R03K"/>
					<filter>
						<effect>
							<name>Audio Levels</name>
							<effectid>audiolevels</effectid>
							<effectcategory>audiolevels</effectcategory>
							<effecttype>audiolevels</effecttype>
							<mediatype>audio</mediatype>
							<parameter>
								<name>Level</name>
								<parameterid>level</parameterid>
								<valuemin>0</valuemin>
								<valuemax>3.98109</valuemax>
								<value>1</value>
							</parameter>
						</effect>
					</filter>
					<filter>
						<effect>
							<name>Audio Pan</name>
							<effectid>audiopan</effectid>
							<effectcategory>audiopan</effectcategory>
							<effecttype>audiopan</effecttype>
							<mediatype>audio</mediatype>
							<parameter>
								<name>Pan</name>
								<parameterid>pan</parameterid>
								<valuemin>-1</valuemin>
								<valuemax>1</valuemax>
								<value>0</value>
							</parameter>
						</effect>
					</filter>
					<sourcetrack>
						<mediatype>audio</mediatype>
						<trackindex>3</trackindex>
					</sourcetrack>
					<link>
						<linkclipref>010_21_04_A</linkclipref>
						<mediatype>video</mediatype>
						<trackindex>1</trackindex>
						<clipindex>97</clipindex>
					</link>
					<link>
						<linkclipref>010_21_04_A2</linkclipref>
						<mediatype>audio</mediatype>
						<trackindex>1</trackindex>
						<clipindex>97</clipindex>
					</link>
					<link>
						<linkclipref>010_21_04_A3</linkclipref>
						<mediatype>audio</mediatype>
						<trackindex>2</trackindex>
						<clipindex>97</clipindex>
					</link>
					<link>
						<linkclipref>010_21_04_A4</linkclipref>
						<mediatype>audio</mediatype>
						<trackindex>3</trackindex>
						<clipindex>95</clipindex>
					</link>
					<itemhistory>
						<uuid>38B362C2-BED2-43E5-B763-D5E96B3359BA</uuid>
					</itemhistory>
				</clipitem>
				<clipitem id="010_21_05_A_OK4">
					<name>010_21_05_A_OK</name>
					<duration>511</duration>
					<rate>
						<ntsc>FALSE</ntsc>
						<timebase>24</timebase>
					</rate>
					<in>230</in>
					<out>287</out>
					<start>48850</start>
					<end>48907</end>
					<subframeoffset>0</subframeoffset>
					<enabled>TRUE</enabled>
					<masterclipid>010_21_05_A_OK1</masterclipid>
					<logginginfo>
						<scene/>
						<shottake/>
						<lognote/>
						<good>FALSE</good>
					</logginginfo>
					<labels>
						<label2/>
					</labels>
					<comments>
						<mastercomment1/>
						<mastercomment2/>
						<mastercomment3/>
						<mastercomment4/>
					</comments>
					<file id="A003C024_221211_R03K"/>
					<filter>
						<effect>
							<name>Audio Levels</name>
							<effectid>audiolevels</effectid>
							<effectcategory>audiolevels</effectcategory>
							<effecttype>audiolevels</effecttype>
							<mediatype>audio</mediatype>
							<parameter>
								<name>Level</name>
								<parameterid>level</parameterid>
								<valuemin>0</valuemin>
								<valuemax>3.98109</valuemax>
								<value>1</value>
							</parameter>
						</effect>
					</filter>
					<filter>
						<effect>
							<name>Audio Pan</name>
							<effectid>audiopan</effectid>
							<effectcategory>audiopan</effectcategory>
							<effecttype>audiopan</effecttype>
							<mediatype>audio</mediatype>
							<parameter>
								<name>Pan</name>
								<parameterid>pan</parameterid>
								<valuemin>-1</valuemin>
								<valuemax>1</valuemax>
								<value>0</value>
							</parameter>
						</effect>
					</filter>
					<sourcetrack>
						<mediatype>audio</mediatype>
						<trackindex>3</trackindex>
					</sourcetrack>
					<link>
						<linkclipref>010_21_05_A_OK</linkclipref>
						<mediatype>video</mediatype>
						<trackindex>1</trackindex>
						<clipindex>98</clipindex>
					</link>
					<link>
						<linkclipref>010_21_05_A_OK2</linkclipref>
						<mediatype>audio</mediatype>
						<trackindex>1</trackindex>
						<clipindex>98</clipindex>
					</link>
					<link>
						<linkclipref>010_21_05_A_OK3</linkclipref>
						<mediatype>audio</mediatype>
						<trackindex>2</trackindex>
						<clipindex>98</clipindex>
					</link>
					<link>
						<linkclipref>010_21_05_A_OK4</linkclipref>
						<mediatype>audio</mediatype>
						<trackindex>3</trackindex>
						<clipindex>96</clipindex>
					</link>
					<itemhistory>
						<uuid>E91B13D4-ACD4-4232-8293-716350C0FF0A</uuid>
					</itemhistory>
				</clipitem>
				<clipitem id="010_22_01_A4">
					<name>010_22_01_A</name>
					<duration>232</duration>
					<rate>
						<ntsc>FALSE</ntsc>
						<timebase>24</timebase>
					</rate>
					<in>0</in>
					<out>232</out>
					<start>48907</start>
					<end>49139</end>
					<subframeoffset>0</subframeoffset>
					<enabled>TRUE</enabled>
					<masterclipid>010_22_01_A1</masterclipid>
					<logginginfo>
						<scene/>
						<shottake/>
						<lognote/>
						<good>FALSE</good>
					</logginginfo>
					<labels>
						<label2/>
					</labels>
					<comments>
						<mastercomment1/>
						<mastercomment2/>
						<mastercomment3/>
						<mastercomment4/>
					</comments>
					<file id="A003C025_221211_R03K"/>
					<filter>
						<effect>
							<name>Audio Levels</name>
							<effectid>audiolevels</effectid>
							<effectcategory>audiolevels</effectcategory>
							<effecttype>audiolevels</effecttype>
							<mediatype>audio</mediatype>
							<parameter>
								<name>Level</name>
								<parameterid>level</parameterid>
								<valuemin>0</valuemin>
								<valuemax>3.98109</valuemax>
								<value>1</value>
							</parameter>
						</effect>
					</filter>
					<filter>
						<effect>
							<name>Audio Pan</name>
							<effectid>audiopan</effectid>
							<effectcategory>audiopan</effectcategory>
							<effecttype>audiopan</effecttype>
							<mediatype>audio</mediatype>
							<parameter>
								<name>Pan</name>
								<parameterid>pan</parameterid>
								<valuemin>-1</valuemin>
								<valuemax>1</valuemax>
								<value>0</value>
							</parameter>
						</effect>
					</filter>
					<sourcetrack>
						<mediatype>audio</mediatype>
						<trackindex>3</trackindex>
					</sourcetrack>
					<link>
						<linkclipref>010_22_01_A</linkclipref>
						<mediatype>video</mediatype>
						<trackindex>1</trackindex>
						<clipindex>99</clipindex>
					</link>
					<link>
						<linkclipref>010_22_01_A2</linkclipref>
						<mediatype>audio</mediatype>
						<trackindex>1</trackindex>
						<clipindex>99</clipindex>
					</link>
					<link>
						<linkclipref>010_22_01_A3</linkclipref>
						<mediatype>audio</mediatype>
						<trackindex>2</trackindex>
						<clipindex>99</clipindex>
					</link>
					<link>
						<linkclipref>010_22_01_A4</linkclipref>
						<mediatype>audio</mediatype>
						<trackindex>3</trackindex>
						<clipindex>97</clipindex>
					</link>
					<itemhistory>
						<uuid>A9CD7261-5516-48FB-BC04-54FACC89A593</uuid>
					</itemhistory>
				</clipitem>
				<clipitem id="010_22_02_A4">
					<name>010_22_02_A</name>
					<duration>327</duration>
					<rate>
						<ntsc>FALSE</ntsc>
						<timebase>24</timebase>
					</rate>
					<in>0</in>
					<out>327</out>
					<start>49139</start>
					<end>49466</end>
					<subframeoffset>0</subframeoffset>
					<enabled>TRUE</enabled>
					<masterclipid>010_22_02_A1</masterclipid>
					<logginginfo>
						<scene/>
						<shottake/>
						<lognote/>
						<good>FALSE</good>
					</logginginfo>
					<labels>
						<label2/>
					</labels>
					<comments>
						<mastercomment1/>
						<mastercomment2/>
						<mastercomment3/>
						<mastercomment4/>
					</comments>
					<file id="A003C026_221211_R03K"/>
					<filter>
						<effect>
							<name>Audio Levels</name>
							<effectid>audiolevels</effectid>
							<effectcategory>audiolevels</effectcategory>
							<effecttype>audiolevels</effecttype>
							<mediatype>audio</mediatype>
							<parameter>
								<name>Level</name>
								<parameterid>level</parameterid>
								<valuemin>0</valuemin>
								<valuemax>3.98109</valuemax>
								<value>1</value>
							</parameter>
						</effect>
					</filter>
					<filter>
						<effect>
							<name>Audio Pan</name>
							<effectid>audiopan</effectid>
							<effectcategory>audiopan</effectcategory>
							<effecttype>audiopan</effecttype>
							<mediatype>audio</mediatype>
							<parameter>
								<name>Pan</name>
								<parameterid>pan</parameterid>
								<valuemin>-1</valuemin>
								<valuemax>1</valuemax>
								<value>0</value>
							</parameter>
						</effect>
					</filter>
					<sourcetrack>
						<mediatype>audio</mediatype>
						<trackindex>3</trackindex>
					</sourcetrack>
					<link>
						<linkclipref>010_22_02_A</linkclipref>
						<mediatype>video</mediatype>
						<trackindex>1</trackindex>
						<clipindex>100</clipindex>
					</link>
					<link>
						<linkclipref>010_22_02_A2</linkclipref>
						<mediatype>audio</mediatype>
						<trackindex>1</trackindex>
						<clipindex>100</clipindex>
					</link>
					<link>
						<linkclipref>010_22_02_A3</linkclipref>
						<mediatype>audio</mediatype>
						<trackindex>2</trackindex>
						<clipindex>100</clipindex>
					</link>
					<link>
						<linkclipref>010_22_02_A4</linkclipref>
						<mediatype>audio</mediatype>
						<trackindex>3</trackindex>
						<clipindex>98</clipindex>
					</link>
					<itemhistory>
						<uuid>36DA3211-A007-418B-9C8C-B4BD7335B9F0</uuid>
					</itemhistory>
				</clipitem>
				<clipitem id="010_22_03_A_OK4">
					<name>010_22_03_A_OK</name>
					<duration>374</duration>
					<rate>
						<ntsc>FALSE</ntsc>
						<timebase>24</timebase>
					</rate>
					<in>101</in>
					<out>186</out>
					<start>49466</start>
					<end>49551</end>
					<subframeoffset>0</subframeoffset>
					<enabled>TRUE</enabled>
					<masterclipid>010_22_03_A_OK1</masterclipid>
					<logginginfo>
						<scene/>
						<shottake/>
						<lognote/>
						<good>FALSE</good>
					</logginginfo>
					<labels>
						<label2/>
					</labels>
					<comments>
						<mastercomment1/>
						<mastercomment2/>
						<mastercomment3/>
						<mastercomment4/>
					</comments>
					<file id="A003C027_221211_R03K"/>
					<filter>
						<effect>
							<name>Audio Levels</name>
							<effectid>audiolevels</effectid>
							<effectcategory>audiolevels</effectcategory>
							<effecttype>audiolevels</effecttype>
							<mediatype>audio</mediatype>
							<parameter>
								<name>Level</name>
								<parameterid>level</parameterid>
								<valuemin>0</valuemin>
								<valuemax>3.98109</valuemax>
								<value>1</value>
							</parameter>
						</effect>
					</filter>
					<filter>
						<effect>
							<name>Audio Pan</name>
							<effectid>audiopan</effectid>
							<effectcategory>audiopan</effectcategory>
							<effecttype>audiopan</effecttype>
							<mediatype>audio</mediatype>
							<parameter>
								<name>Pan</name>
								<parameterid>pan</parameterid>
								<valuemin>-1</valuemin>
								<valuemax>1</valuemax>
								<value>0</value>
							</parameter>
						</effect>
					</filter>
					<sourcetrack>
						<mediatype>audio</mediatype>
						<trackindex>3</trackindex>
					</sourcetrack>
					<link>
						<linkclipref>010_22_03_A_OK</linkclipref>
						<mediatype>video</mediatype>
						<trackindex>1</trackindex>
						<clipindex>101</clipindex>
					</link>
					<link>
						<linkclipref>010_22_03_A_OK2</linkclipref>
						<mediatype>audio</mediatype>
						<trackindex>1</trackindex>
						<clipindex>101</clipindex>
					</link>
					<link>
						<linkclipref>010_22_03_A_OK3</linkclipref>
						<mediatype>audio</mediatype>
						<trackindex>2</trackindex>
						<clipindex>101</clipindex>
					</link>
					<link>
						<linkclipref>010_22_03_A_OK4</linkclipref>
						<mediatype>audio</mediatype>
						<trackindex>3</trackindex>
						<clipindex>99</clipindex>
					</link>
					<itemhistory>
						<uuid>E06FF8AA-B027-472B-9B38-07A13B3B6258</uuid>
					</itemhistory>
				</clipitem>
				<enabled>TRUE</enabled>
				<locked>FALSE</locked>
				<outputchannelindex>1</outputchannelindex>
			</track>
			<track>
				<clipitem id="010_01_01_A5">
					<name>010_01_01_A</name>
					<duration>628</duration>
					<rate>
						<ntsc>FALSE</ntsc>
						<timebase>24</timebase>
					</rate>
					<in>0</in>
					<out>628</out>
					<start>0</start>
					<end>628</end>
					<subframeoffset>0</subframeoffset>
					<enabled>TRUE</enabled>
					<masterclipid>010_01_01_A1</masterclipid>
					<logginginfo>
						<scene/>
						<shottake/>
						<lognote/>
						<good>FALSE</good>
					</logginginfo>
					<labels>
						<label2/>
					</labels>
					<comments>
						<mastercomment1/>
						<mastercomment2/>
						<mastercomment3/>
						<mastercomment4/>
					</comments>
					<file id="A001C019_221211_R03K"/>
					<filter>
						<effect>
							<name>Audio Levels</name>
							<effectid>audiolevels</effectid>
							<effectcategory>audiolevels</effectcategory>
							<effecttype>audiolevels</effecttype>
							<mediatype>audio</mediatype>
							<parameter>
								<name>Level</name>
								<parameterid>level</parameterid>
								<valuemin>0</valuemin>
								<valuemax>3.98109</valuemax>
								<value>1</value>
							</parameter>
						</effect>
					</filter>
					<filter>
						<effect>
							<name>Audio Pan</name>
							<effectid>audiopan</effectid>
							<effectcategory>audiopan</effectcategory>
							<effecttype>audiopan</effecttype>
							<mediatype>audio</mediatype>
							<parameter>
								<name>Pan</name>
								<parameterid>pan</parameterid>
								<valuemin>-1</valuemin>
								<valuemax>1</valuemax>
								<value>0</value>
							</parameter>
						</effect>
					</filter>
					<sourcetrack>
						<mediatype>audio</mediatype>
						<trackindex>4</trackindex>
					</sourcetrack>
					<link>
						<linkclipref>010_01_01_A</linkclipref>
						<mediatype>video</mediatype>
						<trackindex>1</trackindex>
						<clipindex>1</clipindex>
					</link>
					<link>
						<linkclipref>010_01_01_A2</linkclipref>
						<mediatype>audio</mediatype>
						<trackindex>1</trackindex>
						<clipindex>1</clipindex>
					</link>
					<link>
						<linkclipref>010_01_01_A3</linkclipref>
						<mediatype>audio</mediatype>
						<trackindex>2</trackindex>
						<clipindex>1</clipindex>
					</link>
					<link>
						<linkclipref>010_01_01_A4</linkclipref>
						<mediatype>audio</mediatype>
						<trackindex>3</trackindex>
						<clipindex>1</clipindex>
					</link>
					<link>
						<linkclipref>010_01_01_A5</linkclipref>
						<mediatype>audio</mediatype>
						<trackindex>4</trackindex>
						<clipindex>1</clipindex>
					</link>
					<itemhistory>
						<uuid>DF9CF8DD-BC69-4470-A422-C828BAD4A5B4</uuid>
					</itemhistory>
				</clipitem>
				<clipitem id="010_01_01_B5">
					<name>010_01_01_B</name>
					<duration>676</duration>
					<rate>
						<ntsc>FALSE</ntsc>
						<timebase>24</timebase>
					</rate>
					<in>0</in>
					<out>676</out>
					<start>628</start>
					<end>1304</end>
					<subframeoffset>0</subframeoffset>
					<enabled>TRUE</enabled>
					<masterclipid>010_01_01_B1</masterclipid>
					<logginginfo>
						<scene/>
						<shottake/>
						<lognote/>
						<good>FALSE</good>
					</logginginfo>
					<labels>
						<label2/>
					</labels>
					<comments>
						<mastercomment1/>
						<mastercomment2/>
						<mastercomment3/>
						<mastercomment4/>
					</comments>
					<file id="B001C006_130101_R1WX"/>
					<filter>
						<effect>
							<name>Audio Levels</name>
							<effectid>audiolevels</effectid>
							<effectcategory>audiolevels</effectcategory>
							<effecttype>audiolevels</effecttype>
							<mediatype>audio</mediatype>
							<parameter>
								<name>Level</name>
								<parameterid>level</parameterid>
								<valuemin>0</valuemin>
								<valuemax>3.98109</valuemax>
								<value>1</value>
							</parameter>
						</effect>
					</filter>
					<filter>
						<effect>
							<name>Audio Pan</name>
							<effectid>audiopan</effectid>
							<effectcategory>audiopan</effectcategory>
							<effecttype>audiopan</effecttype>
							<mediatype>audio</mediatype>
							<parameter>
								<name>Pan</name>
								<parameterid>pan</parameterid>
								<valuemin>-1</valuemin>
								<valuemax>1</valuemax>
								<value>0</value>
							</parameter>
						</effect>
					</filter>
					<sourcetrack>
						<mediatype>audio</mediatype>
						<trackindex>4</trackindex>
					</sourcetrack>
					<link>
						<linkclipref>010_01_01_B</linkclipref>
						<mediatype>video</mediatype>
						<trackindex>1</trackindex>
						<clipindex>2</clipindex>
					</link>
					<link>
						<linkclipref>010_01_01_B2</linkclipref>
						<mediatype>audio</mediatype>
						<trackindex>1</trackindex>
						<clipindex>2</clipindex>
					</link>
					<link>
						<linkclipref>010_01_01_B3</linkclipref>
						<mediatype>audio</mediatype>
						<trackindex>2</trackindex>
						<clipindex>2</clipindex>
					</link>
					<link>
						<linkclipref>010_01_01_B4</linkclipref>
						<mediatype>audio</mediatype>
						<trackindex>3</trackindex>
						<clipindex>2</clipindex>
					</link>
					<link>
						<linkclipref>010_01_01_B5</linkclipref>
						<mediatype>audio</mediatype>
						<trackindex>4</trackindex>
						<clipindex>2</clipindex>
					</link>
					<itemhistory>
						<uuid>D309CE28-D22D-440D-9062-AA9B3D18BF81</uuid>
					</itemhistory>
				</clipitem>
				<clipitem id="010_01_02_A5">
					<name>010_01_02_A</name>
					<duration>638</duration>
					<rate>
						<ntsc>FALSE</ntsc>
						<timebase>24</timebase>
					</rate>
					<in>0</in>
					<out>638</out>
					<start>1304</start>
					<end>1942</end>
					<subframeoffset>0</subframeoffset>
					<enabled>TRUE</enabled>
					<masterclipid>010_01_02_A1</masterclipid>
					<logginginfo>
						<scene/>
						<shottake/>
						<lognote/>
						<good>FALSE</good>
					</logginginfo>
					<labels>
						<label2/>
					</labels>
					<comments>
						<mastercomment1/>
						<mastercomment2/>
						<mastercomment3/>
						<mastercomment4/>
					</comments>
					<file id="A001C020_221211_R03K"/>
					<filter>
						<effect>
							<name>Audio Levels</name>
							<effectid>audiolevels</effectid>
							<effectcategory>audiolevels</effectcategory>
							<effecttype>audiolevels</effecttype>
							<mediatype>audio</mediatype>
							<parameter>
								<name>Level</name>
								<parameterid>level</parameterid>
								<valuemin>0</valuemin>
								<valuemax>3.98109</valuemax>
								<value>1</value>
							</parameter>
						</effect>
					</filter>
					<filter>
						<effect>
							<name>Audio Pan</name>
							<effectid>audiopan</effectid>
							<effectcategory>audiopan</effectcategory>
							<effecttype>audiopan</effecttype>
							<mediatype>audio</mediatype>
							<parameter>
								<name>Pan</name>
								<parameterid>pan</parameterid>
								<valuemin>-1</valuemin>
								<valuemax>1</valuemax>
								<value>0</value>
							</parameter>
						</effect>
					</filter>
					<sourcetrack>
						<mediatype>audio</mediatype>
						<trackindex>4</trackindex>
					</sourcetrack>
					<link>
						<linkclipref>010_01_02_A</linkclipref>
						<mediatype>video</mediatype>
						<trackindex>1</trackindex>
						<clipindex>3</clipindex>
					</link>
					<link>
						<linkclipref>010_01_02_A2</linkclipref>
						<mediatype>audio</mediatype>
						<trackindex>1</trackindex>
						<clipindex>3</clipindex>
					</link>
					<link>
						<linkclipref>010_01_02_A3</linkclipref>
						<mediatype>audio</mediatype>
						<trackindex>2</trackindex>
						<clipindex>3</clipindex>
					</link>
					<link>
						<linkclipref>010_01_02_A4</linkclipref>
						<mediatype>audio</mediatype>
						<trackindex>3</trackindex>
						<clipindex>3</clipindex>
					</link>
					<link>
						<linkclipref>010_01_02_A5</linkclipref>
						<mediatype>audio</mediatype>
						<trackindex>4</trackindex>
						<clipindex>3</clipindex>
					</link>
					<itemhistory>
						<uuid>55603D4E-4C42-4373-8C62-93F738C7C233</uuid>
					</itemhistory>
				</clipitem>
				<clipitem id="010_01_02_B5">
					<name>010_01_02_B</name>
					<duration>691</duration>
					<rate>
						<ntsc>FALSE</ntsc>
						<timebase>24</timebase>
					</rate>
					<in>0</in>
					<out>691</out>
					<start>1942</start>
					<end>2633</end>
					<subframeoffset>0</subframeoffset>
					<enabled>TRUE</enabled>
					<masterclipid>010_01_02_B1</masterclipid>
					<logginginfo>
						<scene/>
						<shottake/>
						<lognote/>
						<good>FALSE</good>
					</logginginfo>
					<labels>
						<label2/>
					</labels>
					<comments>
						<mastercomment1/>
						<mastercomment2/>
						<mastercomment3/>
						<mastercomment4/>
					</comments>
					<file id="B001C007_130101_R1WX"/>
					<filter>
						<effect>
							<name>Audio Levels</name>
							<effectid>audiolevels</effectid>
							<effectcategory>audiolevels</effectcategory>
							<effecttype>audiolevels</effecttype>
							<mediatype>audio</mediatype>
							<parameter>
								<name>Level</name>
								<parameterid>level</parameterid>
								<valuemin>0</valuemin>
								<valuemax>3.98109</valuemax>
								<value>1</value>
							</parameter>
						</effect>
					</filter>
					<filter>
						<effect>
							<name>Audio Pan</name>
							<effectid>audiopan</effectid>
							<effectcategory>audiopan</effectcategory>
							<effecttype>audiopan</effecttype>
							<mediatype>audio</mediatype>
							<parameter>
								<name>Pan</name>
								<parameterid>pan</parameterid>
								<valuemin>-1</valuemin>
								<valuemax>1</valuemax>
								<value>0</value>
							</parameter>
						</effect>
					</filter>
					<sourcetrack>
						<mediatype>audio</mediatype>
						<trackindex>4</trackindex>
					</sourcetrack>
					<link>
						<linkclipref>010_01_02_B</linkclipref>
						<mediatype>video</mediatype>
						<trackindex>1</trackindex>
						<clipindex>4</clipindex>
					</link>
					<link>
						<linkclipref>010_01_02_B2</linkclipref>
						<mediatype>audio</mediatype>
						<trackindex>1</trackindex>
						<clipindex>4</clipindex>
					</link>
					<link>
						<linkclipref>010_01_02_B3</linkclipref>
						<mediatype>audio</mediatype>
						<trackindex>2</trackindex>
						<clipindex>4</clipindex>
					</link>
					<link>
						<linkclipref>010_01_02_B4</linkclipref>
						<mediatype>audio</mediatype>
						<trackindex>3</trackindex>
						<clipindex>4</clipindex>
					</link>
					<link>
						<linkclipref>010_01_02_B5</linkclipref>
						<mediatype>audio</mediatype>
						<trackindex>4</trackindex>
						<clipindex>4</clipindex>
					</link>
					<itemhistory>
						<uuid>C8E022E0-280E-4772-983A-0ED93DDE0F2E</uuid>
					</itemhistory>
				</clipitem>
				<clipitem id="010_02_01_A5">
					<name>010_02_01_A</name>
					<duration>488</duration>
					<rate>
						<ntsc>FALSE</ntsc>
						<timebase>24</timebase>
					</rate>
					<in>0</in>
					<out>488</out>
					<start>3381</start>
					<end>3869</end>
					<subframeoffset>0</subframeoffset>
					<enabled>TRUE</enabled>
					<masterclipid>010_02_01_A1</masterclipid>
					<logginginfo>
						<scene/>
						<shottake/>
						<lognote/>
						<good>FALSE</good>
					</logginginfo>
					<labels>
						<label2/>
					</labels>
					<comments>
						<mastercomment1/>
						<mastercomment2/>
						<mastercomment3/>
						<mastercomment4/>
					</comments>
					<file id="A001C024_221211_R03K"/>
					<filter>
						<effect>
							<name>Audio Levels</name>
							<effectid>audiolevels</effectid>
							<effectcategory>audiolevels</effectcategory>
							<effecttype>audiolevels</effecttype>
							<mediatype>audio</mediatype>
							<parameter>
								<name>Level</name>
								<parameterid>level</parameterid>
								<valuemin>0</valuemin>
								<valuemax>3.98109</valuemax>
								<value>1</value>
							</parameter>
						</effect>
					</filter>
					<filter>
						<effect>
							<name>Audio Pan</name>
							<effectid>audiopan</effectid>
							<effectcategory>audiopan</effectcategory>
							<effecttype>audiopan</effecttype>
							<mediatype>audio</mediatype>
							<parameter>
								<name>Pan</name>
								<parameterid>pan</parameterid>
								<valuemin>-1</valuemin>
								<valuemax>1</valuemax>
								<value>0</value>
							</parameter>
						</effect>
					</filter>
					<sourcetrack>
						<mediatype>audio</mediatype>
						<trackindex>4</trackindex>
					</sourcetrack>
					<link>
						<linkclipref>010_02_01_A</linkclipref>
						<mediatype>video</mediatype>
						<trackindex>1</trackindex>
						<clipindex>11</clipindex>
					</link>
					<link>
						<linkclipref>010_02_01_A2</linkclipref>
						<mediatype>audio</mediatype>
						<trackindex>1</trackindex>
						<clipindex>11</clipindex>
					</link>
					<link>
						<linkclipref>010_02_01_A3</linkclipref>
						<mediatype>audio</mediatype>
						<trackindex>2</trackindex>
						<clipindex>11</clipindex>
					</link>
					<link>
						<linkclipref>010_02_01_A4</linkclipref>
						<mediatype>audio</mediatype>
						<trackindex>3</trackindex>
						<clipindex>11</clipindex>
					</link>
					<link>
						<linkclipref>010_02_01_A5</linkclipref>
						<mediatype>audio</mediatype>
						<trackindex>4</trackindex>
						<clipindex>5</clipindex>
					</link>
					<itemhistory>
						<uuid>E3E21CF4-D14C-44C1-A157-91CCEDF6FB8D</uuid>
					</itemhistory>
				</clipitem>
				<clipitem id="010_02_02_A_OK5">
					<name>010_02_02_A_OK</name>
					<duration>459</duration>
					<rate>
						<ntsc>FALSE</ntsc>
						<timebase>24</timebase>
					</rate>
					<in>173</in>
					<out>251</out>
					<start>3869</start>
					<end>3947</end>
					<subframeoffset>0</subframeoffset>
					<enabled>TRUE</enabled>
					<masterclipid>010_02_02_A_OK1</masterclipid>
					<logginginfo>
						<scene/>
						<shottake/>
						<lognote/>
						<good>FALSE</good>
					</logginginfo>
					<labels>
						<label2/>
					</labels>
					<comments>
						<mastercomment1/>
						<mastercomment2/>
						<mastercomment3/>
						<mastercomment4/>
					</comments>
					<file id="A001C025_221211_R03K"/>
					<filter>
						<effect>
							<name>Audio Levels</name>
							<effectid>audiolevels</effectid>
							<effectcategory>audiolevels</effectcategory>
							<effecttype>audiolevels</effecttype>
							<mediatype>audio</mediatype>
							<parameter>
								<name>Level</name>
								<parameterid>level</parameterid>
								<valuemin>0</valuemin>
								<valuemax>3.98109</valuemax>
								<value>1</value>
							</parameter>
						</effect>
					</filter>
					<filter>
						<effect>
							<name>Audio Pan</name>
							<effectid>audiopan</effectid>
							<effectcategory>audiopan</effectcategory>
							<effecttype>audiopan</effecttype>
							<mediatype>audio</mediatype>
							<parameter>
								<name>Pan</name>
								<parameterid>pan</parameterid>
								<valuemin>-1</valuemin>
								<valuemax>1</valuemax>
								<value>0</value>
							</parameter>
						</effect>
					</filter>
					<sourcetrack>
						<mediatype>audio</mediatype>
						<trackindex>4</trackindex>
					</sourcetrack>
					<link>
						<linkclipref>010_02_02_A_OK</linkclipref>
						<mediatype>video</mediatype>
						<trackindex>1</trackindex>
						<clipindex>12</clipindex>
					</link>
					<link>
						<linkclipref>010_02_02_A_OK2</linkclipref>
						<mediatype>audio</mediatype>
						<trackindex>1</trackindex>
						<clipindex>12</clipindex>
					</link>
					<link>
						<linkclipref>010_02_02_A_OK3</linkclipref>
						<mediatype>audio</mediatype>
						<trackindex>2</trackindex>
						<clipindex>12</clipindex>
					</link>
					<link>
						<linkclipref>010_02_02_A_OK4</linkclipref>
						<mediatype>audio</mediatype>
						<trackindex>3</trackindex>
						<clipindex>12</clipindex>
					</link>
					<link>
						<linkclipref>010_02_02_A_OK5</linkclipref>
						<mediatype>audio</mediatype>
						<trackindex>4</trackindex>
						<clipindex>6</clipindex>
					</link>
					<itemhistory>
						<uuid>0B43AC7C-A19A-4E29-A9FD-5ABFA41D2F20</uuid>
					</itemhistory>
				</clipitem>
				<clipitem id="010_05_01_A5">
					<name>010_05_01_A</name>
					<duration>1054</duration>
					<rate>
						<ntsc>FALSE</ntsc>
						<timebase>24</timebase>
					</rate>
					<in>0</in>
					<out>1054</out>
					<start>5578</start>
					<end>6632</end>
					<subframeoffset>0</subframeoffset>
					<enabled>TRUE</enabled>
					<masterclipid>010_05_01_A1</masterclipid>
					<logginginfo>
						<scene/>
						<shottake/>
						<lognote/>
						<good>FALSE</good>
					</logginginfo>
					<labels>
						<label2/>
					</labels>
					<comments>
						<mastercomment1/>
						<mastercomment2/>
						<mastercomment3/>
						<mastercomment4/>
					</comments>
					<file id="A001C026_221211_R03K"/>
					<filter>
						<effect>
							<name>Audio Levels</name>
							<effectid>audiolevels</effectid>
							<effectcategory>audiolevels</effectcategory>
							<effecttype>audiolevels</effecttype>
							<mediatype>audio</mediatype>
							<parameter>
								<name>Level</name>
								<parameterid>level</parameterid>
								<valuemin>0</valuemin>
								<valuemax>3.98109</valuemax>
								<value>1</value>
							</parameter>
						</effect>
					</filter>
					<filter>
						<effect>
							<name>Audio Pan</name>
							<effectid>audiopan</effectid>
							<effectcategory>audiopan</effectcategory>
							<effecttype>audiopan</effecttype>
							<mediatype>audio</mediatype>
							<parameter>
								<name>Pan</name>
								<parameterid>pan</parameterid>
								<valuemin>-1</valuemin>
								<valuemax>1</valuemax>
								<value>0</value>
							</parameter>
						</effect>
					</filter>
					<sourcetrack>
						<mediatype>audio</mediatype>
						<trackindex>4</trackindex>
					</sourcetrack>
					<link>
						<linkclipref>010_05_01_A</linkclipref>
						<mediatype>video</mediatype>
						<trackindex>1</trackindex>
						<clipindex>19</clipindex>
					</link>
					<link>
						<linkclipref>010_05_01_A2</linkclipref>
						<mediatype>audio</mediatype>
						<trackindex>1</trackindex>
						<clipindex>19</clipindex>
					</link>
					<link>
						<linkclipref>010_05_01_A3</linkclipref>
						<mediatype>audio</mediatype>
						<trackindex>2</trackindex>
						<clipindex>19</clipindex>
					</link>
					<link>
						<linkclipref>010_05_01_A4</linkclipref>
						<mediatype>audio</mediatype>
						<trackindex>3</trackindex>
						<clipindex>17</clipindex>
					</link>
					<link>
						<linkclipref>010_05_01_A5</linkclipref>
						<mediatype>audio</mediatype>
						<trackindex>4</trackindex>
						<clipindex>7</clipindex>
					</link>
					<itemhistory>
						<uuid>317E7EEF-AA69-4EB8-83B2-93D568ABE468</uuid>
					</itemhistory>
				</clipitem>
				<clipitem id="010_05_01_B5">
					<name>010_05_01_B</name>
					<duration>1017</duration>
					<rate>
						<ntsc>FALSE</ntsc>
						<timebase>24</timebase>
					</rate>
					<in>0</in>
					<out>1017</out>
					<start>6632</start>
					<end>7649</end>
					<subframeoffset>0</subframeoffset>
					<enabled>TRUE</enabled>
					<masterclipid>010_05_01_B1</masterclipid>
					<logginginfo>
						<scene/>
						<shottake/>
						<lognote/>
						<good>FALSE</good>
					</logginginfo>
					<labels>
						<label2/>
					</labels>
					<comments>
						<mastercomment1/>
						<mastercomment2/>
						<mastercomment3/>
						<mastercomment4/>
					</comments>
					<file id="B001C017_130101_R1WX"/>
					<filter>
						<effect>
							<name>Audio Levels</name>
							<effectid>audiolevels</effectid>
							<effectcategory>audiolevels</effectcategory>
							<effecttype>audiolevels</effecttype>
							<mediatype>audio</mediatype>
							<parameter>
								<name>Level</name>
								<parameterid>level</parameterid>
								<valuemin>0</valuemin>
								<valuemax>3.98109</valuemax>
								<value>1</value>
							</parameter>
						</effect>
					</filter>
					<filter>
						<effect>
							<name>Audio Pan</name>
							<effectid>audiopan</effectid>
							<effectcategory>audiopan</effectcategory>
							<effecttype>audiopan</effecttype>
							<mediatype>audio</mediatype>
							<parameter>
								<name>Pan</name>
								<parameterid>pan</parameterid>
								<valuemin>-1</valuemin>
								<valuemax>1</valuemax>
								<value>0</value>
							</parameter>
						</effect>
					</filter>
					<sourcetrack>
						<mediatype>audio</mediatype>
						<trackindex>4</trackindex>
					</sourcetrack>
					<link>
						<linkclipref>010_05_01_B</linkclipref>
						<mediatype>video</mediatype>
						<trackindex>1</trackindex>
						<clipindex>20</clipindex>
					</link>
					<link>
						<linkclipref>010_05_01_B2</linkclipref>
						<mediatype>audio</mediatype>
						<trackindex>1</trackindex>
						<clipindex>20</clipindex>
					</link>
					<link>
						<linkclipref>010_05_01_B3</linkclipref>
						<mediatype>audio</mediatype>
						<trackindex>2</trackindex>
						<clipindex>20</clipindex>
					</link>
					<link>
						<linkclipref>010_05_01_B4</linkclipref>
						<mediatype>audio</mediatype>
						<trackindex>3</trackindex>
						<clipindex>18</clipindex>
					</link>
					<link>
						<linkclipref>010_05_01_B5</linkclipref>
						<mediatype>audio</mediatype>
						<trackindex>4</trackindex>
						<clipindex>8</clipindex>
					</link>
					<itemhistory>
						<uuid>E1E42489-DE90-43D3-BE59-9462B640F588</uuid>
					</itemhistory>
				</clipitem>
				<clipitem id="010_05_02_A5">
					<name>010_05_02_A</name>
					<duration>949</duration>
					<rate>
						<ntsc>FALSE</ntsc>
						<timebase>24</timebase>
					</rate>
					<in>0</in>
					<out>949</out>
					<start>7649</start>
					<end>8598</end>
					<subframeoffset>0</subframeoffset>
					<enabled>TRUE</enabled>
					<masterclipid>010_05_02_A1</masterclipid>
					<logginginfo>
						<scene/>
						<shottake/>
						<lognote/>
						<good>FALSE</good>
					</logginginfo>
					<labels>
						<label2/>
					</labels>
					<comments>
						<mastercomment1/>
						<mastercomment2/>
						<mastercomment3/>
						<mastercomment4/>
					</comments>
					<file id="A001C027_221211_R03K"/>
					<filter>
						<effect>
							<name>Audio Levels</name>
							<effectid>audiolevels</effectid>
							<effectcategory>audiolevels</effectcategory>
							<effecttype>audiolevels</effecttype>
							<mediatype>audio</mediatype>
							<parameter>
								<name>Level</name>
								<parameterid>level</parameterid>
								<valuemin>0</valuemin>
								<valuemax>3.98109</valuemax>
								<value>1</value>
							</parameter>
						</effect>
					</filter>
					<filter>
						<effect>
							<name>Audio Pan</name>
							<effectid>audiopan</effectid>
							<effectcategory>audiopan</effectcategory>
							<effecttype>audiopan</effecttype>
							<mediatype>audio</mediatype>
							<parameter>
								<name>Pan</name>
								<parameterid>pan</parameterid>
								<valuemin>-1</valuemin>
								<valuemax>1</valuemax>
								<value>0</value>
							</parameter>
						</effect>
					</filter>
					<sourcetrack>
						<mediatype>audio</mediatype>
						<trackindex>4</trackindex>
					</sourcetrack>
					<link>
						<linkclipref>010_05_02_A</linkclipref>
						<mediatype>video</mediatype>
						<trackindex>1</trackindex>
						<clipindex>21</clipindex>
					</link>
					<link>
						<linkclipref>010_05_02_A2</linkclipref>
						<mediatype>audio</mediatype>
						<trackindex>1</trackindex>
						<clipindex>21</clipindex>
					</link>
					<link>
						<linkclipref>010_05_02_A3</linkclipref>
						<mediatype>audio</mediatype>
						<trackindex>2</trackindex>
						<clipindex>21</clipindex>
					</link>
					<link>
						<linkclipref>010_05_02_A4</linkclipref>
						<mediatype>audio</mediatype>
						<trackindex>3</trackindex>
						<clipindex>19</clipindex>
					</link>
					<link>
						<linkclipref>010_05_02_A5</linkclipref>
						<mediatype>audio</mediatype>
						<trackindex>4</trackindex>
						<clipindex>9</clipindex>
					</link>
					<itemhistory>
						<uuid>74105E61-37B9-4693-ADAB-FD71F78CDF9D</uuid>
					</itemhistory>
				</clipitem>
				<clipitem id="010_05_02_B5">
					<name>010_05_02_B</name>
					<duration>954</duration>
					<rate>
						<ntsc>FALSE</ntsc>
						<timebase>24</timebase>
					</rate>
					<in>0</in>
					<out>954</out>
					<start>8598</start>
					<end>9552</end>
					<subframeoffset>0</subframeoffset>
					<enabled>TRUE</enabled>
					<masterclipid>010_05_02_B1</masterclipid>
					<logginginfo>
						<scene/>
						<shottake/>
						<lognote/>
						<good>FALSE</good>
					</logginginfo>
					<labels>
						<label2/>
					</labels>
					<comments>
						<mastercomment1/>
						<mastercomment2/>
						<mastercomment3/>
						<mastercomment4/>
					</comments>
					<file id="B001C018_130101_R1WX"/>
					<filter>
						<effect>
							<name>Audio Levels</name>
							<effectid>audiolevels</effectid>
							<effectcategory>audiolevels</effectcategory>
							<effecttype>audiolevels</effecttype>
							<mediatype>audio</mediatype>
							<parameter>
								<name>Level</name>
								<parameterid>level</parameterid>
								<valuemin>0</valuemin>
								<valuemax>3.98109</valuemax>
								<value>1</value>
							</parameter>
						</effect>
					</filter>
					<filter>
						<effect>
							<name>Audio Pan</name>
							<effectid>audiopan</effectid>
							<effectcategory>audiopan</effectcategory>
							<effecttype>audiopan</effecttype>
							<mediatype>audio</mediatype>
							<parameter>
								<name>Pan</name>
								<parameterid>pan</parameterid>
								<valuemin>-1</valuemin>
								<valuemax>1</valuemax>
								<value>0</value>
							</parameter>
						</effect>
					</filter>
					<sourcetrack>
						<mediatype>audio</mediatype>
						<trackindex>4</trackindex>
					</sourcetrack>
					<link>
						<linkclipref>010_05_02_B</linkclipref>
						<mediatype>video</mediatype>
						<trackindex>1</trackindex>
						<clipindex>22</clipindex>
					</link>
					<link>
						<linkclipref>010_05_02_B2</linkclipref>
						<mediatype>audio</mediatype>
						<trackindex>1</trackindex>
						<clipindex>22</clipindex>
					</link>
					<link>
						<linkclipref>010_05_02_B3</linkclipref>
						<mediatype>audio</mediatype>
						<trackindex>2</trackindex>
						<clipindex>22</clipindex>
					</link>
					<link>
						<linkclipref>010_05_02_B4</linkclipref>
						<mediatype>audio</mediatype>
						<trackindex>3</trackindex>
						<clipindex>20</clipindex>
					</link>
					<link>
						<linkclipref>010_05_02_B5</linkclipref>
						<mediatype>audio</mediatype>
						<trackindex>4</trackindex>
						<clipindex>10</clipindex>
					</link>
					<itemhistory>
						<uuid>F32BBE14-E91D-4076-B3FD-01637B03F8D4</uuid>
					</itemhistory>
				</clipitem>
				<clipitem id="010_05_03_A5">
					<name>010_05_03_A</name>
					<duration>1163</duration>
					<rate>
						<ntsc>FALSE</ntsc>
						<timebase>24</timebase>
					</rate>
					<in>0</in>
					<out>1163</out>
					<start>9552</start>
					<end>10715</end>
					<subframeoffset>0</subframeoffset>
					<enabled>TRUE</enabled>
					<masterclipid>010_05_03_A1</masterclipid>
					<logginginfo>
						<scene/>
						<shottake/>
						<lognote/>
						<good>FALSE</good>
					</logginginfo>
					<labels>
						<label2/>
					</labels>
					<comments>
						<mastercomment1/>
						<mastercomment2/>
						<mastercomment3/>
						<mastercomment4/>
					</comments>
					<file id="A001C028_221211_R03K"/>
					<filter>
						<effect>
							<name>Audio Levels</name>
							<effectid>audiolevels</effectid>
							<effectcategory>audiolevels</effectcategory>
							<effecttype>audiolevels</effecttype>
							<mediatype>audio</mediatype>
							<parameter>
								<name>Level</name>
								<parameterid>level</parameterid>
								<valuemin>0</valuemin>
								<valuemax>3.98109</valuemax>
								<value>1</value>
							</parameter>
						</effect>
					</filter>
					<filter>
						<effect>
							<name>Audio Pan</name>
							<effectid>audiopan</effectid>
							<effectcategory>audiopan</effectcategory>
							<effecttype>audiopan</effecttype>
							<mediatype>audio</mediatype>
							<parameter>
								<name>Pan</name>
								<parameterid>pan</parameterid>
								<valuemin>-1</valuemin>
								<valuemax>1</valuemax>
								<value>0</value>
							</parameter>
						</effect>
					</filter>
					<sourcetrack>
						<mediatype>audio</mediatype>
						<trackindex>4</trackindex>
					</sourcetrack>
					<link>
						<linkclipref>010_05_03_A</linkclipref>
						<mediatype>video</mediatype>
						<trackindex>1</trackindex>
						<clipindex>23</clipindex>
					</link>
					<link>
						<linkclipref>010_05_03_A2</linkclipref>
						<mediatype>audio</mediatype>
						<trackindex>1</trackindex>
						<clipindex>23</clipindex>
					</link>
					<link>
						<linkclipref>010_05_03_A3</linkclipref>
						<mediatype>audio</mediatype>
						<trackindex>2</trackindex>
						<clipindex>23</clipindex>
					</link>
					<link>
						<linkclipref>010_05_03_A4</linkclipref>
						<mediatype>audio</mediatype>
						<trackindex>3</trackindex>
						<clipindex>21</clipindex>
					</link>
					<link>
						<linkclipref>010_05_03_A5</linkclipref>
						<mediatype>audio</mediatype>
						<trackindex>4</trackindex>
						<clipindex>11</clipindex>
					</link>
					<itemhistory>
						<uuid>DAA121D4-D7D1-4689-8187-41F60FBBE3CC</uuid>
					</itemhistory>
				</clipitem>
				<clipitem id="010_05_03_B5">
					<name>010_05_03_B</name>
					<duration>1160</duration>
					<rate>
						<ntsc>FALSE</ntsc>
						<timebase>24</timebase>
					</rate>
					<in>0</in>
					<out>1160</out>
					<start>10715</start>
					<end>11875</end>
					<subframeoffset>0</subframeoffset>
					<enabled>TRUE</enabled>
					<masterclipid>010_05_03_B1</masterclipid>
					<logginginfo>
						<scene/>
						<shottake/>
						<lognote/>
						<good>FALSE</good>
					</logginginfo>
					<labels>
						<label2/>
					</labels>
					<comments>
						<mastercomment1/>
						<mastercomment2/>
						<mastercomment3/>
						<mastercomment4/>
					</comments>
					<file id="B001C019_130101_R1WX"/>
					<filter>
						<effect>
							<name>Audio Levels</name>
							<effectid>audiolevels</effectid>
							<effectcategory>audiolevels</effectcategory>
							<effecttype>audiolevels</effecttype>
							<mediatype>audio</mediatype>
							<parameter>
								<name>Level</name>
								<parameterid>level</parameterid>
								<valuemin>0</valuemin>
								<valuemax>3.98109</valuemax>
								<value>1</value>
							</parameter>
						</effect>
					</filter>
					<filter>
						<effect>
							<name>Audio Pan</name>
							<effectid>audiopan</effectid>
							<effectcategory>audiopan</effectcategory>
							<effecttype>audiopan</effecttype>
							<mediatype>audio</mediatype>
							<parameter>
								<name>Pan</name>
								<parameterid>pan</parameterid>
								<valuemin>-1</valuemin>
								<valuemax>1</valuemax>
								<value>0</value>
							</parameter>
						</effect>
					</filter>
					<sourcetrack>
						<mediatype>audio</mediatype>
						<trackindex>4</trackindex>
					</sourcetrack>
					<link>
						<linkclipref>010_05_03_B</linkclipref>
						<mediatype>video</mediatype>
						<trackindex>1</trackindex>
						<clipindex>24</clipindex>
					</link>
					<link>
						<linkclipref>010_05_03_B2</linkclipref>
						<mediatype>audio</mediatype>
						<trackindex>1</trackindex>
						<clipindex>24</clipindex>
					</link>
					<link>
						<linkclipref>010_05_03_B3</linkclipref>
						<mediatype>audio</mediatype>
						<trackindex>2</trackindex>
						<clipindex>24</clipindex>
					</link>
					<link>
						<linkclipref>010_05_03_B4</linkclipref>
						<mediatype>audio</mediatype>
						<trackindex>3</trackindex>
						<clipindex>22</clipindex>
					</link>
					<link>
						<linkclipref>010_05_03_B5</linkclipref>
						<mediatype>audio</mediatype>
						<trackindex>4</trackindex>
						<clipindex>12</clipindex>
					</link>
					<itemhistory>
						<uuid>7D51E1E5-11BA-4C9B-A912-034F0F1F9D8C</uuid>
					</itemhistory>
				</clipitem>
				<clipitem id="010_05_04_A_OK_混剪5">
					<name>010_05_04_A_OK_混剪</name>
					<duration>1108</duration>
					<rate>
						<ntsc>FALSE</ntsc>
						<timebase>24</timebase>
					</rate>
					<in>156</in>
					<out>207</out>
					<start>11875</start>
					<end>11926</end>
					<subframeoffset>0</subframeoffset>
					<enabled>TRUE</enabled>
					<masterclipid>010_05_04_A_OK_混剪1</masterclipid>
					<logginginfo>
						<scene/>
						<shottake/>
						<lognote/>
						<good>FALSE</good>
					</logginginfo>
					<labels>
						<label2/>
					</labels>
					<comments>
						<mastercomment1/>
						<mastercomment2/>
						<mastercomment3/>
						<mastercomment4/>
					</comments>
					<file id="A001C029_221211_R03K"/>
					<filter>
						<effect>
							<name>Audio Levels</name>
							<effectid>audiolevels</effectid>
							<effectcategory>audiolevels</effectcategory>
							<effecttype>audiolevels</effecttype>
							<mediatype>audio</mediatype>
							<parameter>
								<name>Level</name>
								<parameterid>level</parameterid>
								<valuemin>0</valuemin>
								<valuemax>3.98109</valuemax>
								<value>1</value>
							</parameter>
						</effect>
					</filter>
					<filter>
						<effect>
							<name>Audio Pan</name>
							<effectid>audiopan</effectid>
							<effectcategory>audiopan</effectcategory>
							<effecttype>audiopan</effecttype>
							<mediatype>audio</mediatype>
							<parameter>
								<name>Pan</name>
								<parameterid>pan</parameterid>
								<valuemin>-1</valuemin>
								<valuemax>1</valuemax>
								<value>0</value>
							</parameter>
						</effect>
					</filter>
					<sourcetrack>
						<mediatype>audio</mediatype>
						<trackindex>4</trackindex>
					</sourcetrack>
					<link>
						<linkclipref>010_05_04_A_OK_混剪</linkclipref>
						<mediatype>video</mediatype>
						<trackindex>1</trackindex>
						<clipindex>25</clipindex>
					</link>
					<link>
						<linkclipref>010_05_04_A_OK_混剪2</linkclipref>
						<mediatype>audio</mediatype>
						<trackindex>1</trackindex>
						<clipindex>25</clipindex>
					</link>
					<link>
						<linkclipref>010_05_04_A_OK_混剪3</linkclipref>
						<mediatype>audio</mediatype>
						<trackindex>2</trackindex>
						<clipindex>25</clipindex>
					</link>
					<link>
						<linkclipref>010_05_04_A_OK_混剪4</linkclipref>
						<mediatype>audio</mediatype>
						<trackindex>3</trackindex>
						<clipindex>23</clipindex>
					</link>
					<link>
						<linkclipref>010_05_04_A_OK_混剪5</linkclipref>
						<mediatype>audio</mediatype>
						<trackindex>4</trackindex>
						<clipindex>13</clipindex>
					</link>
					<itemhistory>
						<uuid>3D09CF5F-3D65-461B-B1BF-91D826F6E687</uuid>
					</itemhistory>
				</clipitem>
				<clipitem id="010_05_04_B_OK_混剪5">
					<name>010_05_04_B_OK_混剪</name>
					<duration>1099</duration>
					<rate>
						<ntsc>FALSE</ntsc>
						<timebase>24</timebase>
					</rate>
					<in>109</in>
					<out>1099</out>
					<start>11926</start>
					<end>12916</end>
					<subframeoffset>0</subframeoffset>
					<enabled>TRUE</enabled>
					<masterclipid>010_05_04_B_OK_混剪1</masterclipid>
					<logginginfo>
						<scene/>
						<shottake/>
						<lognote/>
						<good>FALSE</good>
					</logginginfo>
					<labels>
						<label2/>
					</labels>
					<comments>
						<mastercomment1/>
						<mastercomment2/>
						<mastercomment3/>
						<mastercomment4/>
					</comments>
					<file id="B001C020_130101_R1WX"/>
					<filter>
						<effect>
							<name>Audio Levels</name>
							<effectid>audiolevels</effectid>
							<effectcategory>audiolevels</effectcategory>
							<effecttype>audiolevels</effecttype>
							<mediatype>audio</mediatype>
							<parameter>
								<name>Level</name>
								<parameterid>level</parameterid>
								<valuemin>0</valuemin>
								<valuemax>3.98109</valuemax>
								<value>1</value>
							</parameter>
						</effect>
					</filter>
					<filter>
						<effect>
							<name>Audio Pan</name>
							<effectid>audiopan</effectid>
							<effectcategory>audiopan</effectcategory>
							<effecttype>audiopan</effecttype>
							<mediatype>audio</mediatype>
							<parameter>
								<name>Pan</name>
								<parameterid>pan</parameterid>
								<valuemin>-1</valuemin>
								<valuemax>1</valuemax>
								<value>0</value>
							</parameter>
						</effect>
					</filter>
					<sourcetrack>
						<mediatype>audio</mediatype>
						<trackindex>4</trackindex>
					</sourcetrack>
					<link>
						<linkclipref>010_05_04_B_OK_混剪</linkclipref>
						<mediatype>video</mediatype>
						<trackindex>1</trackindex>
						<clipindex>26</clipindex>
					</link>
					<link>
						<linkclipref>010_05_04_B_OK_混剪2</linkclipref>
						<mediatype>audio</mediatype>
						<trackindex>1</trackindex>
						<clipindex>26</clipindex>
					</link>
					<link>
						<linkclipref>010_05_04_B_OK_混剪3</linkclipref>
						<mediatype>audio</mediatype>
						<trackindex>2</trackindex>
						<clipindex>26</clipindex>
					</link>
					<link>
						<linkclipref>010_05_04_B_OK_混剪4</linkclipref>
						<mediatype>audio</mediatype>
						<trackindex>3</trackindex>
						<clipindex>24</clipindex>
					</link>
					<link>
						<linkclipref>010_05_04_B_OK_混剪5</linkclipref>
						<mediatype>audio</mediatype>
						<trackindex>4</trackindex>
						<clipindex>14</clipindex>
					</link>
					<itemhistory>
						<uuid>A9EB6D47-7AD2-4AA4-9E1C-050EF1550D89</uuid>
					</itemhistory>
				</clipitem>
				<clipitem id="010_05_05_A_OK_混剪5">
					<name>010_05_05_A_OK_混剪</name>
					<duration>2307</duration>
					<rate>
						<ntsc>FALSE</ntsc>
						<timebase>24</timebase>
					</rate>
					<in>154</in>
					<out>257</out>
					<start>12916</start>
					<end>13019</end>
					<subframeoffset>0</subframeoffset>
					<enabled>TRUE</enabled>
					<masterclipid>010_05_05_A_OK_混剪1</masterclipid>
					<logginginfo>
						<scene/>
						<shottake/>
						<lognote/>
						<good>FALSE</good>
					</logginginfo>
					<labels>
						<label2/>
					</labels>
					<comments>
						<mastercomment1/>
						<mastercomment2/>
						<mastercomment3/>
						<mastercomment4/>
					</comments>
					<file id="A001C030_221211_R03K"/>
					<filter>
						<effect>
							<name>Audio Levels</name>
							<effectid>audiolevels</effectid>
							<effectcategory>audiolevels</effectcategory>
							<effecttype>audiolevels</effecttype>
							<mediatype>audio</mediatype>
							<parameter>
								<name>Level</name>
								<parameterid>level</parameterid>
								<valuemin>0</valuemin>
								<valuemax>3.98109</valuemax>
								<value>1</value>
							</parameter>
						</effect>
					</filter>
					<filter>
						<effect>
							<name>Audio Pan</name>
							<effectid>audiopan</effectid>
							<effectcategory>audiopan</effectcategory>
							<effecttype>audiopan</effecttype>
							<mediatype>audio</mediatype>
							<parameter>
								<name>Pan</name>
								<parameterid>pan</parameterid>
								<valuemin>-1</valuemin>
								<valuemax>1</valuemax>
								<value>0</value>
							</parameter>
						</effect>
					</filter>
					<sourcetrack>
						<mediatype>audio</mediatype>
						<trackindex>4</trackindex>
					</sourcetrack>
					<link>
						<linkclipref>010_05_05_A_OK_混剪</linkclipref>
						<mediatype>video</mediatype>
						<trackindex>1</trackindex>
						<clipindex>27</clipindex>
					</link>
					<link>
						<linkclipref>010_05_05_A_OK_混剪2</linkclipref>
						<mediatype>audio</mediatype>
						<trackindex>1</trackindex>
						<clipindex>27</clipindex>
					</link>
					<link>
						<linkclipref>010_05_05_A_OK_混剪3</linkclipref>
						<mediatype>audio</mediatype>
						<trackindex>2</trackindex>
						<clipindex>27</clipindex>
					</link>
					<link>
						<linkclipref>010_05_05_A_OK_混剪4</linkclipref>
						<mediatype>audio</mediatype>
						<trackindex>3</trackindex>
						<clipindex>25</clipindex>
					</link>
					<link>
						<linkclipref>010_05_05_A_OK_混剪5</linkclipref>
						<mediatype>audio</mediatype>
						<trackindex>4</trackindex>
						<clipindex>15</clipindex>
					</link>
					<itemhistory>
						<uuid>0CA80FBF-A4FB-4A45-95D3-E11AE56355A9</uuid>
					</itemhistory>
				</clipitem>
				<clipitem id="010_05_05_B_OK_混剪5">
					<name>010_05_05_B_OK_混剪</name>
					<duration>2318</duration>
					<rate>
						<ntsc>FALSE</ntsc>
						<timebase>24</timebase>
					</rate>
					<in>0</in>
					<out>2318</out>
					<start>13019</start>
					<end>15337</end>
					<subframeoffset>0</subframeoffset>
					<enabled>TRUE</enabled>
					<masterclipid>010_05_05_B_OK_混剪1</masterclipid>
					<logginginfo>
						<scene/>
						<shottake/>
						<lognote/>
						<good>FALSE</good>
					</logginginfo>
					<labels>
						<label2/>
					</labels>
					<comments>
						<mastercomment1/>
						<mastercomment2/>
						<mastercomment3/>
						<mastercomment4/>
					</comments>
					<file id="B001C021_130101_R1WX"/>
					<filter>
						<effect>
							<name>Audio Levels</name>
							<effectid>audiolevels</effectid>
							<effectcategory>audiolevels</effectcategory>
							<effecttype>audiolevels</effecttype>
							<mediatype>audio</mediatype>
							<parameter>
								<name>Level</name>
								<parameterid>level</parameterid>
								<valuemin>0</valuemin>
								<valuemax>3.98109</valuemax>
								<value>1</value>
							</parameter>
						</effect>
					</filter>
					<filter>
						<effect>
							<name>Audio Pan</name>
							<effectid>audiopan</effectid>
							<effectcategory>audiopan</effectcategory>
							<effecttype>audiopan</effecttype>
							<mediatype>audio</mediatype>
							<parameter>
								<name>Pan</name>
								<parameterid>pan</parameterid>
								<valuemin>-1</valuemin>
								<valuemax>1</valuemax>
								<value>0</value>
							</parameter>
						</effect>
					</filter>
					<sourcetrack>
						<mediatype>audio</mediatype>
						<trackindex>4</trackindex>
					</sourcetrack>
					<link>
						<linkclipref>010_05_05_B_OK_混剪</linkclipref>
						<mediatype>video</mediatype>
						<trackindex>1</trackindex>
						<clipindex>28</clipindex>
					</link>
					<link>
						<linkclipref>010_05_05_B_OK_混剪2</linkclipref>
						<mediatype>audio</mediatype>
						<trackindex>1</trackindex>
						<clipindex>28</clipindex>
					</link>
					<link>
						<linkclipref>010_05_05_B_OK_混剪3</linkclipref>
						<mediatype>audio</mediatype>
						<trackindex>2</trackindex>
						<clipindex>28</clipindex>
					</link>
					<link>
						<linkclipref>010_05_05_B_OK_混剪4</linkclipref>
						<mediatype>audio</mediatype>
						<trackindex>3</trackindex>
						<clipindex>26</clipindex>
					</link>
					<link>
						<linkclipref>010_05_05_B_OK_混剪5</linkclipref>
						<mediatype>audio</mediatype>
						<trackindex>4</trackindex>
						<clipindex>16</clipindex>
					</link>
					<itemhistory>
						<uuid>37ECD9AC-2114-4112-8F37-9D9129353ADB</uuid>
					</itemhistory>
				</clipitem>
				<clipitem id="010_05_06_A_OK_混剪5">
					<name>010_05_06_A_OK_混剪</name>
					<duration>2146</duration>
					<rate>
						<ntsc>FALSE</ntsc>
						<timebase>24</timebase>
					</rate>
					<in>131</in>
					<out>189</out>
					<start>15337</start>
					<end>15395</end>
					<subframeoffset>0</subframeoffset>
					<enabled>TRUE</enabled>
					<masterclipid>010_05_06_A_OK_混剪1</masterclipid>
					<logginginfo>
						<scene/>
						<shottake/>
						<lognote/>
						<good>FALSE</good>
					</logginginfo>
					<labels>
						<label2/>
					</labels>
					<comments>
						<mastercomment1/>
						<mastercomment2/>
						<mastercomment3/>
						<mastercomment4/>
					</comments>
					<file id="A001C031_221211_R03K"/>
					<filter>
						<effect>
							<name>Audio Levels</name>
							<effectid>audiolevels</effectid>
							<effectcategory>audiolevels</effectcategory>
							<effecttype>audiolevels</effecttype>
							<mediatype>audio</mediatype>
							<parameter>
								<name>Level</name>
								<parameterid>level</parameterid>
								<valuemin>0</valuemin>
								<valuemax>3.98109</valuemax>
								<value>1</value>
							</parameter>
						</effect>
					</filter>
					<filter>
						<effect>
							<name>Audio Pan</name>
							<effectid>audiopan</effectid>
							<effectcategory>audiopan</effectcategory>
							<effecttype>audiopan</effecttype>
							<mediatype>audio</mediatype>
							<parameter>
								<name>Pan</name>
								<parameterid>pan</parameterid>
								<valuemin>-1</valuemin>
								<valuemax>1</valuemax>
								<value>0</value>
							</parameter>
						</effect>
					</filter>
					<sourcetrack>
						<mediatype>audio</mediatype>
						<trackindex>4</trackindex>
					</sourcetrack>
					<link>
						<linkclipref>010_05_06_A_OK_混剪</linkclipref>
						<mediatype>video</mediatype>
						<trackindex>1</trackindex>
						<clipindex>29</clipindex>
					</link>
					<link>
						<linkclipref>010_05_06_A_OK_混剪2</linkclipref>
						<mediatype>audio</mediatype>
						<trackindex>1</trackindex>
						<clipindex>29</clipindex>
					</link>
					<link>
						<linkclipref>010_05_06_A_OK_混剪3</linkclipref>
						<mediatype>audio</mediatype>
						<trackindex>2</trackindex>
						<clipindex>29</clipindex>
					</link>
					<link>
						<linkclipref>010_05_06_A_OK_混剪4</linkclipref>
						<mediatype>audio</mediatype>
						<trackindex>3</trackindex>
						<clipindex>27</clipindex>
					</link>
					<link>
						<linkclipref>010_05_06_A_OK_混剪5</linkclipref>
						<mediatype>audio</mediatype>
						<trackindex>4</trackindex>
						<clipindex>17</clipindex>
					</link>
					<itemhistory>
						<uuid>CE7CBA0F-57F7-41E5-B7EA-13260260BBC3</uuid>
					</itemhistory>
				</clipitem>
				<clipitem id="010_05_06_B_OK_混剪5">
					<name>010_05_06_B_OK_混剪</name>
					<duration>2154</duration>
					<rate>
						<ntsc>FALSE</ntsc>
						<timebase>24</timebase>
					</rate>
					<in>384</in>
					<out>473</out>
					<start>15395</start>
					<end>15484</end>
					<subframeoffset>0</subframeoffset>
					<enabled>TRUE</enabled>
					<masterclipid>010_05_06_B_OK_混剪1</masterclipid>
					<logginginfo>
						<scene/>
						<shottake/>
						<lognote/>
						<good>FALSE</good>
					</logginginfo>
					<labels>
						<label2/>
					</labels>
					<comments>
						<mastercomment1/>
						<mastercomment2/>
						<mastercomment3/>
						<mastercomment4/>
					</comments>
					<file id="B001C022_130101_R1WX"/>
					<filter>
						<effect>
							<name>Audio Levels</name>
							<effectid>audiolevels</effectid>
							<effectcategory>audiolevels</effectcategory>
							<effecttype>audiolevels</effecttype>
							<mediatype>audio</mediatype>
							<parameter>
								<name>Level</name>
								<parameterid>level</parameterid>
								<valuemin>0</valuemin>
								<valuemax>3.98109</valuemax>
								<value>1</value>
							</parameter>
						</effect>
					</filter>
					<filter>
						<effect>
							<name>Audio Pan</name>
							<effectid>audiopan</effectid>
							<effectcategory>audiopan</effectcategory>
							<effecttype>audiopan</effecttype>
							<mediatype>audio</mediatype>
							<parameter>
								<name>Pan</name>
								<parameterid>pan</parameterid>
								<valuemin>-1</valuemin>
								<valuemax>1</valuemax>
								<value>0</value>
							</parameter>
						</effect>
					</filter>
					<sourcetrack>
						<mediatype>audio</mediatype>
						<trackindex>4</trackindex>
					</sourcetrack>
					<link>
						<linkclipref>010_05_06_B_OK_混剪</linkclipref>
						<mediatype>video</mediatype>
						<trackindex>1</trackindex>
						<clipindex>30</clipindex>
					</link>
					<link>
						<linkclipref>010_05_06_B_OK_混剪2</linkclipref>
						<mediatype>audio</mediatype>
						<trackindex>1</trackindex>
						<clipindex>30</clipindex>
					</link>
					<link>
						<linkclipref>010_05_06_B_OK_混剪3</linkclipref>
						<mediatype>audio</mediatype>
						<trackindex>2</trackindex>
						<clipindex>30</clipindex>
					</link>
					<link>
						<linkclipref>010_05_06_B_OK_混剪4</linkclipref>
						<mediatype>audio</mediatype>
						<trackindex>3</trackindex>
						<clipindex>28</clipindex>
					</link>
					<link>
						<linkclipref>010_05_06_B_OK_混剪5</linkclipref>
						<mediatype>audio</mediatype>
						<trackindex>4</trackindex>
						<clipindex>18</clipindex>
					</link>
					<itemhistory>
						<uuid>E7535926-5C0D-472F-94ED-ABBEF7914172</uuid>
					</itemhistory>
				</clipitem>
				<clipitem id="010_06_01_A5">
					<name>010_06_01_A</name>
					<duration>2114</duration>
					<rate>
						<ntsc>FALSE</ntsc>
						<timebase>24</timebase>
					</rate>
					<in>0</in>
					<out>2114</out>
					<start>15484</start>
					<end>17598</end>
					<subframeoffset>0</subframeoffset>
					<enabled>TRUE</enabled>
					<masterclipid>010_06_01_A1</masterclipid>
					<logginginfo>
						<scene/>
						<shottake/>
						<lognote/>
						<good>FALSE</good>
					</logginginfo>
					<labels>
						<label2/>
					</labels>
					<comments>
						<mastercomment1/>
						<mastercomment2/>
						<mastercomment3/>
						<mastercomment4/>
					</comments>
					<file id="A002C001_221211_R03K"/>
					<filter>
						<effect>
							<name>Audio Levels</name>
							<effectid>audiolevels</effectid>
							<effectcategory>audiolevels</effectcategory>
							<effecttype>audiolevels</effecttype>
							<mediatype>audio</mediatype>
							<parameter>
								<name>Level</name>
								<parameterid>level</parameterid>
								<valuemin>0</valuemin>
								<valuemax>3.98109</valuemax>
								<value>1</value>
							</parameter>
						</effect>
					</filter>
					<filter>
						<effect>
							<name>Audio Pan</name>
							<effectid>audiopan</effectid>
							<effectcategory>audiopan</effectcategory>
							<effecttype>audiopan</effecttype>
							<mediatype>audio</mediatype>
							<parameter>
								<name>Pan</name>
								<parameterid>pan</parameterid>
								<valuemin>-1</valuemin>
								<valuemax>1</valuemax>
								<value>0</value>
							</parameter>
						</effect>
					</filter>
					<sourcetrack>
						<mediatype>audio</mediatype>
						<trackindex>4</trackindex>
					</sourcetrack>
					<link>
						<linkclipref>010_06_01_A</linkclipref>
						<mediatype>video</mediatype>
						<trackindex>1</trackindex>
						<clipindex>31</clipindex>
					</link>
					<link>
						<linkclipref>010_06_01_A2</linkclipref>
						<mediatype>audio</mediatype>
						<trackindex>1</trackindex>
						<clipindex>31</clipindex>
					</link>
					<link>
						<linkclipref>010_06_01_A3</linkclipref>
						<mediatype>audio</mediatype>
						<trackindex>2</trackindex>
						<clipindex>31</clipindex>
					</link>
					<link>
						<linkclipref>010_06_01_A4</linkclipref>
						<mediatype>audio</mediatype>
						<trackindex>3</trackindex>
						<clipindex>29</clipindex>
					</link>
					<link>
						<linkclipref>010_06_01_A5</linkclipref>
						<mediatype>audio</mediatype>
						<trackindex>4</trackindex>
						<clipindex>19</clipindex>
					</link>
					<link>
						<linkclipref>010_06_01_A6</linkclipref>
						<mediatype>audio</mediatype>
						<trackindex>5</trackindex>
						<clipindex>1</clipindex>
					</link>
					<itemhistory>
						<uuid>C355E70C-E022-4D70-A8DD-0961E6F9EA61</uuid>
					</itemhistory>
				</clipitem>
				<clipitem id="010_06_01_B5">
					<name>010_06_01_B</name>
					<duration>2106</duration>
					<rate>
						<ntsc>FALSE</ntsc>
						<timebase>24</timebase>
					</rate>
					<in>0</in>
					<out>2106</out>
					<start>17598</start>
					<end>19704</end>
					<subframeoffset>0</subframeoffset>
					<enabled>TRUE</enabled>
					<masterclipid>010_06_01_B1</masterclipid>
					<logginginfo>
						<scene/>
						<shottake/>
						<lognote/>
						<good>FALSE</good>
					</logginginfo>
					<labels>
						<label2/>
					</labels>
					<comments>
						<mastercomment1/>
						<mastercomment2/>
						<mastercomment3/>
						<mastercomment4/>
					</comments>
					<file id="B002C001_130101_R1WX"/>
					<filter>
						<effect>
							<name>Audio Levels</name>
							<effectid>audiolevels</effectid>
							<effectcategory>audiolevels</effectcategory>
							<effecttype>audiolevels</effecttype>
							<mediatype>audio</mediatype>
							<parameter>
								<name>Level</name>
								<parameterid>level</parameterid>
								<valuemin>0</valuemin>
								<valuemax>3.98109</valuemax>
								<value>1</value>
							</parameter>
						</effect>
					</filter>
					<filter>
						<effect>
							<name>Audio Pan</name>
							<effectid>audiopan</effectid>
							<effectcategory>audiopan</effectcategory>
							<effecttype>audiopan</effecttype>
							<mediatype>audio</mediatype>
							<parameter>
								<name>Pan</name>
								<parameterid>pan</parameterid>
								<valuemin>-1</valuemin>
								<valuemax>1</valuemax>
								<value>0</value>
							</parameter>
						</effect>
					</filter>
					<sourcetrack>
						<mediatype>audio</mediatype>
						<trackindex>4</trackindex>
					</sourcetrack>
					<link>
						<linkclipref>010_06_01_B</linkclipref>
						<mediatype>video</mediatype>
						<trackindex>1</trackindex>
						<clipindex>32</clipindex>
					</link>
					<link>
						<linkclipref>010_06_01_B2</linkclipref>
						<mediatype>audio</mediatype>
						<trackindex>1</trackindex>
						<clipindex>32</clipindex>
					</link>
					<link>
						<linkclipref>010_06_01_B3</linkclipref>
						<mediatype>audio</mediatype>
						<trackindex>2</trackindex>
						<clipindex>32</clipindex>
					</link>
					<link>
						<linkclipref>010_06_01_B4</linkclipref>
						<mediatype>audio</mediatype>
						<trackindex>3</trackindex>
						<clipindex>30</clipindex>
					</link>
					<link>
						<linkclipref>010_06_01_B5</linkclipref>
						<mediatype>audio</mediatype>
						<trackindex>4</trackindex>
						<clipindex>20</clipindex>
					</link>
					<link>
						<linkclipref>010_06_01_B6</linkclipref>
						<mediatype>audio</mediatype>
						<trackindex>5</trackindex>
						<clipindex>2</clipindex>
					</link>
					<itemhistory>
						<uuid>9D23FA44-60E3-4B4A-8295-FA6A6235AEAB</uuid>
					</itemhistory>
				</clipitem>
				<clipitem id="010_06_02_A5">
					<name>010_06_02_A</name>
					<duration>649</duration>
					<rate>
						<ntsc>FALSE</ntsc>
						<timebase>24</timebase>
					</rate>
					<in>0</in>
					<out>649</out>
					<start>19704</start>
					<end>20353</end>
					<subframeoffset>0</subframeoffset>
					<enabled>TRUE</enabled>
					<masterclipid>010_06_02_A1</masterclipid>
					<logginginfo>
						<scene/>
						<shottake/>
						<lognote/>
						<good>FALSE</good>
					</logginginfo>
					<labels>
						<label2/>
					</labels>
					<comments>
						<mastercomment1/>
						<mastercomment2/>
						<mastercomment3/>
						<mastercomment4/>
					</comments>
					<file id="A002C002_221211_R03K"/>
					<filter>
						<effect>
							<name>Audio Levels</name>
							<effectid>audiolevels</effectid>
							<effectcategory>audiolevels</effectcategory>
							<effecttype>audiolevels</effecttype>
							<mediatype>audio</mediatype>
							<parameter>
								<name>Level</name>
								<parameterid>level</parameterid>
								<valuemin>0</valuemin>
								<valuemax>3.98109</valuemax>
								<value>1</value>
							</parameter>
						</effect>
					</filter>
					<filter>
						<effect>
							<name>Audio Pan</name>
							<effectid>audiopan</effectid>
							<effectcategory>audiopan</effectcategory>
							<effecttype>audiopan</effecttype>
							<mediatype>audio</mediatype>
							<parameter>
								<name>Pan</name>
								<parameterid>pan</parameterid>
								<valuemin>-1</valuemin>
								<valuemax>1</valuemax>
								<value>0</value>
							</parameter>
						</effect>
					</filter>
					<sourcetrack>
						<mediatype>audio</mediatype>
						<trackindex>4</trackindex>
					</sourcetrack>
					<link>
						<linkclipref>010_06_02_A</linkclipref>
						<mediatype>video</mediatype>
						<trackindex>1</trackindex>
						<clipindex>33</clipindex>
					</link>
					<link>
						<linkclipref>010_06_02_A2</linkclipref>
						<mediatype>audio</mediatype>
						<trackindex>1</trackindex>
						<clipindex>33</clipindex>
					</link>
					<link>
						<linkclipref>010_06_02_A3</linkclipref>
						<mediatype>audio</mediatype>
						<trackindex>2</trackindex>
						<clipindex>33</clipindex>
					</link>
					<link>
						<linkclipref>010_06_02_A4</linkclipref>
						<mediatype>audio</mediatype>
						<trackindex>3</trackindex>
						<clipindex>31</clipindex>
					</link>
					<link>
						<linkclipref>010_06_02_A5</linkclipref>
						<mediatype>audio</mediatype>
						<trackindex>4</trackindex>
						<clipindex>21</clipindex>
					</link>
					<link>
						<linkclipref>010_06_02_A6</linkclipref>
						<mediatype>audio</mediatype>
						<trackindex>5</trackindex>
						<clipindex>3</clipindex>
					</link>
					<itemhistory>
						<uuid>E9136E4E-40DB-4B3E-880C-B30FA84D01B5</uuid>
					</itemhistory>
				</clipitem>
				<clipitem id="010_06_02_B5">
					<name>010_06_02_B</name>
					<duration>668</duration>
					<rate>
						<ntsc>FALSE</ntsc>
						<timebase>24</timebase>
					</rate>
					<in>0</in>
					<out>668</out>
					<start>20353</start>
					<end>21021</end>
					<subframeoffset>0</subframeoffset>
					<enabled>TRUE</enabled>
					<masterclipid>010_06_02_B1</masterclipid>
					<logginginfo>
						<scene/>
						<shottake/>
						<lognote/>
						<good>FALSE</good>
					</logginginfo>
					<labels>
						<label2/>
					</labels>
					<comments>
						<mastercomment1/>
						<mastercomment2/>
						<mastercomment3/>
						<mastercomment4/>
					</comments>
					<file id="B002C002_130101_R1WX"/>
					<filter>
						<effect>
							<name>Audio Levels</name>
							<effectid>audiolevels</effectid>
							<effectcategory>audiolevels</effectcategory>
							<effecttype>audiolevels</effecttype>
							<mediatype>audio</mediatype>
							<parameter>
								<name>Level</name>
								<parameterid>level</parameterid>
								<valuemin>0</valuemin>
								<valuemax>3.98109</valuemax>
								<value>1</value>
							</parameter>
						</effect>
					</filter>
					<filter>
						<effect>
							<name>Audio Pan</name>
							<effectid>audiopan</effectid>
							<effectcategory>audiopan</effectcategory>
							<effecttype>audiopan</effecttype>
							<mediatype>audio</mediatype>
							<parameter>
								<name>Pan</name>
								<parameterid>pan</parameterid>
								<valuemin>-1</valuemin>
								<valuemax>1</valuemax>
								<value>0</value>
							</parameter>
						</effect>
					</filter>
					<sourcetrack>
						<mediatype>audio</mediatype>
						<trackindex>4</trackindex>
					</sourcetrack>
					<link>
						<linkclipref>010_06_02_B</linkclipref>
						<mediatype>video</mediatype>
						<trackindex>1</trackindex>
						<clipindex>34</clipindex>
					</link>
					<link>
						<linkclipref>010_06_02_B2</linkclipref>
						<mediatype>audio</mediatype>
						<trackindex>1</trackindex>
						<clipindex>34</clipindex>
					</link>
					<link>
						<linkclipref>010_06_02_B3</linkclipref>
						<mediatype>audio</mediatype>
						<trackindex>2</trackindex>
						<clipindex>34</clipindex>
					</link>
					<link>
						<linkclipref>010_06_02_B4</linkclipref>
						<mediatype>audio</mediatype>
						<trackindex>3</trackindex>
						<clipindex>32</clipindex>
					</link>
					<link>
						<linkclipref>010_06_02_B5</linkclipref>
						<mediatype>audio</mediatype>
						<trackindex>4</trackindex>
						<clipindex>22</clipindex>
					</link>
					<link>
						<linkclipref>010_06_02_B6</linkclipref>
						<mediatype>audio</mediatype>
						<trackindex>5</trackindex>
						<clipindex>4</clipindex>
					</link>
					<itemhistory>
						<uuid>869757BA-D01B-42B4-AE6A-C536DF754C34</uuid>
					</itemhistory>
				</clipitem>
				<clipitem id="010_06_03_A_后面OK5">
					<name>010_06_03_A_后面OK</name>
					<duration>2177</duration>
					<rate>
						<ntsc>FALSE</ntsc>
						<timebase>24</timebase>
					</rate>
					<in>0</in>
					<out>2177</out>
					<start>21021</start>
					<end>23198</end>
					<subframeoffset>0</subframeoffset>
					<enabled>TRUE</enabled>
					<masterclipid>010_06_03_A_后面OK1</masterclipid>
					<logginginfo>
						<scene/>
						<shottake/>
						<lognote/>
						<good>FALSE</good>
					</logginginfo>
					<labels>
						<label2/>
					</labels>
					<comments>
						<mastercomment1/>
						<mastercomment2/>
						<mastercomment3/>
						<mastercomment4/>
					</comments>
					<file id="A002C003_221211_R03K"/>
					<filter>
						<effect>
							<name>Audio Levels</name>
							<effectid>audiolevels</effectid>
							<effectcategory>audiolevels</effectcategory>
							<effecttype>audiolevels</effecttype>
							<mediatype>audio</mediatype>
							<parameter>
								<name>Level</name>
								<parameterid>level</parameterid>
								<valuemin>0</valuemin>
								<valuemax>3.98109</valuemax>
								<value>1</value>
							</parameter>
						</effect>
					</filter>
					<filter>
						<effect>
							<name>Audio Pan</name>
							<effectid>audiopan</effectid>
							<effectcategory>audiopan</effectcategory>
							<effecttype>audiopan</effecttype>
							<mediatype>audio</mediatype>
							<parameter>
								<name>Pan</name>
								<parameterid>pan</parameterid>
								<valuemin>-1</valuemin>
								<valuemax>1</valuemax>
								<value>0</value>
							</parameter>
						</effect>
					</filter>
					<sourcetrack>
						<mediatype>audio</mediatype>
						<trackindex>4</trackindex>
					</sourcetrack>
					<link>
						<linkclipref>010_06_03_A_后面OK</linkclipref>
						<mediatype>video</mediatype>
						<trackindex>1</trackindex>
						<clipindex>35</clipindex>
					</link>
					<link>
						<linkclipref>010_06_03_A_后面OK2</linkclipref>
						<mediatype>audio</mediatype>
						<trackindex>1</trackindex>
						<clipindex>35</clipindex>
					</link>
					<link>
						<linkclipref>010_06_03_A_后面OK3</linkclipref>
						<mediatype>audio</mediatype>
						<trackindex>2</trackindex>
						<clipindex>35</clipindex>
					</link>
					<link>
						<linkclipref>010_06_03_A_后面OK4</linkclipref>
						<mediatype>audio</mediatype>
						<trackindex>3</trackindex>
						<clipindex>33</clipindex>
					</link>
					<link>
						<linkclipref>010_06_03_A_后面OK5</linkclipref>
						<mediatype>audio</mediatype>
						<trackindex>4</trackindex>
						<clipindex>23</clipindex>
					</link>
					<link>
						<linkclipref>010_06_03_A_后面OK6</linkclipref>
						<mediatype>audio</mediatype>
						<trackindex>5</trackindex>
						<clipindex>5</clipindex>
					</link>
					<itemhistory>
						<uuid>83D34D2C-5C73-4502-9713-2A41857AA6F8</uuid>
					</itemhistory>
				</clipitem>
				<clipitem id="010_06_03_B_后面OK5">
					<name>010_06_03_B_后面OK</name>
					<duration>2160</duration>
					<rate>
						<ntsc>FALSE</ntsc>
						<timebase>24</timebase>
					</rate>
					<in>425</in>
					<out>495</out>
					<start>23198</start>
					<end>23268</end>
					<subframeoffset>0</subframeoffset>
					<enabled>TRUE</enabled>
					<masterclipid>010_06_03_B_后面OK1</masterclipid>
					<logginginfo>
						<scene/>
						<shottake/>
						<lognote/>
						<good>FALSE</good>
					</logginginfo>
					<labels>
						<label2/>
					</labels>
					<comments>
						<mastercomment1/>
						<mastercomment2/>
						<mastercomment3/>
						<mastercomment4/>
					</comments>
					<file id="B002C003_130101_R1WX"/>
					<filter>
						<effect>
							<name>Audio Levels</name>
							<effectid>audiolevels</effectid>
							<effectcategory>audiolevels</effectcategory>
							<effecttype>audiolevels</effecttype>
							<mediatype>audio</mediatype>
							<parameter>
								<name>Level</name>
								<parameterid>level</parameterid>
								<valuemin>0</valuemin>
								<valuemax>3.98109</valuemax>
								<value>1</value>
							</parameter>
						</effect>
					</filter>
					<filter>
						<effect>
							<name>Audio Pan</name>
							<effectid>audiopan</effectid>
							<effectcategory>audiopan</effectcategory>
							<effecttype>audiopan</effecttype>
							<mediatype>audio</mediatype>
							<parameter>
								<name>Pan</name>
								<parameterid>pan</parameterid>
								<valuemin>-1</valuemin>
								<valuemax>1</valuemax>
								<value>0</value>
							</parameter>
						</effect>
					</filter>
					<sourcetrack>
						<mediatype>audio</mediatype>
						<trackindex>4</trackindex>
					</sourcetrack>
					<link>
						<linkclipref>010_06_03_B_后面OK</linkclipref>
						<mediatype>video</mediatype>
						<trackindex>1</trackindex>
						<clipindex>36</clipindex>
					</link>
					<link>
						<linkclipref>010_06_03_B_后面OK2</linkclipref>
						<mediatype>audio</mediatype>
						<trackindex>1</trackindex>
						<clipindex>36</clipindex>
					</link>
					<link>
						<linkclipref>010_06_03_B_后面OK3</linkclipref>
						<mediatype>audio</mediatype>
						<trackindex>2</trackindex>
						<clipindex>36</clipindex>
					</link>
					<link>
						<linkclipref>010_06_03_B_后面OK4</linkclipref>
						<mediatype>audio</mediatype>
						<trackindex>3</trackindex>
						<clipindex>34</clipindex>
					</link>
					<link>
						<linkclipref>010_06_03_B_后面OK5</linkclipref>
						<mediatype>audio</mediatype>
						<trackindex>4</trackindex>
						<clipindex>24</clipindex>
					</link>
					<link>
						<linkclipref>010_06_03_B_后面OK6</linkclipref>
						<mediatype>audio</mediatype>
						<trackindex>5</trackindex>
						<clipindex>6</clipindex>
					</link>
					<itemhistory>
						<uuid>97A3B9B9-601D-4974-B0AA-EA5B20CC856A</uuid>
					</itemhistory>
				</clipitem>
				<clipitem id="010_06_04_A_前面OK5">
					<name>010_06_04_A_前面OK</name>
					<duration>877</duration>
					<rate>
						<ntsc>FALSE</ntsc>
						<timebase>24</timebase>
					</rate>
					<in>582</in>
					<out>777</out>
					<start>23268</start>
					<end>23463</end>
					<subframeoffset>0</subframeoffset>
					<enabled>TRUE</enabled>
					<masterclipid>010_06_04_A_前面OK1</masterclipid>
					<logginginfo>
						<scene/>
						<shottake/>
						<lognote/>
						<good>FALSE</good>
					</logginginfo>
					<labels>
						<label2/>
					</labels>
					<comments>
						<mastercomment1/>
						<mastercomment2/>
						<mastercomment3/>
						<mastercomment4/>
					</comments>
					<file id="A002C004_221211_R03K"/>
					<filter>
						<effect>
							<name>Audio Levels</name>
							<effectid>audiolevels</effectid>
							<effectcategory>audiolevels</effectcategory>
							<effecttype>audiolevels</effecttype>
							<mediatype>audio</mediatype>
							<parameter>
								<name>Level</name>
								<parameterid>level</parameterid>
								<valuemin>0</valuemin>
								<valuemax>3.98109</valuemax>
								<value>1</value>
							</parameter>
						</effect>
					</filter>
					<filter>
						<effect>
							<name>Audio Pan</name>
							<effectid>audiopan</effectid>
							<effectcategory>audiopan</effectcategory>
							<effecttype>audiopan</effecttype>
							<mediatype>audio</mediatype>
							<parameter>
								<name>Pan</name>
								<parameterid>pan</parameterid>
								<valuemin>-1</valuemin>
								<valuemax>1</valuemax>
								<value>0</value>
							</parameter>
						</effect>
					</filter>
					<sourcetrack>
						<mediatype>audio</mediatype>
						<trackindex>4</trackindex>
					</sourcetrack>
					<link>
						<linkclipref>010_06_04_A_前面OK</linkclipref>
						<mediatype>video</mediatype>
						<trackindex>1</trackindex>
						<clipindex>37</clipindex>
					</link>
					<link>
						<linkclipref>010_06_04_A_前面OK2</linkclipref>
						<mediatype>audio</mediatype>
						<trackindex>1</trackindex>
						<clipindex>37</clipindex>
					</link>
					<link>
						<linkclipref>010_06_04_A_前面OK3</linkclipref>
						<mediatype>audio</mediatype>
						<trackindex>2</trackindex>
						<clipindex>37</clipindex>
					</link>
					<link>
						<linkclipref>010_06_04_A_前面OK4</linkclipref>
						<mediatype>audio</mediatype>
						<trackindex>3</trackindex>
						<clipindex>35</clipindex>
					</link>
					<link>
						<linkclipref>010_06_04_A_前面OK5</linkclipref>
						<mediatype>audio</mediatype>
						<trackindex>4</trackindex>
						<clipindex>25</clipindex>
					</link>
					<link>
						<linkclipref>010_06_04_A_前面OK6</linkclipref>
						<mediatype>audio</mediatype>
						<trackindex>5</trackindex>
						<clipindex>7</clipindex>
					</link>
					<itemhistory>
						<uuid>344231FB-049A-4E00-B977-DAE848BBD473</uuid>
					</itemhistory>
				</clipitem>
				<clipitem id="010_06_04_B_后面OK5">
					<name>010_06_04_B_后面OK</name>
					<duration>839</duration>
					<rate>
						<ntsc>FALSE</ntsc>
						<timebase>24</timebase>
					</rate>
					<in>399</in>
					<out>487</out>
					<start>23463</start>
					<end>23551</end>
					<subframeoffset>0</subframeoffset>
					<enabled>TRUE</enabled>
					<masterclipid>010_06_04_B_后面OK1</masterclipid>
					<logginginfo>
						<scene/>
						<shottake/>
						<lognote/>
						<good>FALSE</good>
					</logginginfo>
					<labels>
						<label2/>
					</labels>
					<comments>
						<mastercomment1/>
						<mastercomment2/>
						<mastercomment3/>
						<mastercomment4/>
					</comments>
					<file id="B002C004_130101_R1WX"/>
					<filter>
						<effect>
							<name>Audio Levels</name>
							<effectid>audiolevels</effectid>
							<effectcategory>audiolevels</effectcategory>
							<effecttype>audiolevels</effecttype>
							<mediatype>audio</mediatype>
							<parameter>
								<name>Level</name>
								<parameterid>level</parameterid>
								<valuemin>0</valuemin>
								<valuemax>3.98109</valuemax>
								<value>1</value>
							</parameter>
						</effect>
					</filter>
					<filter>
						<effect>
							<name>Audio Pan</name>
							<effectid>audiopan</effectid>
							<effectcategory>audiopan</effectcategory>
							<effecttype>audiopan</effecttype>
							<mediatype>audio</mediatype>
							<parameter>
								<name>Pan</name>
								<parameterid>pan</parameterid>
								<valuemin>-1</valuemin>
								<valuemax>1</valuemax>
								<value>0</value>
							</parameter>
						</effect>
					</filter>
					<sourcetrack>
						<mediatype>audio</mediatype>
						<trackindex>4</trackindex>
					</sourcetrack>
					<link>
						<linkclipref>010_06_04_B_后面OK</linkclipref>
						<mediatype>video</mediatype>
						<trackindex>1</trackindex>
						<clipindex>38</clipindex>
					</link>
					<link>
						<linkclipref>010_06_04_B_后面OK2</linkclipref>
						<mediatype>audio</mediatype>
						<trackindex>1</trackindex>
						<clipindex>38</clipindex>
					</link>
					<link>
						<linkclipref>010_06_04_B_后面OK3</linkclipref>
						<mediatype>audio</mediatype>
						<trackindex>2</trackindex>
						<clipindex>38</clipindex>
					</link>
					<link>
						<linkclipref>010_06_04_B_后面OK4</linkclipref>
						<mediatype>audio</mediatype>
						<trackindex>3</trackindex>
						<clipindex>36</clipindex>
					</link>
					<link>
						<linkclipref>010_06_04_B_后面OK5</linkclipref>
						<mediatype>audio</mediatype>
						<trackindex>4</trackindex>
						<clipindex>26</clipindex>
					</link>
					<link>
						<linkclipref>010_06_04_B_后面OK6</linkclipref>
						<mediatype>audio</mediatype>
						<trackindex>5</trackindex>
						<clipindex>8</clipindex>
					</link>
					<itemhistory>
						<uuid>61821A8B-8F5D-463E-8C37-00126542AC10</uuid>
					</itemhistory>
				</clipitem>
				<clipitem id="010_07_01_B_KP5">
					<name>010_07_01_B_KP</name>
					<duration>430</duration>
					<rate>
						<ntsc>FALSE</ntsc>
						<timebase>24</timebase>
					</rate>
					<in>204</in>
					<out>287</out>
					<start>25518</start>
					<end>25601</end>
					<subframeoffset>0</subframeoffset>
					<enabled>TRUE</enabled>
					<masterclipid>010_07_01_B_KP1</masterclipid>
					<logginginfo>
						<scene/>
						<shottake/>
						<lognote/>
						<good>FALSE</good>
					</logginginfo>
					<labels>
						<label2/>
					</labels>
					<comments>
						<mastercomment1/>
						<mastercomment2/>
						<mastercomment3/>
						<mastercomment4/>
					</comments>
					<file id="B002C005_130101_R1WX"/>
					<filter>
						<effect>
							<name>Audio Levels</name>
							<effectid>audiolevels</effectid>
							<effectcategory>audiolevels</effectcategory>
							<effecttype>audiolevels</effecttype>
							<mediatype>audio</mediatype>
							<parameter>
								<name>Level</name>
								<parameterid>level</parameterid>
								<valuemin>0</valuemin>
								<valuemax>3.98109</valuemax>
								<value>1</value>
							</parameter>
						</effect>
					</filter>
					<filter>
						<effect>
							<name>Audio Pan</name>
							<effectid>audiopan</effectid>
							<effectcategory>audiopan</effectcategory>
							<effecttype>audiopan</effecttype>
							<mediatype>audio</mediatype>
							<parameter>
								<name>Pan</name>
								<parameterid>pan</parameterid>
								<valuemin>-1</valuemin>
								<valuemax>1</valuemax>
								<value>0</value>
							</parameter>
						</effect>
					</filter>
					<sourcetrack>
						<mediatype>audio</mediatype>
						<trackindex>4</trackindex>
					</sourcetrack>
					<link>
						<linkclipref>010_07_01_B_KP</linkclipref>
						<mediatype>video</mediatype>
						<trackindex>1</trackindex>
						<clipindex>40</clipindex>
					</link>
					<link>
						<linkclipref>010_07_01_B_KP2</linkclipref>
						<mediatype>audio</mediatype>
						<trackindex>1</trackindex>
						<clipindex>40</clipindex>
					</link>
					<link>
						<linkclipref>010_07_01_B_KP3</linkclipref>
						<mediatype>audio</mediatype>
						<trackindex>2</trackindex>
						<clipindex>40</clipindex>
					</link>
					<link>
						<linkclipref>010_07_01_B_KP4</linkclipref>
						<mediatype>audio</mediatype>
						<trackindex>3</trackindex>
						<clipindex>38</clipindex>
					</link>
					<link>
						<linkclipref>010_07_01_B_KP5</linkclipref>
						<mediatype>audio</mediatype>
						<trackindex>4</trackindex>
						<clipindex>27</clipindex>
					</link>
					<itemhistory>
						<uuid>01DAD309-4391-4D3B-B58E-EED090952301</uuid>
					</itemhistory>
				</clipitem>
				<clipitem id="010_07_02_B_KP5">
					<name>010_07_02_B_KP</name>
					<duration>474</duration>
					<rate>
						<ntsc>FALSE</ntsc>
						<timebase>24</timebase>
					</rate>
					<in>270</in>
					<out>320</out>
					<start>25918</start>
					<end>25968</end>
					<subframeoffset>0</subframeoffset>
					<enabled>TRUE</enabled>
					<masterclipid>010_07_02_B_KP1</masterclipid>
					<logginginfo>
						<scene/>
						<shottake/>
						<lognote/>
						<good>FALSE</good>
					</logginginfo>
					<labels>
						<label2/>
					</labels>
					<comments>
						<mastercomment1/>
						<mastercomment2/>
						<mastercomment3/>
						<mastercomment4/>
					</comments>
					<file id="B002C006_130101_R1WX"/>
					<filter>
						<effect>
							<name>Audio Levels</name>
							<effectid>audiolevels</effectid>
							<effectcategory>audiolevels</effectcategory>
							<effecttype>audiolevels</effecttype>
							<mediatype>audio</mediatype>
							<parameter>
								<name>Level</name>
								<parameterid>level</parameterid>
								<valuemin>0</valuemin>
								<valuemax>3.98109</valuemax>
								<value>1</value>
							</parameter>
						</effect>
					</filter>
					<filter>
						<effect>
							<name>Audio Pan</name>
							<effectid>audiopan</effectid>
							<effectcategory>audiopan</effectcategory>
							<effecttype>audiopan</effecttype>
							<mediatype>audio</mediatype>
							<parameter>
								<name>Pan</name>
								<parameterid>pan</parameterid>
								<valuemin>-1</valuemin>
								<valuemax>1</valuemax>
								<value>0</value>
							</parameter>
						</effect>
					</filter>
					<sourcetrack>
						<mediatype>audio</mediatype>
						<trackindex>4</trackindex>
					</sourcetrack>
					<link>
						<linkclipref>010_07_02_B_KP</linkclipref>
						<mediatype>video</mediatype>
						<trackindex>1</trackindex>
						<clipindex>42</clipindex>
					</link>
					<link>
						<linkclipref>010_07_02_B_KP2</linkclipref>
						<mediatype>audio</mediatype>
						<trackindex>1</trackindex>
						<clipindex>42</clipindex>
					</link>
					<link>
						<linkclipref>010_07_02_B_KP3</linkclipref>
						<mediatype>audio</mediatype>
						<trackindex>2</trackindex>
						<clipindex>42</clipindex>
					</link>
					<link>
						<linkclipref>010_07_02_B_KP4</linkclipref>
						<mediatype>audio</mediatype>
						<trackindex>3</trackindex>
						<clipindex>40</clipindex>
					</link>
					<link>
						<linkclipref>010_07_02_B_KP5</linkclipref>
						<mediatype>audio</mediatype>
						<trackindex>4</trackindex>
						<clipindex>28</clipindex>
					</link>
					<itemhistory>
						<uuid>62BDDEC8-F370-413B-822E-A06A050EA51A</uuid>
					</itemhistory>
				</clipitem>
				<clipitem id="010_08_01_B5">
					<name>010_08_01_B</name>
					<duration>466</duration>
					<rate>
						<ntsc>FALSE</ntsc>
						<timebase>24</timebase>
					</rate>
					<in>0</in>
					<out>466</out>
					<start>31579</start>
					<end>32045</end>
					<subframeoffset>0</subframeoffset>
					<enabled>TRUE</enabled>
					<masterclipid>010_08_01_B1</masterclipid>
					<logginginfo>
						<scene/>
						<shottake/>
						<lognote/>
						<good>FALSE</good>
					</logginginfo>
					<labels>
						<label2/>
					</labels>
					<comments>
						<mastercomment1/>
						<mastercomment2/>
						<mastercomment3/>
						<mastercomment4/>
					</comments>
					<file id="B002C007_130101_R1WX"/>
					<filter>
						<effect>
							<name>Audio Levels</name>
							<effectid>audiolevels</effectid>
							<effectcategory>audiolevels</effectcategory>
							<effecttype>audiolevels</effecttype>
							<mediatype>audio</mediatype>
							<parameter>
								<name>Level</name>
								<parameterid>level</parameterid>
								<valuemin>0</valuemin>
								<valuemax>3.98109</valuemax>
								<value>1</value>
							</parameter>
						</effect>
					</filter>
					<filter>
						<effect>
							<name>Audio Pan</name>
							<effectid>audiopan</effectid>
							<effectcategory>audiopan</effectcategory>
							<effecttype>audiopan</effecttype>
							<mediatype>audio</mediatype>
							<parameter>
								<name>Pan</name>
								<parameterid>pan</parameterid>
								<valuemin>-1</valuemin>
								<valuemax>1</valuemax>
								<value>0</value>
							</parameter>
						</effect>
					</filter>
					<sourcetrack>
						<mediatype>audio</mediatype>
						<trackindex>4</trackindex>
					</sourcetrack>
					<link>
						<linkclipref>010_08_01_B</linkclipref>
						<mediatype>video</mediatype>
						<trackindex>1</trackindex>
						<clipindex>55</clipindex>
					</link>
					<link>
						<linkclipref>010_08_01_B2</linkclipref>
						<mediatype>audio</mediatype>
						<trackindex>1</trackindex>
						<clipindex>55</clipindex>
					</link>
					<link>
						<linkclipref>010_08_01_B3</linkclipref>
						<mediatype>audio</mediatype>
						<trackindex>2</trackindex>
						<clipindex>55</clipindex>
					</link>
					<link>
						<linkclipref>010_08_01_B4</linkclipref>
						<mediatype>audio</mediatype>
						<trackindex>3</trackindex>
						<clipindex>53</clipindex>
					</link>
					<link>
						<linkclipref>010_08_01_B5</linkclipref>
						<mediatype>audio</mediatype>
						<trackindex>4</trackindex>
						<clipindex>29</clipindex>
					</link>
					<itemhistory>
						<uuid>2570D7C9-4E9D-4A75-B707-2E4FE1DBD65C</uuid>
					</itemhistory>
				</clipitem>
				<clipitem id="010_08_02_B5">
					<name>010_08_02_B</name>
					<duration>495</duration>
					<rate>
						<ntsc>FALSE</ntsc>
						<timebase>24</timebase>
					</rate>
					<in>0</in>
					<out>495</out>
					<start>32045</start>
					<end>32540</end>
					<subframeoffset>0</subframeoffset>
					<enabled>TRUE</enabled>
					<masterclipid>010_08_02_B1</masterclipid>
					<logginginfo>
						<scene/>
						<shottake/>
						<lognote/>
						<good>FALSE</good>
					</logginginfo>
					<labels>
						<label2/>
					</labels>
					<comments>
						<mastercomment1/>
						<mastercomment2/>
						<mastercomment3/>
						<mastercomment4/>
					</comments>
					<file id="B002C008_130101_R1WX"/>
					<filter>
						<effect>
							<name>Audio Levels</name>
							<effectid>audiolevels</effectid>
							<effectcategory>audiolevels</effectcategory>
							<effecttype>audiolevels</effecttype>
							<mediatype>audio</mediatype>
							<parameter>
								<name>Level</name>
								<parameterid>level</parameterid>
								<valuemin>0</valuemin>
								<valuemax>3.98109</valuemax>
								<value>1</value>
							</parameter>
						</effect>
					</filter>
					<filter>
						<effect>
							<name>Audio Pan</name>
							<effectid>audiopan</effectid>
							<effectcategory>audiopan</effectcategory>
							<effecttype>audiopan</effecttype>
							<mediatype>audio</mediatype>
							<parameter>
								<name>Pan</name>
								<parameterid>pan</parameterid>
								<valuemin>-1</valuemin>
								<valuemax>1</valuemax>
								<value>0</value>
							</parameter>
						</effect>
					</filter>
					<sourcetrack>
						<mediatype>audio</mediatype>
						<trackindex>4</trackindex>
					</sourcetrack>
					<link>
						<linkclipref>010_08_02_B</linkclipref>
						<mediatype>video</mediatype>
						<trackindex>1</trackindex>
						<clipindex>56</clipindex>
					</link>
					<link>
						<linkclipref>010_08_02_B2</linkclipref>
						<mediatype>audio</mediatype>
						<trackindex>1</trackindex>
						<clipindex>56</clipindex>
					</link>
					<link>
						<linkclipref>010_08_02_B3</linkclipref>
						<mediatype>audio</mediatype>
						<trackindex>2</trackindex>
						<clipindex>56</clipindex>
					</link>
					<link>
						<linkclipref>010_08_02_B4</linkclipref>
						<mediatype>audio</mediatype>
						<trackindex>3</trackindex>
						<clipindex>54</clipindex>
					</link>
					<link>
						<linkclipref>010_08_02_B5</linkclipref>
						<mediatype>audio</mediatype>
						<trackindex>4</trackindex>
						<clipindex>30</clipindex>
					</link>
					<itemhistory>
						<uuid>29D5E786-4311-4ABE-B954-35A6401705D9</uuid>
					</itemhistory>
				</clipitem>
				<clipitem id="010_08_03_B_OK5">
					<name>010_08_03_B_OK</name>
					<duration>483</duration>
					<rate>
						<ntsc>FALSE</ntsc>
						<timebase>24</timebase>
					</rate>
					<in>0</in>
					<out>483</out>
					<start>32540</start>
					<end>33023</end>
					<subframeoffset>0</subframeoffset>
					<enabled>TRUE</enabled>
					<masterclipid>010_08_03_B_OK1</masterclipid>
					<logginginfo>
						<scene/>
						<shottake/>
						<lognote/>
						<good>FALSE</good>
					</logginginfo>
					<labels>
						<label2/>
					</labels>
					<comments>
						<mastercomment1/>
						<mastercomment2/>
						<mastercomment3/>
						<mastercomment4/>
					</comments>
					<file id="B002C009_130101_R1WX"/>
					<filter>
						<effect>
							<name>Audio Levels</name>
							<effectid>audiolevels</effectid>
							<effectcategory>audiolevels</effectcategory>
							<effecttype>audiolevels</effecttype>
							<mediatype>audio</mediatype>
							<parameter>
								<name>Level</name>
								<parameterid>level</parameterid>
								<valuemin>0</valuemin>
								<valuemax>3.98109</valuemax>
								<value>1</value>
							</parameter>
						</effect>
					</filter>
					<filter>
						<effect>
							<name>Audio Pan</name>
							<effectid>audiopan</effectid>
							<effectcategory>audiopan</effectcategory>
							<effecttype>audiopan</effecttype>
							<mediatype>audio</mediatype>
							<parameter>
								<name>Pan</name>
								<parameterid>pan</parameterid>
								<valuemin>-1</valuemin>
								<valuemax>1</valuemax>
								<value>0</value>
							</parameter>
						</effect>
					</filter>
					<sourcetrack>
						<mediatype>audio</mediatype>
						<trackindex>4</trackindex>
					</sourcetrack>
					<link>
						<linkclipref>010_08_03_B_OK</linkclipref>
						<mediatype>video</mediatype>
						<trackindex>1</trackindex>
						<clipindex>57</clipindex>
					</link>
					<link>
						<linkclipref>010_08_03_B_OK2</linkclipref>
						<mediatype>audio</mediatype>
						<trackindex>1</trackindex>
						<clipindex>57</clipindex>
					</link>
					<link>
						<linkclipref>010_08_03_B_OK3</linkclipref>
						<mediatype>audio</mediatype>
						<trackindex>2</trackindex>
						<clipindex>57</clipindex>
					</link>
					<link>
						<linkclipref>010_08_03_B_OK4</linkclipref>
						<mediatype>audio</mediatype>
						<trackindex>3</trackindex>
						<clipindex>55</clipindex>
					</link>
					<link>
						<linkclipref>010_08_03_B_OK5</linkclipref>
						<mediatype>audio</mediatype>
						<trackindex>4</trackindex>
						<clipindex>31</clipindex>
					</link>
					<itemhistory>
						<uuid>1C99842B-2B5F-4888-BB40-A6213E705FB8</uuid>
					</itemhistory>
				</clipitem>
				<clipitem id="010_08_04_B_OK5">
					<name>010_08_04_B_OK</name>
					<duration>433</duration>
					<rate>
						<ntsc>FALSE</ntsc>
						<timebase>24</timebase>
					</rate>
					<in>77</in>
					<out>433</out>
					<start>33023</start>
					<end>33379</end>
					<subframeoffset>0</subframeoffset>
					<enabled>TRUE</enabled>
					<masterclipid>010_08_04_B_OK1</masterclipid>
					<logginginfo>
						<scene/>
						<shottake/>
						<lognote/>
						<good>FALSE</good>
					</logginginfo>
					<labels>
						<label2/>
					</labels>
					<comments>
						<mastercomment1/>
						<mastercomment2/>
						<mastercomment3/>
						<mastercomment4/>
					</comments>
					<file id="B002C010_130101_R1WX"/>
					<filter>
						<effect>
							<name>Audio Levels</name>
							<effectid>audiolevels</effectid>
							<effectcategory>audiolevels</effectcategory>
							<effecttype>audiolevels</effecttype>
							<mediatype>audio</mediatype>
							<parameter>
								<name>Level</name>
								<parameterid>level</parameterid>
								<valuemin>0</valuemin>
								<valuemax>3.98109</valuemax>
								<value>1</value>
							</parameter>
						</effect>
					</filter>
					<filter>
						<effect>
							<name>Audio Pan</name>
							<effectid>audiopan</effectid>
							<effectcategory>audiopan</effectcategory>
							<effecttype>audiopan</effecttype>
							<mediatype>audio</mediatype>
							<parameter>
								<name>Pan</name>
								<parameterid>pan</parameterid>
								<valuemin>-1</valuemin>
								<valuemax>1</valuemax>
								<value>0</value>
							</parameter>
						</effect>
					</filter>
					<sourcetrack>
						<mediatype>audio</mediatype>
						<trackindex>4</trackindex>
					</sourcetrack>
					<link>
						<linkclipref>010_08_04_B_OK</linkclipref>
						<mediatype>video</mediatype>
						<trackindex>1</trackindex>
						<clipindex>58</clipindex>
					</link>
					<link>
						<linkclipref>010_08_04_B_OK2</linkclipref>
						<mediatype>audio</mediatype>
						<trackindex>1</trackindex>
						<clipindex>58</clipindex>
					</link>
					<link>
						<linkclipref>010_08_04_B_OK3</linkclipref>
						<mediatype>audio</mediatype>
						<trackindex>2</trackindex>
						<clipindex>58</clipindex>
					</link>
					<link>
						<linkclipref>010_08_04_B_OK4</linkclipref>
						<mediatype>audio</mediatype>
						<trackindex>3</trackindex>
						<clipindex>56</clipindex>
					</link>
					<link>
						<linkclipref>010_08_04_B_OK5</linkclipref>
						<mediatype>audio</mediatype>
						<trackindex>4</trackindex>
						<clipindex>32</clipindex>
					</link>
					<itemhistory>
						<uuid>996F8ABA-9A08-4A5B-87F0-230954009FF2</uuid>
					</itemhistory>
				</clipitem>
				<clipitem id="010_09_01_A5">
					<name>010_09_01_A</name>
					<duration>422</duration>
					<rate>
						<ntsc>FALSE</ntsc>
						<timebase>24</timebase>
					</rate>
					<in>0</in>
					<out>422</out>
					<start>33379</start>
					<end>33801</end>
					<subframeoffset>0</subframeoffset>
					<enabled>TRUE</enabled>
					<masterclipid>010_09_01_A1</masterclipid>
					<logginginfo>
						<scene/>
						<shottake/>
						<lognote/>
						<good>FALSE</good>
					</logginginfo>
					<labels>
						<label2/>
					</labels>
					<comments>
						<mastercomment1/>
						<mastercomment2/>
						<mastercomment3/>
						<mastercomment4/>
					</comments>
					<file id="A002C019_221211_R03K"/>
					<filter>
						<effect>
							<name>Audio Levels</name>
							<effectid>audiolevels</effectid>
							<effectcategory>audiolevels</effectcategory>
							<effecttype>audiolevels</effecttype>
							<mediatype>audio</mediatype>
							<parameter>
								<name>Level</name>
								<parameterid>level</parameterid>
								<valuemin>0</valuemin>
								<valuemax>3.98109</valuemax>
								<value>1</value>
							</parameter>
						</effect>
					</filter>
					<filter>
						<effect>
							<name>Audio Pan</name>
							<effectid>audiopan</effectid>
							<effectcategory>audiopan</effectcategory>
							<effecttype>audiopan</effecttype>
							<mediatype>audio</mediatype>
							<parameter>
								<name>Pan</name>
								<parameterid>pan</parameterid>
								<valuemin>-1</valuemin>
								<valuemax>1</valuemax>
								<value>0</value>
							</parameter>
						</effect>
					</filter>
					<sourcetrack>
						<mediatype>audio</mediatype>
						<trackindex>4</trackindex>
					</sourcetrack>
					<link>
						<linkclipref>010_09_01_A</linkclipref>
						<mediatype>video</mediatype>
						<trackindex>1</trackindex>
						<clipindex>59</clipindex>
					</link>
					<link>
						<linkclipref>010_09_01_A2</linkclipref>
						<mediatype>audio</mediatype>
						<trackindex>1</trackindex>
						<clipindex>59</clipindex>
					</link>
					<link>
						<linkclipref>010_09_01_A3</linkclipref>
						<mediatype>audio</mediatype>
						<trackindex>2</trackindex>
						<clipindex>59</clipindex>
					</link>
					<link>
						<linkclipref>010_09_01_A4</linkclipref>
						<mediatype>audio</mediatype>
						<trackindex>3</trackindex>
						<clipindex>57</clipindex>
					</link>
					<link>
						<linkclipref>010_09_01_A5</linkclipref>
						<mediatype>audio</mediatype>
						<trackindex>4</trackindex>
						<clipindex>33</clipindex>
					</link>
					<itemhistory>
						<uuid>A98C06E3-C0CF-4777-A566-47300241584A</uuid>
					</itemhistory>
				</clipitem>
				<clipitem id="010_09_02_A5">
					<name>010_09_02_A</name>
					<duration>289</duration>
					<rate>
						<ntsc>FALSE</ntsc>
						<timebase>24</timebase>
					</rate>
					<in>0</in>
					<out>289</out>
					<start>33801</start>
					<end>34090</end>
					<subframeoffset>0</subframeoffset>
					<enabled>TRUE</enabled>
					<masterclipid>010_09_02_A1</masterclipid>
					<logginginfo>
						<scene/>
						<shottake/>
						<lognote/>
						<good>FALSE</good>
					</logginginfo>
					<labels>
						<label2/>
					</labels>
					<comments>
						<mastercomment1/>
						<mastercomment2/>
						<mastercomment3/>
						<mastercomment4/>
					</comments>
					<file id="A002C020_221211_R03K"/>
					<filter>
						<effect>
							<name>Audio Levels</name>
							<effectid>audiolevels</effectid>
							<effectcategory>audiolevels</effectcategory>
							<effecttype>audiolevels</effecttype>
							<mediatype>audio</mediatype>
							<parameter>
								<name>Level</name>
								<parameterid>level</parameterid>
								<valuemin>0</valuemin>
								<valuemax>3.98109</valuemax>
								<value>1</value>
							</parameter>
						</effect>
					</filter>
					<filter>
						<effect>
							<name>Audio Pan</name>
							<effectid>audiopan</effectid>
							<effectcategory>audiopan</effectcategory>
							<effecttype>audiopan</effecttype>
							<mediatype>audio</mediatype>
							<parameter>
								<name>Pan</name>
								<parameterid>pan</parameterid>
								<valuemin>-1</valuemin>
								<valuemax>1</valuemax>
								<value>0</value>
							</parameter>
						</effect>
					</filter>
					<sourcetrack>
						<mediatype>audio</mediatype>
						<trackindex>4</trackindex>
					</sourcetrack>
					<link>
						<linkclipref>010_09_02_A</linkclipref>
						<mediatype>video</mediatype>
						<trackindex>1</trackindex>
						<clipindex>60</clipindex>
					</link>
					<link>
						<linkclipref>010_09_02_A2</linkclipref>
						<mediatype>audio</mediatype>
						<trackindex>1</trackindex>
						<clipindex>60</clipindex>
					</link>
					<link>
						<linkclipref>010_09_02_A3</linkclipref>
						<mediatype>audio</mediatype>
						<trackindex>2</trackindex>
						<clipindex>60</clipindex>
					</link>
					<link>
						<linkclipref>010_09_02_A4</linkclipref>
						<mediatype>audio</mediatype>
						<trackindex>3</trackindex>
						<clipindex>58</clipindex>
					</link>
					<link>
						<linkclipref>010_09_02_A5</linkclipref>
						<mediatype>audio</mediatype>
						<trackindex>4</trackindex>
						<clipindex>34</clipindex>
					</link>
					<itemhistory>
						<uuid>3AFD1D01-DB55-42BB-A8BC-10CDB19D7C29</uuid>
					</itemhistory>
				</clipitem>
				<clipitem id="010_09_03_A5">
					<name>010_09_03_A</name>
					<duration>221</duration>
					<rate>
						<ntsc>FALSE</ntsc>
						<timebase>24</timebase>
					</rate>
					<in>0</in>
					<out>221</out>
					<start>34090</start>
					<end>34311</end>
					<subframeoffset>0</subframeoffset>
					<enabled>TRUE</enabled>
					<masterclipid>010_09_03_A1</masterclipid>
					<logginginfo>
						<scene/>
						<shottake/>
						<lognote/>
						<good>FALSE</good>
					</logginginfo>
					<labels>
						<label2/>
					</labels>
					<comments>
						<mastercomment1/>
						<mastercomment2/>
						<mastercomment3/>
						<mastercomment4/>
					</comments>
					<file id="A002C021_221211_R03K"/>
					<filter>
						<effect>
							<name>Audio Levels</name>
							<effectid>audiolevels</effectid>
							<effectcategory>audiolevels</effectcategory>
							<effecttype>audiolevels</effecttype>
							<mediatype>audio</mediatype>
							<parameter>
								<name>Level</name>
								<parameterid>level</parameterid>
								<valuemin>0</valuemin>
								<valuemax>3.98109</valuemax>
								<value>1</value>
							</parameter>
						</effect>
					</filter>
					<filter>
						<effect>
							<name>Audio Pan</name>
							<effectid>audiopan</effectid>
							<effectcategory>audiopan</effectcategory>
							<effecttype>audiopan</effecttype>
							<mediatype>audio</mediatype>
							<parameter>
								<name>Pan</name>
								<parameterid>pan</parameterid>
								<valuemin>-1</valuemin>
								<valuemax>1</valuemax>
								<value>0</value>
							</parameter>
						</effect>
					</filter>
					<sourcetrack>
						<mediatype>audio</mediatype>
						<trackindex>4</trackindex>
					</sourcetrack>
					<link>
						<linkclipref>010_09_03_A</linkclipref>
						<mediatype>video</mediatype>
						<trackindex>1</trackindex>
						<clipindex>61</clipindex>
					</link>
					<link>
						<linkclipref>010_09_03_A2</linkclipref>
						<mediatype>audio</mediatype>
						<trackindex>1</trackindex>
						<clipindex>61</clipindex>
					</link>
					<link>
						<linkclipref>010_09_03_A3</linkclipref>
						<mediatype>audio</mediatype>
						<trackindex>2</trackindex>
						<clipindex>61</clipindex>
					</link>
					<link>
						<linkclipref>010_09_03_A4</linkclipref>
						<mediatype>audio</mediatype>
						<trackindex>3</trackindex>
						<clipindex>59</clipindex>
					</link>
					<link>
						<linkclipref>010_09_03_A5</linkclipref>
						<mediatype>audio</mediatype>
						<trackindex>4</trackindex>
						<clipindex>35</clipindex>
					</link>
					<itemhistory>
						<uuid>81A61899-1169-44AF-A3E1-3BAF7A2435B8</uuid>
					</itemhistory>
				</clipitem>
				<clipitem id="010_09_04_A_OK5">
					<name>010_09_04_A_OK</name>
					<duration>313</duration>
					<rate>
						<ntsc>FALSE</ntsc>
						<timebase>24</timebase>
					</rate>
					<in>89</in>
					<out>197</out>
					<start>34311</start>
					<end>34419</end>
					<subframeoffset>0</subframeoffset>
					<enabled>TRUE</enabled>
					<masterclipid>010_09_04_A_OK1</masterclipid>
					<logginginfo>
						<scene/>
						<shottake/>
						<lognote/>
						<good>FALSE</good>
					</logginginfo>
					<labels>
						<label2/>
					</labels>
					<comments>
						<mastercomment1/>
						<mastercomment2/>
						<mastercomment3/>
						<mastercomment4/>
					</comments>
					<file id="A002C022_221211_R03K"/>
					<filter>
						<effect>
							<name>Audio Levels</name>
							<effectid>audiolevels</effectid>
							<effectcategory>audiolevels</effectcategory>
							<effecttype>audiolevels</effecttype>
							<mediatype>audio</mediatype>
							<parameter>
								<name>Level</name>
								<parameterid>level</parameterid>
								<valuemin>0</valuemin>
								<valuemax>3.98109</valuemax>
								<value>1</value>
							</parameter>
						</effect>
					</filter>
					<filter>
						<effect>
							<name>Audio Pan</name>
							<effectid>audiopan</effectid>
							<effectcategory>audiopan</effectcategory>
							<effecttype>audiopan</effecttype>
							<mediatype>audio</mediatype>
							<parameter>
								<name>Pan</name>
								<parameterid>pan</parameterid>
								<valuemin>-1</valuemin>
								<valuemax>1</valuemax>
								<value>0</value>
							</parameter>
						</effect>
					</filter>
					<sourcetrack>
						<mediatype>audio</mediatype>
						<trackindex>4</trackindex>
					</sourcetrack>
					<link>
						<linkclipref>010_09_04_A_OK</linkclipref>
						<mediatype>video</mediatype>
						<trackindex>1</trackindex>
						<clipindex>62</clipindex>
					</link>
					<link>
						<linkclipref>010_09_04_A_OK2</linkclipref>
						<mediatype>audio</mediatype>
						<trackindex>1</trackindex>
						<clipindex>62</clipindex>
					</link>
					<link>
						<linkclipref>010_09_04_A_OK3</linkclipref>
						<mediatype>audio</mediatype>
						<trackindex>2</trackindex>
						<clipindex>62</clipindex>
					</link>
					<link>
						<linkclipref>010_09_04_A_OK4</linkclipref>
						<mediatype>audio</mediatype>
						<trackindex>3</trackindex>
						<clipindex>60</clipindex>
					</link>
					<link>
						<linkclipref>010_09_04_A_OK5</linkclipref>
						<mediatype>audio</mediatype>
						<trackindex>4</trackindex>
						<clipindex>36</clipindex>
					</link>
					<itemhistory>
						<uuid>02EC2267-EB02-47D9-B46C-FD2E41308F66</uuid>
					</itemhistory>
				</clipitem>
				<clipitem id="010_10_01_A5">
					<name>010_10_01_A</name>
					<duration>438</duration>
					<rate>
						<ntsc>FALSE</ntsc>
						<timebase>24</timebase>
					</rate>
					<in>0</in>
					<out>438</out>
					<start>34419</start>
					<end>34857</end>
					<subframeoffset>0</subframeoffset>
					<enabled>TRUE</enabled>
					<masterclipid>010_10_01_A1</masterclipid>
					<logginginfo>
						<scene/>
						<shottake/>
						<lognote/>
						<good>FALSE</good>
					</logginginfo>
					<labels>
						<label2/>
					</labels>
					<comments>
						<mastercomment1/>
						<mastercomment2/>
						<mastercomment3/>
						<mastercomment4/>
					</comments>
					<file id="A002C023_221211_R03K"/>
					<filter>
						<effect>
							<name>Audio Levels</name>
							<effectid>audiolevels</effectid>
							<effectcategory>audiolevels</effectcategory>
							<effecttype>audiolevels</effecttype>
							<mediatype>audio</mediatype>
							<parameter>
								<name>Level</name>
								<parameterid>level</parameterid>
								<valuemin>0</valuemin>
								<valuemax>3.98109</valuemax>
								<value>1</value>
							</parameter>
						</effect>
					</filter>
					<filter>
						<effect>
							<name>Audio Pan</name>
							<effectid>audiopan</effectid>
							<effectcategory>audiopan</effectcategory>
							<effecttype>audiopan</effecttype>
							<mediatype>audio</mediatype>
							<parameter>
								<name>Pan</name>
								<parameterid>pan</parameterid>
								<valuemin>-1</valuemin>
								<valuemax>1</valuemax>
								<value>0</value>
							</parameter>
						</effect>
					</filter>
					<sourcetrack>
						<mediatype>audio</mediatype>
						<trackindex>4</trackindex>
					</sourcetrack>
					<link>
						<linkclipref>010_10_01_A</linkclipref>
						<mediatype>video</mediatype>
						<trackindex>1</trackindex>
						<clipindex>63</clipindex>
					</link>
					<link>
						<linkclipref>010_10_01_A2</linkclipref>
						<mediatype>audio</mediatype>
						<trackindex>1</trackindex>
						<clipindex>63</clipindex>
					</link>
					<link>
						<linkclipref>010_10_01_A3</linkclipref>
						<mediatype>audio</mediatype>
						<trackindex>2</trackindex>
						<clipindex>63</clipindex>
					</link>
					<link>
						<linkclipref>010_10_01_A4</linkclipref>
						<mediatype>audio</mediatype>
						<trackindex>3</trackindex>
						<clipindex>61</clipindex>
					</link>
					<link>
						<linkclipref>010_10_01_A5</linkclipref>
						<mediatype>audio</mediatype>
						<trackindex>4</trackindex>
						<clipindex>37</clipindex>
					</link>
					<itemhistory>
						<uuid>53F2624F-B0DC-4F01-ADC7-6CBC9E8BF8D8</uuid>
					</itemhistory>
				</clipitem>
				<clipitem id="010_10_02_A5">
					<name>010_10_02_A</name>
					<duration>428</duration>
					<rate>
						<ntsc>FALSE</ntsc>
						<timebase>24</timebase>
					</rate>
					<in>0</in>
					<out>428</out>
					<start>34857</start>
					<end>35285</end>
					<subframeoffset>0</subframeoffset>
					<enabled>TRUE</enabled>
					<masterclipid>010_10_02_A1</masterclipid>
					<logginginfo>
						<scene/>
						<shottake/>
						<lognote/>
						<good>FALSE</good>
					</logginginfo>
					<labels>
						<label2/>
					</labels>
					<comments>
						<mastercomment1/>
						<mastercomment2/>
						<mastercomment3/>
						<mastercomment4/>
					</comments>
					<file id="A002C024_221211_R03K"/>
					<filter>
						<effect>
							<name>Audio Levels</name>
							<effectid>audiolevels</effectid>
							<effectcategory>audiolevels</effectcategory>
							<effecttype>audiolevels</effecttype>
							<mediatype>audio</mediatype>
							<parameter>
								<name>Level</name>
								<parameterid>level</parameterid>
								<valuemin>0</valuemin>
								<valuemax>3.98109</valuemax>
								<value>1</value>
							</parameter>
						</effect>
					</filter>
					<filter>
						<effect>
							<name>Audio Pan</name>
							<effectid>audiopan</effectid>
							<effectcategory>audiopan</effectcategory>
							<effecttype>audiopan</effecttype>
							<mediatype>audio</mediatype>
							<parameter>
								<name>Pan</name>
								<parameterid>pan</parameterid>
								<valuemin>-1</valuemin>
								<valuemax>1</valuemax>
								<value>0</value>
							</parameter>
						</effect>
					</filter>
					<sourcetrack>
						<mediatype>audio</mediatype>
						<trackindex>4</trackindex>
					</sourcetrack>
					<link>
						<linkclipref>010_10_02_A</linkclipref>
						<mediatype>video</mediatype>
						<trackindex>1</trackindex>
						<clipindex>64</clipindex>
					</link>
					<link>
						<linkclipref>010_10_02_A2</linkclipref>
						<mediatype>audio</mediatype>
						<trackindex>1</trackindex>
						<clipindex>64</clipindex>
					</link>
					<link>
						<linkclipref>010_10_02_A3</linkclipref>
						<mediatype>audio</mediatype>
						<trackindex>2</trackindex>
						<clipindex>64</clipindex>
					</link>
					<link>
						<linkclipref>010_10_02_A4</linkclipref>
						<mediatype>audio</mediatype>
						<trackindex>3</trackindex>
						<clipindex>62</clipindex>
					</link>
					<link>
						<linkclipref>010_10_02_A5</linkclipref>
						<mediatype>audio</mediatype>
						<trackindex>4</trackindex>
						<clipindex>38</clipindex>
					</link>
					<itemhistory>
						<uuid>4B73CC3B-2DA1-4273-9667-B93F2C14BBCD</uuid>
					</itemhistory>
				</clipitem>
				<clipitem id="010_10_03_A_OK5">
					<name>010_10_03_A_OK</name>
					<duration>223</duration>
					<rate>
						<ntsc>FALSE</ntsc>
						<timebase>24</timebase>
					</rate>
					<in>68</in>
					<out>106</out>
					<start>35285</start>
					<end>35323</end>
					<subframeoffset>0</subframeoffset>
					<enabled>TRUE</enabled>
					<masterclipid>010_10_03_A_OK1</masterclipid>
					<logginginfo>
						<scene/>
						<shottake/>
						<lognote/>
						<good>FALSE</good>
					</logginginfo>
					<labels>
						<label2/>
					</labels>
					<comments>
						<mastercomment1/>
						<mastercomment2/>
						<mastercomment3/>
						<mastercomment4/>
					</comments>
					<file id="A002C025_221211_R03K"/>
					<filter>
						<effect>
							<name>Audio Levels</name>
							<effectid>audiolevels</effectid>
							<effectcategory>audiolevels</effectcategory>
							<effecttype>audiolevels</effecttype>
							<mediatype>audio</mediatype>
							<parameter>
								<name>Level</name>
								<parameterid>level</parameterid>
								<valuemin>0</valuemin>
								<valuemax>3.98109</valuemax>
								<value>1</value>
							</parameter>
						</effect>
					</filter>
					<filter>
						<effect>
							<name>Audio Pan</name>
							<effectid>audiopan</effectid>
							<effectcategory>audiopan</effectcategory>
							<effecttype>audiopan</effecttype>
							<mediatype>audio</mediatype>
							<parameter>
								<name>Pan</name>
								<parameterid>pan</parameterid>
								<valuemin>-1</valuemin>
								<valuemax>1</valuemax>
								<value>0</value>
							</parameter>
						</effect>
					</filter>
					<sourcetrack>
						<mediatype>audio</mediatype>
						<trackindex>4</trackindex>
					</sourcetrack>
					<link>
						<linkclipref>010_10_03_A_OK</linkclipref>
						<mediatype>video</mediatype>
						<trackindex>1</trackindex>
						<clipindex>65</clipindex>
					</link>
					<link>
						<linkclipref>010_10_03_A_OK2</linkclipref>
						<mediatype>audio</mediatype>
						<trackindex>1</trackindex>
						<clipindex>65</clipindex>
					</link>
					<link>
						<linkclipref>010_10_03_A_OK3</linkclipref>
						<mediatype>audio</mediatype>
						<trackindex>2</trackindex>
						<clipindex>65</clipindex>
					</link>
					<link>
						<linkclipref>010_10_03_A_OK4</linkclipref>
						<mediatype>audio</mediatype>
						<trackindex>3</trackindex>
						<clipindex>63</clipindex>
					</link>
					<link>
						<linkclipref>010_10_03_A_OK5</linkclipref>
						<mediatype>audio</mediatype>
						<trackindex>4</trackindex>
						<clipindex>39</clipindex>
					</link>
					<itemhistory>
						<uuid>2FCC2310-E8B5-4A13-AF14-AC021F320E60</uuid>
					</itemhistory>
				</clipitem>
				<clipitem id="010_11_01_A5">
					<name>010_11_01_A</name>
					<duration>358</duration>
					<rate>
						<ntsc>FALSE</ntsc>
						<timebase>24</timebase>
					</rate>
					<in>0</in>
					<out>358</out>
					<start>35323</start>
					<end>35681</end>
					<subframeoffset>0</subframeoffset>
					<enabled>TRUE</enabled>
					<masterclipid>010_11_01_A1</masterclipid>
					<logginginfo>
						<scene/>
						<shottake/>
						<lognote/>
						<good>FALSE</good>
					</logginginfo>
					<labels>
						<label2/>
					</labels>
					<comments>
						<mastercomment1/>
						<mastercomment2/>
						<mastercomment3/>
						<mastercomment4/>
					</comments>
					<file id="A002C026_221211_R03K"/>
					<filter>
						<effect>
							<name>Audio Levels</name>
							<effectid>audiolevels</effectid>
							<effectcategory>audiolevels</effectcategory>
							<effecttype>audiolevels</effecttype>
							<mediatype>audio</mediatype>
							<parameter>
								<name>Level</name>
								<parameterid>level</parameterid>
								<valuemin>0</valuemin>
								<valuemax>3.98109</valuemax>
								<value>1</value>
							</parameter>
						</effect>
					</filter>
					<filter>
						<effect>
							<name>Audio Pan</name>
							<effectid>audiopan</effectid>
							<effectcategory>audiopan</effectcategory>
							<effecttype>audiopan</effecttype>
							<mediatype>audio</mediatype>
							<parameter>
								<name>Pan</name>
								<parameterid>pan</parameterid>
								<valuemin>-1</valuemin>
								<valuemax>1</valuemax>
								<value>0</value>
							</parameter>
						</effect>
					</filter>
					<sourcetrack>
						<mediatype>audio</mediatype>
						<trackindex>4</trackindex>
					</sourcetrack>
					<link>
						<linkclipref>010_11_01_A</linkclipref>
						<mediatype>video</mediatype>
						<trackindex>1</trackindex>
						<clipindex>66</clipindex>
					</link>
					<link>
						<linkclipref>010_11_01_A2</linkclipref>
						<mediatype>audio</mediatype>
						<trackindex>1</trackindex>
						<clipindex>66</clipindex>
					</link>
					<link>
						<linkclipref>010_11_01_A3</linkclipref>
						<mediatype>audio</mediatype>
						<trackindex>2</trackindex>
						<clipindex>66</clipindex>
					</link>
					<link>
						<linkclipref>010_11_01_A4</linkclipref>
						<mediatype>audio</mediatype>
						<trackindex>3</trackindex>
						<clipindex>64</clipindex>
					</link>
					<link>
						<linkclipref>010_11_01_A5</linkclipref>
						<mediatype>audio</mediatype>
						<trackindex>4</trackindex>
						<clipindex>40</clipindex>
					</link>
					<itemhistory>
						<uuid>2A1B1D0C-4B94-4CC9-9090-CF6349556D6A</uuid>
					</itemhistory>
				</clipitem>
				<clipitem id="010_11_02_A_OK5">
					<name>010_11_02_A_OK</name>
					<duration>415</duration>
					<rate>
						<ntsc>FALSE</ntsc>
						<timebase>24</timebase>
					</rate>
					<in>146</in>
					<out>242</out>
					<start>35681</start>
					<end>35777</end>
					<subframeoffset>0</subframeoffset>
					<enabled>TRUE</enabled>
					<masterclipid>010_11_02_A_OK1</masterclipid>
					<logginginfo>
						<scene/>
						<shottake/>
						<lognote/>
						<good>FALSE</good>
					</logginginfo>
					<labels>
						<label2/>
					</labels>
					<comments>
						<mastercomment1/>
						<mastercomment2/>
						<mastercomment3/>
						<mastercomment4/>
					</comments>
					<file id="A002C027_221211_R03K"/>
					<filter>
						<effect>
							<name>Audio Levels</name>
							<effectid>audiolevels</effectid>
							<effectcategory>audiolevels</effectcategory>
							<effecttype>audiolevels</effecttype>
							<mediatype>audio</mediatype>
							<parameter>
								<name>Level</name>
								<parameterid>level</parameterid>
								<valuemin>0</valuemin>
								<valuemax>3.98109</valuemax>
								<value>1</value>
							</parameter>
						</effect>
					</filter>
					<filter>
						<effect>
							<name>Audio Pan</name>
							<effectid>audiopan</effectid>
							<effectcategory>audiopan</effectcategory>
							<effecttype>audiopan</effecttype>
							<mediatype>audio</mediatype>
							<parameter>
								<name>Pan</name>
								<parameterid>pan</parameterid>
								<valuemin>-1</valuemin>
								<valuemax>1</valuemax>
								<value>0</value>
							</parameter>
						</effect>
					</filter>
					<sourcetrack>
						<mediatype>audio</mediatype>
						<trackindex>4</trackindex>
					</sourcetrack>
					<link>
						<linkclipref>010_11_02_A_OK</linkclipref>
						<mediatype>video</mediatype>
						<trackindex>1</trackindex>
						<clipindex>67</clipindex>
					</link>
					<link>
						<linkclipref>010_11_02_A_OK2</linkclipref>
						<mediatype>audio</mediatype>
						<trackindex>1</trackindex>
						<clipindex>67</clipindex>
					</link>
					<link>
						<linkclipref>010_11_02_A_OK3</linkclipref>
						<mediatype>audio</mediatype>
						<trackindex>2</trackindex>
						<clipindex>67</clipindex>
					</link>
					<link>
						<linkclipref>010_11_02_A_OK4</linkclipref>
						<mediatype>audio</mediatype>
						<trackindex>3</trackindex>
						<clipindex>65</clipindex>
					</link>
					<link>
						<linkclipref>010_11_02_A_OK5</linkclipref>
						<mediatype>audio</mediatype>
						<trackindex>4</trackindex>
						<clipindex>41</clipindex>
					</link>
					<itemhistory>
						<uuid>7EEFBAD4-74D8-4F7E-A344-B116C51AE069</uuid>
					</itemhistory>
				</clipitem>
				<clipitem id="010_12_01_A_OK5">
					<name>010_12_01_A_OK</name>
					<duration>853</duration>
					<rate>
						<ntsc>FALSE</ntsc>
						<timebase>24</timebase>
					</rate>
					<in>616</in>
					<out>853</out>
					<start>35777</start>
					<end>36014</end>
					<subframeoffset>0</subframeoffset>
					<enabled>TRUE</enabled>
					<masterclipid>010_12_01_A_OK1</masterclipid>
					<logginginfo>
						<scene/>
						<shottake/>
						<lognote/>
						<good>FALSE</good>
					</logginginfo>
					<labels>
						<label2/>
					</labels>
					<comments>
						<mastercomment1/>
						<mastercomment2/>
						<mastercomment3/>
						<mastercomment4/>
					</comments>
					<file id="A002C028_221211_R03K"/>
					<filter>
						<effect>
							<name>Audio Levels</name>
							<effectid>audiolevels</effectid>
							<effectcategory>audiolevels</effectcategory>
							<effecttype>audiolevels</effecttype>
							<mediatype>audio</mediatype>
							<parameter>
								<name>Level</name>
								<parameterid>level</parameterid>
								<valuemin>0</valuemin>
								<valuemax>3.98109</valuemax>
								<value>1</value>
							</parameter>
						</effect>
					</filter>
					<filter>
						<effect>
							<name>Audio Pan</name>
							<effectid>audiopan</effectid>
							<effectcategory>audiopan</effectcategory>
							<effecttype>audiopan</effecttype>
							<mediatype>audio</mediatype>
							<parameter>
								<name>Pan</name>
								<parameterid>pan</parameterid>
								<valuemin>-1</valuemin>
								<valuemax>1</valuemax>
								<value>0</value>
							</parameter>
						</effect>
					</filter>
					<sourcetrack>
						<mediatype>audio</mediatype>
						<trackindex>4</trackindex>
					</sourcetrack>
					<link>
						<linkclipref>010_12_01_A_OK</linkclipref>
						<mediatype>video</mediatype>
						<trackindex>1</trackindex>
						<clipindex>68</clipindex>
					</link>
					<link>
						<linkclipref>010_12_01_A_OK2</linkclipref>
						<mediatype>audio</mediatype>
						<trackindex>1</trackindex>
						<clipindex>68</clipindex>
					</link>
					<link>
						<linkclipref>010_12_01_A_OK3</linkclipref>
						<mediatype>audio</mediatype>
						<trackindex>2</trackindex>
						<clipindex>68</clipindex>
					</link>
					<link>
						<linkclipref>010_12_01_A_OK4</linkclipref>
						<mediatype>audio</mediatype>
						<trackindex>3</trackindex>
						<clipindex>66</clipindex>
					</link>
					<link>
						<linkclipref>010_12_01_A_OK5</linkclipref>
						<mediatype>audio</mediatype>
						<trackindex>4</trackindex>
						<clipindex>42</clipindex>
					</link>
					<itemhistory>
						<uuid>307509E3-BC88-4D45-8701-C763C86D54B0</uuid>
					</itemhistory>
				</clipitem>
				<clipitem id="010_12_01_B_OK5">
					<name>010_12_01_B_OK</name>
					<duration>816</duration>
					<rate>
						<ntsc>FALSE</ntsc>
						<timebase>24</timebase>
					</rate>
					<in>0</in>
					<out>816</out>
					<start>36014</start>
					<end>36830</end>
					<subframeoffset>0</subframeoffset>
					<enabled>TRUE</enabled>
					<masterclipid>010_12_01_B_OK1</masterclipid>
					<logginginfo>
						<scene/>
						<shottake/>
						<lognote/>
						<good>FALSE</good>
					</logginginfo>
					<labels>
						<label2/>
					</labels>
					<comments>
						<mastercomment1/>
						<mastercomment2/>
						<mastercomment3/>
						<mastercomment4/>
					</comments>
					<file id="B002C011_130101_R1WX"/>
					<filter>
						<effect>
							<name>Audio Levels</name>
							<effectid>audiolevels</effectid>
							<effectcategory>audiolevels</effectcategory>
							<effecttype>audiolevels</effecttype>
							<mediatype>audio</mediatype>
							<parameter>
								<name>Level</name>
								<parameterid>level</parameterid>
								<valuemin>0</valuemin>
								<valuemax>3.98109</valuemax>
								<value>1</value>
							</parameter>
						</effect>
					</filter>
					<filter>
						<effect>
							<name>Audio Pan</name>
							<effectid>audiopan</effectid>
							<effectcategory>audiopan</effectcategory>
							<effecttype>audiopan</effecttype>
							<mediatype>audio</mediatype>
							<parameter>
								<name>Pan</name>
								<parameterid>pan</parameterid>
								<valuemin>-1</valuemin>
								<valuemax>1</valuemax>
								<value>0</value>
							</parameter>
						</effect>
					</filter>
					<sourcetrack>
						<mediatype>audio</mediatype>
						<trackindex>4</trackindex>
					</sourcetrack>
					<link>
						<linkclipref>010_12_01_B_OK</linkclipref>
						<mediatype>video</mediatype>
						<trackindex>1</trackindex>
						<clipindex>69</clipindex>
					</link>
					<link>
						<linkclipref>010_12_01_B_OK2</linkclipref>
						<mediatype>audio</mediatype>
						<trackindex>1</trackindex>
						<clipindex>69</clipindex>
					</link>
					<link>
						<linkclipref>010_12_01_B_OK3</linkclipref>
						<mediatype>audio</mediatype>
						<trackindex>2</trackindex>
						<clipindex>69</clipindex>
					</link>
					<link>
						<linkclipref>010_12_01_B_OK4</linkclipref>
						<mediatype>audio</mediatype>
						<trackindex>3</trackindex>
						<clipindex>67</clipindex>
					</link>
					<link>
						<linkclipref>010_12_01_B_OK5</linkclipref>
						<mediatype>audio</mediatype>
						<trackindex>4</trackindex>
						<clipindex>43</clipindex>
					</link>
					<itemhistory>
						<uuid>5FD64845-EFFA-4D6B-9410-A6C84F5D3D86</uuid>
					</itemhistory>
				</clipitem>
				<clipitem id="010_12_02_A_OK5">
					<name>010_12_02_A_OK</name>
					<duration>689</duration>
					<rate>
						<ntsc>FALSE</ntsc>
						<timebase>24</timebase>
					</rate>
					<in>128</in>
					<out>186</out>
					<start>36830</start>
					<end>36888</end>
					<subframeoffset>0</subframeoffset>
					<enabled>TRUE</enabled>
					<masterclipid>010_12_02_A_OK1</masterclipid>
					<logginginfo>
						<scene/>
						<shottake/>
						<lognote/>
						<good>FALSE</good>
					</logginginfo>
					<labels>
						<label2/>
					</labels>
					<comments>
						<mastercomment1/>
						<mastercomment2/>
						<mastercomment3/>
						<mastercomment4/>
					</comments>
					<file id="A003C001_221211_R03K"/>
					<filter>
						<effect>
							<name>Audio Levels</name>
							<effectid>audiolevels</effectid>
							<effectcategory>audiolevels</effectcategory>
							<effecttype>audiolevels</effecttype>
							<mediatype>audio</mediatype>
							<parameter>
								<name>Level</name>
								<parameterid>level</parameterid>
								<valuemin>0</valuemin>
								<valuemax>3.98109</valuemax>
								<value>1</value>
							</parameter>
						</effect>
					</filter>
					<filter>
						<effect>
							<name>Audio Pan</name>
							<effectid>audiopan</effectid>
							<effectcategory>audiopan</effectcategory>
							<effecttype>audiopan</effecttype>
							<mediatype>audio</mediatype>
							<parameter>
								<name>Pan</name>
								<parameterid>pan</parameterid>
								<valuemin>-1</valuemin>
								<valuemax>1</valuemax>
								<value>0</value>
							</parameter>
						</effect>
					</filter>
					<sourcetrack>
						<mediatype>audio</mediatype>
						<trackindex>4</trackindex>
					</sourcetrack>
					<link>
						<linkclipref>010_12_02_A_OK</linkclipref>
						<mediatype>video</mediatype>
						<trackindex>1</trackindex>
						<clipindex>70</clipindex>
					</link>
					<link>
						<linkclipref>010_12_02_A_OK2</linkclipref>
						<mediatype>audio</mediatype>
						<trackindex>1</trackindex>
						<clipindex>70</clipindex>
					</link>
					<link>
						<linkclipref>010_12_02_A_OK3</linkclipref>
						<mediatype>audio</mediatype>
						<trackindex>2</trackindex>
						<clipindex>70</clipindex>
					</link>
					<link>
						<linkclipref>010_12_02_A_OK4</linkclipref>
						<mediatype>audio</mediatype>
						<trackindex>3</trackindex>
						<clipindex>68</clipindex>
					</link>
					<link>
						<linkclipref>010_12_02_A_OK5</linkclipref>
						<mediatype>audio</mediatype>
						<trackindex>4</trackindex>
						<clipindex>44</clipindex>
					</link>
					<itemhistory>
						<uuid>77DEAE9D-A1A6-4A2E-B84A-FDB1C4028617</uuid>
					</itemhistory>
				</clipitem>
				<clipitem id="010_12_02_B_OK5">
					<name>010_12_02_B_OK</name>
					<duration>679</duration>
					<rate>
						<ntsc>FALSE</ntsc>
						<timebase>24</timebase>
					</rate>
					<in>508</in>
					<out>565</out>
					<start>36888</start>
					<end>36945</end>
					<subframeoffset>0</subframeoffset>
					<enabled>TRUE</enabled>
					<masterclipid>010_12_02_B_OK1</masterclipid>
					<logginginfo>
						<scene/>
						<shottake/>
						<lognote/>
						<good>FALSE</good>
					</logginginfo>
					<labels>
						<label2/>
					</labels>
					<comments>
						<mastercomment1/>
						<mastercomment2/>
						<mastercomment3/>
						<mastercomment4/>
					</comments>
					<file id="B002C012_130101_R1WX"/>
					<filter>
						<effect>
							<name>Audio Levels</name>
							<effectid>audiolevels</effectid>
							<effectcategory>audiolevels</effectcategory>
							<effecttype>audiolevels</effecttype>
							<mediatype>audio</mediatype>
							<parameter>
								<name>Level</name>
								<parameterid>level</parameterid>
								<valuemin>0</valuemin>
								<valuemax>3.98109</valuemax>
								<value>1</value>
							</parameter>
						</effect>
					</filter>
					<filter>
						<effect>
							<name>Audio Pan</name>
							<effectid>audiopan</effectid>
							<effectcategory>audiopan</effectcategory>
							<effecttype>audiopan</effecttype>
							<mediatype>audio</mediatype>
							<parameter>
								<name>Pan</name>
								<parameterid>pan</parameterid>
								<valuemin>-1</valuemin>
								<valuemax>1</valuemax>
								<value>0</value>
							</parameter>
						</effect>
					</filter>
					<sourcetrack>
						<mediatype>audio</mediatype>
						<trackindex>4</trackindex>
					</sourcetrack>
					<link>
						<linkclipref>010_12_02_B_OK</linkclipref>
						<mediatype>video</mediatype>
						<trackindex>1</trackindex>
						<clipindex>71</clipindex>
					</link>
					<link>
						<linkclipref>010_12_02_B_OK2</linkclipref>
						<mediatype>audio</mediatype>
						<trackindex>1</trackindex>
						<clipindex>71</clipindex>
					</link>
					<link>
						<linkclipref>010_12_02_B_OK3</linkclipref>
						<mediatype>audio</mediatype>
						<trackindex>2</trackindex>
						<clipindex>71</clipindex>
					</link>
					<link>
						<linkclipref>010_12_02_B_OK4</linkclipref>
						<mediatype>audio</mediatype>
						<trackindex>3</trackindex>
						<clipindex>69</clipindex>
					</link>
					<link>
						<linkclipref>010_12_02_B_OK5</linkclipref>
						<mediatype>audio</mediatype>
						<trackindex>4</trackindex>
						<clipindex>45</clipindex>
					</link>
					<itemhistory>
						<uuid>4D701ED7-7532-4415-B706-AC243ADBE011</uuid>
					</itemhistory>
				</clipitem>
				<clipitem id="010_16_01_A5">
					<name>010_16_01_A</name>
					<duration>268</duration>
					<rate>
						<ntsc>FALSE</ntsc>
						<timebase>24</timebase>
					</rate>
					<in>0</in>
					<out>268</out>
					<start>43569</start>
					<end>43837</end>
					<subframeoffset>0</subframeoffset>
					<enabled>TRUE</enabled>
					<masterclipid>010_16_01_A1</masterclipid>
					<logginginfo>
						<scene/>
						<shottake/>
						<lognote/>
						<good>FALSE</good>
					</logginginfo>
					<labels>
						<label2/>
					</labels>
					<comments>
						<mastercomment1/>
						<mastercomment2/>
						<mastercomment3/>
						<mastercomment4/>
					</comments>
					<file id="A003C009_221211_R03K"/>
					<filter>
						<effect>
							<name>Audio Levels</name>
							<effectid>audiolevels</effectid>
							<effectcategory>audiolevels</effectcategory>
							<effecttype>audiolevels</effecttype>
							<mediatype>audio</mediatype>
							<parameter>
								<name>Level</name>
								<parameterid>level</parameterid>
								<valuemin>0</valuemin>
								<valuemax>3.98109</valuemax>
								<value>1</value>
							</parameter>
						</effect>
					</filter>
					<filter>
						<effect>
							<name>Audio Pan</name>
							<effectid>audiopan</effectid>
							<effectcategory>audiopan</effectcategory>
							<effecttype>audiopan</effecttype>
							<mediatype>audio</mediatype>
							<parameter>
								<name>Pan</name>
								<parameterid>pan</parameterid>
								<valuemin>-1</valuemin>
								<valuemax>1</valuemax>
								<value>0</value>
							</parameter>
						</effect>
					</filter>
					<sourcetrack>
						<mediatype>audio</mediatype>
						<trackindex>4</trackindex>
					</sourcetrack>
					<link>
						<linkclipref>010_16_01_A</linkclipref>
						<mediatype>video</mediatype>
						<trackindex>1</trackindex>
						<clipindex>81</clipindex>
					</link>
					<link>
						<linkclipref>010_16_01_A2</linkclipref>
						<mediatype>audio</mediatype>
						<trackindex>1</trackindex>
						<clipindex>81</clipindex>
					</link>
					<link>
						<linkclipref>010_16_01_A3</linkclipref>
						<mediatype>audio</mediatype>
						<trackindex>2</trackindex>
						<clipindex>81</clipindex>
					</link>
					<link>
						<linkclipref>010_16_01_A4</linkclipref>
						<mediatype>audio</mediatype>
						<trackindex>3</trackindex>
						<clipindex>79</clipindex>
					</link>
					<link>
						<linkclipref>010_16_01_A5</linkclipref>
						<mediatype>audio</mediatype>
						<trackindex>4</trackindex>
						<clipindex>46</clipindex>
					</link>
					<itemhistory>
						<uuid>0EAD9A9F-73CD-49B7-AB5D-B6A7F2D90A9B</uuid>
					</itemhistory>
				</clipitem>
				<clipitem id="010_16_02_A_OK5">
					<name>010_16_02_A_OK</name>
					<duration>284</duration>
					<rate>
						<ntsc>FALSE</ntsc>
						<timebase>24</timebase>
					</rate>
					<in>87</in>
					<out>117</out>
					<start>43837</start>
					<end>43867</end>
					<subframeoffset>0</subframeoffset>
					<enabled>TRUE</enabled>
					<masterclipid>010_16_02_A_OK1</masterclipid>
					<logginginfo>
						<scene/>
						<shottake/>
						<lognote/>
						<good>FALSE</good>
					</logginginfo>
					<labels>
						<label2/>
					</labels>
					<comments>
						<mastercomment1/>
						<mastercomment2/>
						<mastercomment3/>
						<mastercomment4/>
					</comments>
					<file id="A003C010_221211_R03K"/>
					<filter>
						<effect>
							<name>Audio Levels</name>
							<effectid>audiolevels</effectid>
							<effectcategory>audiolevels</effectcategory>
							<effecttype>audiolevels</effecttype>
							<mediatype>audio</mediatype>
							<parameter>
								<name>Level</name>
								<parameterid>level</parameterid>
								<valuemin>0</valuemin>
								<valuemax>3.98109</valuemax>
								<value>1</value>
							</parameter>
						</effect>
					</filter>
					<filter>
						<effect>
							<name>Audio Pan</name>
							<effectid>audiopan</effectid>
							<effectcategory>audiopan</effectcategory>
							<effecttype>audiopan</effecttype>
							<mediatype>audio</mediatype>
							<parameter>
								<name>Pan</name>
								<parameterid>pan</parameterid>
								<valuemin>-1</valuemin>
								<valuemax>1</valuemax>
								<value>0</value>
							</parameter>
						</effect>
					</filter>
					<sourcetrack>
						<mediatype>audio</mediatype>
						<trackindex>4</trackindex>
					</sourcetrack>
					<link>
						<linkclipref>010_16_02_A_OK</linkclipref>
						<mediatype>video</mediatype>
						<trackindex>1</trackindex>
						<clipindex>82</clipindex>
					</link>
					<link>
						<linkclipref>010_16_02_A_OK2</linkclipref>
						<mediatype>audio</mediatype>
						<trackindex>1</trackindex>
						<clipindex>82</clipindex>
					</link>
					<link>
						<linkclipref>010_16_02_A_OK3</linkclipref>
						<mediatype>audio</mediatype>
						<trackindex>2</trackindex>
						<clipindex>82</clipindex>
					</link>
					<link>
						<linkclipref>010_16_02_A_OK4</linkclipref>
						<mediatype>audio</mediatype>
						<trackindex>3</trackindex>
						<clipindex>80</clipindex>
					</link>
					<link>
						<linkclipref>010_16_02_A_OK5</linkclipref>
						<mediatype>audio</mediatype>
						<trackindex>4</trackindex>
						<clipindex>47</clipindex>
					</link>
					<itemhistory>
						<uuid>D0E46908-30D8-4C4D-AE48-AA639CFB09F2</uuid>
					</itemhistory>
				</clipitem>
				<clipitem id="010_17_01_B5">
					<name>010_17_01_B</name>
					<duration>709</duration>
					<rate>
						<ntsc>FALSE</ntsc>
						<timebase>24</timebase>
					</rate>
					<in>0</in>
					<out>709</out>
					<start>43867</start>
					<end>44576</end>
					<subframeoffset>0</subframeoffset>
					<enabled>TRUE</enabled>
					<masterclipid>010_17_01_B1</masterclipid>
					<logginginfo>
						<scene/>
						<shottake/>
						<lognote/>
						<good>FALSE</good>
					</logginginfo>
					<labels>
						<label2/>
					</labels>
					<comments>
						<mastercomment1/>
						<mastercomment2/>
						<mastercomment3/>
						<mastercomment4/>
					</comments>
					<file id="B002C015_130101_R1WX"/>
					<filter>
						<effect>
							<name>Audio Levels</name>
							<effectid>audiolevels</effectid>
							<effectcategory>audiolevels</effectcategory>
							<effecttype>audiolevels</effecttype>
							<mediatype>audio</mediatype>
							<parameter>
								<name>Level</name>
								<parameterid>level</parameterid>
								<valuemin>0</valuemin>
								<valuemax>3.98109</valuemax>
								<value>1</value>
							</parameter>
						</effect>
					</filter>
					<filter>
						<effect>
							<name>Audio Pan</name>
							<effectid>audiopan</effectid>
							<effectcategory>audiopan</effectcategory>
							<effecttype>audiopan</effecttype>
							<mediatype>audio</mediatype>
							<parameter>
								<name>Pan</name>
								<parameterid>pan</parameterid>
								<valuemin>-1</valuemin>
								<valuemax>1</valuemax>
								<value>0</value>
							</parameter>
						</effect>
					</filter>
					<sourcetrack>
						<mediatype>audio</mediatype>
						<trackindex>4</trackindex>
					</sourcetrack>
					<link>
						<linkclipref>010_17_01_B</linkclipref>
						<mediatype>video</mediatype>
						<trackindex>1</trackindex>
						<clipindex>83</clipindex>
					</link>
					<link>
						<linkclipref>010_17_01_B2</linkclipref>
						<mediatype>audio</mediatype>
						<trackindex>1</trackindex>
						<clipindex>83</clipindex>
					</link>
					<link>
						<linkclipref>010_17_01_B3</linkclipref>
						<mediatype>audio</mediatype>
						<trackindex>2</trackindex>
						<clipindex>83</clipindex>
					</link>
					<link>
						<linkclipref>010_17_01_B4</linkclipref>
						<mediatype>audio</mediatype>
						<trackindex>3</trackindex>
						<clipindex>81</clipindex>
					</link>
					<link>
						<linkclipref>010_17_01_B5</linkclipref>
						<mediatype>audio</mediatype>
						<trackindex>4</trackindex>
						<clipindex>48</clipindex>
					</link>
					<itemhistory>
						<uuid>6244556B-34D5-4269-9145-82504128D7D4</uuid>
					</itemhistory>
				</clipitem>
				<clipitem id="010_17_02_B_OK5">
					<name>010_17_02_B_OK</name>
					<duration>2132</duration>
					<rate>
						<ntsc>FALSE</ntsc>
						<timebase>24</timebase>
					</rate>
					<in>804</in>
					<out>886</out>
					<start>44576</start>
					<end>44658</end>
					<subframeoffset>0</subframeoffset>
					<enabled>TRUE</enabled>
					<masterclipid>010_17_02_B_OK1</masterclipid>
					<logginginfo>
						<scene/>
						<shottake/>
						<lognote/>
						<good>FALSE</good>
					</logginginfo>
					<labels>
						<label2/>
					</labels>
					<comments>
						<mastercomment1/>
						<mastercomment2/>
						<mastercomment3/>
						<mastercomment4/>
					</comments>
					<file id="B002C016_130101_R1WX"/>
					<filter>
						<effect>
							<name>Audio Levels</name>
							<effectid>audiolevels</effectid>
							<effectcategory>audiolevels</effectcategory>
							<effecttype>audiolevels</effecttype>
							<mediatype>audio</mediatype>
							<parameter>
								<name>Level</name>
								<parameterid>level</parameterid>
								<valuemin>0</valuemin>
								<valuemax>3.98109</valuemax>
								<value>1</value>
							</parameter>
						</effect>
					</filter>
					<filter>
						<effect>
							<name>Audio Pan</name>
							<effectid>audiopan</effectid>
							<effectcategory>audiopan</effectcategory>
							<effecttype>audiopan</effecttype>
							<mediatype>audio</mediatype>
							<parameter>
								<name>Pan</name>
								<parameterid>pan</parameterid>
								<valuemin>-1</valuemin>
								<valuemax>1</valuemax>
								<value>0</value>
							</parameter>
						</effect>
					</filter>
					<sourcetrack>
						<mediatype>audio</mediatype>
						<trackindex>4</trackindex>
					</sourcetrack>
					<link>
						<linkclipref>010_17_02_B_OK</linkclipref>
						<mediatype>video</mediatype>
						<trackindex>1</trackindex>
						<clipindex>84</clipindex>
					</link>
					<link>
						<linkclipref>010_17_02_B_OK2</linkclipref>
						<mediatype>audio</mediatype>
						<trackindex>1</trackindex>
						<clipindex>84</clipindex>
					</link>
					<link>
						<linkclipref>010_17_02_B_OK3</linkclipref>
						<mediatype>audio</mediatype>
						<trackindex>2</trackindex>
						<clipindex>84</clipindex>
					</link>
					<link>
						<linkclipref>010_17_02_B_OK4</linkclipref>
						<mediatype>audio</mediatype>
						<trackindex>3</trackindex>
						<clipindex>82</clipindex>
					</link>
					<link>
						<linkclipref>010_17_02_B_OK5</linkclipref>
						<mediatype>audio</mediatype>
						<trackindex>4</trackindex>
						<clipindex>49</clipindex>
					</link>
					<itemhistory>
						<uuid>C043C047-DD61-4373-9F18-5F188B0C8BEB</uuid>
					</itemhistory>
				</clipitem>
				<clipitem id="010_18_01_A_KP5">
					<name>010_18_01_A_KP</name>
					<duration>1008</duration>
					<rate>
						<ntsc>FALSE</ntsc>
						<timebase>24</timebase>
					</rate>
					<in>531</in>
					<out>1008</out>
					<start>44658</start>
					<end>45135</end>
					<subframeoffset>0</subframeoffset>
					<enabled>TRUE</enabled>
					<masterclipid>010_18_01_A_KP1</masterclipid>
					<logginginfo>
						<scene/>
						<shottake/>
						<lognote/>
						<good>FALSE</good>
					</logginginfo>
					<labels>
						<label2/>
					</labels>
					<comments>
						<mastercomment1/>
						<mastercomment2/>
						<mastercomment3/>
						<mastercomment4/>
					</comments>
					<file id="A003C011_221211_R03K"/>
					<filter>
						<effect>
							<name>Audio Levels</name>
							<effectid>audiolevels</effectid>
							<effectcategory>audiolevels</effectcategory>
							<effecttype>audiolevels</effecttype>
							<mediatype>audio</mediatype>
							<parameter>
								<name>Level</name>
								<parameterid>level</parameterid>
								<valuemin>0</valuemin>
								<valuemax>3.98109</valuemax>
								<value>1</value>
							</parameter>
						</effect>
					</filter>
					<filter>
						<effect>
							<name>Audio Pan</name>
							<effectid>audiopan</effectid>
							<effectcategory>audiopan</effectcategory>
							<effecttype>audiopan</effecttype>
							<mediatype>audio</mediatype>
							<parameter>
								<name>Pan</name>
								<parameterid>pan</parameterid>
								<valuemin>-1</valuemin>
								<valuemax>1</valuemax>
								<value>0</value>
							</parameter>
						</effect>
					</filter>
					<sourcetrack>
						<mediatype>audio</mediatype>
						<trackindex>4</trackindex>
					</sourcetrack>
					<link>
						<linkclipref>010_18_01_A_KP</linkclipref>
						<mediatype>video</mediatype>
						<trackindex>1</trackindex>
						<clipindex>85</clipindex>
					</link>
					<link>
						<linkclipref>010_18_01_A_KP2</linkclipref>
						<mediatype>audio</mediatype>
						<trackindex>1</trackindex>
						<clipindex>85</clipindex>
					</link>
					<link>
						<linkclipref>010_18_01_A_KP3</linkclipref>
						<mediatype>audio</mediatype>
						<trackindex>2</trackindex>
						<clipindex>85</clipindex>
					</link>
					<link>
						<linkclipref>010_18_01_A_KP4</linkclipref>
						<mediatype>audio</mediatype>
						<trackindex>3</trackindex>
						<clipindex>83</clipindex>
					</link>
					<link>
						<linkclipref>010_18_01_A_KP5</linkclipref>
						<mediatype>audio</mediatype>
						<trackindex>4</trackindex>
						<clipindex>50</clipindex>
					</link>
					<itemhistory>
						<uuid>9EBD3543-ADE5-4121-BDB3-A77ABDD58F1A</uuid>
					</itemhistory>
				</clipitem>
				<clipitem id="010_18_02_A5">
					<name>010_18_02_A</name>
					<duration>461</duration>
					<rate>
						<ntsc>FALSE</ntsc>
						<timebase>24</timebase>
					</rate>
					<in>0</in>
					<out>461</out>
					<start>45135</start>
					<end>45596</end>
					<subframeoffset>0</subframeoffset>
					<enabled>TRUE</enabled>
					<masterclipid>010_18_02_A1</masterclipid>
					<logginginfo>
						<scene/>
						<shottake/>
						<lognote/>
						<good>FALSE</good>
					</logginginfo>
					<labels>
						<label2/>
					</labels>
					<comments>
						<mastercomment1/>
						<mastercomment2/>
						<mastercomment3/>
						<mastercomment4/>
					</comments>
					<file id="A003C012_221211_R03K"/>
					<filter>
						<effect>
							<name>Audio Levels</name>
							<effectid>audiolevels</effectid>
							<effectcategory>audiolevels</effectcategory>
							<effecttype>audiolevels</effecttype>
							<mediatype>audio</mediatype>
							<parameter>
								<name>Level</name>
								<parameterid>level</parameterid>
								<valuemin>0</valuemin>
								<valuemax>3.98109</valuemax>
								<value>1</value>
							</parameter>
						</effect>
					</filter>
					<filter>
						<effect>
							<name>Audio Pan</name>
							<effectid>audiopan</effectid>
							<effectcategory>audiopan</effectcategory>
							<effecttype>audiopan</effecttype>
							<mediatype>audio</mediatype>
							<parameter>
								<name>Pan</name>
								<parameterid>pan</parameterid>
								<valuemin>-1</valuemin>
								<valuemax>1</valuemax>
								<value>0</value>
							</parameter>
						</effect>
					</filter>
					<sourcetrack>
						<mediatype>audio</mediatype>
						<trackindex>4</trackindex>
					</sourcetrack>
					<link>
						<linkclipref>010_18_02_A</linkclipref>
						<mediatype>video</mediatype>
						<trackindex>1</trackindex>
						<clipindex>86</clipindex>
					</link>
					<link>
						<linkclipref>010_18_02_A2</linkclipref>
						<mediatype>audio</mediatype>
						<trackindex>1</trackindex>
						<clipindex>86</clipindex>
					</link>
					<link>
						<linkclipref>010_18_02_A3</linkclipref>
						<mediatype>audio</mediatype>
						<trackindex>2</trackindex>
						<clipindex>86</clipindex>
					</link>
					<link>
						<linkclipref>010_18_02_A4</linkclipref>
						<mediatype>audio</mediatype>
						<trackindex>3</trackindex>
						<clipindex>84</clipindex>
					</link>
					<link>
						<linkclipref>010_18_02_A5</linkclipref>
						<mediatype>audio</mediatype>
						<trackindex>4</trackindex>
						<clipindex>51</clipindex>
					</link>
					<itemhistory>
						<uuid>82A1D879-F257-419A-81DD-5CC27401DE56</uuid>
					</itemhistory>
				</clipitem>
				<clipitem id="010_18_03_A5">
					<name>010_18_03_A</name>
					<duration>298</duration>
					<rate>
						<ntsc>FALSE</ntsc>
						<timebase>24</timebase>
					</rate>
					<in>0</in>
					<out>298</out>
					<start>45596</start>
					<end>45894</end>
					<subframeoffset>0</subframeoffset>
					<enabled>TRUE</enabled>
					<masterclipid>010_18_03_A1</masterclipid>
					<logginginfo>
						<scene/>
						<shottake/>
						<lognote/>
						<good>FALSE</good>
					</logginginfo>
					<labels>
						<label2/>
					</labels>
					<comments>
						<mastercomment1/>
						<mastercomment2/>
						<mastercomment3/>
						<mastercomment4/>
					</comments>
					<file id="A003C013_221211_R03K"/>
					<filter>
						<effect>
							<name>Audio Levels</name>
							<effectid>audiolevels</effectid>
							<effectcategory>audiolevels</effectcategory>
							<effecttype>audiolevels</effecttype>
							<mediatype>audio</mediatype>
							<parameter>
								<name>Level</name>
								<parameterid>level</parameterid>
								<valuemin>0</valuemin>
								<valuemax>3.98109</valuemax>
								<value>1</value>
							</parameter>
						</effect>
					</filter>
					<filter>
						<effect>
							<name>Audio Pan</name>
							<effectid>audiopan</effectid>
							<effectcategory>audiopan</effectcategory>
							<effecttype>audiopan</effecttype>
							<mediatype>audio</mediatype>
							<parameter>
								<name>Pan</name>
								<parameterid>pan</parameterid>
								<valuemin>-1</valuemin>
								<valuemax>1</valuemax>
								<value>0</value>
							</parameter>
						</effect>
					</filter>
					<sourcetrack>
						<mediatype>audio</mediatype>
						<trackindex>4</trackindex>
					</sourcetrack>
					<link>
						<linkclipref>010_18_03_A</linkclipref>
						<mediatype>video</mediatype>
						<trackindex>1</trackindex>
						<clipindex>87</clipindex>
					</link>
					<link>
						<linkclipref>010_18_03_A2</linkclipref>
						<mediatype>audio</mediatype>
						<trackindex>1</trackindex>
						<clipindex>87</clipindex>
					</link>
					<link>
						<linkclipref>010_18_03_A3</linkclipref>
						<mediatype>audio</mediatype>
						<trackindex>2</trackindex>
						<clipindex>87</clipindex>
					</link>
					<link>
						<linkclipref>010_18_03_A4</linkclipref>
						<mediatype>audio</mediatype>
						<trackindex>3</trackindex>
						<clipindex>85</clipindex>
					</link>
					<link>
						<linkclipref>010_18_03_A5</linkclipref>
						<mediatype>audio</mediatype>
						<trackindex>4</trackindex>
						<clipindex>52</clipindex>
					</link>
					<itemhistory>
						<uuid>A1DB84DA-F61B-4ACD-8DAD-759C6FD73BB0</uuid>
					</itemhistory>
				</clipitem>
				<clipitem id="010_18_04_A_OK5">
					<name>010_18_04_A_OK</name>
					<duration>519</duration>
					<rate>
						<ntsc>FALSE</ntsc>
						<timebase>24</timebase>
					</rate>
					<in>259</in>
					<out>303</out>
					<start>45894</start>
					<end>45938</end>
					<subframeoffset>0</subframeoffset>
					<enabled>TRUE</enabled>
					<masterclipid>010_18_04_A_OK1</masterclipid>
					<logginginfo>
						<scene/>
						<shottake/>
						<lognote/>
						<good>FALSE</good>
					</logginginfo>
					<labels>
						<label2/>
					</labels>
					<comments>
						<mastercomment1/>
						<mastercomment2/>
						<mastercomment3/>
						<mastercomment4/>
					</comments>
					<file id="A003C014_221211_R03K"/>
					<filter>
						<effect>
							<name>Audio Levels</name>
							<effectid>audiolevels</effectid>
							<effectcategory>audiolevels</effectcategory>
							<effecttype>audiolevels</effecttype>
							<mediatype>audio</mediatype>
							<parameter>
								<name>Level</name>
								<parameterid>level</parameterid>
								<valuemin>0</valuemin>
								<valuemax>3.98109</valuemax>
								<value>1</value>
							</parameter>
						</effect>
					</filter>
					<filter>
						<effect>
							<name>Audio Pan</name>
							<effectid>audiopan</effectid>
							<effectcategory>audiopan</effectcategory>
							<effecttype>audiopan</effecttype>
							<mediatype>audio</mediatype>
							<parameter>
								<name>Pan</name>
								<parameterid>pan</parameterid>
								<valuemin>-1</valuemin>
								<valuemax>1</valuemax>
								<value>0</value>
							</parameter>
						</effect>
					</filter>
					<sourcetrack>
						<mediatype>audio</mediatype>
						<trackindex>4</trackindex>
					</sourcetrack>
					<link>
						<linkclipref>010_18_04_A_OK</linkclipref>
						<mediatype>video</mediatype>
						<trackindex>1</trackindex>
						<clipindex>88</clipindex>
					</link>
					<link>
						<linkclipref>010_18_04_A_OK2</linkclipref>
						<mediatype>audio</mediatype>
						<trackindex>1</trackindex>
						<clipindex>88</clipindex>
					</link>
					<link>
						<linkclipref>010_18_04_A_OK3</linkclipref>
						<mediatype>audio</mediatype>
						<trackindex>2</trackindex>
						<clipindex>88</clipindex>
					</link>
					<link>
						<linkclipref>010_18_04_A_OK4</linkclipref>
						<mediatype>audio</mediatype>
						<trackindex>3</trackindex>
						<clipindex>86</clipindex>
					</link>
					<link>
						<linkclipref>010_18_04_A_OK5</linkclipref>
						<mediatype>audio</mediatype>
						<trackindex>4</trackindex>
						<clipindex>53</clipindex>
					</link>
					<itemhistory>
						<uuid>F690721A-FB7E-40B5-A085-2DCA22B1CA0B</uuid>
					</itemhistory>
				</clipitem>
				<enabled>TRUE</enabled>
				<locked>FALSE</locked>
				<outputchannelindex>2</outputchannelindex>
			</track>
			<track>
				<clipitem id="010_06_01_A6">
					<name>010_06_01_A</name>
					<duration>2114</duration>
					<rate>
						<ntsc>FALSE</ntsc>
						<timebase>24</timebase>
					</rate>
					<in>0</in>
					<out>2114</out>
					<start>15484</start>
					<end>17598</end>
					<subframeoffset>0</subframeoffset>
					<enabled>TRUE</enabled>
					<masterclipid>010_06_01_A1</masterclipid>
					<logginginfo>
						<scene/>
						<shottake/>
						<lognote/>
						<good>FALSE</good>
					</logginginfo>
					<labels>
						<label2/>
					</labels>
					<comments>
						<mastercomment1/>
						<mastercomment2/>
						<mastercomment3/>
						<mastercomment4/>
					</comments>
					<file id="A002C001_221211_R03K"/>
					<filter>
						<effect>
							<name>Audio Levels</name>
							<effectid>audiolevels</effectid>
							<effectcategory>audiolevels</effectcategory>
							<effecttype>audiolevels</effecttype>
							<mediatype>audio</mediatype>
							<parameter>
								<name>Level</name>
								<parameterid>level</parameterid>
								<valuemin>0</valuemin>
								<valuemax>3.98109</valuemax>
								<value>1</value>
							</parameter>
						</effect>
					</filter>
					<filter>
						<effect>
							<name>Audio Pan</name>
							<effectid>audiopan</effectid>
							<effectcategory>audiopan</effectcategory>
							<effecttype>audiopan</effecttype>
							<mediatype>audio</mediatype>
							<parameter>
								<name>Pan</name>
								<parameterid>pan</parameterid>
								<valuemin>-1</valuemin>
								<valuemax>1</valuemax>
								<value>0</value>
							</parameter>
						</effect>
					</filter>
					<sourcetrack>
						<mediatype>audio</mediatype>
						<trackindex>5</trackindex>
					</sourcetrack>
					<link>
						<linkclipref>010_06_01_A</linkclipref>
						<mediatype>video</mediatype>
						<trackindex>1</trackindex>
						<clipindex>31</clipindex>
					</link>
					<link>
						<linkclipref>010_06_01_A2</linkclipref>
						<mediatype>audio</mediatype>
						<trackindex>1</trackindex>
						<clipindex>31</clipindex>
					</link>
					<link>
						<linkclipref>010_06_01_A3</linkclipref>
						<mediatype>audio</mediatype>
						<trackindex>2</trackindex>
						<clipindex>31</clipindex>
					</link>
					<link>
						<linkclipref>010_06_01_A4</linkclipref>
						<mediatype>audio</mediatype>
						<trackindex>3</trackindex>
						<clipindex>29</clipindex>
					</link>
					<link>
						<linkclipref>010_06_01_A5</linkclipref>
						<mediatype>audio</mediatype>
						<trackindex>4</trackindex>
						<clipindex>19</clipindex>
					</link>
					<link>
						<linkclipref>010_06_01_A6</linkclipref>
						<mediatype>audio</mediatype>
						<trackindex>5</trackindex>
						<clipindex>1</clipindex>
					</link>
					<itemhistory>
						<uuid>413EB749-D297-42CC-BCB5-FF4765354872</uuid>
					</itemhistory>
				</clipitem>
				<clipitem id="010_06_01_B6">
					<name>010_06_01_B</name>
					<duration>2106</duration>
					<rate>
						<ntsc>FALSE</ntsc>
						<timebase>24</timebase>
					</rate>
					<in>0</in>
					<out>2106</out>
					<start>17598</start>
					<end>19704</end>
					<subframeoffset>0</subframeoffset>
					<enabled>TRUE</enabled>
					<masterclipid>010_06_01_B1</masterclipid>
					<logginginfo>
						<scene/>
						<shottake/>
						<lognote/>
						<good>FALSE</good>
					</logginginfo>
					<labels>
						<label2/>
					</labels>
					<comments>
						<mastercomment1/>
						<mastercomment2/>
						<mastercomment3/>
						<mastercomment4/>
					</comments>
					<file id="B002C001_130101_R1WX"/>
					<filter>
						<effect>
							<name>Audio Levels</name>
							<effectid>audiolevels</effectid>
							<effectcategory>audiolevels</effectcategory>
							<effecttype>audiolevels</effecttype>
							<mediatype>audio</mediatype>
							<parameter>
								<name>Level</name>
								<parameterid>level</parameterid>
								<valuemin>0</valuemin>
								<valuemax>3.98109</valuemax>
								<value>1</value>
							</parameter>
						</effect>
					</filter>
					<filter>
						<effect>
							<name>Audio Pan</name>
							<effectid>audiopan</effectid>
							<effectcategory>audiopan</effectcategory>
							<effecttype>audiopan</effecttype>
							<mediatype>audio</mediatype>
							<parameter>
								<name>Pan</name>
								<parameterid>pan</parameterid>
								<valuemin>-1</valuemin>
								<valuemax>1</valuemax>
								<value>0</value>
							</parameter>
						</effect>
					</filter>
					<sourcetrack>
						<mediatype>audio</mediatype>
						<trackindex>5</trackindex>
					</sourcetrack>
					<link>
						<linkclipref>010_06_01_B</linkclipref>
						<mediatype>video</mediatype>
						<trackindex>1</trackindex>
						<clipindex>32</clipindex>
					</link>
					<link>
						<linkclipref>010_06_01_B2</linkclipref>
						<mediatype>audio</mediatype>
						<trackindex>1</trackindex>
						<clipindex>32</clipindex>
					</link>
					<link>
						<linkclipref>010_06_01_B3</linkclipref>
						<mediatype>audio</mediatype>
						<trackindex>2</trackindex>
						<clipindex>32</clipindex>
					</link>
					<link>
						<linkclipref>010_06_01_B4</linkclipref>
						<mediatype>audio</mediatype>
						<trackindex>3</trackindex>
						<clipindex>30</clipindex>
					</link>
					<link>
						<linkclipref>010_06_01_B5</linkclipref>
						<mediatype>audio</mediatype>
						<trackindex>4</trackindex>
						<clipindex>20</clipindex>
					</link>
					<link>
						<linkclipref>010_06_01_B6</linkclipref>
						<mediatype>audio</mediatype>
						<trackindex>5</trackindex>
						<clipindex>2</clipindex>
					</link>
					<itemhistory>
						<uuid>62376CCF-974F-4C84-9375-DEC3C7A1DDC1</uuid>
					</itemhistory>
				</clipitem>
				<clipitem id="010_06_02_A6">
					<name>010_06_02_A</name>
					<duration>649</duration>
					<rate>
						<ntsc>FALSE</ntsc>
						<timebase>24</timebase>
					</rate>
					<in>0</in>
					<out>649</out>
					<start>19704</start>
					<end>20353</end>
					<subframeoffset>0</subframeoffset>
					<enabled>TRUE</enabled>
					<masterclipid>010_06_02_A1</masterclipid>
					<logginginfo>
						<scene/>
						<shottake/>
						<lognote/>
						<good>FALSE</good>
					</logginginfo>
					<labels>
						<label2/>
					</labels>
					<comments>
						<mastercomment1/>
						<mastercomment2/>
						<mastercomment3/>
						<mastercomment4/>
					</comments>
					<file id="A002C002_221211_R03K"/>
					<filter>
						<effect>
							<name>Audio Levels</name>
							<effectid>audiolevels</effectid>
							<effectcategory>audiolevels</effectcategory>
							<effecttype>audiolevels</effecttype>
							<mediatype>audio</mediatype>
							<parameter>
								<name>Level</name>
								<parameterid>level</parameterid>
								<valuemin>0</valuemin>
								<valuemax>3.98109</valuemax>
								<value>1</value>
							</parameter>
						</effect>
					</filter>
					<filter>
						<effect>
							<name>Audio Pan</name>
							<effectid>audiopan</effectid>
							<effectcategory>audiopan</effectcategory>
							<effecttype>audiopan</effecttype>
							<mediatype>audio</mediatype>
							<parameter>
								<name>Pan</name>
								<parameterid>pan</parameterid>
								<valuemin>-1</valuemin>
								<valuemax>1</valuemax>
								<value>0</value>
							</parameter>
						</effect>
					</filter>
					<sourcetrack>
						<mediatype>audio</mediatype>
						<trackindex>5</trackindex>
					</sourcetrack>
					<link>
						<linkclipref>010_06_02_A</linkclipref>
						<mediatype>video</mediatype>
						<trackindex>1</trackindex>
						<clipindex>33</clipindex>
					</link>
					<link>
						<linkclipref>010_06_02_A2</linkclipref>
						<mediatype>audio</mediatype>
						<trackindex>1</trackindex>
						<clipindex>33</clipindex>
					</link>
					<link>
						<linkclipref>010_06_02_A3</linkclipref>
						<mediatype>audio</mediatype>
						<trackindex>2</trackindex>
						<clipindex>33</clipindex>
					</link>
					<link>
						<linkclipref>010_06_02_A4</linkclipref>
						<mediatype>audio</mediatype>
						<trackindex>3</trackindex>
						<clipindex>31</clipindex>
					</link>
					<link>
						<linkclipref>010_06_02_A5</linkclipref>
						<mediatype>audio</mediatype>
						<trackindex>4</trackindex>
						<clipindex>21</clipindex>
					</link>
					<link>
						<linkclipref>010_06_02_A6</linkclipref>
						<mediatype>audio</mediatype>
						<trackindex>5</trackindex>
						<clipindex>3</clipindex>
					</link>
					<itemhistory>
						<uuid>6CCE5603-0070-4597-91F6-737737093297</uuid>
					</itemhistory>
				</clipitem>
				<clipitem id="010_06_02_B6">
					<name>010_06_02_B</name>
					<duration>668</duration>
					<rate>
						<ntsc>FALSE</ntsc>
						<timebase>24</timebase>
					</rate>
					<in>0</in>
					<out>668</out>
					<start>20353</start>
					<end>21021</end>
					<subframeoffset>0</subframeoffset>
					<enabled>TRUE</enabled>
					<masterclipid>010_06_02_B1</masterclipid>
					<logginginfo>
						<scene/>
						<shottake/>
						<lognote/>
						<good>FALSE</good>
					</logginginfo>
					<labels>
						<label2/>
					</labels>
					<comments>
						<mastercomment1/>
						<mastercomment2/>
						<mastercomment3/>
						<mastercomment4/>
					</comments>
					<file id="B002C002_130101_R1WX"/>
					<filter>
						<effect>
							<name>Audio Levels</name>
							<effectid>audiolevels</effectid>
							<effectcategory>audiolevels</effectcategory>
							<effecttype>audiolevels</effecttype>
							<mediatype>audio</mediatype>
							<parameter>
								<name>Level</name>
								<parameterid>level</parameterid>
								<valuemin>0</valuemin>
								<valuemax>3.98109</valuemax>
								<value>1</value>
							</parameter>
						</effect>
					</filter>
					<filter>
						<effect>
							<name>Audio Pan</name>
							<effectid>audiopan</effectid>
							<effectcategory>audiopan</effectcategory>
							<effecttype>audiopan</effecttype>
							<mediatype>audio</mediatype>
							<parameter>
								<name>Pan</name>
								<parameterid>pan</parameterid>
								<valuemin>-1</valuemin>
								<valuemax>1</valuemax>
								<value>0</value>
							</parameter>
						</effect>
					</filter>
					<sourcetrack>
						<mediatype>audio</mediatype>
						<trackindex>5</trackindex>
					</sourcetrack>
					<link>
						<linkclipref>010_06_02_B</linkclipref>
						<mediatype>video</mediatype>
						<trackindex>1</trackindex>
						<clipindex>34</clipindex>
					</link>
					<link>
						<linkclipref>010_06_02_B2</linkclipref>
						<mediatype>audio</mediatype>
						<trackindex>1</trackindex>
						<clipindex>34</clipindex>
					</link>
					<link>
						<linkclipref>010_06_02_B3</linkclipref>
						<mediatype>audio</mediatype>
						<trackindex>2</trackindex>
						<clipindex>34</clipindex>
					</link>
					<link>
						<linkclipref>010_06_02_B4</linkclipref>
						<mediatype>audio</mediatype>
						<trackindex>3</trackindex>
						<clipindex>32</clipindex>
					</link>
					<link>
						<linkclipref>010_06_02_B5</linkclipref>
						<mediatype>audio</mediatype>
						<trackindex>4</trackindex>
						<clipindex>22</clipindex>
					</link>
					<link>
						<linkclipref>010_06_02_B6</linkclipref>
						<mediatype>audio</mediatype>
						<trackindex>5</trackindex>
						<clipindex>4</clipindex>
					</link>
					<itemhistory>
						<uuid>E76BDF5F-2C4A-4C2C-BDE9-6D538CBEB8F9</uuid>
					</itemhistory>
				</clipitem>
				<clipitem id="010_06_03_A_后面OK6">
					<name>010_06_03_A_后面OK</name>
					<duration>2177</duration>
					<rate>
						<ntsc>FALSE</ntsc>
						<timebase>24</timebase>
					</rate>
					<in>0</in>
					<out>2177</out>
					<start>21021</start>
					<end>23198</end>
					<subframeoffset>0</subframeoffset>
					<enabled>TRUE</enabled>
					<masterclipid>010_06_03_A_后面OK1</masterclipid>
					<logginginfo>
						<scene/>
						<shottake/>
						<lognote/>
						<good>FALSE</good>
					</logginginfo>
					<labels>
						<label2/>
					</labels>
					<comments>
						<mastercomment1/>
						<mastercomment2/>
						<mastercomment3/>
						<mastercomment4/>
					</comments>
					<file id="A002C003_221211_R03K"/>
					<filter>
						<effect>
							<name>Audio Levels</name>
							<effectid>audiolevels</effectid>
							<effectcategory>audiolevels</effectcategory>
							<effecttype>audiolevels</effecttype>
							<mediatype>audio</mediatype>
							<parameter>
								<name>Level</name>
								<parameterid>level</parameterid>
								<valuemin>0</valuemin>
								<valuemax>3.98109</valuemax>
								<value>1</value>
							</parameter>
						</effect>
					</filter>
					<filter>
						<effect>
							<name>Audio Pan</name>
							<effectid>audiopan</effectid>
							<effectcategory>audiopan</effectcategory>
							<effecttype>audiopan</effecttype>
							<mediatype>audio</mediatype>
							<parameter>
								<name>Pan</name>
								<parameterid>pan</parameterid>
								<valuemin>-1</valuemin>
								<valuemax>1</valuemax>
								<value>0</value>
							</parameter>
						</effect>
					</filter>
					<sourcetrack>
						<mediatype>audio</mediatype>
						<trackindex>5</trackindex>
					</sourcetrack>
					<link>
						<linkclipref>010_06_03_A_后面OK</linkclipref>
						<mediatype>video</mediatype>
						<trackindex>1</trackindex>
						<clipindex>35</clipindex>
					</link>
					<link>
						<linkclipref>010_06_03_A_后面OK2</linkclipref>
						<mediatype>audio</mediatype>
						<trackindex>1</trackindex>
						<clipindex>35</clipindex>
					</link>
					<link>
						<linkclipref>010_06_03_A_后面OK3</linkclipref>
						<mediatype>audio</mediatype>
						<trackindex>2</trackindex>
						<clipindex>35</clipindex>
					</link>
					<link>
						<linkclipref>010_06_03_A_后面OK4</linkclipref>
						<mediatype>audio</mediatype>
						<trackindex>3</trackindex>
						<clipindex>33</clipindex>
					</link>
					<link>
						<linkclipref>010_06_03_A_后面OK5</linkclipref>
						<mediatype>audio</mediatype>
						<trackindex>4</trackindex>
						<clipindex>23</clipindex>
					</link>
					<link>
						<linkclipref>010_06_03_A_后面OK6</linkclipref>
						<mediatype>audio</mediatype>
						<trackindex>5</trackindex>
						<clipindex>5</clipindex>
					</link>
					<itemhistory>
						<uuid>02BBC13D-2F7D-4253-9363-5327562837E7</uuid>
					</itemhistory>
				</clipitem>
				<clipitem id="010_06_03_B_后面OK6">
					<name>010_06_03_B_后面OK</name>
					<duration>2160</duration>
					<rate>
						<ntsc>FALSE</ntsc>
						<timebase>24</timebase>
					</rate>
					<in>425</in>
					<out>495</out>
					<start>23198</start>
					<end>23268</end>
					<subframeoffset>0</subframeoffset>
					<enabled>TRUE</enabled>
					<masterclipid>010_06_03_B_后面OK1</masterclipid>
					<logginginfo>
						<scene/>
						<shottake/>
						<lognote/>
						<good>FALSE</good>
					</logginginfo>
					<labels>
						<label2/>
					</labels>
					<comments>
						<mastercomment1/>
						<mastercomment2/>
						<mastercomment3/>
						<mastercomment4/>
					</comments>
					<file id="B002C003_130101_R1WX"/>
					<filter>
						<effect>
							<name>Audio Levels</name>
							<effectid>audiolevels</effectid>
							<effectcategory>audiolevels</effectcategory>
							<effecttype>audiolevels</effecttype>
							<mediatype>audio</mediatype>
							<parameter>
								<name>Level</name>
								<parameterid>level</parameterid>
								<valuemin>0</valuemin>
								<valuemax>3.98109</valuemax>
								<value>1</value>
							</parameter>
						</effect>
					</filter>
					<filter>
						<effect>
							<name>Audio Pan</name>
							<effectid>audiopan</effectid>
							<effectcategory>audiopan</effectcategory>
							<effecttype>audiopan</effecttype>
							<mediatype>audio</mediatype>
							<parameter>
								<name>Pan</name>
								<parameterid>pan</parameterid>
								<valuemin>-1</valuemin>
								<valuemax>1</valuemax>
								<value>0</value>
							</parameter>
						</effect>
					</filter>
					<sourcetrack>
						<mediatype>audio</mediatype>
						<trackindex>5</trackindex>
					</sourcetrack>
					<link>
						<linkclipref>010_06_03_B_后面OK</linkclipref>
						<mediatype>video</mediatype>
						<trackindex>1</trackindex>
						<clipindex>36</clipindex>
					</link>
					<link>
						<linkclipref>010_06_03_B_后面OK2</linkclipref>
						<mediatype>audio</mediatype>
						<trackindex>1</trackindex>
						<clipindex>36</clipindex>
					</link>
					<link>
						<linkclipref>010_06_03_B_后面OK3</linkclipref>
						<mediatype>audio</mediatype>
						<trackindex>2</trackindex>
						<clipindex>36</clipindex>
					</link>
					<link>
						<linkclipref>010_06_03_B_后面OK4</linkclipref>
						<mediatype>audio</mediatype>
						<trackindex>3</trackindex>
						<clipindex>34</clipindex>
					</link>
					<link>
						<linkclipref>010_06_03_B_后面OK5</linkclipref>
						<mediatype>audio</mediatype>
						<trackindex>4</trackindex>
						<clipindex>24</clipindex>
					</link>
					<link>
						<linkclipref>010_06_03_B_后面OK6</linkclipref>
						<mediatype>audio</mediatype>
						<trackindex>5</trackindex>
						<clipindex>6</clipindex>
					</link>
					<itemhistory>
						<uuid>B94B1782-C8EE-4A9D-95CA-9E6CE792A572</uuid>
					</itemhistory>
				</clipitem>
				<clipitem id="010_06_04_A_前面OK6">
					<name>010_06_04_A_前面OK</name>
					<duration>877</duration>
					<rate>
						<ntsc>FALSE</ntsc>
						<timebase>24</timebase>
					</rate>
					<in>582</in>
					<out>777</out>
					<start>23268</start>
					<end>23463</end>
					<subframeoffset>0</subframeoffset>
					<enabled>TRUE</enabled>
					<masterclipid>010_06_04_A_前面OK1</masterclipid>
					<logginginfo>
						<scene/>
						<shottake/>
						<lognote/>
						<good>FALSE</good>
					</logginginfo>
					<labels>
						<label2/>
					</labels>
					<comments>
						<mastercomment1/>
						<mastercomment2/>
						<mastercomment3/>
						<mastercomment4/>
					</comments>
					<file id="A002C004_221211_R03K"/>
					<filter>
						<effect>
							<name>Audio Levels</name>
							<effectid>audiolevels</effectid>
							<effectcategory>audiolevels</effectcategory>
							<effecttype>audiolevels</effecttype>
							<mediatype>audio</mediatype>
							<parameter>
								<name>Level</name>
								<parameterid>level</parameterid>
								<valuemin>0</valuemin>
								<valuemax>3.98109</valuemax>
								<value>1</value>
							</parameter>
						</effect>
					</filter>
					<filter>
						<effect>
							<name>Audio Pan</name>
							<effectid>audiopan</effectid>
							<effectcategory>audiopan</effectcategory>
							<effecttype>audiopan</effecttype>
							<mediatype>audio</mediatype>
							<parameter>
								<name>Pan</name>
								<parameterid>pan</parameterid>
								<valuemin>-1</valuemin>
								<valuemax>1</valuemax>
								<value>0</value>
							</parameter>
						</effect>
					</filter>
					<sourcetrack>
						<mediatype>audio</mediatype>
						<trackindex>5</trackindex>
					</sourcetrack>
					<link>
						<linkclipref>010_06_04_A_前面OK</linkclipref>
						<mediatype>video</mediatype>
						<trackindex>1</trackindex>
						<clipindex>37</clipindex>
					</link>
					<link>
						<linkclipref>010_06_04_A_前面OK2</linkclipref>
						<mediatype>audio</mediatype>
						<trackindex>1</trackindex>
						<clipindex>37</clipindex>
					</link>
					<link>
						<linkclipref>010_06_04_A_前面OK3</linkclipref>
						<mediatype>audio</mediatype>
						<trackindex>2</trackindex>
						<clipindex>37</clipindex>
					</link>
					<link>
						<linkclipref>010_06_04_A_前面OK4</linkclipref>
						<mediatype>audio</mediatype>
						<trackindex>3</trackindex>
						<clipindex>35</clipindex>
					</link>
					<link>
						<linkclipref>010_06_04_A_前面OK5</linkclipref>
						<mediatype>audio</mediatype>
						<trackindex>4</trackindex>
						<clipindex>25</clipindex>
					</link>
					<link>
						<linkclipref>010_06_04_A_前面OK6</linkclipref>
						<mediatype>audio</mediatype>
						<trackindex>5</trackindex>
						<clipindex>7</clipindex>
					</link>
					<itemhistory>
						<uuid>E36499FF-2A0A-4BC3-ACDE-502327E0A31D</uuid>
					</itemhistory>
				</clipitem>
				<clipitem id="010_06_04_B_后面OK6">
					<name>010_06_04_B_后面OK</name>
					<duration>839</duration>
					<rate>
						<ntsc>FALSE</ntsc>
						<timebase>24</timebase>
					</rate>
					<in>399</in>
					<out>487</out>
					<start>23463</start>
					<end>23551</end>
					<subframeoffset>0</subframeoffset>
					<enabled>TRUE</enabled>
					<masterclipid>010_06_04_B_后面OK1</masterclipid>
					<logginginfo>
						<scene/>
						<shottake/>
						<lognote/>
						<good>FALSE</good>
					</logginginfo>
					<labels>
						<label2/>
					</labels>
					<comments>
						<mastercomment1/>
						<mastercomment2/>
						<mastercomment3/>
						<mastercomment4/>
					</comments>
					<file id="B002C004_130101_R1WX"/>
					<filter>
						<effect>
							<name>Audio Levels</name>
							<effectid>audiolevels</effectid>
							<effectcategory>audiolevels</effectcategory>
							<effecttype>audiolevels</effecttype>
							<mediatype>audio</mediatype>
							<parameter>
								<name>Level</name>
								<parameterid>level</parameterid>
								<valuemin>0</valuemin>
								<valuemax>3.98109</valuemax>
								<value>1</value>
							</parameter>
						</effect>
					</filter>
					<filter>
						<effect>
							<name>Audio Pan</name>
							<effectid>audiopan</effectid>
							<effectcategory>audiopan</effectcategory>
							<effecttype>audiopan</effecttype>
							<mediatype>audio</mediatype>
							<parameter>
								<name>Pan</name>
								<parameterid>pan</parameterid>
								<valuemin>-1</valuemin>
								<valuemax>1</valuemax>
								<value>0</value>
							</parameter>
						</effect>
					</filter>
					<sourcetrack>
						<mediatype>audio</mediatype>
						<trackindex>5</trackindex>
					</sourcetrack>
					<link>
						<linkclipref>010_06_04_B_后面OK</linkclipref>
						<mediatype>video</mediatype>
						<trackindex>1</trackindex>
						<clipindex>38</clipindex>
					</link>
					<link>
						<linkclipref>010_06_04_B_后面OK2</linkclipref>
						<mediatype>audio</mediatype>
						<trackindex>1</trackindex>
						<clipindex>38</clipindex>
					</link>
					<link>
						<linkclipref>010_06_04_B_后面OK3</linkclipref>
						<mediatype>audio</mediatype>
						<trackindex>2</trackindex>
						<clipindex>38</clipindex>
					</link>
					<link>
						<linkclipref>010_06_04_B_后面OK4</linkclipref>
						<mediatype>audio</mediatype>
						<trackindex>3</trackindex>
						<clipindex>36</clipindex>
					</link>
					<link>
						<linkclipref>010_06_04_B_后面OK5</linkclipref>
						<mediatype>audio</mediatype>
						<trackindex>4</trackindex>
						<clipindex>26</clipindex>
					</link>
					<link>
						<linkclipref>010_06_04_B_后面OK6</linkclipref>
						<mediatype>audio</mediatype>
						<trackindex>5</trackindex>
						<clipindex>8</clipindex>
					</link>
					<itemhistory>
						<uuid>42637AEB-0245-494E-9A63-BA417DE8A265</uuid>
					</itemhistory>
				</clipitem>
				<enabled>TRUE</enabled>
				<locked>FALSE</locked>
				<outputchannelindex>1</outputchannelindex>
			</track>
			<track>
				<enabled>TRUE</enabled>
				<locked>FALSE</locked>
				<outputchannelindex>2</outputchannelindex>
			</track>
			<track>
				<enabled>TRUE</enabled>
				<locked>FALSE</locked>
				<outputchannelindex>1</outputchannelindex>
			</track>
			<track>
				<enabled>TRUE</enabled>
				<locked>FALSE</locked>
				<outputchannelindex>2</outputchannelindex>
			</track>
			<filter>
				<effect>
					<name>Audio Levels</name>
					<effectid>audiolevels</effectid>
					<effectcategory>audiolevels</effectcategory>
					<effecttype>audiolevels</effecttype>
					<mediatype>audio</mediatype>
					<parameter>
						<name>Level</name>
						<parameterid>level</parameterid>
						<valuemin>0</valuemin>
						<valuemax>3.98109</valuemax>
						<value>1</value>
					</parameter>
				</effect>
			</filter>
		</audio>
	</media>
	<ismasterclip>FALSE</ismasterclip>
</sequence>
</xmeml>


